<svg version="1.1" xmlns="http://www.w3.org/2000/svg" xmlns:xlink="http://www.w3.org/1999/xlink" width="85.98355" height="71.11354" viewBox="0,0,85.98355,71.11354"><defs><linearGradient x1="233.83005" y1="170.86502" x2="233.83005" y2="207.27444" gradientUnits="userSpaceOnUse" id="color-1"><stop offset="0" stop-color="#f475ff"></stop><stop offset="1" stop-color="#be5cc7"></stop></linearGradient><linearGradient x1="269.02574" y1="152.67469" x2="264.56495" y2="201.98833" gradientUnits="userSpaceOnUse" id="color-2"><stop offset="0" stop-color="#f475ff"></stop><stop offset="1" stop-color="#be5cc7"></stop></linearGradient></defs><g transform="translate(-209.96228,-146.3796)"><g data-paper-data="{&quot;isPaintingLayer&quot;:true}" fill-rule="nonzero" stroke="#000000" stroke-width="1.28786" stroke-linejoin="miter" stroke-miterlimit="10" stroke-dasharray="" stroke-dashoffset="0" style="mix-blend-mode: normal"><path d="M220.45199,206.95426c0,0 3.65218,-16.0928 7.72131,-22.4773c3.51724,-5.51858 15.27998,-13.61193 15.27998,-13.61193l3.75482,7.30566c0,0 -13.56527,7.73432 -15.44248,13.14452c-1.53787,4.43219 -2.56531,12.15854 -2.29065,15.57506c0.06635,0.82533 -9.02298,0.06399 -9.02298,0.06399z" fill="url(#color-1)" stroke-linecap="butt"></path><path d="" fill="none" stroke-linecap="butt"></path><path d="" fill="#00a735" stroke-linecap="butt"></path><path d="" fill="#ccf280" stroke-linecap="butt"></path><path d="" fill="#000000" stroke-linecap="butt"></path><path d="" fill="#000000" stroke-linecap="butt"></path><path d="" fill="#000000" stroke-linecap="round"></path><path d="M222.92462,211.15392c-2.70466,1.87581 -12.11965,0.1515 -12.11965,0.1515c0,0 1.52797,-4.64011 4.52455,-6.54625c1.26699,-0.80594 3.543,-0.0034 4.86818,0.03193c4.45937,0.11891 5.43158,4.48701 2.72692,6.36282z" data-paper-data="{&quot;index&quot;:null}" fill="#78ff69" stroke-linecap="round"></path><path d="M232.27271,203.73189c1.32518,-0.03534 3.60119,-0.83787 4.86818,-0.03193c2.99658,1.90614 4.52455,6.54624 4.52455,6.54624c0,0 -9.415,1.72431 -12.11965,-0.1515c-2.70466,-1.87581 -1.73245,-6.24391 2.72692,-6.36282z" data-paper-data="{&quot;index&quot;:null}" fill="#78ff69" stroke-linecap="round"></path><path d="M228.70409,215.69424c-3.57061,2.47639 -16,0.2 -16,0.2c0,0 2.0172,-6.12573 5.97319,-8.64216c1.67264,-1.06397 4.67736,-0.0045 6.42682,0.04215c5.88713,0.15699 7.17061,5.92361 3.6,8.4z" fill="#78ff69" stroke-linecap="round"></path><path d="M233.12999,205.63438c1.47499,-0.03933 4.0083,-0.93259 5.41852,-0.03554c3.33534,2.12162 5.03606,7.28629 5.03606,7.28629c0,0 -10.47935,1.91925 -13.48978,-0.16862c-3.01042,-2.08787 -1.9283,-6.94977 3.0352,-7.08213z" data-paper-data="{&quot;index&quot;:null}" fill="#78ff69" stroke-linecap="round"></path><path d="M245.84014,169.18094c0.49056,2.31113 -4.07448,4.4776 -4.07448,4.4776c0,0 -3.11253,-1.08527 -3.13216,-5.56204c-0.02016,-4.59789 0.97902,-8.45657 0.97902,-8.45657c0,0 5.09246,4.19295 6.22762,9.54101z" data-paper-data="{&quot;index&quot;:null}" fill="#78ff69" stroke-linecap="round"></path><path d="M244.00622,170.43415c2.36212,0.04906 3.43117,4.98772 3.43117,4.98772c0,0 -2.81888,4.87668 -7.18231,3.87552c-4.48149,-1.02825 -6.95808,-4.97391 -6.95808,-4.97391c0,0 5.2432,-4.00286 10.70923,-3.88931z" data-paper-data="{&quot;index&quot;:null}" fill="#78ff69" stroke-linecap="round"></path><path d="M241.9333,187.1275c0,0 -2.6706,-3.81702 -1.87352,-8.34534c0.7761,-4.40903 6.36537,-5.10756 6.36537,-5.10756c0,0 4.13313,2.90695 3.25895,5.1019c-2.02286,5.0792 -7.75081,8.351 -7.75081,8.351z" data-paper-data="{&quot;index&quot;:null}" fill="#78ff69" stroke-linecap="round"></path><path d="M250.82313,166.47863c0.49056,2.31113 -4.07447,4.4776 -4.07447,4.4776c0,0 -3.11253,-1.08527 -3.13216,-5.56204c-0.02016,-4.59789 0.97901,-8.45657 0.97901,-8.45657c0,0 5.09246,4.19295 6.22762,9.54101z" data-paper-data="{&quot;index&quot;:null}" fill="#78ff69" stroke-linecap="round"></path><path d="M289.25215,186.74309c-0.25855,2.85829 1.69095,8.14416 -0.05148,10.21394c-3.27532,3.89068 -12.0439,3.3401 -19.9331,2.62645c-12.08613,-1.09328 -21.28027,-8.65224 -20.5357,-16.8834c0.74457,-8.23116 11.1459,-14.01756 23.23204,-12.92427c12.08613,1.09328 18.03281,8.73612 17.28824,16.96728z" fill="#6f3574" stroke-linecap="butt"></path><path d="M290.44953,178.94784l-4.79861,7.6003l-1.8707,-5.96144z" fill="#ffffff" stroke-linecap="round"></path><path d="M294.56514,175.31695l-3.26805,7.73875l-0.97346,-5.88028z" fill="#ffffff" stroke-linecap="round"></path><path d="M282.90246,198.22506l-0.26857,-7.2517l5.78049,8.4374z" data-paper-data="{&quot;index&quot;:null}" fill="#ffffff" stroke-linecap="round"></path><path d="M275.93686,197.43383l2.01287,-5.61014l1.82631,8.19958z" data-paper-data="{&quot;index&quot;:null}" fill="#ffffff" stroke-linecap="round"></path><path d="M265.60254,196.89009l8.80418,-8.8805l-1.91411,8.66366z" data-paper-data="{&quot;index&quot;:null}" fill="#ffffff" stroke-linecap="round"></path><path d="M255.05165,190.86863l8.80418,-8.8805l-1.91411,8.66366z" data-paper-data="{&quot;index&quot;:null}" fill="#ffffff" stroke-linecap="round"></path><path d="M260.79248,196.08236l8.80418,-8.8805l-1.91411,8.66366z" data-paper-data="{&quot;index&quot;:null}" fill="#ffffff" stroke-linecap="round"></path><path d="M273.56459,179.36373l-8.80418,8.88051l1.91411,-8.66366z" data-paper-data="{&quot;index&quot;:null}" fill="#ffffff" stroke-linecap="round"></path><path d="M282.73755,179.78726l-6.09543,7.48299l-2.63091,-6.03021z" fill="#ffffff" stroke-linecap="round"></path><path d="M267.01639,175.30616l-8.80418,8.8805l1.91411,-8.66366z" data-paper-data="{&quot;index&quot;:null}" fill="#ffffff" stroke-linecap="round"></path><path d="M286.30222,197.49495l4.36055,-9.25146l0.89165,7.20169z" data-paper-data="{&quot;index&quot;:null}" fill="#ffffff" stroke-linecap="round"></path><path d="M261.7958,148.75968c0,0 3.1514,1.84488 4.09677,3.42522c1.11042,1.85624 2.15061,7.01827 2.15061,7.01827c0,0 -3.16354,0.86213 -4.29857,0.72403c-1.04264,-0.12687 -2.25797,-1.52182 -2.25797,-1.52182c0,0 0.858,-2.5936 0.90739,-4.13479c0.05334,-1.66453 -0.59826,-5.51091 -0.59826,-5.51091z" fill="#f7fff3" stroke-linecap="round"></path><path d="M256.47051,151.25032c0,0 3.1514,1.84488 4.09677,3.42522c1.11042,1.85623 2.15061,7.01826 2.15061,7.01826c0,0 -3.16354,0.86213 -4.29857,0.72403c-1.04264,-0.12687 -2.25797,-1.52182 -2.25797,-1.52182c0,0 0.858,-2.5936 0.90739,-4.13479c0.05334,-1.66453 -0.59826,-5.51091 -0.59826,-5.51091z" fill="#f7fff3" stroke-linecap="round"></path><path d="M243.52409,171.59802c3.17203,-13.26568 16.49744,-21.44821 29.76313,-18.27618c8.66221,2.07127 15.266,10.0283 17.92301,18.9948c0.79705,2.68976 -7.59497,6.4355 -19.04992,4.7579c-8.83862,-1.29443 -21.35596,-7.87564 -21.35596,-7.87564c0,0 -1.88798,6.26579 -0.37035,12.82213c0.90174,3.89565 3.73608,7.83905 6.88242,10.78179c7.55703,7.06803 25.75352,6.34109 23.1496,7.46575c-5.4267,2.34385 -12.085,2.66613 -18.66573,1.09258c-13.26568,-3.17203 -21.44821,-16.49743 -18.27618,-29.76313z" fill="url(#color-2)" stroke-linecap="butt"></path><path d="M279.13595,152.68206c0,0 2.92175,3.69002 3.31782,6.03028c0.46521,2.74883 -0.70045,9.43506 -0.70045,9.43506c0,0 -4.20275,-0.44457 -5.50131,-1.14143c-1.19284,-0.64014 -1.99987,-2.88405 -1.99987,-2.88405c0,0 2.24382,-2.71353 3.02415,-4.54139c0.84279,-1.97415 1.85966,-6.89849 1.85966,-6.89849z" fill="#f7fff3" stroke-linecap="round"></path><path d="M269.03405,148.4299c0,0 3.1514,1.84488 4.09677,3.42522c1.11042,1.85624 2.15061,7.01827 2.15061,7.01827c0,0 -3.16354,0.86213 -4.29857,0.72403c-1.04264,-0.12687 -2.25797,-1.52182 -2.25797,-1.52182c0,0 0.858,-2.5936 0.90739,-4.13479c0.05335,-1.66453 -0.59825,-5.51091 -0.59825,-5.51091z" fill="#f7fff3" stroke-linecap="round"></path><path d="M290.63316,168.03913c6.06326,-0.66771 4.48328,4.86878 4.48328,4.86878c0,0 -0.40633,3.16248 -2.81827,5.20596c-3.51293,2.9763 -10.68371,3.58443 -15.17476,3.64361c-7.57458,0.09979 -24.277,-8.29269 -24.277,-8.29269c0,0 1.43946,13.29941 6.628,18.27322c5.18854,4.9738 12.34723,7.43715 20.16922,7.41492c7.822,-0.02223 13.03736,-6.73934 13.03736,-6.73934l1.14826,6.92989c0,0 -7.30941,6.14153 -12.59964,5.90745c-5.29023,-0.23409 -17.94593,-2.31133 -25.71326,-10.63963c-7.76733,-8.32829 -6.24849,-27.74419 -4.75338,-27.65244c5.93569,0.36425 3.17164,2.66908 6.24555,4.65047c5.39919,3.48023 16.11634,5.32775 20.25724,5.43258c3.31392,0.0839 8.87941,0.48603 12.36702,-2.69922c1.24065,-1.13309 -0.88497,-6.09595 1.00037,-6.30357z" fill="#78ff69" stroke-linecap="round"></path></g></g></svg>