<svg version="1.1" xmlns="http://www.w3.org/2000/svg" xmlns:xlink="http://www.w3.org/1999/xlink" width="39.23358" height="65.20321" viewBox="0,0,39.23358,65.20321"><g transform="translate(-300.82768,-143.22228)"><g stroke="#000000" stroke-width="1.28786" stroke-miterlimit="10"><path d="M318.16087,204.18505c-9.47203,-5.26675 -7.96193,-8.37712 -7.96193,-12.43999c0,-6.99334 0,-28.54629 0,-28.54629h20.70559c0,0 0,20.81697 0,27.845c0,4.28193 7.41283,16.33602 7.41283,16.33602c0,0 -10.68446,2.07201 -20.15649,-3.19475z" fill="#ff7c00" stroke-linecap="butt" stroke-linejoin="miter"/><path d="M321.30158,177.33608c0,3.95462 -0.83996,7.16047 -1.87609,7.16047c-1.03613,0 -1.87609,-3.20585 -1.87609,-7.16047c0,-3.95462 0.5349,-5.4064 1.57104,-5.4064c1.03613,0 2.18115,1.45178 2.18115,5.4064z" fill="#66ff9b" stroke-linecap="butt" stroke-linejoin="miter"/><path d="M329.90411,177.03773c0,3.93108 -1.04482,7.11785 -2.33367,7.11785c-1.28884,0 -2.33367,-3.18677 -2.33367,-7.11785c0,-3.93108 1.27361,-4.52488 2.56246,-4.52488c1.28884,0 2.10488,0.5938 2.10488,4.52488z" fill="#66ff9b" stroke-linecap="butt" stroke-linejoin="miter"/><path d="M310.58564,196.40901c0,0 -0.43621,-1.39593 -0.48862,-2.035c-0.03925,-0.47869 0.20206,-1.45927 0.20206,-1.45927l20.36471,-0.21262c0,0 -0.00642,0.67263 0.10295,1.18297c0.13485,0.6293 0.95087,2.10793 0.95087,2.10793z" fill="#2700ff" stroke-linecap="butt" stroke-linejoin="miter"/><path d="M331.88401,199.94488c0,1.44738 -1.17332,2.6207 -2.62069,2.6207c-1.44738,0 -2.6207,-1.17332 -2.6207,-2.6207c0,-1.44738 1.17332,-2.6207 2.6207,-2.6207c1.44738,0 2.62069,1.17332 2.62069,2.6207z" fill="#ffffff" stroke-linecap="butt" stroke-linejoin="miter"/><path d="M322.24538,174.38089l-5.79604,-6.17736" fill="none" stroke-linecap="round" stroke-linejoin="miter"/><path d="M325.29592,173.84704l5.0334,-4.42329" fill="none" stroke-linecap="round" stroke-linejoin="miter"/><path d="M318.73725,189.70989l-6.32989,-5.49099" fill="none" stroke-linecap="round" stroke-linejoin="miter"/><g stroke-linecap="round"><path d="M311.13164,180.23346c0,0 -3.01356,-2.17599 -3.93115,-3.25941c-0.81767,-0.96544 -1.11985,-3.49631 -1.11985,-3.49631l3.34629,1.32589c0,0 -4.07448,-3.97868 -5.45176,-6.11018c-1.26495,-1.95764 -2.50357,-7.65382 -2.50357,-7.65382c0,0 1.45435,1.19891 2.19882,1.59891c0.65381,0.3513 2.0314,0.67404 2.0314,0.67404l-0.44196,-10.85967c0,0 0.7162,1.58517 1.35662,2.3171c0.68276,0.7803 2.62105,2.22881 2.62105,2.22881l1.70471,-13.13262c0,0 1.55802,3.54261 3.22002,5.30355c2.04731,2.16921 5.2489,3.12396 5.2489,3.12396c0,0 0.16177,-1.28842 -0.07257,-2.10406c-0.28475,-0.99104 -1.51434,-3.41913 -1.51434,-3.41913c0,0 3.57134,0.78177 4.92087,1.5807c1.27721,0.75611 2.97133,3.09148 2.97133,3.09148c0,0 1.05391,3.73491 1.0102,6.50317c-0.04371,2.76825 -1.19961,5.49297 -1.19961,5.49297c0,0 2.3133,-2.74199 2.68744,-4.7166c0.38329,-2.02293 -0.41448,-7.27954 -0.41448,-7.27954c0,0 4.85627,4.90625 5.68238,8.96553c0.82611,4.05929 -0.1894,4.86159 -0.1894,4.86159c0,0 2.97453,0.19716 3.84546,1.63374c1.11134,1.83314 2.27889,8.46828 2.27889,8.46828c0,0 -2.64175,-2.37381 -3.78721,-2.96945c-0.62633,-0.32569 -2.52653,-0.3137 -2.52653,-0.3137l-1.32589,-2.46236c0,0 1.2407,3.85992 1.22567,5.24275c-0.02331,2.14454 -1.35194,6.75338 -1.35194,6.75338l-1.5153,-4.16708l-1.51531,3.72512c0,0 -1.89735,-8.06691 -3.01534,-9.81377c-0.70371,-1.09954 -3.04587,0.34313 -3.04587,0.34313c0,0 -2.97681,-0.44143 -3.47257,0.37883c-0.49576,0.82026 0,5.3667 0,5.3667c0,0 -2.25005,-1.75652 -2.79983,-3.03931c-0.58457,-1.36399 -0.6096,-4.91602 -0.6096,-4.91602c0,0 -0.68766,3.00981 -0.65485,4.42018c0.0301,1.29464 0.84427,3.72457 0.84427,3.72457c0,0 -1.2005,-0.49371 -2.10549,-1.29264c-1.04428,-0.9219 -1.82065,-2.18743 -1.9523,-2.54613c-0.29024,-0.79081 -0.22173,-1.88632 -0.02285,-2.69055c0.44322,-1.79229 2.43907,-3.19387 2.43907,-3.19387c0,0 -1.67463,0.99461 -2.42586,2.57009c-0.70534,1.47923 -0.477,3.49298 -0.8573,5.00641c-0.78534,3.12535 0.18941,4.73531 0.18941,4.73531z" fill="#ffff3c" stroke-linejoin="round"/><path d="M329.18898,168.30046c0,0 0.8797,-0.1749 1.31869,0.01472c1.01026,0.43638 1.64877,2.1951 1.64877,2.1951" fill="none" stroke-linejoin="miter"/><path d="M322.81209,166.53262c0,0 0.6583,-0.90664 1.64158,-0.75765c0.98329,0.14898 3.51286,0.83987 4.3565,2.65178c0.84364,1.8119 1.19961,9.28123 1.19961,9.28123" fill="none" stroke-linejoin="miter"/><path d="M321.10737,167.3534c0,0 0.58677,1.10441 0.7156,1.67122c0.17342,0.76303 0.23147,2.49586 0.23147,2.49586" fill="none" stroke-linejoin="miter"/><path d="M315.61441,169.81577c0,0 0.06969,-2.43238 2.0204,-3.78826c0.74861,-0.52034 2.33609,0 2.33609,0" fill="none" stroke-linejoin="miter"/><path d="M305.89122,162.93377c0,0 1.07392,1.80989 1.39156,2.82054c0.36912,1.17446 0.69198,3.80889 0.69198,3.80889" fill="none" stroke-linejoin="miter"/><path d="M308.79555,156.74629c0,0 2.40303,1.45597 3.50414,2.55707c1.28934,1.28934 3.75668,4.70375 3.75668,4.70375" fill="none" stroke-linejoin="miter"/><path d="M319.40266,151.82156c0,0 0.42603,2.66043 0.4536,3.9198c0.03415,1.55934 -0.26419,4.73004 -0.26419,4.73004" fill="none" stroke-linejoin="miter"/><path d="M331.9039,169.18439l1.45217,-4.10394" fill="none" stroke-linejoin="miter"/></g></g></g></svg>