<svg version="1.1" xmlns="http://www.w3.org/2000/svg" xmlns:xlink="http://www.w3.org/1999/xlink" width="64.79222" height="88.80982" viewBox="0,0,64.79222,88.80982"><g transform="translate(-207.5598,-137.40138)"><g data-paper-data="{&quot;isPaintingLayer&quot;:true}" fill-rule="nonzero" stroke-linecap="butt" stroke-linejoin="miter" stroke-miterlimit="10" stroke-dasharray="" stroke-dashoffset="0" style="mix-blend-mode: normal"><path d="M208.55231,222.40698v-84.81396h62.89539v84.81396z" fill="#515151" stroke="none" stroke-width="0"></path><g stroke="#000000" stroke-width="1.28786"><g><path d="M240.01691,206.18678l17.67563,-9.10847l2.92287,5.67202l-17.67563,9.10847z" fill="#000000"></path><path d="M252.6121,199.52941l8.70591,-4.48626l3.12678,6.06775l-8.70591,4.48626z" fill="#ffffff"></path></g><path d="M238.01144,212.45581v-18.20341h5.15624v18.20341z" fill="#00ff50"></path><path d="M233.55073,215.4789c-3.58524,0 -6.49165,-1.51955 -6.49165,-3.39401c0,-1.87447 2.90641,-3.39401 6.49165,-3.39401c3.58524,0 6.49165,1.51955 6.49165,3.39401c0,1.87447 -2.90641,3.39401 -6.49165,3.39401z" fill="#00ff50"></path><path d="M255.00101,211.79277c0,1.93336 -3.17215,3.50066 -7.08518,3.50066c-3.91304,0 -7.08518,-1.56732 -7.08518,-3.50066c0,-1.93336 3.17215,-3.50066 7.08518,-3.50066c3.91304,0 7.08518,1.5673 7.08518,3.50066z" fill="#00ff50"></path><path d="M236.86303,175.26188c-0.41481,1.36298 -2.83881,4.20936 -5.63218,4.18433c-3.74884,-0.03359 -8.05702,-3.25401 -8.05702,-3.25401c0,0 3.2036,0.03105 4.1751,-3.16113c0.9715,-3.19215 2.45853,-6.2318 5.59469,-5.27734c3.13615,0.95445 4.89095,4.31595 3.91945,7.50811z" fill="#00de46"></path><path d="M255.28371,181.98448c0,8.31837 -6.14544,15.06175 -13.72622,15.06175c-7.58078,0 -13.72622,-6.74336 -13.72622,-15.06175c0,-8.31837 6.14544,-15.06175 13.72622,-15.06175c7.58078,0 13.72622,6.74336 13.72622,15.06175z" fill="#00ff50"></path><path d="M240.95332,180.03417c0,3.95137 -1.25756,7.15459 -2.80885,7.15459c-1.55127,0 -2.80885,-3.20322 -2.80885,-7.15459c0,-3.95137 1.25756,-7.15459 2.80885,-7.15459c1.55127,0 2.80885,3.20322 2.80885,7.15459z" fill="#000000"></path><path d="M248.37291,180.56414c0,3.95137 -1.25756,7.15459 -2.80885,7.15459c-1.55127,0 -2.80885,-3.20322 -2.80885,-7.15459c0,-3.95137 1.25756,-7.15459 2.80885,-7.15459c1.55127,0 2.80885,3.20322 2.80885,7.15459z" fill="#000000"></path><path d="M260.32903,184.9205c0,6.14658 -3.28864,11.12938 -7.34538,11.12938c-4.05675,0 -7.34538,-4.98278 -7.34538,-11.12938c0,-6.14658 3.28864,-11.12938 7.34538,-11.12938c4.05675,0 7.34538,4.98278 7.34538,11.12938z" fill="#00ff50"></path><path d="M256.61922,185.24908c0,4.05675 -1.29551,7.34538 -2.89364,7.34538c-1.5981,0 -2.89364,-3.28864 -2.89364,-7.34538c0,-4.05675 1.29551,-7.34538 2.89364,-7.34538c1.5981,0 2.89364,3.28864 2.89364,7.34538z" fill="#000000"></path><g><path d="M255.10961,171.3076c0.13147,0.73913 -0.42779,1.74436 -2.73444,2.6956c-2.8898,1.19172 -8.08576,2.33916 -13.1198,3.23449c-3.76137,0.669 -9.6543,1.40752 -12.49003,1.50758c-3.98877,0.14073 -4.26357,-0.63416 -4.43666,-1.60739c-0.15687,-0.88198 -0.50216,-2.05388 2.6816,-3.18891c2.827,-1.00782 8.91517,-1.98398 13.17263,-2.74119c4.02939,-0.71666 10.09318,-1.79569 13.02623,-1.85966c3.65617,-0.07972 3.73611,1.03554 3.90045,1.95945z" fill="#ffffff"></path><path d="M225.34228,176.60361c0,0 3.51612,-9.3608 2.81527,-15.94955c-0.54037,-5.07996 -7.931,-12.81364 -7.931,-12.81364c0,0 12.97884,-0.40773 18.22389,3.44687c5.57162,4.0946 14.28534,20.44422 14.28534,20.44422z" fill="#ba0bff"></path><path d="M222.64937,147.69209c0.36773,2.06764 -0.90808,4.02371 -2.84964,4.36904c-1.94156,0.34533 -3.81362,-1.0509 -4.18137,-3.11853c-0.36773,-2.06764 0.90808,-4.02371 2.84964,-4.36904c1.94156,-0.34533 3.81362,1.0509 4.18137,3.11853z" fill="#ffffff"></path><path d="M227.88148,159.10177c-0.36499,0.06492 0.22156,-0.54092 -0.03149,-1.04851c-0.53359,-1.07029 -1.70943,-2.57801 -1.70943,-2.57801l-2.43323,-3.76831c0,0 1.41577,-1.252 2.59883,-1.46242c2.42064,-0.43053 4.73561,1.20322 5.17064,3.64907c0.43501,2.44585 -1.17467,4.77763 -3.5953,5.20816z" fill="#ffffff"></path><path d="M239.68722,158.74474c-0.31024,-1.74428 1.33935,-4.50846 1.33935,-4.50846l5.71519,7.84189c0,0 -1.10256,0.64768 -1.75707,0.7641c-2.44587,0.43501 -4.81763,-1.39952 -5.29747,-4.09753z" fill="#ffffff"></path><path d="M230.02488,166.91597c0.25114,1.41204 -0.9148,2.80032 -2.60422,3.10078c-0.44033,0.07831 0.04425,0.64975 -0.00077,0.51582c-0.12775,-0.37992 0.25937,-1.97481 0.25937,-1.97481l0.3355,-3.3517c0,0 1.88985,1.03383 2.01011,1.70993z" fill="#ffffff"></path><path d="M238.03761,160.59243c0.32289,1.81548 -1.03017,3.57443 -3.02216,3.92871c-1.99197,0.35428 -3.86858,-0.83024 -4.19146,-2.64571c-0.32289,-1.81548 1.03017,-3.57443 3.02216,-3.92871c1.99197,-0.35428 3.86858,0.83024 4.19146,2.64571z" fill="#ffffff"></path><path d="M238.6647,151.56618c0,0 -0.68759,3.56609 -3.23409,2.04811c-2.95602,-1.76208 -0.93274,-4.44991 -0.93274,-4.44991z" fill="#ffffff"></path><path d="M248.93396,164.97607l2.8421,4.68845c0,0 -0.74312,0.58004 -1.22073,0.66497c-1.33641,0.23768 -2.64151,-0.81653 -2.91509,-2.35464c-0.22757,-1.27948 1.29372,-2.99879 1.29372,-2.99879z" fill="#ffffff"></path><path d="M225.3876,176.66925l1.56237,-4.54949c0,0 0.93639,-0.30183 1.43468,-0.39046c3.15619,-0.56134 8.05584,3.02006 8.05584,3.02006z" fill="#ffffff"></path><path d="M247.88003,172.50094c0.12048,0.67738 0.61016,-0.01667 -0.23094,0.05467c-1.28799,0.10922 -4.15202,0.72487 -4.15202,0.72487c0,0 -2.87841,0.50882 -4.11507,0.76324c-0.6619,0.13615 0.02104,0.58159 -0.08527,-0.01617c-0.30495,-1.71463 1.36926,-3.44635 3.73949,-3.86791c2.37023,-0.42156 4.53887,0.62669 4.84382,2.3413z" fill="#ffffff"></path><path d="M242.35596,166.33493c0.24115,1.35587 -0.76937,2.66951 -2.25706,2.93412c-1.4877,0.26461 -2.88918,-0.62006 -3.13033,-1.97591c-0.24115,-1.35587 0.76937,-2.66951 2.25706,-2.93412c1.4877,-0.26461 2.88918,0.62006 3.13033,1.97591z" fill="#ffffff"></path></g></g><path d="M208.55233,222.38702v-12.81396h62.89539v12.81396z" fill="#969696" stroke="none" stroke-width="0"></path><path d="M208.50229,222.35702v-84.81396h8.64539v84.81396z" fill="#969696" stroke="none" stroke-width="0"></path><path d="M264.05233,222.40701v-84.81396h8.14539v84.81396z" fill="#969696" stroke="none" stroke-width="0"></path><path d="M208.55233,147.90701v-10.31396h62.89539v10.31396z" fill="#969696" stroke="none" stroke-width="0"></path><path d="M216.29734,211.48042v-21.00188l21.13534,21.00188z" fill="#969696" stroke="none" stroke-width="0"></path><path d="M223.41181,215.22399v-12.15842h44.05785v12.15842z" fill="#969696" stroke="none" stroke-width="0"></path><text transform="translate(238.31589,219.9612) scale(0.47116,0.5)" font-size="40" xml:space="preserve" fill="#000000" fill-rule="nonzero" stroke="none" stroke-width="1" stroke-linecap="butt" stroke-linejoin="miter" stroke-miterlimit="10" stroke-dasharray="" stroke-dashoffset="0" font-family="Sans Serif" font-weight="normal" text-anchor="start" style="mix-blend-mode: normal"><tspan x="0" dy="0">225</tspan></text><g><path d="M223.936,213.69347l-2.65375,6.84999l-2.38631,-6.84999z" data-paper-data="{&quot;index&quot;:null}" fill="#ffff00" stroke="#ffff00" stroke-width="1"></path><path d="M218.96775,202.31762l2.38632,-6.84999l2.65375,6.84999z" fill="#ffff00" stroke="#ffff00" stroke-width="1"></path><path d="M214.78435,208.21682c0,-3.72115 3.01658,-6.73773 6.73773,-6.73773c3.72115,0 6.73772,3.01658 6.73772,6.73773c0,3.72115 -3.01658,6.73772 -6.73772,6.73772c-3.72115,0 -6.73773,-3.01658 -6.73773,-6.73772z" fill="#ffff00" stroke="none" stroke-width="0"></path><path d="M227.21236,205.68172l6.87114,2.59848l-6.83054,2.44142z" data-paper-data="{&quot;index&quot;:null}" fill="#ffff00" stroke="#ffff00" stroke-width="1"></path><path d="M215.87692,210.74146l-6.86899,-2.33105l6.82838,-2.70885z" fill="#ffff00" stroke="#ffff00" stroke-width="1"></path><path d="M227.52794,210.32821l3.04475,6.68537l-6.56714,-3.08051z" data-paper-data="{&quot;index&quot;:null}" fill="#ffff00" stroke="#ffff00" stroke-width="1"></path><path d="M215.91926,205.9314l-3.23165,-6.49409l6.75404,2.88922z" fill="#ffff00" stroke="#ffff00" stroke-width="1"></path><path d="M224.08737,202.38559l6.66063,-3.0985l-3.02751,6.59174z" data-paper-data="{&quot;index&quot;:null}" fill="#ffff00" stroke="#ffff00" stroke-width="1"></path><path d="M219.78422,214.02932l-6.46785,3.28387l2.83472,-6.7771z" fill="#ffff00" stroke="#ffff00" stroke-width="1"></path><path d="M216.80059,208.41738c0,-2.70702 2.19448,-4.90151 4.9015,-4.90151c2.70702,0 4.90151,2.19448 4.90151,4.90151c0,2.70702 -2.19448,4.9015 -4.90151,4.9015c-2.70702,0 -4.9015,-2.19448 -4.9015,-4.9015z" fill="#fffff7" stroke="none" stroke-width="0"></path></g><path d="M272.35202,137.40138v33.64619l-33.86,-33.64619z" fill="#3aff00" stroke="none" stroke-width="0"></path></g></g></svg>