<svg version="1.1" xmlns="http://www.w3.org/2000/svg" xmlns:xlink="http://www.w3.org/1999/xlink" width="77.97152" height="60.30303" viewBox="0,0,77.97152,60.30303"><g transform="translate(-200.90113,-149.66455)"><g data-paper-data="{&quot;isPaintingLayer&quot;:true}" fill-rule="nonzero" stroke="#000000" stroke-width="1.28786" stroke-linejoin="miter" stroke-miterlimit="10" stroke-dasharray="" stroke-dashoffset="0" style="mix-blend-mode: normal"><path d="M256.37751,200.3876c0,0 -10.48375,-2.00364 -15.59132,-2.07986c-5.24091,-0.07822 -15.46443,1.61635 -15.46443,1.61635l-5.31341,-5.82994l-9.8884,-8.24032l8.24034,0.41202l-7.00429,-6.38626l7.82832,-1.03004l3.09012,-4.53219l5.21887,0.13735l-3.3648,-4.66952v-8.24032l3.91415,3.50214l5.35622,-5.76822l2.71351,2.97224l-0.53371,-5.14894l5.83027,-6.41745l4.35307,6.01646l-0.55615,5.58921l3.8476,-3.58747l2.4721,5.76824l6.79827,-3.29614v8.24034l-3.77681,4.39484l5.63089,0.13734l3.09012,4.53217l7.82832,1.03005l-7.00429,6.38625l8.24034,-0.41201l-9.8884,8.24032z" fill="#27ffb8" stroke-linecap="round"></path><path d="M241.46155,198.65267l-16.36236,8.82509l-3.40495,-3.13226l-0.19448,4.11061l-7.50417,0.64046l-5.63845,-1.72937l4.87304,-5.0762l3.8735,0.51254l-0.19688,-3.3637l11.33113,-4.40696" fill="#27ffb8" stroke-linecap="round"></path><path d="M253.36424,195.25167l11.33114,4.40696l-0.19688,3.3637l3.8735,-0.51254l4.87304,5.07621l-5.63844,1.72937l-7.50417,-0.64046l-0.19448,-4.11061l-3.40495,3.13226l-16.36236,-8.82509" data-paper-data="{&quot;index&quot;:null}" fill="#27ffb8" stroke-linecap="round"></path><path d="M236.12324,180.74178l-5.22059,-2.94514l4.50713,0.0412z" data-paper-data="{&quot;index&quot;:null}" fill="#000000" stroke-linecap="round"></path><path d="M245.4584,177.64754l4.50713,-0.0412l-5.2206,2.94514z" fill="#000000" stroke-linecap="round"></path><path d="M237.61187,178.92954c0,3.54174 -0.83618,6.4129 -1.86767,6.4129c-1.0315,0 -1.86767,-2.87116 -1.86767,-6.4129c0,-3.54174 0.83619,-6.41289 1.86767,-6.41289c1.0315,0 1.86767,2.87115 1.86767,6.41289z" fill="#ffffff" stroke-linecap="butt"></path><path d="M245.78292,179.4857c0,3.6593 -0.80237,6.62573 -1.79214,6.62573c-0.98978,0 -1.79214,-2.96643 -1.79214,-6.62573c0,-3.6593 0.80237,-6.62573 1.79214,-6.62573c0.98978,0 1.79214,2.96645 1.79214,6.62573z" fill="#ffffff" stroke-linecap="butt"></path><path d="M222.11273,193.23145l-1.51321,-3.96208l6.72542,1.42635l-0.33627,-6.02238l13.04039,13.99781h-34.98643z" fill="#27ffb8" stroke-linecap="round"></path><path d="M234.35935,191.39069l10.92601,-2.91676l-1.24093,3.27624l-5.85064,-1.31846z" fill="#ffffff" stroke-linecap="round"></path><path d="M274.95737,198.80755h-32.97799l12.29179,-13.99781l-0.31697,6.02237l6.33934,-1.42635l-1.42635,3.96208z" data-paper-data="{&quot;index&quot;:null}" fill="#27ffb8" stroke-linecap="round"></path></g></g></svg>