<svg version="1.1" xmlns="http://www.w3.org/2000/svg" xmlns:xlink="http://www.w3.org/1999/xlink" width="17.64593" height="17.35259" viewBox="0,0,17.64593,17.35259"><g transform="translate(-231.15223,-171.32589)"><g data-paper-data="{&quot;isPaintingLayer&quot;:true}" fill="#ffb900" fill-rule="nonzero" stroke="#ffb900" stroke-width="1.28786" stroke-linecap="butt" stroke-linejoin="miter" stroke-miterlimit="10" stroke-dasharray="" stroke-dashoffset="0" style="mix-blend-mode: normal"><path d="M236.235,182.23452c0,0 -4.7502,-2.24205 -4.42264,-3.63591c0.32469,-1.39479 5.57539,-1.29969 5.57539,-1.29969c0,0 0.66377,-5.21035 2.0922,-5.33137c1.42649,-0.12009 2.95867,4.90292 2.95867,4.90292c0,0 5.15944,-0.97887 5.71562,0.34103c0.55617,1.31889 -3.74735,4.32945 -3.74735,4.32945c0,0 2.52545,4.60516 1.44189,5.54174c-1.08263,0.93662 -5.27568,-2.22669 -5.27568,-2.22669c0,0 -3.59843,3.82324 -4.82319,3.08357c-1.22767,-0.73967 0.4851,-5.70506 0.4851,-5.70506z" data-paper-data="{&quot;index&quot;:null}"></path></g></g></svg>