<svg version="1.1" xmlns="http://www.w3.org/2000/svg" xmlns:xlink="http://www.w3.org/1999/xlink" width="45.44712" height="54.76103" viewBox="0,0,45.44712,54.76103"><g transform="translate(-217.27644,-152.61949)"><g data-paper-data="{&quot;isPaintingLayer&quot;:true}" fill-rule="nonzero" stroke="#000000" stroke-width="1.28786" stroke-linejoin="miter" stroke-miterlimit="10" stroke-dasharray="" stroke-dashoffset="0" style="mix-blend-mode: normal"><g fill="#ffff00" stroke-linecap="butt"><path d="M262.07963,175.34305c0,2.88531 -9.88539,5.22432 -22.07963,5.22432c-12.19424,0 -22.07963,-2.33901 -22.07963,-5.22432c0,-2.88531 9.88539,-5.22432 22.07963,-5.22432c12.19424,0 22.07963,2.33901 22.07963,5.22432z"></path><path d="M240,153.26342c2.88531,0 5.22432,9.88539 5.22432,22.07963c0,12.19425 -2.33901,22.07963 -5.22432,22.07963c-2.88531,0 -5.22432,-9.88538 -5.22432,-22.07963c0,-12.19425 2.33901,-22.07963 5.22432,-22.07963z"></path><path d="M255.61266,159.73039c2.04022,2.04022 -3.29587,10.68417 -11.9185,19.30681c-8.62263,8.62263 -17.26659,13.95873 -19.30681,11.9185c-2.04022,-2.04022 3.29587,-10.68417 11.9185,-19.30681c8.62263,-8.62263 17.26659,-13.95873 19.30681,-11.9185z"></path><path d="M224.38734,159.73039c2.04022,-2.04022 10.68417,3.29587 19.30681,11.9185c8.62263,8.62263 13.95873,17.26659 11.9185,19.30681c-2.04022,2.04022 -10.68417,-3.29587 -19.30681,-11.9185c-8.62263,-8.62263 -13.95873,-17.26659 -11.9185,-19.30681z"></path><path d="M260.31888,183.98325c-1.12908,2.65522 -11.14145,0.93935 -22.36326,-3.8325c-11.22181,-4.77185 -19.40358,-10.79269 -18.2745,-13.44791c1.12908,-2.65522 11.14145,-0.93935 22.36326,3.8325c11.22181,4.77185 19.40358,10.79269 18.2745,13.44791z"></path><path d="M248.64021,155.02416c2.65522,1.12908 0.93935,11.14145 -3.8325,22.36326c-4.77185,11.22181 -10.79269,19.40358 -13.44791,18.2745c-2.65522,-1.12908 -0.93935,-11.14145 3.8325,-22.36326c4.77185,-11.22181 10.79269,-19.40358 13.44791,-18.2745z"></path><path d="M237.95562,170.53534c11.22181,-4.77185 21.23418,-6.48772 22.36326,-3.8325c1.12908,2.65522 -7.05269,8.67606 -18.2745,13.44791c-11.22181,4.77185 -21.23418,6.48772 -22.36326,3.8325c-1.12908,-2.65522 7.05269,-8.67606 18.2745,-13.44791z" data-paper-data="{&quot;index&quot;:null}"></path><path d="M244.8077,173.29867c4.77185,11.22181 6.48772,21.23418 3.8325,22.36326c-2.65522,1.12908 -8.67606,-7.05269 -13.44791,-18.2745c-4.77185,-11.22181 -6.48772,-21.23418 -3.8325,-22.36326c2.65522,-1.12908 8.67606,7.05269 13.44791,18.2745z" data-paper-data="{&quot;index&quot;:null}"></path></g><path d="M236.25724,202.66212v-24.5343h6.9495v24.5343z" fill="#00ff50" stroke-linecap="butt"></path><path d="M238.99452,202.16218c0,-2.52637 -3.91722,-4.5744 -8.74936,-4.5744c-4.83214,0 -8.74936,2.04803 -8.74936,4.5744c0,2.52637 3.91722,4.5744 8.74936,4.5744c4.83214,0 8.74936,-2.04803 8.74936,-4.5744z" fill="#00ff50" stroke-linecap="butt"></path><path d="M259.15554,201.76848c0,2.60575 -4.27537,4.71814 -9.5493,4.71814c-5.27393,0 -9.5493,-2.11239 -9.5493,-4.71814c0,-2.60575 4.27537,-4.71813 9.5493,-4.71813c5.27393,0 9.5493,2.11238 9.5493,4.71813z" fill="#00ff50" stroke-linecap="butt"></path><path d="M254.31842,176.20932c0,-6.51266 -6.44383,-11.79222 -14.3927,-11.79222c-7.94887,0 -14.3927,5.27956 -14.3927,11.79222c0,6.51266 6.44383,11.79221 14.3927,11.79221c7.94887,0 14.3927,-5.27955 14.3927,-11.79221z" fill="#a90000" stroke-linecap="butt"></path><path d="M236.96752,175.9446c0,-3.01991 -0.57359,-5.46804 -1.28116,-5.46804c-0.70756,0 -1.28116,2.44812 -1.28116,5.46804c0,3.01991 0.57359,5.46804 1.28116,5.46804c0.70756,0 1.28116,-2.44812 1.28116,-5.46804z" fill="#000000" stroke-linecap="butt"></path><path d="M243.95449,174.70101c0,-2.98885 -0.37214,-5.41179 -0.83119,-5.41179c-0.45905,0 -0.83119,2.42294 -0.83119,5.41179c0,2.98885 0.37214,5.41179 0.83119,5.41179c0.45905,0 0.83119,-2.42294 0.83119,-5.41179z" fill="#000000" stroke-linecap="butt"></path><path d="M230.45548,175.25094c0,0 -0.9114,4.89662 0.61735,6.02134c4.46254,3.28313 7.15708,2.89 7.15708,2.89" fill="none" stroke-linecap="round"></path></g></g></svg>