<svg version="1.1" xmlns="http://www.w3.org/2000/svg" xmlns:xlink="http://www.w3.org/1999/xlink" width="41.86016" height="54.15992" viewBox="0,0,41.86016,54.15992"><defs><linearGradient x1="320.05647" y1="165.16397" x2="320.05647" y2="201.14141" gradientUnits="userSpaceOnUse" id="color-1"><stop offset="0" stop-color="#ef3cff"/><stop offset="1" stop-color="#da90ff"/></linearGradient><radialGradient cx="320.48994" cy="155.77228" r="17.04955" gradientUnits="userSpaceOnUse" id="color-2"><stop offset="0" stop-color="#69ff6c"/><stop offset="1" stop-color="#00ff05"/></radialGradient></defs><g transform="translate(-299.06992,-152.88879)"><g stroke-miterlimit="10"><path d="M319.46239,205.10002c-1.81822,-1.78999 -2.20718,-7.17078 -2.20718,-7.17078l4.71344,-2.05968c0,0 -0.09365,3.88938 0.5573,5.64874c0.64881,1.75353 3.34202,4.89 3.34202,4.89c0,0 -4.58737,0.48171 -6.40559,-1.30828z" fill="#f2ffd0" stroke="#000000" stroke-width="1.28786" stroke-linecap="butt" stroke-linejoin="miter"/><path d="M302.06776,183.15269c0,-9.93489 8.05382,-17.98872 17.98872,-17.98872c9.93489,0 17.98871,8.05382 17.98871,17.98872c0,9.93489 -8.05382,17.98872 -17.98871,17.98872c-9.93489,0 -17.98872,-8.05382 -17.98872,-17.98872z" fill="url(#color-1)" stroke="#000000" stroke-width="1.28786" stroke-linecap="butt" stroke-linejoin="miter"/><path d="M303.88698,174.4964c-1.65558,-1.65558 -1.03303,-4.96236 1.39051,-7.3859c2.42354,-2.42354 5.73033,-3.04609 7.3859,-1.39052c1.65558,1.65558 1.03303,4.96237 -1.39052,7.3859c-2.42354,2.42354 -5.73032,3.04609 -7.3859,1.39051z" fill="#f2ffd0" stroke="#000000" stroke-width="1.28786" stroke-linecap="butt" stroke-linejoin="miter"/><path d="M330.09975,173.75608c-2.42354,-2.42354 -3.04609,-5.73033 -1.39052,-7.3859c1.65558,-1.65558 4.96237,-1.03303 7.3859,1.39052c2.42354,2.42354 3.04609,5.73033 1.39051,7.3859c-1.65558,1.65558 -4.96236,1.03302 -7.3859,-1.39052z" fill="#f2ffd0" stroke="#000000" stroke-width="1.28786" stroke-linecap="butt" stroke-linejoin="miter"/><path d="M316.22755,188.13752c0,3.03234 -0.66307,5.49054 -1.48101,5.49054c-0.81793,0 -1.481,-2.4582 -1.481,-5.49054c0,-3.03234 0.66306,-5.49053 1.481,-5.49053c0.81793,0 1.48101,2.45819 1.48101,5.49053z" fill="#000000" stroke="#000000" stroke-width="1.28786" stroke-linecap="butt" stroke-linejoin="miter"/><path d="M326.41393,188.282c0,3.03234 -0.66307,5.49054 -1.48101,5.49054c-0.81793,0 -1.481,-2.4582 -1.481,-5.49054c0,-3.03234 0.66306,-5.49053 1.481,-5.49053c0.81793,0 1.48101,2.45819 1.48101,5.49053z" fill="#000000" stroke="#000000" stroke-width="1.28786" stroke-linecap="butt" stroke-linejoin="miter"/><path d="M322.36828,194.8562c0,0 -0.06062,2.23707 -2.68952,2.18162c-2.9528,-0.06229 -2.36754,-2.54284 -2.36754,-2.54284" fill="none" stroke="#000000" stroke-width="1.28786" stroke-linecap="round" stroke-linejoin="miter"/><path d="M313.988,188.06527l-1.58937,-3.53995l1.51712,1.08366" fill="none" stroke="#000000" stroke-width="1.28786" stroke-linecap="round" stroke-linejoin="miter"/><path d="M326.48618,185.03103l0.86692,-0.57795l-0.86692,2.81751" fill="none" stroke="#000000" stroke-width="1.28786" stroke-linecap="round" stroke-linejoin="miter"/><path d="M312.45469,166.82566c1.1647,-0.5534 3.22873,-0.9115 4.32889,-2.42326c1.1894,-1.63439 -0.23864,-4.2699 2.92519,-4.40775c4.43226,-0.19311 2.42435,3.21289 4.13631,4.9774c1.36033,1.4021 3.66613,1.35614 4.74334,1.87085c5.92587,2.83149 9.99406,8.67849 9.99406,15.43203c0,6.33763 -5.059,-6.68369 -10.54727,-8.78249c-10.10804,-3.86547 -14.44423,5.24894 -19.82223,5.48266c-11.23367,0.4882 -1.70378,-9.3245 4.24173,-12.14945z" fill="#f2ffd0" stroke="#000000" stroke-width="1.28786" stroke-linecap="butt" stroke-linejoin="bevel"/><path d="M337.46725,159.20386c0,3.13208 -7.63334,5.67114 -17.04954,5.67114c-9.4162,0 -17.04955,-2.53906 -17.04955,-5.67114c0,-3.13208 7.63335,-5.67114 17.04955,-5.67114c9.4162,0 17.04954,2.53906 17.04954,5.67114z" fill="url(#color-2)" stroke="#000000" stroke-width="1.28786" stroke-linecap="butt" stroke-linejoin="miter"/><path d="M302.39325,199.72873c-2.80238,-2.80238 -3.52224,-6.62607 -1.60788,-8.54045c1.91438,-1.91438 5.73807,-1.1945 8.54045,1.60788c2.80238,2.80238 3.52224,6.62607 1.60788,8.54045c-1.91438,1.91438 -5.73807,1.1945 -8.54045,-1.60788z" fill="#f2ffd0" stroke="#000000" stroke-width="1.28786" stroke-linecap="butt" stroke-linejoin="miter"/><path d="M303.5825,198.69804c-1.7077,-1.7077 -2.14637,-4.03775 -0.9798,-5.20433c1.16657,-1.16657 3.49663,-0.7279 5.20433,0.9798c1.7077,1.7077 2.14637,4.03775 0.9798,5.20434c-1.16657,1.16657 -3.49663,0.7279 -5.20434,-0.9798z" fill="#000000" stroke="#000000" stroke-width="1.28786" stroke-linecap="butt" stroke-linejoin="miter"/><path d="M329.65982,200.52636c-1.81311,-1.81311 -1.13131,-5.43454 1.52282,-8.08867c2.65414,-2.65413 6.27556,-3.33593 8.08867,-1.52282c1.81311,1.81311 1.13131,5.43454 -1.52283,8.08867c-2.65414,2.65413 -6.27555,3.33593 -8.08867,1.52282z" fill="#f2ffd0" stroke="#000000" stroke-width="1.28786" stroke-linecap="butt" stroke-linejoin="miter"/><path d="M331.69311,198.95534c-1.10486,-1.10486 -0.6894,-3.31167 0.92797,-4.92904c1.61736,-1.61736 3.82418,-2.03282 4.92904,-0.92797c1.10486,1.10486 0.6894,3.31166 -0.92797,4.92903c-1.61736,1.61736 -3.82418,2.03282 -4.92904,0.92797z" fill="#000000" stroke="#000000" stroke-width="1.28786" stroke-linecap="butt" stroke-linejoin="miter"/><path d="M317.31121,158.91488c0,-1.29672 1.35847,-2.34792 3.03424,-2.34792c1.67576,0 3.03424,1.0512 3.03424,2.34792c0,1.29672 -1.35847,2.34792 -3.03424,2.34792c-1.67576,0 -3.03424,-1.0512 -3.03424,-2.34792z" fill="#8dff8f" stroke="none" stroke-width="0" stroke-linecap="butt" stroke-linejoin="miter"/></g></g></svg>