<svg version="1.1" xmlns="http://www.w3.org/2000/svg" xmlns:xlink="http://www.w3.org/1999/xlink" width="33.7" height="33.6" viewBox="0,0,33.7,33.6"><g transform="translate(-223.1,-163.2)"><g data-paper-data="{&quot;isPaintingLayer&quot;:true}" fill-rule="nonzero" stroke-linejoin="miter" stroke-miterlimit="10" stroke-dasharray="" stroke-dashoffset="0" style="mix-blend-mode: normal"><path d="M223.7,180c0,-9.00224 7.29776,-16.3 16.3,-16.3c9.00224,0 16.3,7.29776 16.3,16.3c0,9.00224 -7.29776,16.3 -16.3,16.3c-9.00224,0 -16.3,-7.29776 -16.3,-16.3z" fill="#00ff65" stroke="#000000" stroke-width="1" stroke-linecap="butt"></path><path d="M224.1,182.8l16.8,11.4l11.8,-24.2" fill="none" stroke="#4fffe9" stroke-width="2" stroke-linecap="round"></path><path d="M223.7,180c0,-9.00224 7.29776,-16.3 16.3,-16.3c9.00224,0 16.3,7.29776 16.3,16.3c0,9.00224 -7.29776,16.3 -16.3,16.3c-9.00224,0 -16.3,-7.29776 -16.3,-16.3z" fill="none" stroke="#000000" stroke-width="1" stroke-linecap="butt"></path></g></g></svg>