<svg version="1.1" xmlns="http://www.w3.org/2000/svg" xmlns:xlink="http://www.w3.org/1999/xlink" width="709.84646" height="419.47217" viewBox="0,0,709.84646,419.47217"><g transform="translate(70.42319,5.71466)"><g stroke-miterlimit="10"><path d="M1.82677,333.38647v-244.58921h636.3465v244.58921z" fill="#00980a" stroke="#000000" stroke-width="2.5"/><path d="M38.05285,334.75093v-228.69782h49.74696v228.69782z" fill="#fff89b" stroke="#000000" stroke-width="2"/><path d="M530.84939,334.91443v-228.69782h49.74696v228.69782z" fill="#fff89b" stroke="#000000" stroke-width="2"/><path d="M67.21921,412.7575v-80.62549h493.324v80.6255z" fill="#aa5b1a" stroke="#000000" stroke-width="2"/><path d="M92.47582,326.27851v-228.20297h433.40324v228.20297z" fill-opacity="0.90196" fill="#3b0000" stroke="#000000" stroke-width="2"/><path d="M72.58314,105.82111v-80.62549h493.324v80.6255z" fill="#aa5b1a" stroke="#000000" stroke-width="2"/><path d="M74.42856,32.0843v-36.79896h490.53802v36.79896z" fill="#aa5b1a" stroke="#000000" stroke-width="2"/><g><path d="M99.19706,20.22787l-2.63083,6.79081l-2.3657,-6.79081z" fill="#ffff00" stroke="#ffff00" stroke-width="1"/><path d="M94.27173,8.95029l2.3657,-6.79081l2.63083,6.79081z" fill="#ffff00" stroke="#ffff00" stroke-width="1"/><path d="M90.12447,14.79854c0,-3.689 2.99052,-6.67952 6.67952,-6.67952c3.689,0 6.67951,2.99052 6.67951,6.67952c0,3.689 -2.99051,6.67951 -6.67951,6.67951c-3.689,0 -6.67952,-2.99051 -6.67952,-6.67951z" fill="#ffff00" stroke="none" stroke-width="0"/><path d="M102.44511,12.28534l6.81177,2.57604l-6.77153,2.42033z" fill="#ffff00" stroke="#ffff00" stroke-width="1"/><path d="M91.20761,17.30137l-6.80965,-2.31092l6.76939,-2.68544z" fill="#ffff00" stroke="#ffff00" stroke-width="1"/><path d="M102.75797,16.89168l3.01845,6.62761l-6.51041,-3.0539z" fill="#ffff00" stroke="#ffff00" stroke-width="1"/><path d="M91.24958,12.53286l-3.20373,-6.43799l6.69569,2.86425z" fill="#ffff00" stroke="#ffff00" stroke-width="1"/><path d="M99.34711,9.01769l6.60308,-3.07173l-3.00136,6.53479z" fill="#ffff00" stroke="#ffff00" stroke-width="1"/><path d="M95.08114,20.56081l-6.41197,3.2555l2.81022,-6.71855z" fill="#ffff00" stroke="#ffff00" stroke-width="1"/><path d="M92.12329,14.99736c0,-2.68363 2.17552,-4.85917 4.85915,-4.85917c2.68363,0 4.85917,2.17552 4.85917,4.85917c0,2.68363 -2.17552,4.85915 -4.85917,4.85915c-2.68363,0 -4.85915,-2.17552 -4.85915,-4.85915z" fill="#fffff7" stroke="none" stroke-width="0"/></g><path d="M182.17357,17.92667v-7.15135h304.26937v7.15135z" fill="#ff0000" stroke="#000000" stroke-width="3"/><text transform="translate(282.51829,8.08918) scale(0.24039,0.24039)" font-size="40" xml:space="preserve" fill="#000000" stroke="none" stroke-width="1" font-family="Sans Serif" font-weight="normal" text-anchor="start"><tspan x="0" dy="0">LEVEL PROGRESS</tspan></text><path d="M-70.42318,413.51694v-306.08198h686.78439v306.08198z" fill-opacity="0.61176" fill="#000959" stroke="none" stroke-width="NaN"/></g></g></svg>