<svg version="1.1" xmlns="http://www.w3.org/2000/svg" xmlns:xlink="http://www.w3.org/1999/xlink" width="72.40849" height="71.2225" viewBox="0,0,72.40849,71.2225"><g transform="translate(-203.79575,-144.38875)"><g data-paper-data="{&quot;isPaintingLayer&quot;:true}" fill-rule="nonzero" stroke="#000000" stroke-width="1.28786" stroke-linecap="butt" stroke-linejoin="miter" stroke-miterlimit="10" stroke-dasharray="" stroke-dashoffset="0" style="mix-blend-mode: normal"><path d="M233.77076,214.96732v-21.29609h11.99024v21.29609z" fill="#7a5654"></path><path d="M241.8239,194.89275l-0.71583,-27.38069l16.64316,-8.41106l-5.01084,27.02277z" fill="#ffd206"></path><path d="M226.67539,186.90258l-6.26355,-24.33839l17.18004,5.54772l0.89479,27.02277z" data-paper-data="{&quot;index&quot;:null}" fill="#ffd206"></path><path d="M237.88682,196.68234v-30.24403h3.57918v30.24403z" fill="#7a5654"></path><path d="M224.31782,188.78293l-7.88807,-28.46402l2.27662,0.59691l8.42495,27.92714z" fill="#7a5654"></path><path d="M252.51991,188.24811l5.68053,-28.61182l2.40265,0.1507l-6.03845,28.25391z" data-paper-data="{&quot;index&quot;:null}" fill="#7a5654"></path><path d="M238.7816,169.83853l-22.36984,-8.59002l21.83296,-12.52712l23.08568,11.2744z" fill="#7a5654"></path><path d="M240.69654,198.34286l-1.7834,-3.30803l15.61746,-9.90875l1.96236,2.77115z" data-paper-data="{&quot;index&quot;:null}" fill="#7a5654"></path><path d="M218.2893,161.72687c0,2.66858 -2.96717,1.78959 -7.06887,1.78959c-4.1017,0 -6.35303,2.14751 -6.35303,2.14751c0,0 1.89341,-8.76898 5.99511,-8.76898c4.1017,0 7.42679,2.16331 7.42679,4.83189z" fill="#60af6e"></path><path d="M247.78219,179.46633c0,2.61916 -1.04159,4.74241 -2.32646,4.74241c-1.28487,0 -2.32646,-2.12325 -2.32646,-4.74241c0,-2.61916 1.04159,-4.7424 2.32646,-4.7424c1.28487,0 2.32646,2.12324 2.32646,4.7424z" fill="#fe942e"></path><path d="M254.58262,175.88716c0,2.52033 -0.92141,4.56345 -2.05803,4.56345c-1.13661,0 -2.05802,-2.04312 -2.05802,-4.56345c0,-2.52033 0.92141,-4.56344 2.05802,-4.56344c1.13661,0 2.05803,2.04312 2.05803,4.56344z" fill="#fe942e"></path><path d="M220.09294,159.74721c1.62918,2.11354 -1.25748,3.22886 -4.50607,5.73297c-3.24859,2.50412 -3.7206,5.57942 -3.7206,5.57942c0,0 -3.85393,-8.10107 -0.60533,-10.60519c3.24859,-2.50412 7.20282,-2.82074 8.832,-0.7072z" fill="#60af6e"></path><path d="M221.40783,161.03326c-1.88159,1.89233 -3.3659,-0.8231 -6.27448,-3.71517c-2.90859,-2.89207 -6.01923,-2.95662 -6.01923,-2.95662c0,0 7.52558,-4.88321 10.43416,-1.99114c2.90859,2.89207 3.74114,6.77061 1.85955,8.66294z" fill="#60af6e"></path><path d="M269.1375,156.25189c4.1017,0 5.99511,8.76898 5.99511,8.76898c0,0 -2.25133,-2.14751 -6.35303,-2.14751c-4.1017,0 -7.06887,0.87899 -7.06887,-1.78959c0,-2.66858 3.32509,-4.83189 7.42679,-4.83189z" data-paper-data="{&quot;index&quot;:null}" fill="#60af6e"></path><path d="M268.73906,159.81132c3.24859,2.50412 -0.60533,10.60519 -0.60533,10.60519c0,0 -0.47201,-3.0753 -3.7206,-5.57942c-3.24859,-2.50412 -6.13525,-3.61943 -4.50607,-5.73297c1.62918,-2.11354 5.58341,-1.79692 8.832,0.7072z" data-paper-data="{&quot;index&quot;:null}" fill="#60af6e"></path><path d="M260.45172,151.72723c2.90859,-2.89207 10.43417,1.99114 10.43417,1.99114c0,0 -3.11065,0.06455 -6.01923,2.95662c-2.90859,2.89207 -4.39288,5.6075 -6.27448,3.71517c-1.88159,-1.89233 -1.04904,-5.77087 1.85954,-8.66294z" data-paper-data="{&quot;index&quot;:null}" fill="#60af6e"></path><g data-paper-data="{&quot;index&quot;:null}" fill="#60af6e"><path d="M239.22771,170.0067c1.28556,2.33851 -1.73805,2.99765 -5.33243,4.97361c-3.59438,1.97596 -4.53271,4.9424 -4.53271,4.9424c0,0 -2.56515,-8.59651 1.02923,-10.57247c3.59438,-1.97596 7.55035,-1.68205 8.83591,0.65646z" data-paper-data="{&quot;index&quot;:null}"></path><path d="M239.85459,167.40301c2.44585,1.06728 0.45353,3.43527 -1.18692,7.19464c-1.64045,3.75937 -0.57258,6.68168 -0.57258,6.68168c0,0 -7.27986,-5.24249 -5.63941,-9.00186c1.64045,-3.75937 4.95306,-5.94174 7.39892,-4.87446z" data-paper-data="{&quot;index&quot;:null}"></path><path d="M241.62638,167.89656c-0.73725,2.56472 -3.3461,0.90019 -7.28816,-0.23298c-3.94206,-1.13318 -6.69906,0.30878 -6.69906,0.30878c0,0 4.24232,-7.9046 8.18439,-6.77143c3.94206,1.13318 6.54009,4.13091 5.80284,6.69563z" data-paper-data="{&quot;index&quot;:null}"></path></g><path d="M244.5535,150.22628c0,2.86835 -2.44556,5.1936 -5.46232,5.1936c-3.01675,0 -5.46232,-2.32525 -5.46232,-5.1936c0,-2.86835 2.44556,-5.1936 5.46232,-5.1936c3.01675,0 5.46232,2.32526 5.46232,5.1936z" fill="#7a5654"></path><path d="M220.95428,188.19217l1.7834,-3.30803l17.34037,9.76722l0.25182,3.98643z" fill="#7a5654"></path></g></g></svg>