<svg version="1.1" xmlns="http://www.w3.org/2000/svg" xmlns:xlink="http://www.w3.org/1999/xlink" width="65.84362" height="88.64599" viewBox="0,0,65.84362,88.64599"><g transform="translate(-206.60694,-137.40138)"><g data-paper-data="{&quot;isPaintingLayer&quot;:true}" fill-rule="nonzero" stroke-linejoin="miter" stroke-miterlimit="10" stroke-dasharray="" stroke-dashoffset="0" style="mix-blend-mode: normal"><path d="M270.49485,137.85239v84.81396h-62.89539v-84.81396z" data-paper-data="{&quot;index&quot;:null}" fill="#515151" stroke="none" stroke-width="0" stroke-linecap="butt"></path><g stroke="#000000" stroke-width="1.28786"><path d="M227.96728,192.27333c-5.53044,-12.2252 1.25257,-29.05978 1.25257,-29.05978h23.79897c0,0 -4.25876,15.24336 -4.25876,22.54638c0,9.59804 4.25876,30.06184 4.25876,30.06184c0,0 -19.5211,-11.32325 -25.05154,-23.54844z" fill="#ff0000" stroke-linecap="butt"></path><path d="M228.96934,161.96097c0,0 -0.15714,-3.76457 2.00413,-5.35131c2.16125,-1.58673 6.31756,-1.21676 8.24892,-2.17618c0.99872,-0.49613 0.51911,-3.17513 0.51911,-3.17513l4.70269,-1.57605c0,0 2.16288,2.99756 3.27446,3.63395c0.38741,0.2218 5.30381,1.27489 6.55275,3.13603c1.24896,1.86114 -0.75154,5.50869 -0.75154,5.50869z" fill="#2fff00" stroke-linecap="butt"></path><path d="M238.37933,177.02321c0,4.4101 -1.1216,7.98517 -2.50516,7.98517c-1.38356,0 -2.50516,-3.57507 -2.50516,-7.98517c0,-4.4101 1.1216,-7.98517 2.50516,-7.98517c1.38356,0 2.50516,3.57507 2.50516,7.98517z" fill="#000000" stroke-linecap="butt"></path><path d="M245.42508,177.17978c0,0.75356 -0.06808,2.17765 -0.06808,2.17765l-3.79552,-0.29298c0,0 -0.0507,-1.23639 -0.0507,-1.88466c0,-4.58303 0.87626,-8.29832 1.95715,-8.29832c1.0809,0 1.95715,3.71529 1.95715,8.29832z" fill="#000000" stroke-linecap="butt"></path><path d="M240.41476,191.73057l-8.68453,2.9853l-0.27139,-6.10631l15.06224,5.02074" fill="#ffffff" stroke-linecap="round"></path></g><path d="M207.59948,222.64639v-12.81396h62.89539v12.81396z" fill="#969696" stroke="none" stroke-width="0" stroke-linecap="butt"></path><path d="M207.54943,222.61639v-84.81396h8.64539v84.81396z" fill="#969696" stroke="none" stroke-width="0" stroke-linecap="butt"></path><path d="M264.30517,222.6707v-84.81396h8.14539v84.81396z" fill="#969696" stroke="none" stroke-width="0" stroke-linecap="butt"></path><path d="M207.59948,148.16637v-10.31396h62.89539v10.31396z" fill="#969696" stroke="none" stroke-width="0" stroke-linecap="butt"></path><path d="M215.34449,211.73979v-21.00188l21.13534,21.00188z" fill="#969696" stroke="none" stroke-width="0" stroke-linecap="butt"></path><path d="M222.45895,215.48336v-12.15842h44.05785v12.15842z" fill="#969696" stroke="none" stroke-width="0" stroke-linecap="butt"></path><text transform="translate(237.91757,219.79737) scale(0.47116,0.5)" font-size="40" xml:space="preserve" fill="#000000" fill-rule="nonzero" stroke="none" stroke-width="1" stroke-linecap="butt" stroke-linejoin="miter" stroke-miterlimit="10" stroke-dasharray="" stroke-dashoffset="0" font-family="Sans Serif" font-weight="normal" text-anchor="start" style="mix-blend-mode: normal"><tspan x="0" dy="0">125</tspan></text><g stroke-linecap="butt"><path d="M222.98314,213.95284l-2.65375,6.84999l-2.38631,-6.84999z" data-paper-data="{&quot;index&quot;:null}" fill="#ffff00" stroke="#ffff00" stroke-width="1"></path><path d="M218.01489,202.57699l2.38632,-6.84999l2.65375,6.84999z" fill="#ffff00" stroke="#ffff00" stroke-width="1"></path><path d="M213.83149,208.47619c0,-3.72115 3.01658,-6.73773 6.73773,-6.73773c3.72115,0 6.73772,3.01658 6.73772,6.73773c0,3.72115 -3.01658,6.73772 -6.73772,6.73772c-3.72115,0 -6.73773,-3.01658 -6.73773,-6.73772z" fill="#ffff00" stroke="none" stroke-width="0"></path><path d="M226.2595,205.94109l6.87114,2.59848l-6.83054,2.44142z" data-paper-data="{&quot;index&quot;:null}" fill="#ffff00" stroke="#ffff00" stroke-width="1"></path><path d="M214.92406,211.00083l-6.86899,-2.33105l6.82838,-2.70885z" fill="#ffff00" stroke="#ffff00" stroke-width="1"></path><path d="M226.57508,210.58758l3.04475,6.68537l-6.56714,-3.08051z" data-paper-data="{&quot;index&quot;:null}" fill="#ffff00" stroke="#ffff00" stroke-width="1"></path><path d="M214.9664,206.19077l-3.23165,-6.49409l6.75404,2.88922z" fill="#ffff00" stroke="#ffff00" stroke-width="1"></path><path d="M223.13451,202.64496l6.66063,-3.0985l-3.02751,6.59174z" data-paper-data="{&quot;index&quot;:null}" fill="#ffff00" stroke="#ffff00" stroke-width="1"></path><path d="M218.83136,214.28869l-6.46785,3.28387l2.83472,-6.7771z" fill="#ffff00" stroke="#ffff00" stroke-width="1"></path><path d="M215.84773,208.67675c0,-2.70702 2.19448,-4.90151 4.9015,-4.90151c2.70702,0 4.90151,2.19448 4.90151,4.90151c0,2.70702 -2.19448,4.9015 -4.90151,4.9015c-2.70702,0 -4.9015,-2.19448 -4.9015,-4.9015z" fill="#fffff7" stroke="none" stroke-width="0"></path></g><path d="M272.35202,137.40138v33.64619l-33.86,-33.64619z" fill="#ff0000" stroke="none" stroke-width="0" stroke-linecap="butt"></path></g></g></svg>