<svg version="1.1" xmlns="http://www.w3.org/2000/svg" xmlns:xlink="http://www.w3.org/1999/xlink" width="66.18733" height="45.41579" viewBox="0,0,66.18733,45.41579"><g transform="translate(-199.07465,-152.83505)"><g data-paper-data="{&quot;isPaintingLayer&quot;:true}" fill-rule="nonzero" stroke="#000000" stroke-linejoin="miter" stroke-miterlimit="10" stroke-dasharray="" stroke-dashoffset="0" style="mix-blend-mode: normal"><path d="M257.10696,189.55146l-14.07796,-0.19978" data-paper-data="{&quot;index&quot;:null}" fill="none" stroke-width="1" stroke-linecap="round"></path><path d="M199.93515,186.50442v-3.77093h13.05619v3.77093z" fill="#d3b131" stroke-width="0.5" stroke-linecap="butt"></path><path d="M205.8744,184.13015l6.73951,3.53954" fill="none" stroke-width="1" stroke-linecap="round"></path><path d="M218.89339,198.00084v-7.81327h19.62714v7.81327z" fill="#d4d4d4" stroke-width="0.5" stroke-linecap="butt"></path><path d="M222.22443,191.34751v-31.79814c0,0 1.00915,-9.55505 9.67355,-5.43147c7.84335,3.73282 -1.54197,12.12909 -1.54197,12.12909v25.10052z" fill="#0b8100" stroke-width="0.5" stroke-linecap="butt"></path><path d="M222.20531,191.42032v-18.41849h8.20606v18.41849z" fill="#ffffff" stroke-width="0.5" stroke-linecap="butt"></path><path d="M222.23607,181.42341v-8.45231h3.76514z" fill="#ff0000" stroke-width="0.5" stroke-linecap="butt"></path><path d="M225.48128,165.92735c0,1.9497 -0.62987,3.53026 -1.40685,3.53026c-0.77698,0 -1.40685,-1.58055 -1.40685,-3.53026c0,-1.9497 0.64256,-3.31444 1.41954,-3.31444c0.77698,0 1.39415,1.36473 1.39415,3.31444z" fill="#000000" stroke-width="0.5" stroke-linecap="butt"></path><path d="M226.29576,160.27564l-4.08789,3.82107" fill="none" stroke-width="0.5" stroke-linecap="round"></path><path d="M228.16205,168.12092c0,0 -0.10287,1.85497 -0.83086,2.23402c-0.98509,0.51293 -4.54522,0.56524 -4.54522,0.56524" fill="none" stroke-width="0.5" stroke-linecap="round"></path><path d="M212.12246,183.75984v-5.67068l21.20774,-0.05714l0.02331,-6.15097l10.36664,0.35096v11.52783z" fill="#9b9b9b" stroke-width="0.5" stroke-linecap="butt"></path><path d="M210.16546,193.68713v-9.98442h36.78302v9.98442z" fill="#636363" stroke-width="0.5" stroke-linecap="butt"></path><path d="M206.14383,193.93848l8.30972,-5.37891" fill="none" stroke-width="1" stroke-linecap="round"></path><path d="M199.32466,195.23263v-4.49084h15.54874v4.49084z" fill="#d3b131" stroke-width="0.5" stroke-linecap="butt"></path><path d="M249.46325,192.24124v-4.49084h15.54874v4.49084z" fill="#d3b131" stroke-width="0.5" stroke-linecap="butt"></path><path d="M243.20421,190.63088l14.07796,-0.19978" fill="none" stroke-width="1" stroke-linecap="round"></path></g></g></svg>