<svg version="1.1" xmlns="http://www.w3.org/2000/svg" xmlns:xlink="http://www.w3.org/1999/xlink" width="101.55571" height="89.62764" viewBox="0,0,101.55571,89.62764"><g transform="translate(-287.19496,-135.31118)"><g stroke-miterlimit="10"><text transform="translate(357.24295,188.00196) scale(0.66683,0.66683)" font-size="40" xml:space="preserve" fill="#000000" stroke="none" stroke-width="1" stroke-linecap="butt" font-family="Sans Serif" font-weight="normal" text-anchor="start"><tspan x="0" dy="0">+5</tspan></text><path d="M288.18747,220.8784v-84.81396h62.89539v84.81396z" fill="#515151" stroke="none" stroke-width="0" stroke-linecap="butt"/><g stroke="#000000" stroke-width="1.28786"><path d="M336.01151,200.71494c0,0 -10.19228,-1.94793 -15.15784,-2.02204c-5.0952,-0.07604 -15.03448,1.57141 -15.03448,1.57141l-5.16568,-5.66785l-9.61348,-8.01122l8.01123,0.40057l-6.80955,-6.20871l7.61068,-1.0014l3.00421,-4.40618l5.07378,0.13353l-3.27125,-4.5397v-8.01122l3.80533,3.40477l5.20731,-5.60785l2.63807,2.88961l-0.51888,-5.00578l5.66818,-6.23903l4.23204,5.84919l-0.54069,5.43381l3.74063,-3.48773l2.40337,5.60786l6.60926,-3.2045v8.01123l-3.67181,4.27265l5.47433,0.13352l3.00421,4.40617l6.39955,1.00141l-5.59842,6.20869l6.49732,-0.40056l-8.09957,8.01122z" fill="#27ffb8" stroke-linecap="round"/><path d="M321.51025,199.02825l-15.90744,8.57973l-3.31028,-3.04518l-0.18907,3.99632l-7.29553,0.62265l-5.48169,-1.68129l4.73756,-4.93507l3.7658,0.49829l-0.1914,-3.27018l11.01609,-4.28444" fill="#27ffb8" stroke-linecap="round"/><path d="M333.08202,195.72181l11.01611,4.28444l-0.1914,3.27018l3.7658,-0.49829l2.61808,4.93508l-3.3622,1.68129l-7.29553,-0.62265l-0.18907,-3.99632l-3.31028,3.04518l-15.90744,-8.57973" fill="#27ffb8" stroke-linecap="round"/><path d="M316.32036,181.61533l-5.07545,-2.86325l4.38182,0.04005z" fill="#000000" stroke-linecap="round"/><path d="M325.39597,178.60712l4.38182,-0.04005l-5.07546,2.86325z" fill="#000000" stroke-linecap="round"/><path d="M317.76759,179.85347c0,3.44327 -0.81293,6.2346 -1.81575,6.2346c-1.00282,0 -1.81575,-2.79133 -1.81575,-6.2346c0,-3.44327 0.81294,-6.23459 1.81575,-6.23459c1.00282,0 1.81575,2.79132 1.81575,6.23459z" fill="#ffffff" stroke-linecap="butt"/><path d="M325.71147,180.39417c0,3.55756 -0.78006,6.44152 -1.74231,6.44152c-0.96226,0 -1.74231,-2.88396 -1.74231,-6.44152c0,-3.55756 0.78006,-6.44152 1.74231,-6.44152c0.96226,0 1.74231,2.88397 1.74231,6.44152z" fill="#ffffff" stroke-linecap="butt"/><path d="M302.69937,193.75775l-1.47114,-3.85193l6.53844,1.3867l-0.32692,-5.85494l12.67783,13.60863h-29.47198z" fill="#27ffb8" stroke-linecap="round"/><path d="M314.60551,191.96817l10.62224,-2.83566l-1.20643,3.18515l-5.68798,-1.2818z" fill="#ffffff" stroke-linecap="round"/><path d="M348.62472,199.48161l-26.61105,-0.30278l11.95004,-13.60863l-0.30816,5.85493l6.16309,-1.3867l-1.3867,3.85193z" fill="#27ffb8" stroke-linecap="round"/></g><path d="M288.18749,220.85844v-12.81396h62.89539v12.81396z" fill="#969696" stroke="none" stroke-width="0" stroke-linecap="butt"/><path d="M288.13745,220.82844v-84.81396h8.64539v84.81396z" fill="#969696" stroke="none" stroke-width="0" stroke-linecap="butt"/><path d="M343.68503,220.87657v-84.81396h8.14539v84.81396z" fill="#969696" stroke="none" stroke-width="0" stroke-linecap="butt"/><path d="M288.18749,146.37843v-10.31396h62.89539v10.31396z" fill="#969696" stroke="none" stroke-width="0" stroke-linecap="butt"/><path d="M295.9325,209.95184v-21.00188l21.13534,21.00188z" fill="#969696" stroke="none" stroke-width="0" stroke-linecap="butt"/><path d="M303.04697,213.69541v-12.15842c0,0 25.81745,0 33.81975,0c4.4029,0 10.2381,0 10.2381,0v12.15842z" fill="#969696" stroke="none" stroke-width="0" stroke-linecap="butt"/><text transform="translate(337.06517,218.68882) scale(0.47116,0.5)" font-size="40" xml:space="preserve" fill="#000000" stroke="none" stroke-width="1" stroke-linecap="butt" font-family="Sans Serif" font-weight="normal" text-anchor="start"><tspan x="0" dy="0">0</tspan></text><g stroke-linecap="butt"><path d="M303.57116,212.16489l-2.65375,6.84999l-2.38631,-6.84999z" fill="#ffff00" stroke="#ffff00" stroke-width="1"/><path d="M298.60291,200.78904l2.38632,-6.84999l2.65375,6.84999z" fill="#ffff00" stroke="#ffff00" stroke-width="1"/><path d="M294.41951,206.68824c0,-3.72115 3.01658,-6.73773 6.73773,-6.73773c3.72115,0 6.73772,3.01658 6.73772,6.73773c0,3.72115 -3.01658,6.73772 -6.73772,6.73772c-3.72115,0 -6.73773,-3.01658 -6.73773,-6.73772z" fill="#ffff00" stroke="none" stroke-width="0"/><path d="M306.84752,204.15314l6.87114,2.59848l-6.83054,2.44142z" fill="#ffff00" stroke="#ffff00" stroke-width="1"/><path d="M295.51208,209.21288l-6.86899,-2.33105l6.82838,-2.70885z" fill="#ffff00" stroke="#ffff00" stroke-width="1"/><path d="M307.1631,208.79963l3.04475,6.68537l-6.56714,-3.08051z" fill="#ffff00" stroke="#ffff00" stroke-width="1"/><path d="M295.55442,204.40282l-3.23165,-6.49409l6.75404,2.88922z" fill="#ffff00" stroke="#ffff00" stroke-width="1"/><path d="M303.72253,200.85701l6.66063,-3.0985l-3.02751,6.59174z" fill="#ffff00" stroke="#ffff00" stroke-width="1"/><path d="M299.41938,212.50074l-6.46785,3.28387l2.83472,-6.7771z" fill="#ffff00" stroke="#ffff00" stroke-width="1"/><path d="M296.43575,206.8888c0,-2.70702 2.19448,-4.90151 4.9015,-4.90151c2.70702,0 4.90151,2.19448 4.90151,4.90151c0,2.70702 -2.19448,4.9015 -4.90151,4.9015c-2.70702,0 -4.9015,-2.19448 -4.9015,-4.9015z" fill="#fffff7" stroke="none" stroke-width="0"/></g><path d="M351.86255,135.31118v33.64619l-33.86,-33.64619z" fill="#ffe000" stroke="none" stroke-width="0" stroke-linecap="butt"/></g></g></svg>