<svg version="1.1" xmlns="http://www.w3.org/2000/svg" xmlns:xlink="http://www.w3.org/1999/xlink" width="64.75468" height="88.37116" viewBox="0,0,64.75468,88.37116"><defs><linearGradient x1="240" y1="137.59302" x2="240" y2="222.40698" gradientUnits="userSpaceOnUse" id="color-1"><stop offset="0" stop-color="#555555"></stop><stop offset="1" stop-color="#00ff94"></stop></linearGradient><linearGradient x1="224.60696" y1="169.53394" x2="224.60696" y2="204.29213" gradientUnits="userSpaceOnUse" id="color-2"><stop offset="0" stop-color="#f475ff"></stop><stop offset="1" stop-color="#be5cc7"></stop></linearGradient><linearGradient x1="241.86291" y1="155.0977" x2="241.86291" y2="192.89665" gradientUnits="userSpaceOnUse" id="color-3"><stop offset="0" stop-color="#f475ff"></stop><stop offset="1" stop-color="#be5cc7"></stop></linearGradient><linearGradient x1="240.00003" y1="209.57306" x2="240.00003" y2="222.38702" gradientUnits="userSpaceOnUse" id="color-4"><stop offset="0" stop-color="#7c7c7c"></stop><stop offset="1" stop-color="#7a7a7a"></stop></linearGradient><linearGradient x1="212.82499" y1="137.54306" x2="212.82499" y2="222.35702" gradientUnits="userSpaceOnUse" id="color-5"><stop offset="0" stop-color="#969696"></stop><stop offset="1" stop-color="#7a7a7a"></stop></linearGradient><linearGradient x1="268.16256" y1="137.61182" x2="268.16256" y2="222.42578" gradientUnits="userSpaceOnUse" id="color-6"><stop offset="0" stop-color="#969696"></stop><stop offset="1" stop-color="#7a7a7a"></stop></linearGradient><linearGradient x1="226.86502" y1="190.47854" x2="226.86502" y2="211.48042" gradientUnits="userSpaceOnUse" id="color-7"><stop offset="0" stop-color="#858585"></stop><stop offset="1" stop-color="#818181"></stop></linearGradient><linearGradient x1="245.44074" y1="203.06557" x2="245.44074" y2="215.22399" gradientUnits="userSpaceOnUse" id="color-8"><stop offset="0" stop-color="#808080"></stop><stop offset="1" stop-color="#7d7d7d"></stop></linearGradient></defs><g transform="translate(-207.55981,-137.43892)"><g data-paper-data="{&quot;isPaintingLayer&quot;:true}" fill-rule="nonzero" stroke-linejoin="miter" stroke-miterlimit="10" stroke-dasharray="" stroke-dashoffset="0" style="mix-blend-mode: normal"><path d="M271.4477,137.59302v84.81396h-62.89539v-84.81396z" data-paper-data="{&quot;index&quot;:null}" fill="url(#color-1)" stroke="none" stroke-width="0" stroke-linecap="butt"></path><g stroke="#000000" stroke-width="1.28786"><path d="M225.84137,204.29213c0,0 -7.65852,-13.81851 -8.44625,-20.23293c-0.5023,-4.09016 4.1777,-14.52526 4.1777,-14.52526l4.21129,4.56491c0,0 -3.35999,8.76517 -1.9621,12.86607c1.64534,4.82678 8.0345,15.18161 8.0345,15.18161z" fill="url(#color-2)" stroke-linecap="butt"></path><path d="" fill="none" stroke-linecap="butt"></path><path d="" fill="#00a735" stroke-linecap="butt"></path><path d="" fill="#ccf280" stroke-linecap="butt"></path><path d="" fill="#000000" stroke-linecap="butt"></path><path d="" fill="#000000" stroke-linecap="butt"></path><path d="" fill="#000000" stroke-linecap="round"></path><path d="M226.96492,203.78241c-2.0647,1.43196 -9.25194,0.11565 -9.25194,0.11565c0,0 1.16643,-3.54218 3.45397,-4.9973c0.9672,-0.61524 2.70467,-0.0026 3.71629,0.02437c3.40421,0.09078 4.14638,3.42531 2.08168,4.85728z" data-paper-data="{&quot;index&quot;:null}" fill="#78ff69" stroke-linecap="round"></path><path d="M234.10109,198.11655c1.01162,-0.02698 2.74909,-0.63961 3.71629,-0.02437c2.28754,1.45512 3.45397,4.99729 3.45397,4.99729c0,0 -7.18726,1.31631 -9.25195,-0.11566c-2.0647,-1.43196 -1.32253,-4.7665 2.08168,-4.85727z" data-paper-data="{&quot;index&quot;:null}" fill="#78ff69" stroke-linecap="round"></path><path d="M225.37055,169.24162c0.53191,1.72337 -2.78981,3.68444 -2.78981,3.68444c0,0 -2.44103,-0.61105 -2.76384,-4.0133c-0.33154,-3.4943 0.16275,-6.49668 0.16275,-6.49668c0,0 4.16006,2.83759 5.39091,6.82555z" data-paper-data="{&quot;index&quot;:null}" fill="#78ff69" stroke-linecap="round"></path><path d="M224.06245,170.32054c1.79925,-0.12515 2.95167,3.55608 2.95167,3.55608c0,0 -1.80776,3.9015 -5.19404,3.44043c-3.4779,-0.47355 -5.63216,-3.30303 -5.63216,-3.30303c0,0 3.71101,-3.40389 7.87453,-3.69348z" data-paper-data="{&quot;index&quot;:null}" fill="#78ff69" stroke-linecap="round"></path><path d="M223.6345,183.15471c0,0 -2.29291,-2.71833 -1.99833,-6.21595c0.28682,-3.40547 4.4882,-4.32094 4.4882,-4.32094c0,0 3.34225,1.92585 2.82859,3.65474c-1.18863,4.00073 -5.31846,6.88215 -5.31846,6.88215z" data-paper-data="{&quot;index&quot;:null}" fill="#78ff69" stroke-linecap="round"></path><path d="M228.97318,166.84441c0.53191,1.72337 -2.7898,3.68444 -2.7898,3.68444c0,0 -2.44103,-0.61105 -2.76384,-4.01331c-0.33154,-3.4943 0.16274,-6.49668 0.16274,-6.49668c0,0 4.16005,2.83759 5.3909,6.82555z" data-paper-data="{&quot;index&quot;:null}" fill="#78ff69" stroke-linecap="round"></path><path d="M259.56817,179.64765c0,6.30919 -5.04677,11.1367 -14.3108,11.1367c-9.26403,0 -16.77401,-5.11461 -16.77401,-11.42381c0,-6.30919 7.50998,-11.4238 16.77401,-11.4238c9.26403,0 14.3108,5.40172 14.3108,11.71092z" fill="#6f3574" stroke-linecap="butt"></path><path d="M260.09058,173.46654l-2.73687,7.41665l-1.83225,-4.40371z" fill="#ffffff" stroke-linecap="round"></path><path d="M262.25815,170.67918l-0.70326,6.37412l-1.99446,-4.08958z" fill="#ffffff" stroke-linecap="round"></path><path d="M255.82997,186.65421l-0.70291,-5.49486l4.97506,6.01725z" data-paper-data="{&quot;index&quot;:null}" fill="#ffffff" stroke-linecap="round"></path><path d="M251.81295,186.75387l1.14452,-4.40371l1.95241,6.10838z" data-paper-data="{&quot;index&quot;:null}" fill="#ffffff" stroke-linecap="round"></path><path d="M241.57289,188.22671l6.0829,-7.35716l-0.85944,6.71845z" data-paper-data="{&quot;index&quot;:null}" fill="#ffffff" stroke-linecap="round"></path><path d="M232.95256,185.56418l6.0829,-7.35716l-0.85944,6.71844z" data-paper-data="{&quot;index&quot;:null}" fill="#ffffff" stroke-linecap="round"></path><path d="M238.44056,187.95393l6.0829,-7.35716l-0.85943,6.71845z" data-paper-data="{&quot;index&quot;:null}" fill="#ffffff" stroke-linecap="round"></path><path d="M246.88081,174.05268l-6.0829,7.35716l0.85943,-6.71844z" data-paper-data="{&quot;index&quot;:null}" fill="#ffffff" stroke-linecap="round"></path><path d="M254.27559,175.48834l-4.11961,6.10837l-2.41494,-4.40371z" fill="#ffffff" stroke-linecap="round"></path><path d="M241.59362,172.34927l-6.0829,7.35716l0.85943,-6.71844z" data-paper-data="{&quot;index&quot;:null}" fill="#ffffff" stroke-linecap="round"></path><path d="M257.3424,187.19541l2.67899,-7.33358l1.17318,5.41398z" data-paper-data="{&quot;index&quot;:null}" fill="#ffffff" stroke-linecap="round"></path><path d="M236.09688,152.61842c0,0 2.52283,1.1859 3.35026,2.32238c0.97188,1.33489 2.11773,5.18794 2.11773,5.18794c0,0 -2.34589,0.87303 -3.21832,0.84609c-0.80142,-0.02475 -1.82135,-1.00172 -1.82135,-1.00172c0,0 0.47394,-2.03087 0.40551,-3.206c-0.07392,-1.26918 -0.83384,-4.14869 -0.83384,-4.14869z" fill="#f7fff3" stroke-linecap="round"></path><path d="M232.21944,154.87825c0,0 2.52283,1.18589 3.35026,2.32237c0.97188,1.33489 2.11774,5.18794 2.11774,5.18794c0,0 -2.34589,0.87303 -3.21832,0.84609c-0.80142,-0.02475 -1.82135,-1.00172 -1.82135,-1.00172c0,0 0.47394,-2.03087 0.40551,-3.206c-0.07392,-1.26918 -0.83384,-4.14869 -0.83384,-4.14869z" fill="#f7fff3" stroke-linecap="round"></path><path d="M223.77593,171.23856c1.49931,-10.30379 11.06761,-17.44123 21.3714,-15.94191c6.72815,0.97902 12.2961,6.57442 14.93283,13.20874c0.79097,1.99015 -5.33171,5.41511 -14.15605,4.92746c-6.80884,-0.37627 -16.77814,-4.51897 -16.77814,-4.51897c0,0 -1.00448,4.8936 0.60025,9.77388c0.95349,2.89977 3.37959,5.70293 5.97406,7.72385c6.23155,4.85396 20.01598,3.04985 18.11361,4.08399c-3.96462,2.15519 -9.00463,2.85813 -14.11604,2.11437c-10.30379,-1.49931 -17.44123,-11.0676 -15.94191,-21.37139z" fill="url(#color-3)" stroke-linecap="butt"></path><path d="M249.54999,154.40799c0,0 2.47512,2.6045 2.9372,4.35652c0.54273,2.05788 0.11634,7.22146 0.11634,7.22146c0,0 -3.22584,-0.04896 -4.26103,-0.48946c-0.95092,-0.40464 -1.71881,-2.05515 -1.71881,-2.05515c0,0 1.51931,-2.21735 1.98687,-3.6607c0.50499,-1.55887 0.93943,-5.37268 0.93943,-5.37268z" fill="#f7fff3" stroke-linecap="round"></path><path d="M241.5773,151.8699c0,0 2.52283,1.18589 3.35026,2.32237c0.97188,1.33489 2.11773,5.18794 2.11773,5.18794c0,0 -2.34589,0.87303 -3.21832,0.84609c-0.80142,-0.02475 -1.82135,-1.00172 -1.82135,-1.00172c0,0 0.47395,-2.03087 0.40551,-3.206c-0.07391,-1.26918 -0.83384,-4.14869 -0.83384,-4.14869z" fill="#f7fff3" stroke-linecap="round"></path><path d="M231.37687,207.24841c-2.72574,1.89043 -12.21415,0.15268 -12.21415,0.15268c0,0 1.5399,-4.67629 4.55984,-6.59729c1.27686,-0.81222 3.57062,-0.00343 4.90613,0.03217c4.49414,0.11984 5.47393,4.522 2.74819,6.41243z" fill="#78ff69" stroke-linecap="round"></path><path d="M234.75553,199.56888c1.12598,-0.03002 3.05987,-0.71193 4.13641,-0.02713c2.54614,1.61961 3.84445,5.56224 3.84445,5.56224c0,0 -7.99977,1.46512 -10.29789,-0.12872c-2.2981,-1.59384 -1.47203,-5.30534 2.31703,-5.40638z" data-paper-data="{&quot;index&quot;:null}" fill="#78ff69" stroke-linecap="round"></path><path d="M259.55043,165.96041c4.5707,-0.84891 3.69344,2.8411 3.69344,2.8411c0,0 -0.12388,2.07363 -1.83806,3.56136c-2.49665,2.16685 -7.2518,4.04659 -10.6628,4.39373c-5.75296,0.58548 -19.60361,-4.68783 -19.60361,-4.68783c0,0 1.87259,8.50388 6.10837,11.36442c4.23578,2.86053 9.82252,3.96165 15.76812,3.40932c5.94561,-0.55232 9.5177,-5.25604 9.5177,-5.25604l1.27849,4.40371c0,0 -5.19783,4.47541 -9.23358,4.68782c-4.03575,0.2124 -13.77918,-0.26092 -20.17184,-5.11399c-6.39266,-4.85307 -6.37401,-17.51693 -5.23194,-17.56041c4.5341,-0.1726 2.56752,1.5084 5.02048,2.57869c4.30854,1.87991 12.94971,3.43712 16.10409,3.22015c2.52442,-0.17364 6.39424,-1.39545 8.85942,-3.69572c0.87694,-0.81828 -1.02953,-3.88237 0.39171,-4.14633z" fill="#78ff69" stroke-linecap="round"></path></g><path d="M208.55234,222.38702v-12.81396h62.89539v12.81396z" fill="url(#color-4)" stroke="none" stroke-width="0" stroke-linecap="butt"></path><path d="M208.5023,222.35702v-84.81396h8.64539v84.81396z" fill="url(#color-5)" stroke="none" stroke-width="0" stroke-linecap="butt"></path><path d="M264.08987,222.42578v-84.81396h8.14539v84.81396z" fill="url(#color-6)" stroke="none" stroke-width="0" stroke-linecap="butt"></path><path d="M208.55234,147.90701v-10.31396h62.89539v10.31396z" fill="#969696" stroke="none" stroke-width="0" stroke-linecap="butt"></path><path d="M216.29735,211.48042v-21.00188l21.13534,21.00188z" fill="url(#color-7)" stroke="none" stroke-width="0" stroke-linecap="butt"></path><path d="M223.41182,215.22399v-12.15842h44.05785v12.15842z" fill="url(#color-8)" stroke="none" stroke-width="0" stroke-linecap="butt"></path><text transform="translate(238.70955,219.56008) scale(0.47116,0.5)" font-size="40" xml:space="preserve" fill="#000000" fill-rule="nonzero" stroke="none" stroke-width="1" stroke-linecap="butt" stroke-linejoin="miter" stroke-miterlimit="10" stroke-dasharray="" stroke-dashoffset="0" font-family="Sans Serif" font-weight="normal" text-anchor="start" style="mix-blend-mode: normal"><tspan x="0" dy="0">200</tspan></text><g stroke-linecap="butt"><path d="M223.93601,213.69347l-2.65375,6.84999l-2.38631,-6.84999z" data-paper-data="{&quot;index&quot;:null}" fill="#ffff00" stroke="#ffff00" stroke-width="1"></path><path d="M218.96776,202.31762l2.38632,-6.84999l2.65375,6.84999z" fill="#ffff00" stroke="#ffff00" stroke-width="1"></path><path d="M214.78436,208.21682c0,-3.72115 3.01658,-6.73773 6.73773,-6.73773c3.72115,0 6.73772,3.01658 6.73772,6.73773c0,3.72115 -3.01658,6.73772 -6.73772,6.73772c-3.72115,0 -6.73773,-3.01658 -6.73773,-6.73772z" fill="#ffff00" stroke="none" stroke-width="0"></path><path d="M227.21237,205.68172l6.87114,2.59848l-6.83054,2.44142z" data-paper-data="{&quot;index&quot;:null}" fill="#ffff00" stroke="#ffff00" stroke-width="1"></path><path d="M215.87693,210.74146l-6.86899,-2.33105l6.82838,-2.70885z" fill="#ffff00" stroke="#ffff00" stroke-width="1"></path><path d="M227.52795,210.32821l3.04475,6.68537l-6.56714,-3.08051z" data-paper-data="{&quot;index&quot;:null}" fill="#ffff00" stroke="#ffff00" stroke-width="1"></path><path d="M215.91927,205.9314l-3.23165,-6.49409l6.75404,2.88922z" fill="#ffff00" stroke="#ffff00" stroke-width="1"></path><path d="M224.08738,202.38559l6.66063,-3.0985l-3.02751,6.59174z" data-paper-data="{&quot;index&quot;:null}" fill="#ffff00" stroke="#ffff00" stroke-width="1"></path><path d="M219.78423,214.02932l-6.46785,3.28387l2.83472,-6.7771z" fill="#ffff00" stroke="#ffff00" stroke-width="1"></path><path d="M216.8006,208.41738c0,-2.70702 2.19448,-4.90151 4.9015,-4.90151c2.70702,0 4.90151,2.19448 4.90151,4.90151c0,2.70702 -2.19448,4.9015 -4.90151,4.9015c-2.70702,0 -4.9015,-2.19448 -4.9015,-4.9015z" fill="#fffff7" stroke="none" stroke-width="0"></path></g><path d="M272.31449,137.43892v33.64619l-33.86,-33.64619z" fill="#3aff00" stroke="none" stroke-width="0" stroke-linecap="butt"></path></g></g></svg>