<svg version="1.1" xmlns="http://www.w3.org/2000/svg" xmlns:xlink="http://www.w3.org/1999/xlink" width="47.19916" height="56.86548" viewBox="0,0,47.19916,56.86548"><g transform="translate(-219.845,-156.69386)"><g data-paper-data="{&quot;isPaintingLayer&quot;:true}" fill-rule="nonzero" stroke="#000000" stroke-width="1.28786" stroke-linejoin="miter" stroke-miterlimit="10" stroke-dasharray="" stroke-dashoffset="0" style="mix-blend-mode: normal"><path d="M223.5692,169.00853l5.7797,4.59839c0,0 -5.70359,3.64064 -3.22136,9.33276c3.9338,9.02082 11.48427,14.55616 11.48427,14.55616l-5.03044,4.34179c0,0 -10.22604,-11.57061 -11.80466,-17.3211c-1.40522,-5.11888 2.79249,-15.50802 2.79249,-15.50802z" fill="#ffffff" stroke-linecap="butt"></path><path d="M234.60082,168.7098c-3.21721,4.85897 -7.80199,7.7767 -10.24038,6.51695c-2.43839,-1.25976 -1.80704,-6.21996 1.41017,-11.07893c3.21721,-4.85897 7.80199,-7.7767 10.24038,-6.51695c2.43839,1.25976 1.80704,6.21996 -1.41017,11.07893z" fill="#ba0000" stroke-linecap="butt"></path><path d="M246.85174,198.12858c1.09009,3.98929 -3.59851,8.74588 -10.47227,10.62416c-6.87377,1.87829 -13.32973,0.16698 -14.41982,-3.82231c-1.09009,-3.98928 3.59851,-8.74588 10.47227,-10.62416c6.87377,-1.87828 13.32973,-0.16697 14.41982,3.82232z" fill="#00ff07" stroke-linecap="butt"></path><path d="M262.84705,208.49688c0,-0.44277 0.09992,-0.80171 0.22316,-0.80171c0.12325,0 0.22317,0.35893 0.22317,0.80171c0,0.44277 -0.09992,0.80171 -0.22317,0.80171c-0.12325,0 -0.22316,-0.35893 -0.22316,-0.80171z" fill="#ba0000" stroke-linecap="butt"></path><path d="M261.42255,197.38414c4.79317,4.01648 6.40424,9.98689 3.59842,13.3353c-2.80582,3.34841 -8.96603,2.80684 -13.7592,-1.20962c-4.79317,-4.01648 -6.40424,-9.98688 -3.59842,-13.3353c2.80582,-3.34841 8.96603,-2.80685 13.7592,1.20961z" fill="#00ff07" stroke-linecap="butt"></path><path d="M260.80846,185.97485c0,8.17066 -7.31231,14.79429 -16.3325,14.79429c-9.02019,0 -16.3325,-6.62362 -16.3325,-14.79429c0,-8.17066 7.31231,-14.79429 16.3325,-14.79429c6.1242,0 7.08045,4.62359 9.8761,9.14129c1.32199,2.13631 6.45641,3.02975 6.45641,5.65299z" fill="#ffffff" stroke-linecap="butt"></path><path d="M252.58213,177.07673c1.75178,4.97743 -1.39072,0.79217 -12.26053,7.58335c-5.2042,3.25146 -7.31125,8.05671 -9.86447,6.74994c-1.00212,-0.51289 -2.30553,-4.84016 -1.02073,-9.41651c1.16641,-4.15467 4.71307,-8.55824 7.88902,-9.676c6.67426,-2.34898 13.50492,-0.2182 15.25671,4.75922z" fill="#f38dff" stroke-linecap="butt"></path><path d="M230.83754,183.44134l-4.8948,-12.63938l11.10974,7.24063z" fill="#f38dff" stroke-linecap="butt"></path><path d="M243.35165,173.39565l7.36077,-11.03051l0.47799,13.54564z" data-paper-data="{&quot;index&quot;:null}" fill="#f38dff" stroke-linecap="butt"></path><path d="M251.42435,193.45042c0,0 1.41673,3.94066 -2.71949,3.72679c-1.07005,-0.05533 -3.08978,-3.58893 -3.08978,-3.58893c0,0 -1.58811,3.59628 -2.78672,3.48426c-4.80889,-0.44943 -5.37956,-3.86437 -5.37956,-3.86437" fill="none" stroke-linecap="round"></path><path d="M236.82712,183.40733l8.74221,5.11362l-5.52817,3.37099" fill="none" stroke-linecap="round"></path><path d="M251.49747,180.30773l-3.61402,6.18491l7.38518,2.77107" fill="none" stroke-linecap="round"></path></g></g></svg>