<svg version="1.1" xmlns="http://www.w3.org/2000/svg" xmlns:xlink="http://www.w3.org/1999/xlink" width="59.95913" height="54.02396" viewBox="0,0,59.95913,54.02396"><g transform="translate(-288.37758,-152.98803)"><g stroke="#000000" stroke-width="1.28786" stroke-miterlimit="10"><path d="M300.85861,206.36807c-3.39947,0 -6.15529,-2.91015 -6.15529,-6.5v-14.875c0,-3.58985 2.75582,-6.5 6.15529,-6.5h28.88252c3.39947,0 6.15529,2.91015 6.15529,6.5v14.875c0,3.58985 -2.75582,6.5 -6.15529,6.5z" fill="#fffab9" stroke-linecap="butt"/><path d="M314.15921,189.84029c-13.88316,0 -25.13769,-8.10551 -25.13769,-18.10416v0c0,-9.99865 11.25453,-18.10416 25.13769,-18.10416h1.5711c13.88316,0 25.13769,8.10551 25.13769,18.10416v0c0,9.99865 -11.25453,18.10416 -25.13769,18.10416z" fill="#b100ff" stroke-linecap="butt"/><path d="M321.89815,204.26806c0,0 -4.22164,-3.08055 -5.33194,-3.47768c-1.30458,-0.46661 -4.10706,1.05268 -4.10706,1.05268z" fill="#000000" stroke-linecap="round"/><path d="M325.71651,193.99307l-8.99619,-1.125" fill="none" stroke-linecap="round"/><path d="M329.97787,192.49307l3.31439,-4.125" fill="none" stroke-linecap="round"/><path d="M347.69279,174.79161c0,5.14351 -3.55048,9.31314 -7.93022,9.31314c-4.37974,0 -7.93022,-4.16963 -7.93022,-9.31314c0,-5.14351 3.55048,-9.31313 7.93022,-9.31313c4.37974,0 7.93022,4.16963 7.93022,9.31313z" fill="#b100ff" stroke-linecap="butt"/><path d="M345.22272,175.46083c0,2.67955 -1.2805,4.85175 -2.86008,4.85175c-1.57958,0 -2.86008,-2.1722 -2.86008,-4.85175c0,-2.67955 1.2805,-4.85175 2.86008,-4.85175c1.57958,0 2.86008,2.1722 2.86008,4.85175z" fill="#000000" stroke-linecap="butt"/><path d="M317.62543,195.16081l10.3,3.2l-6.3,3.3" fill="none" stroke-linecap="round"/><path d="M335.90974,196.7128l-4.42831,0.28016l4.7102,-5.3286" fill="none" stroke-linecap="round"/></g></g></svg>