<svg version="1.1" xmlns="http://www.w3.org/2000/svg" xmlns:xlink="http://www.w3.org/1999/xlink" width="63.98763" height="74.98628" viewBox="0,0,63.98763,74.98628"><defs><linearGradient x1="219.83578" y1="166.28992" x2="219.83578" y2="211.82164" gradientUnits="userSpaceOnUse" id="color-1"><stop offset="0" stop-color="#f475ff"></stop><stop offset="1" stop-color="#be5cc7"></stop></linearGradient><linearGradient x1="242.44033" y1="147.37907" x2="242.44033" y2="196.89405" gradientUnits="userSpaceOnUse" id="color-2"><stop offset="0" stop-color="#f475ff"></stop><stop offset="1" stop-color="#be5cc7"></stop></linearGradient></defs><g transform="translate(-207.93896,-142.50686)"><g data-paper-data="{&quot;isPaintingLayer&quot;:true}" fill-rule="nonzero" stroke="#000000" stroke-width="1.28786" stroke-linejoin="miter" stroke-miterlimit="10" stroke-dasharray="" stroke-dashoffset="0" style="mix-blend-mode: normal"><path d="M221.45281,211.82164c0,0 -10.03232,-18.10165 -11.06422,-26.50427c-0.65799,-5.35793 5.4726,-19.02746 5.4726,-19.02746l5.51661,5.97984c0,0 -4.40145,11.48199 -2.57026,16.854c2.15533,6.32287 10.52485,19.88726 10.52485,19.88726z" fill="url(#color-1)" stroke-linecap="butt"></path><path d="" fill="none" stroke-linecap="butt"></path><path d="" fill="#00a735" stroke-linecap="butt"></path><path d="" fill="#ccf280" stroke-linecap="butt"></path><path d="" fill="#000000" stroke-linecap="butt"></path><path d="" fill="#000000" stroke-linecap="butt"></path><path d="" fill="#000000" stroke-linecap="round"></path><path d="M222.92461,211.15392c-2.70466,1.87581 -12.11965,0.1515 -12.11965,0.1515c0,0 1.52797,-4.64011 4.52455,-6.54625c1.26699,-0.80594 3.543,-0.0034 4.86818,0.03193c4.45937,0.11891 5.43158,4.48701 2.72692,6.36282z" data-paper-data="{&quot;index&quot;:null}" fill="#78ff69" stroke-linecap="round"></path><path d="M232.27269,203.73189c1.32518,-0.03534 3.60119,-0.83787 4.86818,-0.03193c2.99658,1.90614 4.52455,6.54624 4.52455,6.54624c0,0 -9.415,1.72431 -12.11965,-0.1515c-2.70466,-1.87581 -1.73245,-6.24391 2.72692,-6.36282z" data-paper-data="{&quot;index&quot;:null}" fill="#78ff69" stroke-linecap="round"></path><path d="M220.83606,165.90699c0.69678,2.25754 -3.65453,4.82646 -3.65453,4.82646c0,0 -3.19765,-0.80045 -3.62051,-5.25725c-0.4343,-4.57738 0.21319,-8.51038 0.21319,-8.51038c0,0 5.44949,3.71712 7.06185,8.94117z" data-paper-data="{&quot;index&quot;:null}" fill="#78ff69" stroke-linecap="round"></path><path d="M219.1225,167.32032c2.35693,-0.16394 3.86656,4.65832 3.86656,4.65832c0,0 -2.36808,5.1108 -6.80396,4.50681c-4.5559,-0.62033 -7.37789,-4.32683 -7.37789,-4.32683c0,0 4.86126,-4.45894 10.31529,-4.83829z" data-paper-data="{&quot;index&quot;:null}" fill="#78ff69" stroke-linecap="round"></path><path d="M218.56191,184.13253c0,0 -3.00362,-3.5609 -2.61773,-8.14262c0.37573,-4.46102 5.87935,-5.66025 5.87935,-5.66025c0,0 4.37821,2.52278 3.70533,4.78756c-1.55705,5.24079 -6.96695,9.01531 -6.96695,9.01531z" data-paper-data="{&quot;index&quot;:null}" fill="#78ff69" stroke-linecap="round"></path><path d="M225.55535,162.76675c0.69678,2.25754 -3.65452,4.82646 -3.65452,4.82646c0,0 -3.19765,-0.80045 -3.62051,-5.25725c-0.4343,-4.57738 0.21318,-8.51038 0.21318,-8.51038c0,0 5.44949,3.71712 7.06185,8.94117z" data-paper-data="{&quot;index&quot;:null}" fill="#78ff69" stroke-linecap="round"></path><path d="M265.63345,179.53844c0,8.26477 -6.61104,14.58859 -18.74652,14.58859c-12.13547,0 -21.97322,-6.69992 -21.97322,-14.96469c0,-8.26477 9.83775,-14.96469 21.97322,-14.96469c12.13548,0 18.74652,7.07602 18.74652,15.34079z" fill="#6f3574" stroke-linecap="butt"></path><path d="M266.3178,171.44145l-3.58518,9.7155l-2.40016,-5.76867z" fill="#ffffff" stroke-linecap="round"></path><path d="M269.15721,167.79013l-0.92124,8.34983l-2.61266,-5.35718z" fill="#ffffff" stroke-linecap="round"></path><path d="M260.73658,188.71672l-0.92078,-7.19802l6.51711,7.88233z" data-paper-data="{&quot;index&quot;:null}" fill="#ffffff" stroke-linecap="round"></path><path d="M255.47445,188.84728l1.49927,-5.76867l2.55758,8.00171z" data-paper-data="{&quot;index&quot;:null}" fill="#ffffff" stroke-linecap="round"></path><path d="M242.06042,190.77663l7.96833,-9.63756l-1.12582,8.80087z" data-paper-data="{&quot;index&quot;:null}" fill="#ffffff" stroke-linecap="round"></path><path d="M230.76816,187.28884l7.96833,-9.63756l-1.12582,8.80087z" data-paper-data="{&quot;index&quot;:null}" fill="#ffffff" stroke-linecap="round"></path><path d="M237.9572,190.4193l7.96833,-9.63756l-1.12582,8.80087z" data-paper-data="{&quot;index&quot;:null}" fill="#ffffff" stroke-linecap="round"></path><path d="M249.01356,172.20927l-7.96833,9.63757l1.12582,-8.80087z" data-paper-data="{&quot;index&quot;:null}" fill="#ffffff" stroke-linecap="round"></path><path d="M258.7004,174.08992l-5.3965,8.0017l-3.16347,-5.76867z" fill="#ffffff" stroke-linecap="round"></path><path d="M242.08757,169.97788l-7.96833,9.63756l1.12582,-8.80087z" data-paper-data="{&quot;index&quot;:null}" fill="#ffffff" stroke-linecap="round"></path><path d="M262.7178,189.42567l3.50936,-9.60668l1.53682,7.09208z" data-paper-data="{&quot;index&quot;:null}" fill="#ffffff" stroke-linecap="round"></path><path d="M234.88709,144.13132c0,0 3.30479,1.55347 4.38869,3.04221c1.27313,1.74865 2.77414,6.79598 2.77414,6.79598c0,0 -3.07301,1.14363 -4.21586,1.10834c-1.04983,-0.03242 -2.38589,-1.31221 -2.38589,-1.31221c0,0 0.62085,-2.66035 0.5312,-4.19972c-0.09683,-1.66257 -1.0923,-5.4346 -1.0923,-5.4346z" fill="#f7fff3" stroke-linecap="round"></path><path d="M229.80781,147.09159c0,0 3.30479,1.55347 4.38869,3.04221c1.27313,1.74864 2.77414,6.79597 2.77414,6.79597c0,0 -3.07301,1.14363 -4.21586,1.10834c-1.04983,-0.03242 -2.38589,-1.31221 -2.38589,-1.31221c0,0 0.62085,-2.66035 0.5312,-4.19972c-0.09683,-1.66257 -1.0923,-5.4346 -1.0923,-5.4346z" fill="#f7fff3" stroke-linecap="round"></path><path d="M218.74717,168.52289c1.96403,-13.49751 14.49809,-22.84725 27.9956,-20.88322c8.81359,1.28247 16.10737,8.61221 19.56137,17.30288c1.03613,2.60702 -6.98431,7.09356 -18.54382,6.45476c-8.91929,-0.4929 -21.97864,-5.91966 -21.97864,-5.91966c0,0 -1.31582,6.4104 0.7863,12.80336c1.24903,3.79857 4.42711,7.47059 7.82576,10.11791c8.16306,6.35848 26.22007,3.99517 23.72805,5.34985c-5.19348,2.82321 -11.79567,3.74403 -18.4914,2.76973c-13.49751,-1.96403 -22.84725,-14.49808 -20.88322,-27.9956z" fill="url(#color-2)" stroke-linecap="butt"></path><path d="M252.51008,146.47558c0,0 3.2423,3.41179 3.8476,5.70686c0.71096,2.69574 0.1524,9.4598 0.1524,9.4598c0,0 -4.22571,-0.06414 -5.58177,-0.64118c-1.24566,-0.53007 -2.25156,-2.69215 -2.25156,-2.69215c0,0 1.99023,-2.90464 2.60272,-4.79537c0.66151,-2.04205 1.23061,-7.03797 1.23061,-7.03797z" fill="#f7fff3" stroke-linecap="round"></path><path d="M242.0662,143.15079c0,0 3.30479,1.55347 4.38869,3.04221c1.27313,1.74865 2.77414,6.79598 2.77414,6.79598c0,0 -3.07301,1.14363 -4.21586,1.10834c-1.04983,-0.03242 -2.38589,-1.31221 -2.38589,-1.31221c0,0 0.62085,-2.66035 0.5312,-4.19972c-0.09682,-1.66257 -1.09229,-5.4346 -1.09229,-5.4346z" fill="#f7fff3" stroke-linecap="round"></path><path d="M228.70408,215.69424c-3.57061,2.47639 -16,0.2 -16,0.2c0,0 2.0172,-6.12573 5.97319,-8.64216c1.67264,-1.06397 4.67736,-0.0045 6.42682,0.04215c5.88713,0.15699 7.17061,5.92361 3.6,8.4z" fill="#78ff69" stroke-linecap="round"></path><path d="M233.12997,205.63438c1.47499,-0.03933 4.0083,-0.93259 5.41852,-0.03554c3.33534,2.12162 5.03606,7.28629 5.03606,7.28629c0,0 -10.47935,1.91925 -13.48978,-0.16862c-3.01042,-2.08787 -1.9283,-6.94977 3.0352,-7.08213z" data-paper-data="{&quot;index&quot;:null}" fill="#78ff69" stroke-linecap="round"></path><path d="M265.61022,161.60875c5.98742,-1.11203 4.83824,3.72172 4.83824,3.72172c0,0 -0.16227,2.71636 -2.40777,4.66523c-3.27051,2.83848 -9.49955,5.30086 -13.96781,5.7556c-7.53613,0.76695 -25.67988,-6.14085 -25.67988,-6.14085c0,0 2.45301,11.13972 8.0017,14.88689c5.54869,3.74717 12.86708,5.18959 20.65556,4.46607c7.78849,-0.72352 12.46777,-6.88519 12.46777,-6.88519l1.67477,5.76867c0,0 -6.80894,5.8626 -12.0956,6.14084c-5.28666,0.27824 -18.05012,-0.34179 -26.42423,-6.6991c-8.37411,-6.35731 -8.34968,-22.94642 -6.85362,-23.00337c5.93947,-0.2261 3.36333,1.97594 6.57661,3.37797c5.644,2.4626 16.96356,4.50248 21.09566,4.21826c3.30688,-0.22746 8.37618,-1.82798 11.60546,-4.84123c1.14875,-1.07191 -1.34863,-5.08574 0.51313,-5.43152z" fill="#78ff69" stroke-linecap="round"></path></g></g></svg>