<svg version="1.1" xmlns="http://www.w3.org/2000/svg" xmlns:xlink="http://www.w3.org/1999/xlink" width="147.16922" height="48.2508" viewBox="0,0,147.16922,48.2508"><g transform="translate(-209.67465,-156.21151)"><g data-paper-data="{&quot;isPaintingLayer&quot;:true}" fill-rule="nonzero" stroke="#000000" stroke-width="1.28786" stroke-linejoin="miter" stroke-miterlimit="10" stroke-dasharray="" stroke-dashoffset="0" style="mix-blend-mode: normal"><path d="M231.97571,203.12495v-15.23136h124.22423v15.23136z" fill="#beff9a" stroke-linecap="butt"></path><path d="" fill="none" stroke-linecap="butt"></path><path d="" fill="#00a735" stroke-linecap="butt"></path><path d="" fill="#ccf280" stroke-linecap="butt"></path><path d="" fill="#000000" stroke-linecap="butt"></path><path d="" fill="#000000" stroke-linecap="butt"></path><path d="" fill="#000000" stroke-linecap="round"></path><path d="M258.99017,191.19414c0,0.74669 4.63279,6.11894 4.63279,6.11894c0,0 -5.26343,-3.14542 -6.54455,-2.68739c-2.62098,0.93706 -2.43794,5.92822 -3.51982,6.55009c-2.73596,1.57267 -6.70758,-1.44821 -6.70758,-1.44821c0,0 -3.54583,3.9002 -5.52644,3.9002c-3.18545,0 -5.2434,-5.33942 -5.2434,-5.33942c0,0 -5.30258,2.1111 -6.96916,0.59163c-0.60792,-0.55426 -2.00295,-1.81068 -3.44955,-2.04868c-4.22916,-0.69579 -10.39213,0.59438 -10.39213,0.59438l5.16098,-4.54305c0,0 -1.3672,0.0251 -2.27552,0.32644c-1.52014,0.50431 -5.99738,2.41814 -5.99738,2.41814c0,0 2.92781,-3.20182 4.66449,-4.47823c1.53376,-1.12727 5.2227,-2.7886 5.2227,-2.7886c0,0 -1.60581,-0.09079 -2.84295,0.28108c-1.66011,0.49901 -6.22738,2.44533 -6.22738,2.44533c0,0 2.16267,-3.15925 6.92863,-5.2482c0.49168,-0.21551 -0.35854,-0.95737 -1.71459,-0.95944c-1.05305,-0.00161 -2.64673,0.71776 -2.64673,0.71776c0,0 3.59465,-3.20765 9.29943,-4.6465c6.74087,-1.70019 10.1628,-3.75258 10.70563,-3.75258c1.49175,0 6.82242,-1.28126 11.55558,0.0243c4.11186,1.13419 7.60294,4.80298 9.85719,5.68168c2.10384,0.82008 3.8295,2.7928 3.8295,2.7928c0,0 -1.73781,-0.25939 -2.56616,-0.17529c-1.10914,0.11261 -4.1881,-0.29731 -4.1881,-0.29731c0,0 7.33157,3.35974 7.95319,3.84171c1.80106,1.39647 2.82318,3.24459 2.82318,3.24459c0,0 -5.82181,-2.09501 -5.82181,-1.11618z" fill="#acff26" stroke-linecap="butt"></path><path d="M257.56565,182.22593c-1.24833,3.09314 -4.60335,2.47413 -8.02424,1.09353c-3.42088,-1.38061 -5.61223,-3 -4.3639,-6.09314c1.24833,-3.09314 5.03349,-4.48143 8.45438,-3.10083c3.42089,1.38061 5.1821,5.00729 3.93376,8.10044z" fill="#4e3605" stroke-linecap="butt"></path><path d="M240.65873,175.35489c0.74117,0 -0.12772,-3.12489 1.22478,-4.309c1.75735,-1.53854 5.69918,-1.23016 5.69918,-1.23016c0,0 -3.5609,1.99467 -3.5609,3.36307c0,0.50925 -0.51633,4.03148 -1.36617,4.82819c-1.89742,1.7788 -5.06322,1.00772 -5.06322,1.00772c0,0 -1.58262,-3.07682 -1.58262,-4.64894c0,-1.48976 1.58262,-4.55003 1.58262,-4.55003c0,0 1.4445,5.53916 3.06632,5.53916z" data-paper-data="{&quot;index&quot;:null}" fill="#acff26" stroke-linecap="butt"></path><path d="M241.77064,181.29251l8.88946,-3.01094l-1.57716,3.15433l3.58446,0.7169l1.86392,4.13118" fill="#acff26" stroke-linecap="round"></path><path d="M223.87041,173.6545c0,0 -1.50858,-5.44785 -0.59314,-8.49494c0.96857,-3.22392 4.77045,-5.99582 4.77045,-5.99582c0,0 3.04355,-3.20875 5.19485,-2.05987c2.52857,1.35036 -1.02989,4.87746 -1.02989,4.87746c0,0 -0.93426,0.18458 -2.14467,4.01597c-1.05258,3.33185 1.49542,7.93728 1.01741,7.59392c-0.30336,-0.21791 -7.21501,0.06327 -7.21501,0.06327z" fill="#acff26" stroke-linecap="butt"></path><path d="M230.26728,198.85232l3.40864,-12.55003l6.36418,-3.12068l4.64517,2.93657l5.46813,-2.54775l4.07664,4.28851l1.50552,10.46719c0,0 -1.73647,3.15829 -3.698,3.54604c-1.96153,0.38774 -5.35271,-1.75695 -5.35271,-1.75695c0,0 -2.85231,3.18586 -5.32887,3.41281c-2.40491,0.22039 -11.08871,-4.6757 -11.08871,-4.6757z" fill="#f6fab0" stroke-linecap="round"></path><path d="M236.0147,178.75031c0,2.76527 -2.9836,4.17379 -5.49478,5.45138c-1.21231,0.61678 -1.32486,1.97277 -2.81997,1.97277c-4.59211,0 -8.31473,-3.3239 -8.31473,-7.42415c0,-4.10025 3.72264,-7.42416 8.31474,-7.42416c4.59211,0 8.31474,3.32391 8.31474,7.42416z" fill="#4e3605" stroke-linecap="butt"></path><path d="M244.33217,192.07564c0,3.08651 -1.18819,5.58863 -2.65391,5.58863c-1.46572,0 -2.65392,-2.50212 -2.65392,-5.58863c0,-3.08651 -0.25068,-4.21124 1.21504,-4.21124c0.12965,0 2.20015,1.51522 3.238,3.24752c0.27759,0.46333 0.85479,0.38542 0.85479,0.96372z" fill="#000000" stroke-linecap="butt"></path><path d="M252.45833,191.33379c0,2.84069 -1.16074,5.14351 -2.59261,5.14351c-1.43187,0 -2.59261,-2.30283 -2.59261,-5.14351c0,-0.93006 -0.36357,0.19407 -0.0008,-0.43173c0.38733,-0.66814 1.24538,-1.76005 1.96072,-2.7448c0.66106,-0.91001 1.17675,-1.74219 1.63929,-1.74219c1.43187,0 1.58602,2.07804 1.58602,4.91872z" fill="#000000" stroke-linecap="butt"></path><path d="M226.01472,188.31805l-2.43743,-4.87486l8.02919,-1.00365l-0.28675,-3.29771l6.88216,3.29771" fill="#acff26" stroke-linecap="round"></path><path d="M225.04491,161.89087l2.8014,-2.6418c0,0 3.04355,-3.20875 5.19485,-2.05987c2.52857,1.35036 -1.02989,4.87745 -1.02989,4.87745l-1.40739,2.01282z" fill="#4e3605" stroke-linecap="butt"></path><path d="M236.50264,203.81838c-3.80186,0 -6.88388,-1.81546 -6.88388,-4.05494c0,-2.23949 3.08201,-4.05494 6.88388,-4.05494c3.80186,0 6.88389,1.81546 6.88389,4.05494c0,2.23949 -3.08202,4.05494 -6.88389,4.05494z" fill="#f6fab0" stroke-linecap="butt"></path><path d="M276.42577,192.07698c-2.38624,2.12813 -5.87918,1.74488 -7.04497,0.43768c-1.1658,-1.3072 -0.49252,-4.82611 1.62841,-6.71762c2.12093,-1.89151 5.92623,-2.20753 7.01294,-0.98901c1.1658,1.30719 0.78986,5.14083 -1.59638,7.26896z" fill="#f6fab0" stroke-linecap="butt"></path><path d="M233.81381,198.60141l-1.68153,4.15437" fill="none" stroke-linecap="round"></path><path d="M237.17263,203.45666l-1.08805,-4.05546" fill="none" stroke-linecap="round"></path><path d="M240.74201,202.17927l-2.07719,-2.1761" fill="none" stroke-linecap="round"></path><path d="M244.7846,197.4399l2.67067,-0.19783l-0.89022,2.37393z" fill="#000000" stroke-linecap="round"></path><path d="M279.38839,187.30384l-4.50722,-0.58094" fill="none" stroke-linecap="round"></path><path d="M276.37109,191.1549l-3.03605,-3.69177" fill="none" stroke-linecap="round"></path><path d="M271.32038,192.56977l0.14992,-3.9635" fill="none" stroke-linecap="round"></path><path d="M244.33955,191.09868l-7.43082,-5.4627" fill="none" stroke-linecap="round"></path><path d="M246.74777,191.19238l6.80299,-7.66464" fill="none" stroke-linecap="round"></path></g></g></svg>