<svg version="1.1" xmlns="http://www.w3.org/2000/svg" xmlns:xlink="http://www.w3.org/1999/xlink" width="45.39111" height="59.50987" viewBox="0,0,45.39111,59.50987"><g transform="translate(-216.7408,-150.01432)"><g data-paper-data="{&quot;isPaintingLayer&quot;:true}" fill="#b6ffff" fill-rule="nonzero" stroke="#000000" stroke-width="1.28786" stroke-linecap="round" stroke-linejoin="miter" stroke-miterlimit="10" stroke-dasharray="" stroke-dashoffset="0" style="mix-blend-mode: normal"><path d="M240.40967,152.0057c0,0 21.06469,14.40534 21.07831,30.14142c0.01361,15.73608 -21.02986,25.84719 -21.02986,25.84719c0,0 9.95434,-16.18093 9.94536,-26.56328c-0.00898,-10.38235 -9.99381,-29.42533 -9.99381,-29.42533z"></path><path d="M228.53092,159.84531c0,0 15.66271,10.71113 15.67283,22.41173c0.01012,11.7006 -15.6368,19.21875 -15.6368,19.21875c0,0 7.40158,-12.03137 7.3949,-19.7512c-0.00668,-7.71982 -7.43092,-21.87928 -7.43092,-21.87928z"></path><path d="M218.51202,166.62508c0,0 11.35165,7.76296 11.35899,16.24305c0.00734,8.48009 -11.33288,13.92892 -11.33288,13.92892c0,0 5.36434,-8.71982 5.3595,-14.31481c-0.00484,-5.59499 -5.38561,-15.85715 -5.38561,-15.85715z"></path></g></g></svg>