<svg version="1.1" xmlns="http://www.w3.org/2000/svg" xmlns:xlink="http://www.w3.org/1999/xlink" width="64.75468" height="88.3111" viewBox="0,0,64.75468,88.3111"><defs><linearGradient x1="240" y1="137.59302" x2="240" y2="222.40698" gradientUnits="userSpaceOnUse" id="color-1"><stop offset="0" stop-color="#555555"></stop><stop offset="1" stop-color="#00ff94"></stop></linearGradient><linearGradient x1="221.62771" y1="179.06965" x2="227.45621" y2="185.63898" gradientUnits="userSpaceOnUse" id="color-2"><stop offset="0" stop-color="#bce6a7"></stop><stop offset="1" stop-color="#b8fc9f"></stop></linearGradient><linearGradient x1="254.13658" y1="165.95631" x2="249.51915" y2="158.75647" gradientUnits="userSpaceOnUse" id="color-3"><stop offset="0" stop-color="#bce6a7"></stop><stop offset="1" stop-color="#b8fc9f"></stop></linearGradient><linearGradient x1="246.32404" y1="172.38846" x2="242.62387" y2="180.09996" gradientUnits="userSpaceOnUse" id="color-4"><stop offset="0" stop-color="#bce6a7"></stop><stop offset="1" stop-color="#b8fc9f"></stop></linearGradient><linearGradient x1="242.90561" y1="154.22982" x2="242.90561" y2="194.31477" gradientUnits="userSpaceOnUse" id="color-5"><stop offset="0" stop-color="#bce6a8"></stop><stop offset="1" stop-color="#b8ff9e"></stop></linearGradient><linearGradient x1="228.66774" y1="163.98871" x2="228.66774" y2="172.54196" gradientUnits="userSpaceOnUse" id="color-6"><stop offset="0" stop-color="#bce6a7"></stop><stop offset="1" stop-color="#b8fc9f"></stop></linearGradient><linearGradient x1="240.22705" y1="153.75062" x2="235.60962" y2="160.95045" gradientUnits="userSpaceOnUse" id="color-7"><stop offset="0" stop-color="#bce6a7"></stop><stop offset="1" stop-color="#b8fc9f"></stop></linearGradient><linearGradient x1="262.19105" y1="162.75279" x2="254.22216" y2="159.70191" gradientUnits="userSpaceOnUse" id="color-8"><stop offset="0" stop-color="#bce6a7"></stop><stop offset="1" stop-color="#b8fc9f"></stop></linearGradient><linearGradient x1="239.59164" y1="209.60567" x2="239.59164" y2="222.41963" gradientUnits="userSpaceOnUse" id="color-9"><stop offset="0" stop-color="#7c7c7c"></stop><stop offset="1" stop-color="#7a7a7a"></stop></linearGradient><linearGradient x1="212.4166" y1="137.57566" x2="212.4166" y2="222.38963" gradientUnits="userSpaceOnUse" id="color-10"><stop offset="0" stop-color="#969696"></stop><stop offset="1" stop-color="#7a7a7a"></stop></linearGradient><linearGradient x1="267.75417" y1="137.64442" x2="267.75417" y2="222.45839" gradientUnits="userSpaceOnUse" id="color-11"><stop offset="0" stop-color="#969696"></stop><stop offset="1" stop-color="#7a7a7a"></stop></linearGradient><linearGradient x1="226.45663" y1="190.51115" x2="226.45663" y2="211.51303" gradientUnits="userSpaceOnUse" id="color-12"><stop offset="0" stop-color="#858585"></stop><stop offset="1" stop-color="#818181"></stop></linearGradient><linearGradient x1="245.03235" y1="203.09818" x2="245.03235" y2="215.25659" gradientUnits="userSpaceOnUse" id="color-13"><stop offset="0" stop-color="#808080"></stop><stop offset="1" stop-color="#7d7d7d"></stop></linearGradient></defs><g transform="translate(-207.15142,-137.47152)"><g data-paper-data="{&quot;isPaintingLayer&quot;:true}" fill-rule="nonzero" stroke-linejoin="miter" stroke-miterlimit="10" stroke-dasharray="" stroke-dashoffset="0" style="mix-blend-mode: normal"><path d="M271.44769,137.59302v84.81396h-62.89539v-84.81396z" data-paper-data="{&quot;index&quot;:null}" fill="url(#color-1)" stroke="none" stroke-width="0" stroke-linecap="butt"></path><g stroke="#000000" stroke-width="1.28786"><path d="" fill="none" stroke-linecap="butt"></path><path d="" fill="#00a735" stroke-linecap="butt"></path><path d="" fill="#ccf280" stroke-linecap="butt"></path><path d="" fill="#000000" stroke-linecap="butt"></path><path d="" fill="#000000" stroke-linecap="butt"></path><path d="" fill="#000000" stroke-linecap="round"></path><path d="M229.28489,200.766c-2.12328,-0.17015 -6.31955,-2.03392 -6.31955,-2.03392c0,0 -0.74465,-10.65 -1.70861,-15.86699c-0.93807,-5.07686 -4.50926,-14.51959 -4.50926,-14.51959c0,0 5.69625,3.7613 7.46872,5.49323c0.8228,0.80397 2.72451,4.46681 2.72451,4.46681l1.12125,-2.53222l0.61159,4.7268c0,0 2.43889,4.26559 3.32165,6.13195c0.61664,1.30373 1.46916,3.99691 1.46916,3.99691l0.71352,-1.68815l-0.40772,4.7268l1.83478,6.07731c0,0 -4.23066,1.18846 -6.32004,1.02104z" data-paper-data="{&quot;index&quot;:null}" fill="#55b54c" stroke-linecap="round"></path><path d="M226.90434,186.07141l-8.21997,-4.69549l7.42049,-2.88378" fill="url(#color-2)" stroke-linecap="round"></path><path d="M255.95298,162.11743l-4.8479,5.78305l-2.15433,-8.77948" data-paper-data="{&quot;index&quot;:null}" fill="url(#color-3)" stroke-linecap="round"></path><path d="M242.10337,172.85984l7.46761,1.08659l-6.3383,6.44564" data-paper-data="{&quot;index&quot;:null}" fill="url(#color-4)" stroke-linecap="round"></path><path d="M223.88586,184.42794c0,0 1.69641,-13.586 8.10831,-22.53852c2.4721,-3.45163 6.6991,-5.63963 10.23618,-6.94772c12.71122,-4.7009 19.695,15.41837 19.695,15.41837c0,0 -10.61795,-14.34066 -15.41837,-9.22851c-4.80043,5.11214 -1.91323,27.68555 -1.91323,27.68555l-7.76546,5.49765z" fill="url(#color-5)" stroke-linecap="round"></path><path d="M254.68149,187.47279c0.7793,-7.45667 8.04681,-16.54969 8.04681,-16.54969c0,0 7.20274,12.28707 7.20274,15.756c0,4.75003 -0.57863,9.75919 -7.20274,10.12886c-4.09937,0.22877 -8.58042,-4.22937 -8.04681,-9.33518z" fill="#65ffb7" stroke-linecap="round"></path><path d="M235.83068,182.79628c0,2.64161 -0.83139,4.78307 -1.85696,4.78307c-1.02556,0 -1.85696,-2.14146 -1.85696,-4.78307c0,-2.64161 0.83139,-4.78308 1.85696,-4.78308c1.02556,0 1.85696,2.14146 1.85696,4.78308z" fill="#000000" stroke-linecap="butt"></path><path d="M242.92089,182.51492c0,2.79701 -0.95736,5.06443 -2.13831,5.06443c-1.18096,0 -2.13831,-2.26742 -2.13831,-5.06443c0,-2.79701 0.95736,-5.06443 2.13831,-5.06443c1.18096,0 2.13831,2.26742 2.13831,5.06443z" fill="#000000" stroke-linecap="butt"></path><path d="M232.0421,193.54762l5.9085,-5.06443l5.57087,3.88273l-4.7268,11.47937z" fill="#55b54c" stroke-linecap="round"></path><path d="M240.48283,207.22158c0,0 -7.00657,1.18846 -10.46688,1.02104c-3.51645,-0.17015 -10.4661,-2.03392 -10.4661,-2.03392c0,0 -1.23325,-10.65 -2.8297,-15.86699c-1.55357,-5.07686 -7.46797,-14.51959 -7.46797,-14.51959c0,0 9.43379,3.76131 12.36926,5.49324c1.36267,0.80397 4.51217,4.46681 4.51217,4.46681l1.85696,-2.53222l1.01288,4.7268c0,0 4.03915,4.2656 5.50113,6.13195c1.02125,1.30373 2.43314,3.99691 2.43314,3.99691l1.1817,-1.68815l-0.67525,4.7268l3.03866,6.07731z" fill="#55b54c" stroke-linecap="round"></path><path d="M234.84278,205.92231l1.83478,-6.07731l-0.40772,-4.7268l0.71352,1.68815c0,0 0.85252,-2.69318 1.46916,-3.99691c0.88276,-1.86635 3.32165,-6.13195 3.32165,-6.13195l0.61159,-4.7268l1.12125,2.53222c0,0 1.90172,-3.66284 2.72451,-4.46681c1.77248,-1.73193 7.46872,-5.49323 7.46872,-5.49323c0,0 -3.57119,9.44272 -4.50926,14.51959c-0.96397,5.21699 -1.70861,15.86699 -1.70861,15.86699c0,0 -4.19629,1.86377 -6.31955,2.03392c-2.08938,0.16743 -6.32004,-1.02104 -6.32004,-1.02104z" data-paper-data="{&quot;index&quot;:null}" fill="#55b54c" stroke-linecap="round"></path><path d="M227.99248,172.54196l-2.92611,-8.55326l7.20274,2.25085" fill="url(#color-6)" stroke-linecap="round"></path><path d="M235.0412,160.58592l2.15433,-8.77948l4.8479,5.78305" fill="url(#color-7)" stroke-linecap="round"></path><path d="M254.43847,159.09683l8.90624,0.42883l-4.40441,5.65143" fill="url(#color-8)" stroke-linecap="round"></path></g><path d="M208.14395,222.41963v-12.81396h62.89539v12.81396z" fill="url(#color-9)" stroke="none" stroke-width="0" stroke-linecap="butt"></path><path d="M208.09391,222.38963v-84.81396h8.64539v84.81396z" fill="url(#color-10)" stroke="none" stroke-width="0" stroke-linecap="butt"></path><path d="M263.68148,222.45839v-84.81396h8.14539v84.81396z" fill="url(#color-11)" stroke="none" stroke-width="0" stroke-linecap="butt"></path><path d="M208.14395,147.93962v-10.31396h62.89539v10.31396z" fill="#969696" stroke="none" stroke-width="0" stroke-linecap="butt"></path><path d="M215.88896,211.51303v-21.00188l21.13534,21.00188z" fill="url(#color-12)" stroke="none" stroke-width="0" stroke-linecap="butt"></path><path d="M223.00343,215.25659v-12.15842h44.05785v12.15842z" fill="url(#color-13)" stroke="none" stroke-width="0" stroke-linecap="butt"></path><text transform="translate(238.33119,219.53262) scale(0.47116,0.5)" font-size="40" xml:space="preserve" fill="#000000" fill-rule="nonzero" stroke="none" stroke-width="1" stroke-linecap="butt" stroke-linejoin="miter" stroke-miterlimit="10" stroke-dasharray="" stroke-dashoffset="0" font-family="Sans Serif" font-weight="normal" text-anchor="start" style="mix-blend-mode: normal"><tspan x="0" dy="0">125</tspan></text><g stroke-linecap="butt"><path d="M223.52762,213.72607l-2.65375,6.84999l-2.38631,-6.84999z" data-paper-data="{&quot;index&quot;:null}" fill="#ffff00" stroke="#ffff00" stroke-width="1"></path><path d="M218.55937,202.35023l2.38632,-6.84999l2.65375,6.84999z" fill="#ffff00" stroke="#ffff00" stroke-width="1"></path><path d="M214.37597,208.24943c0,-3.72115 3.01658,-6.73773 6.73773,-6.73773c3.72115,0 6.73772,3.01658 6.73772,6.73773c0,3.72115 -3.01658,6.73772 -6.73772,6.73772c-3.72115,0 -6.73773,-3.01658 -6.73773,-6.73772z" fill="#ffff00" stroke="none" stroke-width="0"></path><path d="M226.80398,205.71433l6.87114,2.59848l-6.83054,2.44142z" data-paper-data="{&quot;index&quot;:null}" fill="#ffff00" stroke="#ffff00" stroke-width="1"></path><path d="M215.46854,210.77406l-6.86899,-2.33105l6.82838,-2.70885z" fill="#ffff00" stroke="#ffff00" stroke-width="1"></path><path d="M227.11956,210.36082l3.04475,6.68537l-6.56714,-3.08051z" data-paper-data="{&quot;index&quot;:null}" fill="#ffff00" stroke="#ffff00" stroke-width="1"></path><path d="M215.51088,205.96401l-3.23165,-6.49409l6.75404,2.88922z" fill="#ffff00" stroke="#ffff00" stroke-width="1"></path><path d="M223.67899,202.4182l6.66063,-3.0985l-3.02751,6.59174z" data-paper-data="{&quot;index&quot;:null}" fill="#ffff00" stroke="#ffff00" stroke-width="1"></path><path d="M219.37584,214.06193l-6.46785,3.28387l2.83472,-6.7771z" fill="#ffff00" stroke="#ffff00" stroke-width="1"></path><path d="M216.39221,208.44999c0,-2.70702 2.19448,-4.90151 4.9015,-4.90151c2.70702,0 4.90151,2.19448 4.90151,4.90151c0,2.70702 -2.19448,4.9015 -4.90151,4.9015c-2.70702,0 -4.9015,-2.19448 -4.9015,-4.9015z" fill="#fffff7" stroke="none" stroke-width="0"></path></g><path d="M271.9061,137.47152v33.64619l-33.86,-33.64619z" fill="#00e2ff" stroke="none" stroke-width="0" stroke-linecap="butt"></path></g></g></svg>