<svg version="1.1" xmlns="http://www.w3.org/2000/svg" xmlns:xlink="http://www.w3.org/1999/xlink" width="23.10344" height="20.19155" viewBox="0,0,23.10344,20.19155"><g transform="translate(-226.97056,-164.99749)"><g data-paper-data="{&quot;isPaintingLayer&quot;:true}" fill="#eaff00" fill-rule="nonzero" stroke="none" stroke-width="0.5" stroke-linecap="butt" stroke-linejoin="miter" stroke-miterlimit="10" stroke-dasharray="" stroke-dashoffset="0" style="mix-blend-mode: normal"><path d="M233.23278,165.00663c1.00225,0.64773 1.84139,1.84058 2.40443,3.18697c1.39981,3.34737 1.09306,7.6438 -2.6564,6.87192c-2.18101,-0.44899 -3.01605,-8.50531 -1.75106,-9.0551z"></path><path d="M239.65713,167.34415c0.80589,-3.61019 3.50439,-2.51938 4.98141,-0.30637c0.90236,1.35199 1.34882,3.12283 0.62932,4.49648c-3.04759,5.81835 -5.47187,-1.38446 -5.60656,-4.04446z"></path><path d="M229.18693,178.48893c1.86353,-0.19396 3.91971,1.39644 5.85908,1.498c4.69243,0.24574 7.31439,-0.62532 11.22912,-2.78613c2.79093,-1.54051 5.28719,2.25257 2.73819,4.18358c-3.99448,3.02603 -9.65379,4.39588 -14.62269,3.56613c-0.74974,-0.1252 -6.75989,-0.91589 -6.93721,-2.48098c-0.30357,-0.41385 -0.48286,-0.92456 -0.48286,-1.47716c0,-1.17767 0.8143,-2.16516 1.91057,-2.43011c0.09554,-0.0369 0.19713,-0.06201 0.3058,-0.07333z"></path></g></g></svg>