<svg version="1.1" xmlns="http://www.w3.org/2000/svg" xmlns:xlink="http://www.w3.org/1999/xlink" width="37.45188" height="51.06978" viewBox="0,0,37.45188,51.06978"><g transform="translate(-221.27406,-154.45263)"><g data-paper-data="{&quot;isPaintingLayer&quot;:true}" fill-rule="nonzero" stroke="#000000" stroke-width="1.28786" stroke-linejoin="miter" stroke-miterlimit="10" stroke-dasharray="" stroke-dashoffset="0" style="mix-blend-mode: normal"><path d="M228.15561,190.26914l8.93116,-27.79997l6.27491,2.01591l-8.93116,27.79998z" fill="#ba0000" stroke-linecap="butt"></path><path d="M245.88499,192.44319l-10.58956,-27.7267l7.0697,-2.7001l10.58956,27.72669z" fill="#ba0000" stroke-linecap="butt"></path><path d="M230.3542,204.87848c-4.65919,0 -8.43621,-4.23154 -8.43621,-9.45141c0,-5.21988 3.77702,-9.45141 8.43621,-9.45141c4.65919,0 8.4362,4.23154 8.4362,9.45141c0,5.21988 -3.77702,9.45141 -8.4362,9.45141z" fill="#ff0000" stroke-linecap="butt"></path><path d="M250.35916,204.84747c-4.26521,0 -7.72285,-3.83581 -7.72285,-8.56753c0,-4.73172 3.45764,-8.56753 7.72285,-8.56753c4.26521,0 7.72285,3.83581 7.72285,8.56753c0,4.73172 -3.45764,8.56753 -7.72285,8.56753z" fill="#ff0000" stroke-linecap="butt"></path><path d="M242.01177,158.89921c2.54021,3.73578 2.63301,8.10137 0.20727,9.7508c-2.42575,1.64943 -6.45145,-0.04191 -8.99167,-3.77769c-2.54021,-3.73578 -0.20726,-9.7508 -0.20726,-9.7508c0,0 6.6752,0.37095 8.99167,3.77768z" fill="#00ff12" stroke-linecap="butt"></path><path d="M234.70799,192.57445c0,2.42978 -0.4999,4.39952 -1.11656,4.39952c-0.61666,0 -1.11656,-1.96973 -1.11656,-4.39952c0,-2.42978 0.4999,-4.39951 1.11656,-4.39951c0.61666,0 1.11656,1.96973 1.11656,4.39951z" fill="#000000" stroke-linecap="butt"></path><path d="M227.29973,198.69301c0,0 1.54762,-0.74315 2.95121,-0.39146c1.08113,0.27089 4.75834,2.32317 4.75834,2.32317" fill="none" stroke-linecap="round"></path><path d="M247.22051,201.83868c0,0 0.74307,-1.44114 1.82737,-1.32975c1.07186,0.11012 4.64156,1.99433 4.64156,1.99433" fill="none" stroke-linecap="round"></path><path d="M230.79141,192.87613c0,2.42978 -0.4999,4.39952 -1.11656,4.39952c-0.61666,0 -1.11656,-1.96973 -1.11656,-4.39952c0,-2.42978 0.4999,-4.39951 1.11656,-4.39951c0.61666,0 1.11656,1.96973 1.11656,4.39951z" fill="#000000" stroke-linecap="butt"></path><path d="M250.32228,195.4547c0,2.42978 -0.4999,4.39952 -1.11656,4.39952c-0.61666,0 -1.11656,-1.96973 -1.11656,-4.39952c0,-2.42978 0.4999,-4.39951 1.11656,-4.39951c0.61666,0 1.11656,1.96973 1.11656,4.39951z" fill="#000000" stroke-linecap="butt"></path><path d="M254.46086,195.94246c0,2.42978 -0.4999,4.39952 -1.11656,4.39952c-0.61666,0 -1.11656,-1.96973 -1.11656,-4.39952c0,-2.42978 0.4999,-4.39952 1.11656,-4.39952c0.61666,0 1.11656,1.96973 1.11656,4.39952z" fill="#000000" stroke-linecap="butt"></path><path d="M235.79277,188.02835l-4.73574,1.77702l-4.64346,-3.69505" fill="none" stroke-linecap="round"></path><path d="M256.08596,190.69593l-4.73574,1.77702l-4.64346,-3.69505" fill="none" stroke-linecap="round"></path></g></g></svg>