<svg version="1.1" xmlns="http://www.w3.org/2000/svg" xmlns:xlink="http://www.w3.org/1999/xlink" width="46.42647" height="54.16867" viewBox="0,0,46.42647,54.16867"><g transform="translate(-300.73922,-157.27566)"><g stroke="#000000" stroke-width="1.28786" stroke-miterlimit="10"><path d="M318.58403,182.6302c0,0 -7.60674,2.79179 -13.7142,-2.16518c-3.02239,-2.45305 -5.28117,-14.58606 -1.51103,-15.06584c6.13914,-0.78124 3.98837,6.27335 5.84959,9.20423c2.69659,4.24634 6.32072,6.7736 6.32072,6.7736z" fill="#27c121" stroke-linecap="butt"/><path d="M314.3628,180.59883c0,0 -6.63455,-2.13571 -8.44628,-4.22314c-1.81173,-2.08743 -1.26694,-6.96818 -1.26694,-6.96818" fill="none" stroke-linecap="round"/><path d="M328.79186,197.38582c0,3.40138 -2.67858,6.15875 -5.98278,6.15875c-3.3042,0 -5.98278,-2.75736 -5.98278,-6.15875c0,-3.40138 2.67858,-6.15875 5.98278,-6.15875c3.3042,0 5.98278,2.75736 5.98278,6.15875z" fill="#146812" stroke-linecap="butt"/><path d="M322.81037,201.91963c0.22892,-3.24978 3.46104,-5.66965 7.21917,-5.40492c3.75812,0.26473 6.44387,8.41558 6.44387,8.41558c0,0 -3.23222,-0.39285 -6.99034,-0.65758c-3.75812,-0.26473 -6.90161,0.8967 -6.6727,-2.35308z" fill="#27c121" stroke-linecap="butt"/><path d="M315.96871,204.95462c-3.88355,0.27356 -7.22365,0.67953 -7.22365,0.67953c0,0 2.77539,-8.4229 6.65894,-8.69646c3.88355,-0.27356 7.22356,2.22708 7.46012,5.58532c0.23655,3.35824 -3.01185,2.15806 -6.89541,2.43162z" fill="#27c121" stroke-linecap="butt"/><path d="M320.34559,203.47418v-22.5938h4.64545v22.5938z" fill="#27c121" stroke-linecap="butt"/><path d="M328.29917,183.80138c0,2.0797 -2.61556,3.76563 -5.84201,3.76563c-3.22645,0 -5.84201,-1.68593 -5.84201,-3.76563c0,-2.0797 2.61556,-3.76563 5.84201,-3.76563c3.22645,0 5.84201,1.68593 5.84201,3.76563z" fill="#1c9a1a" stroke-linecap="butt"/><path d="M335.06898,170.91739c0,7.32512 -5.61321,13.2633 -12.53745,13.2633c-6.92424,0 -12.53745,-5.93818 -12.53745,-13.2633c0,-2.7046 -0.34589,-6.88679 0.96801,-8.98416c0.91863,-1.46641 2.50093,-0.39691 4.3492,-0.98456c2.66794,-0.84825 5.89006,-2.98209 8.47024,-2.98209c2.40606,0 4.21391,1.74968 6.34427,2.70368c1.18281,0.52968 2.98385,-0.18028 3.80395,0.80153c1.95361,2.33882 1.13923,6.07906 1.13923,9.44559z" fill="#ffea2b" stroke-linecap="butt"/><path d="M322.86746,177.88799c0,0 -6.03954,1.92177 -7.14721,0.71872c-2.62478,-2.8508 2.25221,-3.3102 2.25221,-3.3102l10.65383,5.08696z" fill="#ffffff" stroke-linecap="round"/><path d="M328.29917,205.23382c0,3.26533 -2.32273,5.49008 -2.32273,5.49008c0,0 -7.81281,-2.22476 -7.81281,-5.49008c0,-3.26533 2.26892,-5.9124 5.06777,-5.9124c2.79885,0 5.06777,2.64707 5.06777,5.9124z" fill="#27c121" stroke-linecap="butt"/><path d="M303.01968,167.39422l-1.32945,-5.03601c0,0 11.71976,-2.09441 18.66933,-3.75117c3.26874,-0.77926 2.81135,-0.64943 2.81135,-0.64943l0.6223,2.85602c0,0 0.50941,0.09162 -1.18941,0.52264c-6.83595,1.73438 -19.58412,6.05796 -19.58412,6.05796z" fill="#ffea2b" stroke-linecap="butt"/><path d="M320.6005,167.30383l6.1875,6.75h-5.25" fill="none" stroke-linecap="round"/><path d="M335.3505,174.17883h-5.25l6.1875,-6.75" fill="none" stroke-linecap="round"/><path d="M345.03534,167.33173c0,0 -12.74817,-4.32358 -19.58412,-6.05796c-1.69882,-0.43102 -1.1894,-0.52264 -1.1894,-0.52264l0.6223,-2.85602c0,0 -0.45738,-0.12983 2.81135,0.64943c6.94957,1.65676 18.66933,3.75117 18.66933,3.75117l-1.32945,5.03601z" fill="#ffea2b" stroke-linecap="butt"/></g></g></svg>