<svg version="1.1" xmlns="http://www.w3.org/2000/svg" xmlns:xlink="http://www.w3.org/1999/xlink" width="96.2701" height="95.69243" viewBox="0,0,96.2701,95.69243"><defs><linearGradient x1="261.32733" y1="147.06501" x2="261.32733" y2="199.82992" gradientUnits="userSpaceOnUse" id="color-1"><stop offset="0" stop-color="#1dffce"></stop><stop offset="1" stop-color="#30beff"></stop></linearGradient><linearGradient x1="218.40086" y1="146.76908" x2="218.40086" y2="199.7861" gradientUnits="userSpaceOnUse" id="color-2"><stop offset="0" stop-color="#1dffce"></stop><stop offset="1" stop-color="#30beff"></stop></linearGradient></defs><g transform="translate(-191.81609,-131.23746)"><g data-paper-data="{&quot;isPaintingLayer&quot;:true}" fill-rule="nonzero" stroke-linejoin="miter" stroke-miterlimit="10" stroke-dasharray="" stroke-dashoffset="0" style="mix-blend-mode: normal"><path d="M192.3161,226.42989v-64.88824v-9.24098c0,0 2.20499,0 4.81102,0c11.2941,0 90.36138,0 90.36138,0v74.12922z" fill="#afafaf" stroke="#000000" stroke-width="1" stroke-linecap="butt"></path><path d="M192.4138,205.86668v-64.88824v-9.24098c0,0 2.20499,0 4.81102,0c11.2941,0 90.36138,0 90.36138,0v74.12922z" fill="#afafaf" stroke="#000000" stroke-width="1" stroke-linecap="butt"></path><path d="M283.54177,139.08309v60.82023h-86.62275v-60.82023z" data-paper-data="{&quot;index&quot;:null}" fill="#939393" stroke="#000000" stroke-width="1" stroke-linecap="butt"></path><text transform="translate(208.76083,219.47537) scale(0.2828,0.32033)" font-size="40" xml:space="preserve" fill="#000000" fill-rule="nonzero" stroke="none" stroke-width="1" stroke-linecap="butt" stroke-linejoin="miter" stroke-miterlimit="10" stroke-dasharray="" stroke-dashoffset="0" font-family="Sans Serif" font-weight="normal" text-anchor="start" style="mix-blend-mode: normal"><tspan x="0" dy="0">Snake eyes</tspan></text><path d="M253.7116,131.95689h33.838v33.838z" fill="#ff0000" stroke="#000000" stroke-width="1" stroke-linecap="butt"></path><g stroke="#000000" stroke-width="0.5"><path d="M248.41488,168.60485l-0.10302,-11.94299l9.35424,-0.10709l0.20605,12.05008z" fill="#0b8100" stroke-linecap="butt"></path><path d="M252.52239,161.28644c0,2.86205 -0.73256,5.18221 -1.63621,5.18221c-0.90365,0 -1.63621,-2.32015 -1.63621,-5.18221c0,-2.86205 0.73256,-5.18221 1.63621,-5.18221c0.90365,0 1.63621,2.32015 1.63621,5.18221z" fill="#000000" stroke-linecap="butt"></path><path d="M262.69935,167.63502l-5.97293,4.01508c0,0 -2.7258,14.4065 1.42142,17.86338c3.24872,2.70792 13.55804,8.2454 16.85399,5.59725c2.42973,-1.95218 1.31112,-5.64618 1.31112,-5.64618c0,0 10.09688,6.43512 3.1514,8.93655c-6.83963,2.4633 -30.72032,0.99348 -31.09353,0.99588c-0.69959,0.00449 -1.59197,-9.21309 -1.4081,-16.96942c0.13763,-5.80607 1.29926,-10.72318 1.29926,-10.72318l-3.80504,0.0244l-3.65766,-3.55012l2.57219,-1.76435l3.31065,1.64222l3.15333,-2.24394l3.77476,0.92231l2.9856,-3.57579l-0.15526,-0.55605l-3.1042,-5.12677l-3.3684,1.94987l-3.18803,-2.46405l-3.24111,2.81585l-2.78726,-2.83969l4.41039,-3.44259l1.76292,-0.02017c0,0 0.81027,-5.78889 3.78001,-5.89392c1.0186,-0.03603 2.70274,1.97072 3.97168,2.86864c1.2665,0.89619 2.11879,0.68356 2.11879,0.68356l1.81895,1.04262l4.25239,6.38082z" data-paper-data="{&quot;index&quot;:null}" fill="url(#color-1)" stroke-linecap="round"></path><path d="M251.21252,153.42713c0,1.93457 -0.66882,3.50286 -1.49386,3.50286c-0.82504,0 -1.49386,-1.56828 -1.49386,-3.50286c0,-1.93457 0.66882,-3.50286 1.49386,-3.50286c0.82504,0 1.49386,1.56828 1.49386,3.50286z" fill="#001515" stroke-linecap="butt"></path></g><g data-paper-data="{&quot;index&quot;:null}" stroke="#000000" stroke-width="0.5"><path d="M221.87255,168.41184l0.20704,-12.10766l9.39894,0.1076l-0.10351,12.00006z" fill="#0b8100" stroke-linecap="butt"></path><path d="M228.89189,155.85149c0.90797,0 1.64403,2.33124 1.64403,5.20697c0,2.87574 -0.73606,5.20697 -1.64403,5.20697c-0.90797,0 -1.64403,-2.33125 -1.64403,-5.20697c0,-2.87574 0.73606,-5.20697 1.64403,-5.20697z" fill="#000000" stroke-linecap="butt"></path><path d="M216.85415,158.31622l4.27271,-6.41131l1.82765,-1.0476c0,0 0.85636,0.21365 2.12892,-0.68683c1.275,-0.90222 2.96718,-2.91855 3.99065,-2.88235c2.98394,0.10553 3.79807,5.92208 3.79807,5.92208l1.77134,0.02026l4.43147,3.45904l-2.80058,2.85325l-3.2566,-2.82931l-3.20326,2.47582l-3.38449,-1.95919l-3.11904,5.15126l-0.156,0.55871l2.99986,3.59288l3.7928,-0.92672l3.1684,2.25466l3.32647,-1.65007l2.58448,1.77278l-3.67513,3.56708l-3.82322,-0.02452c0,0 1.16718,4.94061 1.30547,10.77442c0.18475,7.79339 -0.7119,17.05501 -1.41483,17.0505c-0.375,-0.00241 -24.36979,1.47444 -31.2421,-1.00064c-6.97867,-2.51338 3.16646,-8.97925 3.16646,-8.97925c0,0 -1.12395,3.71165 1.31738,5.67316c3.3117,2.6608 13.67028,-2.90313 16.93452,-5.62399c4.16703,-3.47339 1.42821,-17.94873 1.42821,-17.94873l-6.00147,-4.03427z" data-paper-data="{&quot;index&quot;:null}" fill="url(#color-2)" stroke-linecap="round"></path><path d="M230.065,149.642c0.82898,0 1.501,1.57578 1.501,3.51959c0,1.94382 -0.67202,3.51959 -1.501,3.51959c-0.82898,0 -1.501,-1.57578 -1.501,-3.51959c0,-1.94382 0.67202,-3.51959 1.501,-3.51959z" fill="#001515" stroke-linecap="butt"></path></g></g></g></svg>