<svg version="1.1" xmlns="http://www.w3.org/2000/svg" xmlns:xlink="http://www.w3.org/1999/xlink" width="90.07347" height="64.7317" viewBox="0,0,90.07347,64.7317"><defs><linearGradient x1="211.16764" y1="171.12728" x2="211.16764" y2="182.42554" gradientUnits="userSpaceOnUse" id="color-1"><stop offset="0" stop-color="#f100ff"></stop><stop offset="1" stop-color="#f100ff" stop-opacity="0"></stop></linearGradient><radialGradient cx="215.27838" cy="180.76691" r="5.64913" gradientUnits="userSpaceOnUse" id="color-2"><stop offset="0" stop-color="#66c3ff"></stop><stop offset="1" stop-color="#66c3ff" stop-opacity="0"></stop></radialGradient><radialGradient cx="204.6221" cy="163.43965" r="10.77058" gradientUnits="userSpaceOnUse" id="color-3"><stop offset="0" stop-color="#66c3ff"></stop><stop offset="1" stop-color="#66c3ff" stop-opacity="0"></stop></radialGradient><radialGradient cx="208.58922" cy="172.16339" r="5.64913" gradientUnits="userSpaceOnUse" id="color-4"><stop offset="0" stop-color="#ff667d"></stop><stop offset="1" stop-color="#ff667d" stop-opacity="0"></stop></radialGradient><radialGradient cx="220.20723" cy="162.35777" r="10.77058" gradientUnits="userSpaceOnUse" id="color-5"><stop offset="0" stop-color="#ff667d"></stop><stop offset="1" stop-color="#ff667d" stop-opacity="0"></stop></radialGradient><radialGradient cx="215.94158" cy="172.75097" r="5.64913" gradientUnits="userSpaceOnUse" id="color-6"><stop offset="0" stop-color="#d890ff"></stop><stop offset="1" stop-color="#d890ff" stop-opacity="0"></stop></radialGradient><radialGradient cx="211.44065" cy="170.93352" r="10.77058" gradientUnits="userSpaceOnUse" id="color-7"><stop offset="0" stop-color="#d890ff"></stop><stop offset="1" stop-color="#d890ff" stop-opacity="0"></stop></radialGradient><radialGradient cx="215.94158" cy="172.75097" r="5.64913" gradientUnits="userSpaceOnUse" id="color-8"><stop offset="0" stop-color="#d890ff" stop-opacity="0"></stop><stop offset="1" stop-color="#d890ff" stop-opacity="0"></stop></radialGradient><radialGradient cx="211.44065" cy="170.93352" r="10.77058" gradientUnits="userSpaceOnUse" id="color-9"><stop offset="0" stop-color="#d890ff" stop-opacity="0"></stop><stop offset="1" stop-color="#d890ff" stop-opacity="0"></stop></radialGradient></defs><g transform="translate(-194.96326,-147.63415)"><g data-paper-data="{&quot;isPaintingLayer&quot;:true}" fill-rule="nonzero" stroke-linejoin="miter" stroke-miterlimit="10" stroke-dasharray="" stroke-dashoffset="0" style="mix-blend-mode: normal"><path d="M195.46327,211.86585v-63.7317h89.07347v63.7317z" fill="#00fed9" stroke="#000000" stroke-width="1" stroke-linecap="butt"></path><g><text transform="translate(227.89471,174.09335) scale(0.28632,0.28632)" font-size="40" xml:space="preserve" fill="#000000" fill-rule="nonzero" stroke="none" stroke-width="1" stroke-linecap="butt" stroke-linejoin="miter" stroke-miterlimit="10" stroke-dasharray="" stroke-dashoffset="0" font-family="Sans Serif" font-weight="normal" text-anchor="start" style="mix-blend-mode: normal"><tspan x="0" dy="0">+10</tspan></text><path d="M198.21734,188.08906v-36.41688h27.00563v36.41688z" fill="#515151" stroke="none" stroke-width="0" stroke-linecap="butt"></path><g stroke="#000000"><g stroke-width="0" stroke-linecap="butt"><path d="M205.78655,182.42554v-15.6701h10.93392v15.6701z" data-paper-data="{&quot;index&quot;:null}" fill="#00ffc5"></path><path d="M203.00337,171.45647c0,0 -5.92695,-6.37736 0.00663,-9.75267c5.93358,-3.37531 13.96547,-1.73311 17.07508,0.03578c1.32362,0.75294 1.99985,2.61826 1.78931,4.52079c-0.2841,2.56712 -1.78931,5.1961 -1.78931,5.1961z" data-paper-data="{&quot;index&quot;:null}" fill="#00ffc5"></path><path d="M205.78655,182.42554v-15.6701h10.93392v15.6701z" data-paper-data="{&quot;index&quot;:null}" fill="none"></path><path d="M203.00337,171.45647c0,0 -5.92695,-6.37736 0.00663,-9.75267c5.93358,-3.37531 13.96547,-1.73311 17.07508,0.03578c1.32362,0.75294 1.99985,2.61826 1.78931,4.52079c-0.2841,2.56712 -1.78931,5.1961 -1.78931,5.1961z" data-paper-data="{&quot;index&quot;:null}" fill="none"></path></g><g stroke-width="0" stroke-linecap="butt"><path d="M205.70068,182.42554v-11.29826h10.93392v11.29826z" data-paper-data="{&quot;index&quot;:null}" fill="url(#color-1)"></path><path d="M203.00337,171.45647c0,0 -5.92695,-6.37736 0.00663,-9.75267c5.93358,-3.37531 13.96548,-1.73311 17.07509,0.03578c1.32362,0.75294 1.99985,2.61826 1.7893,4.52079c-0.2841,2.56712 -1.7893,5.1961 -1.7893,5.1961z" data-paper-data="{&quot;index&quot;:null}" fill="#e210fb"></path></g><g stroke-width="0" stroke-linecap="butt"><path d="M205.70068,182.42554v-11.29826h10.93392v11.29826z" data-paper-data="{&quot;index&quot;:null}" fill="url(#color-2)"></path><path d="M203.00337,171.45647c0,0 -5.92695,-6.37736 0.00663,-9.75267c5.93358,-3.37531 13.96548,-1.73311 17.07509,0.03578c1.32362,0.75294 1.99985,2.61826 1.7893,4.52079c-0.2841,2.56712 -1.7893,5.1961 -1.7893,5.1961z" data-paper-data="{&quot;index&quot;:null}" fill="url(#color-3)"></path></g><g stroke-width="0" stroke-linecap="butt"><path d="M205.70068,182.42554v-11.29826h10.93392v11.29826z" data-paper-data="{&quot;index&quot;:null}" fill="url(#color-4)"></path><path d="M203.00337,171.45647c0,0 -5.92695,-6.37736 0.00663,-9.75267c5.93358,-3.37531 13.96548,-1.73311 17.07508,0.03578c1.32362,0.75294 1.99985,2.61826 1.78931,4.52079c-0.2841,2.56712 -1.78931,5.1961 -1.78931,5.1961z" data-paper-data="{&quot;index&quot;:null}" fill="url(#color-5)"></path></g><g stroke-width="0" stroke-linecap="butt"><path d="M205.70068,182.42554v-11.15513l10.93392,0.10735v11.04778z" data-paper-data="{&quot;index&quot;:null}" fill="url(#color-6)"></path><path d="M203.00337,171.45647c0,0 -5.92695,-6.37736 0.00663,-9.75267c5.93358,-3.37531 13.96548,-1.73311 17.07509,0.03578c1.32362,0.75294 1.99985,2.61826 1.78931,4.52079c-0.2841,2.56712 -1.78931,5.1961 -1.78931,5.1961z" data-paper-data="{&quot;index&quot;:null}" fill="url(#color-7)"></path></g><path d="M206.84489,163.82963l5.43833,4.42197l-5.69201,0.24071z" data-paper-data="{&quot;index&quot;:null}" fill="#ffffff" stroke-width="1.28786" stroke-linecap="round"></path><path d="M219.76939,168.35626l-5.6284,-0.06496l4.9652,-3.98584z" data-paper-data="{&quot;index&quot;:null}" fill="#ffffff" stroke-width="1.28786" stroke-linecap="round"></path><path d="M207.72739,173.26035c0,0 0.90095,-0.66968 1.71911,-0.39674c2.47872,0.82692 3.2398,2.49681 3.2398,2.49681" fill="none" stroke-width="1.28786" stroke-linecap="round"></path><g stroke-width="1.28786" stroke-linecap="butt"><path d="M205.70068,182.42554l0.03067,-10.93432l10.90325,0.0092v10.92511z" data-paper-data="{&quot;index&quot;:null}" fill="url(#color-8)"></path><path d="M203.00337,171.45647c0,0 -5.92695,-6.37736 0.00663,-9.75267c5.93358,-3.37531 13.96547,-1.73311 17.07508,0.03578c1.32362,0.75294 1.99985,2.61826 1.78931,4.52079c-0.2841,2.56712 -1.78931,5.1961 -1.78931,5.1961z" data-paper-data="{&quot;index&quot;:null}" fill="url(#color-9)"></path></g></g><path d="M198.21736,188.08049v-5.50197h27.00563v5.50197z" fill="#969696" stroke="none" stroke-width="0" stroke-linecap="butt"></path><path d="M198.19587,188.06761v-36.41688h3.7121v36.41688z" fill="#969696" stroke="none" stroke-width="0" stroke-linecap="butt"></path><path d="M222.04653,188.08827v-36.41688h3.49742v36.41688z" fill="#969696" stroke="none" stroke-width="0" stroke-linecap="butt"></path><path d="M198.21736,156.10073v-4.42854h27.00563v4.42854z" fill="#969696" stroke="none" stroke-width="0" stroke-linecap="butt"></path><path d="M201.54286,183.39749v-9.01766l9.07496,9.01766z" fill="#969696" stroke="none" stroke-width="0" stroke-linecap="butt"></path><path d="M204.59762,185.00488v-5.22051h18.91729v5.22051z" fill="#969696" stroke="none" stroke-width="0" stroke-linecap="butt"></path><text transform="translate(211.27374,187.14891) scale(0.2023,0.21468)" font-size="40" xml:space="preserve" fill="#000000" fill-rule="nonzero" stroke="none" stroke-width="1" stroke-linecap="butt" stroke-linejoin="miter" stroke-miterlimit="10" stroke-dasharray="" stroke-dashoffset="0" font-family="Sans Serif" font-weight="normal" text-anchor="start" style="mix-blend-mode: normal"><tspan x="0" dy="0">275</tspan></text><g stroke-linecap="butt"><path d="M204.82269,184.34771l-1.13945,2.9412l-1.02462,-2.9412z" data-paper-data="{&quot;index&quot;:null}" fill="#ffff00" stroke="#ffff00" stroke-width="1"></path><path d="M202.68946,179.46322l1.02463,-2.9412l1.13945,2.9412z" fill="#ffff00" stroke="#ffff00" stroke-width="1"></path><path d="M200.89322,181.99618c0,-1.59777 1.29524,-2.893 2.89301,-2.893c1.59777,0 2.89299,1.29523 2.89299,2.893c0,1.59777 -1.29523,2.893 -2.89299,2.893c-1.59777,0 -2.89301,-1.29524 -2.89301,-2.893z" fill="#ffff00" stroke="none" stroke-width="0"></path><path d="M206.22948,180.90767l2.95029,1.11572l-2.93285,1.04828z" data-paper-data="{&quot;index&quot;:null}" fill="#ffff00" stroke="#ffff00" stroke-width="1"></path><path d="M201.36234,183.08019l-2.94937,-1.00089l2.93193,-1.16311z" fill="#ffff00" stroke="#ffff00" stroke-width="1"></path><path d="M206.36498,182.90276l1.30734,2.87052l-2.81976,-1.32269z" data-paper-data="{&quot;index&quot;:null}" fill="#ffff00" stroke="#ffff00" stroke-width="1"></path><path d="M201.38052,181.01488l-1.38759,-2.78839l2.9,1.24055z" fill="#ffff00" stroke="#ffff00" stroke-width="1"></path><path d="M204.88769,179.4924l2.8599,-1.33042l-1.29993,2.83032z" data-paper-data="{&quot;index&quot;:null}" fill="#ffff00" stroke="#ffff00" stroke-width="1"></path><path d="M203.04003,184.49191l-2.77713,1.41001l1.21716,-2.9099z" fill="#ffff00" stroke="#ffff00" stroke-width="1"></path><path d="M201.75894,182.08229c0,-1.16232 0.94225,-2.10458 2.10458,-2.10458c1.16232,0 2.10458,0.94225 2.10458,2.10458c0,1.16232 -0.94225,2.10458 -2.10458,2.10458c-1.16232,0 -2.10458,-0.94225 -2.10458,-2.10458z" fill="#fffff7" stroke="none" stroke-width="0"></path></g><path d="M225.61127,151.58989v14.44678l-14.5386,-14.44678z" fill="#ff0000" stroke="none" stroke-width="0" stroke-linecap="butt"></path></g><text transform="translate(224.51286,202.72222) scale(0.28563,0.28563)" font-size="40" xml:space="preserve" data-paper-data="{&quot;index&quot;:null}" fill="#000000" fill-rule="nonzero" stroke="none" stroke-width="1" stroke-linecap="butt" stroke-linejoin="miter" stroke-miterlimit="10" stroke-dasharray="" stroke-dashoffset="0" font-family="Sans Serif" font-weight="normal" text-anchor="start" style="mix-blend-mode: normal"><tspan x="0" dy="0">+210 coins</tspan></text></g></g></svg>