<svg version="1.1" xmlns="http://www.w3.org/2000/svg" xmlns:xlink="http://www.w3.org/1999/xlink" width="61.68362" height="69.72259" viewBox="0,0,61.68362,69.72259"><g transform="translate(-209.15819,-145.13871)"><g data-paper-data="{&quot;isPaintingLayer&quot;:true}" fill-rule="nonzero" stroke="#000000" stroke-width="1.28786" stroke-linejoin="miter" stroke-miterlimit="10" stroke-dasharray="" stroke-dashoffset="0" style="mix-blend-mode: normal"><g><path d="M240.93274,187.9711c0,1.92882 -2.01752,6.57088 -5.64533,7.63954c-4.86866,1.43419 -11.71795,-1.03863 -11.71795,-1.03863c0,0 4.16144,-1.22257 4.16144,-5.73993c0,-4.51735 0.72783,-9.04038 5.16594,-9.04038c4.43811,0 8.0359,3.66205 8.0359,8.1794z" fill="#00de46" stroke-linecap="butt"></path><path d="M243.94621,184.38364c4.43811,0 5.16594,4.52303 5.16594,9.04038c0,4.51735 4.16144,5.73992 4.16144,5.73992c0,0 -6.84929,2.47282 -11.71794,1.03863c-3.6278,-1.06867 -5.64533,-5.71073 -5.64533,-7.63954c0,-4.51735 3.5978,-8.1794 8.0359,-8.1794z" data-paper-data="{&quot;index&quot;:null}" fill="#00de46" stroke-linecap="butt"></path><path d="M236.66291,210.12463v-24.64439h6.98069v24.64439z" fill="#00ff50" stroke-linecap="butt"></path><path d="M230.62385,214.21736c-4.85382,0 -8.78862,-2.05721 -8.78862,-4.59492c0,-2.53771 3.9348,-4.59492 8.78862,-4.59492c4.85382,0 8.78862,2.05721 8.78862,4.59492c0,2.53771 -3.9348,4.59492 -8.78862,4.59492z" fill="#00ff50" stroke-linecap="butt"></path><path d="M259.66396,209.22698c0,2.61744 -4.29456,4.73931 -9.59215,4.73931c-5.29759,0 -9.59215,-2.12187 -9.59215,-4.73931c0,-2.61744 4.29456,-4.7393 9.59215,-4.7393c5.29759,0 9.59215,2.12186 9.59215,4.7393z" fill="#00ff50" stroke-linecap="butt"></path><path d="M259.444,173.90828c4.43811,0 5.16593,4.52303 5.16593,9.04038c0,4.51735 4.16145,5.73993 4.16145,5.73993c0,0 -6.84929,2.47282 -11.71795,1.03863c-3.6278,-1.06867 -5.64533,-5.71073 -5.64533,-7.63955c0,-4.51735 3.59779,-8.17939 8.0359,-8.17939z" data-paper-data="{&quot;index&quot;:null}" fill="#00de46" stroke-linecap="butt"></path><path d="M253.70407,180.3657c4.43811,0 5.16594,4.52303 5.16594,9.04038c0,4.51735 4.16144,5.73992 4.16144,5.73992c0,0 -6.84929,2.47282 -11.71795,1.03863c-3.6278,-1.06867 -5.64533,-5.71073 -5.64533,-7.63954c0,-4.51735 3.59779,-8.1794 8.0359,-8.1794z" data-paper-data="{&quot;index&quot;:null}" fill="#00de46" stroke-linecap="butt"></path><path d="M228.59189,178.21322c0,1.92882 -2.01752,6.57088 -5.64533,7.63954c-4.86866,1.43419 -11.71795,-1.03863 -11.71795,-1.03863c0,0 4.16145,-1.22257 4.16145,-5.73993c0,-4.51735 0.72782,-9.04039 5.16593,-9.04039c4.43811,0 8.0359,3.66205 8.0359,8.1794z" fill="#00de46" stroke-linecap="butt"></path><path d="M234.33182,184.67063c0,1.92882 -2.01752,6.57089 -5.64533,7.63954c-4.86866,1.43419 -11.71796,-1.03863 -11.71796,-1.03863c0,0 4.16145,-1.22257 4.16145,-5.73993c0,-4.51735 0.72783,-9.04038 5.16594,-9.04038c4.43811,0 8.0359,3.66205 8.0359,8.1794z" fill="#00de46" stroke-linecap="butt"></path><path d="M260.04669,168.87149c0,11.26169 -8.3199,20.39109 -18.58301,20.39109c-10.26312,0 -18.58301,-9.1294 -18.58301,-20.39109c0,-11.26169 8.3199,-20.39109 18.58301,-20.39109c10.26312,0 18.58301,9.1294 18.58301,20.39109z" fill="#00ff50" stroke-linecap="butt"></path><path d="M240.64574,166.23112c0,5.3495 -1.70254,9.68612 -3.80271,9.68612c-2.10017,0 -3.80271,-4.33662 -3.80271,-9.68612c0,-5.3495 1.70254,-9.68613 3.80271,-9.68613c2.10017,0 3.80271,4.33663 3.80271,9.68613z" fill="#000000" stroke-linecap="butt"></path><path d="M250.69061,166.94861c0,5.3495 -1.70254,9.68611 -3.80271,9.68611c-2.10017,0 -3.80271,-4.33662 -3.80271,-9.68611c0,-5.3495 1.70254,-9.68613 3.80271,-9.68613c2.10017,0 3.80271,4.33663 3.80271,9.68613z" fill="#000000" stroke-linecap="butt"></path><path d="M227.8744,183.52265v-4.73545c0,0 6.15033,7.95382 13.20183,7.03141c9.81266,-0.14229 13.05834,-7.03141 13.05834,-7.03141v4.73545c0,0 -2.99461,6.83343 -13.05834,6.02692c-9.9249,-0.79538 -13.20183,-6.02692 -13.20183,-6.02692z" fill="#00377a" stroke-linecap="butt"></path><path d="M255.71305,157.76473c0,2.62367 1.15148,2.28225 -0.09583,3.30314c-3.89556,3.18842 -14.85859,2.07804 -23.65311,2.07804c-3.34869,0 -3.29747,19.78442 -3.29747,19.78442c0,0 -4.24505,0.46994 -7.42594,-3.48649c-2.61166,-3.24841 -4.27214,-10.60306 -4.27214,-14.0737c0,-10.81788 9.41209,-19.5875 21.02248,-19.5875c11.61039,0 17.72202,1.16422 17.72202,11.9821z" fill="#004dae" stroke-linecap="butt"></path><path d="M266.8772,172.84639c0,8.32145 -4.45226,15.0673 -9.94442,15.0673c-5.49216,0 -9.94443,-6.74586 -9.94443,-15.0673c0,-8.32145 4.45227,-15.06731 9.94443,-15.06731c5.49216,0 9.94442,6.74586 9.94442,15.06731z" fill="#00ff50" stroke-linecap="butt"></path><path d="M261.85477,173.29123c0,5.49216 -1.75393,9.94442 -3.9175,9.94442c-2.16358,0 -3.9175,-4.45226 -3.9175,-9.94442c0,-5.49216 1.75393,-9.94442 3.9175,-9.94442c2.16358,0 3.9175,4.45226 3.9175,9.94442z" fill="#000000" stroke-linecap="butt"></path><path d="M249.68614,150.08758l-8.7534,5.73992l-10.61886,-4.01795" fill="none" stroke-linecap="round"></path><path d="M250.97761,155.2535l-9.32738,4.73544l-9.32739,-3.30045" fill="none" stroke-linecap="round"></path></g></g></g></svg>