<svg version="1.1" xmlns="http://www.w3.org/2000/svg" xmlns:xlink="http://www.w3.org/1999/xlink" width="96.1724" height="97.26079" viewBox="0,0,96.1724,97.26079"><defs><linearGradient x1="279.7283" y1="166.50268" x2="279.7283" y2="197.91746" gradientUnits="userSpaceOnUse" id="color-1"><stop offset="0" stop-color="#1dffce"/><stop offset="1" stop-color="#30beff"/></linearGradient></defs><g transform="translate(-271.9138,-131.23755)"><g stroke-miterlimit="10"><path d="M272.4138,226.60092v-74.12922c0,0 79.06728,0 90.36138,0c2.60603,0 4.81102,0 4.81102,0v9.24098v64.88824z" fill="#afafaf" stroke="#000000" stroke-width="1" stroke-linecap="butt"/><path d="M272.4138,205.86677v-74.12922c0,0 79.06728,0 90.36138,0c2.60603,0 4.81102,0 4.81102,0v9.24098v64.88824z" fill="#afafaf" stroke="#000000" stroke-width="1" stroke-linecap="butt"/><text transform="translate(304.86518,222.60709) scale(0.4713,0.4713)" font-size="40" xml:space="preserve" fill="#000000" stroke="none" stroke-width="1" stroke-linecap="butt" font-family="Sans Serif" font-weight="normal" text-anchor="start"><tspan x="0" dy="0">2-8</tspan></text><path d="M276.45823,199.90347v-60.82023h86.62275v60.82023z" fill="#2e2e2e" stroke="#000000" stroke-width="1" stroke-linecap="butt"/><g><path d="M297.02872,178.94938v-34.45687h6.9812v34.45687z" fill="#0b8100" stroke="#000000" stroke-width="0.5" stroke-linecap="butt"/><path d="M296.95479,178.99495v-19.95851h7.04513v19.95851z" fill="#740000" stroke="#000000" stroke-width="0.5" stroke-linecap="butt"/><path d="M300.76744,159.03644h3.23248v9.15904z" fill="#ffffff" stroke="#000000" stroke-width="0.5" stroke-linecap="butt"/><path d="M301.92672,158.9546h2.12282v6.01489z" fill="#ff0000" stroke="#000000" stroke-width="0.5" stroke-linecap="butt"/><path d="M303.4783,150.75546c0,0 -1.32872,1.23655 -1.66079,1.04856c-2.22048,-1.25703 -0.36174,-1.50922 -0.36174,-1.50922" fill="none" stroke="#000000" stroke-width="0.5" stroke-linecap="round"/><text transform="translate(311.54154,148.07021) rotate(-180) scale(0.10889,-0.10889)" font-size="40" xml:space="preserve" fill="#000000" stroke="none" stroke-width="1" stroke-linecap="butt" font-family="Sans Serif" font-weight="normal" text-anchor="start"><tspan x="0" dy="0">Zzz</tspan></text></g><g stroke="#000000" stroke-width="0.5"><path d="M311.28975,198.13627v-35.38762h7.16978v35.38762z" fill="#ff0000" stroke-linecap="butt"/><path d="M316.34503,164.75875c2.29381,0 2.17178,2.69823 2.17178,5.34478c0,2.64655 0.12203,4.23922 -2.17178,4.23922c-2.29381,0 -4.1533,-2.14545 -4.1533,-4.792c0,-2.64656 1.8595,-4.792 4.1533,-4.792z" fill="#0b8100" stroke-linecap="butt"/><path d="M315.34552,169.35246c0,-2.1698 0.72766,-2.87344 1.41274,-2.87344c0.68509,0 1.06815,0.70364 1.06815,2.87344c0,2.1698 -0.55538,3.92876 -1.24046,3.92876c-0.68509,0 -1.24044,-1.75896 -1.24044,-3.92876z" fill="#000000" stroke-linecap="butt"/><path d="M318.24399,167.59745l-3.30971,-3.53208" fill="none" stroke-linecap="round"/><path d="M313.95787,185.90055c0,-2.24808 1.64573,-4.07051 3.67586,-4.07051c1.06186,0 0.71874,4.43866 0.71874,4.43866c0,0 0.24951,3.70235 -0.71874,3.70235c-2.03012,0 -3.67586,-1.82242 -3.67586,-4.0705z" fill="#ffffff" stroke-linecap="butt"/><path d="M308.01847,165.36643l1.46934,2.62579l1.01371,-1.51778l1.60684,4.82294l-1.86027,-3.36177l-0.94092,2.03809z" fill="#e6ff00" stroke-linecap="round"/><path d="M318.49217,185.45232l-1.86026,3.36177l1.60684,-4.82294z" fill="#e6ff00" stroke-linecap="round"/></g><g stroke="#000000" stroke-width="0.5"><path d="M281.78542,179.3269l0.12268,-7.17429l5.56926,0.06376l-0.06134,7.11053z" fill="#0b8100" stroke-linecap="butt"/><path d="M285.94468,171.88437c0.53801,0 0.97416,1.38136 0.97416,3.08535c0,1.704 -0.43615,3.08535 -0.97416,3.08535c-0.53801,0 -0.97416,-1.38136 -0.97416,-3.08535c0,-1.704 0.43615,-3.08535 0.97416,-3.08535z" fill="#000000" stroke-linecap="butt"/><path d="M278.8118,173.34485l2.53176,-3.79897l1.08295,-0.62075c0,0 0.50743,0.1266 1.26147,-0.40697c0.75549,-0.5346 1.75818,-1.72936 2.36463,-1.70791c1.7681,0.06253 2.25052,3.50908 2.25052,3.50908l1.04959,0.012l2.62583,2.04962l-1.65945,1.69067l-1.92967,-1.67648l-1.89806,1.46703l-2.00545,-1.1609l-1.84816,3.05234l-0.09244,0.33106l1.77754,2.12893l2.24739,-0.54912l1.8774,1.33598l1.97108,-0.97773l1.53141,1.05044l-2.17767,2.11364l-2.26542,-0.01453c0,0 0.69161,2.92752 0.77355,6.38429c0.10947,4.6179 -0.42183,10.1058 -0.83835,10.10313c-0.14238,-0.00091 -11.17871,0.23024 -11.17871,0.23024l-0.07543,-3.0838c0,0 4.398,-2.16795 5.43317,-3.0308c2.46915,-2.05813 0.84628,-10.63537 0.84628,-10.63537l-3.55612,-2.39047z" fill="url(#color-1)" stroke-linecap="round"/><path d="M286.63979,168.20501c0.49121,0 0.88941,0.93371 0.88941,2.0855c0,1.15179 -0.3982,2.0855 -0.88941,2.0855c-0.49121,0 -0.88941,-0.93371 -0.88941,-2.0855c0,-1.15179 0.3982,-2.0855 0.88941,-2.0855z" fill="#001515" stroke-linecap="butt"/></g><path d="M276.69378,199.97841v-60.82023h86.62275v60.82023z" fill="none" stroke="#000000" stroke-width="1" stroke-linecap="butt"/><g stroke="#000000" stroke-width="0.5"><path d="M324.78254,180.73225v-31.64688h6.41187v31.64688z" fill="#0b8100" stroke-linecap="butt"/><path d="M324.71463,180.77411v-18.33088h6.4706v18.33088z" fill="#740000" stroke-linecap="butt"/><path d="M328.21636,162.44322h2.96887v8.41212z" fill="#ffffff" stroke-linecap="butt"/><path d="M329.28109,162.36807h1.94971v5.52438z" fill="#ff0000" stroke-linecap="butt"/><path d="M328.40957,154.99111c0,-1.94044 0.49666,-3.51346 1.10932,-3.51346c0.43587,0 0.81303,0.79617 0.9944,1.95438c0.07357,0.46979 0.11493,0.99914 0.11493,1.55908c0,1.94044 -0.49666,3.51346 -1.10932,3.51346c-0.61266,0 -1.10932,-1.57303 -1.10932,-3.51346z" fill="#000000" stroke-linecap="butt"/><path d="M324.20183,152.80627l-1.30187,-9.81024l7.43739,-0.98698l1.30187,9.81025z" fill="#ababab" stroke-linecap="butt"/><path d="M330.9951,151.76758c0,0 0.4443,2.70502 -2.14268,3.0211c-4.01962,0.49112 -4.54464,-1.94788 -4.54464,-1.94788" fill="none" stroke-linecap="round"/></g><g stroke="#000000" stroke-width="0.5" stroke-linecap="butt"><path d="M336.44828,198.10329v-30.91785l6.60009,0.15791v30.75994z" fill="#0b8100"/><path d="M336.37839,198.14637v-18.86898h6.66054v18.86898z" fill="#740000"/><path d="M339.98291,179.2774h3.05602v8.65905z" fill="#ffffff"/><path d="M341.0789,179.20004h2.00693v5.68654z" fill="#ff0000"/><path d="M341.32368,167.98994c0.63065,0 1.14189,1.6192 1.14189,3.61659c0,1.99739 -0.51125,3.61659 -1.14189,3.61659c-0.63066,0 -1.14189,-1.6192 -1.14189,-3.61659c0,-1.99739 0.51125,-3.61659 1.14189,-3.61659z" fill="#000000"/><path d="M335.87805,169.98935v-3.10246h7.86316v3.10246z" fill="#ff6e00"/><path d="M336.39121,166.78427l1.97383,-6.497h2.88919l1.89487,6.497z" fill="#ff6e00"/></g><g stroke="#000000" stroke-width="0.5" stroke-linecap="butt"><path d="M351.02214,178.85251v-34.91026h7.07306v34.91026z" fill="#0b8100"/><path d="M350.94723,178.89868v-20.22113h7.13784v20.22113z" fill="#740000"/><path d="M354.81005,158.67755h3.27502v9.27956z" fill="#ffffff"/><path d="M355.98458,158.59465h2.15076v6.09404z" fill="#ff0000"/><path d="M356.24691,146.58121c0.67583,0 1.22371,1.73524 1.22371,3.87576c0,2.14053 -0.54787,3.87576 -1.22371,3.87576c-0.67583,0 -1.22371,-1.73524 -1.22371,-3.87576c0,-2.14053 0.54787,-3.87576 1.22371,-3.87576z" fill="#000000"/></g><path d="M333.7116,131.95688h33.838v33.838z" fill="#ff0000" stroke="#000000" stroke-width="1" stroke-linecap="butt"/></g></g></svg>