<svg version="1.1" xmlns="http://www.w3.org/2000/svg" xmlns:xlink="http://www.w3.org/1999/xlink" width="64.38035" height="77.32156" viewBox="0,0,64.38035,77.32156"><g transform="translate(-209.67465,-156.21152)"><g data-paper-data="{&quot;isPaintingLayer&quot;:true}" fill-rule="nonzero" stroke-linejoin="miter" stroke-miterlimit="10" stroke-dasharray="" stroke-dashoffset="0" style="mix-blend-mode: normal"><path d="" data-paper-data="{&quot;index&quot;:null}" fill="none" stroke="#000000" stroke-width="1.28786" stroke-linecap="butt"></path><path d="" data-paper-data="{&quot;index&quot;:null}" fill="#00a735" stroke="#000000" stroke-width="1.28786" stroke-linecap="butt"></path><path d="" data-paper-data="{&quot;index&quot;:null}" fill="#ccf280" stroke="#000000" stroke-width="1.28786" stroke-linecap="butt"></path><path d="" data-paper-data="{&quot;index&quot;:null}" fill="#000000" stroke="#000000" stroke-width="1.28786" stroke-linecap="butt"></path><path d="" data-paper-data="{&quot;index&quot;:null}" fill="#000000" stroke="#000000" stroke-width="1.28786" stroke-linecap="butt"></path><path d="" data-paper-data="{&quot;index&quot;:null}" fill="#000000" stroke="#000000" stroke-width="1.28786" stroke-linecap="round"></path><g><path d="M258.99016,191.19415c0,0.74669 4.63279,6.11894 4.63279,6.11894c0,0 -5.26343,-3.14542 -6.54454,-2.68738c-2.62098,0.93706 -2.43795,5.92822 -3.51982,6.55009c-2.73596,1.57266 -6.70758,-1.44821 -6.70758,-1.44821c0,0 -3.54584,3.9002 -5.52644,3.9002c-3.18546,0 -5.2434,-5.33942 -5.2434,-5.33942c0,0 -5.30258,2.1111 -6.96916,0.59163c-0.60792,-0.55426 -2.00295,-1.81068 -3.44955,-2.04868c-4.22916,-0.69579 -10.39213,0.59438 -10.39213,0.59438l5.16098,-4.54305c0,0 -1.36719,0.0251 -2.27551,0.32645c-1.52014,0.50431 -5.99738,2.41813 -5.99738,2.41813c0,0 2.92781,-3.20181 4.66449,-4.47823c1.53376,-1.12728 5.22269,-2.7886 5.22269,-2.7886c0,0 -1.60581,-0.09079 -2.84295,0.28108c-1.66011,0.49901 -6.22738,2.44533 -6.22738,2.44533c0,0 2.16267,-3.15925 6.92863,-5.2482c0.49168,-0.21551 -0.35853,-0.95737 -1.71459,-0.95944c-1.05305,-0.00161 -2.64673,0.71776 -2.64673,0.71776c0,0 3.59464,-3.20765 9.29942,-4.6465c6.74087,-1.70018 10.16281,-3.75258 10.70563,-3.75258c1.49175,0 6.82243,-1.28126 11.55558,0.0243c4.11187,1.13418 7.60294,4.80297 9.85719,5.68168c2.10384,0.82007 3.8295,2.7928 3.8295,2.7928c0,0 -1.73781,-0.25939 -2.56616,-0.17529c-1.10914,0.11261 -4.1881,-0.29731 -4.1881,-0.29731c0,0 7.33156,3.35973 7.95319,3.84171c1.80105,1.39646 2.82318,3.24459 2.82318,3.24459c0,0 -5.82181,-2.09501 -5.82181,-1.11618z" data-paper-data="{&quot;index&quot;:null}" fill="#acff26" stroke="#000000" stroke-width="1.28786" stroke-linecap="butt"></path><path d="M257.56565,182.22594c-1.24833,3.09314 -4.60335,2.47413 -8.02424,1.09353c-3.42089,-1.38061 -5.61223,-3 -4.3639,-6.09314c1.24833,-3.09314 5.03349,-4.48143 8.45438,-3.10083c3.4209,1.38061 5.1821,5.0073 3.93377,8.10044z" data-paper-data="{&quot;index&quot;:null}" fill="#4e3605" stroke="#000000" stroke-width="1.28786" stroke-linecap="butt"></path><path d="M240.65873,175.3549c0.74117,0 -0.12772,-3.1249 1.22478,-4.30901c1.75735,-1.53854 5.69918,-1.23016 5.69918,-1.23016c0,0 -3.56089,1.99467 -3.56089,3.36307c0,0.50926 -0.51633,4.03148 -1.36617,4.82819c-1.89743,1.7788 -5.06322,1.00772 -5.06322,1.00772c0,0 -1.58262,-3.07682 -1.58262,-4.64894c0,-1.48976 1.58262,-4.55003 1.58262,-4.55003c0,0 1.4445,5.53917 3.06633,5.53917z" data-paper-data="{&quot;index&quot;:null}" fill="#acff26" stroke="#000000" stroke-width="1.28786" stroke-linecap="butt"></path><path d="M241.77064,181.29252l8.88945,-3.01094l-1.57716,3.15433l3.58446,0.71689l1.86392,4.13118" data-paper-data="{&quot;index&quot;:null}" fill="#acff26" stroke="#000000" stroke-width="1.28786" stroke-linecap="round"></path><path d="M223.87041,173.65451c0,0 -1.50858,-5.44785 -0.59314,-8.49494c0.96856,-3.22391 4.77045,-5.99582 4.77045,-5.99582c0,0 3.04355,-3.20875 5.19485,-2.05987c2.52857,1.35036 -1.02989,4.87746 -1.02989,4.87746c0,0 -0.93427,0.18458 -2.14467,4.01598c-1.05258,3.33185 1.49542,7.93728 1.01741,7.59392c-0.30336,-0.2179 -7.215,0.06327 -7.215,0.06327z" data-paper-data="{&quot;index&quot;:null}" fill="#acff26" stroke="#000000" stroke-width="1.28786" stroke-linecap="butt"></path><path d="M230.26727,198.85232l3.40865,-12.55003l6.36418,-3.12068l4.64517,2.93657l5.46813,-2.54776l4.07664,4.28851l1.50552,10.46718c0,0 -1.73647,3.15829 -3.698,3.54604c-1.96153,0.38774 -5.35271,-1.75695 -5.35271,-1.75695c0,0 -2.85232,3.18586 -5.32888,3.41282c-2.40491,0.22039 -11.0887,-4.67571 -11.0887,-4.67571z" data-paper-data="{&quot;index&quot;:null}" fill="#f6fab0" stroke="#000000" stroke-width="1.28786" stroke-linecap="round"></path><path d="M236.0147,178.75032c0,2.76527 -2.98359,4.17379 -5.49478,5.45138c-1.21231,0.61678 -1.32485,1.97277 -2.81997,1.97277c-4.5921,0 -8.31473,-3.3239 -8.31473,-7.42415c0,-4.10024 3.72264,-7.42415 8.31474,-7.42415c4.5921,0 8.31474,3.32391 8.31474,7.42415z" data-paper-data="{&quot;index&quot;:null}" fill="#4e3605" stroke="#000000" stroke-width="1.28786" stroke-linecap="butt"></path><path d="M226.01472,188.31806l-2.43743,-4.87486l8.02919,-1.00365l-0.28675,-3.2977l6.88216,3.2977" data-paper-data="{&quot;index&quot;:null}" fill="#acff26" stroke="#000000" stroke-width="1.28786" stroke-linecap="round"></path><path d="M225.04491,161.89088l2.80139,-2.6418c0,0 3.04355,-3.20875 5.19485,-2.05987c2.52857,1.35036 -1.02989,4.87746 -1.02989,4.87746l-1.40738,2.01282z" data-paper-data="{&quot;index&quot;:null}" fill="#4e3605" stroke="#000000" stroke-width="1.28786" stroke-linecap="butt"></path><path d="M254.3283,202.52683c-3.01097,-1.07572 -4.34721,-4.32562 -3.75792,-5.97505c0.58929,-1.64942 4.00089,-2.7435 6.67708,-1.78739c2.67619,0.95612 4.77589,4.14539 4.22659,5.68291c-0.58928,1.64942 -4.13478,3.15524 -7.14575,2.07952z" data-paper-data="{&quot;index&quot;:null}" fill="#f6fab0" stroke="#000000" stroke-width="1.28786" stroke-linecap="butt"></path><path d="M253.68683,197.63773l-2.07719,2.8685" data-paper-data="{&quot;index&quot;:null}" fill="none" stroke="#000000" stroke-width="1.28786" stroke-linecap="round"></path><path d="M255.36836,199.31927l-1.08805,2.96741" data-paper-data="{&quot;index&quot;:null}" fill="none" stroke="#000000" stroke-width="1.28786" stroke-linecap="round"></path><path d="M258.23686,202.28668l-0.6924,-2.76958" data-paper-data="{&quot;index&quot;:null}" fill="none" stroke="#000000" stroke-width="1.28786" stroke-linecap="round"></path><path d="M244.78459,197.43991l2.67067,-0.19783l-0.89022,2.37393z" data-paper-data="{&quot;index&quot;:null}" fill="#000000" stroke="#000000" stroke-width="1.28786" stroke-linecap="round"></path><g stroke="none" stroke-width="1" stroke-linecap="butt"><path d="M263.23699,220.66526c0.18101,0.26542 0.21843,0.55818 0.27867,0.86262c0.04856,0.32727 -0.08602,0.61843 -0.22617,0.89234c0.09474,0.29329 0.20117,0.56375 0.32485,0.82864c0.06184,0.13244 0.12978,0.22482 0.28399,0.28932c0.21154,0.06503 0.39361,0.2158 0.56401,0.38939c0.41431,0.4568 0.55868,0.96269 0.36969,1.55722c-0.04114,0.10855 -0.10511,0.20543 -0.08335,0.33177c0.11917,0.13298 0.22666,0.28879 0.43263,0.33657c0.25162,0.07114 0.34398,0.0032 0.37505,-0.25453c0.06319,-0.6301 -0.11516,-1.18218 -0.36809,-1.72922c-0.07856,-0.1842 -0.17437,-0.36284 -0.23568,-0.55261c-0.18445,-0.512 -0.37448,-1.04125 -0.55893,-1.55325c-0.21232,-0.59826 -0.45357,-1.16812 -0.66031,-1.74913c-0.26301,-0.6962 -0.47983,-1.42637 -0.74284,-2.12257c-0.27416,-0.73071 -0.45648,-1.47203 -0.6043,-2.22449c-0.07139,-0.33894 -0.16003,-0.67231 -0.39837,-0.93827c-0.24948,-0.30046 -0.36095,-0.64551 -0.42623,-1.02453c-0.08651,-0.56269 0.07302,-1.0715 0.29546,-1.56252c0.0584,-0.11413 0.14519,-0.19932 0.25481,-0.27284c0.70443,-0.53241 1.51583,-0.85169 2.38296,-0.99844c0.72354,-0.11942 1.46326,-0.12975 2.20802,-0.0655c1.05982,0.09584 2.06071,0.36315 3.05549,0.67054c0.90905,0.27792 1.70184,0.72677 2.45349,1.28417c0.3814,0.29595 0.77448,0.56908 1.09802,0.92183c0.38034,0.41062 0.65158,0.83741 0.72084,1.40568c0.09606,0.76918 -0.08789,1.4383 -0.63202,1.99514c-0.28374,0.30124 -0.62932,0.47004 -0.98658,0.66166c-0.159,0.45147 -0.29518,0.91463 -0.27104,1.4022c0.01193,0.56773 0.04111,1.12989 0.12762,1.69258c0.13454,0.94728 0.34924,1.90678 0.57561,2.84345c0.14835,0.69513 0.26776,1.41867 0.3471,2.1361c0.09606,0.76918 0.09471,1.53173 0.01878,2.29932c-0.08204,0.80767 -0.31271,1.56809 -0.73766,2.2579c-0.08733,0.14253 -0.18633,0.30788 -0.30205,0.42148c-0.82176,0.818 -1.76826,1.48576 -2.8841,1.86528c-0.55208,0.17835 -1.09301,0.3912 -1.6841,0.44878c-0.29833,0.02016 -0.58551,0.07483 -0.86659,0.08942c-0.28108,0.01459 -0.57942,0.03475 -0.86607,0.03209c-0.28665,-0.00266 -0.55552,-0.06823 -0.82492,-0.07647c-0.64178,-0.04036 -1.2541,-0.16645 -1.84199,-0.45285c-0.78776,-0.37427 -1.46535,-0.87938 -2.02112,-1.53816c-0.4082,-0.49687 -0.68953,-1.07284 -1.06322,-1.58086c-0.0284,-0.02893 -0.03398,-0.04619 -0.04512,-0.08069c-0.38776,-0.84643 -0.741,-1.70401 -0.95623,-2.60618c-0.11544,-0.53429 -0.27096,-1.07469 -0.40366,-1.60341c-0.2715,-1.01736 -0.47398,-2.05701 -0.67647,-3.09666c-0.11995,-0.6662 -0.15364,-1.36028 -0.29084,-2.02091c-0.15393,-0.71239 -0.26776,-1.41868 -0.38718,-2.14221c-0.11942,-0.72353 -0.26166,-1.45875 -0.38108,-2.18228c-0.10827,-0.68903 -0.2338,-1.37249 -0.35932,-2.05595c-0.12499,-0.74079 -0.26723,-1.476 -0.39222,-2.21679c-0.1027,-0.67178 -0.2054,-1.34355 -0.3081,-2.01533c-0.12393,-0.85545 -0.25342,-1.72816 -0.3946,-2.57803c-0.1088,-0.6317 -0.19479,-1.25172 -0.30359,-1.88342c-0.22929,-1.24058 -0.41293,-2.4578 -0.71122,-3.67607c-0.22637,-0.93667 -0.49283,-1.87944 -0.82272,-2.78267c-0.12314,-0.32222 -0.33865,-0.5765 -0.55417,-0.83078c-0.15314,-0.17916 -0.3591,-0.22695 -0.57781,-0.13724c-0.20146,0.08413 -0.42574,0.15658 -0.59933,0.32698c-0.05786,0.0568 -0.13297,0.11917 -0.19084,0.17597c-0.53802,0.51675 -1.09887,1.02183 -1.76163,1.38836c-0.06343,0.03955 -0.1213,0.09635 -0.16191,0.14757c-0.09901,0.16536 -0.28321,0.24391 -0.45574,0.29964c-0.24153,0.07802 -0.47139,0.13323 -0.71849,0.194c-0.08626,0.02786 -0.20092,0.0268 -0.27604,0.08917c-0.13298,0.11917 -0.25878,0.0836 -0.39574,0.01352c-0.10855,-0.04115 -0.1704,-0.17359 -0.30788,-0.18633c-0.25878,0.0836 -0.53482,0.17277 -0.81086,0.26194c-0.31054,0.10032 -0.60941,0.17782 -0.93057,0.1863c-0.22932,-0.00213 -0.44697,-0.02709 -0.62347,-0.1606c-0.2049,-0.16244 -0.45041,-0.27366 -0.67866,-0.39045c-0.29674,-0.15183 -0.58179,-0.32648 -0.84349,-0.54678c-0.0568,-0.05786 -0.13696,-0.07008 -0.13031,-0.16748c0.01221,-0.08015 0.08122,-0.10245 0.14466,-0.142c0.36283,-0.17437 0.75406,-0.31981 1.13362,-0.44242c0.60384,-0.19506 1.20209,-0.40739 1.80593,-0.60245c0.08626,-0.02786 0.2126,-0.04962 0.25932,-0.14093c0.09901,-0.16536 0.23702,-0.20994 0.39229,-0.2601c0.34505,-0.11147 0.6901,-0.22293 1.03515,-0.3344c0.08626,-0.02786 0.1842,-0.07855 0.25268,-0.04352c0.21101,0.12237 0.33841,-0.01406 0.45414,-0.12766c0.14466,-0.142 0.301,-0.30682 0.41168,-0.495c0.28534,-0.47323 0.59907,-0.91753 0.98129,-1.3268c0.45175,-0.48889 0.94306,-0.91434 1.62705,-1.0972c0.63224,-0.16613 1.24562,-0.15471 1.84466,0.1662c0.31956,0.1635 0.63302,0.36709 0.90028,0.60465c0.50614,0.44619 0.91992,0.96032 1.27583,1.53124c0.11307,0.17306 0.24391,0.28321 0.44377,0.37107c0.57117,0.23465 0.86419,0.78779 0.69244,1.37674c-0.05946,0.22879 -0.05549,0.41804 0.02864,0.61949c0.06184,0.13244 0.11811,0.24764 0.13986,0.37398c0.06077,0.24711 0.1911,0.41459 0.41325,0.57146c0.52393,0.38328 0.61547,1.02055 0.26059,1.57341c-0.0061,0.04008 -0.02946,0.08573 -0.07007,0.13696c0.08254,0.37345 0.19347,0.77582 0.29325,1.1437c0.43369,0.2219 0.61469,0.48732 0.74235,0.94146c0.12208,0.43688 0.02652,0.84881 -0.28058,1.19571c0.08254,0.37345 0.17675,0.72406 0.23646,1.08584c0.03795,0.23543 0.14543,0.39123 0.31025,0.54757c0.40927,0.38222 0.5709,0.88253 0.34235,1.41363c-0.11732,0.28559 -0.10831,0.54942 -0.03639,0.83103c0.03902,0.12077 0.07803,0.24153 0.09979,0.36787c0.03742,0.29276 0.17888,0.49474 0.36599,0.72009c0.41988,0.47405 0.59212,1.0662 0.21388,1.66472c-0.01168,0.02283 -0.00053,0.05733 -0.02389,0.10298c0.06635,0.26436 0.13827,0.54597 0.19294,0.83316c0.06077,0.24711 0.15659,0.42574 0.36705,0.60543c0.47774,0.41725 0.63326,0.95765 0.48992,1.57554c-0.04167,0.16589 -0.129,0.30841 -0.20518,0.48544c0.08918,0.27604 0.17835,0.55208 0.23302,0.83927c0.08254,0.37345 0.26354,0.63887 0.55364,0.8881c0.39254,0.33046 0.50295,0.79016 0.45808,1.30003c-0.02495,0.21765 -0.20969,0.35354 -0.25747,0.5595c0.11704,0.3623 0.21682,0.73017 0.32218,1.1153c0.29116,0.13458 0.57065,0.29198 0.72325,0.52847zM249.22932,199.12611c0.01619,0.10909 0.08466,0.14412 0.13085,0.11015c0.18473,-0.13589 0.41512,-0.24842 0.56589,-0.43049c0.09794,-0.05069 0.1903,-0.11864 0.28267,-0.18658c0.04619,-0.03397 0.10352,-0.03344 0.16589,0.04168c0.01008,0.14917 -0.10007,0.28001 -0.22137,0.37636c-0.11572,0.1136 -0.24259,0.19269 -0.38672,0.27735c-0.09794,0.05069 -0.19031,0.11864 -0.24871,0.23277c0.24658,-0.00344 0.42521,-0.09926 0.60994,-0.23515c0.43291,-0.31133 0.82573,-0.62876 1.20184,-0.99794c0.37053,-0.38644 0.79176,-0.67494 1.33163,-0.77313c0.1781,-0.03848 0.33841,-0.01406 0.48651,0.09052c0.4788,0.30259 0.81296,0.74718 1.00298,1.27643c0.29035,0.8398 0.58626,1.69684 0.75584,2.57565c0.08811,0.3907 0.19904,0.79307 0.28715,1.18377c0.20859,0.99957 0.3771,1.99304 0.54562,2.98651c0.23326,1.42982 0.44927,2.86521 0.68254,4.29503c0.05413,0.34452 0.09102,0.6946 0.14515,1.03912c0.16798,1.0508 0.33039,2.08435 0.53287,3.124c0.17568,0.83873 0.29404,1.67692 0.45247,2.52122c0.11437,0.64896 0.24043,1.27508 0.35481,1.92404c0.12499,0.74079 0.23273,1.48715 0.34047,2.23351c0.15179,0.94171 0.28633,1.889 0.47263,2.81956c0.15393,0.71239 0.28502,1.4131 0.47345,2.11434c0.32112,1.22996 0.6595,2.45434 1.25666,3.59513c0.18605,0.34 0.3721,0.68002 0.55815,1.02003c0.31026,0.54757 0.76465,1.01047 1.21346,1.45612c0.75563,0.74665 1.69865,1.07074 2.7351,1.21224c0.71584,0.09265 1.46113,0.09957 2.19581,0.01466c0.47643,-0.05865 0.94729,-0.13454 1.39585,-0.27945c0.53483,-0.17278 1.06965,-0.34554 1.57661,-0.60458c0.16138,-0.09024 0.3055,-0.1749 0.44405,-0.27682c0.32939,-0.27788 0.68161,-0.54409 1.01101,-0.82198c0.42176,-0.34583 0.68984,-0.81349 0.86663,-1.32787c0.27738,-0.85172 0.46904,-1.73291 0.40298,-2.64515c-0.04139,-0.482 -0.06553,-0.96957 -0.147,-1.45768c-0.1295,-0.8727 -0.30519,-1.71143 -0.5037,-2.56184c-0.21974,-1.03408 -0.42222,-2.07373 -0.45829,-3.12903c-0.02414,-0.48757 -0.00262,-0.9518 0.11072,-1.42663c0.01221,-0.08015 0.0645,-0.15421 0.03106,-0.25772c-0.29222,-0.01991 -0.6033,0.13773 -0.85278,-0.16273c0.08733,-0.14253 0.21366,-0.16429 0.34001,-0.18605c0.32169,-0.06581 0.64948,-0.17171 0.95445,-0.28928c0.60436,-0.2524 1.07231,-0.6322 1.28466,-1.27239c-0.06847,-0.03503 -0.10351,0.03344 -0.13244,0.06184c-0.27817,0.3185 -0.64658,0.47561 -0.99826,0.68449c-0.12687,0.07909 -0.26489,0.12368 -0.40848,0.15102c-0.26436,0.06635 -0.53429,0.11544 -0.8098,0.14728c-0.63727,0.09155 -1.29073,0.07401 -1.94367,-0.00086c-0.51544,-0.06213 -1.03089,-0.12425 -1.5519,-0.20362c-1.18509,-0.18875 -2.3224,-0.58345 -3.37743,-1.19527c-0.46766,-0.26809 -0.90082,-0.54732 -1.32229,-0.84938c-0.39865,-0.29038 -0.71051,-0.66595 -0.94725,-1.1039c-0.03954,-0.06343 -0.04458,-0.13801 -0.142,-0.14466c-0.08626,0.02786 -0.04114,0.10856 -0.03,0.14306c0.13163,0.64338 0.53426,1.12301 0.99475,1.54583c0.13085,0.11015 0.27894,0.21473 0.40979,0.32488c0.05122,0.04061 0.11971,0.07565 0.15925,0.13908c0.0568,0.05786 0.06741,0.1497 0.00955,0.2065c-0.04618,0.03397 -0.09794,0.05069 -0.16084,0.0329c-0.12581,-0.03557 -0.23994,-0.09396 -0.34239,-0.17518c-0.04565,-0.02336 -0.09688,-0.06397 -0.18207,-0.15077c-0.0032,0.34399 0.03475,0.57942 0.10721,0.8037c0.22798,0.76468 0.49603,1.53546 0.72958,2.31739c0.29485,0.9717 0.72215,1.88158 1.08601,2.83099c0.32432,0.88598 0.66589,1.76638 0.97295,2.65793c0.14544,0.39123 0.27362,0.78803 0.29829,1.21828c0.01565,0.16642 -0.00877,0.32673 -0.07884,0.46369c-0.18076,0.32513 -0.53749,0.45942 -0.89766,0.34714c-0.19428,-0.07061 -0.41086,-0.21023 -0.6492,-0.47618c-0.04008,-0.0061 -0.09741,-0.00664 -0.12634,0.02176c-0.26542,0.18101 -0.53429,0.11544 -0.77369,-0.03585c-0.60408,-0.39549 -0.92603,-0.92023 -0.87345,-1.64217c0.01274,-0.13748 0.04275,-0.28054 0.09557,-0.41192c0.11122,-0.24551 0.29038,-0.39865 0.56588,-0.4305c-0.09474,-0.29329 -0.17224,-0.59215 -0.3705,-0.852c-0.09184,0.01062 -0.17199,-0.0016 -0.25825,0.02627c-0.18977,0.06131 -0.36681,-0.01487 -0.53216,-0.11388c-0.74714,-0.42549 -0.93184,-1.52805 -0.49627,-2.12602c0.10458,-0.1481 0.29435,-0.20941 0.43344,-0.36865c-0.09422,-0.35062 -0.18286,-0.684 -0.32882,-1.0179c-0.55765,0.16109 -0.90614,0.02598 -1.17685,-0.45815c-0.38378,-0.65719 -0.11914,-1.37142 0.36553,-1.69947c0.06344,-0.03955 0.15527,-0.05015 0.20199,-0.14146c0.02947,-0.08573 -0.01565,-0.16642 -0.04352,-0.25268c-0.07139,-0.33894 -0.16003,-0.67231 -0.24867,-1.00568c-0.76202,-0.05868 -1.11502,-0.3257 -1.30955,-0.98686c-0.14438,-0.5059 0.06081,-0.99133 0.65562,-1.45023c-0.03131,-0.33283 -0.1372,-0.66063 -0.22584,-0.994c-0.04565,-0.02336 -0.0913,-0.04671 -0.12581,-0.03557c-0.46528,0.09315 -0.75538,-0.15609 -0.9815,-0.5022c-0.14704,-0.21924 -0.23064,-0.47803 -0.19347,-0.77583c0.0377,-0.35513 0.20625,-0.60011 0.48892,-0.78669c0.09237,-0.06795 0.21313,-0.10696 0.28878,-0.22666c-0.01963,-0.35566 -0.10827,-0.68903 -0.21416,-1.01682c-0.09077,-0.10405 -0.21711,-0.08229 -0.30284,-0.11175c-0.25719,-0.08839 -0.46209,-0.25083 -0.56294,-0.50405c-0.03344,-0.10351 -0.08971,-0.21871 -0.12315,-0.32222c-0.224,-0.57543 -0.08225,-1.02133 0.46585,-1.38893c-0.04803,-0.38459 -0.11331,-0.76361 -0.23593,-1.14316c-0.53109,-0.22854 -0.8541,-0.63862 -0.95786,-1.19574c-0.08758,-0.44803 0.17334,-0.76095 0.44593,-1.0967c-0.04856,-0.32727 -0.15445,-0.65506 -0.26592,-1.00011c-0.50987,-0.04487 -0.77607,-0.3971 -0.92098,-0.84565c-0.1388,-0.48864 0.08257,-0.86499 0.43532,-1.18853c-0.07749,-0.29887 -0.18392,-0.56933 -0.29035,-0.8398c-0.47643,0.05865 -0.87668,-0.05974 -1.10731,-0.53777c-0.24178,-0.51253 -0.20408,-0.86766 0.15584,-1.34593c-0.11757,-0.30497 -0.29858,-0.5704 -0.51409,-0.82468c-0.45943,-0.53749 -0.93053,-1.05214 -1.5869,-1.37358c-0.1542,-0.0645 -0.31399,-0.14625 -0.47987,-0.18793c-0.29727,-0.0945 -0.57834,-0.07991 -0.89446,0.00316c-0.83926,0.23301 -1.42904,0.76649 -1.95697,1.43241c-0.13351,0.1765 -0.24977,0.34743 -0.36046,0.53561c-0.31427,0.50163 -0.67977,0.96266 -1.23291,1.25566c0.00344,0.24658 -0.01037,0.49872 0.15392,0.71239c0.21818,-0.03238 0.33443,-0.2033 0.50696,-0.25904c0.05176,-0.01672 0.10909,-0.01618 0.16031,0.02443c0.05122,0.04061 0.03344,0.10352 -0.00717,0.15474c-0.17306,0.11307 -0.31214,0.27232 -0.51359,0.35645zM263.17771,214.70182c0.09848,-0.10802 0.19748,-0.27337 0.38115,-0.2946c0.05176,-0.01672 0.10909,-0.01619 0.16642,-0.01566c0.04008,0.0061 0.08573,0.02947 0.09688,0.06397c0.01672,0.05176 0.01619,0.10909 -0.04725,0.14863c-0.07511,0.06237 -0.17863,0.09581 -0.25374,0.15818c-0.02893,0.0284 -0.09237,0.06794 -0.08733,0.14253c0.05626,0.11519 0.1765,0.13351 0.27338,0.19748c0.43926,0.23916 0.8841,0.49556 1.32336,0.73472c0.19986,0.08786 0.39971,0.17572 0.59957,0.26358c0.30842,0.129 0.62851,0.23518 0.93692,0.36418c0.32567,0.12343 0.66301,0.22403 1.00646,0.28455c0.70416,0.11548 1.40274,0.21371 2.10131,0.31193c0.39521,0.0438 0.78484,0.07036 1.1644,-0.05226c0.17253,-0.05573 0.37238,0.03213 0.54543,-0.08094c-0.00901,-0.26382 -0.17888,-0.49474 -0.2853,-0.76521c0.41803,0.05549 0.45758,0.11892 0.56134,0.67604c0.10245,0.08122 0.19481,0.01327 0.28718,-0.05467c0.00213,-0.22932 -0.09315,-0.46528 -0.21736,-0.67284c-0.05069,-0.09794 -0.14146,-0.20199 -0.21498,-0.31161c-0.03954,-0.06343 -0.07909,-0.12688 -0.00398,-0.18924c0.06344,-0.03955 0.13192,-0.0045 0.20039,0.03053c0.2962,0.20916 0.44827,0.50298 0.54249,0.8536c0.02229,0.06901 0.01619,0.10909 0.01565,0.16642c0.09688,0.06397 0.17757,0.01885 0.25268,-0.04352c0.07725,-0.2917 -0.00636,-0.55048 -0.14171,-0.79254c-0.13536,-0.24206 -0.29964,-0.45574 -0.48118,-0.66383c-0.06237,-0.07512 -0.18207,-0.15077 -0.18101,-0.26542c0.02947,-0.08573 0.08679,-0.08519 0.14412,-0.08466c0.13749,0.01274 0.23437,0.07671 0.32514,0.18075c0.35194,0.38168 0.65211,0.78009 0.69297,1.31942c0.00558,0.01725 0.0284,0.02893 0.0568,0.05786c0.14359,-0.02733 0.18474,-0.13589 0.17466,-0.28505c-0.06369,-0.55101 -0.27707,-1.03461 -0.66908,-1.4224c-0.16482,-0.15634 -0.30681,-0.301 -0.47163,-0.45733c-0.03397,-0.04619 -0.08519,-0.0868 -0.10192,-0.13855c-0.01114,-0.0345 -0.00504,-0.07459 0.01832,-0.12024c-0.00558,-0.01725 0.04618,-0.03397 0.06901,-0.02229c0.16031,0.02443 0.28559,0.11732 0.41087,0.21022c0.48942,0.39443 0.86922,0.86237 0.99528,1.4885c0.02229,0.06901 0.03901,0.12077 0.05573,0.17253c0.19084,-0.17596 0.22588,-0.24445 0.18236,-0.49713c-0.05413,-0.34452 -0.21179,-0.6556 -0.45013,-0.92155c-0.28956,-0.30657 -0.63089,-0.59641 -0.97832,-0.84618c-0.37025,-0.26145 -0.75775,-0.51732 -1.13411,-0.7387c-0.61576,-0.37267 -1.28434,-0.61395 -1.97071,-0.79233c-0.72645,-0.18448 -1.45847,-0.38623 -2.20323,-0.45048c-1.1344,-0.0908 -2.25819,-0.08978 -3.34005,0.33593c-0.27047,0.10643 -0.51253,0.24178 -0.77185,0.38271c-0.21314,0.10696 -0.38673,0.27735 -0.47512,0.53454c-0.02336,0.04565 -0.04114,0.10855 0.01566,0.16642c0.12023,0.01832 0.17863,-0.09581 0.271,-0.16376c0.35779,-0.24895 0.76071,-0.41721 1.19148,-0.49921c0.14359,-0.02733 0.28719,-0.05467 0.41246,0.03823c0.05122,0.04061 0.09688,0.06396 0.10192,0.13855c-0.03557,0.12581 -0.15581,0.10749 -0.24764,0.11811c-0.57383,0.05201 -1.05239,0.33997 -1.50866,0.69695c-0.04618,0.03397 -0.09236,0.06795 -0.11572,0.1136c-0.05229,0.07405 0.0045,0.13191 0.09581,0.17863c0.21314,-0.10696 0.42069,-0.23117 0.63383,-0.33812c0.24207,-0.13536 0.50085,-0.21896 0.78193,-0.23355c0.07459,-0.00504 0.14306,0.03 0.1826,0.09343c-0.00106,0.11466 -0.08175,0.15978 -0.18527,0.19322c-0.29329,0.09474 -0.56375,0.20117 -0.84032,0.34768c-0.17863,0.09581 -0.34612,0.22613 -0.46184,0.33972c-0.04672,0.09131 0.02176,0.12634 0.03848,0.1781c0.01672,0.05176 0.04512,0.08069 0.07352,0.10962c0.03451,-0.01114 0.07458,-0.00504 0.08626,-0.02787c0.23703,-0.20994 0.4852,-0.38537 0.78406,-0.46287c0.06901,-0.0223 0.16084,-0.03291 0.24658,-0.00344c0.06291,0.01779 0.11413,0.05839 0.11359,0.11572c0.00504,0.07459 -0.03557,0.12581 -0.08732,0.14253c-0.06901,0.0223 -0.13802,0.04458 -0.20703,0.06688c-0.26436,0.06635 -0.46077,0.22506 -0.66329,0.42386c0.06795,0.09237 0.10192,0.13855 0.18765,0.16801zM264.20753,224.2004c-0.17597,-0.19084 -0.41086,-0.21023 -0.64629,-0.17228c-0.16084,0.0329 -0.24207,0.13536 -0.25481,0.27285c-0.0677,0.49819 0.09897,1.07309 0.5722,1.35843c0.18818,0.11068 0.37185,0.08945 0.51094,-0.06979c0.22588,-0.24445 0.28587,-0.53056 0.16219,-0.79546c-0.0836,-0.25878 -0.21392,-0.42627 -0.34423,-0.59375zM262.50519,222.29252c0.08519,0.08679 0.18261,0.09343 0.28055,0.04274c0.26489,-0.12368 0.41061,-0.38033 0.3732,-0.67309c-0.0491,-0.26994 -0.12712,-0.51147 -0.27416,-0.73071c-0.0568,-0.05786 -0.09634,-0.1213 -0.14757,-0.1619c-0.2901,-0.24923 -0.59507,-0.13166 -0.66727,0.23461c-0.04778,0.20596 -0.05548,0.41804 0.00583,0.60781c0.14093,0.25932 0.2362,0.49527 0.42942,0.68054zM248.69872,200.07868c-0.4021,-0.53696 -0.66617,-1.11849 -0.71153,-1.78974c-0.0568,-0.05786 -0.10856,-0.04114 -0.16031,-0.02442c-0.41405,0.13376 -0.46634,0.2078 -0.36709,0.63301c0.12155,0.49421 0.29486,0.97171 0.69244,1.37675c0.20146,-0.08413 0.39627,-0.07086 0.5465,-0.1956zM261.31197,218.65784c0.19322,0.18527 0.48598,0.14785 0.64285,-0.0743c0.24977,-0.34742 0.10646,-0.96798 -0.26432,-1.1721c-0.22825,-0.11679 -0.49819,-0.06769 -0.60384,0.19506c-0.09954,0.22269 -0.10725,0.43475 -0.01197,0.67072c0.03291,0.16084 0.112,0.28772 0.23728,0.38062zM260.73827,213.75607c-0.09688,-0.06397 -0.18818,-0.11068 -0.28559,-0.11732c-0.16031,-0.02443 -0.26993,0.04909 -0.3116,0.21498c-0.07725,0.2917 -0.00533,0.57331 0.08384,0.84934c0.03902,0.12077 0.0897,0.2187 0.15765,0.31107c0.11307,0.17306 0.2962,0.20916 0.44644,0.08442c0.24817,-0.17543 0.34213,-0.41537 0.26464,-0.71424c-0.01672,-0.05176 -0.03901,-0.12077 -0.06131,-0.18977c-0.03291,-0.16084 -0.14039,-0.31665 -0.29407,-0.43848zM260.21626,211.31446c0.09397,-0.23994 0.04434,-0.45254 -0.07987,-0.6601c-0.06237,-0.07512 -0.142,-0.14466 -0.20436,-0.21977c-0.10802,-0.09848 -0.25109,-0.12847 -0.38911,-0.08388c-0.17253,0.05573 -0.29488,0.26674 -0.27923,0.43315c0.01061,0.09184 -0.0016,0.17199 0.04352,0.25268c0.11811,0.24764 0.21895,0.50085 0.41775,0.70337c0.29833,-0.02016 0.40344,-0.22559 0.4913,-0.42545zM258.01853,204.09845c0.03344,0.10351 0.04406,0.19535 0.07749,0.29886c0.03954,0.06343 0.06184,0.13245 0.10138,0.19588c0.11307,0.17306 0.38697,0.31321 0.51385,0.23412c0.16138,-0.09024 0.23198,-0.28452 0.19907,-0.44537c-0.07085,-0.39628 -0.13003,-0.81538 -0.59875,-0.9688c-0.29383,0.15207 -0.37054,0.38644 -0.29305,0.68531zM258.90969,208.15461c0.01672,0.05176 0.04512,0.08069 0.07351,0.10962c0.14757,0.16191 0.29674,0.15183 0.43025,-0.02468c0.10458,-0.1481 0.12343,-0.32567 0.12503,-0.49766c0.0077,-0.21207 -0.0475,-0.44192 -0.19506,-0.60383c-0.12475,-0.15023 -0.2901,-0.24923 -0.52553,-0.21129c-0.18183,0.4398 -0.07646,0.82492 0.0918,1.22783zM257.47582,201.41585c0.06795,0.09237 0.13589,0.18473 0.27948,0.1574c0.14359,-0.02733 0.2933,-0.09474 0.32329,-0.2378c0.04221,-0.22322 0.04433,-0.45254 -0.11438,-0.64896c-0.15314,-0.17916 -0.33574,-0.27259 -0.57728,-0.19457c-0.1635,0.31956 -0.12052,0.62957 0.08889,0.92392zM256.65868,198.65042c0.1481,0.10458 0.32619,0.0661 0.38512,-0.10536c0.02947,-0.08573 0.05336,-0.18871 0.04832,-0.26329c-0.02017,-0.29833 -0.17278,-0.53483 -0.435,-0.6978c-0.16535,-0.09901 -0.30947,-0.01434 -0.34,0.18605c-0.02443,0.16031 -0.00877,0.32673 0.03581,0.46475c0.04406,0.19535 0.16323,0.32833 0.30576,0.41565zM248.94291,199.71401c0.09635,0.1213 0.18659,0.28268 0.41644,0.22748c-0.06078,-0.24711 -0.30071,-0.34108 -0.4021,-0.53696c-0.10696,-0.21313 -0.24842,-0.41512 -0.3092,-0.66223c-0.04962,-0.2126 -0.12208,-0.43689 -0.17171,-0.64949c-0.16564,0.54888 0.02943,1.15272 0.46656,1.6212z" data-paper-data="{&quot;index&quot;:null}" fill="#010001"></path><path d="M249.76017,198.76409c0.04061,-0.05122 0.06397,-0.09688 0.00717,-0.15474c-0.0568,-0.05786 -0.10856,-0.04114 -0.16031,-0.02442c-0.17253,0.05573 -0.30603,0.23223 -0.50696,0.25903c-0.16429,-0.21366 -0.15048,-0.46581 -0.15392,-0.71239c0.55314,-0.293 0.92421,-0.73678 1.23291,-1.25566c0.11068,-0.18818 0.22694,-0.3591 0.36045,-0.53561c0.51068,-0.66035 1.11772,-1.1994 1.95698,-1.43241c0.29887,-0.07749 0.5972,-0.09766 0.89446,-0.00316c0.16589,0.04167 0.32009,0.10618 0.47987,0.18793c0.6508,0.30419 1.12748,0.8361 1.58691,1.37359c0.19826,0.25985 0.37926,0.52527 0.51409,0.82467c-0.35992,0.47827 -0.39762,0.83341 -0.15583,1.34594c0.21339,0.4836 0.61363,0.60198 1.10731,0.53777c0.12368,0.26489 0.2301,0.53536 0.29035,0.83979c-0.35275,0.32353 -0.57412,0.69989 -0.43532,1.18854c0.12766,0.45414 0.40554,0.78352 0.92098,0.84565c0.11147,0.34505 0.21736,0.67284 0.26592,1.0001c-0.25534,0.33017 -0.53351,0.64867 -0.44594,1.0967c0.10377,0.55712 0.42677,0.9672 0.95786,1.19574c0.12261,0.37956 0.1879,0.75857 0.23593,1.14317c-0.55367,0.35034 -0.68984,0.81349 -0.46585,1.38893c0.03344,0.10351 0.07246,0.22429 0.12315,0.32223c0.11811,0.24764 0.30575,0.41565 0.56294,0.50404c0.10856,0.04115 0.21207,0.0077 0.30284,0.11175c0.10589,0.3278 0.20011,0.67842 0.21417,1.01683c-0.07565,0.1197 -0.19641,0.15872 -0.28878,0.22666c-0.28267,0.18658 -0.45123,0.43156 -0.48892,0.78669c-0.03717,0.2978 0.04086,0.53933 0.19347,0.77582c0.22613,0.34611 0.51623,0.59535 0.98151,0.5022c0.04008,0.0061 0.08572,0.02947 0.1258,0.03557c0.08864,0.33337 0.19454,0.66117 0.22585,0.994c-0.58314,0.43607 -0.80557,0.92709 -0.65563,1.45023c0.17171,0.64948 0.52471,0.91651 1.30955,0.98686c0.08864,0.33337 0.16003,0.67231 0.24867,1.00568c0.02787,0.08626 0.07299,0.16695 0.04352,0.25268c-0.02947,0.08573 -0.13855,0.10192 -0.20199,0.14146c-0.48467,0.32805 -0.74931,1.04227 -0.36553,1.69947c0.27071,0.48413 0.62478,0.6365 1.17685,0.45815c0.14597,0.3339 0.24019,0.68452 0.32883,1.01789c-0.12183,0.15367 -0.31161,0.21498 -0.43344,0.36865c-0.43557,0.59797 -0.25087,1.70053 0.49627,2.12602c0.16535,0.09901 0.32514,0.18076 0.53217,0.11388c0.08626,-0.02786 0.16641,-0.01566 0.25825,-0.02627c0.19826,0.25985 0.27018,0.54146 0.3705,0.85201c-0.27551,0.03185 -0.45467,0.18498 -0.56589,0.43049c-0.0584,0.11413 -0.08839,0.25719 -0.09556,0.41193c-0.047,0.73919 0.27494,1.26393 0.87345,1.64217c0.24498,0.16855 0.50827,0.21686 0.77369,0.03585c0.03451,-0.01114 0.09184,-0.01062 0.12634,-0.02176c0.23276,0.24871 0.43767,0.41115 0.6492,0.47618c0.36575,0.12954 0.71689,-0.02201 0.89765,-0.34714c0.07007,-0.13696 0.0945,-0.29727 0.07885,-0.46368c-0.02467,-0.43025 -0.15286,-0.82706 -0.2983,-1.21829c-0.30707,-0.89155 -0.64864,-1.77195 -0.97295,-2.65793c-0.35829,-0.93216 -0.79116,-1.85928 -1.08601,-2.83099c-0.22798,-0.76468 -0.47877,-1.54103 -0.72957,-2.3174c-0.07803,-0.24153 -0.11598,-0.47696 -0.10721,-0.80369c0.10245,0.08122 0.13085,0.11015 0.18207,0.15076c0.10245,0.08122 0.21658,0.13961 0.34239,0.17518c0.06291,0.01779 0.12023,0.01832 0.16084,-0.0329c0.03503,-0.06848 0.02999,-0.14306 -0.00955,-0.20649c-0.05122,-0.04061 -0.10802,-0.09848 -0.15924,-0.13908c-0.13085,-0.11015 -0.27895,-0.21473 -0.4098,-0.32488c-0.48332,-0.43451 -0.88037,-0.89688 -0.99475,-1.54583c0.00053,-0.05733 -0.05626,-0.11519 0.03,-0.14306c0.09741,0.00664 0.10245,0.08123 0.14199,0.14466c0.23674,0.43795 0.54303,0.79628 0.94725,1.1039c0.42705,0.31931 0.87746,0.59297 1.32229,0.84937c1.05503,0.61182 2.17508,1.0121 3.37742,1.19528c0.52101,0.07937 1.03645,0.14149 1.5519,0.20362c0.63567,0.08044 1.28914,0.09798 1.94367,0.00085c0.26993,-0.04909 0.53987,-0.09819 0.8098,-0.14729c0.13802,-0.04459 0.28161,-0.07192 0.40848,-0.15101c0.35168,-0.20888 0.72009,-0.36599 0.99826,-0.68449c0.02893,-0.0284 0.06398,-0.09687 0.13245,-0.06184c-0.21236,0.64019 -0.6803,1.01999 -1.28467,1.27238c-0.30497,0.11757 -0.63277,0.22347 -0.95445,0.28928c-0.12634,0.02176 -0.25268,0.04352 -0.34001,0.18605c0.24948,0.30046 0.57782,0.13724 0.85279,0.16272c0.03344,0.10351 -0.01885,0.17757 -0.03106,0.25772c-0.11334,0.47483 -0.12929,0.9563 -0.11072,1.42663c0.01882,1.06088 0.2213,2.10053 0.45829,3.12903c0.18126,0.85598 0.37977,1.70639 0.50369,2.56184c0.0759,0.47086 0.12286,0.97011 0.147,1.45768c0.06606,0.91225 -0.10834,1.78786 -0.40298,2.64515c-0.17678,0.51438 -0.44487,0.98204 -0.86663,1.32787c-0.32939,0.27788 -0.67604,0.56134 -1.01101,0.82197c-0.13298,0.11917 -0.29993,0.19215 -0.44405,0.27682c-0.50139,0.27629 -1.04179,0.4318 -1.57661,0.60458c-0.44856,0.1449 -0.91941,0.2208 -1.39584,0.27945c-0.73468,0.08491 -1.45715,0.08967 -2.19581,-0.01466c-1.03645,-0.1415 -1.97949,-0.4656 -2.73511,-1.21224c-0.44881,-0.44565 -0.89762,-0.89131 -1.21346,-1.45613c-0.18605,-0.34 -0.3721,-0.68001 -0.55815,-1.02002c-0.59716,-1.14079 -0.93554,-2.36517 -1.25666,-3.59513c-0.18843,-0.70124 -0.31952,-1.40196 -0.47345,-2.11435c-0.20355,-0.92499 -0.33809,-1.87228 -0.47263,-2.81956c-0.10774,-0.74636 -0.21548,-1.49272 -0.34047,-2.23351c-0.11437,-0.64896 -0.24043,-1.27507 -0.35481,-1.92403c-0.15843,-0.8443 -0.29404,-1.67693 -0.45247,-2.52123c-0.20249,-1.03965 -0.36489,-2.07319 -0.53287,-3.124c-0.05413,-0.34452 -0.09102,-0.6946 -0.14515,-1.03912c-0.21601,-1.43539 -0.44928,-2.86521 -0.68254,-4.29503c-0.16852,-0.99347 -0.33703,-1.98694 -0.54562,-2.98651c-0.08811,-0.3907 -0.2163,-0.7875 -0.28715,-1.18378c-0.16958,-0.8788 -0.44824,-1.74143 -0.75584,-2.57565c-0.19002,-0.52925 -0.51861,-0.95659 -1.00299,-1.27643c-0.1481,-0.10458 -0.30841,-0.129 -0.48651,-0.09052c-0.53429,0.11544 -0.95552,0.40394 -1.33163,0.77312c-0.37611,0.36918 -0.78619,0.6922 -1.20184,0.99795c-0.18473,0.13589 -0.36894,0.21445 -0.60994,0.23514c0.05839,-0.11413 0.15077,-0.18207 0.24871,-0.23277c0.12688,-0.07909 0.26542,-0.181 0.38672,-0.27735c0.1213,-0.09635 0.2142,-0.22162 0.22137,-0.37636c-0.06237,-0.07512 -0.1197,-0.07565 -0.16589,-0.04167c-0.09794,0.05069 -0.19031,0.11864 -0.28268,0.18659c-0.06291,-0.01779 -0.13801,0.04459 -0.18313,-0.0361zM269.15645,217.93373c0.04061,-0.05122 0.00717,-0.15474 -0.05573,-0.17253c-0.05733,-0.00053 -0.11467,-0.00106 -0.17199,-0.00159c-0.82599,0.0382 -1.63258,-0.1585 -2.41583,-0.40085c-0.37743,-0.10671 -0.766,-0.24792 -1.14899,-0.37188c-0.08573,-0.02946 -0.1826,-0.09343 -0.28612,-0.05999c-0.03451,0.01114 -0.06344,0.03954 -0.09237,0.06794c-0.01168,0.02283 0.00504,0.07459 0.03344,0.10352c0.18764,0.16801 0.41033,0.26755 0.6447,0.34427c0.8573,0.29464 1.70344,0.55477 2.60294,0.62619c0.25772,0.03106 0.52712,0.0393 0.79148,-0.02705c0.02893,-0.0284 0.07511,-0.06238 0.09848,-0.10802zM265.13561,227.36821c-0.34398,-0.0032 -0.5717,-0.17732 -0.78164,-0.41434c-0.06237,-0.07512 -0.07856,-0.1842 -0.18712,-0.22535c0,0 -0.01725,0.00558 -0.04008,-0.0061c-0.1152,0.05626 -0.16191,0.14757 -0.12847,0.25109c0.18392,0.56933 1.06908,0.95022 1.61054,0.68004c0.08069,-0.04512 0.09848,-0.10802 0.04221,-0.22321c-0.17757,-0.01885 -0.34346,-0.06053 -0.51544,-0.06212zM267.72652,231.14201c-0.10724,0.43475 -0.19723,0.86393 -0.47593,1.23976c-0.03503,0.06848 -0.02999,0.14306 0.04406,0.19535c0.05122,0.04061 0.13138,0.05283 0.19482,0.01328c0.04618,-0.03397 0.09236,-0.06795 0.11572,-0.1136c0.27924,-0.43315 0.38701,-0.92524 0.43188,-1.43511c-0.00504,-0.07459 -0.02733,-0.1436 -0.11864,-0.19031c-0.1497,0.06741 -0.16802,0.18765 -0.19191,0.29063zM268.57853,230.77151c-0.02336,0.04565 -0.04114,0.10855 -0.04167,0.16589c-0.04938,0.37795 -0.15052,0.77263 -0.30288,1.1267c-0.0061,0.04008 -0.02946,0.08572 -0.03557,0.1258c-0.05282,0.13138 -0.00213,0.22932 0.0836,0.25879c0.09741,0.00664 0.20093,-0.0268 0.24207,-0.13536c0.14732,-0.42865 0.29463,-0.85729 0.32172,-1.30426c0.00106,-0.11466 -0.00955,-0.20649 -0.10643,-0.27047c-0.0284,-0.02893 -0.06847,-0.03504 -0.10855,-0.04115c-0.02893,0.0284 -0.06344,0.03955 -0.05229,0.07405zM271.08546,229.39007c-0.05122,-0.04061 -0.16032,-0.02442 -0.1781,0.03849c-0.02336,0.04565 -0.04114,0.10855 -0.04167,0.16589c-0.00426,0.45864 -0.00851,0.91728 -0.08736,1.38097c-0.0061,0.04008 0.01061,0.09184 0.02176,0.12634c0.0284,0.02893 0.06237,0.07512 0.10245,0.08123c0.04008,0.0061 0.09184,-0.01062 0.12077,-0.03902c0.06954,-0.07962 0.11626,-0.17093 0.1229,-0.26834c0.05548,-0.41804 0.06531,-0.85943 0.02339,-1.2841c-0.00558,-0.01725 -0.01672,-0.05176 -0.02786,-0.08626c-0.0284,-0.02893 -0.0568,-0.05786 -0.05626,-0.11519zM270.33984,231.26948c0.08335,-0.33177 0.1038,-0.68133 0.12425,-1.03088c0.00717,-0.15474 -0.03742,-0.29276 -0.20331,-0.33444c-0.05176,0.01672 -0.09237,0.06795 -0.0929,0.12528c-0.03266,0.42971 -0.08257,0.865 -0.1553,1.2886c-0.02999,0.14306 -0.02549,0.27497 0.14597,0.3339c0.13298,-0.11917 0.1513,-0.2394 0.18129,-0.38246zM269.39391,230.64147c-0.02389,0.10298 -0.02496,0.21765 -0.04327,0.33788c-0.03106,0.25772 -0.0738,0.53826 -0.16219,0.79545c-0.02336,0.04565 -0.04115,0.10855 -0.04168,0.16589c-0.01221,0.08015 0.03291,0.16084 0.11307,0.17306c0.06291,0.01779 0.11466,0.00106 0.15527,-0.05016c0.02336,-0.04565 0.05229,-0.07405 0.0584,-0.11413c0.15236,-0.35406 0.17892,-0.7437 0.20547,-1.13333c0.00106,-0.11466 -0.0207,-0.241 -0.13483,-0.2994c-0.07459,0.00504 -0.13802,0.04459 -0.15023,0.12474zM271.8249,230.02763c0.04884,-0.32063 0.03478,-0.65904 0.00347,-0.99187c-0.01008,-0.14917 -0.07192,-0.28161 -0.22613,-0.34611c-0.05176,0.01672 -0.09794,0.05069 -0.0929,0.12528c0.05361,0.40185 0.04987,0.80316 0.01164,1.21562c-0.00106,0.11466 -0.00213,0.22933 0.16376,0.271c0.12687,-0.07909 0.13351,-0.1765 0.14015,-0.27391zM266.56608,232.62195c0.08626,-0.02786 0.14412,-0.08467 0.19641,-0.15872c0.20916,-0.2962 0.32702,-0.63912 0.38197,-0.99982c0.01779,-0.06291 0.00107,-0.11467 -0.01565,-0.16642c-0.01114,-0.0345 -0.0568,-0.05786 -0.09688,-0.06396c-0.02283,-0.01168 -0.05176,0.01672 -0.06344,0.03955c-0.03503,0.06848 -0.05282,0.13138 -0.08786,0.19985c-0.129,0.30841 -0.1951,0.63461 -0.43823,0.88463c-0.04061,0.05122 -0.06397,0.09688 -0.04167,0.16589c0.00504,0.07459 0.10192,0.13855 0.16536,0.09901zM264.938,232.59536c0.19137,-0.2333 0.30869,-0.51888 0.43159,-0.78722c0,0 0.01168,-0.02283 0.00611,-0.04008c0.01221,-0.08015 -0.02734,-0.1436 -0.09581,-0.17863c-0.06291,-0.01779 -0.11466,-0.00106 -0.15527,0.05016c-0.18023,0.26781 -0.33763,0.54728 -0.45495,0.83288c-0.04114,0.10855 -0.01328,0.19482 0.10085,0.25321c0.09184,-0.01062 0.13245,-0.06184 0.16748,-0.13031zM266.11197,231.51116c-0.23199,0.28453 -0.40106,0.58683 -0.55899,0.92364c-0.03503,0.06848 0.01008,0.14917 0.07855,0.1842c0.06847,0.03503 0.13749,0.01275 0.19535,-0.04405c0.14466,-0.142 0.42549,-0.74714 0.49716,-1.05609c-0.07963,-0.06954 -0.15421,-0.0645 -0.21207,-0.0077zM264.26412,231.68894c-0.13909,0.15924 -0.22694,0.35911 -0.29197,0.57064c-0.01779,0.06291 -0.00107,0.11467 0.05015,0.15527c0.06847,0.03503 0.14306,0.02999 0.16642,-0.01566c0.16244,-0.2049 0.31374,-0.4443 0.2819,-0.71981c-0.09688,-0.06397 -0.17146,-0.05893 -0.2065,0.00955zM272.46725,228.77221c0.00717,-0.15474 -0.00849,-0.32116 -0.15659,-0.42574c-0.03451,0.01114 -0.09184,0.01062 -0.08626,0.02786c-0.08282,0.27444 -0.06823,0.55552 0.04934,0.86049c0.20199,-0.14147 0.18634,-0.30788 0.19351,-0.46262zM263.42699,231.69263c-0.07565,0.1197 -0.17413,0.22773 -0.12396,0.383c0,0 0.00557,0.01726 0.01115,0.0345c0.02229,0.06901 0.12527,0.0929 0.16589,0.04167c0.13909,-0.15924 0.30099,-0.30682 0.3148,-0.55897c-0.17703,-0.07618 -0.2694,-0.00824 -0.36787,0.09978zM262.95056,231.75127c0.08679,-0.08519 0.15634,-0.16482 0.17466,-0.28505c0.01221,-0.08015 -0.01009,-0.14917 -0.07856,-0.1842c-0.0913,-0.04672 -0.13748,-0.01275 -0.19535,0.04405c-0.08122,0.10245 -0.15687,0.22215 -0.10671,0.37742c0.02229,0.06901 0.13085,0.11015 0.20596,0.04778zM264.28445,216.53537c-0.07459,0.00504 -0.12077,0.03901 -0.13855,0.10192c-0.03503,0.06848 -0.00106,0.11466 0.05016,0.15527c0.07963,0.06954 0.16535,0.09901 0.28001,0.10007c0.07459,-0.00504 0.1497,-0.06741 0.12741,-0.13642c-0.02733,-0.14359 -0.16986,-0.23092 -0.31903,-0.22084zM269.73586,217.89898c-0.01779,0.06291 0.01619,0.10908 0.07909,0.12687c0.12581,0.03557 0.27443,0.08282 0.38459,-0.04803c0.02893,-0.0284 0.04114,-0.10855 0.01832,-0.12024c-0.11359,-0.11572 -0.24551,-0.11121 -0.37185,-0.08945c-0.08069,0.04512 -0.10962,0.07352 -0.11015,0.13085z" data-paper-data="{&quot;index&quot;:null}" fill="#ffc941"></path><path d="M263.67618,214.12163c0.07459,-0.00504 0.13802,-0.04458 0.20703,-0.06688c0.06344,-0.03955 0.08679,-0.0852 0.08732,-0.14253c-0.01672,-0.05176 -0.05069,-0.09794 -0.11359,-0.11572c-0.06847,-0.03503 -0.16032,-0.02442 -0.24658,0.00344c-0.31612,0.08307 -0.56428,0.25851 -0.78406,0.46287c-0.03451,0.01114 -0.05175,0.01672 -0.08626,0.02786c-0.03397,-0.04619 -0.06238,-0.07512 -0.07352,-0.10962c-0.03397,-0.04619 -0.10245,-0.08122 -0.03848,-0.1781c0.11016,-0.13085 0.28321,-0.24391 0.46184,-0.33972c0.28215,-0.12925 0.54703,-0.25293 0.84033,-0.34767c0.08626,-0.02786 0.18978,-0.06131 0.18527,-0.19322c-0.04512,-0.08069 -0.10802,-0.09848 -0.18261,-0.09343c-0.27551,0.03185 -0.53986,0.09819 -0.78193,0.23354c-0.21314,0.10696 -0.42069,0.23117 -0.63383,0.33813c-0.07405,-0.05229 -0.14253,-0.08732 -0.09581,-0.17863c0.02336,-0.04565 0.06954,-0.07962 0.11573,-0.1136c0.43344,-0.36865 0.91757,-0.63937 1.50866,-0.69695c0.09184,-0.01062 0.21207,0.00771 0.24764,-0.1181c-0.00504,-0.07459 -0.05069,-0.09794 -0.10191,-0.13855c-0.12527,-0.0929 -0.26887,-0.06557 -0.41246,-0.03823c-0.43077,0.082 -0.83369,0.25026 -1.19148,0.49922c-0.07511,0.06237 -0.15634,0.16482 -0.271,0.16376c-0.0568,-0.05786 -0.03902,-0.12077 -0.01565,-0.16642c0.07671,-0.23436 0.26756,-0.41033 0.47512,-0.53454c0.24207,-0.13536 0.50138,-0.27629 0.77185,-0.38272c1.08186,-0.4257 2.20565,-0.42673 3.34005,-0.33592c0.74476,0.06425 1.47678,0.266 2.20323,0.45048c0.69194,0.19564 1.36053,0.43691 1.97072,0.79233c0.39918,0.23305 0.78111,0.47168 1.13411,0.7387c0.34742,0.24977 0.68318,0.52236 0.97831,0.84618c0.25559,0.26039 0.39599,0.57703 0.45013,0.92155c0.04352,0.25268 0.00848,0.32116 -0.18236,0.49712c-0.02229,-0.06901 -0.03901,-0.12077 -0.05573,-0.17252c-0.13163,-0.64338 -0.49418,-1.1169 -0.99528,-1.4885c-0.10802,-0.09848 -0.25056,-0.18579 -0.41087,-0.21022c-0.02283,-0.01168 -0.05733,-0.00054 -0.06901,0.02229c-0.0061,0.04008 -0.02946,0.08573 -0.01831,0.12024c0.01672,0.05176 0.06794,0.09236 0.10191,0.13855c0.16482,0.15634 0.30682,0.301 0.47164,0.45733c0.39202,0.38779 0.60539,0.87139 0.66908,1.4224c0.02733,0.14359 -0.01939,0.23489 -0.17466,0.28505c-0.02283,-0.01168 -0.05122,-0.04061 -0.05679,-0.05786c-0.04086,-0.53933 -0.34104,-0.93774 -0.69298,-1.31942c-0.08519,-0.08679 -0.18765,-0.16801 -0.32513,-0.18076c-0.05733,-0.00053 -0.11465,-0.00107 -0.14412,0.08467c-0.00106,0.11466 0.09581,0.17863 0.18101,0.26542c0.1988,0.20252 0.34583,0.42176 0.48118,0.66383c0.14093,0.25932 0.22454,0.5181 0.14171,0.79254c-0.08069,0.04512 -0.13855,0.10192 -0.25268,0.04353c0.00053,-0.05733 0.00107,-0.11467 -0.01565,-0.16642c-0.08864,-0.33337 -0.2463,-0.64444 -0.5425,-0.8536c-0.07405,-0.05229 -0.14252,-0.08733 -0.20039,-0.03053c-0.07511,0.06237 -0.03557,0.12581 0.00397,0.18924c0.06795,0.09237 0.14146,0.20199 0.21498,0.31161c0.12421,0.20756 0.23117,0.42069 0.21736,0.67284c-0.09794,0.05069 -0.18473,0.13589 -0.28718,0.05467c-0.10377,-0.55712 -0.14331,-0.62055 -0.56134,-0.67604c0.10643,0.27047 0.27629,0.50138 0.2853,0.76521c-0.16748,0.13031 -0.37291,0.0252 -0.54544,0.08094c-0.37955,0.12261 -0.78644,0.10164 -1.1644,0.05226c-0.69858,-0.09823 -1.39716,-0.19645 -2.10131,-0.31193c-0.3607,-0.05495 -0.68079,-0.16112 -1.00646,-0.28456c-0.30842,-0.129 -0.6285,-0.23519 -0.93692,-0.36418c-0.21711,-0.08229 -0.4114,-0.15289 -0.59958,-0.26358c-0.43926,-0.23916 -0.87852,-0.47831 -1.32335,-0.73472c-0.09688,-0.06397 -0.21711,-0.08229 -0.27338,-0.19748c-0.00504,-0.07459 0.04115,-0.10855 0.08733,-0.14253c0.07511,-0.06237 0.17305,-0.11307 0.25374,-0.15819c0.06344,-0.03955 0.08122,-0.10244 0.04725,-0.14863c-0.01114,-0.0345 -0.0568,-0.05786 -0.09688,-0.06397c-0.05733,-0.00053 -0.11466,-0.00107 -0.16642,0.01565c-0.18367,0.02123 -0.28267,0.18658 -0.38115,0.29461c-0.10298,-0.02389 -0.15978,-0.08176 -0.21047,-0.1797c0.20252,-0.19879 0.41618,-0.36308 0.68612,-0.41217zM270.68062,213.09731c-0.24551,-0.11121 -0.48492,-0.26251 -0.7421,-0.3509c-0.60568,-0.2235 -1.21693,-0.46426 -1.8404,-0.62485c-0.68637,-0.17838 -1.3677,-0.28217 -2.09017,-0.27742c-0.13191,0.00451 -0.26382,0.00902 -0.37902,0.06528c-0.08069,0.04512 -0.13855,0.10192 -0.14519,0.19933c0.07352,0.10962 0.18818,0.11068 0.30284,0.11175c0.33231,0.02602 0.65903,0.03479 0.99134,0.06081c0.80767,0.08203 1.56251,0.29546 2.31682,0.56621c0.4743,0.17068 0.9486,0.34135 1.40512,0.57493c0.13696,0.07008 0.27443,0.08282 0.38459,-0.04803c0.02999,-0.14306 -0.08413,-0.20145 -0.20383,-0.2771z" data-paper-data="{&quot;index&quot;:null}" fill="#ffc941"></path><path d="M264.37232,225.59518c-0.13909,0.15924 -0.32275,0.18048 -0.51093,0.06979c-0.47323,-0.28534 -0.6399,-0.86024 -0.5722,-1.35843c0.03557,-0.12581 0.11122,-0.24551 0.25481,-0.27284c0.23543,-0.03795 0.47032,-0.01857 0.64629,0.17227c0.16482,0.15634 0.27789,0.3294 0.36149,0.58818c0.12925,0.28215 0.06368,0.55101 -0.17945,0.80103z" data-paper-data="{&quot;index&quot;:null}" fill="#fcc741"></path><path d="M262.06994,221.00417c0.06663,-0.38353 0.37718,-0.48385 0.66727,-0.23461c0.05122,0.04061 0.10802,0.09847 0.14757,0.1619c0.14704,0.21924 0.23064,0.47803 0.27416,0.73071c0.03742,0.29276 -0.12556,0.55498 -0.3732,0.67309c-0.09794,0.05069 -0.19536,0.04405 -0.28055,-0.04274c-0.19322,-0.18527 -0.30575,-0.41565 -0.42942,-0.68054c-0.06131,-0.18977 -0.05361,-0.40185 -0.00583,-0.60781z" data-paper-data="{&quot;index&quot;:null}" fill="#fcc741"></path><path d="M247.45978,198.89753c-0.08757,-0.44803 -0.05254,-0.5165 0.36709,-0.63301c0.05176,-0.01672 0.10909,-0.01619 0.16031,0.02442c0.04537,0.67124 0.29219,1.25836 0.71153,1.78974c-0.16191,0.14757 -0.35672,0.1343 -0.5465,0.1956c-0.39758,-0.40504 -0.57089,-0.88254 -0.69244,-1.37675z" data-paper-data="{&quot;index&quot;:null}" fill="#fac540"></path><path d="M261.09223,217.62376c0.10564,-0.26276 0.37,-0.32911 0.60383,-0.19506c0.37079,0.20412 0.51409,0.82467 0.26432,1.17209c-0.14519,0.19932 -0.43794,0.23674 -0.64284,0.0743c-0.11359,-0.11572 -0.20995,-0.23703 -0.24285,-0.39787c-0.09528,-0.23596 -0.08757,-0.44803 0.01754,-0.65346z" data-paper-data="{&quot;index&quot;:null}" fill="#fac640"></path><path d="M261.0764,214.3899c0.07749,0.29887 -0.02204,0.52155 -0.26464,0.71424c-0.1558,0.10749 -0.33337,0.08864 -0.44643,-0.08442c-0.05069,-0.09794 -0.12421,-0.20756 -0.15765,-0.31107c-0.08918,-0.27604 -0.14384,-0.56322 -0.08385,-0.84934c0.02443,-0.16031 0.1513,-0.23941 0.31161,-0.21498c0.12023,0.01832 0.20596,0.04778 0.28559,0.11732c0.15368,0.12183 0.25559,0.26038 0.31132,0.43291c0.02787,0.08626 0.06184,0.13244 0.04406,0.19535z" data-paper-data="{&quot;index&quot;:null}" fill="#fcc741"></path><path d="M259.28996,211.04212c-0.02229,-0.06901 -0.03291,-0.16084 -0.04353,-0.25268c-0.01565,-0.16642 0.10671,-0.37742 0.27924,-0.43316c0.13245,-0.06184 0.27551,-0.03184 0.3891,0.08388c0.07963,0.06954 0.15925,0.13908 0.20437,0.21977c0.10696,0.21313 0.17383,0.42016 0.07987,0.6601c-0.06504,0.21153 -0.17572,0.39971 -0.47405,0.41988c-0.1988,-0.20252 -0.30521,-0.47298 -0.435,-0.6978z" data-paper-data="{&quot;index&quot;:null}" fill="#f8c440"></path><path d="M258.91033,204.38195c0.03291,0.16084 -0.0377,0.35513 -0.19907,0.44537c-0.12687,0.07909 -0.40078,-0.06106 -0.51385,-0.23412c-0.03954,-0.06343 -0.07909,-0.12687 -0.10138,-0.19588c-0.03344,-0.10351 -0.04406,-0.19535 -0.07749,-0.29886c-0.07749,-0.29887 -0.00078,-0.53323 0.29305,-0.68531c0.48598,0.14785 0.5279,0.57253 0.59875,0.9688z" data-paper-data="{&quot;index&quot;:null}" fill="#f9c540"></path><path d="M259.34342,207.13807c0.13031,0.16748 0.1972,0.37451 0.19506,0.60383c-0.0016,0.17199 -0.02045,0.34956 -0.12503,0.49766c-0.13351,0.1765 -0.29993,0.19216 -0.43025,0.02468c-0.0284,-0.02893 -0.06237,-0.07512 -0.07351,-0.10962c-0.16269,-0.38566 -0.27363,-0.78803 -0.0918,-1.22783c0.23543,-0.03795 0.40078,0.06106 0.52553,0.21129z" data-paper-data="{&quot;index&quot;:null}" fill="#f7c340"></path><path d="M257.94696,200.69206c0.15871,0.19642 0.17383,0.42016 0.11437,0.64896c-0.02999,0.14306 -0.17969,0.21047 -0.32328,0.23781c-0.13802,0.04459 -0.21153,-0.06503 -0.27948,-0.1574c-0.19216,-0.29993 -0.23514,-0.60994 -0.07164,-0.9295c0.24153,-0.07802 0.42414,0.01541 0.56003,0.20014z" data-paper-data="{&quot;index&quot;:null}" fill="#f9c540"></path><path d="M256.32268,197.78727c0.03053,-0.20039 0.17466,-0.28505 0.34001,-0.18605c0.25666,0.14572 0.40927,0.38222 0.435,0.6978c-0.00664,0.09741 -0.01885,0.17756 -0.04832,0.26329c-0.05893,0.17146 -0.23703,0.20994 -0.38513,0.10536c-0.1481,-0.10458 -0.25002,-0.24313 -0.31133,-0.43291c-0.06184,-0.13244 -0.05467,-0.28718 -0.03024,-0.4475z" data-paper-data="{&quot;index&quot;:null}" fill="#f6c340"></path><path d="M248.63081,198.74787c0.06078,0.24711 0.20224,0.44909 0.30919,0.66223c0.10138,0.19588 0.34132,0.28984 0.4021,0.53695c-0.22428,0.07245 -0.32009,-0.10618 -0.41644,-0.22747c-0.41988,-0.47405 -0.60327,-1.10071 -0.44931,-1.62677c0.0552,0.22985 0.10483,0.44246 0.15446,0.65506z" data-paper-data="{&quot;index&quot;:null}" fill="#e6b73f"></path><path d="M249.37742,199.23069c-0.04619,0.03397 -0.11466,-0.00106 -0.13085,-0.11015c0.1842,-0.07856 0.32328,-0.2378 0.49634,-0.35087c0.06237,0.07512 0.13748,0.01274 0.20039,0.03053c-0.15077,0.18207 -0.38115,0.2946 -0.56588,0.43049z" data-paper-data="{&quot;index&quot;:null}" fill="#a98836"></path><path d="M268.28932,218.08049c-0.8995,-0.07143 -1.7629,-0.32599 -2.60295,-0.6262c-0.23437,-0.07672 -0.45705,-0.17625 -0.64469,-0.34427c-0.04565,-0.02336 -0.0568,-0.05786 -0.03344,-0.10351c0.01168,-0.02283 0.05786,-0.0568 0.09236,-0.06795c0.08626,-0.02786 0.20039,0.03053 0.28612,0.06c0.38299,0.12396 0.76599,0.24792 1.14899,0.37188c0.78325,0.24235 1.58985,0.43904 2.41583,0.40085c0.05176,-0.01672 0.11467,0.00107 0.17199,0.0016c0.08015,0.01221 0.09634,0.1213 0.05573,0.17253c-0.04618,0.03397 -0.09237,0.06794 -0.1213,0.09634c-0.28161,0.07192 -0.53376,0.05811 -0.76865,0.03873z" data-paper-data="{&quot;index&quot;:null}" fill="#060503"></path><path d="M265.60884,227.65354c-0.54146,0.27018 -1.42104,-0.09346 -1.61054,-0.68004c-0.01619,-0.10909 0.0077,-0.21207 0.12847,-0.25109c0.01725,-0.00557 0.01725,-0.00558 0.04008,0.0061c0.0913,0.04672 0.12475,0.15023 0.18712,0.22535c0.20994,0.23702 0.43766,0.41115 0.78164,0.41434c0.17199,0.0016 0.33788,0.04327 0.51544,0.06212c0.05626,0.11519 0.03848,0.17809 -0.04221,0.22321z" data-paper-data="{&quot;index&quot;:null}" fill="#fefcf5"></path><path d="M268.03707,231.04169c-0.05045,0.49262 -0.15265,1.00196 -0.43188,1.43511c-0.02336,0.04565 -0.06954,0.07962 -0.11572,0.1136c-0.06344,0.03955 -0.12634,0.02175 -0.19482,-0.01328c-0.07405,-0.05229 -0.09635,-0.1213 -0.04406,-0.19535c0.28427,-0.35858 0.36869,-0.805 0.47593,-1.23976c0.02389,-0.10298 0.04221,-0.22322 0.19191,-0.29063c0.0913,0.04672 0.11917,0.13298 0.11864,0.19031z" data-paper-data="{&quot;index&quot;:null}" fill="#0e0b07"></path><path d="M268.71655,230.72692c0.09688,0.06397 0.11307,0.17306 0.10643,0.27047c-0.02151,0.46421 -0.15158,0.88729 -0.32172,1.30426c-0.04114,0.10855 -0.13909,0.15925 -0.24207,0.13536c-0.08573,-0.02946 -0.11917,-0.13298 -0.0836,-0.25879c0.0061,-0.04008 0.01221,-0.08016 0.03557,-0.12581c0.16962,-0.35964 0.25907,-0.73148 0.30287,-1.12669c0.00053,-0.05733 0.01831,-0.12024 0.04167,-0.16589c0.01168,-0.02283 0.04619,-0.03397 0.07512,-0.06238c0.04008,0.0061 0.08015,0.01221 0.08573,0.02946z" data-paper-data="{&quot;index&quot;:null}" fill="#100e08"></path><path d="M271.15791,229.61435c0.05917,0.4191 0.03209,0.86606 -0.02339,1.2841c-0.00664,0.09741 -0.04779,0.20596 -0.1229,0.26833c-0.02893,0.0284 -0.08069,0.04512 -0.12077,0.03902c-0.04008,-0.0061 -0.0913,-0.04672 -0.10245,-0.08122c-0.0284,-0.02893 -0.02787,-0.08626 -0.02176,-0.12634c0.07885,-0.46368 0.0831,-0.92233 0.08736,-1.38097c0.00053,-0.05733 0.02389,-0.10298 0.04167,-0.16588c0.01221,-0.08015 0.13856,-0.10192 0.1781,-0.03848c0.0284,0.02893 0.03955,0.06343 0.06795,0.09237c-0.0061,0.04008 0.00504,0.07459 0.01619,0.10909z" data-paper-data="{&quot;index&quot;:null}" fill="#0b0a06"></path><path d="M270.01815,231.3353c0.08999,-0.42918 0.12264,-0.85889 0.1553,-1.2886c-0.00504,-0.07459 0.02389,-0.10298 0.0929,-0.12528c0.16589,0.04167 0.21047,0.17969 0.2033,0.33443c-0.02044,0.34956 -0.04646,0.68186 -0.12424,1.03089c-0.03557,0.12581 -0.04832,0.26329 -0.18687,0.36521c-0.19428,-0.07061 -0.18154,-0.20809 -0.1404,-0.31664z" data-paper-data="{&quot;index&quot;:null}" fill="#141109"></path><path d="M269.67896,230.81613c-0.0093,0.38406 -0.05868,0.76202 -0.20547,1.13333c-0.0061,0.04008 -0.02947,0.08572 -0.0584,0.11413c-0.04061,0.05122 -0.09237,0.06795 -0.15527,0.05016c-0.08573,-0.02946 -0.12527,-0.0929 -0.11307,-0.17306c0.00053,-0.05733 0.01832,-0.12024 0.04168,-0.16589c0.10564,-0.26276 0.13671,-0.52048 0.16219,-0.79545c0.00106,-0.11466 0.01938,-0.2349 0.04327,-0.33788c0.01221,-0.08015 0.05839,-0.11413 0.15023,-0.12474c0.11413,0.05839 0.15314,0.17916 0.13483,0.2994z" data-paper-data="{&quot;index&quot;:null}" fill="#100d08"></path><path d="M271.53824,230.02496c0.03823,-0.41246 0.04196,-0.81377 -0.01164,-1.21561c-0.02229,-0.06901 0.04114,-0.10856 0.0929,-0.12528c0.1542,0.0645 0.21605,0.19694 0.22613,0.34611c0.03131,0.33283 0.04537,0.67124 -0.00348,0.99187c-0.02389,0.10298 -0.03053,0.20039 -0.1574,0.27948c-0.16589,-0.04167 -0.16482,-0.15634 -0.14651,-0.27658z" data-paper-data="{&quot;index&quot;:null}" fill="#15120a"></path><path d="M266.44239,232.35706c0.24313,-0.25002 0.30923,-0.57622 0.43823,-0.88463c0.03503,-0.06848 0.05282,-0.13138 0.08786,-0.19985c0.01168,-0.02283 0.04061,-0.05123 0.06344,-0.03955c0.04008,0.0061 0.08573,0.02946 0.09688,0.06396c0.01672,0.05176 0.01619,0.10909 0.01565,0.16642c-0.05495,0.3607 -0.17281,0.70362 -0.38197,0.99982c-0.05229,0.07405 -0.11015,0.13085 -0.19641,0.15872c-0.06901,0.0223 -0.16589,-0.04167 -0.16536,-0.09901c-0.01672,-0.05176 0.00106,-0.11466 0.04167,-0.16589z" data-paper-data="{&quot;index&quot;:null}" fill="#120f09"></path><path d="M264.67523,232.48972c0.11732,-0.28559 0.27473,-0.56506 0.45495,-0.83287c0.04061,-0.05122 0.09237,-0.06795 0.15527,-0.05016c0.06847,0.03503 0.10802,0.09848 0.09581,0.17863c0.00558,0.01725 0.00558,0.01725 -0.0061,0.04008c-0.1229,0.26834 -0.2458,0.53667 -0.4316,0.78722c-0.04061,0.05122 -0.09847,0.10802 -0.17305,0.11307c-0.10856,-0.04115 -0.142,-0.14466 -0.09528,-0.23596z" data-paper-data="{&quot;index&quot;:null}" fill="#16130a"></path><path d="M265.80963,232.58052c-0.05786,0.0568 -0.12688,0.07909 -0.19535,0.04405c-0.0913,-0.04672 -0.11359,-0.11573 -0.07856,-0.1842c0.1635,-0.31956 0.32701,-0.63912 0.559,-0.92364c0.05786,-0.0568 0.13245,-0.06184 0.22932,0.00213c-0.07167,0.30894 -0.3525,0.91409 -0.51441,1.06166z" data-paper-data="{&quot;index&quot;:null}" fill="#0d0b07"></path><path d="M264.18872,232.3992c-0.04061,0.05122 -0.1152,0.05626 -0.16642,0.01566c-0.05122,-0.04061 -0.06794,-0.09237 -0.05015,-0.15527c0.06504,-0.21153 0.15846,-0.39414 0.29197,-0.57064c0.05786,-0.0568 0.10962,-0.07352 0.2065,-0.00955c0.03184,0.27551 -0.11946,0.51491 -0.2819,0.71981z" data-paper-data="{&quot;index&quot;:null}" fill="#201b0f"></path><path d="M272.2244,228.37434c0.01168,-0.02283 0.05175,-0.01672 0.08626,-0.02786c0.13085,0.11015 0.16376,0.27099 0.15659,0.42574c-0.00717,0.15474 0.00849,0.32115 -0.19351,0.46262c-0.11757,-0.30497 -0.13216,-0.58605 -0.04934,-0.86049z" data-paper-data="{&quot;index&quot;:null}" fill="#1d180e"></path><path d="M263.48006,232.15181c-0.04061,0.05122 -0.14359,0.02733 -0.16589,-0.04167c0,0 -0.00557,-0.01726 -0.01115,-0.0345c-0.05574,-0.17253 0.04832,-0.2633 0.12396,-0.383c0.0929,-0.12527 0.19084,-0.17596 0.36787,-0.09978c-0.01381,0.25215 -0.17572,0.39972 -0.3148,0.55897z" data-paper-data="{&quot;index&quot;:null}" fill="#17130b"></path><path d="M262.85131,231.32607c0.05786,-0.0568 0.12687,-0.07908 0.19535,-0.04405c0.06847,0.03503 0.09077,0.10405 0.07856,0.1842c-0.01831,0.12024 -0.08786,0.19986 -0.17466,0.28505c-0.07511,0.06237 -0.18367,0.02123 -0.20596,-0.04778c-0.03291,-0.16084 0.02549,-0.27497 0.10671,-0.37742z" data-paper-data="{&quot;index&quot;:null}" fill="#382e16"></path><path d="M264.4644,216.91545c-0.11466,-0.00107 -0.20038,-0.03053 -0.28001,-0.10007c-0.03397,-0.04619 -0.06795,-0.09237 -0.05016,-0.15527c0.01779,-0.06291 0.08122,-0.10245 0.13855,-0.10192c0.16642,-0.01566 0.30337,0.05443 0.3307,0.19801c-0.00053,0.05733 -0.05282,0.13138 -0.13908,0.15924z" data-paper-data="{&quot;index&quot;:null}" fill="#201b0f"></path><path d="M270.21786,217.85759c0.01114,0.0345 0.01061,0.09184 -0.01832,0.12024c-0.11016,0.13085 -0.24153,0.07802 -0.38459,0.04803c-0.04008,-0.0061 -0.07963,-0.06954 -0.07909,-0.12687c-0.00504,-0.07459 0.04114,-0.10855 0.11015,-0.13085c0.13191,-0.00451 0.26382,-0.00902 0.37185,0.08945z" data-paper-data="{&quot;index&quot;:null}" fill="#3d3219"></path><path d="M270.52269,213.43412c-0.45652,-0.23358 -0.93081,-0.40426 -1.40512,-0.57494c-0.75988,-0.288 -1.52641,-0.47859 -2.31682,-0.5662c-0.33231,-0.02602 -0.65903,-0.03479 -0.99134,-0.06081c-0.11466,-0.00107 -0.22375,0.01513 -0.30284,-0.11175c0.00664,-0.09741 0.05893,-0.17146 0.14519,-0.19932c0.1152,-0.05626 0.24711,-0.06077 0.37902,-0.06528c0.70522,0.00081 1.4038,0.09904 2.09017,0.27742c0.62347,0.1606 1.23471,0.40135 1.8404,0.62485c0.25719,0.08839 0.49102,0.22244 0.7421,0.35091c0.09688,0.06397 0.211,0.12236 0.18101,0.26542c-0.11016,0.13085 -0.24764,0.1181 -0.36176,0.05971z" data-paper-data="{&quot;index&quot;:null}" fill="#fefefa"></path></g><path d="M247.28873,206.91397c-3.6692,0.99554 -7.11908,0.05047 -7.7055,-2.11087c-0.58642,-2.16135 1.91267,-4.7205 5.58188,-5.71603c3.6692,-0.99554 7.11908,-0.05047 7.7055,2.11087c0.58642,2.16135 -1.91267,4.7205 -5.58188,5.71603z" data-paper-data="{&quot;index&quot;:null}" fill="#f6fab0" stroke="#000000" stroke-width="1.28786" stroke-linecap="butt"></path><path d="M235.3283,194.51204c0,0 1.0424,-4.7417 3.36225,-4.92436c2.31985,-0.18266 6.16205,4.17446 6.16205,4.17446" fill="none" stroke="#000000" stroke-width="1.28786" stroke-linecap="round"></path><path d="M246.84032,193.50032c0,0 1.04241,-4.7417 3.36226,-4.92436c1.41016,-0.11103 4.7131,2.70096 4.7131,2.70096" data-paper-data="{&quot;index&quot;:null}" fill="none" stroke="#000000" stroke-width="1.28786" stroke-linecap="round"></path></g></g></g></svg>