<svg version="1.1" xmlns="http://www.w3.org/2000/svg" xmlns:xlink="http://www.w3.org/1999/xlink" width="49.40252" height="55.17456" viewBox="0,0,49.40252,55.17456"><g transform="translate(-215.29874,-151.46945)"><g data-paper-data="{&quot;isPaintingLayer&quot;:true}" fill-rule="nonzero" stroke="#000000" stroke-width="1.28786" stroke-linejoin="miter" stroke-miterlimit="10" stroke-dasharray="" stroke-dashoffset="0" style="mix-blend-mode: normal"><g><path d="M217.74883,164.89956l-0.6626,-6.90561l3.58366,-4.63796v11.54357z" fill="#3fff7c" stroke-linecap="butt"></path><path d="M221.46842,178.36365c0,0 -3.71797,-4.1693 -4.82843,-7.45187c-1.11046,-3.28256 -0.75978,-4.73043 0.1116,-6.4912c0.9183,-1.85559 2.54589,-3.98983 5.18083,-4.30285c2.63494,-0.31302 5.22173,1.25128 5.72884,3.00683c0.56091,1.94182 -4.34053,6.42737 -4.339,6.54932c0.01026,0.82426 -1.31662,-3.6767 -1.31662,-3.6767l2.42067,9.56554z" fill="#3fff7c" stroke-linecap="butt"></path><path d="M222.10504,166.07068c0,0 0.05722,-1.07996 0.63545,-1.70682c0.38889,-0.42161 1.33127,-0.42502 1.4545,-0.55955c0.14585,-0.15923 -0.34139,0.35757 -0.34139,0.35757" fill="none" stroke-linecap="round"></path></g><path d="M252.01954,206.64401v0z" fill="none" stroke-linecap="butt"></path><path d="M251.65335,174.6021c3.13945,3.39801 10.99889,9.17075 11.52364,13.27901c0.20579,1.61106 -4.65207,2.8912 -9.08028,1.863c-6.0309,-1.40033 -7.17481,1.22253 -7.17956,1.22692c-1.70208,1.57255 -5.71491,0.11875 -4.43297,4.65292c0.64973,2.29804 -1.12565,3.07361 0.63555,5.31763c0.60358,0.76904 0.77241,3.02074 0.75726,3.04735c-2.21938,3.89837 -13.93647,-1.41696 -17.7787,-5.57565c-7.68436,-8.31725 -7.71066,-21.38573 -1.53518,-27.09128c6.17547,-5.70555 19.40589,-5.03714 27.09025,3.28012z" fill="#00a735" stroke-linecap="butt"></path><path d="M263.78177,191.25015c1.49136,5.97608 -3.22011,12.12188 -10.52335,13.72702c-7.30323,1.60514 -11.56296,0.35745 -13.05431,-5.61863c-1.12903,-4.52416 0.88411,-7.15778 4.49907,-10.47206c0.59056,-0.54143 5.36697,-5.00601 9.75396,-5.10357c4.23107,-0.0941 8.59245,4.53327 9.32464,7.46725z" fill="#ccf280" stroke-linecap="butt"></path><path d="M249.79563,194.20248c-0.92112,0 -1.66784,-1.51215 -1.66784,-3.37749c0,-1.86533 0.74672,-3.37748 1.66784,-3.37748c0.92111,0 1.66783,1.51214 1.66783,3.37748c0,1.86533 -0.74671,3.37749 -1.66783,3.37749z" fill="#000000" stroke-linecap="butt"></path><path d="M257.27691,193.45859c-1.12324,0 -2.0338,-1.42889 -2.0338,-3.19152c0,-1.76262 0.91056,-3.19151 2.0338,-3.19151c1.12324,0 2.0338,1.42888 2.0338,3.19151c0,1.76262 -0.91056,3.19152 -2.0338,3.19152z" fill="#000000" stroke-linecap="butt"></path><path d="M256.72674,197.82485c0,0 -6.72579,3.68114 -8.51118,3.42481c-1.7854,-0.25633 1.10123,-4.48865 1.10123,-4.48865l10.75096,1.51176" fill="#000000" stroke-linecap="round"></path></g></g></svg>