<svg version="1.1" xmlns="http://www.w3.org/2000/svg" xmlns:xlink="http://www.w3.org/1999/xlink" width="83.57462" height="147.12989" viewBox="0,0,83.57462,147.12989"><defs><linearGradient x1="335.90424" y1="86.84036" x2="340.91833" y2="177.49604" gradientUnits="userSpaceOnUse" id="color-1"><stop offset="0" stop-color="#00fcfc" stop-opacity="0"/><stop offset="1" stop-color="#00fcfc"/></linearGradient></defs><g transform="translate(-286.60025,-50.29223)"><g stroke-miterlimit="10"><path d="M322.4258,50.29223c0.06042,0.08845 0.1217,0.17579 0.18386,0.26197c-0.4382,0.00562 -0.87806,0.01375 -1.31933,0.0237c0.37676,-0.09288 0.75539,-0.18817 1.13548,-0.28567z" fill="#9966ff" stroke="none" stroke-width="0.5" stroke-linecap="butt"/><path d="M346.25364,50.96896c0.08479,-0.07446 0.16886,-0.14969 0.2522,-0.22569c0.12508,0.03284 0.25023,0.06604 0.37544,0.09962c-0.20915,0.04235 -0.41836,0.08436 -0.62763,0.12607z" fill="#9966ff" stroke="none" stroke-width="0.5" stroke-linecap="butt"/><path d="M322.66823,170.74842l18.66942,-16.24001l-28.64767,-19.47363l51.86932,-49.77931l-26.60216,47.25179l30.21511,6.42565l-30.57242,38.74669z" fill="url(#color-1)" stroke="none" stroke-width="0" stroke-linecap="round"/><path d="M323.32883,170.26643l14.54044,6.94859l-3.38196,4.59991l-40.41973,11.54906z" fill="#00ffff" stroke="none" stroke-width="0" stroke-linecap="round"/><path d="M341.1386,154.32126l-28.64767,-19.47363l51.86932,-49.77931l-26.60216,47.25179l30.21511,6.42565l-33.16482,43.05141l-42.62259,12.66169z" fill="none" stroke="#000000" stroke-width="2.5" stroke-linecap="round"/></g></g></svg>