<svg version="1.1" xmlns="http://www.w3.org/2000/svg" xmlns:xlink="http://www.w3.org/1999/xlink" width="43.40541" height="51.65228" viewBox="0,0,43.40541,51.65228"><g transform="translate(-218.00868,-154.13541)"><g data-paper-data="{&quot;isPaintingLayer&quot;:true}" fill-rule="nonzero" stroke="#000000" stroke-width="1.28786" stroke-linejoin="miter" stroke-miterlimit="10" stroke-dasharray="" stroke-dashoffset="0" style="mix-blend-mode: normal"><path d="M239.62504,182.12959c0,0 6.16968,-6.67115 9.47052,-8.18234c3.66455,-1.67771 11.53989,-1.43668 11.53989,-1.43668c0,0 -1.27507,6.46752 -6.82873,10.06278c-5.55366,3.59527 -14.1817,-0.44376 -14.1817,-0.44376z" data-paper-data="{&quot;index&quot;:null}" fill="#45d1aa" stroke-linecap="butt"></path><path d="M241.79988,180.42513c0,0 -7.14067,6.30615 -13.48225,4.42111c-6.34159,-1.88504 -9.38707,-7.73138 -9.38707,-7.73138c0,0 7.48845,-2.44993 11.47722,-1.87256c3.59288,0.52006 11.39208,5.18285 11.39208,5.18285z" data-paper-data="{&quot;index&quot;:null}" fill="#45d1aa" stroke-linecap="butt"></path><path d="M233.55779,203.27941c0,0 2.42818,-9.71165 2.86432,-14.15001c0.38755,-3.94377 0.0929,-10.13839 0.0929,-10.13839l3.40165,-2.28725l2.86653,1.25351c0,0 1.23678,7.4255 0.82187,11.64781c-0.41452,4.21839 -3.11877,13.67431 -3.11877,13.67431z" fill="#e3ac21" stroke-linecap="butt"></path><path d="M250.11462,163.21165c3.77627,13.5164 -3.59307,20.68774 -10.65793,20.68774c-7.06485,0 -8.86192,-5.38148 -8.86192,-12.70267c0,-3.31677 -2.13668,-13.27557 -2.13668,-13.27557l4.20587,-3.06491c0,0 3.57186,1.27401 7.8668,3.0234c3.0728,1.25159 8.86705,2.76635 9.58386,5.332z" fill="#45d1aa" stroke-linecap="butt"></path><path d="M240.88756,182.25124c0,0 -2.129,8.10769 -7.82858,8.90876c-5.69959,0.80106 -10.9509,-3.03833 -10.9509,-3.03833c0,0 4.35113,-4.94331 7.62657,-5.96721c2.95034,-0.92227 11.15292,0.09679 11.15292,0.09679z" fill="#45d1aa" stroke-linecap="butt"></path><path d="M240.31309,182.46907c0,0 8.15224,-1.36446 11.13889,-0.56758c3.31574,0.8847 7.87169,5.63993 7.87169,5.63993c0,0 -5.08454,4.05767 -10.81288,3.49794c-5.72833,-0.55972 -8.19771,-8.57031 -8.19771,-8.57031z" data-paper-data="{&quot;index&quot;:null}" fill="#45d1aa" stroke-linecap="butt"></path><path d="M237.24791,203.22393c0,0 3.6025,-3.81514 5.41935,-4.55661c2.01704,-0.82318 6.14521,-0.16301 6.14521,-0.16301c0,0 -1.01781,4.00224 -4.13119,5.91458c-3.11338,1.91234 -7.43338,-1.19497 -7.43338,-1.19497z" data-paper-data="{&quot;index&quot;:null}" fill="#45d1aa" stroke-linecap="butt"></path><path d="M238.80933,203.32675c0,0 -4.32,3.10731 -7.43338,1.19497c-3.11338,-1.91234 -4.13119,-5.91458 -4.13119,-5.91458c0,0 4.12816,-0.66017 6.14521,0.16301c1.81685,0.74147 5.41935,4.55661 5.41935,4.55661z" data-paper-data="{&quot;index&quot;:null}" fill="#45d1aa" stroke-linecap="butt"></path><path d="M234.54363,177.30249c-0.95757,-0.47238 1.33243,-3.28643 1.33243,-3.28643l6.94961,1.72221c0,0 -3.06509,4.13782 -8.28204,1.56422z" fill="#000000" stroke-linecap="round"></path><path d="M232.23505,168.80578l5.35801,-0.85127l-4.53406,4.31877" fill="none" stroke-linecap="round"></path><path d="M246.85445,172.7453l-4.53406,-4.31877l5.35801,0.85127" data-paper-data="{&quot;index&quot;:null}" fill="none" stroke-linecap="round"></path></g></g></svg>