<svg version="1.1" xmlns="http://www.w3.org/2000/svg" xmlns:xlink="http://www.w3.org/1999/xlink" width="736" height="448.52092" viewBox="0,0,736,448.52092"><g transform="translate(53.42363,58.0208)"><g stroke-miterlimit="10"><path d="M-45.92363,273.9792c-4.14213,0 -7.5,-2.3923 -7.5,-5.34335v-321.3133c0,-2.95105 3.35787,-5.34335 7.5,-5.34335h721c4.14214,0 7.5,2.3923 7.5,5.34335v321.3133c0,2.95105 -3.35786,5.34335 -7.5,5.34335z" fill-opacity="0.50196" fill="#000000" stroke="none" stroke-width="0" stroke-linecap="butt"/><path d="M53.50003,72.00007v-87h554v87z" fill="#adadad" stroke="#000000" stroke-width="1" stroke-linecap="butt"/><path d="M124.48893,262.3334v-168h387.02222v168z" fill="#adadad" stroke="#000000" stroke-width="1" stroke-linecap="butt"/><text transform="translate(216.56648,53.01882) scale(0.86836,0.86836)" font-size="40" xml:space="preserve" fill="#000000" stroke="none" stroke-width="1" stroke-linecap="butt" font-family="Sans Serif" font-weight="normal" text-anchor="start"><tspan x="0" dy="0">Zombie Guide</tspan></text><path d="M186.50005,390.00013v-116h79v116z" fill="#adadad" stroke="#000000" stroke-width="1" stroke-linecap="butt"/><path d="M369.50006,390.00013v-116h93v116z" fill="#adadad" stroke="#000000" stroke-width="1" stroke-linecap="butt"/><path d="M317.59979,261.57561v-169" fill="none" stroke="#000000" stroke-width="2" stroke-linecap="round"/><path d="M134.58809,254.28264v-124.5h85.56371v124.5z" fill="#adadad" stroke="#000000" stroke-width="1" stroke-linecap="butt"/><path d="M330.08805,254.28264v-124.5h85.56371v124.5z" fill="#adadad" stroke="#000000" stroke-width="1" stroke-linecap="butt"/><text transform="translate(134.58809,118.78264) scale(0.39293,0.5)" font-size="40" xml:space="preserve" fill="#000000" stroke="none" stroke-width="1" stroke-linecap="butt" font-family="Sans Serif" font-weight="normal" text-anchor="start"><tspan x="0" dy="0">Jack-in-the-box Zombie</tspan></text><text transform="translate(329.58805,119.28264) scale(0.5,0.5)" font-size="40" xml:space="preserve" fill="#000000" stroke="none" stroke-width="1" stroke-linecap="butt" font-family="Sans Serif" font-weight="normal" text-anchor="start"><tspan x="0" dy="0">Pogo Zombie</tspan></text><text transform="translate(226.08808,142.49095) scale(0.24175,0.26044)" font-size="40" xml:space="preserve" fill="#000000" stroke="none" stroke-width="1" stroke-linecap="butt" font-family="Sans Serif" font-weight="normal" text-anchor="start"><tspan x="0" dy="0">HP: 90</tspan><tspan x="0" dy="46.150000000000006px">Speed: Fast</tspan><tspan x="0" dy="46.150000000000006px">Damage: Avg</tspan><tspan x="0" dy="46.150000000000006px">Special: After</tspan><tspan x="0" dy="46.150000000000006px">some seconds,</tspan><tspan x="0" dy="46.150000000000006px">it explodes him-</tspan><tspan x="0" dy="46.150000000000006px">self and all the</tspan><tspan x="0" dy="46.150000000000006px">plants surrounding</tspan><tspan x="0" dy="46.150000000000006px">him</tspan></text><text transform="translate(420.0881,143.03262) scale(0.20857,0.31943)" font-size="40" xml:space="preserve" fill="#000000" stroke="none" stroke-width="1" stroke-linecap="butt" font-family="Sans Serif" font-weight="normal" text-anchor="start"><tspan x="0" dy="0">HP: 40</tspan><tspan x="0" dy="46.150000000000006px">Speed: Fast</tspan><tspan x="0" dy="46.150000000000006px">Damage: None</tspan><tspan x="0" dy="46.150000000000006px">Special: Jumps over</tspan><tspan x="0" dy="46.150000000000006px">plants</tspan></text><g stroke="#000000" stroke-width="0.5"><path d="M370.1169,207.84464l14.5292,-8.97365l6.684,7.79513l-11.19585,11.19585z" fill="#a7a7a7" stroke-linecap="butt"/><path d="M371.31277,218.00089l-11.19585,-11.19585l6.68403,-7.79513l14.5292,8.97363z" fill="#a7a7a7" stroke-linecap="butt"/><path d="M371.69571,240.72763v-10.27778h7.77778v10.27778z" fill="#a7a7a7" stroke-linecap="butt"/><path d="M365.12837,203.08879v-61.86473h20.32895v61.86473z" fill="#0b8100" stroke-linecap="butt"/><path d="M365.15747,203.08259v-19.50725h20.51515v19.50725z" fill="#444444" stroke-linecap="butt"/><path d="M373.95772,159.94831c0,6.15215 -1.57468,11.13948 -3.51713,11.13948c-1.94245,0 -3.51713,-4.9873 -3.51713,-11.13948c0,-6.15215 1.57468,-11.13948 3.51713,-11.13948c1.94245,0 3.51713,4.9873 3.51713,11.13948z" fill="#000000" stroke-linecap="butt"/><path d="M351.41795,206.8387v-10.1389h48.33333v10.1389z" fill="#ff0000" stroke-linecap="butt"/><path d="M369.33462,233.50539v-38.33333h12.22223v38.33333z" fill="#ff0000" stroke-linecap="butt"/><path d="M381.83462,168.08877l-2.77778,-0.1389l-3.75,6.1111l-9.72223,-0.1389" fill="none" stroke-linecap="round"/></g><g stroke-linecap="butt"><path d="M156.23138,203.08824l-8.07224,4.59315l6.39067,-20.03531l28.644,-10.39919l5.18423,13.45674l-29.52058,5.74839z" fill="#ffffff" stroke="#000000" stroke-width="0.5"/><path d="M164.11477,196.50877l-9.63737,-10.75328l3.76365,-3.37307l9.63737,10.75328z" fill="#ffa661" stroke="#000000" stroke-width="0.5"/><g stroke="#000000" stroke-width="0.5"><path d="M155.32975,214.85984v-24.2591h23.39268v24.2591z" fill="#ff0000"/><path d="M157.64012,198.25393v-7.36435h18.7719v7.36435z" fill="#00f5ff"/></g><path d="M174.78248,243.4761v-104.3178h21.1355v104.3178z" fill="#0b8100" stroke="#000000" stroke-width="0.5"/><path d="M174.81274,243.61405v-60.42418h21.32908v60.42418z" fill="#ffffff" stroke="#000000" stroke-width="0.5"/><path d="M184.7532,160.09452c0,6.39624 -1.63715,11.58143 -3.65667,11.58143c-2.01952,0 -3.65667,-5.18517 -3.65667,-11.58143c0,-6.39624 1.63715,-11.58143 3.65667,-11.58143c2.01952,0 3.65667,5.18517 3.65667,11.58143z" fill="#000000" stroke="#000000" stroke-width="0.5"/><path d="M177.17171,169.49965c0,-3.58872 2.06968,-5.92755 4.25978,-6.78676c5.15302,-2.0216 4.71973,-0.94096 5.47786,0.11985c0.84889,1.18785 -0.3517,4.19358 -0.3517,6.08932c0,3.58872 -1.90718,6.49797 -4.25978,6.49797c-2.3526,0 -5.12617,-2.33165 -5.12617,-5.92038z" fill="#0b8100" stroke="none" stroke-width="0"/><path d="M169.76559,216.7121l-9.02407,1.60113l0.49283,-13.22776l26.18634,-19.08058l1.88886,13.35943l-16.78105,8.53274z" fill="#ffffff" stroke="#000000" stroke-width="0.5"/><path d="M176.53311,209.64908l-9.63737,-10.75328l3.76365,-3.37307l9.63737,10.75328z" fill="#ffa661" stroke="#000000" stroke-width="0.5"/><path d="M184.0652,202.29713v-17.61672h6.93117v17.61672z" fill="#ffa661" stroke="#000000" stroke-width="0.5"/><path d="M174.39045,219.19183v-6.20917h22.5263v6.20917z" fill="#ffa661" stroke="#000000" stroke-width="0.5"/><path d="M171.50246,183.95841v-7.94197h29.02426v7.94197z" fill="#ffa661" stroke="#000000" stroke-width="0.5"/></g><text transform="translate(226.58806,251.49772) scale(0.2439,0.2439)" font-size="40" xml:space="preserve" fill="#ff0000" stroke="none" stroke-width="1" stroke-linecap="butt" font-family="Sans Serif" font-weight="normal" text-anchor="start"><tspan x="0" dy="0">Pos-Adv exclusive</tspan></text><text transform="translate(421.4214,251.49774) scale(0.2439,0.2439)" font-size="40" xml:space="preserve" fill="#ff0000" stroke="none" stroke-width="1" stroke-linecap="butt" font-family="Sans Serif" font-weight="normal" text-anchor="start"><tspan x="0" dy="0">Pos-Adv exclusive</tspan></text></g></g></svg>