<svg version="1.1" xmlns="http://www.w3.org/2000/svg" xmlns:xlink="http://www.w3.org/1999/xlink" width="64.75469" height="88.31113" viewBox="0,0,64.75469,88.31113"><defs><linearGradient x1="239.95335" y1="137.60904" x2="239.95335" y2="222.423" gradientUnits="userSpaceOnUse" id="color-1"><stop offset="0" stop-color="#555555"></stop><stop offset="1" stop-color="#00ff94"></stop></linearGradient><linearGradient x1="239.59165" y1="209.50508" x2="239.59165" y2="222.31903" gradientUnits="userSpaceOnUse" id="color-2"><stop offset="0" stop-color="#7c7c7c"></stop><stop offset="1" stop-color="#7a7a7a"></stop></linearGradient><linearGradient x1="212.41661" y1="137.47504" x2="212.41661" y2="222.28904" gradientUnits="userSpaceOnUse" id="color-3"><stop offset="0" stop-color="#969696"></stop><stop offset="1" stop-color="#7a7a7a"></stop></linearGradient><linearGradient x1="267.75417" y1="137.5438" x2="267.75417" y2="222.3578" gradientUnits="userSpaceOnUse" id="color-4"><stop offset="0" stop-color="#969696"></stop><stop offset="1" stop-color="#7a7a7a"></stop></linearGradient><linearGradient x1="226.45663" y1="190.41054" x2="226.45663" y2="211.41242" gradientUnits="userSpaceOnUse" id="color-5"><stop offset="0" stop-color="#858585"></stop><stop offset="1" stop-color="#818181"></stop></linearGradient><linearGradient x1="245.03236" y1="202.99758" x2="245.03236" y2="215.15598" gradientUnits="userSpaceOnUse" id="color-6"><stop offset="0" stop-color="#808080"></stop><stop offset="1" stop-color="#7d7d7d"></stop></linearGradient></defs><g transform="translate(-207.15142,-137.3709)"><g data-paper-data="{&quot;isPaintingLayer&quot;:true}" fill-rule="nonzero" stroke-linejoin="miter" stroke-miterlimit="10" stroke-dasharray="" stroke-dashoffset="0" style="mix-blend-mode: normal"><path d="M271.40105,137.60904v84.81396h-62.89539v-84.81396z" data-paper-data="{&quot;index&quot;:null}" fill="url(#color-1)" stroke="none" stroke-width="0" stroke-linecap="butt"></path><g stroke="#000000" stroke-width="1.28786"><path d="M236.70567,183.70225v-17.56979h7.52991v17.56979z" fill="#c9c9c9" stroke-linecap="butt"></path><path d="M247.5822,163.09957c0,4.21641 -3.27761,7.63449 -7.32074,7.63449c-4.04314,0 -7.32074,-3.41808 -7.32074,-7.63449c0,-4.21641 3.27761,-7.63449 7.32074,-7.63449c4.04314,0 7.32074,3.41808 7.32074,7.63449z" fill="#ff0000" stroke-linecap="butt"></path><path d="M240.00001,203.2591c-11.60958,0 -20.39351,1.51331 -20.39351,-7.84366c0,-9.35697 9.09768,-18.82478 20.70726,-18.82478c11.60958,0 21.33475,9.46781 21.33475,18.82478c0,9.35697 -10.03892,7.84366 -21.6485,7.84366z" fill="#ffe49d" stroke-linecap="butt"></path><path d="M223.99894,196.67043c0,2.77244 -2.0368,5.01994 -4.54932,5.01994c-2.51252,0 -4.54932,-2.2475 -4.54932,-5.01994c0,-2.77244 2.0368,-5.01994 4.54932,-5.01994c2.51252,0 4.54932,2.2475 4.54932,5.01994z" fill="#960000" stroke-linecap="butt"></path><path d="M228.23452,206.39656c-2.68579,0 -4.86307,-2.31774 -4.86307,-5.17681c0,-2.85907 2.17727,-5.17681 4.86307,-5.17681c2.68579,0 4.86307,2.31774 4.86307,5.17681c0,2.85907 -2.17727,5.17681 -4.86307,5.17681z" fill="#960000" stroke-linecap="butt"></path><path d="M233.72508,202.31786c0,-2.77244 2.2475,-5.01994 5.01994,-5.01994c2.77244,0 5.01994,2.2475 5.01994,5.01994c0,2.77244 -2.2475,5.01994 -5.01994,5.01994c-2.77244,0 -5.01994,-2.2475 -5.01994,-5.01994z" fill="#960000" stroke-linecap="butt"></path><path d="M255.05983,201.69037c0,2.77244 -2.38797,5.01994 -5.33369,5.01994c-2.94571,0 -5.33369,-2.2475 -5.33369,-5.01994c0,-2.77244 2.38797,-5.01994 5.33369,-5.01994c2.94571,0 5.33369,2.2475 5.33369,5.01994z" fill="#960000" stroke-linecap="butt"></path><path d="M265.0997,198.5529c0,2.42589 -2.10703,4.39245 -4.7062,4.39245c-2.59916,0 -4.7062,-1.96656 -4.7062,-4.39245c0,-2.42589 2.10703,-4.39245 4.7062,-4.39245c2.59916,0 4.7062,1.96656 4.7062,4.39245z" fill="#960000" stroke-linecap="butt"></path><path d="M243.18977,185.37554c0,2.65692 -0.93646,4.81079 -2.09163,4.81079c-1.15519,0 -2.09163,-2.15387 -2.09163,-4.81079c0,-2.65692 0.93646,-4.81077 2.09163,-4.81077c1.15519,0 2.09163,2.15386 2.09163,4.81077z" fill="#000000" stroke-linecap="butt"></path><path d="M249.25552,185.0618c0,2.59916 -0.70234,4.7062 -1.56873,4.7062c-0.86639,0 -1.56873,-2.10703 -1.56873,-4.7062c0,-2.59916 0.70234,-4.7062 1.56873,-4.7062c0.86639,0 1.56873,2.10703 1.56873,4.7062z" fill="#000000" stroke-linecap="butt"></path><path d="M239.42481,192.6963c0,0 -5.01969,0.7776 -10.95605,-3.50758c-1.59046,-1.14807 -0.12965,-2.97651 -0.12965,-2.97651" fill="none" stroke-linecap="round"></path><path d="M224.5539,191.70411l3.10182,-4.19257c0,0 0.3714,0.63944 0.93125,1.53989c0.41853,0.67314 3.0493,2.46175 3.0493,2.46175l-2.04206,3.35592z" fill="#ffffff" stroke-linecap="butt"></path></g><path d="M208.14395,222.31903v-12.81396h62.89539v12.81396z" fill="url(#color-2)" stroke="none" stroke-width="0" stroke-linecap="butt"></path><path d="M208.09391,222.28904v-84.81396h8.64539v84.81396z" fill="url(#color-3)" stroke="none" stroke-width="0" stroke-linecap="butt"></path><path d="M263.68149,222.3578v-84.81396h8.14539v84.81396z" fill="url(#color-4)" stroke="none" stroke-width="0" stroke-linecap="butt"></path><path d="M208.14395,147.839v-10.31396h62.89539v10.31396z" fill="#969696" stroke="none" stroke-width="0" stroke-linecap="butt"></path><path d="M215.88897,211.41242v-21.00188l21.13534,21.00188z" fill="url(#color-5)" stroke="none" stroke-width="0" stroke-linecap="butt"></path><path d="M223.00344,215.15598v-12.15842h44.05785v12.15842z" fill="url(#color-6)" stroke="none" stroke-width="0" stroke-linecap="butt"></path><text transform="translate(246.10653,219.43203) scale(0.47116,0.5)" font-size="40" xml:space="preserve" fill="#000000" fill-rule="nonzero" stroke="none" stroke-width="1" stroke-linecap="butt" stroke-linejoin="miter" stroke-miterlimit="10" stroke-dasharray="" stroke-dashoffset="0" font-family="Sans Serif" font-weight="normal" text-anchor="start" style="mix-blend-mode: normal"><tspan x="0" dy="0">25</tspan></text><g stroke-linecap="butt"><path d="M223.52763,213.62545l-2.65375,6.84999l-2.38631,-6.84999z" data-paper-data="{&quot;index&quot;:null}" fill="#ffff00" stroke="#ffff00" stroke-width="1"></path><path d="M218.55938,202.24964l2.38632,-6.84999l2.65375,6.84999z" fill="#ffff00" stroke="#ffff00" stroke-width="1"></path><path d="M214.37597,208.14881c0,-3.72115 3.01658,-6.73773 6.73773,-6.73773c3.72115,0 6.73772,3.01658 6.73772,6.73773c0,3.72115 -3.01658,6.73772 -6.73772,6.73772c-3.72115,0 -6.73773,-3.01658 -6.73773,-6.73772z" fill="#ffff00" stroke="none" stroke-width="0"></path><path d="M226.80398,205.61371l6.87114,2.59848l-6.83054,2.44142z" data-paper-data="{&quot;index&quot;:null}" fill="#ffff00" stroke="#ffff00" stroke-width="1"></path><path d="M215.46854,210.67344l-6.86899,-2.33105l6.82838,-2.70885z" fill="#ffff00" stroke="#ffff00" stroke-width="1"></path><path d="M227.11957,210.2602l3.04475,6.68537l-6.56714,-3.08051z" data-paper-data="{&quot;index&quot;:null}" fill="#ffff00" stroke="#ffff00" stroke-width="1"></path><path d="M215.51089,205.86342l-3.23165,-6.49409l6.75404,2.88922z" fill="#ffff00" stroke="#ffff00" stroke-width="1"></path><path d="M223.679,202.3176l6.66063,-3.0985l-3.02751,6.59174z" data-paper-data="{&quot;index&quot;:null}" fill="#ffff00" stroke="#ffff00" stroke-width="1"></path><path d="M219.37585,213.96131l-6.46785,3.28387l2.83472,-6.7771z" fill="#ffff00" stroke="#ffff00" stroke-width="1"></path><path d="M216.39222,208.34939c0,-2.70702 2.19448,-4.90151 4.9015,-4.90151c2.70702,0 4.90151,2.19448 4.90151,4.90151c0,2.70702 -2.19448,4.9015 -4.90151,4.9015c-2.70702,0 -4.9015,-2.19448 -4.9015,-4.9015z" fill="#fffff7" stroke="none" stroke-width="0"></path></g><path d="M271.90611,137.3709v33.64619l-33.86,-33.64619z" fill="#ff0000" stroke="none" stroke-width="0" stroke-linecap="butt"></path></g></g></svg>