<svg version="1.1" xmlns="http://www.w3.org/2000/svg" xmlns:xlink="http://www.w3.org/1999/xlink" width="217.36335" height="82.46306" viewBox="0,0,217.36335,82.46306"><g transform="translate(-308.66063,-51.89554)"><g stroke-miterlimit="10"><path d="M309.41064,133.60859v-73.98969h193.26473l22.18786,-6.59586l-6.23933,18.95338v61.63218z" fill="#a0a0a0" stroke="#000000" stroke-width="1.5"/><path d="M313.11676,72.07099h19.28607v18.75629z" fill="#fffa00" stroke="#000000" stroke-width="1.5"/><text transform="translate(339.09135,86.71634) scale(0.35715,0.5)" font-size="40" xml:space="preserve" fill="#000000" stroke="none" stroke-width="1" font-family="Sans Serif" font-weight="normal" text-anchor="start"><tspan x="0" dy="0">- Sun</tspan></text><path d="M312.77238,104.07438h17.97833v18.13357z" fill="#ff0000" stroke="#000000" stroke-width="1.5"/><text transform="translate(333.01263,117.66314) scale(0.25867,0.5)" font-size="40" xml:space="preserve" fill="#000000" stroke="none" stroke-width="1" font-family="Sans Serif" font-weight="normal" text-anchor="start"><tspan x="0" dy="0">- Explosive</tspan></text><path d="M383.85056,71.03116h16.65545v17.88853z" fill="#00ff31" stroke="#000000" stroke-width="1.5"/><text transform="translate(404.37044,86.32733) scale(0.30843,0.5)" font-size="40" xml:space="preserve" fill="#000000" stroke="none" stroke-width="1" font-family="Sans Serif" font-weight="normal" text-anchor="start"><tspan x="0" dy="0">- Attack</tspan></text><path d="M450.78418,70.67565h15.2374v18.10547z" fill="#00d6ff" stroke="#000000" stroke-width="1.5"/><text transform="translate(469.2821,85.321) scale(0.23611,0.5)" font-size="40" xml:space="preserve" fill="#000000" stroke="none" stroke-width="1" font-family="Sans Serif" font-weight="normal" text-anchor="start"><tspan x="0" dy="0">- Support</tspan></text><path d="M386.33961,105.41675h14.8018v17.88853z" fill="#9500ea" stroke="#000000" stroke-width="1.5"/><text transform="translate(403.58722,118.41233) scale(0.19884,0.5)" font-size="40" xml:space="preserve" fill="#000000" stroke="none" stroke-width="1" font-family="Sans Serif" font-weight="normal" text-anchor="start"><tspan x="0" dy="0">- Poisioning</tspan></text><path d="M451.43192,105.90388h13.91224v17.49488z" fill="#ffe000" stroke="#000000" stroke-width="1.5"/><text transform="translate(467.23711,119.94129) scale(0.22856,0.5)" font-size="40" xml:space="preserve" fill="#000000" stroke="none" stroke-width="1" font-family="Sans Serif" font-weight="normal" text-anchor="start"><tspan x="0" dy="0">- Debuffers</tspan></text></g></g></svg>