<svg version="1.1" xmlns="http://www.w3.org/2000/svg" xmlns:xlink="http://www.w3.org/1999/xlink" width="138.48481" height="148.05445" viewBox="0,0,138.48481,148.05445"><g transform="translate(-171.28856,151.21647)"><g data-paper-data="{&quot;isPaintingLayer&quot;:true}" fill-rule="nonzero" stroke="#000000" stroke-width="1" stroke-linejoin="miter" stroke-miterlimit="10" stroke-dasharray="" stroke-dashoffset="0" style="mix-blend-mode: normal"><path d="M171.78857,-3.66202v-12.73688l13.44994,-44.37322h110.08606l13.9488,43.66582v13.44428z" fill="#afafaf" stroke-linecap="butt"></path><g fill="#e0e0e0"><path d="M268.66099,-147.23417c0,0 23.61394,6.22907 24.38152,19.55156c0.85368,14.81695 -33.39813,17.80195 -33.39813,17.80195l8.21494,-5.75915c0,0 18.40212,-2.6649 17.7225,-12.37412c-0.51421,-7.34613 -17.14294,-14.94717 -17.14294,-14.94717z" data-paper-data="{&quot;index&quot;:null}" stroke-linecap="butt"></path><path d="M209.57787,-143.59639c0,0 -16.62873,7.60104 -17.14294,14.94717c-0.67962,9.70922 17.7225,12.37412 17.7225,12.37412l8.21494,5.75915c0,0 -34.25181,-2.985 -33.39812,-17.80195c0.76758,-13.3225 24.38152,-19.55156 24.38152,-19.55156z" data-paper-data="{&quot;index&quot;:null}" stroke-linecap="butt"></path><path d="M272.31185,-60.18715l-7.80307,-7.80307h-19.63355v-32.21915c0,0 8.15873,-3.47403 21.41145,-12.66164c12.06468,-8.36399 9.29743,-37.74348 9.29743,-37.74348l-71.26108,-0.10133c0,0 -2.76724,29.37949 9.29744,37.74348c13.25271,9.18761 21.41144,12.66164 21.41144,12.66164v32.21915h-19.63355l-7.80307,7.80307z" data-paper-data="{&quot;index&quot;:null}" stroke-linecap="round"></path><path d="M224.13468,-99.59264l-30.84298,-13.08164l5.51723,19.68818l9.93672,-2.48418l-2.89821,9.93672l23.18568,-8.69463z" stroke-linecap="round"></path><path d="M256.9784,-99.38511l30.84298,-13.08164l-5.51723,19.68818l-9.93672,-2.48418l2.89821,9.93672l-23.18568,-8.69463z" data-paper-data="{&quot;index&quot;:null}" stroke-linecap="round"></path></g></g></g></svg>