<svg version="1.1" xmlns="http://www.w3.org/2000/svg" xmlns:xlink="http://www.w3.org/1999/xlink" width="170.25225" height="54.39505" viewBox="0,0,170.25225,54.39505"><g transform="translate(-154.87387,-152.80248)"><g data-paper-data="{&quot;isPaintingLayer&quot;:true}" fill-rule="nonzero" stroke-linecap="butt" stroke-linejoin="miter" stroke-miterlimit="10" stroke-dasharray="" stroke-dashoffset="0" style="mix-blend-mode: normal"><path d="M155.37388,206.69753v-46.7388v-6.65625c0,0 3.9213,0 8.5558,0c20.08515,0 160.69645,0 160.69645,0v53.39505z" fill="#afafaf" stroke="#000000" stroke-width="1"></path><text transform="translate(157.27829,188.37257) scale(0.70254,0.70254)" font-size="40" xml:space="preserve" fill="#000000" fill-rule="nonzero" stroke="none" stroke-width="1" stroke-linecap="butt" stroke-linejoin="miter" stroke-miterlimit="10" stroke-dasharray="" stroke-dashoffset="0" font-family="Sans Serif" font-weight="normal" text-anchor="start" style="mix-blend-mode: normal"><tspan x="0" dy="0">ENDLESS</tspan></text><g fill="none" stroke="#000000" stroke-width="2"><path d="M284.75347,172.82331c1.92408,-4.82712 7.39702,-7.18049 12.22413,-5.25641c4.82712,1.92408 7.18049,7.39702 5.25641,12.22413c-1.92408,4.82712 -7.39702,7.18049 -12.22413,5.25641c-4.82712,-1.92408 -7.18049,-7.39702 -5.25641,-12.22413z"></path><path d="M301.49831,179.98263c1.92408,-4.82712 7.39702,-7.18049 12.22413,-5.25641c4.82712,1.92408 7.18049,7.39702 5.25641,12.22413c-1.92408,4.82712 -7.39702,7.18049 -12.22413,5.25641c-4.82712,-1.92408 -7.18049,-7.39702 -5.25641,-12.22413z"></path></g></g></g></svg>