<svg version="1.1" xmlns="http://www.w3.org/2000/svg" xmlns:xlink="http://www.w3.org/1999/xlink" width="804" height="537" viewBox="0,0,804,537"><g transform="translate(82,88.5)"><g stroke-miterlimit="10"><path d="M-82,448.5v-537h804v537z" fill-opacity="0.42745" fill="#000000" stroke="none" stroke-width="0" stroke-linecap="butt"/><path d="M484.34548,216.10662c2.4924,-9.12117 17.2534,-13.03393 32.96968,-8.73941c15.71626,4.29453 26.43635,15.17009 23.94395,24.29123c-2.4924,9.12117 -17.2534,13.03393 -32.96968,8.73938c-15.71626,-4.29453 -26.43635,-15.17006 -23.94395,-24.29123z" fill="#00ff07" stroke="#000000" stroke-width="2.5" stroke-linecap="butt"/><path d="M447.26334,241.64587c-0.2818,0 -0.51026,-0.82069 -0.51026,-1.83304c0,-1.01238 0.22846,-1.83304 0.51026,-1.83304c0.28178,0 0.51024,0.82069 0.51024,1.83304c0,1.01238 -0.22844,1.83304 -0.51024,1.83304z" fill="#ba0000" stroke="#000000" stroke-width="1.28786" stroke-linecap="butt"/><path d="M451.03057,214.40447c10.95917,-9.18329 25.04397,-10.42152 31.45923,-2.76567c6.41527,7.65588 2.73169,21.30668 -8.22748,30.49002c-10.95917,9.18329 -25.04397,10.42155 -31.45923,2.76569c-6.41527,-7.65585 -2.73169,-21.30668 8.22748,-30.49002z" fill="#00ff07" stroke="#000000" stroke-width="2.5" stroke-linecap="butt"/><path d="M452.27132,188.31811c0,-5.99781 11.73941,-8.04059 14.76203,-12.92508c6.39201,-10.32933 8.5784,-20.90078 22.58086,-20.90078c20.62389,0 37.34286,15.14436 37.34286,33.82588c0,18.68154 -16.71897,33.82588 -37.34286,33.82588c-20.62389,0 -37.34286,-15.14436 -37.34286,-33.82588z" fill="#ffffff" stroke="#000000" stroke-width="2.5" stroke-linecap="butt"/><path d="M506.1266,157.09179c7.26154,2.55566 15.37067,12.62405 18.03757,22.12335c2.93759,10.46343 -0.04255,20.35737 -2.33381,21.53004c-5.83772,2.98782 -10.65531,-7.99898 -22.55427,-15.43316c-24.85289,-15.52745 -32.03795,-5.95821 -28.03265,-17.33868c4.00532,-11.38044 19.62304,-16.25229 34.88316,-10.88155z" fill="#c06fc9" stroke="#000000" stroke-width="2.5" stroke-linecap="butt"/><path d="M506.75065,170.1817l25.40147,-16.55508l-11.19154,28.89886z" fill="#c06fc9" stroke="#000000" stroke-width="2.5" stroke-linecap="butt"/><path d="M474.42548,165.3075l1.09288,-30.97095l16.82977,25.22032z" fill="#c06fc9" stroke="#000000" stroke-width="2.5" stroke-linecap="butt"/><path d="M529.10468,141.94967c0,0 13.94748,19.46982 13.12977,30.9475c-0.91863,12.8939 -18.37409,42.66275 -18.37409,42.66275l-13.08184,-6.35922c0,0 14.23588,-15.68366 18.90347,-36.70112c2.94525,-13.26199 -11.31272,-17.78827 -11.31272,-17.78827l10.7354,-12.76159z" fill="#7a7a7a" stroke="#000000" stroke-width="2.5" stroke-linecap="butt"/><path d="M504.54831,147.30981c-3.26139,-2.95498 -9.86172,-7.64486 -10.24987,-9.51968c-0.68555,-3.31131 6.33966,0.12308 10.65682,-5.73496c2.31964,-3.14756 0.91682,-9.07585 4.56232,-8.31797c2.11111,0.43888 9.12556,6.14217 12.53587,9.23209c9.29928,8.42562 12.91917,18.46614 8.08528,22.42617c-4.8339,3.96 -16.29113,0.33995 -25.59041,-8.08568z" fill="#a3a3a3" stroke="#000000" stroke-width="2.5" stroke-linecap="butt"/><path d="M493.99822,138.47105c-1.82675,-1.57716 0.04535,-6.37769 4.18146,-10.72233c4.1361,-4.34463 8.96991,-6.58813 10.79663,-5.01097c1.82675,1.57716 -0.04534,6.37771 -4.18145,10.72235c-4.1361,4.34464 -8.96991,6.58812 -10.79663,5.01097z" fill="#606060" stroke="#000000" stroke-width="2.5" stroke-linecap="butt"/><path d="M510.0162,141.7204l-4.1506,-2.8363l8.63508,-11.18304l4.15061,2.83628z" fill="#00fff9" stroke="#000000" stroke-width="2.5" stroke-linecap="butt"/><path d="M519.48755,146.07298l-4.0925,-3.10041l6.49428,-8.72092l4.1506,2.83629z" fill="#00fff9" stroke="#000000" stroke-width="2.5" stroke-linecap="butt"/><path d="M527.07853,150.63598l-3.21174,-2.12436l3.97852,-5.88636l3.73614,3.27059z" fill="#00fff9" stroke="#000000" stroke-width="2.5" stroke-linecap="butt"/><path d="M480.60134,200.23529l4.47755,-21.90858l27.24304,7.29936l-5.95323,21.49289z" fill="#00fff9" stroke="#000000" stroke-width="2.5" stroke-linecap="butt"/><path d="M506.95572,207.62889l6.52568,-22.17013l13.36841,3.16517c0,0 -1.1243,8.27321 -2.69399,11.96995c-1.64151,3.86585 -6.94928,10.74052 -6.94928,10.74052z" fill="#adadad" stroke="#000000" stroke-width="2.5" stroke-linecap="butt"/><path d="M182.16857,348.9183v-125.38367h391.67136v125.38367z" fill="#ffdc5f" stroke="#000000" stroke-width="2.5" stroke-linecap="butt"/><text transform="translate(437.50133,251.25642) scale(0.5,0.5)" font-size="40" xml:space="preserve" fill="#000000" stroke="none" stroke-width="1" stroke-linecap="butt" font-family="Sans Serif" font-weight="normal" text-anchor="start"><tspan x="0" dy="0">NEO Cattail</tspan></text><text transform="translate(202.95635,298.05286) scale(0.65202,0.66667)" font-size="40" xml:space="preserve" fill="#000000" stroke="none" stroke-width="1" stroke-linecap="butt" font-family="Sans Serif" font-weight="normal" text-anchor="start"><tspan x="0" dy="0">DIE ZOMBOSS DIE</tspan></text><path d="M514.26424,336.72729v-31.49591l33.54755,17.69586z" fill="#bdae78" stroke="#000000" stroke-width="2.5" stroke-linecap="butt"/><path d="M467.20586,186.57148l-2,14.5" fill="none" stroke="#000000" stroke-width="2.5" stroke-linecap="round"/><path d="M483.85586,189.77148v9.75" fill="none" stroke="#00c8c8" stroke-width="2.5" stroke-linecap="round"/><path d="M460.27775,176.71687l9,10.42857" fill="none" stroke="#000000" stroke-width="2.5" stroke-linecap="round"/><path d="M479.1349,191.11687l12.28571,-5.28571" fill="none" stroke="#00c8c8" stroke-width="2.5" stroke-linecap="round"/><path d="M478.04918,213.85973c0,0 4.7757,-2.74916 7.74377,-3.2559c2.88682,-0.49287 9.82766,0.2559 9.82766,0.2559c0,0 2.38818,4.27209 0.57143,4.85714c-1.81675,0.58506 -10.57143,-4.28571 -10.57143,-4.28571" fill="none" stroke="#000000" stroke-width="2.5" stroke-linecap="round"/><path d="M459.37775,201.74544c0,-1.38071 1.11929,-2.5 2.5,-2.5c1.38071,0 2.5,1.11929 2.5,2.5c0,1.38071 -1.11929,2.5 -2.5,2.5c-1.38071,0 -2.5,-1.11929 -2.5,-2.5z" fill="#00fff9" stroke="none" stroke-width="0.5" stroke-linecap="butt"/><path d="M485.34918,200.63115c0,-1.38071 1.11929,-2.5 2.5,-2.5c1.38071,0 2.5,1.11929 2.5,2.5c0,1.38071 -1.11929,2.5 -2.5,2.5c-1.38071,0 -2.5,-1.11929 -2.5,-2.5z" fill="#00afac" stroke="none" stroke-width="0.5" stroke-linecap="butt"/><path d="M498.28662,129.26333c1.17356,-1.76294 3.03501,-2.58624 4.15769,-1.8389c1.12267,0.74735 1.08144,2.78233 -0.09213,4.54526c-1.17356,1.76294 -3.03501,2.58624 -4.15769,1.8389c-1.12267,-0.74735 -1.08144,-2.78233 0.09213,-4.54526z" fill="#00fff9" stroke="#000000" stroke-width="2.5" stroke-linecap="butt"/></g></g></svg>