<svg version="1.1" xmlns="http://www.w3.org/2000/svg" xmlns:xlink="http://www.w3.org/1999/xlink" width="88.36126" height="417.12952" viewBox="0,0,88.36126,417.12952"><defs><linearGradient x1="336.56548" y1="-4.50533" x2="336.56548" y2="194.93096" gradientUnits="userSpaceOnUse" id="color-1"><stop offset="0" stop-color="#41d1ff"/><stop offset="1" stop-color="#26fff0"/></linearGradient></defs><g transform="translate(-292.5655,16.95234)"><g stroke="none" stroke-miterlimit="10"><path d="M292.84042,194.93095v-199.43628h87.45009v199.43629z" fill="url(#color-1)" stroke-width="NaN"/><path d="M345.58449,-2.98164c0,-0.32493 0.5272,1.49555 0.53194,1.17217c5.08634,-0.04663 34.59783,-0.10609 34.59783,-0.10609c0,0 0.23227,32.74034 0.21114,49.80407c-0.06673,0.00051 -1.75953,0.50076 -1.82634,0.50076c-19.37913,0 -32.98973,-21.39922 -32.98973,-47.7965z" fill="#eaff40" stroke-width="0"/><g fill="#ffffff" stroke-width="0"><path d="M315.87883,168.27444c0,8.84302 -4.55926,16.01171 -10.18339,16.01171c-5.62413,0 -10.1834,-7.16869 -10.1834,-16.01171c0,-8.84302 4.55927,-16.01171 10.1834,-16.01171c5.62413,0 10.18339,7.16869 10.18339,16.01171z"/><path d="M313.23183,140.83255c5.54753,0 10.04469,6.66822 10.04469,14.89388c0,8.22566 -4.49717,14.89388 -10.04469,14.89388c-5.54753,0 -10.04469,-6.66822 -10.04469,-14.89388c0,-8.22566 4.49717,-14.89388 10.04469,-14.89388z"/><path d="M324.17308,168.31302c2.01972,7.68783 0.20749,15.60154 -4.04772,17.67578c-4.25522,2.07424 -9.34205,-2.47647 -11.36177,-10.16429c-2.01972,-7.68783 -0.2075,-15.60154 4.04772,-17.67578c4.25522,-2.07424 9.34206,2.47647 11.36178,10.16429z"/><path d="M325.99286,154.27797c5.72627,0 10.36833,3.83458 10.36833,8.56477c0,4.73019 -4.64206,8.56477 -10.36833,8.56477c-5.72627,0 -10.36833,-3.83458 -10.36833,-8.56477c0,-4.73019 4.64206,-8.56477 10.36833,-8.56477z"/><path d="M327.93475,190.8042c-4.96022,0 -8.98127,-4.98354 -8.98127,-11.13105c0,-6.14751 4.02105,-11.13105 8.98127,-11.13105c4.96022,0 8.98127,4.98354 8.98127,11.13105c0,6.14751 -4.02105,11.13105 -8.98127,11.13105z"/></g><g fill="#ffffff" stroke-width="0"><path d="M366.48332,111.91864c5.62413,0 10.1834,7.16869 10.1834,16.01171c0,8.84302 -4.55927,16.01171 -10.1834,16.01171c-5.62413,0 -10.18339,-7.16869 -10.18339,-16.01171c0,-8.84302 4.55926,-16.01171 10.18339,-16.01171z"/><path d="M368.99161,115.38234c0,8.22566 -4.49716,14.89388 -10.04469,14.89388c-5.54752,0 -10.04469,-6.66822 -10.04469,-14.89388c0,-8.22566 4.49717,-14.89388 10.04469,-14.89388c5.54753,0 10.04469,6.66822 10.04469,14.89388z"/><path d="M359.36744,117.80464c4.25521,2.07424 6.06743,9.98796 4.04772,17.67577c-2.01972,7.68782 -7.10656,12.23853 -11.36177,10.16429c-4.25522,-2.07424 -6.06744,-9.98795 -4.04772,-17.67577c2.01972,-7.68782 7.10656,-12.23853 11.36177,-10.16429z"/><path d="M356.55423,122.49865c0,4.73019 -4.64207,8.56477 -10.36834,8.56477c-5.72627,0 -10.36833,-3.83458 -10.36833,-8.56477c0,-4.73019 4.64206,-8.56477 10.36833,-8.56477c5.72627,0 10.36834,3.83458 10.36834,8.56477z"/><path d="M335.26273,139.32906c0,-6.14751 4.02105,-11.13105 8.98128,-11.13105c4.96022,0 8.98127,4.98354 8.98127,11.13105c0,6.14751 -4.02106,11.13105 -8.98127,11.13105c-4.96022,0 -8.98126,-4.98354 -8.98126,-11.13105z"/></g><g fill="#ffffff" stroke-width="0"><path d="M324.83513,72.18826c0,8.84302 -4.55927,16.01171 -10.1834,16.01171c-5.62413,0 -10.18339,-7.16869 -10.18339,-16.01171c0,-8.84302 4.55926,-16.01171 10.18339,-16.01171c5.62413,0 10.1834,7.16869 10.1834,16.01171z"/><path d="M322.18815,44.74637c5.54752,0 10.04469,6.66822 10.04469,14.89388c0,8.22566 -4.49717,14.89387 -10.04469,14.89387c-5.54752,0 -10.04468,-6.66821 -10.04468,-14.89387c0,-8.22566 4.49716,-14.89388 10.04468,-14.89388z"/><path d="M333.12939,72.22683c2.01972,7.68782 0.20749,15.60154 -4.04772,17.67578c-4.25522,2.07424 -9.34205,-2.47647 -11.36177,-10.16429c-2.01972,-7.68782 -0.2075,-15.60153 4.04771,-17.67577c4.25522,-2.07424 9.34206,2.47647 11.36178,10.16429z"/><path d="M334.94917,58.19179c5.72627,0 10.36833,3.83458 10.36833,8.56477c0,4.73019 -4.64206,8.56477 -10.36833,8.56477c-5.72627,0 -10.36833,-3.83458 -10.36833,-8.56477c0,-4.73019 4.64206,-8.56477 10.36833,-8.56477z"/><path d="M336.89107,94.71801c-4.96022,0 -8.98127,-4.98354 -8.98127,-11.13105c0,-6.14751 4.02105,-11.13105 8.98127,-11.13105c4.96022,0 8.98128,4.98354 8.98128,11.13105c0,6.14751 -4.02105,11.13105 -8.98127,11.13105z"/></g><g fill="#ffffff" stroke-width="0"><path d="M316.18296,10.02263c-3.60065,7.35824 -10.31329,9.8788 -14.99311,5.62982c-4.67981,-4.24898 -5.55466,-13.6585 -1.95402,-21.01675c3.60065,-7.35824 10.31329,-9.8788 14.99311,-5.62982c4.67981,4.24898 5.55466,13.6585 1.95402,21.01675z"/><path d="M325.15403,-14.81143c4.61608,4.19111 5.64302,13.13727 2.29375,19.98181c-3.34927,6.84454 -9.80646,8.99557 -14.42254,4.80446c-4.61608,-4.19111 -5.64302,-13.13727 -2.29375,-19.98181c3.34927,-6.84454 9.80646,-8.99558 14.42254,-4.80447z"/><path d="M323.06887,16.32096c-1.44968,7.92289 -6.17988,13.13874 -10.5652,11.64993c-4.38532,-1.48881 -6.76513,-9.1185 -5.31546,-17.04138c1.44968,-7.92289 6.17988,-13.13874 10.5652,-11.64993c4.38532,1.48881 6.76513,9.1185 5.31546,17.04138z"/><path d="M330.29781,6.01729c4.76481,4.32615 7.06611,11.02392 5.1401,14.95989c-1.92601,3.93597 -7.34999,3.61967 -12.11479,-0.70647c-4.76481,-4.32615 -7.06611,-11.02392 -5.1401,-14.95989c1.92601,-3.93597 7.34999,-3.61967 12.1148,0.70647z"/><path d="M317.04113,37.8777c-4.12738,-3.7474 -5.44412,-10.93205 -2.94101,-16.04737c2.5031,-5.11532 7.87817,-6.22423 12.00555,-2.47683c4.12738,3.7474 5.44412,10.93205 2.94101,16.04737c-2.5031,5.11532 -7.87817,6.22423 -12.00555,2.47683z"/></g><g fill="#ffffff" stroke-width="0"><path d="M375.57031,83.31373c-3.60064,7.35824 -10.3133,9.87879 -14.99311,5.62981c-4.67982,-4.24898 -5.55466,-13.6585 -1.95402,-21.01674c3.60064,-7.35824 10.3133,-9.87879 14.99311,-5.62981c4.67982,4.24898 5.55466,13.6585 1.95402,21.01675z"/><path d="M372.41258,83.26595c-4.61608,-4.19111 -5.64302,-13.13726 -2.29375,-19.9818c2.26362,-4.62591 7.04807,-7.10793 10.62311,-6.93709c0.04891,0.78926 -0.20195,1.55241 -0.0263,2.27878c0,8.20658 -0.12847,17.78527 -0.33564,26.27706c-2.69124,1.00329 -5.57634,0.53402 -7.96742,-1.63694z"/><path d="M371.891,101.262c-4.38532,-1.4888 -6.76513,-9.1185 -5.31545,-17.04138c1.44967,-7.92288 6.17987,-13.13873 10.5652,-11.64993c1.24483,0.42262 2.32807,1.34006 3.20798,2.61858c0.08212,3.68961 0.11509,7.34867 -0.00016,10.8054c-0.07309,2.19217 -0.77988,4.34336 -0.77988,6.55902c0,1.54852 0.00838,3.10696 0.03038,4.67101c-2.12182,3.29693 -4.9816,4.96294 -7.70807,4.03731z"/><path d="M377.57034,78.60192c0.61815,-1.26325 1.59663,-2.08848 2.79798,-2.4837c0.06702,3.3739 0.08582,6.71005 -0.01976,9.87645c-0.0468,1.40372 -1.08757,7.79064 -1.30209,9.18845c-2.68355,-3.94481 -2.94922,-13.5708 -1.47614,-16.58119z"/><path d="M376.42846,111.16881c-4.12738,-3.7474 -5.44412,-10.93206 -2.94101,-16.04738c1.41513,-2.89193 3.74817,-10.50334 6.25475,-10.68067c-0.10099,0.7 0.92768,2.90315 0.92768,3.61292c0,2.13648 0.01596,9.79183 0.06162,11.95474c0.10048,4.76084 -0.7564,8.5583 -0.2219,13.27175c-1.39846,-0.25277 -2.79991,-0.94808 -4.08114,-2.11136z"/></g><g fill="#ffffff" stroke-width="0"><path d="M299.70893,94.79341c4.67982,-4.24898 11.39247,-1.72843 14.99311,5.62981c3.60064,7.35824 2.7258,16.76776 -1.95401,21.01675c-4.67982,4.24898 -11.39247,1.72843 -14.99311,-5.62982c-3.60064,-7.35824 -2.7258,-16.76777 1.95401,-21.01674z"/><path d="M292.94522,117.3993c-0.20717,-8.49179 -0.33563,-18.07047 -0.33563,-26.27706c0.17566,-0.72637 -0.07521,-1.48952 -0.0263,-2.27878c3.57503,-0.17083 8.35949,2.31118 10.62311,6.93709c3.34927,6.84454 2.32233,15.7907 -2.29375,19.9818c-2.39109,2.17096 -5.27618,2.64023 -7.96742,1.63694z"/><path d="M293.72613,129.7211c0.022,-1.56405 0.03038,-3.12248 0.03038,-4.67101c0,-2.21566 -0.70678,-4.36685 -0.77988,-6.55902c-0.11525,-3.45674 -0.08228,-7.11579 -0.00016,-10.8054c0.87991,-1.27851 1.96315,-2.19596 3.20798,-2.61858c4.38532,-1.4888 9.11552,3.72705 10.5652,11.64993c1.44967,7.92288 -0.93013,15.55257 -5.31545,17.04138c-2.72647,0.92563 -5.58625,-0.74038 -7.70807,-4.0373z"/><path d="M294.27875,127.67953c-0.21452,-1.39781 -1.25529,-7.78473 -1.30209,-9.18845c-0.10557,-3.16639 -0.08677,-6.50254 -0.01976,-9.87645c1.20136,0.39522 2.17983,1.22045 2.79798,2.4837c1.47309,3.0104 1.20742,12.63638 -1.47614,16.58119z"/><path d="M292.81561,145.77658c0.53451,-4.71344 -0.32238,-8.5109 -0.2219,-13.27174c0.04565,-2.16291 0.06161,-9.81826 0.06161,-11.95474c0,-0.70977 1.02867,-2.91292 0.92768,-3.61292c2.50658,0.17732 4.83963,7.78873 6.25476,10.68066c2.5031,5.11532 1.18636,12.29998 -2.94101,16.04737c-1.28123,1.16327 -2.68269,1.85859 -4.08114,2.11136z"/></g><g fill="#ffffff" stroke-width="0"><path d="M343.09942,183.24515c-3.1146,-6.3789 -1.25741,-15.51998 4.14815,-20.41717c5.40557,-4.89719 12.31252,-3.69604 15.42712,2.68285c3.1146,6.3789 1.25741,15.51998 -4.14815,20.41717c-5.40557,4.89719 -12.31252,3.69604 -15.42712,-2.68285z"/><path d="M359.68834,192.48113c-6.23431,0.27362 -13.26648,0.43897 -19.29121,0.43069c-0.53307,-0.24 -1.09358,0.10094 -1.67295,0.03352c-0.12182,-4.8699 1.70515,-11.38453 5.10347,-14.46325c5.02818,-4.55531 11.59482,-3.14744 14.66699,3.14457c1.59137,3.25921 1.93296,7.1896 1.1937,10.85446z"/><path d="M368.73497,191.42983c-1.14819,-0.03154 -2.29229,-0.04454 -3.42911,-0.0461c-1.62659,-0.00223 -3.20656,0.95834 -4.81598,1.0557c-2.53782,0.15351 -5.22402,0.10491 -7.9326,-0.01067c-0.93771,-1.19986 -1.61014,-2.67631 -1.91915,-4.37239c-1.08856,-5.97496 2.74534,-12.41294 8.56325,-14.37963c5.81791,-1.96669 11.41673,1.28266 12.50529,7.25762c0.67679,3.71479 -0.54917,7.60856 -2.97169,10.49547z"/><path d="M367.23675,190.67504c-1.02639,0.2908 -5.7163,1.70204 -6.74686,1.76438c-2.32466,0.14062 -4.77382,0.11164 -7.25065,0.01695c0.29135,-1.63603 0.89817,-2.96802 1.82619,-3.80876c2.21152,-2.00353 9.27801,-1.63194 12.17132,2.02743z"/><path d="M380.52091,192.68629c-3.45976,-0.73283 -6.24846,0.43055 -9.74345,0.28888c-1.58782,-0.06436 -7.20785,-0.09383 -8.7763,-0.09598c-0.52106,-0.00072 -2.13744,-1.40414 -2.65143,-1.26728c0.13271,-3.41416 5.72285,-6.58445 7.84734,-8.50914c3.75785,-3.40444 9.03102,-1.6036 11.77795,4.02228c0.85271,1.7464 1.36174,3.65609 1.5459,5.56125z"/></g><path d="M292.5655,400.17719v-208.17563h87.71315v208.17563z" fill="#636363" stroke-width="0"/><path d="M309.36793,347.83859v-38.67653h55.42303v38.67653z" fill="#dadada" stroke-width="0"/><path d="M308.92769,293.74563v-38.67653h55.42303v38.67653z" fill="#dadada" stroke-width="0"/><path d="M308.92786,241.95407v-38.67653h55.42303v38.67653z" fill="#dadada" stroke-width="0"/></g></g></svg>