<svg version="1.1" xmlns="http://www.w3.org/2000/svg" xmlns:xlink="http://www.w3.org/1999/xlink" width="96.1724" height="97.26079" viewBox="0,0,96.1724,97.26079"><g transform="translate(-271.9138,-131.23751)"><g stroke-miterlimit="10"><path d="M272.4138,226.60088v-64.88824v-9.24098c0,0 2.20499,0 4.81102,0c11.2941,0 90.36138,0 90.36138,0v74.12922z" fill="#afafaf" stroke="#000000" stroke-width="1" stroke-linecap="butt"/><path d="M272.4138,205.86673v-64.88824v-9.24098c0,0 2.20499,0 4.81102,0c11.2941,0 90.36138,0 90.36138,0v74.12922z" fill="#afafaf" stroke="#000000" stroke-width="1" stroke-linecap="butt"/><text transform="translate(306.18157,222.60705) scale(0.4713,0.4713)" font-size="40" xml:space="preserve" fill="#000000" stroke="none" stroke-width="1" stroke-linecap="butt" font-family="Sans Serif" font-weight="normal" text-anchor="start"><tspan x="0" dy="0">4-4</tspan></text><path d="M276.91902,199.9034v-60.82023h86.62275v60.82023z" fill="#939393" stroke="#000000" stroke-width="1" stroke-linecap="butt"/><path d="M333.7116,131.95689h33.838v33.838z" fill="#ff0000" stroke="#000000" stroke-width="1" stroke-linecap="butt"/><g stroke="#000000" stroke-width="0.5"><path d="M314.30807,196.76994l0.21846,-47.50022l9.48392,-0.07282l0.36411,47.57305z" fill="#0b8100" stroke-linecap="butt"/><path d="M314.23405,196.92408v-28.77904h10.15869v28.77904z" fill="#ffffff" stroke-linecap="butt"/><path d="M318.50559,156.70817c0,3.04642 -0.77975,5.51604 -1.74161,5.51604c-0.96186,0 -1.74161,-2.46961 -1.74161,-5.51604c0,-3.04642 0.77975,-5.51604 1.74161,-5.51604c0.96186,0 1.74161,2.46961 1.74161,5.51604z" fill="#000000" stroke-linecap="butt"/><path d="M312.36614,196.61981c0,0 -6.15965,-3.77207 -5.24308,-8.61131c1.60206,-8.45837 5.24308,-23.57134 5.24308,-23.57134h13.82378c0,0 4.96642,15.72539 4.58769,24.73648c-0.1926,4.58277 -4.58769,7.44618 -4.58769,7.44618z" fill="#ffffff" stroke-linecap="butt"/><path d="M312.20369,153.49155c0,0 0.17425,-2.92854 1.67886,-5.62883c0.95871,-1.72058 1.89523,-3.65127 5.49178,-3.69221c3.91887,-0.04459 4.73055,1.51355 5.50707,3.25161c1.21138,2.71139 0.87559,6.06942 0.87559,6.06942z" fill="#ffa661" stroke-linecap="butt"/><path d="M317.723,151.37975c0,0 -0.82727,0.58425 -1.41647,0.68918c-0.9776,0.17409 -3.89942,0.25749 -3.89942,0.25749" fill="none" stroke-linecap="round"/><g><path d="M312.82337,148.48807c0,0 0.19237,-0.57817 1.3558,-0.20915c0.7196,0.22824 2.67,1.00372 2.67,1.00372c0,0 -2.25875,1.46946 -2.99628,1.65211c-1.74047,0.43104 -1.08249,-0.38081 -1.08249,-0.38081z" fill="#ffffff" stroke-linecap="round"/><path d="M313.72388,149.54748c0,0.52659 -0.39132,0.95348 -0.87402,0.95348c-0.48271,0 -0.1854,-0.32095 -0.1854,-0.84754c0,-0.52659 -0.29731,-1.05942 0.1854,-1.05942c0.48271,0 0.87402,0.42688 0.87402,0.95348z" fill="#000000" stroke-linecap="butt"/></g><path d="M311.24199,169.43925l0.50975,-2.11179h15.07386l0.50975,2.11179z" fill="#ff0000" stroke-linecap="butt"/><path d="M309.93342,175.77685l0.60432,-2.11179c0,0 1.18467,-1.80065 2.72474,-1.80065c1.01306,0 3.65602,1.26287 3.65602,1.26287c0,0 1.1405,-1.23389 2.69231,-1.16126c0.7447,0.03485 2.93013,1.43107 2.93013,1.43107c0,0 1.85587,-1.69019 2.90574,-1.64224c0.87308,0.03989 2.96142,1.91022 2.96142,1.91022l0.60432,2.11179c0,0 -2.40604,-0.90032 -3.52048,-0.90032c-1.09665,0 -3.11363,0.90032 -3.11363,0.90032c0,0 -2.0353,-0.93785 -3.00109,-0.93785c-0.94703,0 -2.73851,0.93785 -2.73851,0.93785c0,0 -2.30106,-0.78778 -3.33871,-0.78778c-1.17927,0 -3.36657,0.78778 -3.36657,0.78778z" fill="#52ff67" stroke-linecap="butt"/><path d="M307.34497,186.76835l0.72908,-2.11179c0,0 1.42925,-1.80065 3.28728,-1.80065c1.22222,0 4.41081,1.26287 4.41081,1.26287c0,0 1.37596,-1.23389 3.24814,-1.16126c0.89844,0.03485 3.53506,1.43106 3.53506,1.43106c0,0 2.23904,-1.69019 3.50565,-1.64223c1.05333,0.03989 4.13552,1.79768 4.13552,1.79768l0.16638,2.22434c0,0 -2.90278,-0.90032 -4.24731,-0.90032c-1.32306,0 -3.75646,0.90032 -3.75646,0.90032c0,0 -2.45549,-0.93785 -3.62067,-0.93785c-1.14257,0 -3.30388,0.93785 -3.30388,0.93785c0,0 -2.77611,-0.78779 -4.028,-0.78779c-1.42274,0 -4.06161,0.78779 -4.06161,0.78779z" fill="#52ff67" stroke-linecap="butt"/><path d="M308.8036,180.43075l0.67372,-2.11179h19.92278l0.67372,2.11179z" fill="#ff0000" stroke-linecap="butt"/><path d="M329.88625,191.14862l-0.69749,2.11179h-20.62554l-0.69749,-2.11179z" fill="#ff0000" stroke-linecap="butt"/></g></g></g></svg>