<svg version="1.1" xmlns="http://www.w3.org/2000/svg" xmlns:xlink="http://www.w3.org/1999/xlink" width="67.37711" height="57.54126" viewBox="0,0,67.37711,57.54126"><g transform="translate(-286.31145,-151.22937)"><g stroke="#000000" stroke-width="1.28786" stroke-miterlimit="10"><path d="M300.28905,208.1267c-3.82928,0 -6.93352,-3.10424 -6.93352,-6.93352v-15.8671c0,-3.82927 3.10424,-6.93352 6.93352,-6.93352h32.53421c3.82928,0 6.93352,3.10424 6.93352,6.93352v15.8671c0,3.82927 -3.10424,6.93352 -6.93352,6.93352z" fill="#fffab9" stroke-linecap="butt"/><path d="M315.27129,190.49658c-15.63846,0 -28.31591,-8.64611 -28.31591,-19.31165v0c0,-10.66553 12.67747,-19.31164 28.31591,-19.31164h1.76974c15.63846,0 28.31591,8.6461 28.31591,19.31164v0c0,10.66553 -12.67746,19.31165 -28.31591,19.31165z" fill="#b100ff" stroke-linecap="butt"/><path d="M327.55736,197.76859c0.62003,2.27345 0.31637,4.33635 -0.67828,4.60761c-0.99463,0.27125 -2.30356,-1.35183 -2.9236,-3.62527c-0.62003,-2.27345 -0.31637,-4.33634 0.67828,-4.60759c0.99463,-0.27125 2.30357,1.35182 2.92361,3.62527z" fill="#000000" stroke-linecap="butt"/><path d="M337.49007,194.39299c0,2.20921 -0.74622,4.00011 -1.66671,4.00011c-0.92049,0 -1.66671,-1.79091 -1.66671,-4.00011c0,-2.20921 0.74622,-4.00011 1.66671,-4.00011c0.92049,0 1.66671,1.79091 1.66671,4.00011z" fill="#000000" stroke-linecap="butt"/><path d="M319.88959,203.19323c0,0 0.79131,-1.40729 2.26082,-0.90956c1.25069,0.42362 6.00607,3.70963 6.00607,3.70963" fill="none" stroke-linecap="round"/><path d="M318.15621,193.72631l10.13361,1.20004" fill="none" stroke-linecap="round"/><path d="M333.08994,193.3263l3.73343,-4.40011" fill="none" stroke-linecap="round"/><path d="M353.04462,174.44423c0,5.48655 -3.99938,9.93428 -8.93286,9.93428c-4.93348,0 -8.93287,-4.44772 -8.93287,-9.93428c0,-5.48655 3.99939,-9.93429 8.93287,-9.93429c4.93348,0 8.93286,4.44772 8.93286,9.93429z" fill="#b100ff" stroke-linecap="butt"/><path d="M350.26226,175.15808c0,2.85826 -1.44241,5.17534 -3.22169,5.17534c-1.77928,0 -3.22169,-2.31707 -3.22169,-5.17534c0,-2.85826 1.44239,-5.17534 3.22169,-5.17534c1.77928,0 3.22169,2.31709 3.22169,5.17534z" fill="#000000" stroke-linecap="butt"/></g></g></svg>