<svg version="1.1" xmlns="http://www.w3.org/2000/svg" xmlns:xlink="http://www.w3.org/1999/xlink" width="804.5" height="401.5" viewBox="0,0,804.5,401.5"><g transform="translate(106.27402,23.75299)"><g stroke-miterlimit="10"><g><path d="M-106.02401,377.49701v-401h804v401z" fill="#00ffd4" stroke="#000000" stroke-width="0.5"/><text transform="translate(130.77105,60.6937) scale(1.10861,1.10861)" font-size="40" xml:space="preserve" fill="#000000" stroke="none" stroke-width="1" font-family="Sans Serif" font-weight="normal" text-anchor="start"><tspan x="0" dy="0">Select your seeds!</tspan></text><path d="M84.26428,371.44145v-291.29129h572.07207v291.29129z" fill="#696969" stroke="#000000" stroke-width="0.5"/></g><path d="M96.66217,169.01303v-73.5h59v73.5z" fill="#444444" stroke="#000000" stroke-width="1"/><path d="M166.16217,169.51303v-73.5h59v73.5z" fill="#444444" stroke="#000000" stroke-width="1"/><path d="M235.16366,169.51303v-73.5h59v73.5z" fill="#444444" stroke="#000000" stroke-width="1"/><path d="M304.86337,169.50853v-73.5h59v73.5z" fill="#444444" stroke="#000000" stroke-width="1"/><path d="M375.36637,170.00853v-73.5h59v73.5z" fill="#444444" stroke="#000000" stroke-width="1"/><path d="M444.36788,170.00853v-73.5h59v73.5z" fill="#444444" stroke="#000000" stroke-width="1"/><path d="M96.65767,259.59861v-73.5h59v73.5z" fill="#444444" stroke="#000000" stroke-width="1"/><path d="M166.15767,260.09861v-73.5h59v73.5z" fill="#444444" stroke="#000000" stroke-width="1"/><path d="M235.15917,260.09861v-73.5h59v73.5z" fill="#444444" stroke="#000000" stroke-width="1"/><path d="M304.85886,260.09411v-73.5h59v73.5z" fill="#444444" stroke="#000000" stroke-width="1"/><path d="M375.36187,260.59411v-73.5h59v73.5z" fill="#444444" stroke="#000000" stroke-width="1"/><path d="M444.36337,260.59411v-73.5h59v73.5z" fill="#444444" stroke="#000000" stroke-width="1"/><path d="M96.65317,351.6857v-73.5h59v73.5z" fill="#444444" stroke="#000000" stroke-width="1"/><path d="M165.15317,352.1857v-73.5h59v73.5z" fill="#444444" stroke="#000000" stroke-width="1"/><path d="M234.15467,352.1857v-73.5h59v73.5z" fill="#444444" stroke="#000000" stroke-width="1"/><path d="M303.85436,352.1812v-73.5h59v73.5z" fill="#444444" stroke="#000000" stroke-width="1"/><path d="M374.35737,352.6812v-73.5h59v73.5z" fill="#444444" stroke="#000000" stroke-width="1"/><path d="M446.35887,352.1812v-73.5h59v73.5z" fill="#444444" stroke="#000000" stroke-width="1"/></g></g></svg>