<svg version="1.1" xmlns="http://www.w3.org/2000/svg" xmlns:xlink="http://www.w3.org/1999/xlink" width="736" height="448.52096" viewBox="0,0,736,448.52096"><g transform="translate(53.42362,58.0208)"><g stroke-miterlimit="10"><path d="M-45.92362,273.9792c-4.14213,0 -7.5,-2.3923 -7.5,-5.34335v-321.3133c0,-2.95105 3.35787,-5.34335 7.5,-5.34335h721c4.14214,0 7.5,2.3923 7.5,5.34335v321.3133c0,2.95105 -3.35786,5.34335 -7.5,5.34335z" fill-opacity="0.50196" fill="#000000" stroke="none" stroke-width="0" stroke-linecap="butt"/><path d="M53.50005,72.00009v-87h554v87z" fill="#adadad" stroke="#000000" stroke-width="1" stroke-linecap="butt"/><path d="M124.48895,262.33342v-168h387.02222v168z" fill="#adadad" stroke="#000000" stroke-width="1" stroke-linecap="butt"/><text transform="translate(216.56651,53.01884) scale(0.86836,0.86836)" font-size="40" xml:space="preserve" fill="#000000" stroke="none" stroke-width="1" stroke-linecap="butt" font-family="Sans Serif" font-weight="normal" text-anchor="start"><tspan x="0" dy="0">Zombie Guide</tspan></text><path d="M186.50006,390.00017v-116h79v116z" fill="#adadad" stroke="#000000" stroke-width="1" stroke-linecap="butt"/><path d="M369.5001,390.00017v-116h93v116z" fill="#adadad" stroke="#000000" stroke-width="1" stroke-linecap="butt"/><path d="M317.59979,261.57563v-169" fill="none" stroke="#000000" stroke-width="2" stroke-linecap="round"/><path d="M134.5881,254.28266v-124.5h85.56371v124.5z" fill="#adadad" stroke="#000000" stroke-width="1" stroke-linecap="butt"/><path d="M330.08806,254.28266v-124.5h85.56371v124.5z" fill="#adadad" stroke="#000000" stroke-width="1" stroke-linecap="butt"/><text transform="translate(134.5881,118.78266) scale(0.39293,0.5)" font-size="40" xml:space="preserve" fill="#000000" stroke="none" stroke-width="1" stroke-linecap="butt" font-family="Sans Serif" font-weight="normal" text-anchor="start"><tspan x="0" dy="0">Matryoshka Zombie</tspan></text><text transform="translate(329.58806,119.28266) scale(0.42494,0.5)" font-size="40" xml:space="preserve" fill="#000000" stroke="none" stroke-width="1" stroke-linecap="butt" font-family="Sans Serif" font-weight="normal" text-anchor="start"><tspan x="0" dy="0">Omega Door Zombie</tspan></text><text transform="translate(226.08809,142.49098) scale(0.24175,0.26044)" font-size="40" xml:space="preserve" fill="#000000" stroke="none" stroke-width="1" stroke-linecap="butt" font-family="Sans Serif" font-weight="normal" text-anchor="start"><tspan x="0" dy="0">HP: 45</tspan><tspan x="0" dy="46.150000000000006px">Speed: Avg</tspan><tspan x="0" dy="46.150000000000006px">Damage: Spawns</tspan><tspan x="0" dy="46.150000000000006px">a Santa zombie</tspan><tspan x="0" dy="46.150000000000006px">when it dies!</tspan></text><text transform="translate(420.08814,143.03264) scale(0.20857,0.31943)" font-size="40" xml:space="preserve" fill="#000000" stroke="none" stroke-width="1" stroke-linecap="butt" font-family="Sans Serif" font-weight="normal" text-anchor="start"><tspan x="0" dy="0">HP: 2500</tspan><tspan x="0" dy="46.150000000000006px">Speed: Slowest</tspan><tspan x="0" dy="46.150000000000006px">Damage: Avg</tspan><tspan x="0" dy="46.150000000000006px">Special: None</tspan></text><text transform="translate(226.58808,251.49774) scale(0.2439,0.2439)" font-size="40" xml:space="preserve" fill="#ff0000" stroke="none" stroke-width="1" stroke-linecap="butt" font-family="Sans Serif" font-weight="normal" text-anchor="start"><tspan x="0" dy="0">Pos-Adv exclusive</tspan></text><text transform="translate(421.42144,251.49776) scale(0.2439,0.2439)" font-size="40" xml:space="preserve" fill="#ff0000" stroke="none" stroke-width="1" stroke-linecap="butt" font-family="Sans Serif" font-weight="normal" text-anchor="start"><tspan x="0" dy="0">Pos-Adv exclusive</tspan></text><g stroke="#000000" stroke-width="0.5" stroke-linecap="butt"><path d="M392.41536,221.57956l-3.68229,2.90602l-15.84475,-20.07726l3.68229,-2.90602z" fill="#797979"/><path d="M375.34205,205.79089l-3.68229,-2.90603l15.84475,-20.07726l3.68229,2.90603z" fill="#797979"/><path d="M355.09549,206.01044l-3.93642,-5.28458l13.70409,-10.20801l3.93642,5.28458z" fill="#740000"/><path d="M362.00101,235.13512v-71.72075h14.53111v71.72075z" fill="#0b8100"/><path d="M362.02181,235.22997v-41.54294h14.66421v41.54294z" fill="#740000"/><path d="M362.02181,212.75127v-19.06422h6.7283z" fill="#ffffff"/><path d="M361.91851,206.03651v-12.51979h4.41858z" fill="#ff0000"/><path d="M368.31221,176.79845c0,4.39755 -1.12558,7.96249 -2.51404,7.96249c-1.38846,0 -2.51404,-3.56492 -2.51404,-7.96249c0,-4.39755 1.12558,-7.96249 2.51404,-7.96249c1.38846,0 2.51404,3.56492 2.51404,7.96249z" fill="#000000"/><path d="M350.20667,231.49112v-52.26967h8.15318v52.26967z" fill="#797979"/><path d="M357.65613,217.42663l-4.74741,-4.56994l11.85085,-12.31107l4.74741,4.56994z" fill="#740000"/><path d="M357.65617,217.09157l-4.74741,-4.56992l4.81719,-5.00425l4.44492,4.88417z" fill="#0b8100"/><path d="M392.42802,200.1636l-16.56337,-49.57594l7.733,-2.58361l16.56337,49.57594z" fill="#797979"/><path d="M384.03778,231.2789l7.64751,-26.15667l6.11037,1.78651l-7.64751,26.15667z" fill="#797979"/></g><g stroke="#000000" stroke-width="0.5"><path d="M168.18028,243.6597l0.37471,-81.47437l16.26722,-0.1249l0.62452,81.59931z" fill="#0b8100" stroke-linecap="butt"/><path d="M168.05332,243.92409v-49.36301h17.42461v49.36301z" fill="#ffffff" stroke-linecap="butt"/><path d="M175.38006,174.94406c0,5.22535 -1.33746,9.46134 -2.98728,9.46134c-1.64982,0 -2.98728,-4.23598 -2.98728,-9.46134c0,-5.22535 1.33746,-9.46134 2.98728,-9.46134c1.64982,0 2.98728,4.23598 2.98728,9.46134z" fill="#000000" stroke-linecap="butt"/><path d="M164.84941,243.40221c0,0 -10.56531,-6.47001 -8.99315,-14.77048c2.74792,-14.50814 8.99315,-40.43058 8.99315,-40.43058h23.71111c0,0 8.51861,26.97285 7.86902,42.42906c-0.33036,7.86054 -7.86902,12.772 -7.86902,12.772z" fill="#ffffff" stroke-linecap="butt"/><path d="M164.57076,169.42677c0,0 0.29888,-5.02316 2.87963,-9.65481c1.64442,-2.95119 3.25076,-6.26281 9.41973,-6.33303c6.72179,-0.07648 8.11404,2.5961 9.44596,5.5773c2.07783,4.65071 1.50185,10.41053 1.50185,10.41053z" fill="#ffa661" stroke-linecap="butt"/><path d="M174.03771,165.80453c0,0 -1.41897,1.00213 -2.42959,1.18211c-1.67682,0.29861 -6.68845,0.44167 -6.68845,0.44167" fill="none" stroke-linecap="round"/><g><path d="M165.63366,160.84459c0,0 0.32994,-0.9917 2.32553,-0.35874c1.23429,0.39149 4.5797,1.72162 4.5797,1.72162c0,0 -3.8743,2.52048 -5.13936,2.83377c-2.98533,0.73934 -1.85673,-0.65318 -1.85673,-0.65318z" fill="#ffffff" stroke-linecap="round"/><path d="M167.17825,162.66174c0,0.90323 -0.67121,1.63547 -1.49916,1.63547c-0.82796,0 -0.31799,-0.55051 -0.31799,-1.45374c0,-0.90323 -0.50996,-1.81718 0.31799,-1.81718c0.82796,0 1.49916,0.7322 1.49916,1.63545z" fill="#000000" stroke-linecap="butt"/></g><path d="M162.92121,196.78096l0.87434,-3.62225h25.85532l0.87434,3.62225z" fill="#ff0000" stroke-linecap="butt"/><path d="M160.67671,207.65146l1.03654,-3.62225c0,0 2.032,-3.08855 4.67359,-3.08855c1.73764,0 6.27096,2.16613 6.27096,2.16613c0,0 1.95623,-2.11642 4.61796,-1.99184c1.27734,0.05978 5.02588,2.45463 5.02588,2.45463c0,0 3.18327,-2.89907 4.98405,-2.81684c1.49753,0.0684 5.07955,3.27649 5.07955,3.27649l1.03656,3.62225c0,0 -4.12694,-1.54427 -6.03848,-1.54427c-1.88102,0 -5.34063,1.54427 -5.34063,1.54427c0,0 -3.49103,-1.60864 -5.14758,-1.60864c-1.62439,0 -4.69721,1.60864 -4.69721,1.60864c0,0 -3.94688,-1.35123 -5.7267,-1.35123c-2.02273,0 -5.77448,1.35123 -5.77448,1.35123z" fill="#52ff67" stroke-linecap="butt"/><path d="M156.23687,226.50455l1.25055,-3.62225c0,0 2.45151,-3.08855 5.63848,-3.08855c2.0964,0 7.56561,2.16613 7.56561,2.16613c0,0 2.3601,-2.11642 5.57136,-1.99184c1.54104,0.05978 6.06348,2.45461 6.06348,2.45461c0,0 3.8405,-2.89909 6.01304,-2.81682c1.80673,0.0684 7.09342,3.08346 7.09342,3.08346l0.28538,3.81526c0,0 -4.97897,-1.54428 -7.28517,-1.54428c-2.26937,0 -6.44324,1.54428 -6.44324,1.54428c0,0 -4.21174,-1.60864 -6.21033,-1.60864c-1.95977,0 -5.66695,1.60864 -5.66695,1.60864c0,0 -4.76172,-1.35125 -6.90901,-1.35125c-2.44034,0 -6.96666,1.35125 -6.96666,1.35125z" fill="#52ff67" stroke-linecap="butt"/><path d="M158.73876,215.63403l1.15559,-3.62225h34.17239l1.15559,3.62225z" fill="#ff0000" stroke-linecap="butt"/><path d="M194.90063,234.01777l-1.19636,3.62225h-35.3778l-1.19635,-3.62225z" fill="#ff0000" stroke-linecap="butt"/></g></g></g></svg>