<svg version="1.1" xmlns="http://www.w3.org/2000/svg" xmlns:xlink="http://www.w3.org/1999/xlink" width="96.23956" height="97.26079" viewBox="0,0,96.23956,97.26079"><g transform="translate(-312.84667,-131.23755)"><g stroke-miterlimit="10"><path d="M313.34668,226.43531v-17.88593v-2.5472c0,0 2.20499,0 4.81102,0c11.2941,0 90.36138,0 90.36138,0v20.43313z" fill="#afafaf" stroke="#000000" stroke-width="1"/><path d="M313.41384,226.60092v-64.88824v-9.24098c0,0 2.20499,0 4.81102,0c11.2941,0 90.36138,0 90.36138,0v74.12922z" fill="#afafaf" stroke="#000000" stroke-width="1"/><path d="M313.41384,205.86677v-64.88824v-9.24098c0,0 2.20499,0 4.81102,0c11.2941,0 90.36138,0 90.36138,0v74.12922z" fill="#afafaf" stroke="#000000" stroke-width="1"/><text transform="translate(348.49789,222.60709) scale(0.4713,0.4713)" font-size="40" xml:space="preserve" fill="#000000" stroke="none" stroke-width="1" font-family="Sans Serif" font-weight="normal" text-anchor="start"><tspan x="0" dy="0">3-6</tspan></text><path d="M317.91909,199.87057v-60.82023h86.62275v60.82023z" fill="#939393" stroke="#000000" stroke-width="1"/><path d="M317.68353,199.97841v-60.82023h86.62275v60.82023z" fill="none" stroke="#000000" stroke-width="1"/><g stroke="#000000" stroke-width="0.5"><path d="M330.53698,170.53333c-1.93722,0.09346 -3.42451,0.25493 -3.48016,-0.8987c-0.05565,-1.15363 1.3414,-3.18549 3.27861,-3.27895c1.93722,-0.09346 3.55276,0.76598 3.60842,1.91961c0.05565,1.15363 -1.46965,2.16458 -3.40688,2.25804z" fill="#f6ff30"/><path d="M320.94519,167.84568c0.05565,-1.15363 1.6712,-2.01306 3.60842,-1.91961c1.93722,0.09346 3.33428,2.12532 3.27863,3.27895c-0.05565,1.15363 -1.54294,0.99216 -3.48016,0.8987c-1.93722,-0.09346 -3.46253,-1.10441 -3.40688,-2.25804z" fill="#f6ff30"/><path d="M334.49703,195.72175v-42.08882h8.52748v42.08882z" fill="#0b8100"/><path d="M334.50924,195.77742v-24.37918h8.60559v24.37918z" fill="#ff0000"/><path d="M338.20072,161.48729c0,2.58067 -0.66054,4.67273 -1.47535,4.67273c-0.81481,0 -1.47535,-2.09205 -1.47535,-4.67273c0,-2.58067 0.66054,-4.67273 1.47535,-4.67273c0.81481,0 1.47535,2.09205 1.47535,4.67273z" fill="#000000"/><path d="M334.5536,166.79054h8.56173v4.58664l-2.95501,1.77962c0,0 0.21763,2.07166 -0.16266,2.38736c-0.71025,0.58961 -2.15394,0.2092 -2.15394,0.2092c0,0 0.36043,2.25069 -0.19802,2.79617c-1.18591,1.15833 -3.29594,1.38937 -3.29594,1.38937z" fill="#ffffff"/><path d="M333.9072,155.00251c0,0 -1.34887,-8.16388 0.76305,-10.67799c4.0111,-4.77496 11.31098,-0.29122 11.31098,-0.29122c0,0 -3.09357,1.8533 -3.78302,4.28253c-0.52274,1.84182 1.02099,6.68669 1.02099,6.68669c0,0 -0.95341,0 -1.73613,0c-1.63506,0 -7.57586,0 -7.57586,0z" fill="#ff0000"/><path d="M333.51262,156.02841v-2.44638h10.25898v2.44638z" fill="#ffffff"/><path d="M347.87519,144.46733c0,0.98064 -0.7773,1.77559 -1.73613,1.77559c-0.95885,0 -1.73613,-0.79496 -1.73613,-1.77559c0,-0.98064 0.7773,-1.77559 1.73613,-1.77559c0.95885,0 1.73613,0.79496 1.73613,1.77559z" fill="#ffffff"/><path d="M321.04401,182.22827v-12.23186h13.25776v12.23186z" fill="#31ffe6"/><path d="M326.41025,182.14935v-12.15295h2.0518v12.15295z" fill="#f6ff30"/><path d="M321.20184,177.01986v-1.97288h12.86318v1.97288z" fill="#f6ff30"/></g><g stroke="#000000" stroke-width="0.5"><path d="M354.98318,170.53223c-1.93722,0.09346 -3.42451,0.25493 -3.48016,-0.8987c-0.05566,-1.15363 1.3414,-3.18549 3.27862,-3.27895c1.93722,-0.09346 3.55276,0.76598 3.60842,1.91961c0.05566,1.15363 -1.46965,2.16458 -3.40688,2.25804z" fill="#f6ff30"/><path d="M345.39138,167.84458c0.05566,-1.15363 1.6712,-2.01306 3.60842,-1.91961c1.93722,0.09346 3.33428,2.12532 3.27863,3.27895c-0.05566,1.15363 -1.54294,0.99217 -3.48016,0.89871c-1.93722,-0.09346 -3.46254,-1.10442 -3.40688,-2.25805z" fill="#f6ff30"/><path d="M358.94323,195.72065v-42.08882h8.52748v42.08882z" fill="#0b8100"/><path d="M358.95543,195.77631v-24.37919h8.60559v24.37919z" fill="#ff0000"/><path d="M362.64692,161.48618c0,2.58067 -0.66054,4.67273 -1.47535,4.67273c-0.81481,0 -1.47535,-2.09205 -1.47535,-4.67273c0,-2.58067 0.66054,-4.67273 1.47535,-4.67273c0.81481,0 1.47535,2.09205 1.47535,4.67273z" fill="#000000"/><path d="M358.99979,166.78943h8.56173v4.58664l-2.95501,1.77962c0,0 0.21763,2.07166 -0.16266,2.38736c-0.71025,0.58962 -2.15394,0.2092 -2.15394,0.2092c0,0 0.36043,2.25069 -0.19803,2.79617c-1.18591,1.15832 -3.29594,1.38938 -3.29594,1.38938z" fill="#ffffff"/><path d="M358.35339,155.0014c0,0 -1.34887,-8.16388 0.76305,-10.67799c4.0111,-4.77497 11.31098,-0.29122 11.31098,-0.29122c0,0 -3.09357,1.8533 -3.78302,4.28253c-0.52274,1.84182 1.02099,6.68669 1.02099,6.68669c0,0 -0.95342,0 -1.73614,0c-1.63506,0 -7.57586,0 -7.57586,0z" fill="#ff0000"/><path d="M357.95881,156.0273v-2.44638h10.25898v2.44638z" fill="#ffffff"/><path d="M372.32139,144.46622c0,0.98064 -0.7773,1.7756 -1.73613,1.7756c-0.95884,0 -1.73613,-0.79496 -1.73613,-1.7756c0,-0.98064 0.7773,-1.7756 1.73613,-1.7756c0.95884,0 1.73613,0.79496 1.73613,1.7756z" fill="#ffffff"/><path d="M345.49021,182.22716v-12.23186h13.25777v12.23187z" fill="#31ffe6"/><path d="M350.85645,182.14825v-12.15295h2.05179v12.15295z" fill="#f6ff30"/><path d="M345.64804,177.01875v-1.97288h12.86318v1.97288z" fill="#f6ff30"/></g><g stroke="#000000" stroke-width="0.5"><path d="M379.06743,170.69564c-1.93722,0.09346 -3.42451,0.25492 -3.48017,-0.89871c-0.05566,-1.15363 1.3414,-3.18549 3.27862,-3.27895c1.93722,-0.09346 3.55276,0.76598 3.60841,1.91961c0.05566,1.15363 -1.46965,2.16459 -3.40688,2.25805z" fill="#f6ff30"/><path d="M369.47563,168.00799c0.05566,-1.15363 1.67119,-2.01306 3.60841,-1.91961c1.93722,0.09346 3.33428,2.12532 3.27863,3.27895c-0.05566,1.15363 -1.54294,0.99217 -3.48016,0.89871c-1.93722,-0.09346 -3.46254,-1.10442 -3.40688,-2.25805z" fill="#f6ff30"/><path d="M383.02748,195.88406v-42.08882h8.52748v42.08882z" fill="#0b8100"/><path d="M383.03968,195.93972v-24.37919h8.60559v24.37919z" fill="#ff0000"/><path d="M386.73117,161.64959c0,2.58067 -0.66054,4.67273 -1.47535,4.67273c-0.81481,0 -1.47534,-2.09205 -1.47534,-4.67273c0,-2.58067 0.66053,-4.67273 1.47534,-4.67273c0.81481,0 1.47535,2.09205 1.47535,4.67273z" fill="#000000"/><path d="M383.08404,166.95284h8.56173v4.58664l-2.95501,1.77962c0,0 0.21763,2.07166 -0.16266,2.38736c-0.71025,0.58962 -2.15394,0.2092 -2.15394,0.2092c0,0 0.36043,2.25069 -0.19802,2.79617c-1.18591,1.15832 -3.29594,1.38938 -3.29594,1.38938z" fill="#ffffff"/><path d="M382.43764,155.16481c0,0 -1.34887,-8.16388 0.76304,-10.67799c4.0111,-4.77497 11.31098,-0.29122 11.31098,-0.29122c0,0 -3.09357,1.8533 -3.78303,4.28253c-0.52274,1.84182 1.021,6.68669 1.021,6.68669c0,0 -0.95342,0 -1.73613,0c-1.63506,0 -7.57586,0 -7.57586,0z" fill="#ff0000"/><path d="M382.04306,156.19071v-2.44637h10.25898v2.44637z" fill="#ffffff"/><path d="M396.40563,144.62963c0,0.98064 -0.77729,1.7756 -1.73613,1.7756c-0.95884,0 -1.73613,-0.79496 -1.73613,-1.7756c0,-0.98064 0.7773,-1.77559 1.73613,-1.77559c0.95884,0 1.73613,0.79495 1.73613,1.77559z" fill="#ffffff"/><path d="M369.57446,182.39057v-12.23186h13.25776v12.23187z" fill="#31ffe6"/><path d="M374.9407,182.31166v-12.15295h2.05179v12.15295z" fill="#f6ff30"/><path d="M369.73229,177.18216v-1.97289h12.86318v1.97289z" fill="#f6ff30"/></g><path d="M374.71165,131.95689h33.838v33.838z" fill="#ff0000" stroke="#000000" stroke-width="1"/></g></g></svg>