<svg version="1.1" xmlns="http://www.w3.org/2000/svg" xmlns:xlink="http://www.w3.org/1999/xlink" width="26.24468" height="45.31621" viewBox="0,0,26.24468,45.31621"><g transform="translate(-289.8521,-155.49474)"><g stroke-miterlimit="10"><path d="M298.91412,164.03212l-1.93359,-2.89513l-1.49088,0.48404l-0.98629,-1.03854l1.2096,-1.34341l-1.03124,-1.54407l2.02659,-1.35351l0.96679,1.44756l1.49065,-0.76298l1.11849,1.13547l-1.40602,1.42892l2.06249,3.08814z" fill="#000000" stroke="#ffffff" stroke-width="0.5" stroke-linecap="round"/><path d="M296.78296,178.91114c-2.03989,-1.52679 -5.51992,-2.8 -5.51992,-2.8h8.15v6.1c0,0 -0.59019,-1.77321 -2.63008,-3.3z" fill="#000000" stroke="#ffffff" stroke-width="0.5" stroke-linecap="butt"/><path d="M297.94206,200.56095v-40.13478h8.13158v40.13478z" fill="#000000" stroke="#ffffff" stroke-width="0.5" stroke-linecap="butt"/><path d="M297.91373,175.74169h8.20606l-0.16278,7.11435c0,0 -3.78038,-0.61881 -4.77022,-0.00874c-0.98984,0.61007 -3.317,5.56673 -3.317,5.56673l0.06839,-4.82504z" fill="#000000" stroke="#ffffff" stroke-width="0.5" stroke-linecap="round"/><path d="M301.43383,167.91587c0,2.46086 -0.62987,4.45579 -1.40685,4.45579c-0.77698,0 -1.40685,-1.99492 -1.40685,-4.45579c0,-2.46086 0.62987,-4.45579 1.40685,-4.45579c0.77698,0 1.40685,1.99492 1.40685,4.45579z" fill="#ffffff" stroke="#000000" stroke-width="0.5" stroke-linecap="butt"/><path d="M307.56262,179.87576c0,0 -0.31895,7.736 -4.80591,12.46504c-4.48696,4.72904 -7.94953,4.21599 -7.94953,4.21599l13.28815,-20.64286l2.33989,2.00525l-1.74042,2.49309z" fill="#000000" stroke="#ffffff" stroke-width="0.5" stroke-linecap="butt"/><path d="M301.41304,181.81114v-6.1h12.55c0,0 -5.35882,1.27321 -8.5,2.8c-3.14118,1.52679 -4.05,3.3 -4.05,3.3z" fill="#000000" stroke="#ffffff" stroke-width="0.5" stroke-linecap="butt"/><path d="M298.99497,166.63644l-0.34878,-3.3221l1.48178,-0.57061l1.07064,3.12801z" fill="#000000" stroke="none" stroke-width="0" stroke-linecap="butt"/><path d="M302.72113,167.61804l-0.65031,3.85458l-2.76372,1.93388l-1.07964,-3.21438z" fill="#000000" stroke="none" stroke-width="0" stroke-linecap="butt"/><path d="M297.92389,170.02166l0.09673,-3.17211l5.88156,-1.99894l-1.8536,2.92503z" fill="#ffffff" stroke="#ffffff" stroke-width="0.5" stroke-linecap="round"/><path d="M302.52002,164.03262l2.6659,-3.99161l-1.81737,-1.84698l1.44572,-1.46767l1.92676,0.9862l1.24964,-1.87107l2.6195,1.7495l-1.33295,1.99581l1.56349,1.73644l-1.27485,1.34239l-1.92706,-0.62565l-2.49928,3.74214z" fill="#000000" stroke="#ffffff" stroke-width="0.5" stroke-linecap="round"/></g></g></svg>