<svg version="1.1" xmlns="http://www.w3.org/2000/svg" xmlns:xlink="http://www.w3.org/1999/xlink" width="96.2396" height="97.26079" viewBox="0,0,96.2396,97.26079"><defs><linearGradient x1="276.68347" y1="169.56829" x2="363.30622" y2="169.56829" gradientUnits="userSpaceOnUse" id="color-1"><stop offset="0" stop-color="#939393"/><stop offset="1" stop-color="#2e2e2e"/></linearGradient></defs><g transform="translate(-271.8466,-131.23755)"><g stroke-miterlimit="10"><path d="M272.3466,226.43531v-17.88593v-2.5472c0,0 2.20499,0 4.81102,0c11.2941,0 90.36138,0 90.36138,0v20.43314z" fill="#afafaf" stroke="#000000" stroke-width="1" stroke-linecap="butt"/><path d="M272.4138,226.60092v-64.88824v-9.24098c0,0 2.20499,0 4.81102,0c11.2941,0 90.36138,0 90.36138,0v74.12922z" fill="#afafaf" stroke="#000000" stroke-width="1" stroke-linecap="butt"/><path d="M272.4138,205.86677v-64.88824v-9.24098c0,0 2.20499,0 4.81102,0c11.2941,0 90.36138,0 90.36138,0v74.12922z" fill="#afafaf" stroke="#000000" stroke-width="1" stroke-linecap="butt"/><text transform="translate(307.49782,222.60709) scale(0.4713,0.4713)" font-size="40" xml:space="preserve" fill="#000000" stroke="none" stroke-width="1" stroke-linecap="butt" font-family="Sans Serif" font-weight="normal" text-anchor="start"><tspan x="0" dy="0">3-9</tspan></text><path d="M276.91902,199.90347v-60.82023h86.62275v60.82023z" fill="#939393" stroke="#000000" stroke-width="1" stroke-linecap="butt"/><path d="M276.68347,199.97841v-60.82023h86.62275v60.82023z" fill="url(#color-1)" stroke="#000000" stroke-width="1" stroke-linecap="butt"/><path d="M339.39164,165.96127c0,12.43458 -8.24947,22.44468 -19.93932,22.44468c-11.68984,0 -17.62546,2.1719 -17.62546,-10.26268c0,-12.43457 5.93562,-34.7669 17.62546,-34.7669c11.68984,0 19.93932,10.15035 19.93932,22.58491z" fill="none" stroke="#000000" stroke-width="1.5" stroke-linecap="butt"/><path d="M314.07616,186.13111v-26.51337c0,0 1.09735,-10.39017 10.51902,-5.90619c8.52886,4.05907 -1.67673,13.18918 -1.67673,13.18918l0.10519,17.77555z" fill="#0b8100" stroke="#000000" stroke-width="0.5" stroke-linecap="butt"/><path d="M314.08606,183.60792v-9.40628h8.92327v9.40628z" fill="#ffffff" stroke="#000000" stroke-width="0.5" stroke-linecap="butt"/><path d="M303.59151,200.39238l-1.3027,-11.48575c0,0 20.32259,-9.87392 27.08191,-10.02394c4.23674,-0.09401 9.57136,9.2105 9.57136,9.2105l-1.234,11.89898z" fill="#636363" stroke="#000000" stroke-width="0.5" stroke-linecap="butt"/><path d="M325.26216,200.12743l-3.37982,-9.05224l11.95503,-4.46364l4.12653,13.26149z" fill="#636363" stroke="#000000" stroke-width="0.5" stroke-linecap="butt"/><path d="M314.08882,183.38995v-9.19105h4.09421z" fill="#ff0000" stroke="#000000" stroke-width="0.5" stroke-linecap="butt"/><path d="M317.18998,166.84659c0,2.12011 -0.68492,3.83881 -1.52981,3.83881c-0.84489,0 -1.3408,-0.20663 -1.3408,-2.32674c0,-2.12011 0.92549,-2.96177 1.77038,-2.96177c0.72746,0 0.63985,-1.91457 0.70652,-0.69942c0.01077,0.19615 0.39371,1.85446 0.39371,2.14912z" fill="#000000" stroke="#000000" stroke-width="0.5" stroke-linecap="butt"/><path d="M314.37719,166.9206l3.69373,-4.83532" fill="none" stroke="#000000" stroke-width="0.5" stroke-linecap="round"/><path d="M300.96323,188.73275v-10.43411h27.82951l0.45569,-11.16538l11.36207,-0.05404l0.35061,21.65353h-3.40815c0,0 -1.46668,-8.60383 -9.06758,-8.8216c-10.32503,-0.29581 -9.45115,8.8216 -9.45115,8.8216z" fill="#636363" stroke="#000000" stroke-width="0.5" stroke-linecap="butt"/><path d="M320.52664,189.13923c0,-4.13443 3.33027,-7.48605 7.43837,-7.48605c4.10809,0 7.43839,3.35162 7.43839,7.48605c0,4.13444 -3.33029,7.48605 -7.43839,7.48605c-4.10809,0 -7.43837,-3.35162 -7.43837,-7.48605z" fill="#bbbbbb" stroke="#000000" stroke-width="0.5" stroke-linecap="butt"/><path d="M314.33653,173.29164l6.17954,-2.80996" fill="none" stroke="#000000" stroke-width="0.5" stroke-linecap="round"/><path d="M276.81549,199.90236v-60.82023h86.62275v60.82023z" fill="none" stroke="#000000" stroke-width="1" stroke-linecap="butt"/><path d="M333.7116,131.95688h33.838v33.838z" fill="#ffba00" stroke="#000000" stroke-width="1" stroke-linecap="butt"/></g></g></svg>