<svg version="1.1" xmlns="http://www.w3.org/2000/svg" xmlns:xlink="http://www.w3.org/1999/xlink" width="118.87501" height="118.87501" viewBox="0,0,118.87501,118.87501"><g transform="translate(-260.5625,-120.56249)"><g fill="#f500ff" stroke="none" stroke-width="0" stroke-miterlimit="10"><path d="M345.36,213.02083c0,14.58952 -5.04625,26.41667 -11.27111,26.41667h-28.17778c-6.22487,0 -11.27111,-11.82714 -11.27111,-26.41667v-66.04167c0,-14.58952 5.04625,-26.41667 11.27111,-26.41667h28.17778c6.22487,0 11.27111,11.82714 11.27111,26.41667z"/><path d="M286.97917,205.36c-14.58952,0 -26.41667,-5.04625 -26.41667,-11.27111v-28.17778c0,-6.22487 11.82714,-11.27111 26.41667,-11.27111h66.04167c14.58952,0 26.41667,5.04625 26.41667,11.27111v28.17778c0,6.22487 -11.82714,11.27111 -26.41667,11.27111z"/></g></g></svg>