<svg version="1.1" xmlns="http://www.w3.org/2000/svg" xmlns:xlink="http://www.w3.org/1999/xlink" width="20.36127" height="46.34442" viewBox="0,0,20.36127,46.34442"><g transform="translate(-229.68193,-157.08745)"><g data-paper-data="{&quot;isPaintingLayer&quot;:true}" fill-rule="nonzero" stroke="#000000" stroke-width="1.28786" stroke-linejoin="miter" stroke-miterlimit="10" stroke-dasharray="" stroke-dashoffset="0" style="mix-blend-mode: normal"><path d="M231.77978,186.37772c-3.7045,-8.1889 0.83902,-19.46534 0.83902,-19.46534h15.94145c0,0 -2.85268,10.21058 -2.85268,15.10242c0,6.42913 2.85268,20.13656 2.85268,20.13656c0,0 -13.07597,-7.58474 -16.78047,-15.77364z" fill="#ff0000" stroke-linecap="butt"></path><path d="M232.451,166.07336c0,0 -0.10526,-2.52165 1.34244,-3.58451c1.44769,-1.06285 4.23174,-0.81503 5.52544,-1.45769c0.66898,-0.33233 0.34772,-2.12682 0.34772,-2.12682l3.15004,-1.0557c0,0 1.44878,2.00788 2.19336,2.43416c0.2595,0.14857 3.55269,0.85397 4.38928,2.10063c0.8366,1.24666 -0.50341,3.68993 -0.50341,3.68993z" fill="#2fff00" stroke-linecap="butt"></path><path d="M238.75416,176.16261c0,2.95405 -0.75129,5.34877 -1.67805,5.34877c-0.92676,0 -1.67805,-2.39472 -1.67805,-5.34877c0,-2.95405 0.75129,-5.34877 1.67805,-5.34877c0.92676,0 1.67805,2.39472 1.67805,5.34877z" fill="#000000" stroke-linecap="butt"></path><path d="M243.47367,176.26749c0,0.50476 -0.0456,1.45867 -0.0456,1.45867l-2.54238,-0.19625c0,0 -0.03396,-0.82818 -0.03396,-1.26242c0,-3.06989 0.58695,-5.55853 1.31097,-5.55853c0.72403,0 1.31097,2.48864 1.31097,5.55853z" fill="#000000" stroke-linecap="butt"></path><path d="M240.11757,186.01416l-5.81723,1.99967l-0.18179,-4.09024l10.08926,3.36308" fill="#ffffff" stroke-linecap="round"></path></g></g></svg>