<svg version="1.1" xmlns="http://www.w3.org/2000/svg" xmlns:xlink="http://www.w3.org/1999/xlink" width="64.79222" height="88.41462" viewBox="0,0,64.79222,88.41462"><g transform="translate(-207.5598,-137.40138)"><g data-paper-data="{&quot;isPaintingLayer&quot;:true}" fill-rule="nonzero" stroke-linejoin="miter" stroke-miterlimit="10" stroke-dasharray="" stroke-dashoffset="0" style="mix-blend-mode: normal"><path d="M208.55231,222.40699v-84.81396h62.89539v84.81396z" fill="#515151" stroke="none" stroke-width="0" stroke-linecap="butt"></path><g stroke="#000000" stroke-width="1.28786"><g fill="#ffffff" stroke-linecap="butt"><path d="M262.68248,178.65874c0,2.88531 -9.88539,5.22432 -22.07963,5.22432c-12.19424,0 -22.07963,-2.33901 -22.07963,-5.22432c0,-2.88531 9.88539,-5.22432 22.07963,-5.22432c12.19424,0 22.07963,2.33901 22.07963,5.22432z"></path><path d="M240.60285,156.57911c2.88531,0 5.22432,9.88539 5.22432,22.07963c0,12.19425 -2.33901,22.07963 -5.22432,22.07963c-2.88531,0 -5.22432,-9.88538 -5.22432,-22.07963c0,-12.19425 2.33901,-22.07963 5.22432,-22.07963z"></path><path d="M256.21551,163.04608c2.04022,2.04022 -3.29587,10.68417 -11.9185,19.30681c-8.62263,8.62263 -17.26659,13.95873 -19.30681,11.9185c-2.04022,-2.04022 3.29587,-10.68417 11.9185,-19.30681c8.62263,-8.62263 17.26659,-13.95873 19.30681,-11.9185z"></path><path d="M224.99019,163.04608c2.04022,-2.04022 10.68417,3.29587 19.30681,11.9185c8.62263,8.62263 13.95873,17.26659 11.9185,19.30681c-2.04022,2.04022 -10.68417,-3.29587 -19.30681,-11.9185c-8.62263,-8.62263 -13.95873,-17.26659 -11.9185,-19.30681z"></path><path d="M260.92173,187.29894c-1.12908,2.65522 -11.14145,0.93935 -22.36326,-3.8325c-11.22181,-4.77185 -19.40358,-10.79269 -18.2745,-13.44791c1.12908,-2.65522 11.14145,-0.93935 22.36326,3.8325c11.22181,4.77185 19.40358,10.79269 18.2745,13.44791z"></path><path d="M249.24306,158.33985c2.65522,1.12908 0.93935,11.14145 -3.8325,22.36326c-4.77185,11.22181 -10.79269,19.40358 -13.44791,18.2745c-2.65522,-1.12908 -0.93935,-11.14145 3.8325,-22.36326c4.77185,-11.22181 10.79269,-19.40358 13.44791,-18.2745z"></path><path d="M238.55847,173.85103c11.22181,-4.77185 21.23418,-6.48772 22.36326,-3.8325c1.12908,2.65522 -7.05269,8.67606 -18.2745,13.44791c-11.22181,4.77185 -21.23418,6.48772 -22.36326,3.8325c-1.12908,-2.65522 7.05269,-8.67606 18.2745,-13.44791z" data-paper-data="{&quot;index&quot;:null}"></path><path d="M245.41055,176.61436c4.77185,11.22181 6.48772,21.23418 3.8325,22.36326c-2.65522,1.12908 -8.67606,-7.05269 -13.44791,-18.2745c-4.77185,-11.22181 -6.48772,-21.23418 -3.8325,-22.36326c2.65522,-1.12908 8.67606,7.05269 13.44791,18.2745z" data-paper-data="{&quot;index&quot;:null}"></path></g><path d="M236.86009,205.97781v-24.5343h6.9495v24.5343z" fill="#00ff50" stroke-linecap="butt"></path><path d="M230.84801,210.05227c-4.83214,0 -8.74936,-2.04803 -8.74936,-4.5744c0,-2.52637 3.91722,-4.5744 8.74936,-4.5744c4.83214,0 8.74936,2.04803 8.74936,4.5744c0,2.52637 -3.91722,4.5744 -8.74936,4.5744z" fill="#00ff50" stroke-linecap="butt"></path><path d="M259.75839,205.08417c0,2.60575 -4.27537,4.71814 -9.5493,4.71814c-5.27393,0 -9.5493,-2.11239 -9.5493,-4.71814c0,-2.60575 4.27537,-4.71813 9.5493,-4.71813c5.27393,0 9.5493,2.11238 9.5493,4.71813z" fill="#00ff50" stroke-linecap="butt"></path><path d="M240.52857,191.31722c-7.94887,0 -14.3927,-5.27955 -14.3927,-11.79221c0,-6.51266 6.44383,-11.79222 14.3927,-11.79222c7.94887,0 14.3927,5.27956 14.3927,11.79222c0,6.51266 -6.44383,11.79221 -14.3927,11.79221z" fill="#fffd09" stroke-linecap="butt"></path><path d="M239.78921,182.47833c-0.70757,0 -1.28116,-2.44813 -1.28116,-5.46804c0,-3.01992 0.5736,-5.46804 1.28116,-5.46804c0.70757,0 1.28116,2.44813 1.28116,5.46804c0,3.01992 -0.5736,5.46804 -1.28116,5.46804z" fill="#000000" stroke-linecap="butt"></path><path d="M246.85115,181.42849c-0.45905,0 -0.83119,-2.42294 -0.83119,-5.41179c0,-2.98885 0.37214,-5.41179 0.83119,-5.41179c0.45905,0 0.83119,2.42294 0.83119,5.41179c0,2.98885 -0.37214,5.41179 -0.83119,5.41179z" fill="#000000" stroke-linecap="butt"></path><path d="M239.06263,185.53396c0,0 -7.94716,0.62177 -9.25,-1.5c-1.30284,-2.12177 3.625,-6.625 3.625,-6.625l0.25,0.375c0,0 -2.43962,3.453 -1.23653,4.44052c4.20496,3.45152 10.48653,3.43448 10.48653,3.43448z" fill="#ffffff" stroke-linecap="round"></path></g><path d="M208.55232,222.38702v-12.81396h62.89539v12.81396z" fill="#969696" stroke="none" stroke-width="0" stroke-linecap="butt"></path><path d="M208.50228,222.35702v-84.81396h8.64539v84.81396z" fill="#969696" stroke="none" stroke-width="0" stroke-linecap="butt"></path><path d="M264.05232,222.40701v-84.81396h8.14539v84.81396z" fill="#969696" stroke="none" stroke-width="0" stroke-linecap="butt"></path><path d="M208.55232,147.90701v-10.31396h62.89539v10.31396z" fill="#969696" stroke="none" stroke-width="0" stroke-linecap="butt"></path><path d="M216.29733,211.48042v-21.00188l21.13534,21.00188z" fill="#969696" stroke="none" stroke-width="0" stroke-linecap="butt"></path><path d="M223.4118,215.22399v-12.15842h44.05785v12.15842z" fill="#969696" stroke="none" stroke-width="0" stroke-linecap="butt"></path><text transform="translate(243.15597,219.566) scale(0.47116,0.5)" font-size="40" xml:space="preserve" fill="#000000" fill-rule="nonzero" stroke="none" stroke-width="1" stroke-linecap="butt" stroke-linejoin="miter" stroke-miterlimit="10" stroke-dasharray="" stroke-dashoffset="0" font-family="Sans Serif" font-weight="normal" text-anchor="start" style="mix-blend-mode: normal"><tspan x="0" dy="0">-50</tspan></text><g stroke-linecap="butt"><path d="M223.93599,213.69347l-2.65375,6.84999l-2.38631,-6.84999z" data-paper-data="{&quot;index&quot;:null}" fill="#ffff00" stroke="#ffff00" stroke-width="1"></path><path d="M218.96774,202.31762l2.38632,-6.84999l2.65375,6.84999z" fill="#ffff00" stroke="#ffff00" stroke-width="1"></path><path d="M214.78434,208.21682c0,-3.72115 3.01658,-6.73773 6.73773,-6.73773c3.72115,0 6.73772,3.01658 6.73772,6.73773c0,3.72115 -3.01658,6.73772 -6.73772,6.73772c-3.72115,0 -6.73773,-3.01658 -6.73773,-6.73772z" fill="#ffff00" stroke="none" stroke-width="0"></path><path d="M227.21235,205.68172l6.87114,2.59848l-6.83054,2.44142z" data-paper-data="{&quot;index&quot;:null}" fill="#ffff00" stroke="#ffff00" stroke-width="1"></path><path d="M215.87691,210.74146l-6.86899,-2.33105l6.82838,-2.70885z" fill="#ffff00" stroke="#ffff00" stroke-width="1"></path><path d="M227.52793,210.32821l3.04475,6.68537l-6.56714,-3.08051z" data-paper-data="{&quot;index&quot;:null}" fill="#ffff00" stroke="#ffff00" stroke-width="1"></path><path d="M215.91925,205.9314l-3.23165,-6.49409l6.75404,2.88922z" fill="#ffff00" stroke="#ffff00" stroke-width="1"></path><path d="M224.08736,202.38559l6.66063,-3.0985l-3.02751,6.59174z" data-paper-data="{&quot;index&quot;:null}" fill="#ffff00" stroke="#ffff00" stroke-width="1"></path><path d="M219.78421,214.02932l-6.46785,3.28387l2.83472,-6.7771z" fill="#ffff00" stroke="#ffff00" stroke-width="1"></path><path d="M216.80058,208.41738c0,-2.70702 2.19448,-4.90151 4.9015,-4.90151c2.70702,0 4.90151,2.19448 4.90151,4.90151c0,2.70702 -2.19448,4.9015 -4.90151,4.9015c-2.70702,0 -4.9015,-2.19448 -4.9015,-4.9015z" fill="#fffff7" stroke="none" stroke-width="0"></path></g><path d="M272.35202,137.40138v33.64619l-33.86,-33.64619z" fill="#00e2ff" stroke="none" stroke-width="0" stroke-linecap="butt"></path></g></g></svg>