<svg version="1.1" xmlns="http://www.w3.org/2000/svg" xmlns:xlink="http://www.w3.org/1999/xlink" width="28.44156" height="30.51893" viewBox="0,0,28.44156,30.51893"><g transform="translate(-225.74688,-175.71827)"><g data-paper-data="{&quot;isPaintingLayer&quot;:true}" fill-rule="nonzero" stroke="#000000" stroke-width="1.28786" stroke-linejoin="miter" stroke-miterlimit="10" stroke-dasharray="" stroke-dashoffset="0" style="mix-blend-mode: normal"><path d="M231.91812,205.59327v-16.25h16.25v16.25z" fill="#fff9c9" stroke-linecap="butt"></path><path d="M226.41812,190.34327c0,0 0.60725,-14.6147 14,-14.625c13.54059,-0.01042 13.125,14.625 13.125,14.625z" fill="#fff300" stroke-linecap="butt"></path><path d="M238.04312,194.53077c0,2.45076 -0.58763,4.4375 -1.3125,4.4375c-0.72487,0 -1.3125,-1.98674 -1.3125,-4.4375c0,-2.45076 0.58763,-4.4375 1.3125,-4.4375c0.72487,0 1.3125,1.98674 1.3125,4.4375z" fill="#000000" stroke-linecap="butt"></path><path d="M241.54312,201.71827c0,0 -2.64236,2.29485 -5.78329,0.50383c-1.11765,-0.63731 -1.84171,-1.50383 -1.84171,-1.50383" fill="none" stroke-linecap="round"></path><path d="M243.79312,194.90577c0,2.45076 -0.58763,4.4375 -1.3125,4.4375c-0.72487,0 -1.3125,-1.98674 -1.3125,-4.4375c0,-2.45076 0.58763,-4.4375 1.3125,-4.4375c0.72487,0 1.3125,1.98674 1.3125,4.4375z" fill="#000000" stroke-linecap="butt"></path></g></g></svg>