<svg version="1.1" xmlns="http://www.w3.org/2000/svg" xmlns:xlink="http://www.w3.org/1999/xlink" width="736" height="448.52082" viewBox="0,0,736,448.52082"><g transform="translate(53.42368,58.02083)"><g stroke-miterlimit="10"><path d="M-45.92367,273.97918c-4.14213,0 -7.5,-2.3923 -7.5,-5.34335v-321.3133c0,-2.95105 3.35787,-5.34334 7.5,-5.34334h721c4.14214,0 7.5,2.39229 7.5,5.34334v321.31331c0,2.95105 -3.35786,5.34335 -7.5,5.34335z" fill-opacity="0.50196" fill="#000000" stroke="none" stroke-width="0"/><path d="M124.48889,262.33333v-168h387.02222v168z" fill="#adadad" stroke="#000000" stroke-width="1"/><path d="M53.5,72v-87h554v87z" fill="#adadad" stroke="#000000" stroke-width="1"/><text transform="translate(137.82601,157.88607) scale(0.39708,0.39708)" font-size="40" xml:space="preserve" fill="#000000" stroke="none" stroke-width="1" font-family="Sans Serif" font-weight="normal" text-anchor="start"><tspan x="0" dy="0">hI,</tspan><tspan x="0" dy="46.150000000000006px"> </tspan><tspan x="0" dy="46.150000000000006px">wHen yUo sTArt dONt dO anITHyng</tspan><tspan x="0" dy="46.150000000000006px"> </tspan><tspan x="0" dy="46.150000000000006px">                                      siNcERLy, nOT tHE sOMbies</tspan></text><text transform="translate(262.56645,55.01875) scale(0.86836,0.86836)" font-size="40" xml:space="preserve" fill="#000000" stroke="none" stroke-width="1" font-family="Sans Serif" font-weight="normal" text-anchor="start"><tspan x="0" dy="0">"HELP"</tspan></text><path d="M186.5,390v-116h79v116z" fill="#adadad" stroke="#000000" stroke-width="1"/><path d="M369.5,390v-116h93v116z" fill="#adadad" stroke="#000000" stroke-width="1"/></g></g></svg>