<svg version="1.1" xmlns="http://www.w3.org/2000/svg" xmlns:xlink="http://www.w3.org/1999/xlink" width="54.16286" height="54.26523" viewBox="0,0,54.16286,54.26523"><g transform="translate(-294.14398,-166.6817)"><g stroke="#000000" stroke-width="1.28786" stroke-miterlimit="10"><path d="M294.78791,193.76314c0,-14.60103 11.83647,-26.4375 26.4375,-26.4375c14.60103,0 26.4375,11.83647 26.4375,26.4375c0,14.60103 -11.83647,26.4375 -26.4375,26.4375c-14.60103,0 -26.4375,-11.83647 -26.4375,-26.4375z" fill="#18d83b" stroke-linecap="butt"/><path d="M346.37594,200.53533c0,0 1.21055,9.84918 -13.85639,16.85334c-13.91913,6.47058 -21.28646,0.14666 -21.28646,0.14666c0,0 1.29221,-11.56273 6.85714,-14.14286c5.56494,-2.58013 11.30875,5.72041 11.30875,5.72041c0,0 0.89411,-9.59494 3.65243,-10.79819c4.99147,-2.17742 13.32453,2.22063 13.32453,2.22063z" fill="#1dff46" stroke-linecap="round"/><path d="M326.20672,211.6839c0.63327,3.33298 0.48686,6.16025 -0.32701,6.31488c-0.81387,0.15463 -1.987,-2.42192 -2.62027,-5.7549c-0.63327,-3.33298 0.29885,-2.30311 1.11272,-2.45774c0.81387,-0.15463 1.20129,-1.43522 1.83455,1.89776z" fill="#000000" stroke-linecap="butt"/><path d="M314.37594,212.17817l11.57143,-3" fill="none" stroke-linecap="round"/><path d="M331.87594,206.39246l11.57143,-3" fill="none" stroke-linecap="round"/><path d="M335.42101,208.04104c0.63326,3.33298 0.48686,6.16025 -0.32701,6.31488c-0.81387,0.15464 -1.987,-2.42192 -2.62026,-5.7549c-0.63326,-3.33298 0.29885,-2.3031 1.11272,-2.45774c0.81387,-0.15464 1.20129,-1.43522 1.83455,1.89776z" fill="#000000" stroke-linecap="butt"/></g></g></svg>