<svg version="1.1" xmlns="http://www.w3.org/2000/svg" xmlns:xlink="http://www.w3.org/1999/xlink" width="56.68993" height="53.41178" viewBox="0,0,56.68993,53.41178"><defs><linearGradient x1="241.87488" y1="186.20185" x2="241.87488" y2="198.08664" gradientUnits="userSpaceOnUse" id="color-1"><stop offset="0" stop-color="#40f7b4"></stop><stop offset="1" stop-color="#33d6ff"></stop></linearGradient><linearGradient x1="242.14171" y1="181.52468" x2="255.81835" y2="177.26658" gradientUnits="userSpaceOnUse" id="color-2"><stop offset="0" stop-color="#40f7b4"></stop><stop offset="1" stop-color="#33d6ff"></stop></linearGradient><linearGradient x1="245.89095" y1="186.67007" x2="260.38391" y2="196.10671" gradientUnits="userSpaceOnUse" id="color-3"><stop offset="0" stop-color="#40f7b4"></stop><stop offset="1" stop-color="#33d6ff"></stop></linearGradient></defs><g transform="translate(-208.27145,-153.1953)"><g data-paper-data="{&quot;isPaintingLayer&quot;:true}" fill-rule="nonzero" stroke="#000000" stroke-width="1.28786" stroke-linejoin="miter" stroke-miterlimit="10" stroke-dasharray="" stroke-dashoffset="0" style="mix-blend-mode: normal"><path d="M239.43992,197.1709c0,0 1.14836,-3.72059 1.36799,-5.50408c0.1961,-1.59242 -0.11277,-4.68875 -0.11277,-4.68875l2.9349,-0.77622c0,0 0.73141,4.24872 0.67689,6.18425c-0.05696,2.02226 -1.01168,5.70053 -1.01168,5.70053z" fill="url(#color-1)" stroke-linecap="round"></path><path d="M243.06505,184.49035l10.15542,-14.92616c0,0 1.79547,4.05234 1.97857,6.81621c0.18309,2.76386 0.48669,4.4607 -1.09807,6.47512c-1.58476,2.01442 -8.89398,6.22605 -8.89398,6.22605z" fill="url(#color-2)" stroke-linecap="round"></path><path d="M250.30484,175.32744c0,7.33656 -5.85068,13.28402 -13.06785,13.28402c-7.21717,0 -13.06784,-5.94746 -13.06784,-13.28402c0,-7.33656 5.85067,-13.28403 13.06784,-13.28403c7.21717,0 13.06785,5.94746 13.06785,13.28403z" fill="#40f7b4" stroke-linecap="butt"></path><g fill="#000000"><path d="M239.56498,176.52915c0.73396,2.55074 0.26984,4.92329 -1.03664,5.29922c-1.30648,0.37593 -2.96059,-1.38711 -3.69455,-3.93785c-0.73396,-2.55074 -0.26985,-4.92329 1.03663,-5.29922c1.30648,-0.37593 2.96059,1.38711 3.69455,3.93785z" stroke-linecap="butt"></path><path d="M235.14718,178.01738l-4.69392,-1.78465l2.15953,-0.96975l-2.46382,-1.9038l4.66735,-0.12372z" stroke-linecap="round"></path></g><g data-paper-data="{&quot;index&quot;:null}" fill="#000000"><path d="M243.07381,166.97325c1.16878,-0.69437 3.21527,0.5926 4.57094,2.87451c1.35568,2.28191 1.50719,4.69468 0.3384,5.38905c-1.16878,0.69437 -3.21527,-0.59259 -4.57095,-2.8745c-1.35568,-2.28191 -1.50718,-4.69469 -0.3384,-5.38906z" stroke-linecap="butt"></path><path d="M244.26516,166.64649l3.28711,-3.31578l-0.30056,3.09912l2.18574,-0.90914l-1.91491,4.64231z" stroke-linecap="round"></path></g><path d="M245.93097,187.85619l17.7773,3.14489c0,0 -2.96032,3.29877 -5.40627,4.59866c-2.44595,1.29991 -3.86925,2.27236 -6.35625,1.65256c-2.48701,-0.61979 -9.3246,-5.56043 -9.3246,-5.56043z" fill="url(#color-3)" stroke-linecap="round"></path><path d="M240.1771,192.92386c5.41461,0.59526 16.65355,9.16611 16.65355,9.16611c0,0 -0.42495,3.36226 -4.66538,3.87318c-6.7356,0.81156 -18.80239,-1.11921 -21.54183,-1.42037c-1.08569,-0.11936 -2.51647,-0.69947 -2.98181,-1.3377c-0.7845,-1.07597 -0.15027,-2.3802 -0.15027,-2.3802c0,0 7.27115,-8.49628 12.68575,-7.90102z" fill="#d7ffff" stroke-linecap="round"></path><path d="M223.37642,186.05053l-3.12927,-13.14293l-7.71887,8.55334l3.65817,-18.17746l-6.6365,-4.33925l8.93375,-4.5945l8.77916,1.54558l7.81209,-1.29033l8.93375,8.42325l-6.126,-1.78675l2.042,11.7415l-8.93375,-5.105l-6.38125,15.315z" fill="#b7effc" stroke-linecap="round"></path><path d="M212.61296,169.66473c0,-2.25553 1.82846,-4.084 4.084,-4.084c2.25553,0 4.084,1.82846 4.084,4.084c0,2.25553 -1.82847,4.084 -4.084,4.084c-2.25553,0 -4.084,-1.82847 -4.084,-4.084z" fill="#fff6bf" stroke-linecap="butt"></path><path d="M221.54671,158.56136c0,-2.60796 2.11416,-4.72213 4.72212,-4.72213c2.60796,0 4.72213,2.11417 4.72213,4.72213c0,2.60796 -2.11417,4.72212 -4.72213,4.72212c-2.60796,0 -4.72212,-2.11416 -4.72212,-4.72212z" fill="#fff6bf" stroke-linecap="butt"></path><path d="M217.9732,165.19785c0,-2.8899 2.34272,-5.23262 5.23263,-5.23262c2.8899,0 5.23263,2.34272 5.23263,5.23262c0,2.8899 -2.34272,5.23263 -5.23263,5.23263c-2.8899,0 -5.23263,-2.34272 -5.23263,-5.23263z" fill="#fff6bf" stroke-linecap="butt"></path><path d="M243.87001,183.55472l-7.00085,0.41527c0,0 -4.04306,2.99719 -2.55012,2.87008c1.49294,-0.12711 9.55096,-3.28534 9.55096,-3.28534z" fill="#000000" stroke-linecap="round"></path></g></g></svg>