<svg version="1.1" xmlns="http://www.w3.org/2000/svg" xmlns:xlink="http://www.w3.org/1999/xlink" width="64.79221" height="88.80982" viewBox="0,0,64.79221,88.80982"><g transform="translate(-287.55981,-137.40138)"><g stroke-miterlimit="10"><path d="M288.55232,222.40698v-84.81396h62.89539v84.81396z" fill="#515151" stroke="none" stroke-width="0" stroke-linecap="butt"/><g stroke-width="1.28786"><path d="M308.09007,162.25757l-4.58878,-7.42234l8.72134,2.10526l-0.07631,-4.77127l2.97292,3.32463l2.1683,-4.22214l0.76645,5.49293" fill="#f7006f" stroke="#000000" stroke-linecap="round"/><path d="M305.88975,194.85517c-5.15182,-1.5283 -8.61717,-5.16411 -7.74007,-8.12081c0.87711,-2.9567 5.76454,-4.11465 10.91636,-2.58635c5.15182,1.5283 8.61717,5.16411 7.74007,8.12081c-0.87711,2.9567 -5.76454,4.11465 -10.91636,2.58635z" fill="#00ff1b" stroke="#000000" stroke-linecap="butt"/><path d="M323.87075,191.93038c-0.87711,-2.9567 2.58824,-6.59251 7.74007,-8.12081c5.15182,-1.5283 10.03926,-0.37033 10.91636,2.58637c0.8771,2.9567 -2.58824,6.5925 -7.74007,8.12079c-5.15182,1.5283 -10.03925,0.37035 -10.91636,-2.58635z" fill="#00ff1b" stroke="#000000" stroke-linecap="butt"/><path d="M304.57858,172.31592c0,-8.69144 7.04579,-15.73723 15.73723,-15.73723c8.69144,0 15.73723,7.04579 15.73723,15.73723c0,8.69144 -7.04579,15.73723 -15.73723,15.73723c-8.69144,0 -15.73723,-7.04579 -15.73723,-15.73723z" fill="#f7006f" stroke="#000000" stroke-linecap="butt"/><path d="M316.12924,199.5949c0.87711,2.9567 -2.58824,6.59251 -7.74006,8.12081c-5.15182,1.5283 -10.03925,0.37035 -10.91636,-2.58635c-0.87711,-2.9567 2.58824,-6.59251 7.74006,-8.12081c5.15182,-1.5283 10.03925,-0.37035 10.91636,2.58635z" fill="#00ff1b" stroke="#000000" stroke-linecap="butt"/><path d="M334.11024,197.34698c5.15182,1.5283 8.61717,5.1641 7.74007,8.1208c-0.8771,2.9567 -5.76453,4.11466 -10.91636,2.58636c-5.15182,-1.5283 -8.61717,-5.16411 -7.74007,-8.12081c0.87711,-2.9567 5.76453,-4.11465 10.91636,-2.58635z" fill="#00ff1b" stroke="#000000" stroke-linecap="butt"/><path d="M320.42304,199.31621c-3.27097,0 -5.92262,-1.93191 -5.92262,-4.31505c0,-2.38314 2.65165,-4.31505 5.92262,-4.31505c3.27097,0 5.92261,1.93191 5.92261,4.31505c0,2.38314 -2.65164,4.31505 -5.92261,4.31505z" fill="#b2b2b2" stroke="#000000" stroke-linecap="butt"/><path d="M307.05485,167.55084l14.73872,-0.21675" fill="none" stroke="#000000" stroke-linecap="round"/><path d="M322.01032,167.55084c0,0 -3.68881,6.44328 -6.50237,6.71911c-2.81357,0.27584 -5.05932,-6.48147 -5.05932,-6.48147z" fill="#ffffff" stroke="#000000" stroke-linecap="round"/><path d="M324.87022,167.33409l14.73872,0.21675" fill="none" stroke="#000000" stroke-linecap="round"/><path d="M336.72282,167.9577c0,0 -2.7534,6.5881 -5.56697,6.31226c-2.81356,-0.27584 -6.50237,-6.71911 -6.50237,-6.71911z" fill="#ffffff" stroke="#000000" stroke-linecap="round"/><path d="M317.71555,182.73288l-7.10713,-0.50765l2.53826,-4.39965c0,0 -0.37825,1.88522 1.45236,3.05807c4.24709,2.72106 11.06974,3.71064 11.06974,3.71064" fill="#ffffff" stroke="#000000" stroke-linecap="round"/><path d="M317.74201,196.72508l6.32546,-2.69335l-10.26148,-0.63172l7.09507,-3.4112" fill="none" stroke="#00d3e3" stroke-linecap="round"/></g><path d="M288.55234,222.38702v-12.81396h62.89539v12.81396z" fill="#969696" stroke="none" stroke-width="0" stroke-linecap="butt"/><path d="M288.5023,222.35702v-84.81396h8.64539v84.81396z" fill="#969696" stroke="none" stroke-width="0" stroke-linecap="butt"/><path d="M344.05234,222.40701v-84.81396h8.14539v84.81396z" fill="#969696" stroke="none" stroke-width="0" stroke-linecap="butt"/><path d="M288.55234,147.90701v-10.31396h62.89539v10.31396z" fill="#969696" stroke="none" stroke-width="0" stroke-linecap="butt"/><path d="M296.29735,211.48042v-21.00188l21.13534,21.00188z" fill="#969696" stroke="none" stroke-width="0" stroke-linecap="butt"/><path d="M303.41182,215.22399v-12.15842h44.05785v12.15842z" fill="#969696" stroke="none" stroke-width="0" stroke-linecap="butt"/><text transform="translate(318.3159,219.9612) scale(0.47116,0.5)" font-size="40" xml:space="preserve" fill="#000000" stroke="none" stroke-width="1" stroke-linecap="butt" font-family="Sans Serif" font-weight="normal" text-anchor="start"><tspan x="0" dy="0">100</tspan></text><g stroke-linecap="butt"><path d="M303.93601,213.69347l-2.65375,6.84999l-2.38631,-6.84999z" fill="#ffff00" stroke="#ffff00" stroke-width="1"/><path d="M298.96776,202.31762l2.38632,-6.84999l2.65375,6.84999z" fill="#ffff00" stroke="#ffff00" stroke-width="1"/><path d="M294.78436,208.21682c0,-3.72115 3.01658,-6.73773 6.73773,-6.73773c3.72115,0 6.73772,3.01658 6.73772,6.73773c0,3.72115 -3.01658,6.73772 -6.73772,6.73772c-3.72115,0 -6.73773,-3.01658 -6.73773,-6.73772z" fill="#ffff00" stroke="none" stroke-width="0"/><path d="M307.21237,205.68172l6.87114,2.59848l-6.83054,2.44142z" fill="#ffff00" stroke="#ffff00" stroke-width="1"/><path d="M295.87693,210.74146l-6.86899,-2.33105l6.82838,-2.70885z" fill="#ffff00" stroke="#ffff00" stroke-width="1"/><path d="M307.52795,210.32821l3.04475,6.68537l-6.56714,-3.08051z" fill="#ffff00" stroke="#ffff00" stroke-width="1"/><path d="M295.91927,205.9314l-3.23165,-6.49409l6.75404,2.88922z" fill="#ffff00" stroke="#ffff00" stroke-width="1"/><path d="M304.08738,202.38559l6.66063,-3.0985l-3.02751,6.59174z" fill="#ffff00" stroke="#ffff00" stroke-width="1"/><path d="M299.78423,214.02932l-6.46785,3.28387l2.83472,-6.7771z" fill="#ffff00" stroke="#ffff00" stroke-width="1"/><path d="M296.8006,208.41738c0,-2.70702 2.19448,-4.90151 4.9015,-4.90151c2.70702,0 4.90151,2.19448 4.90151,4.90151c0,2.70702 -2.19448,4.9015 -4.90151,4.9015c-2.70702,0 -4.9015,-2.19448 -4.9015,-4.9015z" fill="#fffff7" stroke="none" stroke-width="0"/></g><path d="M352.35202,137.40138v33.64619l-33.86,-33.64619z" fill="#3aff00" stroke="none" stroke-width="0" stroke-linecap="butt"/></g></g></svg>