<svg version="1.1" xmlns="http://www.w3.org/2000/svg" xmlns:xlink="http://www.w3.org/1999/xlink" width="50.49323" height="61.79548" viewBox="0,0,50.49323,61.79548"><g transform="translate(-216.98349,-148.58502)"><g data-paper-data="{&quot;isPaintingLayer&quot;:true}" fill-rule="nonzero" stroke="#000000" stroke-width="1.28786" stroke-linejoin="miter" stroke-miterlimit="10" stroke-dasharray="" stroke-dashoffset="0" style="mix-blend-mode: normal"><path d="M238.8924,205.66212v-24.5343h8.14973v24.5343z" fill="#00ff50" stroke-linecap="butt"></path><path d="M242.41119,183.9493c2.12579,-1.85517 7.22238,-0.5484 11.38355,2.91876c4.16117,3.46716 5.81117,7.78176 3.68538,9.63692c-2.12579,1.85517 -7.22238,0.54841 -11.38355,-2.91875c-4.16117,-3.46716 -5.81117,-7.78176 -3.68538,-9.63693z" data-paper-data="{&quot;index&quot;:null}" fill="#00ff50" stroke-linecap="butt"></path><path d="M238.66943,194.80898c-4.05305,3.37707 -9.01721,4.64989 -11.08777,2.84292c-2.07055,-1.80696 -0.46343,-6.00946 3.58962,-9.38653c4.05305,-3.37707 9.01721,-4.64988 11.08777,-2.84292c2.07055,1.80696 0.46343,6.00946 -3.58962,9.38653z" fill="#00ff50" stroke-linecap="butt"></path><path d="M228.79142,174.11175c0.62916,-2.15767 -3.95928,-8.79166 -0.14807,-14.65649c2.64098,-4.06404 2.60699,-7.51391 2.60699,-7.51391c0,0 13.73716,13.45318 17.25767,14.19963c1.95365,0.41423 15.53461,-8.14629 15.53461,-8.14629c0,0 3.08693,3.15296 2.7669,7.21309c-0.44355,5.62725 -4.41943,12.9715 -5.25877,15.84995c-1.84293,6.32021 -10.67035,9.88884 -19.71659,7.97075c-9.04624,-1.91808 -14.88567,-8.59653 -13.04273,-14.91674z" data-paper-data="{&quot;index&quot;:null}" fill="#bc0000" stroke-linecap="butt"></path><path d="M242.60277,187.2785c-9.04624,1.91808 -17.87365,-1.65054 -19.71659,-7.97075c-0.83934,-2.87845 -4.81522,-10.2227 -5.25877,-15.84995c-0.32003,-4.06012 2.7669,-7.21309 2.7669,-7.21309c0,0 13.58096,8.56052 15.53461,8.14629c3.52051,-0.74645 5.67719,-14.94963 5.67719,-14.94963c0,0 5.38978,1.82486 8.03076,5.88891c3.81121,5.86483 5.37948,14.87382 6.00864,17.03149c1.84293,6.32021 -3.9965,12.99866 -13.04273,14.91674z" fill="#bc0000" stroke-linecap="butt"></path><path d="M231.842,209.73658c-5.66668,0 -10.26043,-2.04803 -10.26043,-4.5744c0,-2.52637 4.59375,-4.5744 10.26043,-4.5744c5.66668,0 10.26043,2.04803 10.26043,4.5744c0,2.52637 -4.59375,4.5744 -10.26043,4.5744z" fill="#00ff50" stroke-linecap="butt"></path><path d="M265.7454,204.76848c0,2.60575 -5.01376,4.71814 -11.19853,4.71814c-6.18477,0 -11.19853,-2.11239 -11.19853,-4.71814c0,-2.60575 5.01376,-4.71813 11.19853,-4.71813c6.18477,0 11.19853,2.11238 11.19853,4.71813z" fill="#00ff50" stroke-linecap="butt"></path><path d="M242.95991,191.50153c-9.32169,0 -16.87842,-5.27955 -16.87842,-11.79221c0,-2.9661 -1.78013,-10.91142 -0.6182,-16.46366c0.83835,-4.006 4.72627,-6.43061 4.72627,-6.43061c0,0 10.75721,11.10205 12.77034,11.10205c3.62771,0 9.73984,-13.3397 9.73984,-13.3397c0,0 4.71412,2.87996 6.12702,7.36734c2.03897,6.47574 1.01156,15.54121 1.01156,17.76458c0,6.51266 -7.55672,11.79221 -16.87842,11.79221z" fill="#ff0000" stroke-linecap="butt"></path><path d="M243.1065,191.62653c-2.87022,0 -7.93961,-1.38349 -7.93961,-1.38349c0,0 8.93443,-3.48489 10.6917,-9.49336c3.37772,-11.54909 -3.67426,-12.70758 -2.7521,-12.70758c3.62771,0 9.73984,-13.3397 9.73984,-13.3397c0,0 4.71412,2.87996 6.12702,7.36734c2.03897,6.47574 1.01156,15.54121 1.01156,17.76458c0,6.51266 -7.55672,11.79221 -16.87842,11.79221z" fill="#ff0000" stroke-linecap="butt"></path><path d="M231.65574,182.89013c0,0 0.91014,2.88073 3.71951,3.57436c9.33338,2.30442 12.25862,0.05064 12.25862,0.05064" fill="none" stroke-linecap="round"></path><path d="M236.65479,173.64223l8.03228,2.74582" fill="none" stroke-linecap="round"></path><path d="M256.45846,174.44207l-7.82776,3.14613" data-paper-data="{&quot;index&quot;:null}" fill="none" stroke-linecap="round"></path><path d="M237.81245,176.26514l7.32942,2.375l-6.88965,3.375" fill="none" stroke-linecap="round"></path><path d="M254.52353,183.76514l-6.88965,-3.375l7.32942,-2.375" data-paper-data="{&quot;index&quot;:null}" fill="none" stroke-linecap="round"></path></g></g></svg>