<svg version="1.1" xmlns="http://www.w3.org/2000/svg" xmlns:xlink="http://www.w3.org/1999/xlink" width="96.2701" height="95.69243" viewBox="0,0,96.2701,95.69243"><g transform="translate(-271.81611,-131.23746)"><g stroke-miterlimit="10"><path d="M272.31611,226.42989v-64.88824v-9.24098c0,0 2.20499,0 4.81102,0c11.2941,0 90.36138,0 90.36138,0v74.12922z" fill="#afafaf" stroke="#000000" stroke-width="1"/><path d="M272.41381,205.86668v-64.88824v-9.24098c0,0 2.20499,0 4.81102,0c11.2941,0 90.36138,0 90.36138,0v74.12922z" fill="#afafaf" stroke="#000000" stroke-width="1"/><path d="M363.54178,139.08309v60.82023h-86.62275v-60.82023z" fill="#2e2e2e" stroke="#000000" stroke-width="1"/><text transform="translate(290.80957,215.8052) scale(0.27691,0.25481)" font-size="40" xml:space="preserve" fill="#000000" stroke="none" stroke-width="1" font-family="Sans Serif" font-weight="normal" text-anchor="start"><tspan x="0" dy="0">Night Time</tspan></text><g><path d="M324.21856,178.43506l-4.11301,10.61668l-3.69851,-10.61668z" fill="#ffff00" stroke="#ffff00" stroke-width="1"/><path d="M316.51836,160.80384l3.69851,-10.61668l4.11301,10.61668z" fill="#ffff00" stroke="#ffff00" stroke-width="1"/><path d="M310.03458,169.94691c0,-5.76733 4.67534,-10.44269 10.44269,-10.44269c5.76733,0 10.44267,4.67534 10.44267,10.44269c0,5.76733 -4.67534,10.44267 -10.44267,10.44267c-5.76733,0 -10.44269,-4.67534 -10.44269,-10.44267z" fill="#ffff00" stroke="none" stroke-width="0"/><path d="M329.29653,166.01779l10.64945,4.02735l-10.58654,3.78392z" fill="#ffff00" stroke="#ffff00" stroke-width="1"/><path d="M329.78565,173.2193l4.71901,10.36153l-10.1783,-4.77443z" fill="#ffff00" stroke="#ffff00" stroke-width="1"/><path d="M311.79357,166.40477l-5.00867,-10.06508l10.46797,4.47793z" fill="#ffff00" stroke="#ffff00" stroke-width="1"/><path d="M324.45314,160.90919l10.32318,-4.80231l-4.69229,10.21642z" fill="#ffff00" stroke="#ffff00" stroke-width="1"/><path d="M317.78378,178.95558l-10.02441,5.08961l4.39348,-10.5037z" fill="#ffff00" stroke="#ffff00" stroke-width="1"/><path d="M313.15952,170.25773c0,-4.19556 3.40118,-7.59678 7.59674,-7.59678c4.19556,0 7.59678,3.40118 7.59678,7.59678c0,4.19556 -3.40118,7.59673 -7.59678,7.59673c-4.19556,0 -7.59674,-3.40117 -7.59674,-7.59673z" fill="#fffff7" stroke="none" stroke-width="0"/></g><path d="M300.57302,169.78449c0,-11.70086 9.48542,-21.18628 21.18628,-21.18628c11.70086,0 21.18628,9.48542 21.18628,21.18628c0,11.70086 -9.48542,21.18628 -21.18628,21.18628c-11.70086,0 -21.18628,-9.48542 -21.18628,-21.18628z" fill="#999fbd" stroke="none" stroke-width="0"/><path d="M300.16754,169.83518c0,-11.72885 9.50811,-21.23697 21.23697,-21.23697c2.6436,0 3.84839,0.73117 3.84839,0.73117c0,0 -12.56259,8.98381 -12.61687,20.60717c-0.05489,11.75248 12.564,20.76681 12.564,20.76681c0,0 -1.59226,0.36879 -3.79551,0.36879c-11.72885,0 -21.23697,-9.50811 -21.23697,-21.23697z" fill="#bfc7ec" stroke="none" stroke-width="0"/><text transform="translate(298.91739,223.75366) scale(0.14165,0.14165)" font-size="40" xml:space="preserve" fill="#000000" stroke="none" stroke-width="1" font-family="Sans Serif" font-weight="normal" text-anchor="start"><tspan x="0" dy="0">(Click to switch)</tspan></text></g></g></svg>