<svg version="1.1" xmlns="http://www.w3.org/2000/svg" xmlns:xlink="http://www.w3.org/1999/xlink" width="64.79222" height="88.80982" viewBox="0,0,64.79222,88.80982"><defs><linearGradient x1="320.3984" y1="153.09038" x2="320.3984" y2="160.90319" gradientUnits="userSpaceOnUse" id="color-1"><stop offset="0" stop-color="#ffea2b"/><stop offset="1" stop-color="#e6d759"/></linearGradient></defs><g transform="translate(-287.55981,-137.40138)"><g stroke-miterlimit="10"><path d="M288.55231,222.40698v-84.81396h62.89539v84.81396z" fill="#515151" stroke="none" stroke-width="0" stroke-linecap="butt"/><g stroke="#000000" stroke-width="1.28786"><path d="M316.46936,181.86123c0,0 -7.60674,2.79179 -13.7142,-2.16518c-3.02239,-2.45305 -5.28117,-14.58606 -1.51103,-15.06584c6.13914,-0.78124 3.98837,6.27335 5.84959,9.20423c2.69659,4.24634 6.32072,6.7736 6.32072,6.7736z" fill="#27c121" stroke-linecap="butt"/><path d="M312.24812,179.82986c0,0 -6.63455,-2.13571 -8.44628,-4.22314c-1.81173,-2.08743 -1.26694,-6.96818 -1.26694,-6.96818" fill="none" stroke-linecap="round"/><path d="M326.67719,196.61685c0,3.40138 -2.67858,6.15875 -5.98278,6.15875c-3.3042,0 -5.98278,-2.75736 -5.98278,-6.15875c0,-3.40138 2.67858,-6.15875 5.98278,-6.15875c3.3042,0 5.98278,2.75736 5.98278,6.15875z" fill="#146812" stroke-linecap="butt"/><path d="M320.6957,201.15066c0.22892,-3.24978 3.46104,-5.66965 7.21917,-5.40492c3.75812,0.26473 6.44387,8.41558 6.44387,8.41558c0,0 -3.23222,-0.39285 -6.99034,-0.65758c-3.75812,-0.26473 -6.90161,0.8967 -6.6727,-2.35308z" fill="#27c121" stroke-linecap="butt"/><path d="M313.85404,204.18565c-3.88355,0.27356 -7.22365,0.67953 -7.22365,0.67953c0,0 2.77539,-8.4229 6.65894,-8.69646c3.88355,-0.27356 7.22356,2.22708 7.46012,5.58532c0.23655,3.35824 -3.01185,2.15806 -6.89541,2.43162z" fill="#27c121" stroke-linecap="butt"/><path d="M318.23091,202.70521v-22.5938h4.64545v22.5938z" fill="#27c121" stroke-linecap="butt"/><path d="M326.18449,183.03241c0,2.0797 -2.61556,3.76563 -5.84201,3.76563c-3.22645,0 -5.84201,-1.68593 -5.84201,-3.76563c0,-2.0797 2.61556,-3.76563 5.84201,-3.76563c3.22645,0 5.84201,1.68593 5.84201,3.76563z" fill="#1c9a1a" stroke-linecap="butt"/><path d="M332.9543,170.14842c0,7.32512 -5.61321,13.2633 -12.53745,13.2633c-6.92424,0 -12.53745,-5.93818 -12.53745,-13.2633c0,-2.7046 -0.34589,-6.88679 0.96801,-8.98416c2.24465,-3.58312 7.20179,-4.27914 11.56944,-4.27914c3.74196,0 9.10103,1.06756 11.39822,3.81771c1.95361,2.33882 1.13923,6.07906 1.13923,9.44559z" fill="#ffea2b" stroke-linecap="butt"/><path d="M330.35249,171.99729c0,2.52988 -0.77882,4.58076 -1.73953,4.58076c-0.96072,0 -1.73952,-2.05087 -1.73952,-4.58076c0,-2.52988 0.77881,-4.58076 1.73952,-4.58076c0.96072,0 1.73953,2.05087 1.73953,4.58076z" fill="#000000" stroke-linecap="butt"/><path d="M324.59366,171.51739c0,2.52988 -0.77882,4.58076 -1.73953,4.58076c-0.96072,0 -1.73952,-2.05087 -1.73952,-4.58076c0,-2.52988 0.77881,-4.58076 1.73952,-4.58076c0.96072,0 1.73953,2.05087 1.73953,4.58076z" fill="#000000" stroke-linecap="butt"/><path d="M320.75278,177.11902c0,0 -5.02243,2.31952 -6.33471,1.34372c-1.31228,-0.9758 1.43971,-3.9352 1.43971,-3.9352l10.65383,5.08696z" fill="#ffffff" stroke-linecap="round"/><path d="M326.18449,204.46485c0,3.26533 -2.32273,5.49008 -2.32273,5.49008c0,0 -7.81281,-2.22476 -7.81281,-5.49008c0,-3.26533 2.26892,-5.9124 5.06777,-5.9124c2.79885,0 5.06777,2.64707 5.06777,5.9124z" fill="#27c121" stroke-linecap="butt"/><g stroke-linecap="butt"><path d="M310.24767,160.90319v-7.81281h20.30147v7.81281z" fill="url(#color-1)"/><path d="M299.68982,164.35209v-5.20854c0,0 13.61615,0.96639 20.7584,1.13836c7.46062,0.17963 22.81034,-0.50488 22.81034,-0.50488l0.28154,4.99738c0,0 -15.83575,-1.2083 -23.36859,-1.28084c-7.05221,-0.06792 -20.48169,0.85853 -20.48169,0.85853z" fill="#ffea2b"/></g><path d="M321.34112,172.59807l-3.33333,-3h2.66667" fill="#000000" stroke-linecap="round"/><path d="M330.78557,170.04251h1.77778l-2.44445,3" fill="#000000" stroke-linecap="round"/></g><path d="M288.55233,222.38702v-12.81396h62.89539v12.81396z" fill="#969696" stroke="none" stroke-width="0" stroke-linecap="butt"/><path d="M288.50229,222.35702v-84.81396h8.64539v84.81396z" fill="#969696" stroke="none" stroke-width="0" stroke-linecap="butt"/><path d="M344.05233,222.40701v-84.81396h8.14539v84.81396z" fill="#969696" stroke="none" stroke-width="0" stroke-linecap="butt"/><path d="M288.55233,147.90701v-10.31396h62.89539v10.31396z" fill="#969696" stroke="none" stroke-width="0" stroke-linecap="butt"/><path d="M296.29734,211.48042v-21.00188l21.13534,21.00188z" fill="#969696" stroke="none" stroke-width="0" stroke-linecap="butt"/><path d="M303.41181,215.22399v-12.15842h44.05785v12.15842z" fill="#969696" stroke="none" stroke-width="0" stroke-linecap="butt"/><text transform="translate(318.31589,219.9612) scale(0.47116,0.5)" font-size="40" xml:space="preserve" fill="#000000" stroke="none" stroke-width="1" stroke-linecap="butt" font-family="Sans Serif" font-weight="normal" text-anchor="start"><tspan x="0" dy="0">125</tspan></text><g stroke-linecap="butt"><path d="M303.936,213.69347l-2.65375,6.84999l-2.38631,-6.84999z" fill="#ffff00" stroke="#ffff00" stroke-width="1"/><path d="M298.96775,202.31762l2.38632,-6.84999l2.65375,6.84999z" fill="#ffff00" stroke="#ffff00" stroke-width="1"/><path d="M294.78435,208.21682c0,-3.72115 3.01658,-6.73773 6.73773,-6.73773c3.72115,0 6.73772,3.01658 6.73772,6.73773c0,3.72115 -3.01658,6.73772 -6.73772,6.73772c-3.72115,0 -6.73773,-3.01658 -6.73773,-6.73772z" fill="#ffff00" stroke="none" stroke-width="0"/><path d="M307.21236,205.68172l6.87114,2.59848l-6.83054,2.44142z" fill="#ffff00" stroke="#ffff00" stroke-width="1"/><path d="M295.87692,210.74146l-6.86899,-2.33105l6.82838,-2.70885z" fill="#ffff00" stroke="#ffff00" stroke-width="1"/><path d="M307.52794,210.32821l3.04475,6.68537l-6.56714,-3.08051z" fill="#ffff00" stroke="#ffff00" stroke-width="1"/><path d="M295.91926,205.9314l-3.23165,-6.49409l6.75404,2.88922z" fill="#ffff00" stroke="#ffff00" stroke-width="1"/><path d="M304.08737,202.38559l6.66063,-3.0985l-3.02751,6.59174z" fill="#ffff00" stroke="#ffff00" stroke-width="1"/><path d="M299.78422,214.02932l-6.46785,3.28387l2.83472,-6.7771z" fill="#ffff00" stroke="#ffff00" stroke-width="1"/><path d="M296.80059,208.41738c0,-2.70702 2.19448,-4.90151 4.9015,-4.90151c2.70702,0 4.90151,2.19448 4.90151,4.90151c0,2.70702 -2.19448,4.9015 -4.90151,4.9015c-2.70702,0 -4.9015,-2.19448 -4.9015,-4.9015z" fill="#fffff7" stroke="none" stroke-width="0"/></g><path d="M352.35202,137.40138v33.64619l-33.86,-33.64619z" fill="#3aff00" stroke="none" stroke-width="0" stroke-linecap="butt"/></g></g></svg>