<svg version="1.1" xmlns="http://www.w3.org/2000/svg" xmlns:xlink="http://www.w3.org/1999/xlink" width="10.18773" height="47.14394" viewBox="0,0,10.18773,47.14394"><g transform="translate(-216.79849,-153.72007)"><g data-paper-data="{&quot;isPaintingLayer&quot;:true}" fill-rule="nonzero" stroke="#000000" stroke-width="0.5" stroke-linecap="butt" stroke-linejoin="miter" stroke-miterlimit="10" stroke-dasharray="" stroke-dashoffset="0" style="mix-blend-mode: normal"><path d="M217.9021,200.56094v-37.89749l8.13158,-0.19455v38.09204z" fill="#0b8100"></path><path d="M217.91373,200.61402v-23.24734h8.20606v23.24734z" fill="#740000"></path><path d="M217.91373,188.03498v-10.6683h3.76514z" fill="#ffffff"></path><path d="M217.85594,184.27742v-7.00605h2.47262z" fill="#ff0000"></path><path d="M221.43384,167.91586c0,2.46087 -0.62986,4.45579 -1.40685,4.45579c-0.77698,0 -1.40686,-1.99492 -1.40686,-4.45579c0,-2.46087 0.62987,-4.45579 1.40686,-4.45579c0.77698,0 1.40685,1.99492 1.40685,4.45579z" fill="#000000"></path><path d="M217.04849,165.92343v-3.82235h9.68773v3.82235z" fill="#ff6e00"></path><path d="M217.77799,161.97464l2.33456,-8.00457h3.5596l2.43184,8.00457z" fill="#ff6e00"></path></g></g></svg>