<svg version="1.1" xmlns="http://www.w3.org/2000/svg" xmlns:xlink="http://www.w3.org/1999/xlink" width="64.76047" height="63.61046" viewBox="0,0,64.76047,63.61046"><g transform="translate(-207.61976,-148.19477)"><g data-paper-data="{&quot;isPaintingLayer&quot;:true}" fill-rule="nonzero" stroke="#000000" stroke-width="1.28786" stroke-linecap="butt" stroke-linejoin="miter" stroke-miterlimit="10" stroke-dasharray="" stroke-dashoffset="0" style="mix-blend-mode: normal"><path d="M234.44878,211.1613v-18.97812h10.68516v18.97812z" fill="#7a5654"></path><path d="M241.62538,193.27175l-0.63792,-24.40043l14.83164,-7.49556l-4.46544,24.08148z" fill="#ffd206"></path><path d="M228.1257,186.15127l-5.58179,-21.68928l15.31007,4.94388l0.7974,24.08148z" data-paper-data="{&quot;index&quot;:null}" fill="#ffd206"></path><path d="M238.11682,194.86655v-26.95212h3.1896v26.95212z" fill="#7a5654"></path><path d="M226.02474,187.82695l-7.02949,-25.36585l2.02883,0.53194l7.50794,24.88741z" fill="#7a5654"></path><path d="M251.15718,187.35035l5.06223,-25.49756l2.14113,0.13429l-5.38119,25.17861z" data-paper-data="{&quot;index&quot;:null}" fill="#7a5654"></path><path d="M238.91422,170.94455l-19.93499,-7.65504l19.45655,-11.1636l20.57291,10.04724z" fill="#7a5654"></path><path d="M240.62072,196.34633l-1.58929,-2.94797l13.91758,-8.83023l1.74876,2.46952z" data-paper-data="{&quot;index&quot;:null}" fill="#7a5654"></path><path d="M220.6524,163.71581c0,2.37812 -2.64421,1.5948 -6.29946,1.5948c-3.65525,0 -5.66153,1.91376 -5.66153,1.91376c0,0 1.68733,-7.81452 5.34258,-7.81452c3.65525,0 6.61842,1.92784 6.61842,4.30596z" fill="#60af6e"></path><path d="M246.93513,179.52442c0,2.33408 -0.92822,4.22622 -2.07324,4.22622c-1.14502,0 -2.07324,-1.89214 -2.07324,-4.22622c0,-2.33408 0.92822,-4.22621 2.07324,-4.22621c1.14502,0 2.07324,1.89214 2.07324,4.22621z" fill="#fe942e"></path><path d="M252.99537,176.33482c0,2.246 -0.82112,4.06674 -1.83402,4.06674c-1.0129,0 -1.83401,-1.82074 -1.83401,-4.06674c0,-2.246 0.82111,-4.06673 1.83401,-4.06673c1.0129,0 1.83402,1.82073 1.83402,4.06673z" fill="#fe942e"></path><path d="M222.25973,161.95163c1.45185,1.8835 -1.1206,2.87741 -4.0156,5.10896c-2.895,2.23155 -3.31563,4.97213 -3.31563,4.97213c0,0 -3.43445,-7.21931 -0.53945,-9.45086c2.895,-2.23156 6.41882,-2.51372 7.87068,-0.63022z" fill="#60af6e"></path><path d="M223.43149,163.0977c-1.67679,1.68636 -2.99954,-0.73351 -5.59154,-3.31079c-2.592,-2.57728 -5.36406,-2.63481 -5.36406,-2.63481c0,0 6.70645,-4.3517 9.29845,-1.77442c2.592,2.57728 3.33394,6.03366 1.65715,7.72002z" fill="#60af6e"></path><path d="M265.96602,158.83676c3.65525,0 5.34257,7.81452 5.34257,7.81452c0,0 -2.00629,-1.91376 -5.66153,-1.91376c-3.65525,0 -6.29946,0.78332 -6.29946,-1.5948c0,-2.37812 2.96317,-4.30596 6.61842,-4.30596z" data-paper-data="{&quot;index&quot;:null}" fill="#60af6e"></path><path d="M265.61095,162.00876c2.895,2.23155 -0.53945,9.45086 -0.53945,9.45086c0,0 -0.42063,-2.74057 -3.31563,-4.97213c-2.895,-2.23156 -5.46746,-3.22547 -4.0156,-5.10897c1.45186,-1.8835 4.97568,-1.60133 7.87068,0.63023z" data-paper-data="{&quot;index&quot;:null}" fill="#60af6e"></path><path d="M258.22565,154.80459c2.592,-2.57728 9.29846,1.77442 9.29846,1.77442c0,0 -2.77206,0.05753 -5.36407,2.63481c-2.592,2.57728 -3.91474,4.99715 -5.59153,3.31079c-1.67679,-1.68636 -0.93486,-5.14274 1.65714,-7.72002z" data-paper-data="{&quot;index&quot;:null}" fill="#60af6e"></path><g data-paper-data="{&quot;index&quot;:null}" fill="#60af6e"><path d="M239.31177,171.09442c1.14563,2.08398 -1.54887,2.67137 -4.75202,4.43225c-3.20315,1.76089 -4.03934,4.40445 -4.03934,4.40445c0,0 -2.28595,-7.66083 0.9172,-9.42171c3.20315,-1.76089 6.72853,-1.49896 7.87417,0.58501z" data-paper-data="{&quot;index&quot;:null}"></path><path d="M239.87042,168.77413c2.17963,0.95111 0.40417,3.06135 -1.05773,6.41153c-1.46189,3.35018 -0.51026,5.95442 -0.51026,5.95442c0,0 -6.48748,-4.67187 -5.02559,-8.02205c1.46189,-3.35018 4.41395,-5.29501 6.59358,-4.3439z" data-paper-data="{&quot;index&quot;:null}"></path><path d="M241.44936,169.21396c-0.657,2.28556 -2.98189,0.80221 -6.49488,-0.20763c-3.51299,-1.00984 -5.9699,0.27517 -5.9699,0.27517c0,0 3.78056,-7.04423 7.29355,-6.03439c3.51299,1.00984 5.82823,3.68129 5.17123,5.96685z" data-paper-data="{&quot;index&quot;:null}"></path></g><path d="M244.05787,153.467c0,2.55614 -2.17937,4.6283 -4.86777,4.6283c-2.6884,0 -4.86777,-2.07216 -4.86777,-4.6283c0,-2.55614 2.17937,-4.62831 4.86777,-4.62831c2.6884,0 4.86777,2.07217 4.86777,4.62831z" fill="#7a5654"></path><path d="M223.02731,187.3005l1.58929,-2.94797l15.45296,8.70411l0.22441,3.55253z" fill="#7a5654"></path></g></g></svg>