<svg version="1.1" xmlns="http://www.w3.org/2000/svg" xmlns:xlink="http://www.w3.org/1999/xlink" width="736" height="448.52083" viewBox="0,0,736,448.52083"><g transform="translate(53.42367,58.02082)"><g stroke-miterlimit="10"><path d="M-45.92367,273.97918c-4.14213,0 -7.5,-2.3923 -7.5,-5.34335v-321.3133c0,-2.95105 3.35787,-5.34335 7.5,-5.34335h721c4.14214,0 7.5,2.3923 7.5,5.34335v321.3133c0,2.95105 -3.35786,5.34335 -7.5,5.34335z" fill-opacity="0.50196" fill="#000000" stroke="none" stroke-width="0" stroke-linecap="butt"/><path d="M53.5,72.00001v-87h554v87z" fill="#adadad" stroke="#000000" stroke-width="1" stroke-linecap="butt"/><path d="M124.48889,262.33333v-168h387.02222v168z" fill="#adadad" stroke="#000000" stroke-width="1" stroke-linecap="butt"/><text transform="translate(216.56647,53.01877) scale(0.86836,0.86836)" font-size="40" xml:space="preserve" fill="#000000" stroke="none" stroke-width="1" stroke-linecap="butt" font-family="Sans Serif" font-weight="normal" text-anchor="start"><tspan x="0" dy="0">Zombie Guide</tspan></text><path d="M186.50001,390.00001v-116h79v116z" fill="#adadad" stroke="#000000" stroke-width="1" stroke-linecap="butt"/><path d="M369.50001,390.00001v-116h93v116z" fill="#adadad" stroke="#000000" stroke-width="1" stroke-linecap="butt"/><path d="M317.59977,261.57557v-169" fill="none" stroke="#000000" stroke-width="2" stroke-linecap="round"/><path d="M134.58806,254.28259v-124.5h85.56371v124.5z" fill="#adadad" stroke="#000000" stroke-width="1" stroke-linecap="butt"/><path d="M330.08804,254.28259v-124.5h85.56371v124.5z" fill="#adadad" stroke="#000000" stroke-width="1" stroke-linecap="butt"/><text transform="translate(134.58806,118.78258) scale(0.5,0.5)" font-size="40" xml:space="preserve" fill="#000000" stroke="none" stroke-width="1" stroke-linecap="butt" font-family="Sans Serif" font-weight="normal" text-anchor="start"><tspan x="0" dy="0">Imp</tspan></text><text transform="translate(329.58804,119.28258) scale(0.5,0.5)" font-size="40" xml:space="preserve" fill="#000000" stroke="none" stroke-width="1" stroke-linecap="butt" font-family="Sans Serif" font-weight="normal" text-anchor="start"><tspan x="0" dy="0">Bungee</tspan></text><text transform="translate(226.08806,144.53257) scale(0.2758,0.31943)" font-size="40" xml:space="preserve" fill="#000000" stroke="none" stroke-width="1" stroke-linecap="butt" font-family="Sans Serif" font-weight="normal" text-anchor="start"><tspan x="0" dy="0">HP: 4</tspan><tspan x="0" dy="46.150000000000006px">Speed: Fast</tspan><tspan x="0" dy="46.150000000000006px">Damage: Avg</tspan><tspan x="0" dy="46.150000000000006px">Special: His low</tspan><tspan x="0" dy="46.150000000000006px">height makes it</tspan><tspan x="0" dy="46.150000000000006px">dodge some </tspan><tspan x="0" dy="46.150000000000006px">attacks</tspan></text><text transform="translate(420.08811,143.03257) scale(0.22058,0.31943)" font-size="40" xml:space="preserve" fill="#000000" stroke="none" stroke-width="1" stroke-linecap="butt" font-family="Sans Serif" font-weight="normal" text-anchor="start"><tspan x="0" dy="0">HP: 40</tspan><tspan x="0" dy="46.150000000000006px">Speed: None</tspan><tspan x="0" dy="46.150000000000006px">Damage: None</tspan><tspan x="0" dy="46.150000000000006px">Special: Falls from</tspan><tspan x="0" dy="46.150000000000006px">the sky, kidnapping</tspan><tspan x="0" dy="46.150000000000006px">the plant is touching</tspan></text><g stroke="#000000" stroke-width="0.5" stroke-linecap="butt"><path d="M165.90209,215.55454v-44.98195h21.13158v44.98195z" fill="#0b8100"/><path d="M165.93235,215.61404v-22.5702h21.0926v22.5702z" fill="#ff0000"/><path d="M175.08005,181.87082c0,4.3619 -1.63685,7.89791 -3.65599,7.89791c-2.01914,0 -3.65599,-3.53601 -3.65599,-7.89791c0,-4.3619 1.63685,-7.89791 3.65599,-7.89791c2.01914,0 3.65599,3.53601 3.65599,7.89791z" fill="#000000"/></g><g stroke="#000000" stroke-width="0.5" stroke-linecap="butt"><path d="M356.26594,215.73418l-15.18714,-20.54108l5.1094,-7.71289l15.18714,20.54108z" fill="#0b8100"/><path d="M352.21654,195.23731l-5.81802,-7.97534l16.54112,-11.49351l0.65303,11.2154z" fill="#ff0000"/><g><path d="M387.55704,208.02131l14.66234,-20.54108l4.93285,7.71289l-14.66234,20.54108z" fill="#0b8100"/><path d="M385.41628,186.98386l0.63047,-11.2154l15.96955,11.49351l-5.61697,7.97534z" fill="#ff0000"/></g><path d="M361.86292,192.46545v-17.48565h24.60389v17.48565z" fill="#0b8100"/><path d="M361.93393,192.55513v-17.48565h8.42211v17.48565z" fill="#ff0000"/><path d="M377.90282,192.19647v-17.48565h8.42211v17.48565z" fill="#ff0000"/><path d="M363.55006,190.53326v-22.26743h21.44856v22.26743z" fill="#0b8100"/><path d="M372.53099,185.69773c0,4.5832 -0.6215,4.74815 -1.56327,4.74815c-0.94177,0 -1.84717,-0.16496 -1.84717,-4.74815c0,-4.5832 0.76345,-8.2986 1.70522,-8.2986c0.94177,0 1.70522,3.7154 1.70522,8.2986z" fill="#000000"/><path d="M379.22556,185.85731c0,4.5832 -0.69249,4.56881 -1.63425,4.56881c-0.94177,0 -1.7762,0.01438 -1.7762,-4.56881c0,-4.5832 0.76345,-8.2986 1.70522,-8.2986c0.94177,0 1.70522,3.7154 1.70522,8.2986z" fill="#000000"/></g><text transform="translate(226.58806,251.49771) scale(0.2439,0.2439)" font-size="40" xml:space="preserve" fill="#ff0000" stroke="none" stroke-width="1" stroke-linecap="butt" font-family="Sans Serif" font-weight="normal" text-anchor="start"><tspan x="0" dy="0">Pos-Adv exclusive</tspan></text><text transform="translate(421.42143,251.49773) scale(0.2439,0.2439)" font-size="40" xml:space="preserve" fill="#ff0000" stroke="none" stroke-width="1" stroke-linecap="butt" font-family="Sans Serif" font-weight="normal" text-anchor="start"><tspan x="0" dy="0">Pos-Adv exclusive</tspan></text></g></g></svg>