<svg version="1.1" xmlns="http://www.w3.org/2000/svg" xmlns:xlink="http://www.w3.org/1999/xlink" width="35.00655" height="36.9226" viewBox="0,0,35.00655,36.9226"><g transform="translate(-276.40883,-186.48392)"><g stroke="none" stroke-miterlimit="10"><path d="M276.40883,223.40652v-35.00655h35.00655v35.00655z" fill="#ff0000" stroke-width="1"/><path d="M294.88937,214.33686c0,-0.96283 0.78053,-1.74336 1.74336,-1.74336c0.05767,0 0.11469,0.0028 0.17092,0.00827c-0.43454,-0.43196 -0.53422,-1.03007 -0.53422,-1.03007l-0.18655,-1.55725c-1.11663,-1.10918 -2.90609,-2.84746 -3.63877,-3.90503c-3.467,-5.00434 -2.30194,-12.1678 -2.30194,-17.88214c0,0 0,-1.74336 1.74336,-1.74336c1.74336,0 1.74336,1.74336 1.74336,1.74336c0,4.85392 -1.25045,11.77818 1.76709,16.02642c1.10076,1.5497 2.57705,2.79581 3.82111,4.23302l0.49162,2.51178c0,0 0.28661,1.71964 -1.43304,2.00625c-0.1763,0.02938 -0.33753,0.03768 -0.48493,0.0289c0.35912,0.31934 0.58535,0.78486 0.58535,1.30322c0,0.96283 -0.78053,1.74336 -1.74336,1.74336c-0.96283,0 -1.74336,-0.78053 -1.74336,-1.74336z" fill="#000000" stroke-width="0.5"/></g></g></svg>