<svg version="1.1" xmlns="http://www.w3.org/2000/svg" xmlns:xlink="http://www.w3.org/1999/xlink" width="96.1724" height="95.86337" viewBox="0,0,96.1724,95.86337"><g transform="translate(-271.9138,-131.23751)"><g stroke-miterlimit="10"><path d="M272.4138,226.60088v-64.88824v-9.24098c0,0 2.20499,0 4.81102,0c11.2941,0 90.36138,0 90.36138,0v74.12922z" fill="#afafaf" stroke="#000000" stroke-linecap="butt"/><path d="M272.4138,205.86673v-64.88824v-9.24098c0,0 2.20499,0 4.81102,0c11.2941,0 90.36138,0 90.36138,0v74.12922z" fill="#afafaf" stroke="#000000" stroke-linecap="butt"/><text transform="translate(275.31695,219.27109) scale(0.22652,0.22652)" font-size="40" xml:space="preserve" fill="#000000" stroke="none" stroke-linecap="butt" font-family="Sans Serif" font-weight="normal" text-anchor="start"><tspan x="0" dy="0">Dragon Bruits' quest</tspan></text><path d="M276.91902,199.90343v-60.82023h86.62275v60.82023z" fill="#939393" stroke="#000000" stroke-linecap="butt"/><g stroke="#000000"><path d="M320.95286,188.49204c-1.19439,2.30196 -5.0257,2.68254 -8.55747,0.85006c-3.53178,-1.83249 -7.65045,-5.92613 -7.65045,-5.92613c0,0 8.44393,-4.24249 11.97571,-2.41001c3.53178,1.83249 5.4266,5.18412 4.23221,7.48608z" fill="#5cb000" stroke-linecap="butt"/><path d="M325.38364,180.6882c3.53178,-1.83249 11.97571,2.41001 11.97571,2.41001c0,0 -4.11867,4.09364 -7.65045,5.92613c-3.53178,1.83249 -7.36309,1.45191 -8.55747,-0.85006c-1.19439,-2.30196 0.70043,-5.65359 4.23221,-7.48608z" fill="#5cb000" stroke-linecap="butt"/><g stroke-linecap="butt"><path d="M317.93177,191.40391v-19.49772h6.2v19.49772z" fill="#00e704"/><path d="M315.79138,177.71296l1.23495,-5.58687l7.91752,-1.01192l1.16634,6.59878z" fill="#00b403"/></g><g stroke-linecap="butt"><path d="M322.53268,191.11979l7.81028,-17.86507l5.68084,2.48356l-7.81028,17.86507z" fill="#00e704"/><path d="M326.05574,177.71786l3.94922,-4.61203l6.35024,2.38404l-0.8447,6.36143z" fill="#00b403"/></g><g stroke-linecap="butt"><path d="M316.50294,191.26883l-12.40993,-15.03845l4.78202,-3.94618l14.10797,18.26285z" fill="#00e704"/><path d="M306.45165,181.6939l-3.3547,-5.59752l8.33616,-4.57819l3.30326,4.12253z" fill="#00b403"/></g><g><path d="M335.21032,157.31083c0,0 0.51631,-2.55523 0.5271,-3.91435c0.01309,-1.64888 -0.45414,-5.27868 -0.45414,-5.27868c0,0 2.88866,1.90121 3.77187,3.31112c1.0177,1.6246 1.98823,5.88401 1.98823,5.88401z" fill="#f7df77" stroke-linecap="butt"/><path d="M332.13343,156.05895c0,0 -1.20072,-2.87879 -2.14753,-3.86541c-0.79246,-0.82578 -3.1531,-1.65809 -3.1531,-1.65809c0,0 2.23064,-4.53752 5.02731,-2.8684c2.79667,1.66911 3.12928,7.73645 3.12928,7.73645z" fill="#cb775b" stroke-linecap="butt"/><path d="M339.20923,158.13975c0,0 2.81016,-6.01253 6.32443,-6.56391c3.51425,-0.55138 3.92504,4.9558 3.92504,4.9558c0,0 -2.73134,-0.11883 -3.87094,0.39492c-1.36157,0.61382 -3.75171,3.0415 -3.75171,3.0415z" fill="#cb775b" stroke-linecap="butt"/><path d="M340.26447,169.7873c0,0 2.53287,0.62096 3.89638,0.67512c1.6542,0.0657 5.32635,-0.3088 5.32635,-0.3088c0,0 -2.0866,2.96331 -3.55628,3.8432c-1.69346,1.01388 -6.02864,1.89528 -6.02864,1.89528z" fill="#f7df77" stroke-linecap="butt"/><path d="M340.81305,161.51199c0,0 2.59223,-0.27594 3.8917,-0.67434c1.5765,-0.48334 4.89782,-2.02041 4.89782,-2.02041c0,0 -0.9446,3.32666 -2.02368,4.59295c-1.2434,1.4591 -5.01384,3.66552 -5.01384,3.66552z" fill="#f7df77" stroke-linecap="butt"/><path d="M326.64851,170.29166c0,0 -2.79517,-3.35731 -3.46814,-5.15234c-0.58404,-1.55783 -0.34081,-5.00743 -0.34081,-5.00743c0,0 2.60048,2.57512 3.91859,3.56585c1.08648,0.81663 3.43029,1.95783 3.43029,1.95783z" fill="#f7df77" stroke-linecap="butt"/><path d="M328.01443,163.25593c0,0 -1.30921,-4.16778 -1.24935,-6.08389c0.05195,-1.6629 1.58815,-4.76112 1.58815,-4.76112c0,0 1.42646,3.37032 2.26904,4.78771c0.69452,1.16832 2.42862,3.11475 2.42862,3.11475z" fill="#f7df77" stroke-linecap="butt"/><path d="M346.02158,165.42284c0.15661,6.42056 -4.20412,11.85117 -9.73995,12.12958c-5.53583,0.27841 -10.15044,-4.70078 -10.30705,-11.12134c-0.15661,-6.42056 4.20412,-11.85116 9.73995,-12.12958c5.53583,-0.27841 10.15045,4.70078 10.30705,11.12134z" fill="#f94696" stroke-linecap="butt"/><path d="M346.05227,166.81858c0,0 1.46046,-0.48755 1.20288,1.85621c-0.09151,0.83275 -4.10873,3.01899 -4.10873,3.01899l-4.47643,-3.55649l-4.15899,1.77596l-3.97398,-3.91088" fill="#f94696" stroke-linecap="round"/><path d="M336.32316,169.23587l-1.14151,2.95633l-0.68539,-2.08747z" fill="#ffffff" stroke-linecap="round"/><path d="M342.72923,171.88176l-1.22202,1.82591l-0.30355,-3.15449z" fill="#ffffff" stroke-linecap="round"/><path d="M335.69344,164.1489c0,0 0.36638,-3.35685 0.3578,-4.90709c-0.0075,-1.35699 -0.40647,-3.89201 -0.40647,-3.89201c0,0 3.30126,1.86564 4.36606,3.43348c0.99186,1.46046 1.81944,5.67429 1.81944,5.67429" fill="#f7df77" stroke-linecap="round"/></g><g><path d="M315.60067,152.12958c0,0 -0.51368,-3.00852 -1.07507,-4.49747c-0.68108,-1.8064 -2.72212,-5.57377 -2.72212,-5.57377c0,0 3.95673,0.85826 5.51594,2.02569c1.79663,1.34518 4.65291,5.58794 4.65291,5.58794z" fill="#f7df77" stroke-linecap="butt"/><path d="M311.71221,152.05988c0,0 -2.52546,-2.63781 -3.97562,-3.31608c-1.21376,-0.56771 -4.14301,-0.48121 -4.14301,-0.48121c0,0 0.52271,-5.89651 4.28109,-5.25295c3.75837,0.64357 6.68036,7.12995 6.68036,7.12995z" fill="#cb775b" stroke-linecap="butt"/><path d="M320.3178,151.34851c0,0 0.53362,-7.75189 4.13931,-9.83612c3.60569,-2.08423 6.37682,3.75738 6.37682,3.75738c0,0 -3.03324,1.02206 -4.06124,2.06377c-1.22822,1.2446 -2.81491,4.90406 -2.81491,4.90406z" fill="#cb775b" stroke-linecap="butt"/><path d="M326.3823,163.62476c0,0 3.02823,-0.38996 4.54027,-0.90582c1.8344,-0.62585 5.68713,-2.58349 5.68713,-2.58349c0,0 -1.02927,4.11643 -2.26336,5.69724c-1.42201,1.82151 -5.7851,4.61239 -5.7851,4.61239z" fill="#f7df77" stroke-linecap="butt"/><path d="M323.4916,154.35524c0,0 2.71483,-1.39457 3.96607,-2.3777c1.51799,-1.19273 4.49728,-4.27216 4.49728,-4.27216c0,0 0.37123,4.03168 -0.2733,5.86978c-0.74268,2.11799 -3.93022,6.11785 -3.93022,6.11785z" fill="#f7df77" stroke-linecap="butt"/><path d="M311.72389,169.91772c0,0 -4.46869,-2.48802 -5.96069,-4.16473c-1.29484,-1.45513 -2.48396,-5.32531 -2.48396,-5.32531c0,0 3.92619,1.71583 5.78361,2.24202c1.53102,0.43372 4.57216,0.69168 4.57216,0.69168z" fill="#f7df77" stroke-linecap="butt"/><path d="M310.24859,161.65738c0,0 -3.18754,-3.99987 -3.93022,-6.11785c-0.64454,-1.83809 -0.27331,-5.86978 -0.27331,-5.86978c0,0 2.97928,3.07944 4.49728,4.27217c1.25124,0.98313 3.96606,2.3777 3.96606,2.3777z" fill="#f7df77" stroke-linecap="butt"/><path d="M330.82956,156.43008c2.87871,6.9464 0.40618,14.71662 -5.52254,17.35527c-5.92873,2.63864 -13.06857,-0.85347 -15.94728,-7.79986c-2.87871,-6.9464 -0.40618,-14.71661 5.52254,-17.35526c5.92873,-2.63864 13.06857,0.85346 15.94728,7.79986z" fill="#f94696" stroke-linecap="butt"/><path d="M331.45169,157.94154c0,0 1.38948,-1.14839 2.09656,1.52004c0.25123,0.94811 -3.21433,5.03003 -3.21433,5.03003l-6.38892,-1.99654l-3.79342,3.6936l-5.98962,-2.5955" fill="#f94696" stroke-linecap="round"/><path d="M321.84514,164.68461v3.71025l-1.62889,-1.99086z" fill="#ffffff" stroke-linecap="round"/><path d="M329.95755,164.87286l-0.56465,2.50958l-1.66184,-3.31727z" fill="#ffffff" stroke-linecap="round"/><path d="M319.01208,159.39427c0,0 -1.01549,-3.8208 -1.67863,-5.51034c-0.58046,-1.47891 -2.08528,-4.07938 -2.08528,-4.07938c0,0 4.39236,0.64542 6.2165,1.90874c1.6992,1.1768 4.38013,5.43007 4.38013,5.43007" fill="#f7df77" stroke-linecap="round"/></g><g><path d="M299.16446,159.19056c0,0 -0.34521,-2.58391 -0.77824,-3.87225c-0.52535,-1.563 -2.15075,-4.84201 -2.15075,-4.84201c0,0 3.35074,0.85524 4.64547,1.90005c1.49186,1.2039 3.79838,4.91395 3.79838,4.91395z" fill="#f7df77" stroke-linecap="butt"/><path d="M295.84753,159.01053c0,0 -2.07389,-2.32984 -3.29069,-2.95376c-1.01843,-0.5222 -3.52145,-0.53918 -3.52145,-0.53918c0,0 0.62895,-5.0169 3.81705,-4.35107c3.1881,0.66584 5.48115,6.29301 5.48115,6.29301z" fill="#cb775b" stroke-linecap="butt"/><path d="M303.21507,158.67008c0,0 0.69578,-6.60026 3.8381,-8.26754c3.14232,-1.66727 5.32661,3.40486 5.32661,3.40486c0,0 -2.62077,0.77838 -3.53053,1.63569c-1.08697,1.02428 -2.55474,4.0987 -2.55474,4.0987z" fill="#cb775b" stroke-linecap="butt"/><path d="M308.01103,169.33674c0,0 2.59691,-0.23899 3.90353,-0.63244c1.5852,-0.47734 4.93446,-2.02891 4.93446,-2.02891c0,0 -1.00615,3.48176 -2.10855,4.79284c-1.27025,1.51071 -5.08098,3.75768 -5.08098,3.75768z" fill="#f7df77" stroke-linecap="butt"/><path d="M305.83094,161.33493c0,0 2.36053,-1.10622 3.45902,-1.9066c1.33269,-0.97102 3.97119,-3.50719 3.97119,-3.50719c0,0 0.1919,3.45284 -0.41525,5.00181c-0.69958,1.78483 -3.54437,5.1002 -3.54437,5.1002z" fill="#f7df77" stroke-linecap="butt"/><path d="M295.30394,174.25385c0,0 -3.73722,-2.26223 -4.95878,-3.73967c-1.06013,-1.2822 -1.95516,-4.62254 -1.95516,-4.62254c0,0 3.29809,1.58629 4.86723,2.09302c1.29339,0.41767 3.88123,0.73212 3.88123,0.73212z" fill="#f7df77" stroke-linecap="butt"/><path d="M294.30072,167.15733c0,0 -2.59681,-3.51298 -3.16508,-5.34386c-0.49318,-1.58893 -0.05133,-5.01875 -0.05133,-5.01875c0,0 2.44757,2.72087 3.70633,3.78601c1.03755,0.87796 3.31162,2.15248 3.31162,2.15248z" fill="#f7df77" stroke-linecap="butt"/><path d="M312.03011,163.33342c2.24186,6.01849 -0.10948,12.57429 -5.25188,14.64279c-5.1424,2.0685 -11.12851,-1.1336 -13.37038,-7.1521c-2.24186,-6.01849 0.10948,-12.57429 5.25187,-14.64278c5.1424,-2.0685 11.12852,1.1336 13.37038,7.15208z" fill="#f94696" stroke-linecap="butt"/><path d="M312.51428,164.64285c0,0 1.22162,-0.93717 1.74245,1.36245c0.18506,0.81707 -2.89957,4.19385 -2.89957,4.19385l-5.39152,-1.90224l-3.35246,3.03516l-5.03212,-2.40112" fill="#f94696" stroke-linecap="round"/><path d="M304.10537,170.10077l-0.11501,3.16696l-1.32866,-1.74984z" fill="#ffffff" stroke-linecap="round"/><path d="M311.02408,170.51292l-0.55976,2.12461l-1.31566,-2.88304z" fill="#ffffff" stroke-linecap="round"/><path d="M301.85115,165.49725c0,0 -0.74836,-3.29281 -1.26202,-4.75551c-0.44963,-1.28035 -1.65348,-3.54669 -1.65348,-3.54669c0,0 3.7292,0.68706 5.24707,1.82195c1.41392,1.05716 3.57044,4.77074 3.57044,4.77074" fill="#f7df77" stroke-linecap="round"/></g><path d="M323.24832,192.20621c0,2.59337 -3.22552,4.69571 -7.20439,4.69571c-3.97887,0 -9.52008,-1.73677 -9.52008,-1.73677c0,0 5.54121,-7.65466 9.52008,-7.65466c3.97887,0 7.20439,2.10235 7.20439,4.69571z" fill="#5cb000" stroke-linecap="butt"/><path d="M327.4587,187.96546c3.97887,0 9.52008,7.65466 9.52008,7.65466c0,0 -5.54121,1.73677 -9.52008,1.73677c-3.97887,0 -7.20439,-2.10235 -7.20439,-4.69571c0,-2.59337 3.22552,-4.69571 7.20439,-4.69571z" fill="#5cb000" stroke-linecap="butt"/></g></g></g></svg>