<svg version="1.1" xmlns="http://www.w3.org/2000/svg" xmlns:xlink="http://www.w3.org/1999/xlink" width="39.85764" height="52.10438" viewBox="0,0,39.85764,52.10438"><defs><radialGradient cx="316.97158" cy="167.28371" r="13.62761" gradientUnits="userSpaceOnUse" id="color-1"><stop offset="0" stop-color="#67da93"/><stop offset="1" stop-color="#77ffaa"/></radialGradient><radialGradient cx="302.72158" cy="157.78371" r="18.96656" gradientUnits="userSpaceOnUse" id="color-2"><stop offset="0" stop-color="#ffffff"/><stop offset="1" stop-color="#61cf8b"/></radialGradient><linearGradient x1="321.7787" y1="191.17052" x2="321.7787" y2="200.52052" gradientUnits="userSpaceOnUse" id="color-3"><stop offset="0" stop-color="#67ffda" stop-opacity="0"/><stop offset="1" stop-color="#67ffda"/></linearGradient></defs><g transform="translate(-300.07118,-148.51985)"><g stroke-miterlimit="10"><path d="M319.60598,199.88328l-1.19064,-12.11123l2.45275,-0.38137l1.19064,12.11123z" fill="#4b9f6b" stroke="#000000" stroke-width="1.28786" stroke-linecap="butt"/><path d="M322.60581,198.71863l-2.6144,-11.6532l2.37226,-0.9622l2.61439,11.6532z" fill="#4b9f6b" stroke="#000000" stroke-width="1.28786" stroke-linecap="butt"/><path d="M315.02992,199.79083l2.37508,-15.18657l2.4144,0.72141l-2.82508,14.38657z" fill="#4b9f6b" stroke="#000000" stroke-width="1.28786" stroke-linecap="butt"/><path d="M324.69999,199.35975l-2.02509,-11.88656l2.41441,-0.72143l2.02508,11.88657z" fill="#4b9f6b" stroke="#000000" stroke-width="1.28786" stroke-linecap="butt"/><path d="M338.1628,158.08926c4.49017,4.83119 -5.47386,16.41844 -12.6089,23.04983c-7.13504,6.63139 -17.66412,11.06571 -22.15429,6.23452c-4.49017,-4.83119 1.30889,-16.67344 8.44393,-23.30482c7.13504,-6.63139 21.82909,-10.81071 26.31926,-5.97952z" fill="#4b9f6b" stroke="#000000" stroke-width="1.28786" stroke-linecap="butt"/><path d="M307.63776,173.26471c0,-7.52632 6.10129,-13.62761 13.62761,-13.62761c7.52632,0 13.62761,6.10129 13.62761,13.62761c0,7.52632 -6.10129,13.62761 -13.62761,13.62761c-7.52632,0 -13.62761,-6.10129 -13.62761,-13.62761z" fill="url(#color-1)" stroke="#000000" stroke-width="1.28786" stroke-linecap="butt"/><path d="M325.05153,177.36745c-0.46985,-1.43176 -0.22814,-2.86979 0.53989,-3.21194c0.76803,-0.34215 1.77153,0.54116 2.24138,1.97292c0.46985,1.43176 0.22814,2.86979 -0.53989,3.21194c-0.76803,0.34215 -1.77153,-0.54116 -2.24138,-1.97292z" fill="#000000" stroke="#000000" stroke-width="1.28786" stroke-linecap="butt"/><path d="M329.14401,174.28001c-0.20902,-1.50945 0.22066,-2.86828 0.95972,-3.03504c0.73906,-0.16676 1.50762,0.92171 1.71665,2.43116c0.20902,1.50945 -0.22065,2.86828 -0.95971,3.03504c-0.73906,0.16676 -1.50762,-0.92171 -1.71665,-2.43116z" fill="#000000" stroke="#000000" stroke-width="1.28786" stroke-linecap="butt"/><path d="M336.16908,183.84274c-1.69566,2.32244 -4.41579,3.21944 -6.07557,2.00352c-1.65978,-1.21592 -1.6307,-4.08433 0.06496,-6.40676c1.69566,-2.32244 4.41578,-3.21945 6.07557,-2.00352c1.65978,1.21592 1.63071,4.08433 -0.06495,6.40677z" fill="#77ffaa" stroke="#000000" stroke-width="1.28786" stroke-linecap="butt"/><path d="M335.05823,183.19446c-0.83044,1.1374 -2.16261,1.57671 -2.97548,0.98121c-0.81287,-0.59549 -0.79863,-2.00028 0.03181,-3.13768c0.83044,-1.1374 2.16261,-1.5767 2.97548,-0.98121c0.81287,0.59549 0.79863,2.00027 -0.03181,3.13768z" fill="#000000" stroke="#000000" stroke-width="1.28786" stroke-linecap="butt"/><path d="M337.3686,157.16033c0.39719,0.69556 -6.11138,0.64052 -11.34739,2.23859c-4.1578,1.26899 -15.54874,9.43402 -17.01734,12.86512c-3.13452,7.32322 -3.66525,17.21065 -7.22946,14.31642c-2.3742,-1.92791 -0.0633,-8.6913 0.26975,-15.79548c0.60743,-7.66001 -4.65786,-13.72612 4.43035,-19.47577c9.06561,-4.99636 9.63426,0.08471 15.86672,1.68848c7.74251,1.90932 12.93313,0.49524 15.02737,4.16264z" fill="url(#color-2)" stroke="#000000" stroke-width="1.28786" stroke-linecap="butt"/><path d="M322.83742,173.38097l3.93846,0.26154" fill="none" stroke="#000000" stroke-width="1.28786" stroke-linecap="round"/><path d="M328.53742,172.99637l1.38462,-3.41538" fill="none" stroke="#000000" stroke-width="1.28786" stroke-linecap="round"/><path d="M309.6287,200.52052v-9.35h24.3v9.35z" fill="url(#color-3)" stroke="none" stroke-width="0" stroke-linecap="butt"/></g></g></svg>