<svg version="1.1" xmlns="http://www.w3.org/2000/svg" xmlns:xlink="http://www.w3.org/1999/xlink" width="44.7357" height="48.4641" viewBox="0,0,44.7357,48.4641"><g transform="translate(-217.61849,-156.08992)"><g data-paper-data="{&quot;isPaintingLayer&quot;:true}" fill-rule="nonzero" stroke="#000000" stroke-width="1.28786" stroke-linejoin="miter" stroke-miterlimit="10" stroke-dasharray="" stroke-dashoffset="0" style="mix-blend-mode: normal"><g><path d="M227.09345,203.91009v-26.01097h26.01097v26.01097z" fill="#fff9c9" stroke-linecap="butt"></path><path d="M218.28974,179.4998c0,0 0.97201,-23.39338 22.40945,-23.40988c21.67408,-0.01668 21.00886,23.40988 21.00886,23.40988z" fill="#fff300" stroke-linecap="butt"></path><path d="M236.89758,186.20262c0,3.92287 -0.94061,7.103 -2.10089,7.103c-1.16028,0 -2.10089,-3.18013 -2.10089,-7.103c0,-3.92287 0.94061,-7.103 2.10089,-7.103c1.16028,0 2.10089,3.18013 2.10089,7.103z" fill="#000000" stroke-linecap="butt"></path><path d="M242.49995,197.70747c0,0 -4.22956,3.67331 -9.25716,0.80646c-1.78899,-1.02012 -2.94798,-2.40714 -2.94798,-2.40714" fill="none" stroke-linecap="round"></path><path d="M246.10147,186.80288c0,3.92287 -0.94061,7.103 -2.10089,7.103c-1.16028,0 -2.10089,-3.18013 -2.10089,-7.103c0,-3.92287 0.94061,-7.103 2.10089,-7.103c1.16028,0 2.10089,3.18013 2.10089,7.103z" fill="#000000" stroke-linecap="butt"></path></g></g></g></svg>