<svg version="1.1" xmlns="http://www.w3.org/2000/svg" xmlns:xlink="http://www.w3.org/1999/xlink" width="36.00772" height="45.17437" viewBox="0,0,36.00772,45.17437"><defs><linearGradient x1="229.00453" y1="155.68793" x2="229.00453" y2="201.05647" gradientUnits="userSpaceOnUse" id="color-1"><stop offset="0" stop-color="#1dffce"></stop><stop offset="1" stop-color="#30beff"></stop></linearGradient></defs><g transform="translate(-210.93837,-156.1321)"><g data-paper-data="{&quot;isPaintingLayer&quot;:true}" fill-rule="nonzero" stroke="#000000" stroke-width="0.5" stroke-linejoin="miter" stroke-miterlimit="10" stroke-dasharray="" stroke-dashoffset="0" style="mix-blend-mode: normal"><path d="M217.90209,174.2084l-0.08858,-10.26887l8.043,-0.09208l0.17717,10.36095z" fill="#0b8100" stroke-linecap="butt"></path><path d="M221.43383,167.91586c0,2.46086 -0.62987,4.45579 -1.40685,4.45579c-0.77698,0 -1.40685,-1.99492 -1.40685,-4.45579c0,-2.46086 0.62987,-4.45579 1.40685,-4.45579c0.77698,0 1.40685,1.99492 1.40685,4.45579z" fill="#000000" stroke-linecap="butt"></path><path d="M230.18422,173.37452l-5.13567,3.45227c0,0 -2.34371,12.38706 1.22217,15.35936c2.79333,2.32834 11.65753,7.08959 14.49147,4.81265c2.08914,-1.67853 1.12733,-4.85472 1.12733,-4.85472c0,0 8.68154,5.53307 2.70965,7.68386c-5.88088,2.11801 -26.41407,0.85422 -26.73497,0.85628c-0.60152,0.00386 -1.36882,-7.92164 -1.21072,-14.59072c0.11834,-4.9922 1.11714,-9.22005 1.11714,-9.22005l-3.27167,0.02098l-3.14494,-3.05248l2.21163,-1.51703l2.84658,1.41202l2.71131,-1.92939l3.24563,0.79302l2.56709,-3.07455l-0.1335,-0.47811l-2.66907,-4.40812l-2.89623,1.67655l-2.74114,-2.11865l-2.78679,2.42114l-2.39655,-2.44163l3.79216,-2.96002l1.5158,-0.01734c0,0 0.69669,-4.97743 3.25015,-5.06774c0.87582,-0.03098 2.32388,1.69447 3.41494,2.46653c1.08897,0.77057 1.82179,0.58774 1.82179,0.58774l1.56398,0.89647l3.65631,5.48639z" data-paper-data="{&quot;index&quot;:null}" fill="url(#color-1)" stroke-linecap="round"></path><path d="M220.30757,161.15823c0,1.66339 -0.57507,3.01184 -1.28446,3.01184c-0.70939,0 -1.28446,-1.34845 -1.28446,-3.01184c0,-1.66339 0.57507,-3.01184 1.28446,-3.01184c0.70939,0 1.28446,1.34845 1.28446,3.01184z" fill="#001515" stroke-linecap="butt"></path></g></g></svg>