<svg version="1.1" xmlns="http://www.w3.org/2000/svg" xmlns:xlink="http://www.w3.org/1999/xlink" width="43.32265" height="54.56962" viewBox="0,0,43.32265,54.56962"><defs><linearGradient x1="319.63493" y1="162.37691" x2="319.63493" y2="177.96799" gradientUnits="userSpaceOnUse" id="color-1"><stop offset="0" stop-color="#905fff"/><stop offset="1" stop-color="#5feeff"/></linearGradient><linearGradient x1="319.74476" y1="177.72643" x2="319.74476" y2="205.97389" gradientUnits="userSpaceOnUse" id="color-2"><stop offset="0" stop-color="#905fff"/><stop offset="1" stop-color="#000000"/></linearGradient></defs><g transform="translate(-297.13277,-153.03747)"><g stroke-miterlimit="10"><path d="M308.87723,177.96799l-0.09913,-15.13998l21.61453,-0.4511l0.09913,15.14001z" fill="url(#color-1)" stroke="#000000" stroke-width="0.5" stroke-linecap="butt"/><path d="M306.44049,205.97389l-0.3265,-27.93263l26.93503,-0.31483l0.3265,27.93263z" fill="url(#color-2)" stroke="#000000" stroke-width="0.5" stroke-linecap="butt"/><path d="M308.87723,186.82226l-0.09913,-8.47951l21.61453,-0.25267l0.09913,8.47955z" fill="#000000" stroke="#000000" stroke-width="0.5" stroke-linecap="butt"/><path d="M315.42449,175.102c0,-2.07107 1.67893,-3.75 3.75,-3.75c2.07107,0 3.75,1.67893 3.75,3.75c0,2.07107 -1.67893,3.75 -3.75,3.75c-2.07107,0 -3.75,-1.67893 -3.75,-3.75z" fill="#6e9c9a" stroke="#000000" stroke-width="0.5" stroke-linecap="butt"/><path d="M312.30953,165.62271c-0.05406,-3.87232 3.04126,-7.05527 6.91359,-7.10933c3.87232,-0.05406 7.05527,3.04126 7.10932,6.91358c0.05406,3.87232 -3.04126,7.05527 -6.91358,7.10933c-3.87232,0.05406 -7.05527,-3.04126 -7.10933,-6.91358z" fill="#6e9c9a" stroke="#000000" stroke-width="0.5" stroke-linecap="butt"/><path d="M316.15957,167.39019l0.69436,-1.82743l0.61791,1.71912l1.06466,0.20113l-1.00088,0.49989l-0.5772,1.19585l-0.76951,-0.9791l-1.51975,-0.57269z" fill="#000000" stroke="#000000" stroke-width="0.5" stroke-linecap="round"/><path d="M318.92296,164.19257c0,0 -1.77915,-1.33023 -2.59564,-1.45186c-1.23347,-0.18374 -4.0851,0.45667 -4.0851,0.45667c0,0 -1.87247,-2.62399 -3.05422,-3.28235c-1.75915,-0.98005 -6.47592,-2.02694 -6.47592,-2.02694c0,0 6.41878,-4.49151 9.39752,-4.51438c3.97624,-0.03053 6.73266,5.03755 6.73266,5.03755z" fill="#905fff" stroke="#000000" stroke-width="1.5" stroke-linecap="round"/><path d="M319.86062,158.26098c0,0 2.6139,-5.14306 6.58942,-5.22351c2.97823,-0.06028 9.51987,4.25034 9.51987,4.25034c0,0 -4.6857,1.17813 -6.41681,2.20688c-1.16292,0.69108 -2.9614,3.36633 -2.9614,3.36633c0,0 -2.86839,-0.56059 -4.09626,-0.34246c-0.81277,0.14435 -2.55412,1.52376 -2.55412,1.52376z" fill="#000000" stroke="#000000" stroke-width="1.5" stroke-linecap="round"/><path d="M336.25508,157.65184c-0.01524,-1.09086 0.85674,-1.98752 1.94759,-2.00275c1.09085,-0.01523 1.98752,0.85674 2.00275,1.94759c0.01524,1.09086 -0.85674,1.98752 -1.94759,2.00276c-1.09085,0.01523 -1.98752,-0.85674 -2.00275,-1.9476z" fill="#905fff" stroke="#000000" stroke-width="0.5" stroke-linecap="butt"/><path d="M300.57797,157.85049c-0.01523,-1.09086 0.85674,-1.98752 1.9476,-2.00275c1.09086,-0.01523 1.98752,0.85674 2.00276,1.9476c0.01523,1.09086 -0.85674,1.98752 -1.9476,2.00275c-1.09086,0.01523 -1.98752,-0.85674 -2.00276,-1.9476z" fill="#000000" stroke="#000000" stroke-width="0.5" stroke-linecap="butt"/><path d="M323.86984,167.62696l-1.51975,0.57269l-0.76952,0.9791l-0.5772,-1.19585l-1.00088,-0.49989l1.06466,-0.20113l0.61791,-1.71912l0.69436,1.82743z" fill="#000000" stroke="#000000" stroke-width="0.5" stroke-linecap="round"/><path d="M317.10549,167.65751c0,-0.27614 0.22386,-0.5 0.5,-0.5c0.27614,0 0.5,0.22386 0.5,0.5c0,0.27614 -0.22386,0.5 -0.5,0.5c-0.27614,0 -0.5,-0.22386 -0.5,-0.5z" fill="#ffdb12" stroke="none" stroke-width="0.5" stroke-linecap="butt"/><path d="M320.43883,167.60196c0,-0.27614 0.22386,-0.5 0.5,-0.5c0.27614,0 0.5,0.22386 0.5,0.5c0,0.27614 -0.22386,0.5 -0.5,0.5c-0.27614,0 -0.5,-0.22386 -0.5,-0.5z" fill="#ffdb12" stroke="none" stroke-width="0.5" stroke-linecap="butt"/><path d="M316.97477,170.37145c0,0 3.2514,-0.04523 4.3988,-0.26528c0.91597,-0.17567 1.94903,-0.95211 1.94903,-0.95211c0,0 4.95915,2.6743 3.26087,3c-1.69828,0.3257 -9.6087,-1.78261 -9.6087,-1.78261z" fill="#000000" stroke="#000000" stroke-width="0.5" stroke-linecap="round"/><path d="M325.19714,170.88489l-2.72459,-1.08089l1.2445,-0.39298z" fill="#ffdb12" stroke="#000000" stroke-width="0" stroke-linecap="round"/><path d="M320.42944,170.21184l0.71724,1.09031l-2.79553,-0.88132z" fill="#ffdb12" stroke="#000000" stroke-width="0" stroke-linecap="round"/><path d="M323.44224,171.39469l-2.72459,-1.08088l1.2445,-0.39298z" fill="#ffdb12" stroke="#000000" stroke-width="0" stroke-linecap="round"/><path d="M316.93773,170.37145c0,0 3.2514,-0.04523 4.3988,-0.26528c0.91597,-0.17567 1.94903,-0.95211 1.94903,-0.95211c0,0 4.95915,2.6743 3.26087,3c-1.69828,0.3257 -9.6087,-1.78261 -9.6087,-1.78261z" fill="none" stroke="#000000" stroke-width="0.5" stroke-linecap="round"/><path d="M315.51274,182.69023c0,-2.07107 1.67893,-3.75 3.75,-3.75c2.07107,0 3.75,1.67893 3.75,3.75c0,2.07107 -1.67893,3.75 -3.75,3.75c-2.07107,0 -3.75,-1.67893 -3.75,-3.75z" fill="#6e9c9a" stroke="#000000" stroke-width="0.5" stroke-linecap="butt"/><path d="M317.24803,175.33729c0,-1.08021 0.87568,-1.95588 1.95588,-1.95588c1.0802,0 1.95588,0.87568 1.95588,1.95588c0,1.08021 -0.87568,1.95588 -1.95588,1.95588c-1.0802,0 -1.95588,-0.87568 -1.95588,-1.95588z" fill="#3d5654" stroke="#000000" stroke-width="0.5" stroke-linecap="butt"/><path d="M317.36568,182.80788c0,-1.08021 0.87568,-1.95588 1.95588,-1.95588c1.0802,0 1.95589,0.87568 1.95589,1.95588c0,1.08021 -0.87568,1.95588 -1.95589,1.95588c-1.0802,0 -1.95588,-0.87568 -1.95588,-1.95588z" fill="#3d5654" stroke="#000000" stroke-width="0.5" stroke-linecap="butt"/><path d="M304.91938,206.96316l-5.125,-4.25l8.5,2.25l1.875,-5.5l3.875,6.375l4.875,-5l5.125,4.625l4.625,-4.5l1.875,4.75l3.25,-4.875l4.125,5.25" fill="#119400" stroke="#000000" stroke-width="1.28786" stroke-linecap="round"/></g></g></svg>