<svg version="1.1" xmlns="http://www.w3.org/2000/svg" xmlns:xlink="http://www.w3.org/1999/xlink" width="790.5" height="401.5" viewBox="0,0,790.5,401.5"><g transform="translate(58.75,24.25)"><g stroke-miterlimit="10"><path d="M-58.5,377v-401h790v401z" fill="#00ffd4" stroke="#000000" stroke-width="0.5"/><text transform="translate(127.79519,59.25) scale(1.1875,1.1875)" font-size="40" xml:space="preserve" fill="#000000" stroke="none" stroke-width="1" font-family="Sans Serif" font-weight="normal" text-anchor="start"><tspan x="0" dy="0">Select your level!</tspan></text><path d="M88,348.5v-264h462v264z" fill="#9f9f9f" stroke="#000000" stroke-width="0.5"/><path d="M442.24713,323.2329v-58.10068v-8.27434c0,0 1.97434,0 4.30777,0c10.11269,0 80.90923,0 80.90923,0v66.37502z" fill="#afafaf" stroke="#000000" stroke-width="1"/><path d="M442.24713,304.66762v-58.10068v-8.27434c0,0 1.97434,0 4.30777,0c10.11269,0 80.90923,0 80.90923,0v66.37502z" fill="#afafaf" stroke="#000000" stroke-width="1"/><text transform="translate(455.47014,319.29868) scale(0.422,0.422)" font-size="40" xml:space="preserve" fill="#000000" stroke="none" stroke-width="1" font-family="Sans Serif" font-weight="normal" text-anchor="start"><tspan x="0" dy="0">Locked!</tspan></text><path d="M446.28109,299.32811v-54.4582h77.56168v54.4582z" fill="#636363" stroke="#000000" stroke-width="1"/><path d="M469.02135,272.53142c0,-10.33983 6.76489,-18.72192 15.10981,-18.72192c8.34492,0 15.10981,8.38209 15.10981,18.72192h-4.02928c0,-7.58254 -4.96092,-13.7294 -11.08053,-13.7294c-6.11961,0 -11.08053,6.14686 -11.08053,13.7294zM468.01403,272.53142h32.23426v22.4663h-32.23426z" fill="#bfbfbf" stroke="#000000" stroke-width="1"/></g></g></svg>