<svg version="1.1" xmlns="http://www.w3.org/2000/svg" xmlns:xlink="http://www.w3.org/1999/xlink" width="96.1724" height="97.26079" viewBox="0,0,96.1724,97.26079"><g transform="translate(-271.9138,-131.23751)"><g stroke-miterlimit="10"><path d="M272.4138,226.60088v-64.88824v-9.24098c0,0 2.20499,0 4.81102,0c11.2941,0 90.36138,0 90.36138,0v74.12922z" fill="#afafaf" stroke="#000000" stroke-width="1"/><path d="M272.4138,205.86673v-64.88824v-9.24098c0,0 2.20499,0 4.81102,0c11.2941,0 90.36138,0 90.36138,0v74.12922z" fill="#afafaf" stroke="#000000" stroke-width="1"/><text transform="translate(306.18157,222.60705) scale(0.4713,0.4713)" font-size="40" xml:space="preserve" fill="#000000" stroke="none" stroke-width="1" font-family="Sans Serif" font-weight="normal" text-anchor="start"><tspan x="0" dy="0">4-5</tspan></text><path d="M276.91902,199.90342v-60.82023h86.62275v60.82023z" fill="#939393" stroke="#000000" stroke-width="1"/><path d="M333.7116,131.95689h33.838v33.838z" fill="#ff0000" stroke="#000000" stroke-width="1"/><g stroke="#000000" stroke-width="0.5"><path d="M332.49322,187.17674l-2.0606,1.6262l-8.86669,-11.23519l2.0606,-1.6262z" fill="#797979"/><path d="M322.93903,178.34143l-2.0606,-1.62621l8.86669,-11.23519l2.0606,1.62621z" fill="#797979"/><path d="M311.6091,178.46429l-2.20281,-2.95724l7.66878,-5.71238l2.20281,2.95724z" fill="#740000"/><path d="M315.47341,194.7624v-40.13478h8.13158v40.13478z" fill="#0b8100"/><path d="M315.48505,194.81548v-23.24734h8.20606v23.24734z" fill="#740000"/><path d="M315.48505,182.23644v-10.6683h3.76514z" fill="#ffffff"/><path d="M315.42726,178.47888v-7.00605h2.47263z" fill="#ff0000"/><path d="M319.00515,162.11732c0,2.46086 -0.62987,4.45579 -1.40685,4.45579c-0.77698,0 -1.40685,-1.99492 -1.40685,-4.45579c0,-2.46086 0.62987,-4.45579 1.40685,-4.45579c0.77698,0 1.40685,1.99492 1.40685,4.45579z" fill="#000000"/><path d="M308.87333,192.72323v-29.25h4.5625v29.25z" fill="#797979"/><path d="M313.04204,184.85277l-2.65664,-2.55733l6.63171,-6.88925l2.65664,2.55733z" fill="#740000"/><path d="M313.04205,184.66527l-2.65664,-2.55732l2.69569,-2.80037l2.48737,2.73317z" fill="#0b8100"/><path d="M332.50031,175.19241l-9.26883,-27.74259l4.32737,-1.44578l9.26883,27.74259z" fill="#797979"/><path d="M327.80514,192.60447l4.27953,-14.63722l3.41935,0.99973l-4.27953,14.63722z" fill="#797979"/></g></g></g></svg>