<svg version="1.1" xmlns="http://www.w3.org/2000/svg" xmlns:xlink="http://www.w3.org/1999/xlink" width="73.58238" height="71.49799" viewBox="0,0,73.58238,71.49799"><g transform="translate(-283.89808,-205.12669)"><g data-paper-data="{&quot;isPaintingLayer&quot;:true}" fill-rule="nonzero" stroke-linejoin="miter" stroke-miterlimit="10" stroke-dasharray="" stroke-dashoffset="0" style="mix-blend-mode: normal"><path d="M351.48376,244.00482c0,17.94799 -15.12957,32.49771 -33.79284,32.49771c-18.66327,0 -33.79284,-14.54972 -33.79284,-32.49771c0,-17.94799 15.12957,-32.49771 33.79284,-32.49771c18.66327,0 33.79284,14.54972 33.79284,32.49771z" fill="#7e7e7e" stroke="none" stroke-width="0" stroke-linecap="butt"></path><g stroke="#000000" stroke-width="0.5"><path d="M333.39717,234.29094l6.33721,-0.36823l9.21119,-7.43991l3.66643,3.39484l-12.49317,9.09788l-12.01762,0.74718z" data-paper-data="{&quot;index&quot;:null}" fill="#646464" stroke-linecap="butt"></path><path d="M323.28054,234.25684l0.74718,-12.01762l9.09788,-12.49317l3.39484,3.66643l-7.43991,9.21119l-0.36823,6.33721z" fill="#646464" stroke-linecap="butt"></path><path d="M314.92922,243.96611l10.52403,-10.52403l3.87013,3.87013l-10.52403,10.52403z" fill="#ff0000" stroke-linecap="butt"></path><path d="M305.27455,252.6969l10.1425,-10.1425l4.7162,4.7162l-10.1425,10.1425l-4.35901,-0.19454z" fill="#7b7b7b" stroke-linecap="butt"></path><path d="M332.89541,209.87118l4.39094,-4.39094l19.84056,19.84056l-4.39094,4.39094z" fill="#7b7b7b" stroke-linecap="butt"></path><path d="M286.74535,262.97431c-0.17722,-3.2741 1.85795,-4.57789 3.80195,-6.89508c4.92379,-5.86899 13.28582,-10.19268 13.28582,-10.19268l3.41996,3.41996l0.93054,5.42814l5.58324,1.08562l3.4393,3.4393c0,0 -4.49727,8.67129 -10.17281,13.57909c-2.26164,1.95571 -4.24166,3.78252 -6.91495,3.50867c-9.38189,-0.96107 -13.12126,-8.72187 -13.37303,-13.37303z" fill="#5c5c5c" stroke-linecap="butt"></path><path d="M307.26967,249.58163c0,0 1.70732,2.47119 2.7522,3.49245c0.94769,0.92628 3.25405,2.378 3.25405,2.378l-8.11009,2.21732z" fill="#353535" stroke-linecap="butt"></path><path d="M305.08416,257.47761l4.54909,-4.41331" fill="none" stroke-linecap="round"></path><path d="M322.32998,234.52843l6.85759,-6.85759l5.97493,5.97493l-6.85759,6.85759z" fill="#7b7b7b" stroke-linecap="butt"></path></g></g></g></svg>