<svg version="1.1" xmlns="http://www.w3.org/2000/svg" xmlns:xlink="http://www.w3.org/1999/xlink" width="240.08406" height="64.97586" viewBox="0,0,240.08406,64.97586"><g transform="translate(-326.40646,-151.98826)"><g fill="#b200ff" stroke="none" stroke-miterlimit="10"><path d="M548.62785,196.54465c-0.17341,-4.90897 3.68345,-9.0297 8.61453,-9.20389c4.93108,-0.17419 9.0691,3.6641 9.24251,8.57308c0.17341,4.90897 -3.68345,9.0297 -8.61453,9.20389c-4.93108,0.17419 -9.0691,-3.6641 -9.24251,-8.57308z" stroke-width="NaN"/><path d="M555.37587,170.54407c0.14623,4.13955 -3.091,7.61387 -7.23055,7.7601c-4.13955,0.14623 -7.61387,-3.091 -7.7601,-7.23055c-0.14623,-4.13955 3.091,-7.61387 7.23055,-7.7601c4.13955,-0.14623 7.61387,3.091 7.7601,7.23055z" stroke-width="0"/><path d="M521.59712,177.40751c0.11374,3.21965 -2.40411,5.9219 -5.62376,6.03564c-3.21965,0.11374 -5.92189,-2.40412 -6.03563,-5.62377c-0.11374,-3.21965 2.40411,-5.92189 5.62376,-6.03563c3.21965,-0.11374 5.92189,2.40411 6.03563,5.62376z" stroke-width="0"/><path d="M535.36254,161.07804c0.12998,3.6796 -2.74755,6.76788 -6.42716,6.89786c-3.6796,0.12998 -6.76789,-2.74754 -6.89787,-6.42715c-0.12998,-3.6796 2.74755,-6.76789 6.42716,-6.89787c3.6796,-0.12998 6.76789,2.74755 6.89787,6.42716z" stroke-width="0"/><path d="M537.31148,197.36518c0.16248,4.5995 -3.43444,8.45986 -8.03394,8.62234c-4.5995,0.16248 -8.45985,-3.43444 -8.62233,-8.03395c-0.16248,-4.5995 3.43443,-8.45985 8.03394,-8.62233c4.5995,-0.16248 8.45985,3.43443 8.62233,8.03394z" stroke-width="0"/><path d="M515.14504,202.48426c0.23397,6.62329 -4.9456,12.18219 -11.56888,12.41616c-6.62328,0.23397 -12.18219,-4.94559 -12.41616,-11.56888c-0.23397,-6.62329 4.9456,-12.18219 11.56888,-12.41616c6.62328,-0.23397 12.18219,4.94559 12.41616,11.56888z" stroke-width="0"/><path d="M500.40201,162.81334c0.13323,3.77159 -2.81624,6.93708 -6.58784,7.07031c-3.7716,0.13323 -6.93708,-2.81623 -7.07031,-6.58783c-0.13323,-3.77159 2.81624,-6.93709 6.58783,-7.07032c3.7716,-0.13323 6.93709,2.81624 7.07032,6.58784z" stroke-width="0"/><path d="M491.72761,181.6313c0.14948,4.23154 -3.15968,7.78306 -7.39122,7.93254c-4.23155,0.14948 -7.78307,-3.15968 -7.93255,-7.39122c-0.14948,-4.23154 3.15968,-7.78307 7.39123,-7.93255c4.23155,-0.14948 7.78306,3.15969 7.93254,7.39123z" stroke-width="0"/><path d="M351.32426,163.24321c0.22747,6.43931 -4.80821,11.8438 -11.24753,12.07127c-6.43931,0.22747 -11.84379,-4.80821 -12.07126,-11.24753c-0.22747,-6.43931 4.80821,-11.8438 11.24752,-12.07127c6.43931,-0.22747 11.8438,4.80821 12.07127,11.24753z" stroke-width="0"/><path d="M364.34421,182.4622c0.19497,5.5194 -4.12134,10.15182 -9.64073,10.3468c-5.5194,0.19497 -10.15182,-4.12134 -10.3468,-9.64073c-0.19497,-5.5194 4.12134,-10.15182 9.64073,-10.3468c5.5194,-0.19497 10.15182,4.12134 10.3468,9.64073z" stroke-width="0"/><path d="M341.73511,193.9342c0.14948,4.23154 -3.15968,7.78307 -7.39123,7.93255c-4.23154,0.14948 -7.78307,-3.15968 -7.93255,-7.39123c-0.14948,-4.23154 3.15968,-7.78307 7.39123,-7.93255c4.23154,-0.14948 7.78307,3.15968 7.93255,7.39123z" stroke-width="0"/><path d="M394.14173,195.08479c0.12998,3.6796 -2.74755,6.76789 -6.42716,6.89787c-3.6796,0.12998 -6.76789,-2.74755 -6.89787,-6.42716c-0.12998,-3.6796 2.74755,-6.76789 6.42716,-6.89787c3.6796,-0.12998 6.76789,2.74755 6.89787,6.42716z" stroke-width="0"/><path d="M396.1396,166.66321c0.29246,8.27911 -6.18199,15.22774 -14.4611,15.5202c-8.27911,0.29246 -15.22774,-6.18199 -15.5202,-14.4611c-0.29246,-8.27911 6.18199,-15.22774 14.4611,-15.5202c8.27911,-0.29246 15.22774,6.18199 15.5202,14.4611z" stroke-width="0"/><path d="M415.93747,179.47227c0.14623,4.13956 -3.09099,7.61387 -7.23055,7.7601c-4.13956,0.14623 -7.61387,-3.09099 -7.7601,-7.23055c-0.14623,-4.13956 3.09099,-7.61387 7.23055,-7.7601c4.13956,-0.14623 7.61387,3.09099 7.7601,7.23055z" stroke-width="0"/><path d="M443.19356,195.68681c0.20797,5.88737 -4.39608,10.82862 -10.28345,11.03659c-5.88737,0.20797 -10.82862,-4.39608 -11.03659,-10.28345c-0.20797,-5.88737 4.39608,-10.82862 10.28345,-11.03659c5.88737,-0.20797 10.82862,4.39608 11.03659,10.28345z" stroke-width="0"/><path d="M413.57756,159.87669c0.11374,3.21965 -2.40411,5.92189 -5.62376,6.03563c-3.21965,0.11374 -5.92189,-2.40411 -6.03563,-5.62376c-0.11374,-3.21965 2.40411,-5.92189 5.62376,-6.03563c3.21965,-0.11374 5.92189,2.40411 6.03563,5.62376z" stroke-width="0"/><path d="M446.52981,167.38472c0.26322,7.45119 -5.5638,13.70496 -13.01499,13.96818c-7.45119,0.26322 -13.70496,-5.5638 -13.96818,-13.01499c-0.26322,-7.45119 5.5638,-13.70496 13.01499,-13.96818c7.45119,-0.26322 13.70496,5.5638 13.96818,13.01499z" stroke-width="0"/><path d="M468.9773,189.10579c0.17548,4.96746 -3.7092,9.13664 -8.67666,9.31212c-4.96746,0.17548 -9.13664,-3.7092 -9.31212,-8.67666c-0.17548,-4.96746 3.7092,-9.13664 8.67666,-9.31212c4.96746,-0.17548 9.13664,3.7092 9.31212,8.67666z" stroke-width="0"/><path d="M481.92075,206.15948c0.13323,3.7716 -2.81624,6.93708 -6.58783,7.07031c-3.7716,0.13323 -6.93708,-2.81624 -7.07031,-6.58783c-0.13323,-3.7716 2.81624,-6.93708 6.58783,-7.07031c3.7716,-0.13323 6.93708,2.81624 7.07031,6.58783z" stroke-width="0"/><path d="M466.59972,169.01053c0.13973,3.95557 -2.95362,7.27548 -6.9092,7.41521c-3.95557,0.13973 -7.27548,-2.95362 -7.41521,-6.9092c-0.13973,-3.95557 2.95362,-7.27548 6.9092,-7.41521c3.95557,-0.13973 7.27548,2.95362 7.41521,6.9092z" stroke-width="0"/><path d="M418.35442,205.4031c0.21772,6.16334 -4.60215,11.33621 -10.76549,11.55393c-6.16334,0.21772 -11.33621,-4.60215 -11.55393,-10.76549c-0.21772,-6.16334 4.60215,-11.33621 10.76549,-11.55393c6.16334,-0.21772 11.33621,4.60215 11.55393,10.76549z" stroke-width="0"/><path d="M377.52483,201.50876c0.15923,4.50752 -3.36575,8.29066 -7.87327,8.44989c-4.50752,0.15923 -8.29066,-3.36575 -8.44989,-7.87327c-0.15923,-4.50752 3.36575,-8.29066 7.87327,-8.44989c4.50752,-0.15923 8.29066,3.36575 8.44989,7.87327z" stroke-width="0"/></g></g></svg>