<svg version="1.1" xmlns="http://www.w3.org/2000/svg" xmlns:xlink="http://www.w3.org/1999/xlink" width="43.12164" height="61.8433" viewBox="0,0,43.12164,61.8433"><g transform="translate(-217.48007,-145.53721)"><g data-paper-data="{&quot;isPaintingLayer&quot;:true}" fill-rule="nonzero" stroke="#000000" stroke-width="1.28786" stroke-linejoin="miter" stroke-miterlimit="10" stroke-dasharray="" stroke-dashoffset="0" style="mix-blend-mode: normal"><path d="M236.25724,202.66212v-24.5343h6.9495v24.5343z" fill="#00ff50" stroke-linecap="butt"></path><path d="M239.25781,180.94929c1.81272,-1.85517 6.15872,-0.5484 9.70707,2.91876c3.54835,3.46716 4.95535,7.78176 3.14263,9.63693c-1.81272,1.85517 -6.15872,0.5484 -9.70707,-2.91876c-3.54835,-3.46716 -4.95535,-7.78176 -3.14263,-9.63693z" data-paper-data="{&quot;index&quot;:null}" fill="#00ff50" stroke-linecap="butt"></path><path d="M236.0671,191.80898c-3.45615,3.37707 -7.68923,4.64989 -9.45485,2.84292c-1.76562,-1.80697 -0.39518,-6.00946 3.06097,-9.38653c3.45615,-3.37707 7.68923,-4.64989 9.45485,-2.84292c1.76562,1.80697 0.39518,6.00946 -3.06097,9.38653z" fill="#00ff50" stroke-linecap="butt"></path><path d="M227.51885,171.11175c0.53651,-2.15767 -3.37619,-8.79166 -0.12626,-14.65649c2.25204,-4.06404 2.22305,-7.51391 2.22305,-7.51391c0,0 11.71406,13.45318 14.7161,14.19963c1.66593,0.41423 13.24679,-8.14629 13.24679,-8.14629c0,0 2.63231,3.15296 2.35941,7.21309c-0.37823,5.62725 -3.76857,12.9715 -4.4843,15.84995c-1.57152,6.32021 -9.09891,9.88884 -16.81288,7.97075c-7.71398,-1.91808 -12.69343,-8.59653 -11.12191,-14.91674z" data-paper-data="{&quot;index&quot;:null}" fill="#bc0000" stroke-linecap="butt"></path><path d="M239.42118,184.2785c-7.71398,1.91808 -15.24137,-1.65054 -16.81288,-7.97075c-0.71572,-2.87845 -4.10607,-10.2227 -4.4843,-15.84995c-0.2729,-4.06012 2.35941,-7.21309 2.35941,-7.21309c0,0 11.58087,8.56052 13.2468,8.14629c3.00204,-0.74645 4.8411,-14.94963 4.8411,-14.94963c0,0 4.59601,1.82486 6.84805,5.88891c3.24992,5.86483 4.58723,14.87382 5.12374,17.03149c1.57152,6.32021 -3.40793,12.99866 -11.1219,14.91674z" fill="#bc0000" stroke-linecap="butt"></path><path d="M230.24516,206.73658c-4.83214,0 -8.74936,-2.04803 -8.74936,-4.5744c0,-2.52637 3.91722,-4.5744 8.74936,-4.5744c4.83214,0 8.74936,2.04803 8.74936,4.5744c0,2.52637 -3.91722,4.5744 -8.74936,4.5744z" fill="#00ff50" stroke-linecap="butt"></path><path d="M259.15554,201.76848c0,2.60575 -4.27537,4.71814 -9.5493,4.71814c-5.27393,0 -9.5493,-2.11239 -9.5493,-4.71814c0,-2.60575 4.27537,-4.71813 9.5493,-4.71813c5.27393,0 9.5493,2.11238 9.5493,4.71813z" fill="#00ff50" stroke-linecap="butt"></path><path d="M239.72572,188.50153c-7.94887,0 -14.3927,-5.27955 -14.3927,-11.79221c0,-2.9661 -1.51797,-10.91142 -0.52715,-16.46366c0.71489,-4.006 4.03023,-6.43061 4.03023,-6.43061c0,0 9.17297,11.10205 10.88963,11.10205c3.09345,0 8.30543,-13.3397 8.30543,-13.3397c0,0 4.01986,2.87996 5.22468,7.36734c1.73869,6.47574 0.86258,15.54121 0.86258,17.76458c0,6.51266 -6.44383,11.79221 -14.3927,11.79221z" fill="#ff0000" stroke-linecap="butt"></path><path d="M239.18636,179.91264c-0.70757,0 -1.28116,-2.44813 -1.28116,-5.46804c0,-0.49771 0.04477,-1.43814 0.04477,-1.43814l2.21699,0.28718c0,0 0.30056,0.62134 0.30056,1.15096c0,3.01992 -0.5736,5.46804 -1.28116,5.46804z" fill="#000000" stroke-linecap="butt"></path><path d="M239.85072,188.62653c-2.44752,0 -6.77032,-1.38349 -6.77032,-1.38349c0,0 7.61863,-3.48489 9.11711,-9.49336c2.88028,-11.54909 -3.13314,-12.70758 -2.34679,-12.70758c3.09345,0 8.30543,-13.3397 8.30543,-13.3397c0,0 4.01986,2.87996 5.22468,7.36734c1.73869,6.47574 0.86258,15.54121 0.86258,17.76458c0,6.51266 -6.44383,11.79221 -14.3927,11.79221z" fill="#ff0000" stroke-linecap="butt"></path><path d="M243.71134,183.51514c0,0 -2.49444,2.25378 -10.45327,-0.05064c-2.39563,-0.69363 -3.17173,-3.57436 -3.17173,-3.57436" fill="none" stroke-linecap="round"></path><path d="M232.71134,172.76514l7.375,0.25" fill="none" stroke-linecap="round"></path><path d="M251.58634,172.89014l-7.375,0.25" data-paper-data="{&quot;index&quot;:null}" fill="none" stroke-linecap="round"></path><path d="M244.5302,174.4446c0,-0.52962 0.30056,-1.15096 0.30056,-1.15096l2.21699,-0.28718c0,0 0.04477,0.94043 0.04477,1.43814c0,3.01991 -0.57359,5.46804 -1.28116,5.46804c-0.70756,0 -1.28116,-2.44812 -1.28116,-5.46804z" data-paper-data="{&quot;index&quot;:null}" fill="#000000" stroke-linecap="butt"></path></g></g></svg>