<svg version="1.1" xmlns="http://www.w3.org/2000/svg" xmlns:xlink="http://www.w3.org/1999/xlink" width="96.1724" height="97.26079" viewBox="0,0,96.1724,97.26079"><g transform="translate(-191.9138,-131.23755)"><g data-paper-data="{&quot;isPaintingLayer&quot;:true}" fill-rule="nonzero" stroke-linejoin="miter" stroke-miterlimit="10" stroke-dasharray="" stroke-dashoffset="0" style="mix-blend-mode: normal"><path d="M192.4138,226.60092v-64.88824v-9.24098c0,0 2.20499,0 4.81102,0c11.2941,0 90.36138,0 90.36138,0v74.12922z" fill="#afafaf" stroke="#000000" stroke-width="1" stroke-linecap="butt"></path><path d="M192.4138,205.86677v-64.88824v-9.24098c0,0 2.20499,0 4.81102,0c11.2941,0 90.36138,0 90.36138,0v74.12922z" fill="#afafaf" stroke="#000000" stroke-width="1" stroke-linecap="butt"></path><text transform="translate(227.49782,222.60709) scale(0.4713,0.4713)" font-size="40" xml:space="preserve" fill="#000000" fill-rule="nonzero" stroke="none" stroke-width="1" stroke-linecap="butt" stroke-linejoin="miter" stroke-miterlimit="10" stroke-dasharray="" stroke-dashoffset="0" font-family="Sans Serif" font-weight="normal" text-anchor="start" style="mix-blend-mode: normal"><tspan x="0" dy="0">3-3</tspan></text><path d="M196.91902,199.90347v-60.82023h86.62275v60.82023z" fill="#939393" stroke="#000000" stroke-width="1" stroke-linecap="butt"></path><path d="M196.68347,199.97841v-60.82023h86.62275v60.82023z" fill="none" stroke="#000000" stroke-width="1" stroke-linecap="butt"></path><g stroke-linecap="butt"><text transform="translate(242.83009,173.47189) scale(0.25918,0.36956)" font-size="40" xml:space="preserve" data-paper-data="{&quot;index&quot;:null}" fill="#000000" fill-rule="nonzero" stroke="none" stroke-width="1" stroke-linecap="butt" stroke-linejoin="miter" stroke-miterlimit="10" stroke-dasharray="" stroke-dashoffset="0" font-family="Sans Serif" font-weight="normal" text-anchor="start" style="mix-blend-mode: normal"><tspan x="0" dy="0">💪</tspan></text><path d="M251.985,196.46743v-50.42839h10.21713v50.42839z" fill="#0b8100" stroke="#000000" stroke-width="0.5"></path><path d="M251.99962,196.53412v-29.20972h10.31072v29.20972z" fill="#ff0000" stroke="#000000" stroke-width="0.5"></path><path d="M251.99962,180.72886v-13.40446h4.73081z" fill="#0b8100" stroke="#000000" stroke-width="0.5"></path><path d="M256.42254,155.44967c0,3.09201 -0.79142,5.59859 -1.76767,5.59859c-0.97626,0 -1.76767,-2.50656 -1.76767,-5.59859c0,-3.09201 0.79142,-5.5986 1.76767,-5.5986c0.97626,0 1.76767,2.50657 1.76767,5.5986z" fill="#000000" stroke="#000000" stroke-width="0.5"></path><text transform="translate(276.68119,175.85755) rotate(-180) scale(0.46613,-0.50062)" font-size="40" xml:space="preserve" data-paper-data="{&quot;index&quot;:null}" fill="#000000" fill-rule="nonzero" stroke="none" stroke-width="1" stroke-linecap="butt" stroke-linejoin="miter" stroke-miterlimit="10" stroke-dasharray="" stroke-dashoffset="0" font-family="Sans Serif" font-weight="normal" text-anchor="start" style="mix-blend-mode: normal"><tspan x="0" dy="0">💪</tspan></text></g><g data-paper-data="{&quot;index&quot;:null}" stroke="#000000" stroke-width="0.5"><path d="M216.7751,197.85445v-46.56902h9.4352v46.56902z" data-paper-data="{&quot;index&quot;:null}" fill="#0b8100" stroke-linecap="butt"></path><path d="M216.78861,197.91606v-26.97425h9.52162v26.97426z" data-paper-data="{&quot;index&quot;:null}" fill="#740000" stroke-linecap="butt"></path><path d="M216.78861,183.3204v-12.37859h4.36875z" data-paper-data="{&quot;index&quot;:null}" fill="#ffffff" stroke-linecap="butt"></path><path d="M216.72155,178.96044v-8.12923h2.86903z" data-paper-data="{&quot;index&quot;:null}" fill="#ff0000" stroke-linecap="butt"></path><path d="M220.87304,159.97587c0,2.85538 -0.73085,5.17013 -1.63239,5.17013c-0.90154,0 -1.63239,-2.31474 -1.63239,-5.17013c0,-0.82396 0.06086,-1.6029 0.16912,-2.29421c0.2669,-1.70433 0.82188,-2.87592 1.46327,-2.87592c0.90154,0 1.63239,2.31474 1.63239,5.17013z" data-paper-data="{&quot;index&quot;:null}" fill="#000000" stroke-linecap="butt"></path><path d="M216.12055,155.30848l1.91572,-14.43597l10.94426,1.45235l-1.91573,14.43597z" data-paper-data="{&quot;index&quot;:null}" fill="#ababab" stroke-linecap="butt"></path><path d="M226.90891,156.81164c0,0 -0.77257,3.58903 -6.68752,2.86635c-3.80678,-0.46511 -3.153,-4.44561 -3.153,-4.44561" data-paper-data="{&quot;index&quot;:null}" fill="none" stroke-linecap="round"></path></g></g></g></svg>