<svg version="1.1" xmlns="http://www.w3.org/2000/svg" xmlns:xlink="http://www.w3.org/1999/xlink" width="804" height="537" viewBox="0,0,804,537"><g transform="translate(82,88.5)"><g stroke-miterlimit="10"><path d="M-82,448.5v-537h804v537z" fill-opacity="0.42745" fill="#000000" stroke="none" stroke-width="0" stroke-linecap="butt"/><path d="M551.90946,158.44798c0,0 4.19504,25.27377 -1.48928,35.99722c-6.38573,12.04659 -34.96625,32.77584 -34.96625,32.77584l-9.06408,-12.1934c0,0 19.60509,-8.59331 32.87471,-26.76525c8.37312,-11.46646 -2.5422,-22.43034 -2.5422,-22.43034l15.18707,-7.38404z" fill="#7a7a7a" stroke="#000000" stroke-width="2.5" stroke-linecap="butt"/><path d="M527.44051,152.28916c-1.66949,-4.36456 -5.60428,-11.94942 -5.14656,-13.94203c0.80843,-3.51936 5.66768,3.04747 12.08795,-0.62421c3.44965,-1.97281 4.73866,-8.35463 7.70163,-5.93768c1.71586,1.39965 5.58759,10.15598 7.33331,14.71984c4.76027,12.44477 3.69967,23.82803 -2.36891,25.42527c-6.06858,1.59722 -14.84713,-7.19644 -19.6074,-19.64121z" fill="#a3a3a3" stroke="#000000" stroke-width="2.5" stroke-linecap="butt"/><path d="M484.34548,216.10662c2.4924,-9.12117 17.2534,-13.03393 32.96968,-8.73941c15.71626,4.29453 26.43635,15.17009 23.94395,24.29123c-2.4924,9.12117 -17.2534,13.03393 -32.96968,8.73938c-15.71626,-4.29453 -26.43635,-15.17006 -23.94395,-24.29123z" fill="#00ff07" stroke="#000000" stroke-width="2.5" stroke-linecap="butt"/><path d="M447.26334,241.64587c-0.2818,0 -0.51026,-0.82069 -0.51026,-1.83304c0,-1.01238 0.22846,-1.83304 0.51026,-1.83304c0.28178,0 0.51024,0.82069 0.51024,1.83304c0,1.01238 -0.22844,1.83304 -0.51024,1.83304z" fill="#ba0000" stroke="#000000" stroke-width="1.28786" stroke-linecap="butt"/><path d="M451.03057,214.40447c10.95917,-9.18329 25.04397,-10.42152 31.45923,-2.76567c6.41527,7.65588 2.73169,21.30668 -8.22748,30.49002c-10.95917,9.18329 -25.04397,10.42155 -31.45923,2.76569c-6.41527,-7.65585 -2.73169,-21.30668 8.22748,-30.49002z" fill="#00ff07" stroke="#000000" stroke-width="2.5" stroke-linecap="butt"/><path d="M452.27132,188.31811c0,-5.99781 11.73941,-8.04059 14.76203,-12.92508c6.39201,-10.32933 8.5784,-20.90078 22.58086,-20.90078c20.62389,0 37.34286,15.14436 37.34286,33.82588c0,18.68154 -16.71897,33.82588 -37.34286,33.82588c-20.62389,0 -37.34286,-15.14436 -37.34286,-33.82588z" fill="#ffffff" stroke="#000000" stroke-width="2.5" stroke-linecap="butt"/><path d="M506.1266,157.09179c7.26154,2.55566 15.37067,12.62405 18.03757,22.12335c2.93759,10.46343 -0.04255,20.35737 -2.33381,21.53004c-5.83772,2.98782 -10.65531,-7.99898 -22.55427,-15.43316c-24.85289,-15.52745 -32.03795,-5.95821 -28.03265,-17.33868c4.00532,-11.38044 19.62304,-16.25229 34.88316,-10.88155z" fill="#c06fc9" stroke="#000000" stroke-width="2.5" stroke-linecap="butt"/><path d="M506.75065,170.1817l25.40147,-16.55508l-11.19154,28.89886z" fill="#c06fc9" stroke="#000000" stroke-width="2.5" stroke-linecap="butt"/><path d="M474.42548,165.3075l1.09288,-30.97095l16.82977,25.22032z" fill="#c06fc9" stroke="#000000" stroke-width="2.5" stroke-linecap="butt"/><path d="M521.72959,138.86703c-0.96871,-2.36923 2.78947,-6.14753 8.39414,-8.43909c5.60466,-2.29156 10.93341,-2.22861 11.90209,0.14061c0.96871,2.36923 -2.78947,6.14755 -8.39414,8.43911c-5.60466,2.29156 -10.93341,2.22861 -11.90209,-0.14061z" fill="#606060" stroke="#000000" stroke-width="2.5" stroke-linecap="butt"/><path d="M530.90495,132.19521c1.92644,-0.87979 3.9423,-0.59849 4.50257,0.62831c0.56026,1.2268 -0.54723,2.93452 -2.47367,3.81429c-1.92644,0.87979 -3.9423,0.59849 -4.50257,-0.62831c-0.56026,-1.2268 0.54723,-2.93452 2.47367,-3.81429z" fill="#00fff9" stroke="#000000" stroke-width="2.5" stroke-linecap="butt"/><path d="M534.78339,149.40884l-2.52304,-4.66051l12.6115,-6.82746l2.52306,4.66049z" fill="#00fff9" stroke="#000000" stroke-width="2.5" stroke-linecap="butt"/><path d="M541.45426,157.99367l-2.35679,-4.88913l9.61863,-5.43499l2.52304,4.66049z" fill="#00fff9" stroke="#000000" stroke-width="2.5" stroke-linecap="butt"/><path d="M546.33765,165.91342l-1.98266,-3.53825l6.1269,-3.85549l1.96188,4.88911z" fill="#00fff9" stroke="#000000" stroke-width="2.5" stroke-linecap="butt"/><path d="M480.60134,200.23529l4.47755,-21.90858l27.24304,7.29936l-5.95323,21.49289z" fill="#00fff9" stroke="#000000" stroke-width="2.5" stroke-linecap="butt"/><path d="M506.95572,207.62889l6.52568,-22.17013l13.36841,3.16517c0,0 -1.1243,8.27321 -2.69399,11.96995c-1.64151,3.86585 -6.94928,10.74052 -6.94928,10.74052z" fill="#adadad" stroke="#000000" stroke-width="2.5" stroke-linecap="butt"/><path d="M182.16857,348.9183v-125.38367h391.67136v125.38367z" fill="#ffdc5f" stroke="#000000" stroke-width="2.5" stroke-linecap="butt"/><text transform="translate(437.50133,251.25642) scale(0.5,0.5)" font-size="40" xml:space="preserve" fill="#000000" stroke="none" stroke-width="1" stroke-linecap="butt" font-family="Sans Serif" font-weight="normal" text-anchor="start"><tspan x="0" dy="0">NEO Cattail</tspan></text><text transform="translate(197.45635,296.92786) scale(0.86596,0.88542)" font-size="40" xml:space="preserve" fill="#000000" stroke="none" stroke-width="1" stroke-linecap="butt" font-family="Sans Serif" font-weight="normal" text-anchor="start"><tspan x="0" dy="0">W-Wha-</tspan></text><path d="M514.26424,336.72729v-31.49591l33.54755,17.69586z" fill="#bdae78" stroke="#000000" stroke-width="2.5" stroke-linecap="butt"/><path d="M470.63919,187.57148l-2,14.5" fill="none" stroke="#000000" stroke-width="2.5" stroke-linecap="round"/><path d="M486.45586,200.88815v-9.75" fill="none" stroke="#00c8c8" stroke-width="2.5" stroke-linecap="round"/><path d="M465.51136,187.63611l12.93278,-4.74324" fill="none" stroke="#000000" stroke-width="2.5" stroke-linecap="round"/><path d="M492.04454,193.27639l-8.80023,-10.07141" fill="none" stroke="#00c8c8" stroke-width="2.5" stroke-linecap="round"/><path d="M462.97775,203.14544c0,-1.38071 1.11929,-2.5 2.5,-2.5c1.38071,0 2.5,1.11929 2.5,2.5c0,1.38071 -1.11929,2.5 -2.5,2.5c-1.38071,0 -2.5,-1.11929 -2.5,-2.5z" fill="#00fff9" stroke="none" stroke-width="0.5" stroke-linecap="butt"/><path d="M485.54918,203.26448c0,-1.38071 1.11929,-2.5 2.5,-2.5c1.38071,0 2.5,1.11929 2.5,2.5c0,1.38071 -1.11929,2.5 -2.5,2.5c-1.38071,0 -2.5,-1.11929 -2.5,-2.5z" fill="#00afac" stroke="none" stroke-width="0.5" stroke-linecap="butt"/><path d="M473.67057,214.34766l24.33333,-6.66667l0.16667,6.66667l-15.16667,-2" fill="none" stroke="#000000" stroke-width="2.5" stroke-linecap="round"/></g></g></svg>