<svg version="1.1" xmlns="http://www.w3.org/2000/svg" xmlns:xlink="http://www.w3.org/1999/xlink" width="61.42657" height="69.41688" viewBox="0,0,61.42657,69.41688"><g transform="translate(-209.28672,-145.29156)"><g data-paper-data="{&quot;isPaintingLayer&quot;:true}" fill-rule="nonzero" stroke="#000000" stroke-width="1.28786" stroke-linejoin="miter" stroke-miterlimit="10" stroke-dasharray="" stroke-dashoffset="0" style="mix-blend-mode: normal"><path d="M240.92858,187.93549c0,1.9202 -2.00851,6.54153 -5.62011,7.60541c-4.84691,1.42778 -11.6656,-1.03399 -11.6656,-1.03399c0,0 4.14285,-1.21711 4.14285,-5.71429c0,-4.49717 0.72458,-9 5.14286,-9c4.41828,0 8,3.64569 8,8.14286z" fill="#00de46" stroke-linecap="butt"></path><path d="M243.92858,184.36405c4.41828,0 5.14286,4.50283 5.14286,9c0,4.49717 4.14285,5.71428 4.14285,5.71428c0,0 -6.81869,2.46177 -11.6656,1.03399c-3.6116,-1.06389 -5.62011,-5.68522 -5.62011,-7.60541c0,-4.49717 3.58172,-8.14286 8,-8.14286z" data-paper-data="{&quot;index&quot;:null}" fill="#00de46" stroke-linecap="butt"></path><path d="M236.67782,209.99005v-24.5343h6.9495v24.5343z" fill="#00ff50" stroke-linecap="butt"></path><path d="M230.66574,214.06451c-4.83214,0 -8.74936,-2.04803 -8.74936,-4.5744c0,-2.52637 3.91722,-4.5744 8.74936,-4.5744c4.83214,0 8.74936,2.04803 8.74936,4.5744c0,2.52637 -3.91722,4.5744 -8.74936,4.5744z" fill="#00ff50" stroke-linecap="butt"></path><path d="M259.57612,209.09641c0,2.60575 -4.27537,4.71814 -9.5493,4.71814c-5.27393,0 -9.5493,-2.11239 -9.5493,-4.71814c0,-2.60575 4.27537,-4.71813 9.5493,-4.71813c5.27393,0 9.5493,2.11238 9.5493,4.71813z" fill="#00ff50" stroke-linecap="butt"></path><path d="M259.35715,173.93549c4.41828,0 5.14285,4.50283 5.14285,9c0,4.49717 4.14286,5.71429 4.14286,5.71429c0,0 -6.81869,2.46177 -11.6656,1.03399c-3.6116,-1.06389 -5.62011,-5.68522 -5.62011,-7.60542c0,-4.49717 3.58172,-8.14285 8,-8.14285z" data-paper-data="{&quot;index&quot;:null}" fill="#00de46" stroke-linecap="butt"></path><path d="M253.64286,180.36406c4.41828,0 5.14286,4.50283 5.14286,9c0,4.49717 4.14285,5.71428 4.14285,5.71428c0,0 -6.81869,2.46177 -11.6656,1.03399c-3.6116,-1.06389 -5.62011,-5.68522 -5.62011,-7.60541c0,-4.49717 3.58172,-8.14286 8,-8.14286z" data-paper-data="{&quot;index&quot;:null}" fill="#00de46" stroke-linecap="butt"></path><path d="M228.64286,178.2212c0,1.9202 -2.00851,6.54153 -5.62011,7.60541c-4.84691,1.42778 -11.6656,-1.03399 -11.6656,-1.03399c0,0 4.14286,-1.21711 4.14286,-5.71429c0,-4.49717 0.72457,-9 5.14285,-9c4.41828,0 8,3.64568 8,8.14286z" fill="#00de46" stroke-linecap="butt"></path><path d="M234.35715,184.64977c0,1.9202 -2.00851,6.54153 -5.62011,7.60541c-4.84691,1.42778 -11.66561,-1.03399 -11.66561,-1.03399c0,0 4.14286,-1.21711 4.14286,-5.71429c0,-4.49717 0.72458,-9 5.14286,-9c4.41828,0 8,3.64569 8,8.14286z" fill="#00de46" stroke-linecap="butt"></path><path d="M259.95714,168.9212c0,11.21138 -8.28273,20.3 -18.5,20.3c-10.21727,0 -18.5,-9.08862 -18.5,-20.3c0,-11.21138 8.28273,-20.3 18.5,-20.3c10.21727,0 18.5,9.08862 18.5,20.3z" fill="#00ff50" stroke-linecap="butt"></path><path d="M240.64286,166.29263c0,5.3256 -1.69493,9.64285 -3.78572,9.64285c-2.09079,0 -3.78572,-4.31725 -3.78572,-9.64285c0,-5.3256 1.69493,-9.64286 3.78572,-9.64286c2.09079,0 3.78572,4.31726 3.78572,9.64286z" fill="#000000" stroke-linecap="butt"></path><path d="M250.64286,167.00691c0,5.3256 -1.69493,9.64285 -3.78572,9.64285c-2.09079,0 -3.78572,-4.31725 -3.78572,-9.64285c0,-5.3256 1.69493,-9.64286 3.78572,-9.64286c2.09079,0 3.78572,4.31725 3.78572,9.64286z" fill="#000000" stroke-linecap="butt"></path><path d="M227.92857,183.50691v-4.71429c0,0 6.12285,7.91829 13.14285,7c9.76882,-0.14165 13,-7 13,-7v4.71429c0,0 -2.98123,6.8029 -13,6c-9.88056,-0.79183 -13.14285,-6 -13.14285,-6z" fill="#00377a" stroke-linecap="butt"></path><path d="M255.64286,157.86406c0,2.61195 1.14633,2.27205 -0.0954,3.28838c-3.87816,3.17418 -14.79222,2.06876 -23.54745,2.06876c-3.33373,0 -3.28274,19.69604 -3.28274,19.69604c0,0 -4.22609,0.46784 -7.39277,-3.47092c-2.59999,-3.2339 -4.25305,-10.55569 -4.25305,-14.01083c0,-10.76955 9.37004,-19.5 20.92857,-19.5c11.55853,0 17.64285,1.15902 17.64285,11.92857z" fill="#004dae" stroke-linecap="butt"></path><path d="M266.75714,172.87834c0,8.28427 -4.43238,15 -9.9,15c-5.46762,0 -9.9,-6.71573 -9.9,-15c0,-8.28427 4.43238,-15 9.9,-15c5.46762,0 9.9,6.71573 9.9,15z" fill="#00ff50" stroke-linecap="butt"></path><path d="M261.75714,173.3212c0,5.46762 -1.74609,9.9 -3.9,9.9c-2.15391,0 -3.9,-4.43238 -3.9,-9.9c0,-5.46762 1.74609,-9.9 3.9,-9.9c2.15391,0 3.9,4.43238 3.9,9.9z" fill="#000000" stroke-linecap="butt"></path><path d="M249.64287,150.2212l-8.71429,5.71428l-10.57143,-4" fill="none" stroke-linecap="round"></path><path d="M250.92858,155.36405l-9.28571,4.71429l-9.28572,-3.28571" fill="none" stroke-linecap="round"></path></g></g></svg>