<svg version="1.1" xmlns="http://www.w3.org/2000/svg" xmlns:xlink="http://www.w3.org/1999/xlink" width="60.27445" height="70.59978" viewBox="0,0,60.27445,70.59978"><defs><linearGradient x1="221.03594" y1="167.10594" x2="221.03594" y2="209.92762" gradientUnits="userSpaceOnUse" id="color-1"><stop offset="0" stop-color="#f475ff"></stop><stop offset="1" stop-color="#be5cc7"></stop></linearGradient><linearGradient x1="242.29508" y1="149.32065" x2="242.29508" y2="195.88852" gradientUnits="userSpaceOnUse" id="color-2"><stop offset="0" stop-color="#f475ff"></stop><stop offset="1" stop-color="#be5cc7"></stop></linearGradient></defs><g transform="translate(-209.79554,-144.70011)"><g data-paper-data="{&quot;isPaintingLayer&quot;:true}" fill-rule="nonzero" stroke="#000000" stroke-width="1.28786" stroke-linejoin="miter" stroke-miterlimit="10" stroke-dasharray="" stroke-dashoffset="0" style="mix-blend-mode: normal"><g><path d="M222.55673,209.92762c0,0 -9.4352,-17.02424 -10.40568,-24.92674c-0.61883,-5.03903 5.14687,-17.89495 5.14687,-17.89495l5.18827,5.62392c0,0 -4.13948,10.79858 -2.41728,15.85085c2.02704,5.94654 9.89841,18.70358 9.89841,18.70358z" fill="url(#color-1)" stroke-linecap="butt"></path><path d="" fill="none" stroke-linecap="butt"></path><path d="" fill="#00a735" stroke-linecap="butt"></path><path d="" fill="#ccf280" stroke-linecap="butt"></path><path d="" fill="#000000" stroke-linecap="butt"></path><path d="" fill="#000000" stroke-linecap="butt"></path><path d="" fill="#000000" stroke-linecap="round"></path><path d="M223.94093,209.29964c-2.54368,1.76416 -11.3983,0.14248 -11.3983,0.14248c0,0 1.43703,-4.36393 4.25526,-6.15662c1.19158,-0.75797 3.33212,-0.00319 4.57842,0.03003c4.19395,0.11183 5.1083,4.21994 2.56462,5.98411z" data-paper-data="{&quot;index&quot;:null}" fill="#78ff69" stroke-linecap="round"></path><path d="M232.73261,202.31937c1.2463,-0.03324 3.38685,-0.788 4.57843,-0.03003c2.81823,1.79269 4.25525,6.15661 4.25525,6.15661c0,0 -8.85462,1.62168 -11.39829,-0.14248c-2.54368,-1.76416 -1.62934,-5.87228 2.56461,-5.98411z" data-paper-data="{&quot;index&quot;:null}" fill="#78ff69" stroke-linecap="round"></path><path d="M221.97669,166.7458c0.65531,2.12317 -3.43701,4.53919 -3.43701,4.53919c0,0 -3.00733,-0.75281 -3.40502,-4.94434c-0.40845,-4.30493 0.2005,-8.00385 0.2005,-8.00385c0,0 5.12513,3.49589 6.64153,8.409z" data-paper-data="{&quot;index&quot;:null}" fill="#78ff69" stroke-linecap="round"></path><path d="M220.36512,168.07501c2.21665,-0.15418 3.63642,4.38106 3.63642,4.38106c0,0 -2.22713,4.80661 -6.39899,4.23857c-4.28474,-0.58341 -6.93876,-4.0693 -6.93876,-4.0693c0,0 4.57192,-4.19355 9.70133,-4.55032z" data-paper-data="{&quot;index&quot;:null}" fill="#78ff69" stroke-linecap="round"></path><path d="M219.83789,183.88656c0,0 -2.82485,-3.34896 -2.46192,-7.65797c0.35337,-4.1955 5.52941,-5.32335 5.52941,-5.32335c0,0 4.11763,2.37262 3.48479,4.5026c-1.46437,4.92886 -6.55228,8.47872 -6.55228,8.47872z" data-paper-data="{&quot;index&quot;:null}" fill="#78ff69" stroke-linecap="round"></path><path d="M226.41509,163.79247c0.65531,2.12317 -3.43701,4.53919 -3.43701,4.53919c0,0 -3.00733,-0.75281 -3.40502,-4.94434c-0.40845,-4.30493 0.20049,-8.00384 0.20049,-8.00384c0,0 5.12513,3.49589 6.64153,8.409z" data-paper-data="{&quot;index&quot;:null}" fill="#78ff69" stroke-linecap="round"></path><path d="M264.10775,179.56591c0,7.77285 -6.21755,13.72028 -17.63073,13.72028c-11.41317,0 -20.66538,-6.30115 -20.66538,-14.074c0,-7.77285 9.25221,-14.07399 20.66538,-14.07399c11.41318,0 17.63073,6.65486 17.63073,14.42771z" fill="#6f3574" stroke-linecap="butt"></path><path d="M264.75137,171.95085l-3.37179,9.13724l-2.25731,-5.42532z" fill="#ffffff" stroke-linecap="round"></path><path d="M267.42178,168.51685l-0.86641,7.85285l-2.45715,-5.03832z" fill="#ffffff" stroke-linecap="round"></path><path d="M259.50234,188.1979l-0.86597,-6.7696l6.12921,7.41317z" data-paper-data="{&quot;index&quot;:null}" fill="#ffffff" stroke-linecap="round"></path><path d="M254.55341,188.32069l1.41003,-5.42532l2.40536,7.52545z" data-paper-data="{&quot;index&quot;:null}" fill="#ffffff" stroke-linecap="round"></path><path d="M241.93778,190.13521l7.49406,-9.06394l-1.05881,8.27705z" data-paper-data="{&quot;index&quot;:null}" fill="#ffffff" stroke-linecap="round"></path><path d="M231.31763,186.85501l7.49406,-9.06393l-1.05881,8.27704z" data-paper-data="{&quot;index&quot;:null}" fill="#ffffff" stroke-linecap="round"></path><path d="M238.07878,189.79914l7.49406,-9.06393l-1.05881,8.27705z" data-paper-data="{&quot;index&quot;:null}" fill="#ffffff" stroke-linecap="round"></path><path d="M248.47707,172.67297l-7.49406,9.06394l1.05881,-8.27704z" data-paper-data="{&quot;index&quot;:null}" fill="#ffffff" stroke-linecap="round"></path><path d="M257.58735,174.44168l-5.0753,7.52545l-2.97518,-5.42532z" fill="#ffffff" stroke-linecap="round"></path><path d="M241.96331,170.57439l-7.49406,9.06393l1.05881,-8.27704z" data-paper-data="{&quot;index&quot;:null}" fill="#ffffff" stroke-linecap="round"></path><path d="M261.36564,188.86465l3.30048,-9.03489l1.44534,6.66996z" data-paper-data="{&quot;index&quot;:null}" fill="#ffffff" stroke-linecap="round"></path><path d="M235.1914,146.26621c0,0 3.10809,1.461 4.12748,2.86114c1.19736,1.64457 2.60902,6.39149 2.60902,6.39149c0,0 -2.8901,1.07556 -3.96493,1.04237c-0.98734,-0.03049 -2.24388,-1.23411 -2.24388,-1.23411c0,0 0.58389,-2.502 0.49958,-3.94975c-0.09107,-1.56361 -1.02729,-5.11114 -1.02729,-5.11114z" fill="#f7fff3" stroke-linecap="round"></path><path d="M230.41444,149.05029c0,0 3.10809,1.461 4.12748,2.86114c1.19736,1.64456 2.60902,6.39148 2.60902,6.39148c0,0 -2.8901,1.07556 -3.96493,1.04237c-0.98734,-0.03049 -2.24388,-1.23411 -2.24388,-1.23411c0,0 0.58389,-2.50201 0.49958,-3.94976c-0.09107,-1.56361 -1.02729,-5.11113 -1.02729,-5.11113z" fill="#f7fff3" stroke-linecap="round"></path><path d="M220.01213,169.206c1.84713,-12.69414 13.63517,-21.48739 26.32931,-19.64026c8.289,1.20614 15.14866,8.09962 18.39708,16.27302c0.97446,2.45185 -6.5686,6.67136 -17.44009,6.07058c-8.38842,-0.46356 -20.67048,-5.56733 -20.67048,-5.56733c0,0 -1.23751,6.02885 0.7395,12.04131c1.17469,3.57248 4.16361,7.02594 7.35997,9.51569c7.6772,5.98003 24.65946,3.75738 22.31577,5.03143c-4.88437,2.65517 -11.0936,3.52118 -17.3908,2.60487c-12.69414,-1.84713 -21.48739,-13.63516 -19.64026,-26.32931z" fill="url(#color-2)" stroke-linecap="butt"></path><path d="M251.76548,148.47094c0,0 3.04932,3.20872 3.6186,5.36719c0.66865,2.53529 0.14333,8.89675 0.14333,8.89675c0,0 -3.9742,-0.06032 -5.24955,-0.60302c-1.17152,-0.49852 -2.11755,-2.53192 -2.11755,-2.53192c0,0 1.87178,-2.73175 2.44781,-4.50994c0.62214,-1.92051 1.15736,-6.61907 1.15736,-6.61907z" fill="#f7fff3" stroke-linecap="round"></path><path d="M241.94321,145.34404c0,0 3.10809,1.461 4.12747,2.86114c1.19736,1.64457 2.60903,6.39149 2.60903,6.39149c0,0 -2.89011,1.07556 -3.96494,1.04237c-0.98734,-0.03049 -2.24388,-1.23411 -2.24388,-1.23411c0,0 0.58389,-2.50201 0.49958,-3.94976c-0.09106,-1.56361 -1.02728,-5.11113 -1.02728,-5.11113z" fill="#f7fff3" stroke-linecap="round"></path><path d="M229.37641,213.56973c-3.35809,2.329 -15.04769,0.18809 -15.04769,0.18809c0,0 1.89713,-5.76113 5.61766,-8.12778c1.57308,-1.00064 4.39897,-0.00423 6.0443,0.03965c5.53673,0.14764 6.74382,5.57103 3.38573,7.90003z" fill="#78ff69" stroke-linecap="round"></path><path d="M233.53887,204.10863c1.3872,-0.03699 3.76972,-0.87708 5.09601,-0.03343c3.13682,1.99534 4.73631,6.85261 4.73631,6.85261c0,0 -9.85562,1.80501 -12.68687,-0.15859c-2.83124,-1.9636 -1.81353,-6.53612 2.85455,-6.6606z" data-paper-data="{&quot;index&quot;:null}" fill="#78ff69" stroke-linecap="round"></path><path d="M264.0859,162.70339c5.63105,-1.04584 4.55028,3.5002 4.55028,3.5002c0,0 -0.15262,2.55469 -2.26447,4.38756c-3.07585,2.66954 -8.93414,4.98536 -13.13645,5.41303c-7.08758,0.7213 -24.15143,-5.77535 -24.15143,-5.77535c0,0 2.30701,10.47668 7.52545,14.00083c5.21843,3.52414 12.10123,4.8807 19.42614,4.20025c7.32492,-0.68046 11.7257,-6.47539 11.7257,-6.47539l1.57509,5.42532c0,0 -6.40368,5.51366 -11.37567,5.77534c-4.972,0.26168 -16.97578,-0.32146 -24.85146,-6.30038c-7.87568,-5.97892 -7.85271,-21.58066 -6.4457,-21.63422c5.58596,-0.21264 3.16315,1.85833 6.18517,3.17691c5.30807,2.31603 15.9539,4.2345 19.84006,3.96719c3.11006,-0.21392 7.87763,-1.71918 10.9147,-4.55308c1.08038,-1.00811 -1.26836,-4.78304 0.48259,-5.10824z" fill="#78ff69" stroke-linecap="round"></path></g></g></g></svg>