<svg version="1.1" xmlns="http://www.w3.org/2000/svg" xmlns:xlink="http://www.w3.org/1999/xlink" width="64.75469" height="88.41618" viewBox="0,0,64.75469,88.41618"><defs><linearGradient x1="319.99999" y1="138.29152" x2="319.99999" y2="223.10546" gradientUnits="userSpaceOnUse" id="color-1"><stop offset="0" stop-color="#555555"/><stop offset="1" stop-color="#00ff94"/></linearGradient><linearGradient x1="319.59164" y1="210.49303" x2="319.59164" y2="223.30697" gradientUnits="userSpaceOnUse" id="color-2"><stop offset="0" stop-color="#7c7c7c"/><stop offset="1" stop-color="#7a7a7a"/></linearGradient><linearGradient x1="292.4166" y1="138.46298" x2="292.4166" y2="223.27698" gradientUnits="userSpaceOnUse" id="color-3"><stop offset="0" stop-color="#969696"/><stop offset="1" stop-color="#7a7a7a"/></linearGradient><linearGradient x1="347.75416" y1="138.2989" x2="347.75416" y2="223.1129" gradientUnits="userSpaceOnUse" id="color-4"><stop offset="0" stop-color="#969696"/><stop offset="1" stop-color="#7a7a7a"/></linearGradient><linearGradient x1="306.45662" y1="191.39848" x2="306.45662" y2="212.40036" gradientUnits="userSpaceOnUse" id="color-5"><stop offset="0" stop-color="#858585"/><stop offset="1" stop-color="#818181"/></linearGradient><linearGradient x1="325.03235" y1="203.98552" x2="325.03235" y2="216.14392" gradientUnits="userSpaceOnUse" id="color-6"><stop offset="0" stop-color="#808080"/><stop offset="1" stop-color="#7d7d7d"/></linearGradient></defs><g transform="translate(-287.15142,-138.25379)"><g stroke-miterlimit="10"><path d="M351.4477,138.29152v84.81396h-62.89539v-84.81396z" fill="url(#color-1)" stroke="none" stroke-width="0"/><g stroke="#000000" stroke-width="1.28786"><path d="M314.44879,212.32548v-18.97812h10.68516v18.97812z" fill="#7a5654"/><path d="M321.62538,194.43593l-0.63792,-24.40043l14.83164,-7.49556l-4.46543,24.08148z" fill="#ffd206"/><path d="M308.12571,187.31545l-5.58179,-21.68928l15.31007,4.94388l0.7974,24.08147z" fill="#ffd206"/><path d="M318.11683,196.03073v-26.95211h3.1896v26.95211z" fill="#7a5654"/><path d="M306.02475,188.99113l-7.02949,-25.36585l2.02883,0.53194l7.50794,24.88741z" fill="#7a5654"/><path d="M331.15718,188.51453l5.06223,-25.49757l2.14113,0.1343l-5.3812,25.17861z" fill="#7a5654"/><path d="M318.91422,172.10874l-19.93499,-7.65504l19.45655,-11.1636l20.57291,10.04724z" fill="#7a5654"/><path d="M320.62073,197.51051l-1.58929,-2.94796l13.91758,-8.83024l1.74876,2.46953z" fill="#7a5654"/><path d="M300.6524,164.87999c0,2.37812 -2.64421,1.5948 -6.29946,1.5948c-3.65525,0 -4.0317,0.98243 -4.0317,0.98243c0,0 0.0575,-6.88319 3.71275,-6.88319c3.65525,0 6.61842,1.92784 6.61842,4.30596z" fill="#60af6e"/><path d="M326.93514,180.6886c0,2.33408 -0.92822,4.22622 -2.07324,4.22622c-1.14502,0 -2.07324,-1.89214 -2.07324,-4.22622c0,-2.33408 0.92822,-4.22621 2.07324,-4.22621c1.14502,0 2.07324,1.89214 2.07324,4.22621z" fill="#fe942e"/><path d="M332.99537,177.499c0,2.246 -0.82112,4.06674 -1.83402,4.06674c-1.0129,0 -1.83401,-1.82074 -1.83401,-4.06674c0,-2.246 0.82111,-4.06673 1.83401,-4.06673c1.0129,0 1.83402,1.82073 1.83402,4.06673z" fill="#fe942e"/><path d="M302.25973,163.11581c1.45185,1.8835 -1.1206,2.87741 -4.0156,5.10897c-2.895,2.23155 -3.31563,4.97213 -3.31563,4.97213c0,0 -3.43445,-7.21931 -0.53945,-9.45087c2.895,-2.23155 6.41882,-2.51372 7.87068,-0.63022z" fill="#60af6e"/><path d="M303.4315,164.26188c-1.67679,1.68636 -2.99954,-0.73351 -5.59154,-3.3108c-2.592,-2.57728 -5.36406,-2.63481 -5.36406,-2.63481c0,0 6.70645,-4.3517 9.29845,-1.77442c2.592,2.57728 3.33394,6.03366 1.65715,7.72002z" fill="#60af6e"/><path d="M345.96603,160.00094c3.65525,0 3.24707,5.71902 3.24707,5.71902c0,0 0.08922,0.18174 -3.56603,0.18174c-3.65525,0 -6.29946,0.78332 -6.29946,-1.5948c0,-2.37812 2.96317,-4.30596 6.61842,-4.30596z" fill="#60af6e"/><path d="M345.61096,163.17294c2.895,2.23156 -0.53945,9.45086 -0.53945,9.45086c0,0 -0.42063,-2.74057 -3.31563,-4.97212c-2.895,-2.23156 -5.46746,-3.22547 -4.0156,-5.10897c1.45186,-1.8835 4.97568,-1.60133 7.87068,0.63022z" fill="#60af6e"/><path d="M338.22565,155.96877c2.592,-2.57728 9.29846,1.77442 9.29846,1.77442c0,0 -2.77207,0.05752 -5.36407,2.63481c-2.592,2.57728 -3.91474,4.99716 -5.59153,3.3108c-1.67679,-1.68636 -0.93486,-5.14274 1.65714,-7.72002z" fill="#60af6e"/><g fill="#60af6e"><path d="M319.31177,172.2586c1.14563,2.08398 -1.54887,2.67137 -4.75202,4.43225c-3.20315,1.76089 -4.03934,4.40444 -4.03934,4.40444c0,0 -2.28595,-7.66082 0.9172,-9.42171c3.20315,-1.76089 6.72853,-1.49896 7.87417,0.58501z"/><path d="M319.87042,169.93831c2.17963,0.95111 0.40417,3.06135 -1.05773,6.41153c-1.46189,3.35018 -0.51026,5.95442 -0.51026,5.95442c0,0 -6.48748,-4.67187 -5.02559,-8.02205c1.46189,-3.35018 4.41395,-5.29501 6.59358,-4.3439z"/><path d="M321.44936,170.37814c-0.657,2.28556 -2.98189,0.80221 -6.49488,-0.20762c-3.51299,-1.00984 -5.9699,0.27517 -5.9699,0.27517c0,0 3.78056,-7.04423 7.29355,-6.03439c3.51299,1.00984 5.82823,3.68128 5.17123,5.96684z"/></g><path d="M324.05787,154.63119c0,2.55614 -2.17938,4.6283 -4.86777,4.6283c-2.68839,0 -4.86777,-2.07216 -4.86777,-4.6283c0,-2.55614 2.17938,-4.62831 4.86777,-4.62831c2.68839,0 4.86777,2.07217 4.86777,4.62831z" fill="#7a5654"/><path d="M303.02732,188.46468l1.58929,-2.94797l15.45296,8.70411l0.22441,3.55253z" fill="#7a5654"/></g><path d="M288.14394,223.30697v-12.81396h62.89539v12.81396z" fill="url(#color-2)" stroke="none" stroke-width="0"/><path d="M288.0939,223.27698v-84.81396h8.64539v84.81396z" fill="url(#color-3)" stroke="none" stroke-width="0"/><path d="M343.68148,223.1129v-84.81396h8.14539v84.81396z" fill="url(#color-4)" stroke="none" stroke-width="0"/><path d="M288.14394,148.56775v-10.31396h62.89539v10.31396z" fill="#969696" stroke="none" stroke-width="0"/><path d="M295.88896,212.40036v-21.00188l21.13534,21.00188z" fill="url(#color-5)" stroke="none" stroke-width="0"/><path d="M303.00343,216.14392v-12.15842h44.05785v12.15842z" fill="url(#color-6)" stroke="none" stroke-width="0"/><text transform="translate(325.91943,220.41997) scale(0.47116,0.5)" font-size="40" xml:space="preserve" fill="#000000" stroke="none" stroke-width="1" font-family="Sans Serif" font-weight="normal" text-anchor="start"><tspan x="0" dy="0">25</tspan></text><g><path d="M303.52762,214.61339l-2.65375,6.84999l-2.38631,-6.84999z" fill="#ffff00" stroke="#ffff00" stroke-width="1"/><path d="M298.55937,203.23758l2.38632,-6.84999l2.65375,6.84999z" fill="#ffff00" stroke="#ffff00" stroke-width="1"/><path d="M294.37596,209.13675c0,-3.72115 3.01658,-6.73773 6.73773,-6.73773c3.72115,0 6.73772,3.01658 6.73772,6.73773c0,3.72115 -3.01658,6.73772 -6.73772,6.73772c-3.72115,0 -6.73773,-3.01658 -6.73773,-6.73772z" fill="#ffff00" stroke="none" stroke-width="0"/><path d="M306.80397,206.60165l6.87114,2.59848l-6.83054,2.44142z" fill="#ffff00" stroke="#ffff00" stroke-width="1"/><path d="M295.46853,211.66138l-6.86899,-2.33105l6.82838,-2.70885z" fill="#ffff00" stroke="#ffff00" stroke-width="1"/><path d="M307.11956,211.24814l3.04475,6.68537l-6.56714,-3.08051z" fill="#ffff00" stroke="#ffff00" stroke-width="1"/><path d="M295.51088,206.85137l-3.23165,-6.49409l6.75404,2.88922z" fill="#ffff00" stroke="#ffff00" stroke-width="1"/><path d="M303.67899,203.30554l6.66063,-3.0985l-3.02751,6.59174z" fill="#ffff00" stroke="#ffff00" stroke-width="1"/><path d="M299.37584,214.94925l-6.46785,3.28387l2.83472,-6.7771z" fill="#ffff00" stroke="#ffff00" stroke-width="1"/><path d="M296.39221,209.33733c0,-2.70702 2.19448,-4.90151 4.9015,-4.90151c2.70702,0 4.90151,2.19448 4.90151,4.90151c0,2.70702 -2.19448,4.9015 -4.90151,4.9015c-2.70702,0 -4.9015,-2.19448 -4.9015,-4.9015z" fill="#fffff7" stroke="none" stroke-width="0"/></g><path d="M351.9061,138.35884v33.64619l-33.86,-33.64619z" fill="#ffe000" stroke="none" stroke-width="0"/></g></g></svg>