<svg version="1.1" xmlns="http://www.w3.org/2000/svg" xmlns:xlink="http://www.w3.org/1999/xlink" width="201.14319" height="79.19414" viewBox="0,0,201.14319,79.19414"><g transform="translate(-138.99493,-149.32053)"><g data-paper-data="{&quot;isPaintingLayer&quot;:true}" fill="#d0ffb1" fill-rule="nonzero" stroke="none" stroke-width="0" stroke-linecap="butt" stroke-linejoin="miter" stroke-miterlimit="10" stroke-dasharray="" stroke-dashoffset="0" style="mix-blend-mode: normal"><g><path d="M144.37227,170.34147v-19.32247h8.75537v19.32247z"></path><path d="M158.3174,165.018h-19.32247v-8.75537h19.32247z"></path></g><g><path d="M171.85414,181.9004v-15.38277h6.97021v15.38277z"></path><path d="M182.95597,177.66234h-15.38276v-6.97021h15.38276z"></path></g><g><path d="M197.80345,175.16216v-25.84163h11.70931v25.84163z"></path><path d="M216.45349,168.04262h-25.84162v-11.70931h25.84162z"></path></g><g><path d="M160.86663,209.15838v-21.60217h9.78833v21.60217z"></path><path d="M176.45704,203.20684h-21.60217v-9.78834h21.60217z"></path></g><g><path d="M194.26357,207.81922v-13.26279h6.00961v13.26279z"></path><path d="M203.8354,204.16523h-13.26278v-6.00961h13.26278z"></path></g><g data-paper-data="{&quot;index&quot;:null}"><path d="M213.95682,207.49373v19.32247h-8.75536v-19.32247z"></path><path d="M219.14661,221.57257h-19.32247v-8.75537h19.32247z"></path></g><g data-paper-data="{&quot;index&quot;:null}"><path d="M239.65354,195.93481v15.38277h-6.97021v-15.38277z"></path><path d="M243.78516,207.14307h-15.38276v-6.97021h15.38276z"></path></g><g data-paper-data="{&quot;index&quot;:null}"><path d="M270.34196,202.67305v25.84162h-11.70931v-25.84162z"></path><path d="M277.2827,221.5019h-25.84162v-11.70931h25.84162z"></path></g><g data-paper-data="{&quot;index&quot;:null}"><path d="M231.48417,168.67683v21.60217h-9.78834v-21.60217z"></path><path d="M237.28623,184.4167h-21.60217v-9.78833h21.60217z"></path></g><g data-paper-data="{&quot;index&quot;:null}"><path d="M261.10238,170.01599v13.26279h-6.00961v-13.26279z"></path><path d="M264.66461,179.67958h-13.26279v-6.00961h13.26279z"></path></g><g data-paper-data="{&quot;index&quot;:null}"><path d="M326.00543,174.2916v-19.32247h8.75536v19.32247z"></path><path d="M320.81566,160.21277h19.32247v8.75537h-19.32247z"></path></g><g data-paper-data="{&quot;index&quot;:null}"><path d="M300.3087,185.85053v-15.38277h6.97021v15.38277z"></path><path d="M296.17708,174.64226h15.38276v6.97021h-15.38276z"></path></g><g data-paper-data="{&quot;index&quot;:null}"><path d="M269.6203,179.11229v-25.84163h11.70931v25.84163z"></path><path d="M262.67956,160.28344h25.84162v11.70931h-25.84162z"></path></g><g data-paper-data="{&quot;index&quot;:null}"><path d="M308.4781,213.10851v-21.60217h9.78833v21.60217z"></path><path d="M302.67602,197.36863h21.60217v9.78834h-21.60217z"></path></g><g data-paper-data="{&quot;index&quot;:null}"><path d="M278.85987,211.76935v-13.26279h6.00961v13.26279z"></path><path d="M275.29765,202.10575h13.26278v6.00961h-13.26278z"></path></g></g></g></svg>