<svg version="1.1" xmlns="http://www.w3.org/2000/svg" xmlns:xlink="http://www.w3.org/1999/xlink" width="116.93133" height="88.80982" viewBox="0,0,116.93133,88.80982"><g transform="translate(-207.0835,-135.72009)"><g data-paper-data="{&quot;isPaintingLayer&quot;:true}" fill-rule="nonzero" stroke-linejoin="miter" stroke-miterlimit="10" stroke-dasharray="" stroke-dashoffset="0" style="mix-blend-mode: normal"><text transform="translate(277.24295,188.00196) scale(0.66683,0.66683)" font-size="40" xml:space="preserve" fill="#000000" fill-rule="nonzero" stroke="none" stroke-width="1" stroke-linecap="butt" stroke-linejoin="miter" stroke-miterlimit="10" stroke-dasharray="" stroke-dashoffset="0" font-family="Sans Serif" font-weight="normal" text-anchor="start" style="mix-blend-mode: normal"><tspan x="0" dy="0">+15</tspan></text><path d="M208.076,220.72569v-84.81396h62.89539v84.81396z" fill="#515151" stroke="none" stroke-width="0" stroke-linecap="butt"></path><g stroke="#000000" stroke-width="1.28786"><path d="M259.00994,174.45875l5.05056,-3.68611l-0.56329,7.46093l4.35903,-1.13927l-5.29198,6.88365l3.69315,-0.29385l-10.90573,4.60965l-3.20485,-3.1479z" fill="#94c6c6" stroke-linecap="round"></path><path d="M244.41344,173.10709l4.24597,-6.4487l5.54726,6.07211l-4.67507,3.18585z" fill="#bdffff" stroke-linecap="round"></path><path d="M225.30955,195.64915l-5.28494,1.53925l-11.24733,-5.06346l5.62081,-3.07039l-1.71417,-5.8855l8.71101,3.06586l-5.79561,-10.95123l11.26835,2.45131l1.79821,-4.56307l3.0914,3.00865c0,0 -0.65197,12.24547 -1.78347,15.66194c-0.54064,1.63244 -4.66426,3.80666 -4.66426,3.80666z" fill="#009c9c" stroke-linecap="round"></path><path d="M226.60173,191.58551l-11.2275,-4.54802l7.00149,-1.90891l0.08167,-4.19342l6.46505,0.72305l6.0407,-15.05008l8.83578,3.94161l5.1123,5.02607l9.69303,-13.2472l-0.05492,12.78551l2.6273,-0.3743l-7.94614,12.08693c0,0 -7.59397,5.37198 -11.6564,6.55517c-4.14363,1.20684 -12.9666,0.61634 -12.9666,0.61634z" fill="#13ffff" stroke-linecap="round"></path><path d="M235.60622,186.37334c0.77598,2.66428 0.64539,5.04535 -0.29167,5.31828c-0.93706,0.27292 -2.32577,-1.66567 -3.10175,-4.32994c-0.77598,-2.66428 -1.58886,-2.70061 -0.65179,-2.97353c0.61708,-0.17972 1.78224,-0.10496 2.76649,0.51462c0.51039,0.32128 1.01375,0.56078 1.27873,1.47057z" fill="#ffffff" stroke-linecap="butt"></path><path d="M227.70483,184.07515l7.16297,1.10614" fill="none" stroke-linecap="round"></path><path d="M242.11384,182.94471c0.48298,-1.02022 1.39799,-1.68863 1.99687,-1.86306c0.90946,-0.26488 0.26283,0.18849 1.01594,2.77425c0.75311,2.58576 0.62637,4.89665 -0.28308,5.16153c-0.90946,0.26488 -2.2572,-1.61656 -3.01031,-4.20231c-0.25717,-0.88298 0.03014,-1.34137 0.28059,-1.87041z" data-paper-data="{&quot;index&quot;:null}" fill="#ffffff" stroke-linecap="butt"></path><path d="M251.20635,184.89338l5.54844,2.94454l-12.13253,6.66086l-20.26658,1.29545l6.53768,-5.82568l2.36957,4.45084l3.72933,-3.30129l3.83773,1.09736l3.84944,-3.33627l5.54964,-0.18304z" fill="#00bfbf" stroke-linecap="round"></path><path d="M246.19209,179.6241l-4.3917,3.71139" fill="none" stroke-linecap="round"></path></g><path d="M208.07602,220.70573v-12.81396h62.89539v12.81396z" fill="#969696" stroke="none" stroke-width="0" stroke-linecap="butt"></path><path d="M208.02598,220.67573v-84.81396h8.64539v84.81396z" fill="#969696" stroke="none" stroke-width="0" stroke-linecap="butt"></path><path d="M263.576,220.72572v-84.81396h8.14539v84.81396z" fill="#969696" stroke="none" stroke-width="0" stroke-linecap="butt"></path><path d="M208.07602,146.22572v-10.31396h62.89539v10.31396z" fill="#969696" stroke="none" stroke-width="0" stroke-linecap="butt"></path><path d="M215.82103,209.79913v-21.00188l21.13534,21.00188z" fill="#969696" stroke="none" stroke-width="0" stroke-linecap="butt"></path><path d="M222.9355,213.5427v-12.15842h44.05785v12.15842z" fill="#969696" stroke="none" stroke-width="0" stroke-linecap="butt"></path><text transform="translate(239.63364,218.27991) scale(0.47116,0.5)" font-size="40" xml:space="preserve" fill="#000000" fill-rule="nonzero" stroke="none" stroke-width="1" stroke-linecap="butt" stroke-linejoin="miter" stroke-miterlimit="10" stroke-dasharray="" stroke-dashoffset="0" font-family="Sans Serif" font-weight="normal" text-anchor="start" style="mix-blend-mode: normal"><tspan x="0" dy="0">175</tspan></text><g stroke-linecap="butt"><path d="M223.45969,212.01218l-2.65375,6.84999l-2.38631,-6.84999z" data-paper-data="{&quot;index&quot;:null}" fill="#ffff00" stroke="#ffff00" stroke-width="1"></path><path d="M218.49144,200.63633l2.38632,-6.84999l2.65375,6.84999z" fill="#ffff00" stroke="#ffff00" stroke-width="1"></path><path d="M214.30804,206.53553c0,-3.72115 3.01658,-6.73773 6.73773,-6.73773c3.72115,0 6.73772,3.01658 6.73772,6.73773c0,3.72115 -3.01658,6.73772 -6.73772,6.73772c-3.72115,0 -6.73773,-3.01658 -6.73773,-6.73772z" fill="#ffff00" stroke="none" stroke-width="0"></path><path d="M226.73605,204.00043l6.87114,2.59848l-6.83054,2.44142z" data-paper-data="{&quot;index&quot;:null}" fill="#ffff00" stroke="#ffff00" stroke-width="1"></path><path d="M215.40061,209.06017l-6.86899,-2.33105l6.82838,-2.70885z" fill="#ffff00" stroke="#ffff00" stroke-width="1"></path><path d="M227.05163,208.64692l3.04475,6.68537l-6.56714,-3.08051z" data-paper-data="{&quot;index&quot;:null}" fill="#ffff00" stroke="#ffff00" stroke-width="1"></path><path d="M215.44295,204.25011l-3.23165,-6.49409l6.75404,2.88922z" fill="#ffff00" stroke="#ffff00" stroke-width="1"></path><path d="M223.61106,200.7043l6.66063,-3.0985l-3.02751,6.59174z" data-paper-data="{&quot;index&quot;:null}" fill="#ffff00" stroke="#ffff00" stroke-width="1"></path><path d="M219.30791,212.34803l-6.46785,3.28387l2.83472,-6.7771z" fill="#ffff00" stroke="#ffff00" stroke-width="1"></path><path d="M216.32428,206.73609c0,-2.70702 2.19448,-4.90151 4.9015,-4.90151c2.70702,0 4.90151,2.19448 4.90151,4.90151c0,2.70702 -2.19448,4.9015 -4.90151,4.9015c-2.70702,0 -4.9015,-2.19448 -4.9015,-4.9015z" fill="#fffff7" stroke="none" stroke-width="0"></path></g><path d="M271.87571,135.72009v33.64619l-33.86,-33.64619z" fill="#3aff00" stroke="none" stroke-width="0" stroke-linecap="butt"></path></g></g></svg>