<svg version="1.1" xmlns="http://www.w3.org/2000/svg" xmlns:xlink="http://www.w3.org/1999/xlink" width="738.19492" height="419.47216" viewBox="0,0,738.19492,419.47216"><g transform="translate(67.07079,5.71467)"><g stroke-miterlimit="10"><path d="M1.82678,333.38646v-244.58921h636.3465v244.58921z" fill="#00980a" stroke="#000000" stroke-width="2.5"/><path d="M-31.72723,334.75092v-228.69782h119.52704v228.69782z" fill="#fff89b" stroke="#000000" stroke-width="2"/><path d="M531.75563,334.91442v-228.69782h126.77692v228.69782z" fill="#fff89b" stroke="#000000" stroke-width="2"/><path d="M67.21921,412.75749v-80.62549h493.324v80.6255z" fill="#aa5b1a" stroke="#000000" stroke-width="2"/><path d="M92.47582,326.27851v-228.20297h433.40324v228.20297z" fill-opacity="0.90196" fill="#3b0000" stroke="#000000" stroke-width="2"/><path d="M-66.07079,105.8211v-80.62549h736.19492v80.6255z" fill="#aa5b1a" stroke="#000000" stroke-width="2"/><path d="M-63.31681,32.08429v-36.79896h732.03736v36.79896z" fill="#aa5b1a" stroke="#000000" stroke-width="2"/><g><path d="M99.19706,20.22786l-2.63083,6.79081l-2.3657,-6.79081z" fill="#ffff00" stroke="#ffff00" stroke-width="1"/><path d="M94.27173,8.95028l2.3657,-6.79081l2.63083,6.79081z" fill="#ffff00" stroke="#ffff00" stroke-width="1"/><path d="M90.12447,14.79853c0,-3.689 2.99052,-6.67952 6.67952,-6.67952c3.689,0 6.67951,2.99052 6.67951,6.67952c0,3.689 -2.99051,6.67951 -6.67951,6.67951c-3.689,0 -6.67952,-2.99051 -6.67952,-6.67951z" fill="#ffff00" stroke="none" stroke-width="0"/><path d="M102.44511,12.28533l6.81177,2.57604l-6.77153,2.42033z" fill="#ffff00" stroke="#ffff00" stroke-width="1"/><path d="M91.20761,17.30136l-6.80965,-2.31092l6.76939,-2.68544z" fill="#ffff00" stroke="#ffff00" stroke-width="1"/><path d="M102.75797,16.89167l3.01845,6.62761l-6.51041,-3.0539z" fill="#ffff00" stroke="#ffff00" stroke-width="1"/><path d="M91.24958,12.53285l-3.20373,-6.43799l6.69569,2.86425z" fill="#ffff00" stroke="#ffff00" stroke-width="1"/><path d="M99.34711,9.01768l6.60308,-3.07173l-3.00136,6.53479z" fill="#ffff00" stroke="#ffff00" stroke-width="1"/><path d="M95.08114,20.5608l-6.41197,3.2555l2.81022,-6.71855z" fill="#ffff00" stroke="#ffff00" stroke-width="1"/><path d="M92.12329,14.99735c0,-2.68363 2.17552,-4.85917 4.85915,-4.85917c2.68363,0 4.85917,2.17552 4.85917,4.85917c0,2.68363 -2.17552,4.85915 -4.85917,4.85915c-2.68363,0 -4.85915,-2.17552 -4.85915,-4.85915z" fill="#fffff7" stroke="none" stroke-width="0"/></g><path d="M182.17358,17.92666v-7.15135h304.26937v7.15135z" fill="#ff0000" stroke="#000000" stroke-width="3"/><text transform="translate(282.51829,8.08917) scale(0.24039,0.24039)" font-size="40" xml:space="preserve" fill="#000000" stroke="none" stroke-width="1" font-family="Sans Serif" font-weight="normal" text-anchor="start"><tspan x="0" dy="0">LEVEL PROGRESS</tspan></text></g></g></svg>