<svg version="1.1" xmlns="http://www.w3.org/2000/svg" xmlns:xlink="http://www.w3.org/1999/xlink" width="17.94385" height="31.08546" viewBox="0,0,17.94385,31.08546"><g transform="translate(-311.98459,-179.19258)"><g stroke="#000000" stroke-width="1.28786" stroke-miterlimit="10"><path d="M326.85746,179.85789c0,0 4.976,16.25264 0.67814,25.37584c-2.0108,4.26838 -3.23029,4.39968 -3.23029,4.39968l-7.02646,-0.14233c0,0 -0.50835,-0.93014 -2.85389,-3.98941c-2.97644,-5.09554 -1.35627,-25.03476 -1.35627,-25.03476z" fill="#88ff9e" stroke-linecap="round"/><path d="M318.90702,194.21384c0,2.82329 -0.55851,5.11201 -1.24747,5.11201c-0.68896,0 -1.24747,-2.28873 -1.24747,-5.11201c0,-2.82329 0.55851,-5.11201 1.24747,-5.11201c0.68896,0 1.24747,2.28873 1.24747,5.11201z" fill="#000000" stroke-linecap="butt"/><path d="M324.58748,193.94867c0,2.82329 -0.55851,5.11201 -1.24747,5.11201c-0.68896,0 -1.24747,-2.28873 -1.24747,-5.11201c0,-2.82329 0.55851,-5.11201 1.24747,-5.11201c0.68896,0 1.24747,2.28873 1.24747,5.11201z" fill="#000000" stroke-linecap="butt"/></g></g></svg>