<svg version="1.1" xmlns="http://www.w3.org/2000/svg" xmlns:xlink="http://www.w3.org/1999/xlink" width="96.2701" height="95.69243" viewBox="0,0,96.2701,95.69243"><g transform="translate(-271.8161,-131.23746)"><g stroke-miterlimit="10"><path d="M272.3161,226.42989v-64.88824v-9.24098c0,0 2.20499,0 4.81102,0c11.2941,0 90.36138,0 90.36138,0v74.12922z" fill="#afafaf" stroke="#000000"/><path d="M272.4138,205.86668v-64.88824v-9.24098c0,0 2.20499,0 4.81102,0c11.2941,0 90.36138,0 90.36138,0v74.12922z" fill="#afafaf" stroke="#000000"/><path d="M363.54177,139.08309v60.82023h-86.62275v-60.82023z" fill="#939393" stroke="#000000"/><text transform="translate(307.01295,219.90031) scale(0.27691,0.31365)" font-size="40" xml:space="preserve" fill="#000000" stroke="none" font-family="Sans Serif" font-weight="normal" text-anchor="start"><tspan x="0" dy="0">Pool</tspan></text><path d="M333.74518,143.73768v51.03183h-26.94806v-51.03183z" fill="#e2e2e2" stroke="#000000"/><path d="M359.36193,143.93652v51.03183h-21.86447v-51.03182z" fill="#c0c0c0" stroke="#000000"/><path d="M303.07651,143.85294v51.03183h-21.86447v-51.03182z" fill="#c0c0c0" stroke="#000000"/></g></g></svg>