<svg version="1.1" xmlns="http://www.w3.org/2000/svg" xmlns:xlink="http://www.w3.org/1999/xlink" width="804" height="537" viewBox="0,0,804,537"><defs><radialGradient cx="486.08602" cy="213.64649" r="15.875" gradientUnits="userSpaceOnUse" id="color-1"><stop offset="0" stop-color="#105900"/><stop offset="1" stop-color="#1c9600"/></radialGradient></defs><g transform="translate(82,88.5)"><g stroke-miterlimit="10"><path d="M-82,448.5v-537h804v537z" fill-opacity="0.42745" fill="#000000" stroke="none" stroke-width="0" stroke-linecap="butt"/><path d="M418.53125,218.86198v-42h28v42z" fill="#949494" stroke="#000000" stroke-width="2.5" stroke-linecap="butt"/><path d="M502.06017,227.02404l-7.28823,-45.03741l14.77174,-2.39046l7.28824,45.03743z" fill="#f8f8f8" stroke="#000000" stroke-width="2.5" stroke-linecap="butt"/><path d="M433.19554,187.67369l34.82745,-4.97432l0.41577,15.38291l-33.32745,4.4743z" fill="#f8f8f8" stroke="#000000" stroke-width="2.5" stroke-linecap="butt"/><path d="M479.71296,187.19863v-20.52176h11.25791v20.52176z" fill="#1c9600" stroke="#000000" stroke-width="2.5" stroke-linecap="butt"/><path d="M466.04268,234.53502v-54.92278h40.38157v54.92279z" fill="#f8f8f8" stroke="#000000" stroke-width="2.5" stroke-linecap="butt"/><path d="M514.62632,146.27838c0,15.87244 -12.62484,28.7396 -28.19835,28.7396c-15.57351,0 -28.19834,-12.86715 -28.19834,-28.7396c0,-5.60738 1.57564,-10.83968 4.3003,-15.26209c4.98785,-8.09582 -12.66611,-38.32281 20.14804,-36.2275c41.67643,-1.56816 22.50992,28.04062 27.52008,36.02173c2.80323,4.4655 4.42827,9.77326 4.42827,15.46786z" fill="#1c9600" stroke="#000000" stroke-width="2.5" stroke-linecap="butt"/><path d="M482.09084,152.25041c0,4.3755 -0.79864,7.92255 -1.78381,7.92255c-0.98517,0 -1.78381,-3.54705 -1.78381,-7.92255c0,-4.3755 0.79864,-7.92256 1.78381,-7.92256c0.98517,0 1.78381,3.54706 1.78381,7.92256z" fill="#000000" stroke="#000000" stroke-width="2.5" stroke-linecap="butt"/><path d="M492.32021,150.67398c0,4.3405 -0.9608,7.85917 -2.146,7.85917c-1.1852,0 -2.146,-3.51867 -2.146,-7.85917c0,-4.3405 0.9608,-7.85917 2.146,-7.85917c1.1852,0 2.146,3.51867 2.146,7.85917z" fill="#000000" stroke="#000000" stroke-width="2.5" stroke-linecap="butt"/><path d="M482.61391,145.79209l-12.17411,-8.4489" fill="none" stroke="#000000" stroke-width="2.5" stroke-linecap="round"/><path d="M500.43734,134.91861l-15.24888,10.59862" fill="none" stroke="#000000" stroke-width="2.5" stroke-linecap="round"/><path d="M475.28743,180.30749h19.79855l-8.25,23.09579z" fill="#ff0000" stroke="#000000" stroke-width="2.5" stroke-linecap="butt"/><path d="M492.3711,200.09289l5.33333,-2.55555l-0.22222,9.66666l4.33333,-2.22222l-3.44444,11.33333l4.33333,3.55555l-7.55556,3.77778l-17.33333,-0.11111l-7.44444,-0.66667l5,-7.88889l-4.88889,-4l5.22222,-4.77778l-4.33333,-7.33334l8.77778,0.33334l3.66667,-10.22222l3.66667,8.55556l4.6416,-4.49795z" fill="#ffffff" stroke="#000000" stroke-width="2.5" stroke-linecap="round"/><path d="M502.86052,161.57858c0,0 -1.6668,2.55007 -3.36187,3.43998c-2.04748,1.07493 -8.0667,2.56002 -8.0667,2.56002" fill="none" stroke="#000000" stroke-width="2.5" stroke-linecap="round"/><path d="M496.88102,213.64649c0,8.76752 -4.83309,15.875 -10.795,15.875c-5.96191,0 -10.795,-7.10748 -10.795,-15.875c0,-8.76752 4.83308,-15.875 10.795,-15.875c5.96191,0 10.795,7.10748 10.795,15.875z" fill="url(#color-1)" stroke="#000000" stroke-width="2.5" stroke-linecap="butt"/><path d="M182.16857,348.9183v-125.38367h391.67136v125.38367z" fill="#ffdc5f" stroke="#000000" stroke-width="2.5" stroke-linecap="butt"/><text transform="translate(420.50133,251.25642) scale(0.5,0.5)" font-size="40" xml:space="preserve" fill="#000000" stroke="none" stroke-width="1" stroke-linecap="butt" font-family="Sans Serif" font-weight="normal" text-anchor="start"><tspan x="0" dy="0">Crazy Dave</tspan></text><text transform="translate(212.45635,284.26533) scale(0.61704,0.63091)" font-size="40" xml:space="preserve" fill="#000000" stroke="none" stroke-width="1" stroke-linecap="butt" font-family="Sans Serif" font-weight="normal" text-anchor="start"><tspan x="0" dy="0">NOOOO!</tspan></text><path d="M514.26424,336.72729v-31.49591l33.54755,17.69586z" fill="#bdae78" stroke="#000000" stroke-width="2.5" stroke-linecap="butt"/><path d="M410.53125,188.83682v-46.64151h42.77778v46.64151z" fill="#a4a4a4" stroke="#000000" stroke-width="2.5" stroke-linecap="butt"/><path d="M420.86459,171.86198v-23.33333h24v23.33333z" fill="#949494" stroke="#000000" stroke-width="2.5" stroke-linecap="butt"/><path d="M429.19792,164.86198v-9h8v9z" fill="#000000" stroke="#000000" stroke-width="2.5" stroke-linecap="butt"/><path d="M427.53125,208.86198v-19h10.66667v19z" fill="#575757" stroke="#000000" stroke-width="2.5" stroke-linecap="butt"/><g stroke="#000000" stroke-width="2.5"><path d="M453.33179,84.14469l35.20085,-42.13769l13.60324,11.36384l-35.20084,42.13769z" fill="#d9d9d9" stroke-linecap="butt"/><path d="M440.06082,93.86774l-5.27307,-54.65235l17.64333,-1.7023l5.27307,54.65235z" fill="#d9d9d9" stroke-linecap="butt"/><g stroke-linecap="butt"><path d="M514.50577,163.42924c-3.62579,4.43041 -9.91969,5.2766 -14.05783,1.89c-4.13814,-3.38659 -4.55347,-9.72354 -0.92769,-14.15394c3.62579,-4.43041 9.91969,-5.27659 14.05783,-1.88999c4.13814,3.38659 4.55347,9.72353 0.92769,14.15393z" fill="#ffe99b"/><path d="M499.46349,164.52439l-30.23767,-34.16389l11.20535,-9.91759l30.23766,34.16389z" fill="#f8f8f8"/></g><g stroke-linecap="butt"><path d="M417.85976,181.45942c-4.93225,-2.9065 -6.72988,-8.99729 -4.01513,-13.60416c2.71476,-4.60687 8.91388,-5.98529 13.84613,-3.0788c4.93225,2.9065 6.72988,8.99729 4.01513,13.60416c-2.71476,4.60687 -8.91388,5.98529 -13.84613,3.0788z" fill="#ffe99b"/><path d="M417.88128,170.82223l16.586,-42.50166l13.94004,5.44001l-16.58601,42.50168z" fill="#f8f8f8"/></g><path d="M465.28356,131.28822l0.7816,20.50687l-11.24974,0.42878l-0.7816,-20.50687z" fill="#ffe99b" stroke-linecap="butt"/><path d="M477.14104,83.46553l2.09183,54.88293l-40.35227,1.53801l-2.09183,-54.88294z" fill="#f8f8f8" stroke-linecap="butt"/><path d="M436.26577,178.61255c-2.26803,-11.09698 3.28341,-31.10662 3.28341,-31.10662c0,0 7.55216,3.19575 11.92225,2.30258c3.27243,-0.66883 2.48102,-9.02241 2.48102,-9.02241c0,0 6.01706,11.91476 9.9628,9.44091c2.60598,-1.63386 3.82313,-12.14034 3.82313,-12.14034c0,0 7.37461,5.80362 10.31269,7.19337c1.97019,0.93192 5.60366,0.33526 5.60366,0.33526c0,0 6.64697,15.74225 7.86549,21.70421c3.17834,15.55097 -6.61423,30.68554 -21.87232,33.80402c-15.25809,3.11849 -30.20378,-6.96002 -33.38212,-22.51099z" fill="#ffbf00" stroke-linecap="butt"/><path d="M424.89867,185.66334l1.1312,-11.35262l10.31061,9.26331l4.48596,-7.32043l13.43451,7.56895l5.95968,-10.80424l8.20247,9.17513l18.07369,-10.63436l-3.06921,9.56162l17.76682,-6.50708l-8.67926,10.63153c0,0 -4.24853,18.29178 -31.38159,17.32231c-13.98006,-0.49951 -36.23486,-16.90412 -36.23486,-16.90412z" fill="#ffbf00" stroke-linecap="round"/><path d="M493.20729,190.04968l0.68036,29.22007l-57.42933,1.33717l-0.41451,-17.80246l-29.65835,-1.99718l-2.34923,-8.83169z" fill="#838383" stroke-linecap="butt"/></g></g></g></svg>