<svg version="1.1" xmlns="http://www.w3.org/2000/svg" xmlns:xlink="http://www.w3.org/1999/xlink" width="67.85806" height="36.61709" viewBox="0,0,67.85806,36.61709"><g transform="translate(-206.18156,-160.87615)"><g data-paper-data="{&quot;isPaintingLayer&quot;:true}" fill-rule="nonzero" stroke-width="1" stroke-linecap="butt" stroke-linejoin="miter" stroke-miterlimit="10" stroke-dasharray="" stroke-dashoffset="0" style="mix-blend-mode: normal"><path d="M273.53963,185.03505c0,4.04793 -1.58213,9.10268 -9.88928,11.31419c-2.75719,0.73402 -12.78762,0.67081 -22.72265,0.64401c-9.81559,-0.02648 -19.53807,-0.00867 -22.06138,-0.58095c-9.45609,-2.14463 -11.78946,-7.00567 -11.78946,-11.37725c0,-3.2602 1.15336,-7.94004 6.85672,-10.23105c3.06736,-1.23214 15.18643,-1.35869 27.1798,-1.2272c11.66409,0.12789 23.20929,0.48001 26.19352,1.68248c5.68176,2.2894 6.23272,6.52253 6.23272,9.77576z" fill="#6f6f6f" stroke="#000000"></path><text transform="translate(206.29909,171.10083) scale(0.23505,0.23505)" font-size="40" xml:space="preserve" fill="#000000" fill-rule="nonzero" stroke="none" stroke-width="1" stroke-linecap="butt" stroke-linejoin="miter" stroke-miterlimit="10" stroke-dasharray="" stroke-dashoffset="0" font-family="Sans Serif" font-weight="normal" text-anchor="start" style="mix-blend-mode: normal"><tspan x="0" dy="0">ZOMBIE SPEED</tspan></text><path d="M207.15028,184.89493c0,-5.97715 4.84544,-10.8226 10.8226,-10.8226c5.97715,0 10.8226,4.84544 10.8226,10.8226c0,5.97715 -4.84544,10.8226 -10.8226,10.8226c-5.97715,0 -10.8226,-4.84544 -10.8226,-10.8226z" fill="#b2b2b2" stroke="#000000"></path><text transform="translate(212.5743,186.63734) scale(0.23658,0.23658)" font-size="40" xml:space="preserve" fill="#000000" fill-rule="nonzero" stroke="none" stroke-width="1" stroke-linecap="butt" stroke-linejoin="miter" stroke-miterlimit="10" stroke-dasharray="" stroke-dashoffset="0" font-family="Sans Serif" font-weight="normal" text-anchor="start" style="mix-blend-mode: normal"><tspan x="0" dy="0">x1</tspan></text><text transform="translate(210.34185,191.27852) scale(0.10525,0.10525)" font-size="40" xml:space="preserve" data-paper-data="{&quot;index&quot;:null}" fill="#000000" fill-rule="nonzero" stroke="none" stroke-width="1" stroke-linecap="butt" stroke-linejoin="miter" stroke-miterlimit="10" stroke-dasharray="" stroke-dashoffset="0" font-family="Sans Serif" font-weight="normal" text-anchor="start" style="mix-blend-mode: normal"><tspan x="0" dy="0">Default</tspan></text></g></g></svg>