<svg version="1.1" xmlns="http://www.w3.org/2000/svg" xmlns:xlink="http://www.w3.org/1999/xlink" width="35.10823" height="37.8611" viewBox="0,0,35.10823,37.8611"><g transform="translate(-222.24687,-168.37609)"><g data-paper-data="{&quot;isPaintingLayer&quot;:true}" fill-rule="nonzero" stroke="#000000" stroke-width="1.28786" stroke-linejoin="miter" stroke-miterlimit="10" stroke-dasharray="" stroke-dashoffset="0" style="mix-blend-mode: normal"><path d="M229.76981,205.59327v-20.24365h20.24365v20.24365z" fill="#fff9c9" stroke-linecap="butt"></path><path d="M222.91812,186.59538c0,0 0.75649,-18.20645 17.44068,-18.21929c16.86837,-0.01298 16.35064,18.21929 16.35064,18.21929z" fill="#fff300" stroke-linecap="butt"></path><path d="M237.40011,191.81201c0,3.05307 -0.73205,5.52807 -1.63506,5.52807c-0.90302,0 -1.63506,-2.47501 -1.63506,-5.52807c0,-3.05307 0.73205,-5.52807 1.63506,-5.52807c0.90302,0 1.63506,2.47501 1.63506,5.52807z" fill="#000000" stroke-linecap="butt"></path><path d="M241.76028,200.76593c0,0 -3.29175,2.85884 -7.20461,0.62765c-1.39233,-0.79394 -2.29433,-1.87342 -2.29433,-1.87342" fill="none" stroke-linecap="round"></path><path d="M244.56325,192.27917c0,3.05307 -0.73205,5.52807 -1.63506,5.52807c-0.90302,0 -1.63506,-2.47501 -1.63506,-5.52807c0,-3.05307 0.73205,-5.52807 1.63506,-5.52807c0.90302,0 1.63506,2.47501 1.63506,5.52807z" fill="#000000" stroke-linecap="butt"></path></g></g></svg>