<svg version="1.1" xmlns="http://www.w3.org/2000/svg" xmlns:xlink="http://www.w3.org/1999/xlink" width="96.1724" height="97.26079" viewBox="0,0,96.1724,97.26079"><g transform="translate(-191.9138,-131.23751)"><g data-paper-data="{&quot;isPaintingLayer&quot;:true}" fill-rule="nonzero" stroke-linecap="butt" stroke-linejoin="miter" stroke-miterlimit="10" stroke-dasharray="" stroke-dashoffset="0" style="mix-blend-mode: normal"><path d="M192.4138,226.60088v-64.88824v-9.24098c0,0 2.20499,0 4.81102,0c11.2941,0 90.36138,0 90.36138,0v74.12922z" fill="#afafaf" stroke="#000000" stroke-width="1"></path><path d="M192.4138,205.86673v-64.88824v-9.24098c0,0 2.20499,0 4.81102,0c11.2941,0 90.36138,0 90.36138,0v74.12922z" fill="#afafaf" stroke="#000000" stroke-width="1"></path><text transform="translate(227.49782,222.60705) scale(0.4713,0.4713)" font-size="40" xml:space="preserve" fill="#000000" fill-rule="nonzero" stroke="none" stroke-width="1" stroke-linecap="butt" stroke-linejoin="miter" stroke-miterlimit="10" stroke-dasharray="" stroke-dashoffset="0" font-family="Sans Serif" font-weight="normal" text-anchor="start" style="mix-blend-mode: normal"><tspan x="0" dy="0">2-1</tspan></text><path d="M196.91902,199.90343v-60.82023h86.62275v60.82023z" fill="#939393" stroke="#000000" stroke-width="1"></path><g stroke="#000000" stroke-width="0.5"><path d="M236.29521,194.92419v-46.89618h9.50149v46.89618z" fill="#0b8100"></path><path d="M236.30881,194.98622v-27.16376h9.58851v27.16376z" fill="#740000"></path><path d="M236.30881,180.28801v-12.46556h4.39944z" fill="#ffffff"></path><path d="M236.24128,175.89743v-8.18634h2.88919z" fill="#ff0000"></path><path d="M240.42193,156.77949c0,2.87543 -0.73598,5.20645 -1.64386,5.20645c-0.90788,0 -1.64386,-2.331 -1.64386,-5.20645c0,-2.87543 0.73598,-5.20645 1.64386,-5.20645c0.90788,0 1.64386,2.331 1.64386,5.20645z" fill="#000000"></path></g></g></g></svg>