<svg version="1.1" xmlns="http://www.w3.org/2000/svg" xmlns:xlink="http://www.w3.org/1999/xlink" width="24.24145" height="44.71842" viewBox="0,0,24.24145,44.71842"><g transform="translate(-289.13497,-156.14561)"><g stroke="#000000" stroke-width="0.5" stroke-miterlimit="10"><g><path d="M297.00436,185.31915l-5.4561,-11.73072l3.57022,-1.66055l5.4561,11.73072z" fill="#960000" stroke-linecap="butt"/><path d="M289.45277,179.45707c0,0 -0.40246,-3.22599 0.75374,-5.78653c0.48582,-1.0759 2.06038,-1.72341 2.87262,-2.1038c1.03655,-0.48544 2.59339,-1.16873 4.00595,-0.64175c2.41709,0.90175 4.41824,2.92722 4.41824,2.92722c0,0 -4.27908,-1.67369 -7.29677,0.30387c-3.19212,2.09187 -4.75378,5.30099 -4.75378,5.30099z" fill="#969696" stroke-linecap="round"/></g><path d="M292.81392,188.02061v-10.0625h9.1875v10.0625z" fill="#696969" stroke-linecap="butt"/><path d="M299.06392,163.14561v-3.5625h14.0625v3.5625z" fill="#969696" stroke-linecap="butt"/><path d="M297.94206,200.56094v-40.13478h8.13158v40.13478z" fill="#0b8100" stroke-linecap="butt"/><path d="M297.85594,200.61403v-23.24734h8.20606v23.24734z" fill="#fa0000" stroke-linecap="butt"/><path d="M303.94875,163.46006c0.77698,0 1.40685,1.99493 1.40685,4.45579c0,2.46087 -0.62987,4.45579 -1.40685,4.45579c-0.77698,0 -1.40685,-1.99493 -1.40685,-4.45579c0,-2.46087 0.62987,-4.45579 1.40685,-4.45579z" fill="#000000" stroke-linecap="butt"/><path d="M297.93892,163.20811v-6.8125h9.9375v6.8125z" fill="#969696" stroke-linecap="butt"/><path d="M297.81392,200.52061v-15.25h5.0625l-0.125,-7.8125l3.30315,-0.06804l0.00935,23.13054z" fill="#005ffb" stroke-linecap="round"/></g></g></svg>