<svg version="1.1" xmlns="http://www.w3.org/2000/svg" xmlns:xlink="http://www.w3.org/1999/xlink" width="64.75469" height="88.41618" viewBox="0,0,64.75469,88.41618"><defs><linearGradient x1="319.95334" y1="137.31684" x2="319.95334" y2="222.13078" gradientUnits="userSpaceOnUse" id="color-1"><stop offset="0" stop-color="#555555"/><stop offset="1" stop-color="#00ff94"/></linearGradient><radialGradient cx="316.97159" cy="170.81464" r="13.62761" gradientUnits="userSpaceOnUse" id="color-2"><stop offset="0" stop-color="#67da93"/><stop offset="1" stop-color="#77ffaa"/></radialGradient><radialGradient cx="302.72159" cy="161.31464" r="18.96656" gradientUnits="userSpaceOnUse" id="color-3"><stop offset="0" stop-color="#ffffff"/><stop offset="1" stop-color="#61cf8b"/></radialGradient><linearGradient x1="320.89597" y1="194.70145" x2="320.89597" y2="204.05145" gradientUnits="userSpaceOnUse" id="color-4"><stop offset="0" stop-color="#67ffda" stop-opacity="0"/><stop offset="1" stop-color="#67ffda"/></linearGradient><linearGradient x1="319.59164" y1="209.32885" x2="319.59164" y2="222.14279" gradientUnits="userSpaceOnUse" id="color-5"><stop offset="0" stop-color="#7c7c7c"/><stop offset="1" stop-color="#7a7a7a"/></linearGradient><linearGradient x1="292.4166" y1="137.2988" x2="292.4166" y2="222.1128" gradientUnits="userSpaceOnUse" id="color-6"><stop offset="0" stop-color="#969696"/><stop offset="1" stop-color="#7a7a7a"/></linearGradient><linearGradient x1="347.75416" y1="137.36756" x2="347.75416" y2="222.18156" gradientUnits="userSpaceOnUse" id="color-7"><stop offset="0" stop-color="#969696"/><stop offset="1" stop-color="#7a7a7a"/></linearGradient><linearGradient x1="306.45662" y1="190.2343" x2="306.45662" y2="211.23618" gradientUnits="userSpaceOnUse" id="color-8"><stop offset="0" stop-color="#858585"/><stop offset="1" stop-color="#818181"/></linearGradient><linearGradient x1="325.03235" y1="202.82134" x2="325.03235" y2="214.97974" gradientUnits="userSpaceOnUse" id="color-9"><stop offset="0" stop-color="#808080"/><stop offset="1" stop-color="#7d7d7d"/></linearGradient></defs><g transform="translate(-287.15141,-137.0896)"><g stroke-miterlimit="10"><path d="M351.40104,137.31684v84.81396h-62.89539v-84.81396z" fill="url(#color-1)" stroke="none" stroke-width="0" stroke-linecap="butt"/><path d="M319.60598,203.41421l-1.19064,-12.11123l2.45275,-0.38137l1.19064,12.11123z" fill="#4b9f6b" stroke="#000000" stroke-width="1.28786" stroke-linecap="butt"/><path d="M322.60582,202.24956l-2.6144,-11.6532l2.37226,-0.9622l2.61439,11.6532z" fill="#4b9f6b" stroke="#000000" stroke-width="1.28786" stroke-linecap="butt"/><path d="M315.02993,203.32176l2.37508,-15.18657l2.4144,0.72141l-2.82508,14.38657z" fill="#4b9f6b" stroke="#000000" stroke-width="1.28786" stroke-linecap="butt"/><path d="M324.7,202.89068l-2.02509,-11.88656l2.41441,-0.72143l2.02508,11.88657z" fill="#4b9f6b" stroke="#000000" stroke-width="1.28786" stroke-linecap="butt"/><path d="M338.16281,161.62019c4.49017,4.83119 -5.47386,16.41844 -12.6089,23.04983c-7.13504,6.63139 -17.66412,11.06571 -22.15429,6.23452c-4.49017,-4.83119 1.30889,-16.67344 8.44393,-23.30482c7.13504,-6.63139 21.82909,-10.81071 26.31926,-5.97952z" fill="#4b9f6b" stroke="#000000" stroke-width="1.28786" stroke-linecap="butt"/><path d="M307.63777,176.79564c0,-7.52632 6.10129,-13.62761 13.62761,-13.62761c7.52632,0 13.62761,6.10129 13.62761,13.62761c0,7.52632 -6.10129,13.62761 -13.62761,13.62761c-7.52632,0 -13.62761,-6.10129 -13.62761,-13.62761z" fill="url(#color-2)" stroke="#000000" stroke-width="1.28786" stroke-linecap="butt"/><path d="M325.05154,180.89838c-0.46985,-1.43176 -0.22814,-2.86979 0.53989,-3.21194c0.76803,-0.34215 1.77153,0.54116 2.24138,1.97292c0.46985,1.43176 0.22814,2.86979 -0.53989,3.21194c-0.76803,0.34215 -1.77153,-0.54116 -2.24138,-1.97292z" fill="#000000" stroke="#000000" stroke-width="1.28786" stroke-linecap="butt"/><path d="M329.14402,177.81094c-0.20902,-1.50945 0.22066,-2.86828 0.95972,-3.03504c0.73906,-0.16676 1.50762,0.92171 1.71665,2.43116c0.20902,1.50945 -0.22065,2.86828 -0.95971,3.03504c-0.73906,0.16676 -1.50762,-0.92171 -1.71665,-2.43116z" fill="#000000" stroke="#000000" stroke-width="1.28786" stroke-linecap="butt"/><path d="M336.16909,187.37367c-1.69566,2.32244 -4.41579,3.21944 -6.07557,2.00352c-1.65978,-1.21592 -1.6307,-4.08433 0.06496,-6.40676c1.69566,-2.32244 4.41578,-3.21945 6.07557,-2.00352c1.65978,1.21592 1.63071,4.08433 -0.06495,6.40677z" fill="#77ffaa" stroke="#000000" stroke-width="1.28786" stroke-linecap="butt"/><path d="M335.05824,186.72539c-0.83044,1.1374 -2.16261,1.57671 -2.97548,0.98121c-0.81287,-0.59549 -0.79863,-2.00028 0.03181,-3.13768c0.83044,-1.1374 2.16261,-1.5767 2.97548,-0.98121c0.81287,0.59549 0.79863,2.00027 -0.03181,3.13768z" fill="#000000" stroke="#000000" stroke-width="1.28786" stroke-linecap="butt"/><path d="M337.36861,160.69126c0.39719,0.69556 -6.11138,0.64052 -11.34739,2.23859c-4.1578,1.26899 -15.54874,9.43402 -17.01734,12.86512c-3.13452,7.32322 -3.66525,17.21065 -7.22946,14.31642c-2.3742,-1.92791 -0.0633,-8.6913 0.26975,-15.79548c0.60743,-7.66001 -4.65786,-13.72612 4.43035,-19.47577c9.06561,-4.99636 9.63426,0.08471 15.86672,1.68848c7.74251,1.90932 12.93313,0.49524 15.02737,4.16264z" fill="url(#color-3)" stroke="#000000" stroke-width="1.28786" stroke-linecap="butt"/><path d="M322.83743,176.9119l3.93846,0.26154" fill="none" stroke="#000000" stroke-width="1.28786" stroke-linecap="round"/><path d="M328.53743,176.5273l1.38462,-3.41538" fill="none" stroke="#000000" stroke-width="1.28786" stroke-linecap="round"/><path d="M294.06053,204.05145v-9.35h53.67089v9.35z" fill="url(#color-4)" stroke="none" stroke-width="0" stroke-linecap="butt"/><path d="M288.14394,222.14279v-12.81396h62.89539v12.81396z" fill="url(#color-5)" stroke="none" stroke-width="0" stroke-linecap="butt"/><path d="M288.0939,222.1128v-84.81396h8.64539v84.81396z" fill="url(#color-6)" stroke="none" stroke-width="0" stroke-linecap="butt"/><path d="M343.68148,222.18156v-84.81396h8.14539v84.81396z" fill="url(#color-7)" stroke="none" stroke-width="0" stroke-linecap="butt"/><path d="M288.14394,147.40357v-10.31396h62.89539v10.31396z" fill="#969696" stroke="none" stroke-width="0" stroke-linecap="butt"/><path d="M295.88896,211.23618v-21.00188l21.13534,21.00188z" fill="url(#color-8)" stroke="none" stroke-width="0" stroke-linecap="butt"/><path d="M303.00343,214.97974v-12.15842h44.05785v12.15842z" fill="url(#color-9)" stroke="none" stroke-width="0" stroke-linecap="butt"/><text transform="translate(336.39692,219.25579) scale(0.47116,0.5)" font-size="40" xml:space="preserve" fill="#000000" stroke="none" stroke-width="1" stroke-linecap="butt" font-family="Sans Serif" font-weight="normal" text-anchor="start"><tspan x="0" dy="0">0</tspan></text><g stroke-linecap="butt"><path d="M303.52762,213.44921l-2.65375,6.84999l-2.38631,-6.84999z" fill="#ffff00" stroke="#ffff00" stroke-width="1"/><path d="M298.55937,202.0734l2.38632,-6.84999l2.65375,6.84999z" fill="#ffff00" stroke="#ffff00" stroke-width="1"/><path d="M294.37596,207.97257c0,-3.72115 3.01658,-6.73773 6.73773,-6.73773c3.72115,0 6.73772,3.01658 6.73772,6.73773c0,3.72115 -3.01658,6.73772 -6.73772,6.73772c-3.72115,0 -6.73773,-3.01658 -6.73773,-6.73772z" fill="#ffff00" stroke="none" stroke-width="0"/><path d="M306.80397,205.43747l6.87114,2.59848l-6.83054,2.44142z" fill="#ffff00" stroke="#ffff00" stroke-width="1"/><path d="M295.46853,210.4972l-6.86899,-2.33105l6.82838,-2.70885z" fill="#ffff00" stroke="#ffff00" stroke-width="1"/><path d="M307.11956,210.08396l3.04475,6.68537l-6.56714,-3.08051z" fill="#ffff00" stroke="#ffff00" stroke-width="1"/><path d="M295.51088,205.68719l-3.23165,-6.49409l6.75404,2.88922z" fill="#ffff00" stroke="#ffff00" stroke-width="1"/><path d="M303.67899,202.14136l6.66063,-3.0985l-3.02751,6.59174z" fill="#ffff00" stroke="#ffff00" stroke-width="1"/><path d="M299.37584,213.78507l-6.46785,3.28387l2.83472,-6.7771z" fill="#ffff00" stroke="#ffff00" stroke-width="1"/><path d="M296.39221,208.17315c0,-2.70702 2.19448,-4.90151 4.9015,-4.90151c2.70702,0 4.90151,2.19448 4.90151,4.90151c0,2.70702 -2.19448,4.9015 -4.90151,4.9015c-2.70702,0 -4.9015,-2.19448 -4.9015,-4.9015z" fill="#fffff7" stroke="none" stroke-width="0"/></g><path d="M351.9061,137.19466v33.64619l-33.86,-33.64619z" fill="#3aff00" stroke="none" stroke-width="0" stroke-linecap="butt"/></g></g></svg>