<svg version="1.1" xmlns="http://www.w3.org/2000/svg" xmlns:xlink="http://www.w3.org/1999/xlink" width="64.61982" height="49.10626" viewBox="0,0,64.61982,49.10626"><g transform="translate(-207.57698,-155.26293)"><g data-paper-data="{&quot;isPaintingLayer&quot;:true}" fill-rule="nonzero" stroke="#000000" stroke-width="1.28786" stroke-linejoin="miter" stroke-miterlimit="10" stroke-dasharray="" stroke-dashoffset="0" style="mix-blend-mode: normal"><g><path d="M258.15788,191.1033l8,-6.66666l-6.66667,0.33333l5.66667,-5.16666l-6.33334,-0.83334l-2.5,-3.66666l-4.55555,-0.11111l3.05555,-3.55555v-6.66667l-5.5,2.66667l-2,-4.66667l-3.11282,2.90237l0.44994,-4.52183l-3.52176,-4.86749l-4.71686,5.1919l0.43179,4.16564l-2.19531,-2.40463l-4.33334,4.66666l-3.16666,-2.83333v6.66666l2.72222,3.77778l-4.22222,-0.11112l-2.5,3.66667l-6.33334,0.83333l5.66667,5.16667l-6.66667,-0.33334l8,6.66666l4.2987,4.71659c0,0 8.27112,-1.37095 12.51117,-1.30767c4.13217,0.06167 12.61383,1.68267 12.61383,1.68267z" fill="#27ffb8" stroke-linecap="round"></path><path d="M230.48415,192.16204l-9.16721,3.56536l0.15928,2.72133l-3.13377,-0.41466l-3.94243,4.10679l4.56167,1.39911l6.07109,-0.51815l0.15734,-3.3256l2.7547,2.53409l13.23762,-7.13975" fill="#27ffb8" stroke-linecap="round"></path><path d="M250.81206,192.33906l9.16722,3.56536l-0.15928,2.72133l3.13377,-0.41466l3.94243,4.1068l-4.56166,1.39911l-6.07109,-0.51815l-0.15734,-3.3256l-2.7547,2.53409l-13.23762,-7.13975" data-paper-data="{&quot;index&quot;:null}" fill="#27ffb8" stroke-linecap="round"></path><path d="M236.86359,180.60014l-4.22361,-2.3827l3.6464,0.03333z" data-paper-data="{&quot;index&quot;:null}" fill="#000000" stroke-linecap="round"></path><path d="M244.416,178.09681l3.6464,-0.03333l-4.22362,2.3827z" fill="#000000" stroke-linecap="round"></path><path d="M238.06793,179.13398c0,2.86537 -0.67649,5.18822 -1.511,5.18822c-0.83451,0 -1.511,-2.32285 -1.511,-5.18822c0,-2.86537 0.6765,-5.18821 1.511,-5.18821c0.83451,0 1.511,2.32284 1.511,5.18821z" fill="#ffffff" stroke-linecap="butt"></path><path d="M244.67855,179.58393c0,2.96048 -0.64914,5.36041 -1.44989,5.36041c-0.80076,0 -1.44989,-2.39993 -1.44989,-5.36041c0,-2.96048 0.64914,-5.36041 1.44989,-5.36041c0.80076,0 1.44989,2.39994 1.44989,5.36041z" fill="#ffffff" stroke-linecap="butt"></path><path d="M211.71848,195.10551h28.30503l-10.55005,-11.32463l0.27205,4.87228l-5.44106,-1.15396l1.22423,3.20544z" fill="#27ffb8" stroke-linecap="round"></path><path d="M235.43655,189.21541l8.83946,-2.35974l-1.00395,2.65057l-4.73334,-1.06667z" fill="#ffffff" stroke-linecap="round"></path><path d="M268.28152,195.21587h-26.68015l9.94441,-11.32463l-0.25644,4.87227l5.12871,-1.15396l-1.15396,3.20544z" data-paper-data="{&quot;index&quot;:null}" fill="#27ffb8" stroke-linecap="round"></path></g></g></g></svg>