<svg version="1.1" xmlns="http://www.w3.org/2000/svg" xmlns:xlink="http://www.w3.org/1999/xlink" width="116.88217" height="89.06602" viewBox="0,0,116.88217,89.06602"><defs><linearGradient x1="238.28605" y1="181.09405" x2="238.28605" y2="207.4074" gradientUnits="userSpaceOnUse" id="color-1"><stop offset="0" stop-color="#f100ff"></stop><stop offset="1" stop-color="#f100ff" stop-opacity="0"></stop></linearGradient><radialGradient cx="247.85986" cy="203.5445" r="13.15668" gradientUnits="userSpaceOnUse" id="color-2"><stop offset="0" stop-color="#66c3ff"></stop><stop offset="1" stop-color="#66c3ff" stop-opacity="0"></stop></radialGradient><radialGradient cx="223.04167" cy="163.18976" r="25.0844" gradientUnits="userSpaceOnUse" id="color-3"><stop offset="0" stop-color="#66c3ff"></stop><stop offset="1" stop-color="#66c3ff" stop-opacity="0"></stop></radialGradient><radialGradient cx="232.28099" cy="183.50712" r="13.15668" gradientUnits="userSpaceOnUse" id="color-4"><stop offset="0" stop-color="#ff667d"></stop><stop offset="1" stop-color="#ff667d" stop-opacity="0"></stop></radialGradient><radialGradient cx="259.33901" cy="160.67009" r="25.0844" gradientUnits="userSpaceOnUse" id="color-5"><stop offset="0" stop-color="#ff667d"></stop><stop offset="1" stop-color="#ff667d" stop-opacity="0"></stop></radialGradient><radialGradient cx="249.40443" cy="184.87558" r="13.15668" gradientUnits="userSpaceOnUse" id="color-6"><stop offset="0" stop-color="#d890ff"></stop><stop offset="1" stop-color="#d890ff" stop-opacity="0"></stop></radialGradient><radialGradient cx="238.92187" cy="180.64279" r="25.0844" gradientUnits="userSpaceOnUse" id="color-7"><stop offset="0" stop-color="#d890ff"></stop><stop offset="1" stop-color="#d890ff" stop-opacity="0"></stop></radialGradient><radialGradient cx="249.40444" cy="184.87558" r="13.15668" gradientUnits="userSpaceOnUse" id="color-8"><stop offset="0" stop-color="#d890ff" stop-opacity="0"></stop><stop offset="1" stop-color="#d890ff" stop-opacity="0"></stop></radialGradient><radialGradient cx="238.92187" cy="180.64279" r="25.0844" gradientUnits="userSpaceOnUse" id="color-9"><stop offset="0" stop-color="#d890ff" stop-opacity="0"></stop><stop offset="1" stop-color="#d890ff" stop-opacity="0"></stop></radialGradient></defs><g transform="translate(-207.13265,-135.59199)"><g data-paper-data="{&quot;isPaintingLayer&quot;:true}" fill-rule="nonzero" stroke-linejoin="miter" stroke-miterlimit="10" stroke-dasharray="" stroke-dashoffset="0" style="mix-blend-mode: normal"><text transform="translate(277.24295,188.00196) scale(0.66683,0.66683)" font-size="40" xml:space="preserve" fill="#000000" fill-rule="nonzero" stroke="none" stroke-width="1" stroke-linecap="butt" stroke-linejoin="miter" stroke-miterlimit="10" stroke-dasharray="" stroke-dashoffset="0" font-family="Sans Serif" font-weight="normal" text-anchor="start" style="mix-blend-mode: normal"><tspan x="0" dy="0">+15</tspan></text><path d="M208.12515,220.59759v-84.81396h62.89539v84.81396z" fill="#515151" stroke="none" stroke-width="0" stroke-linecap="butt"></path><g stroke="#000000"><g stroke-width="0" stroke-linecap="butt"><path d="M225.75364,207.4074v-36.49525h25.4648v36.49525z" data-paper-data="{&quot;index&quot;:null}" fill="#00ffc5"></path><path d="M219.27169,181.86073c0,0 -13.80372,-14.85271 0.01544,-22.71371c13.81916,-7.861 32.52523,-4.03637 39.76741,0.08332c3.08267,1.75357 4.65762,6.09786 4.16725,10.5288c-0.66167,5.97876 -4.16725,12.10159 -4.16725,12.10159z" data-paper-data="{&quot;index&quot;:null}" fill="#00ffc5"></path><path d="M225.75364,207.4074v-36.49525h25.4648v36.49525z" data-paper-data="{&quot;index&quot;:null}" fill="none"></path><path d="M219.27169,181.86073c0,0 -13.80372,-14.85271 0.01544,-22.71371c13.81916,-7.861 32.52523,-4.03637 39.76741,0.08332c3.08267,1.75357 4.65762,6.09786 4.16725,10.5288c-0.66167,5.97876 -4.16725,12.10159 -4.16725,12.10159z" data-paper-data="{&quot;index&quot;:null}" fill="none"></path></g><g stroke-width="0" stroke-linecap="butt"><path d="M225.55366,207.4074v-26.31335h25.46481v26.31335z" data-paper-data="{&quot;index&quot;:null}" fill="url(#color-1)"></path><path d="M219.27169,181.86072c0,0 -13.80372,-14.85271 0.01544,-22.71371c13.81916,-7.861 32.52524,-4.03638 39.76742,0.08332c3.08267,1.75357 4.65761,6.09786 4.16724,10.5288c-0.66166,5.97876 -4.16724,12.10159 -4.16724,12.10159z" data-paper-data="{&quot;index&quot;:null}" fill="#e210fb"></path></g><g stroke-width="0" stroke-linecap="butt"><path d="M225.55366,207.4074v-26.31335h25.46481v26.31335z" data-paper-data="{&quot;index&quot;:null}" fill="url(#color-2)"></path><path d="M219.27169,181.86072c0,0 -13.80372,-14.85271 0.01544,-22.71371c13.81916,-7.861 32.52523,-4.03637 39.76742,0.08332c3.08267,1.75357 4.65761,6.09786 4.16724,10.5288c-0.66166,5.97876 -4.16724,12.10159 -4.16724,12.10159z" data-paper-data="{&quot;index&quot;:null}" fill="url(#color-3)"></path></g><g stroke-width="0" stroke-linecap="butt"><path d="M225.55366,207.4074v-26.31335h25.4648v26.31335z" data-paper-data="{&quot;index&quot;:null}" fill="url(#color-4)"></path><path d="M219.27169,181.86072c0,0 -13.80372,-14.85271 0.01544,-22.71371c13.81916,-7.861 32.52524,-4.03637 39.76741,0.08332c3.08267,1.75357 4.65762,6.09786 4.16725,10.5288c-0.66167,5.97876 -4.16725,12.10159 -4.16725,12.10159z" data-paper-data="{&quot;index&quot;:null}" fill="url(#color-5)"></path></g><g stroke-width="0" stroke-linecap="butt"><path d="M225.55366,207.4074v-25.98002l25.46481,0.25002v25.73z" data-paper-data="{&quot;index&quot;:null}" fill="url(#color-6)"></path><path d="M219.27169,181.86072c0,0 -13.80372,-14.85271 0.01544,-22.71371c13.81916,-7.861 32.52524,-4.03637 39.76742,0.08332c3.08267,1.75357 4.65762,6.09786 4.16725,10.5288c-0.66167,5.97876 -4.16725,12.10159 -4.16725,12.10159z" data-paper-data="{&quot;index&quot;:null}" fill="url(#color-7)"></path></g><path d="M228.21849,164.09803l12.66573,10.29866l-13.25654,0.56062z" data-paper-data="{&quot;index&quot;:null}" fill="#ffffff" stroke-width="1.28786" stroke-linecap="round"></path><path d="M258.3193,174.64043l-13.10838,-0.15129l11.56381,-9.28293z" data-paper-data="{&quot;index&quot;:null}" fill="#ffffff" stroke-width="1.28786" stroke-linecap="round"></path><path d="M230.27381,186.06192c0,0 2.09828,-1.55967 4.00375,-0.92399c5.77286,1.92586 7.5454,5.81502 7.5454,5.81502" fill="none" stroke-width="1.28786" stroke-linecap="round"></path><g stroke-width="1.28786" stroke-linecap="butt"><path d="M225.55366,207.4074l0.07142,-25.46573l25.39338,0.02143v25.4443z" data-paper-data="{&quot;index&quot;:null}" fill="url(#color-8)"></path><path d="M219.27169,181.86072c0,0 -13.80372,-14.85271 0.01544,-22.71371c13.81916,-7.861 32.52523,-4.03637 39.76741,0.08332c3.08267,1.75357 4.65762,6.09786 4.16725,10.5288c-0.66167,5.97876 -4.16725,12.10159 -4.16725,12.10159z" data-paper-data="{&quot;index&quot;:null}" fill="url(#color-9)"></path></g></g><path d="M208.12518,220.57763v-12.81396h62.89539v12.81396z" fill="#969696" stroke="none" stroke-width="0" stroke-linecap="butt"></path><path d="M208.07514,220.54763v-84.81396h8.64539v84.81396z" fill="#969696" stroke="none" stroke-width="0" stroke-linecap="butt"></path><path d="M263.62271,220.59576v-84.81396h8.14539v84.81396z" fill="#969696" stroke="none" stroke-width="0" stroke-linecap="butt"></path><path d="M208.12518,146.09762v-10.31396h62.89539v10.31396z" fill="#969696" stroke="none" stroke-width="0" stroke-linecap="butt"></path><path d="M215.87019,209.67103v-21.00188l21.13534,21.00188z" fill="#969696" stroke="none" stroke-width="0" stroke-linecap="butt"></path><path d="M222.98465,213.4146v-12.15842h44.05785v12.15842z" fill="#969696" stroke="none" stroke-width="0" stroke-linecap="butt"></path><text transform="translate(238.53317,218.40801) scale(0.47116,0.5)" font-size="40" xml:space="preserve" fill="#000000" fill-rule="nonzero" stroke="none" stroke-width="1" stroke-linecap="butt" stroke-linejoin="miter" stroke-miterlimit="10" stroke-dasharray="" stroke-dashoffset="0" font-family="Sans Serif" font-weight="normal" text-anchor="start" style="mix-blend-mode: normal"><tspan x="0" dy="0">275</tspan></text><g stroke-linecap="butt"><path d="M223.50884,211.88408l-2.65375,6.84999l-2.38631,-6.84999z" data-paper-data="{&quot;index&quot;:null}" fill="#ffff00" stroke="#ffff00" stroke-width="1"></path><path d="M218.5406,200.50823l2.38632,-6.84999l2.65375,6.84999z" fill="#ffff00" stroke="#ffff00" stroke-width="1"></path><path d="M214.3572,206.40743c0,-3.72115 3.01658,-6.73773 6.73773,-6.73773c3.72115,0 6.73772,3.01658 6.73772,6.73773c0,3.72115 -3.01658,6.73772 -6.73772,6.73772c-3.72115,0 -6.73773,-3.01658 -6.73773,-6.73772z" fill="#ffff00" stroke="none" stroke-width="0"></path><path d="M226.78521,203.87233l6.87114,2.59848l-6.83054,2.44142z" data-paper-data="{&quot;index&quot;:null}" fill="#ffff00" stroke="#ffff00" stroke-width="1"></path><path d="M215.44977,208.93207l-6.86899,-2.33105l6.82838,-2.70885z" fill="#ffff00" stroke="#ffff00" stroke-width="1"></path><path d="M227.10078,208.51882l3.04475,6.68537l-6.56714,-3.08051z" data-paper-data="{&quot;index&quot;:null}" fill="#ffff00" stroke="#ffff00" stroke-width="1"></path><path d="M215.4921,204.12201l-3.23165,-6.49409l6.75404,2.88922z" fill="#ffff00" stroke="#ffff00" stroke-width="1"></path><path d="M223.66022,200.5762l6.66063,-3.0985l-3.02751,6.59174z" data-paper-data="{&quot;index&quot;:null}" fill="#ffff00" stroke="#ffff00" stroke-width="1"></path><path d="M219.35706,212.21993l-6.46785,3.28387l2.83472,-6.7771z" fill="#ffff00" stroke="#ffff00" stroke-width="1"></path><path d="M216.37343,206.60799c0,-2.70702 2.19448,-4.90151 4.9015,-4.90151c2.70702,0 4.90151,2.19448 4.90151,4.90151c0,2.70702 -2.19448,4.9015 -4.90151,4.9015c-2.70702,0 -4.9015,-2.19448 -4.9015,-4.9015z" fill="#fffff7" stroke="none" stroke-width="0"></path></g><path d="M271.92487,135.59199v33.64619l-33.86,-33.64619z" fill="#ff0000" stroke="none" stroke-width="0" stroke-linecap="butt"></path></g></g></svg>