<svg version="1.1" xmlns="http://www.w3.org/2000/svg" xmlns:xlink="http://www.w3.org/1999/xlink" width="51.38805" height="60.5751" viewBox="0,0,51.38805,60.5751"><g transform="translate(-214.25271,-149.32986)"><g data-paper-data="{&quot;isPaintingLayer&quot;:true}" fill-rule="nonzero" stroke-width="1.28786" stroke-linejoin="miter" stroke-miterlimit="10" stroke-dasharray="" stroke-dashoffset="0" style="mix-blend-mode: normal"><path d="M238.43619,206.57064c-0.93378,0.58739 -2.05798,0.72696 -3.22072,0.48406c-1.98091,-0.4138 -4.07368,-1.93768 -5.52725,-4.24842c-2.30678,-3.66709 -3.71063,-7.15238 -3.71063,-7.15238c0,0 3.67616,1.96005 7.17143,2.07335c2.40762,0.07805 4.74072,-2.16768 5.68159,-0.67197c2.30677,3.66709 2.13019,7.92727 -0.39441,9.51536z" data-paper-data="{&quot;index&quot;:null}" fill="#2c8e53" stroke="#000000" stroke-linecap="butt"></path><path d="M243.59513,196.65763c0.94087,-1.49571 3.27397,0.75001 5.68159,0.67197c3.49526,-0.1133 7.17142,-2.07335 7.17142,-2.07335c0,0 -1.40385,3.48528 -3.71063,7.15237c-1.45357,2.31075 -3.54634,3.83462 -5.52725,4.24843c-1.16275,0.2429 -2.28695,0.10333 -3.22073,-0.48406c-2.5246,-1.58809 -2.70118,-5.84826 -0.3944,-9.51536z" data-paper-data="{&quot;index&quot;:null}" fill="#2c8e53" stroke="#000000" stroke-linecap="butt"></path><g data-paper-data="{&quot;index&quot;:null}" fill="#fae951" stroke="#000000" stroke-linecap="butt"><path d="M256.76625,179.63432c-2.45767,1.0418 -7.26865,0.99543 -7.26865,0.99543l-9.27356,-5.20851l-8.97339,6.39493c0,0 -4.81825,0.35441 -6.32247,-0.06331c-2.85778,-0.79362 -9.56854,-4.34972 -9.56854,-4.34972c0,0 5.35813,-4.91988 8.11392,-6.0639c2.41955,-1.00442 7.5437,-0.43605 7.5437,-0.43605l9.43841,4.24928l7.1569,-5.41333c0,0 6.08239,-1.62553 8.63097,-0.95626c3.0402,0.79836 8.39682,5.42787 8.39682,5.42787c0,0 -5.29051,4.32836 -7.87411,5.42355z" data-paper-data="{&quot;index&quot;:null}"></path><g><path d="M257.81275,165.6797c-1.13609,2.66658 -4.93191,6.25601 -4.93191,6.25601l-11.17464,2.91723l-2.19531,11.76167c0,0 -3.49945,3.90824 -4.99013,4.71533c-2.83209,1.53331 -10.75805,3.81086 -10.75805,3.81086c0,0 0.48081,-7.88404 1.77292,-10.85519c1.13447,-2.60861 5.56848,-6.02604 5.56848,-6.02604l10.58062,-3.7913l1.51506,-9.6254c0,0 3.5297,-5.85457 6.02637,-7.25208c2.97827,-1.66707 10.6546,-2.085 10.6546,-2.085c0,0 -0.87372,7.37067 -2.06804,10.17389z" data-paper-data="{&quot;index&quot;:null}"></path><path d="M219.49214,158.46803c0,0 7.50863,-0.28845 10.55813,1.06426c2.55638,1.13398 6.52176,6.51214 6.52176,6.51214l2.34617,9.23046l10.64066,2.73158c0,0 4.62479,2.92435 5.96509,5.36039c1.52658,2.77458 2.70851,10.40397 2.70851,10.40397c0,0 -7.91998,-1.49876 -10.8151,-2.73455c-1.52385,-0.65047 -5.28353,-4.13715 -5.28353,-4.13715l-3.20168,-11.24795l-11.13961,-1.8271c0,0 -4.01923,-3.14957 -5.36639,-5.64187c-0.36656,-0.67815 1.47586,-1.7657 0.76026,-3.98745c-0.41215,-1.27963 -2.78241,-1.94323 -2.78241,-1.94323l-0.91187,-3.7835z"></path><path d="M238.19372,149.97379c0,0 5.24849,4.86015 6.39065,7.82343c0.95747,2.48411 0.00647,8.77356 0.00647,8.77356l-4.63404,7.79263l5.32387,9.00131c0,0 0.52454,-4.0412 -0.21302,-1.49922c-0.84008,2.89525 -4.62144,-2.11962 -4.62144,-2.11962c0,0 0.77199,-0.67263 -0.83279,2.54c-0.77428,1.55004 -1.62286,-2.09074 -1.98637,-2.99573c-0.58792,-1.46362 -3.33035,5.06249 -3.33035,5.06249l5.41621,-9.72654l-6.26855,-8.72835c0,0 -0.5854,-4.82556 0.18542,-7.41002c0.81034,-2.71689 4.56395,-8.51393 4.56395,-8.51393z"></path></g></g><path d="M237.34612,202.32792v-24.5343h6.9495v24.5343z" fill="#2c8e53" stroke="#000000" stroke-linecap="butt"></path><path d="M240.98209,187.64567c-7.94887,0 -14.3927,-5.27955 -14.3927,-11.79221c0,-6.51266 6.44383,-11.79222 14.3927,-11.79222c7.94887,0 14.3927,5.27956 14.3927,11.79222c0,6.51266 -6.44383,11.79221 -14.3927,11.79221z" fill="#f9ae4d" stroke="#000000" stroke-linecap="butt"></path><path d="M237.0038,179.82146c-0.70757,0 -1.28116,-2.44813 -1.28116,-5.46804c0,-3.01992 0.5736,-5.46804 1.28116,-5.46804c0.70757,0 1.28116,2.44813 1.28116,5.46804c0,3.01992 -0.5736,5.46804 -1.28116,5.46804z" fill="#000000" stroke="#000000" stroke-linecap="butt"></path><path d="M243.24083,178.10263c-0.45905,0 -0.83119,-2.42294 -0.83119,-5.41179c0,-2.98885 0.37214,-5.41179 0.83119,-5.41179c0.45905,0 0.83119,2.42294 0.83119,5.41179c0,2.98885 -0.37214,5.41179 -0.83119,5.41179z" fill="#000000" stroke="#000000" stroke-linecap="butt"></path><g stroke-linecap="round"><path d="M238.30816,184.26105l13.85715,-6.91783c0,0 3.08301,6.15331 0.47448,7.45555c-2.60852,1.30224 -14.33164,-0.53772 -14.33164,-0.53772z" fill="#000000" stroke="#000000"></path><path d="M251.97082,180.72718l1.29944,0.39733c0,0 -0.04147,0.64229 -0.10259,0.85832c-0.07347,0.25972 0.30071,0.65409 0.30071,0.65409z" data-paper-data="{&quot;index&quot;:null}" fill="#ffffff" stroke="#ffffff"></path><path d="M250.88244,184.89011l0.18697,-1.98087l1.29002,1.2817c0,0 -0.51574,0.50475 -0.80002,0.61263c-0.32447,0.12314 -1.04221,0.08653 -1.04221,0.08653z" data-paper-data="{&quot;index&quot;:null}" fill="#ffffff" stroke="#ffffff"></path><path d="M246.68948,184.94363l-1.70089,-0.10087l0.47017,-1.80389z" data-paper-data="{&quot;index&quot;:null}" fill="#ffffff" stroke="#ffffff"></path><path d="M249.01444,185.00638l-1.43259,-0.0481l1.36174,-1.83469z" data-paper-data="{&quot;index&quot;:null}" fill="#ffffff" stroke="#ffffff"></path><path d="M238.33453,184.15691l13.85715,-6.91783c0,0 3.08301,6.15331 0.47448,7.45555c-2.60852,1.30224 -14.33164,-0.53772 -14.33164,-0.53772z" fill="none" stroke="#000000"></path></g><path d="M240.70719,206.8614c-0.35765,1.04358 -1.14476,1.8583 -2.20208,2.39963c-1.80131,0.92224 -4.38691,1.05097 -6.96937,0.16592c-4.0983,-1.40455 -7.37981,-3.23475 -7.37981,-3.23475c0,0 4.09163,-0.78387 6.88255,-2.89112c1.92245,-1.45153 2.32733,-4.66441 3.99891,-4.09154c4.0983,1.40455 6.63676,4.8304 5.6698,7.65186z" fill="#2c8e53" stroke="#000000" stroke-linecap="butt"></path><path d="M246.84718,198.22145c1.67158,-0.57288 2.07646,2.64002 3.99891,4.09154c2.79092,2.10725 6.88255,2.89112 6.88255,2.89112c0,0 -3.28151,1.8302 -7.37981,3.23475c-2.58246,0.88504 -5.16806,0.75632 -6.96937,-0.16592c-1.05732,-0.54133 -1.84443,-1.35605 -2.20208,-2.39963c-0.96696,-2.82146 1.57151,-6.24731 5.6698,-7.65186z" data-paper-data="{&quot;index&quot;:null}" fill="#2c8e53" stroke="#000000" stroke-linecap="butt"></path><path d="M244.04442,189.79547c0.56884,-0.90429 1.97941,0.45345 3.43505,0.40627c2.11321,-0.0685 4.33579,-1.25353 4.33579,-1.25353c0,0 -0.84876,2.10717 -2.24342,4.32427c-0.87882,1.39706 -2.14409,2.31838 -3.34173,2.56857c-0.70299,0.14685 -1.38268,0.06247 -1.94723,-0.29266c-1.52635,-0.96015 -1.63311,-3.53582 -0.23845,-5.75291z" data-paper-data="{&quot;index&quot;:null}" fill="#2c8e53" stroke="#000000" stroke-linecap="butt"></path><path d="M237.53262,195.79752c-0.56456,0.35513 -1.24424,0.43951 -1.94723,0.29266c-1.19764,-0.25018 -2.46292,-1.17151 -3.34173,-2.56857c-1.39466,-2.2171 -2.24341,-4.32426 -2.24341,-4.32426c0,0 2.22257,1.18503 4.33578,1.25353c1.45563,0.04719 2.8662,-1.31056 3.43505,-0.40627c1.39466,2.2171 1.2879,4.79277 -0.23845,5.75292z" data-paper-data="{&quot;index&quot;:null}" fill="#2c8e53" stroke="#000000" stroke-linecap="butt"></path><path d="M237.6044,196.34396v-6.75582h6.17675v6.75582z" fill="#9fd743" stroke="#000000" stroke-linecap="butt"></path></g></g></svg>