<svg version="1.1" xmlns="http://www.w3.org/2000/svg" xmlns:xlink="http://www.w3.org/1999/xlink" width="69.61111" height="61.89712" viewBox="0,0,69.61111,61.89712"><defs><linearGradient x1="238.43701" y1="155.3196" x2="238.43701" y2="208.2167" gradientUnits="userSpaceOnUse" id="color-1"><stop offset="0" stop-color="#ffb400"></stop><stop offset="1" stop-color="#ff8ac5"></stop></linearGradient></defs><g transform="translate(-205.06356,-149.18526)"><g data-paper-data="{&quot;isPaintingLayer&quot;:true}" fill-rule="nonzero" stroke="#000000" stroke-width="1.28786" stroke-linejoin="miter" stroke-miterlimit="10" stroke-dasharray="" stroke-dashoffset="0" style="mix-blend-mode: normal"><path d="M211.98846,181.76815c0,-14.60713 11.84142,-26.44855 26.44855,-26.44855c14.60713,0 26.44855,11.84142 26.44855,26.44855c0,14.60713 -11.84142,26.44855 -26.44855,26.44855c-14.60713,0 -26.44855,-11.84142 -26.44855,-26.44855z" fill="url(#color-1)" stroke-linecap="butt"></path><path d="M239.31712,180.25622l-19.85066,-1.68448" fill="#ffb400" stroke-linecap="round"></path><path d="M242.92909,180.14999l17.30102,-4.14291" fill="#ffb400" stroke-linecap="round"></path><path d="M239.17204,181.146c0,0 -2.20319,8.72153 -7.07887,8.24585c-4.8757,-0.47567 -7.9524,-9.71231 -7.9524,-9.71231z" fill="#ffffff" stroke-linecap="round"></path><path d="M257.78314,176.92512c0,0 -1.44445,9.62784 -6.16598,10.93392c-4.72153,1.30607 -8.39001,-6.9074 -8.39001,-6.9074z" data-paper-data="{&quot;index&quot;:null}" fill="#ffffff" stroke-linecap="round"></path><path d="M216.90172,175.85656l-2.16509,-17.76772l8.89203,7.75099" fill="#ffa935" stroke-linecap="round"></path><path d="M256.34677,167.98074l8.89203,-7.75099l-2.16509,17.76772" data-paper-data="{&quot;index&quot;:null}" fill="#ffa935" stroke-linecap="round"></path><path d="M256.22097,193.9042l11.13299,3.89908l-16.51593,6.89956" data-paper-data="{&quot;index&quot;:null}" fill="#ff939c" stroke-linecap="round"></path><path d="M259.3115,183.29126l11.53967,-2.44586l-10.5357,14.46992" data-paper-data="{&quot;index&quot;:null}" fill="#ff9d6b" stroke-linecap="round"></path><path d="M262.63034,171.01674l10.5357,14.46992l-11.53967,-2.44586" data-paper-data="{&quot;index&quot;:null}" fill="#ffa545" stroke-linecap="round"></path><path d="M247.00847,163.55302l7.96866,8.6975l-17.81586,-1.72475" data-paper-data="{&quot;index&quot;:null}" fill="#ffa935" stroke-linecap="round"></path><path d="M224.34881,174.03507l9.12374,-15.01824l1.73158,11.65033" data-paper-data="{&quot;index&quot;:null}" fill="#ffa935" stroke-linecap="round"></path><path d="M250.69208,197.68218l0.79805,11.769l-12.84379,-12.46662" data-paper-data="{&quot;index&quot;:null}" fill="#ff939c" stroke-linecap="round"></path><path d="M237.93892,203.68267l-17.62587,3.11583l7.26246,-9.29532" data-paper-data="{&quot;index&quot;:null}" fill="#ff91a4" stroke-linecap="round"></path><path d="M225.0634,196.68753l-15.10241,3.45684l6.47529,-9.39974" data-paper-data="{&quot;index&quot;:null}" fill="#ff958c" stroke-linecap="round"></path><path d="M221.63305,188.81464l-14.79909,-4.58471l10.31662,-4.88381" data-paper-data="{&quot;index&quot;:null}" fill="#ff9d6b" stroke-linecap="round"></path><path d="M238.59311,162.48854l13.53061,-11.71761l-1.4647,11.70473" data-paper-data="{&quot;index&quot;:null}" fill="#ffb400" stroke-linecap="round"></path><path d="M227.8212,160.93846l-5.58583,-10.38964l16.84503,6.05183" data-paper-data="{&quot;index&quot;:null}" fill="#ffb307" stroke-linecap="round"></path></g></g></svg>