<svg version="1.1" xmlns="http://www.w3.org/2000/svg" xmlns:xlink="http://www.w3.org/1999/xlink" width="65.99349" height="88.41618" viewBox="0,0,65.99349,88.41618"><defs><linearGradient x1="320.00001" y1="137.21024" x2="320.00001" y2="222.0242" gradientUnits="userSpaceOnUse" id="color-1"><stop offset="0" stop-color="#878787"/><stop offset="1" stop-color="#8459e0"/></linearGradient><linearGradient x1="319.59165" y1="209.32887" x2="319.59165" y2="222.14281" gradientUnits="userSpaceOnUse" id="color-2"><stop offset="0" stop-color="#7c7c7c"/><stop offset="1" stop-color="#7a7a7a"/></linearGradient><linearGradient x1="292.41661" y1="137.29881" x2="292.41661" y2="222.11282" gradientUnits="userSpaceOnUse" id="color-3"><stop offset="0" stop-color="#969696"/><stop offset="1" stop-color="#7a7a7a"/></linearGradient><linearGradient x1="347.75417" y1="137.36757" x2="347.75417" y2="222.18158" gradientUnits="userSpaceOnUse" id="color-4"><stop offset="0" stop-color="#969696"/><stop offset="1" stop-color="#7a7a7a"/></linearGradient><linearGradient x1="306.45662" y1="190.23432" x2="306.45662" y2="211.2362" gradientUnits="userSpaceOnUse" id="color-5"><stop offset="0" stop-color="#858585"/><stop offset="1" stop-color="#818181"/></linearGradient><linearGradient x1="325.03236" y1="202.82136" x2="325.03236" y2="214.97976" gradientUnits="userSpaceOnUse" id="color-6"><stop offset="0" stop-color="#808080"/><stop offset="1" stop-color="#7d7d7d"/></linearGradient></defs><g transform="translate(-287.15141,-137.08963)"><g stroke-miterlimit="10"><path d="M351.4477,137.21024v84.81396h-62.89539v-84.81396z" fill="url(#color-1)" stroke="none" stroke-width="0" stroke-linecap="butt"/><g stroke="#000000" stroke-width="1.28786"><path d="M339.15608,172.70277l8.61927,-1.44342c0,0 4.0511,13.62639 -1.59071,14.57119c-5.64181,0.9448 -7.02854,-13.12777 -7.02854,-13.12777z" fill="#5b068a" stroke-linecap="butt"/><path d="M307.23118,204.1463c-1.74753,0 -3.16417,-1.32956 -3.16417,-2.96966v-28.54844c0,-1.64009 1.41664,-2.96966 3.16417,-2.96966h30.41844c1.74753,0 3.16418,1.32956 3.16418,2.96966v28.54844c0,1.64009 -1.41666,2.96966 -3.16418,2.96966z" fill="#e1ff37" stroke-linecap="butt"/><path d="M331.68261,187.55283c0,2.68696 -0.93069,4.86518 -2.07876,4.86518c-1.14807,0 -2.07876,-2.17822 -2.07876,-4.86518c0,-2.68696 0.93069,-4.86518 2.07876,-4.86518c1.14807,0 2.07876,2.17822 2.07876,4.86518z" fill="#ffffff" stroke-linecap="butt"/><path d="M295.77595,176.58841c0,0 -2.27669,-4.65056 -0.47514,-6.37823c1.80156,-1.72766 2.406,-2.8069 9.97022,-7.54332c5.92,-3.70688 9.77806,-10.84549 18.06339,-11.0236c5.84467,-0.12564 11.13619,7.44602 14.86311,10.23148c6.66179,4.97897 6.93434,2.854 11.15112,8.06969c4.21678,5.21567 -0.83151,6.64399 -0.83151,6.64399z" fill="#bc246d" stroke-linecap="butt"/><path d="M335.02989,196.90089c0,0 -7.65972,-0.05191 -6.88961,-3.68238c0.77009,-3.63047 8.55262,-4.15753 8.55262,-4.15753" fill="#e1ff37" stroke-linecap="round"/><path d="M319.39374,201.18598c-3.37004,-1.4329 -2.43983,-6.90692 -2.43983,-6.90692c0,0 3.78292,0.32631 5.58421,0.18294c2.0114,-0.16009 5.92352,-1.09885 5.92352,-1.09885c0,0 5.35892,4.48419 2.56114,6.89781c-2.79777,2.41362 -8.25901,2.35792 -11.62905,0.92503z" fill="#d5297c" stroke-linecap="butt"/><path d="M318.95549,188.0094c0,2.76283 -1.02566,5.00256 -2.29088,5.00256c-1.26522,0 -2.29089,-2.23972 -2.29089,-5.00256c0,-2.76283 1.02567,-5.00256 2.29089,-5.00256c1.26522,0 2.29088,2.23972 2.29088,5.00256z" fill="#ffffff" stroke-linecap="butt"/><path d="M309.79276,189.89249c0,0 7.78252,0.52706 8.55262,4.15753c0.77009,3.63047 -6.88961,3.68238 -6.88961,3.68238" fill="#e1ff37" stroke-linecap="round"/><path d="M324.38573,197.76342l-1.18787,-3.30905" fill="none" stroke-linecap="round"/><path d="M295.8608,176.33387c0,0 -2.2767,-4.65056 -0.47514,-6.37823c1.65817,-1.59015 -1.99146,0.65074 3.43656,-2.635c0.46941,-0.28415 1.76462,-0.35699 2.36669,-0.73398c5.92,-3.70688 3.55555,5.63902 7.38204,5.41999c1.49496,-0.08556 2.44722,-5.56707 6.61778,-5.96173c3.65075,-0.34547 3.52353,5.4929 6.84018,4.95813c3.97611,-0.6411 5.49804,0.318 6.41574,-0.18593c3.59406,-1.97356 0.46572,-3.5988 1.09923,-4.58991c1.06747,-1.67003 2.00163,4.40606 7.02288,3.36544c4.91307,-1.0182 11.14069,-2.03772 12.86675,0.09724c4.21678,5.21567 -0.83151,6.64399 -0.83151,6.64399c0,0 -24.28785,0.16171 -40.13998,2.5241c-2.70659,0.40335 -1.70055,5.37921 -3.43351,6.18012c-1.77584,0.82073 -3.08948,-5.65651 -5.00615,-6.05187c-0.66359,-0.13687 -1.3204,3.12829 -2.03736,4.00292c-1.29748,1.58278 -2.59902,1.32038 -3.12617,1.32038c-2.11326,0 1.002,-7.97566 1.002,-7.97566z" fill="#5b068a" stroke-linecap="butt"/></g><path d="M288.14394,222.14281v-12.81396h62.89539v12.81396z" fill="url(#color-2)" stroke="none" stroke-width="0" stroke-linecap="butt"/><path d="M288.09391,222.11282v-84.81396h8.64539v84.81396z" fill="url(#color-3)" stroke="none" stroke-width="0" stroke-linecap="butt"/><path d="M343.68149,222.18158v-84.81396h8.14539v84.81396z" fill="url(#color-4)" stroke="none" stroke-width="0" stroke-linecap="butt"/><path d="M288.14394,147.40359v-10.31396h62.89539v10.31396z" fill="#969696" stroke="none" stroke-width="0" stroke-linecap="butt"/><path d="M295.88897,211.2362v-21.00188l21.13534,21.00188z" fill="url(#color-5)" stroke="none" stroke-width="0" stroke-linecap="butt"/><path d="M303.00344,214.97976v-12.15842h44.05785v12.15842z" fill="url(#color-6)" stroke="none" stroke-width="0" stroke-linecap="butt"/><text transform="translate(320.09499,219.25581) scale(0.47116,0.5)" font-size="40" xml:space="preserve" fill="#000000" stroke="none" stroke-width="1" stroke-linecap="butt" font-family="Sans Serif" font-weight="normal" text-anchor="start"><tspan x="0" dy="0">125</tspan></text><g stroke-linecap="butt"><path d="M303.52763,213.44923l-2.65375,6.84999l-2.38631,-6.84999z" fill="#ffff00" stroke="#ffff00" stroke-width="1"/><path d="M298.55938,202.07342l2.38632,-6.84999l2.65375,6.84999z" fill="#ffff00" stroke="#ffff00" stroke-width="1"/><path d="M294.37597,207.97259c0,-3.72115 3.01658,-6.73773 6.73773,-6.73773c3.72115,0 6.73772,3.01658 6.73772,6.73773c0,3.72115 -3.01658,6.73772 -6.73772,6.73772c-3.72115,0 -6.73773,-3.01658 -6.73773,-6.73772z" fill="#ffff00" stroke="none" stroke-width="0"/><path d="M306.80397,205.43749l6.87114,2.59848l-6.83054,2.44142z" fill="#ffff00" stroke="#ffff00" stroke-width="1"/><path d="M295.46853,210.49722l-6.86899,-2.33105l6.82838,-2.70885z" fill="#ffff00" stroke="#ffff00" stroke-width="1"/><path d="M307.11957,210.08398l3.04475,6.68537l-6.56714,-3.08051z" fill="#ffff00" stroke="#ffff00" stroke-width="1"/><path d="M295.51088,205.68721l-3.23165,-6.49409l6.75404,2.88922z" fill="#ffff00" stroke="#ffff00" stroke-width="1"/><path d="M303.679,202.14138l6.66063,-3.0985l-3.02751,6.59174z" fill="#ffff00" stroke="#ffff00" stroke-width="1"/><path d="M299.37585,213.78509l-6.46785,3.28387l2.83472,-6.7771z" fill="#ffff00" stroke="#ffff00" stroke-width="1"/><path d="M296.39222,208.17317c0,-2.70702 2.19448,-4.90151 4.9015,-4.90151c2.70702,0 4.90151,2.19448 4.90151,4.90151c0,2.70702 -2.19448,4.9015 -4.90151,4.9015c-2.70702,0 -4.9015,-2.19448 -4.9015,-4.9015z" fill="#fffff7" stroke="none" stroke-width="0"/></g><path d="M351.90611,137.19467v33.64619l-33.86,-33.64619z" fill="#9500ea" stroke="none" stroke-width="0" stroke-linecap="butt"/></g></g></svg>