<svg version="1.1" xmlns="http://www.w3.org/2000/svg" xmlns:xlink="http://www.w3.org/1999/xlink" width="39.54049" height="52.59254" viewBox="0,0,39.54049,52.59254"><defs><linearGradient x1="321.77871" y1="191.17053" x2="321.77871" y2="200.52053" gradientUnits="userSpaceOnUse" id="color-1"><stop offset="0" stop-color="#67ffda" stop-opacity="0"/><stop offset="1" stop-color="#67ffda"/></linearGradient><radialGradient cx="313.83751" cy="167.50276" r="13.62761" gradientUnits="userSpaceOnUse" id="color-2"><stop offset="0" stop-color="#67da93"/><stop offset="1" stop-color="#77ffaa"/></radialGradient><radialGradient cx="298.95169" cy="159.0337" r="18.96656" gradientUnits="userSpaceOnUse" id="color-3"><stop offset="0" stop-color="#ffffff"/><stop offset="1" stop-color="#61cf8b"/></radialGradient></defs><g transform="translate(-296.78068,-149.05228)"><g stroke-miterlimit="10"><path d="M323.96986,198.4896l-7.5267,-9.56286l1.86112,-1.64246l7.5267,9.56286z" fill="#4b9f6b" stroke="#000000" stroke-width="1.28786" stroke-linecap="butt"/><path d="M325.82001,198.39251l-8.42956,-10.91006l1.48045,-2.08848l9.22955,11.26007z" fill="#4b9f6b" stroke="#000000" stroke-width="1.28786" stroke-linecap="butt"/><path d="M320.06456,200.87653l-6.17893,-14.07458l2.4228,-0.69267l5.94136,14.1671z" fill="#4b9f6b" stroke="#000000" stroke-width="1.28786" stroke-linecap="butt"/><path d="M328.02977,198.80468l-8.15875,-12.4241l1.64565,-1.90832l9.60874,12.97412z" fill="#4b9f6b" stroke="#000000" stroke-width="1.28786" stroke-linecap="butt"/><path d="M309.62871,200.52053v-9.35c0,0 5.75538,0 9.2,0c4.41301,0 15.1,0 15.1,0v9.35z" fill="url(#color-1)" stroke="none" stroke-width="0" stroke-linecap="butt"/><path d="M334.32588,156.83353c4.82041,4.50175 -4.29973,16.76427 -10.94822,23.88337c-6.64849,7.1191 -16.83783,12.28652 -21.65823,7.78478c-4.82041,-4.50175 0.12715,-16.72425 6.77565,-23.84335c6.64849,-7.1191 21.01041,-12.32654 25.83081,-7.82479z" fill="#4b9f6b" stroke="#000000" stroke-width="1.28786" stroke-linecap="butt"/><path d="M304.94976,174.12851c-0.53195,-7.5075 5.12284,-14.02476 12.63034,-14.55672c7.5075,-0.53195 14.02476,5.12284 14.55672,12.63034c0.53195,7.5075 -5.12284,14.02476 -12.63034,14.55672c-7.5075,0.53195 -14.02476,-5.12284 -14.55672,-12.63034z" fill="url(#color-2)" stroke="#000000" stroke-width="1.28786" stroke-linecap="butt"/><path d="M333.46801,155.96306c0.44536,0.66575 -6.05082,1.07087 -11.16079,3.03502c-4.05771,1.55969 -14.84307,10.5094 -16.06549,14.03572c-2.60908,7.52645 -2.43965,17.42666 -6.19951,14.79159c-2.50453,-1.75528 -0.67744,-8.66509 -0.84734,-15.77504c0.06451,-7.68379 -5.61636,-13.36258 3.04274,-19.7402c8.6898,-5.62461 9.61615,-0.59644 15.94638,0.56281c7.8581,1.35731 12.93579,-0.4201 15.284,3.09011z" fill="url(#color-3)" stroke="#000000" stroke-width="1.28786" stroke-linecap="butt"/><path d="M320.11963,173.17019l3.9471,-0.01748" fill="none" stroke="#000000" stroke-width="1.28786" stroke-linecap="round"/><path d="M326.91794,168.87895l-1.13976,3.50471" fill="none" stroke="#000000" stroke-width="1.28786" stroke-linecap="round"/><path d="M319.85655,175.65197l4.59864,0.47964l-2.88381,3.47623" fill="none" stroke="#000000" stroke-width="1.28786" stroke-linecap="round"/><path d="M331.89954,175.08081l-4.59864,-0.47964l2.88381,-3.47623" fill="none" stroke="#000000" stroke-width="1.28786" stroke-linecap="round"/><path d="M334.15738,182.66352c-1.52727,2.43648 -4.1772,3.52349 -5.91877,2.42793c-1.74157,-1.09557 -1.9153,-3.95886 -0.38803,-6.39533c1.52727,-2.43648 4.17719,-3.5235 5.91877,-2.42793c1.74157,1.09557 1.91531,3.95886 0.38804,6.39534z" fill="#77ffaa" stroke="#000000" stroke-width="1.28786" stroke-linecap="butt"/><path d="M333.00349,182.09538c-0.74797,1.19325 -2.04576,1.72562 -2.89869,1.18906c-0.85293,-0.53655 -0.93801,-1.93883 -0.19004,-3.13208c0.74797,-1.19325 2.04576,-1.72561 2.89869,-1.18906c0.85293,0.53655 0.93801,1.93882 0.19004,3.13208z" fill="#000000" stroke="#000000" stroke-width="1.28786" stroke-linecap="butt"/></g></g></svg>