<svg version="1.1" xmlns="http://www.w3.org/2000/svg" xmlns:xlink="http://www.w3.org/1999/xlink" width="96.1724" height="97.26079" viewBox="0,0,96.1724,97.26079"><defs><linearGradient x1="357.49802" y1="141.91128" x2="357.49802" y2="197.93903" gradientUnits="userSpaceOnUse" id="color-1"><stop offset="0" stop-color="#1dffce"/><stop offset="1" stop-color="#30beff"/></linearGradient></defs><g transform="translate(-271.9138,-131.23755)"><g stroke-miterlimit="10"><path d="M272.4138,226.60092v-64.88824v-9.24098c0,0 2.20499,0 4.81102,0c11.2941,0 90.36138,0 90.36138,0v74.12922z" fill="#afafaf" stroke="#000000" stroke-width="1" stroke-linecap="butt"/><path d="M272.4138,205.86677v-64.88824v-9.24098c0,0 2.20499,0 4.81102,0c11.2941,0 90.36138,0 90.36138,0v74.12922z" fill="#afafaf" stroke="#000000" stroke-width="1" stroke-linecap="butt"/><text transform="translate(307.49782,222.60709) scale(0.4713,0.4713)" font-size="40" xml:space="preserve" fill="#000000" stroke="none" stroke-width="1" stroke-linecap="butt" font-family="Sans Serif" font-weight="normal" text-anchor="start"><tspan x="0" dy="0">2-6</tspan></text><path d="M276.91902,199.90347v-60.82023h86.62275v60.82023z" fill="#2e2e2e" stroke="#000000" stroke-width="1" stroke-linecap="butt"/><g><path d="M316.33072,197.68101v-53.33009h10.80504v53.33009z" fill="#0b8100" stroke="#000000" stroke-width="0.5" stroke-linecap="butt"/><path d="M316.34619,197.75154v-30.89048h10.904v30.89048z" fill="#740000" stroke="#000000" stroke-width="0.5" stroke-linecap="butt"/><path d="M316.34619,181.03683v-14.17577h5.00302z" fill="#ffffff" stroke="#000000" stroke-width="0.5" stroke-linecap="butt"/><path d="M316.2694,176.04387v-9.30946h3.28557z" fill="#ff0000" stroke="#000000" stroke-width="0.5" stroke-linecap="butt"/><path d="M320.28386,153.33135c0,0 2.87684,0.39032 -0.55987,2.33587c-0.51396,0.29096 -2.57046,-1.62289 -2.57046,-1.62289" fill="none" stroke="#000000" stroke-width="0.5" stroke-linecap="round"/><text transform="translate(304.67376,149.88827) scale(0.16853,0.16853)" font-size="40" xml:space="preserve" fill="#000000" stroke="none" stroke-width="1" stroke-linecap="butt" font-family="Sans Serif" font-weight="normal" text-anchor="start"><tspan x="0" dy="0">Zzz</tspan></text></g><g stroke="#000000" stroke-width="0.5"><path d="M284.41633,198.13627v-54.14421h10.96999v54.14421z" fill="#ff0000" stroke-linecap="butt"/><path d="M294.00627,154.3995c0,4.0493 -2.84508,7.33191 -6.35469,7.33191c-3.50961,0 -3.3229,-2.43683 -3.3229,-6.48614c0,-4.04931 -0.18671,-8.17769 3.3229,-8.17769c3.50959,0 6.35469,3.2826 6.35469,7.33191z" fill="#0b8100" stroke-linecap="butt"/><path d="M289.18087,154.09611c0,3.31986 -0.84971,6.01113 -1.89792,6.01113c-1.04819,0 -1.89794,-2.69127 -1.89794,-6.01113c0,-3.31986 0.58609,-4.39645 1.6343,-4.39645c1.04819,0 2.16154,1.07659 2.16154,4.39645z" fill="#000000" stroke-linecap="butt"/><path d="M284.74611,151.41089l5.06397,-5.4042" fill="none" stroke-linecap="round"/><path d="M285.67982,185.64323c-1.48146,0 -1.0997,-5.66472 -1.0997,-5.66472c0,0 -0.52499,-6.79129 1.0997,-6.79129c3.10617,0 5.62419,2.78837 5.62419,6.22801c0,3.43963 -2.51803,6.228 -5.62419,6.228z" fill="#ffffff" stroke-linecap="butt"/><path d="M298.41974,155.04663l-1.43964,-3.11834l-2.84627,5.14361l2.45851,-7.37925l1.55101,2.32226l2.24814,-4.01754z" fill="#e6ff00" stroke-linecap="round"/><path d="M284.75413,176.49379l2.45851,7.37925l-2.84626,-5.14361z" fill="#e6ff00" stroke-linecap="round"/></g><g stroke="#000000" stroke-width="0.5"><path d="M343.78709,164.78308l-0.10939,-12.68151l9.93268,-0.11371l0.2188,12.79523z" fill="#0b8100" stroke-linecap="butt"/><path d="M348.14861,157.01212c0,3.03903 -0.77786,5.50267 -1.73739,5.50267c-0.95953,0 -1.73739,-2.46362 -1.73739,-5.50267c0,-3.03903 0.77786,-5.50267 1.73739,-5.50267c0.95953,0 1.73739,2.46362 1.73739,5.50267z" fill="#000000" stroke-linecap="butt"/><path d="M358.95488,163.75328l-6.34228,4.26337c0,0 -2.89436,15.29737 1.50932,18.968c1.8462,1.53887 9.68997,5.40538 9.68997,5.40538l-0.13452,5.49991c0,0 -19.68312,-0.41226 -19.93705,-0.41063c-0.74285,0.00477 -1.69042,-9.78281 -1.49518,-18.01877c0.14614,-6.1651 1.37961,-11.38628 1.37961,-11.38628l-4.04034,0.02591l-3.88384,-3.76965l2.73125,-1.87345l3.51538,1.74377l3.34832,-2.38269l4.00818,0.97934l3.17022,-3.79691l-0.16487,-0.59044l-3.29616,-5.4438l-3.57669,2.07045l-3.38516,-2.61642l-3.44154,2.98998l-2.95961,-3.01528l4.68312,-3.65547l1.87193,-0.02141c0,0 0.86038,-6.14686 4.01376,-6.25839c1.08159,-0.03826 2.86987,2.09258 4.21727,3.04603c1.34482,0.95161 2.24981,0.72583 2.24981,0.72583l1.93143,1.10709l4.51535,6.7754z" fill="url(#color-1)" stroke-linecap="round"/><path d="M346.75773,148.66681c0,2.0542 -0.71018,3.71946 -1.58624,3.71946c-0.87606,0 -1.58624,-1.66526 -1.58624,-3.71946c0,-2.0542 0.71018,-3.71946 1.58624,-3.71946c0.87606,0 1.58624,1.66526 1.58624,3.71946z" fill="#001515" stroke-linecap="butt"/></g><path d="M276.68347,199.97841v-60.82023h86.62275v60.82023z" fill="none" stroke="#000000" stroke-width="1" stroke-linecap="butt"/></g></g></svg>