<svg version="1.1" xmlns="http://www.w3.org/2000/svg" xmlns:xlink="http://www.w3.org/1999/xlink" width="116.99013" height="117.25272" viewBox="0,0,116.99013,117.25272"><g transform="translate(-261.99684,-123.36381)"><g stroke-miterlimit="10"><path d="M328.11917,185.59811c-2.30249,-7.97615 8.98016,-19.28401 8.98016,-19.28401c0,0 29.73473,16.36534 33.41067,29.09939c3.67594,12.73405 -16.43046,29.72272 -16.43046,29.72272c0,0 -23.65791,-31.56198 -25.96038,-39.53813z" fill-opacity="0.01176" fill="#00ab1f" stroke="none" stroke-width="0" stroke-linecap="round"/><g fill="none" stroke="#000000" stroke-width="0" stroke-linecap="round"><path d="M279.99914,202.12662l-17.73609,-21.60164"/><path d="M271.58587,179.84283l2.95601,8.18588"/><path d="M277.72528,184.61792l-2.04647,-5.00248"/></g><path d="M305.93235,166.4654c0,0 7.78831,-33.03512 19.06942,-39.99255c11.28109,-6.95742 33.04107,7.8543 33.04107,7.8543c0,0 -24.05814,31.25794 -31.12424,35.61582c-7.06609,4.35788 -20.98626,-3.47756 -20.98626,-3.47756z" fill="#00ab1f" stroke="#000000" stroke-width="2.5" stroke-linecap="round"/><path d="M315.37077,162.90513c0,0 24.39648,-23.59635 37.64835,-23.35907c13.25191,0.23728 23.56576,24.4552 23.56576,24.4552c0,0 -37.12951,13.31362 -45.43003,13.16498c-8.30052,-0.14864 -15.7841,-14.2611 -15.7841,-14.2611z" fill="#00ab1f" stroke="#000000" stroke-width="2.5" stroke-linecap="round"/><path d="M302.49628,178.66491c-7.06609,-4.35788 -31.12421,-35.61581 -31.12421,-35.61581c0,0 21.75998,-14.81173 33.04105,-7.8543c11.28109,6.95742 19.06942,39.99255 19.06942,39.99255c0,0 -13.92017,7.83545 -20.98626,3.47757z" fill="#00ab1f" stroke="#000000" stroke-width="2.5" stroke-linecap="round"/><path d="M309.81523,183.31836c-8.27253,0.6971 -46.201,-10.13265 -46.201,-10.13265c0,0 8.6902,-24.84682 21.89739,-25.9597c13.20719,-1.1129 39.11033,20.81893 39.11033,20.81893c0,0 -6.53418,14.57637 -14.80671,15.27342z" fill="#00ab1f" stroke="#000000" stroke-width="2.5" stroke-linecap="round"/><path d="M322.94887,184.52684c-4.76904,6.79535 -37.398,28.95849 -37.398,28.95849c0,0 -13.49592,-22.59962 -5.88209,-33.44852c7.61384,-10.8489 41.05252,-16.66547 41.05252,-16.66547c0,0 6.99662,14.36012 2.22755,21.15548z" fill="#00ab1f" stroke="#000000" stroke-width="2.5" stroke-linecap="round"/><path d="M324.36645,164.78313c0,0 32.74739,-8.92098 44.24509,-2.32765c11.49768,6.59331 8.86589,32.7841 8.86589,32.7841c0,0 -38.95005,-6.22469 -46.1518,-10.35452c-7.20173,-4.12984 -6.95918,-20.10191 -6.95918,-20.10191z" fill="#00ab1f" stroke="#000000" stroke-width="2.5" stroke-linecap="round"/><path d="M308.11917,180.84811c-2.30249,-7.97615 8.98016,-19.28401 8.98016,-19.28401c0,0 29.73473,16.36534 33.41067,29.09939c3.67594,12.73405 -16.43046,29.72272 -16.43046,29.72272c0,0 -23.65791,-31.56198 -25.96038,-39.53813z" fill="#00ab1f" stroke="#000000" stroke-width="2.5" stroke-linecap="round"/><g stroke="#000000" stroke-width="2.5" stroke-linecap="butt"><path d="M309.04123,152.51648c3.17639,-2.6458 11.20343,-0.2493 17.92892,5.35277c6.72548,5.60207 9.60258,12.28828 6.42618,14.93409c-3.17639,2.6458 -11.20343,0.2493 -17.92892,-5.35277c-6.72548,-5.60207 -9.60258,-12.28828 -6.42619,-14.93409z" fill="#ffffff"/><path d="M326.96249,167.01039c-6.72548,5.60207 -14.75253,7.99856 -17.92892,5.35277c-3.17639,-2.6458 -0.29928,-9.33203 6.42618,-14.93409c6.72548,-5.60207 14.75253,-7.99856 17.92892,-5.35277c3.17639,2.6458 0.29928,9.33203 -6.42618,14.93409z" fill="#ffffff"/><path d="M320.7872,169.1613c-9.51125,0 -17.22164,-3.03327 -17.22164,-6.77502c0,-3.74175 7.7104,-6.77502 17.22164,-6.77502c9.51125,0 17.22165,3.03327 17.22165,6.77502c0,3.74175 -7.7104,6.77502 -17.22165,6.77502z" fill="#ffffff"/><path d="M312.81931,162.95729c0,-7.92251 3.64158,-14.34496 8.13364,-14.34496c4.4921,0 8.13364,6.42247 8.13364,14.34496c0,7.92251 -3.64158,14.34497 -8.13364,14.34497c-4.4921,0 -8.13364,-6.42247 -8.13364,-14.34497z" fill="#ffffff"/><path d="M312.81926,162.45172c0,-3.67005 3.5718,-6.64522 7.9778,-6.64522c4.40603,0 7.9778,2.97517 7.9778,6.64522c0,3.67005 -3.57179,6.64522 -7.9778,6.64522c-4.40603,0 -7.9778,-2.97517 -7.9778,-6.64522z" fill="#fff701"/></g><g fill="none" stroke="#000000" stroke-width="0" stroke-linecap="round"><path d="M293.99469,215.94289l35.18367,1.46599"/><path d="M319.28295,211.54493l-19.79081,-2.19898"/><path d="M322.21492,204.94799l-15.39285,2.56548"/><path d="M309.38754,198.71756l9.52891,-0.3665"/></g><g fill="none" stroke="#000000" stroke-width="0" stroke-linecap="round"><path d="M359.58414,138.23123l15.00746,-0.68216"/><path d="M374.13683,153.01131l-0.22739,-11.36929"/><path d="M365.26878,141.41464l3.86556,6.82157"/><path d="M371.86298,148.91837l-1.13693,-5.45726"/></g><g fill="none" stroke="#000000" stroke-width="0" stroke-linecap="round"><path d="M308.64974,132.09183h6.13941"/><path d="M315.4713,136.63954h-4.7751"/></g><g fill="none" stroke="#000000" stroke-width="0" stroke-linecap="round"><g><path d="M368.45218,196.2146l8.86804,1.13693"/><g><path d="M373.45467,202.35402l-27.51367,14.09791"/><path d="M347.30531,209.85774l19.1004,-8.18589"/><path d="M356.85551,200.76231l6.13941,-0.68216"/><path d="M354.12688,198.94323l11.82406,-2.72863"/><path d="M350.26132,214.63284l25.92198,-11.1419"/></g></g><path d="M345.02814,219.98976l26,-19.5"/><path d="M369.52814,204.23975l-35,20.50001l26.75,-21.5"/><path d="M353.02814,195.98976l14.5,22.5"/><path d="M360.52814,222.73975l-17.25,-44"/><path d="M346.52814,215.23975l24,-12.25"/><path d="M366.27814,214.48975l-21.5,-32"/><path d="M356.02814,191.98975l7.75,23.5"/><path d="M372.27814,205.98975l-13.25,-17.75"/></g><path d="M328.42907,194.06463c1.01015,8.24015 -8.37408,46.5519 -8.37408,46.5519c0,0 -25.15836,-7.74208 -26.77111,-20.89762c-1.61274,-13.15554 19.32145,-39.8714 19.32145,-39.8714c0,0 14.81357,5.97694 15.82371,14.21712z" fill-opacity="0.01176" fill="#00ab1f" stroke="none" stroke-width="0" stroke-linecap="round"/></g></g></svg>