<svg version="1.1" xmlns="http://www.w3.org/2000/svg" xmlns:xlink="http://www.w3.org/1999/xlink" width="55.54936" height="66.99399" viewBox="0,0,55.54936,66.99399"><g transform="translate(-212.22532,-146.50301)"><g data-paper-data="{&quot;isPaintingLayer&quot;:true}" fill-rule="nonzero" stroke="#000000" stroke-width="1.28786" stroke-linejoin="miter" stroke-miterlimit="10" stroke-dasharray="" stroke-dashoffset="0" style="mix-blend-mode: normal"><g fill="#ffff00" stroke-linecap="butt"><path d="M267.13075,174.27769c0,3.54538 -12.14685,6.41948 -27.13075,6.41948c-14.9839,0 -27.13075,-2.8741 -27.13075,-6.41948c0,-3.54538 12.14685,-6.41948 27.13075,-6.41948c14.9839,0 27.13075,2.8741 27.13075,6.41948z"></path><path d="M240,147.14694c3.54538,0 6.41948,12.14685 6.41948,27.13075c0,14.98391 -2.8741,27.13075 -6.41948,27.13075c-3.54538,0 -6.41948,-12.14684 -6.41948,-27.13075c0,-14.98391 2.8741,-27.13075 6.41948,-27.13075z"></path><path d="M259.18434,155.09334c2.50696,2.50696 -4.04986,13.12837 -14.64508,23.7236c-10.59522,10.59522 -21.21664,17.15205 -23.7236,14.64508c-2.50696,-2.50696 4.04986,-13.12837 14.64508,-23.7236c10.59522,-10.59522 21.21664,-17.15205 23.7236,-14.64508z"></path><path d="M220.81566,155.09334c2.50696,-2.50696 13.12837,4.04986 23.7236,14.64508c10.59522,10.59522 17.15205,21.21664 14.64508,23.7236c-2.50696,2.50696 -13.12837,-4.04986 -23.7236,-14.64508c-10.59522,-10.59522 -17.15205,-21.21664 -14.64508,-23.7236z"></path><path d="M264.9672,184.89449c-1.38738,3.26265 -13.69026,1.15424 -27.47927,-4.70925c-13.78901,-5.8635 -23.84251,-13.26172 -22.45513,-16.52437c1.38738,-3.26265 13.69026,-1.15424 27.47927,4.70925c13.78901,5.8635 23.84251,13.26172 22.45513,16.52437z"></path><path d="M250.61682,149.31048c3.26265,1.38738 1.15424,13.69026 -4.70925,27.47927c-5.8635,13.78901 -13.26172,23.84251 -16.52437,22.45513c-3.26265,-1.38738 -1.15424,-13.69026 4.70925,-27.47927c5.8635,-13.78901 13.26172,-23.84251 16.52437,-22.45513z"></path><path d="M237.48793,168.37013c13.78901,-5.8635 26.09189,-7.97191 27.47927,-4.70925c1.38738,3.26265 -8.66612,10.66087 -22.45513,16.52437c-13.78901,5.8635 -26.09189,7.97191 -27.47927,4.70925c-1.38738,-3.26265 8.66612,-10.66087 22.45513,-16.52437z" data-paper-data="{&quot;index&quot;:null}"></path><path d="M245.90755,171.76562c5.8635,13.78901 7.97191,26.09189 4.70925,27.47927c-3.26265,1.38738 -10.66087,-8.66612 -16.52437,-22.45513c-5.8635,-13.78901 -7.97191,-26.09189 -4.70925,-27.47927c3.26265,-1.38738 10.66087,8.66612 16.52437,22.45513z" data-paper-data="{&quot;index&quot;:null}"></path></g><path d="M235.40101,207.8465v-30.14697h8.53933v30.14697z" fill="#00ff50" stroke-linecap="butt"></path><path d="M228.01356,212.85306c-5.93758,0 -10.75094,-2.51655 -10.75094,-5.62088c0,-3.10432 4.81336,-5.62088 10.75094,-5.62088c5.93758,0 10.75094,2.51655 10.75094,5.62088c0,3.10432 -4.81336,5.62088 -10.75094,5.62088z" fill="#00ff50" stroke-linecap="butt"></path><path d="M263.53772,206.74842c0,3.20186 -5.25344,5.7975 -11.73388,5.7975c-6.48044,0 -11.73388,-2.59564 -11.73388,-5.7975c0,-3.20186 5.25344,-5.79749 11.73388,-5.79749c6.48044,0 11.73388,2.59563 11.73388,5.79749z" fill="#00ff50" stroke-linecap="butt"></path><path d="M239.90873,189.83203c-9.76732,0 -17.68529,-6.48734 -17.68529,-14.48989c0,-8.00255 7.91797,-14.48991 17.68529,-14.48991c9.76732,0 17.68529,6.48736 17.68529,14.48991c0,8.00255 -7.91797,14.48989 -17.68529,14.48989z" fill="#a90000" stroke-linecap="butt"></path><path d="M234.69954,181.73581c-0.86944,0 -1.57425,-3.00818 -1.57425,-6.71895c0,-3.71078 0.70482,-6.71895 1.57425,-6.71895c0.86944,0 1.57425,3.00818 1.57425,6.71895c0,3.71078 -0.70482,6.71895 -1.57425,6.71895z" fill="#000000" stroke-linecap="butt"></path><path d="M243.83781,180.13861c-0.56407,0 -1.02134,-2.97723 -1.02134,-6.64984c0,-3.6726 0.45727,-6.64984 1.02134,-6.64984c0.56407,0 1.02134,2.97723 1.02134,6.64984c0,3.6726 -0.45727,6.64984 -1.02134,6.64984z" fill="#000000" stroke-linecap="butt"></path><path d="M237.82497,185.11448c0,0 -3.31097,0.48307 -8.79439,-3.55114c-1.87848,-1.38202 -0.75858,-7.39883 -0.75858,-7.39883" fill="none" stroke-linecap="round"></path></g></g></svg>