<svg version="1.1" xmlns="http://www.w3.org/2000/svg" xmlns:xlink="http://www.w3.org/1999/xlink" width="53.87084" height="58.37549" viewBox="0,0,53.87084,58.37549"><g transform="translate(-293.29831,-154.48107)"><g stroke-miterlimit="10"><path d="M300.75001,180c0,-13.73808 8.61852,-24.875 19.25,-24.875c10.63148,0 19.25,11.13692 19.25,24.875c0,13.73808 -8.61852,24.875 -19.25,24.875c-10.63148,0 -19.25,-11.13692 -19.25,-24.875z" fill="#00ffe4" stroke="#00ffe4" stroke-width="1.28786" stroke-linecap="butt"/><path d="" fill="#520000" stroke="none" stroke-width="0.5" stroke-linecap="butt"/><path d="M297.26978,206.04151c-0.01845,-0.00002 -0.0367,-0.00014 -0.05474,-0.00036c0.01339,-0.02452 0.02766,-0.05019 0.04272,-0.07691c0.00393,0.02631 0.00794,0.05207 0.01203,0.07728z" fill="#520000" stroke="none" stroke-width="0.5" stroke-linecap="butt"/><path d="M346.52522,174.91651c-0.30872,16.25126 -8.25,27.125 -8.25,27.125l3.125,8c0,0 -19.28348,2.55699 -26.8676,2.12112c-6.83859,-0.39303 -16.1324,-2.37112 -16.1324,-2.37112l2.625,-9.25c0,0 -7.46232,-14.35846 -7.72691,-22.00944c-0.23078,-6.67325 2.22513,-13.8508 5.10191,-17.24056c2.87678,-3.38976 11.5,-4.75 11.5,-4.75c0,0 -6.37182,7.44236 -6.97507,18.59365c-0.52626,14.70792 4.97507,20.40635 4.97507,20.40635c0,0 7.10054,4.08612 11.70731,5.00125c10.15349,2.01697 14.04269,-0.62625 14.04269,-0.62625c0,0 6.02966,-7.09679 5.71664,-21.74352c-1.13568,-13.99295 -8.59164,-20.63148 -8.59164,-20.63148c0,0 16.11996,-2.09966 15.75,17.375z" fill="#520000" stroke="#000000" stroke-width="1.28786" stroke-linecap="round"/><path d="M320.27522,204.54151c0,2.62336 -0.92341,4.75 -2.0625,4.75c-1.13909,0 -2.0625,-2.12664 -2.0625,-4.75c0,-2.62336 0.92341,-4.75 2.0625,-4.75c1.13909,0 2.0625,2.12664 2.0625,4.75z" fill="#ffffff" stroke="#000000" stroke-width="1.28786" stroke-linecap="butt"/><path d="M326.77522,203.91651c0,2.62336 -0.92341,4.75 -2.0625,4.75c-1.13909,0 -2.0625,-2.12664 -2.0625,-4.75c0,-2.62336 0.92341,-4.75 2.0625,-4.75c1.13909,0 2.0625,2.12664 2.0625,4.75z" fill="#ffffff" stroke="#000000" stroke-width="1.28786" stroke-linecap="butt"/><path d="M301.40022,207.29151c0,0 -0.02595,-4.57759 1.875,-4.5c1.90095,0.07759 10.375,5 10.375,5" fill="none" stroke="#000000" stroke-width="1.28786" stroke-linecap="round"/><path d="M331.90022,195.29151l-10.375,6.375l-11.25,-8.625" fill="none" stroke="#000000" stroke-width="1.28786" stroke-linecap="round"/></g></g></svg>