<svg version="1.1" xmlns="http://www.w3.org/2000/svg" xmlns:xlink="http://www.w3.org/1999/xlink" width="96.2701" height="95.69243" viewBox="0,0,96.2701,95.69243"><g transform="translate(-191.8161,-131.23746)"><g data-paper-data="{&quot;isPaintingLayer&quot;:true}" fill-rule="nonzero" stroke-linejoin="miter" stroke-miterlimit="10" stroke-dasharray="" stroke-dashoffset="0" style="mix-blend-mode: normal"><path d="M192.3161,226.42989v-64.88824v-9.24098c0,0 2.20499,0 4.81102,0c11.2941,0 90.36138,0 90.36138,0v74.12922z" fill="#afafaf" stroke="#000000" stroke-width="1" stroke-linecap="butt"></path><path d="M192.4138,205.86668v-64.88824v-9.24098c0,0 2.20499,0 4.81102,0c11.2941,0 90.36138,0 90.36138,0v74.12922z" fill="#afafaf" stroke="#000000" stroke-width="1" stroke-linecap="butt"></path><path d="M283.54177,139.08309v60.82023h-86.62275v-60.82023z" data-paper-data="{&quot;index&quot;:null}" fill="#939393" stroke="#000000" stroke-width="1" stroke-linecap="butt"></path><text transform="translate(198.88736,219.90031) scale(0.27691,0.31365)" font-size="40" xml:space="preserve" fill="#000000" fill-rule="nonzero" stroke="none" stroke-width="1" stroke-linecap="butt" stroke-linejoin="miter" stroke-miterlimit="10" stroke-dasharray="" stroke-dashoffset="0" font-family="Sans Serif" font-weight="normal" text-anchor="start" style="mix-blend-mode: normal"><tspan x="0" dy="0">Fast and furious</tspan></text><g stroke="#000000" stroke-width="0.5"><path d="M233.8074,195.6654v-52.3639h10.60928v52.3639z" fill="#ff0000" stroke-linecap="butt"></path><path d="M243.08201,153.36674c0,3.91615 -2.75154,7.09083 -6.14574,7.09083c-3.39421,0 -3.21364,-2.35671 -3.21364,-6.27287c0,-3.91617 -0.18057,-7.9088 3.21364,-7.9088c3.39419,0 6.14574,3.17466 6.14574,7.09083z" fill="#0b8100" stroke-linecap="butt"></path><path d="M238.41526,153.07332c0,3.2107 -0.82178,5.81348 -1.83552,5.81348c-1.01373,0 -1.83553,-2.60277 -1.83553,-5.81348c0,-3.2107 0.56683,-4.25189 1.58057,-4.25189c1.01373,0 2.09047,1.04119 2.09047,4.25189z" fill="#000000" stroke-linecap="butt"></path><path d="M234.12633,150.47639l4.89746,-5.2265" fill="none" stroke-linecap="round"></path><path d="M240.4686,177.5599c0,3.32653 -2.43524,6.02322 -5.43926,6.02322c-1.43274,0 -1.06354,-5.47845 -1.06354,-5.47845c0,0 -0.50772,-6.56798 1.06354,-6.56798c3.00404,0 5.43926,2.69669 5.43926,6.02323z" fill="#ffffff" stroke-linecap="butt"></path><path d="M247.35036,153.99257l-1.3923,-3.0158l-2.75269,4.97449l2.37767,-7.13661l1.50002,2.2459l2.17422,-3.88544z" data-paper-data="{&quot;index&quot;:null}" fill="#e6ff00" stroke-linecap="round"></path><path d="M234.13408,174.73455l2.37767,7.13661l-2.75267,-4.97449z" data-paper-data="{&quot;index&quot;:null}" fill="#e6ff00" stroke-linecap="round"></path></g><g stroke="#000000" stroke-width="0.5"><path d="M211.09985,195.38778v-52.3639h10.60929v52.3639z" fill="#ff0000" stroke-linecap="butt"></path><path d="M220.37446,153.08911c0,3.91616 -2.75153,7.09083 -6.14574,7.09083c-3.3942,0 -3.21364,-2.35671 -3.21364,-6.27287c0,-3.91617 -0.18057,-7.9088 3.21364,-7.9088c3.39419,0 6.14574,3.17466 6.14574,7.09083z" fill="#0b8100" stroke-linecap="butt"></path><path d="M215.70772,152.79569c0,3.2107 -0.82178,5.81348 -1.83552,5.81348c-1.01372,0 -1.83553,-2.60278 -1.83553,-5.81348c0,-3.2107 0.56682,-4.25189 1.58057,-4.25189c1.01372,0 2.09047,1.04119 2.09047,4.25189z" fill="#000000" stroke-linecap="butt"></path><path d="M211.41879,150.19876l4.89745,-5.2265" fill="none" stroke-linecap="round"></path><path d="M217.76106,177.28228c0,3.32653 -2.43523,6.02322 -5.43926,6.02322c-1.43275,0 -1.06354,-5.47845 -1.06354,-5.47845c0,0 -0.50772,-6.56798 1.06354,-6.56798c3.00403,0 5.43926,2.69669 5.43926,6.02324z" fill="#ffffff" stroke-linecap="butt"></path><path d="M224.64281,153.71495l-1.3923,-3.0158l-2.75269,4.97449l2.37768,-7.13661l1.50001,2.2459l2.17422,-3.88544z" data-paper-data="{&quot;index&quot;:null}" fill="#e6ff00" stroke-linecap="round"></path><path d="M211.42654,174.45692l2.37768,7.13661l-2.75268,-4.97449z" data-paper-data="{&quot;index&quot;:null}" fill="#e6ff00" stroke-linecap="round"></path></g><g stroke="#000000" stroke-width="0.5"><path d="M257.66117,195.44v-52.3639h10.60929v52.3639z" fill="#ff0000" stroke-linecap="butt"></path><path d="M266.93578,153.14133c0,3.91616 -2.75154,7.09083 -6.14574,7.09083c-3.3942,0 -3.21364,-2.35671 -3.21364,-6.27287c0,-3.91617 -0.18057,-7.9088 3.21364,-7.9088c3.3942,0 6.14574,3.17466 6.14574,7.09083z" fill="#0b8100" stroke-linecap="butt"></path><path d="M262.26904,152.84792c0,3.2107 -0.82178,5.81348 -1.83552,5.81348c-1.01373,0 -1.83553,-2.60278 -1.83553,-5.81348c0,-3.2107 0.56682,-4.25189 1.58057,-4.25189c1.01373,0 2.09047,1.04119 2.09047,4.25189z" fill="#000000" stroke-linecap="butt"></path><path d="M257.98011,150.25099l4.89745,-5.2265" fill="none" stroke-linecap="round"></path><path d="M264.32238,177.3345c0,3.32653 -2.43523,6.02322 -5.43926,6.02322c-1.43275,0 -1.06354,-5.47845 -1.06354,-5.47845c0,0 -0.50772,-6.56798 1.06354,-6.56798c3.00403,0 5.43926,2.69669 5.43926,6.02324z" fill="#ffffff" stroke-linecap="butt"></path><path d="M271.20413,153.76717l-1.3923,-3.0158l-2.75269,4.97449l2.37768,-7.13661l1.50001,2.2459l2.17422,-3.88544z" data-paper-data="{&quot;index&quot;:null}" fill="#e6ff00" stroke-linecap="round"></path><path d="M257.98786,174.50915l2.37768,7.13661l-2.75268,-4.97449z" data-paper-data="{&quot;index&quot;:null}" fill="#e6ff00" stroke-linecap="round"></path></g></g></g></svg>