<svg version="1.1" xmlns="http://www.w3.org/2000/svg" xmlns:xlink="http://www.w3.org/1999/xlink" width="64.7547" height="88.41618" viewBox="0,0,64.7547,88.41618"><defs><linearGradient x1="319.95335" y1="137.31685" x2="319.95335" y2="222.13082" gradientUnits="userSpaceOnUse" id="color-1"><stop offset="0" stop-color="#878787"/><stop offset="1" stop-color="#8459e0"/></linearGradient><linearGradient x1="334.84953" y1="175.99997" x2="334.84953" y2="198.95429" gradientUnits="userSpaceOnUse" id="color-2"><stop offset="0" stop-color="#88db6d"/><stop offset="1" stop-color="#a2db8e"/></linearGradient><linearGradient x1="312.4876" y1="180.82017" x2="312.4876" y2="202.14685" gradientUnits="userSpaceOnUse" id="color-3"><stop offset="0" stop-color="#88db6d"/><stop offset="1" stop-color="#a2db8e"/></linearGradient><linearGradient x1="331.11912" y1="159.67412" x2="331.11912" y2="178.36651" gradientUnits="userSpaceOnUse" id="color-4"><stop offset="0" stop-color="#5bdb31"/><stop offset="1" stop-color="#88db6d"/></linearGradient><linearGradient x1="307.07894" y1="165.47022" x2="307.07894" y2="184.15079" gradientUnits="userSpaceOnUse" id="color-5"><stop offset="0" stop-color="#5bdb31"/><stop offset="1" stop-color="#88db6d"/></linearGradient><linearGradient x1="321.6835" y1="158.17646" x2="321.6835" y2="201.45736" gradientUnits="userSpaceOnUse" id="color-6"><stop offset="0" stop-color="#fade53"/><stop offset="1" stop-color="#faf1c6"/></linearGradient><linearGradient x1="316.18963" y1="180.2734" x2="316.18963" y2="182.16668" gradientUnits="userSpaceOnUse" id="color-7"><stop offset="0" stop-color="#f75aff"/><stop offset="1" stop-color="#fa95ff"/></linearGradient><linearGradient x1="326.98356" y1="177.68815" x2="326.98356" y2="179.58143" gradientUnits="userSpaceOnUse" id="color-8"><stop offset="0" stop-color="#f75aff"/><stop offset="1" stop-color="#fa95ff"/></linearGradient><linearGradient x1="334.68788" y1="175.67666" x2="334.68788" y2="198.631" gradientUnits="userSpaceOnUse" id="color-9"><stop offset="0" stop-color="#88db6d"/><stop offset="1" stop-color="#a2db8e"/></linearGradient><linearGradient x1="312.32596" y1="180.49687" x2="312.32596" y2="201.82354" gradientUnits="userSpaceOnUse" id="color-10"><stop offset="0" stop-color="#88db6d"/><stop offset="1" stop-color="#a2db8e"/></linearGradient><linearGradient x1="330.95747" y1="159.35083" x2="330.95747" y2="178.04321" gradientUnits="userSpaceOnUse" id="color-11"><stop offset="0" stop-color="#5bdb31"/><stop offset="1" stop-color="#88db6d"/></linearGradient><linearGradient x1="306.91729" y1="165.14692" x2="306.91729" y2="183.82749" gradientUnits="userSpaceOnUse" id="color-12"><stop offset="0" stop-color="#5bdb31"/><stop offset="1" stop-color="#88db6d"/></linearGradient><linearGradient x1="321.52185" y1="157.85316" x2="321.52185" y2="201.13406" gradientUnits="userSpaceOnUse" id="color-13"><stop offset="0" stop-color="#fade53"/><stop offset="1" stop-color="#faf1c6"/></linearGradient><linearGradient x1="316.02798" y1="179.9501" x2="316.02798" y2="181.84337" gradientUnits="userSpaceOnUse" id="color-14"><stop offset="0" stop-color="#f75aff"/><stop offset="1" stop-color="#fa95ff"/></linearGradient><linearGradient x1="326.82191" y1="177.36485" x2="326.82191" y2="179.25812" gradientUnits="userSpaceOnUse" id="color-15"><stop offset="0" stop-color="#f75aff"/><stop offset="1" stop-color="#fa95ff"/></linearGradient><linearGradient x1="319.59165" y1="209.32887" x2="319.59165" y2="222.14281" gradientUnits="userSpaceOnUse" id="color-16"><stop offset="0" stop-color="#7c7c7c"/><stop offset="1" stop-color="#7a7a7a"/></linearGradient><linearGradient x1="292.41661" y1="137.2988" x2="292.41661" y2="222.11282" gradientUnits="userSpaceOnUse" id="color-17"><stop offset="0" stop-color="#969696"/><stop offset="1" stop-color="#7a7a7a"/></linearGradient><linearGradient x1="347.75417" y1="137.36757" x2="347.75417" y2="222.18158" gradientUnits="userSpaceOnUse" id="color-18"><stop offset="0" stop-color="#969696"/><stop offset="1" stop-color="#7a7a7a"/></linearGradient><linearGradient x1="306.45662" y1="190.23432" x2="306.45662" y2="211.2362" gradientUnits="userSpaceOnUse" id="color-19"><stop offset="0" stop-color="#858585"/><stop offset="1" stop-color="#818181"/></linearGradient><linearGradient x1="325.03236" y1="202.82136" x2="325.03236" y2="214.97976" gradientUnits="userSpaceOnUse" id="color-20"><stop offset="0" stop-color="#808080"/><stop offset="1" stop-color="#7d7d7d"/></linearGradient></defs><g transform="translate(-287.15141,-137.08963)"><g stroke-miterlimit="10"><path d="M351.40105,137.31686v84.81396h-62.89539v-84.81396z" fill="url(#color-1)" stroke="none" stroke-width="0" stroke-linecap="butt"/><g><path d="M336.352,175.99997c0,0 4.6965,6.1535 6.8425,11.09277c2.35988,6.04232 -4.15424,11.06943 -4.15424,11.06943c0,0 1.56813,-4.66964 -0.7505,-6.79062c-3.40834,-2.03111 -4.89908,-1.11387 -4.89908,-1.11387c0,0 2.89656,0.92407 3.62398,4.85802c-0.26433,2.91223 -3.64507,3.83857 -3.64507,3.83857c0,0 0.41175,-2.13187 -2.11474,-3.22143c-1.79353,-0.64127 -5.01555,-0.78929 -5.01555,-0.78929" fill="url(#color-2)" stroke="#ffffff" stroke-width="3.5" stroke-linecap="round"/><path d="M323.0172,196.56997c0,0 -4.44608,1.21889 -6.04159,2.25923c-1.59413,1.03946 -2.23663,3.31764 -2.23663,3.31764c0,0 -3.01556,-0.02299 -2.92817,-3.36096c0.29822,-2.84827 1.81552,-4.78591 1.81552,-4.78591c0,0 -3.16294,0.90314 -4.50632,2.22143c-1.39049,1.36451 -0.15634,3.35929 -0.15634,3.35929c0,0 -6.28432,-2.56714 -5.60819,-6.3817c0.9399,-5.30266 4.0785,-12.37883 4.0785,-12.37883" fill="url(#color-3)" stroke="#ffffff" stroke-width="3.5" stroke-linecap="round"/><path d="M320.23669,163.45236c0,0 7.12364,-3.23582 12.4618,-3.94703c3.8401,-0.51164 7.43706,0.37454 7.43706,0.37454c0,0 -3.889,1.05252 -6.97429,5.58898c-2.20594,3.06655 -0.02296,4.73639 -0.02296,4.73639c0,0 0.97698,-2.02757 4.54762,-2.33721c2.69844,-0.18586 4.31563,0.21751 4.31563,0.21751c0,0 -0.65308,0.5176 -3.88951,3.07343c-0.77339,1.04642 0.16434,1.96058 -0.29286,2.59992c-1.10793,1.54934 -2.13272,4.60763 -2.13272,4.60763" fill="url(#color-4)" stroke="#ffffff" stroke-width="3.5" stroke-linecap="round"/><path d="M304.40737,184.15079c0,0 -0.35903,-1.82361 -2.73432,-4.2781c-2.84911,-2.80949 -5.10227,-4.03343 -5.10227,-4.03343c0,0 1.67823,-1.22563 3.20057,-1.24515c2.75106,-0.02005 6.06086,1.12641 6.06086,1.12641c0,0 -0.61828,-2.12163 -2.98495,-4.04125c-3.60787,-2.314 -6.39522,-2.60798 -6.39522,-2.60798c0,0 4.31242,-3.99443 8.18643,-4.00509c8.59118,-0.01481 13.06736,2.22405 13.06736,2.22405" fill="url(#color-5)" stroke="#ffffff" stroke-width="3.5" stroke-linecap="round"/><path d="M301.49789,183.95731c0,0 4.32574,-0.82803 10.33033,-9.03207c5.08925,-7.85568 5.39158,-16.74877 5.39158,-16.74877c0,0 3.66688,6.45394 11.95875,12.1609c8.43691,5.2343 14.30704,4.8542 14.30704,4.8542c0,0 -5.33499,3.27244 -11.03686,11.14366c-5.45468,8.03732 -6.30155,15.12213 -6.30155,15.12213c0,0 -3.43491,-6.1088 -10.72867,-10.98942c-8.44682,-5.89159 -13.92063,-6.51063 -13.92063,-6.51063z" fill="url(#color-6)" stroke="#ffffff" stroke-width="4" stroke-linecap="butt"/><path d="M319.62909,181.22003c0,0.52282 -1.5399,0.94664 -3.43946,0.94664c-1.89956,0 -3.43946,-0.42382 -3.43946,-0.94664c0,-0.52282 1.5399,-0.94664 3.43946,-0.94664c1.89956,0 3.43946,0.42382 3.43946,0.94664z" fill="url(#color-7)" stroke="#ffffff" stroke-width="3.5" stroke-linecap="butt"/><path d="M320.26018,177.24415c0,2.54437 -0.64987,4.60698 -1.45152,4.60698c-0.80165,0 -1.45151,-2.06261 -1.45151,-4.60698c0,-2.54437 0.64987,-4.60698 1.45151,-4.60698c0.80165,0 1.45152,2.06261 1.45152,4.60698z" fill="#fafafa" stroke="#ffffff" stroke-width="3.5" stroke-linecap="butt"/><path d="M330.42303,178.63478c0,0.52282 -1.5399,0.94665 -3.43946,0.94665c-1.89956,0 -3.43946,-0.42383 -3.43946,-0.94665c0,-0.52282 1.5399,-0.94663 3.43946,-0.94663c1.89956,0 3.43946,0.42382 3.43946,0.94663z" fill="url(#color-8)" stroke="#ffffff" stroke-width="3.5" stroke-linecap="butt"/><path d="M325.87692,175.47709c0,2.23068 -0.66399,4.03901 -1.48307,4.03901c-0.81907,0 -1.48307,-1.80832 -1.48307,-4.03901c0,-2.23068 0.66399,-4.03901 1.48307,-4.03901c0.81907,0 1.48307,1.80832 1.48307,4.03901z" fill="#fafafa" stroke="#ffffff" stroke-width="3.5" stroke-linecap="butt"/><path d="M319.62909,184.2493l0.37866,2.14572l-2.08261,-0.06311l-0.06311,-1.83017" fill="#ffffff" stroke="#ffffff" stroke-width="3.5" stroke-linecap="round"/><path d="M325.18271,182.86089c0,0 -1.94613,1.30063 -2.87305,1.40251c-0.801,0.08803 -2.36602,-0.82668 -2.36602,-0.82668c0,0 -1.72857,0.88195 -2.58567,0.87143c-1.65293,-0.02029 -3.09319,-1.06861 -3.09319,-1.06861" fill="none" stroke="#ffffff" stroke-width="3.5" stroke-linecap="round"/><path d="M336.19035,175.67666c0,0 4.6965,6.1535 6.8425,11.09277c2.35988,6.04231 -4.15424,11.06943 -4.15424,11.06943c0,0 1.56813,-4.66965 -0.75049,-6.79062c-3.40834,-2.03111 -4.89907,-1.11386 -4.89907,-1.11386c0,0 2.73491,1.16655 3.46233,5.1005c-0.26433,2.91223 -3.48342,3.5961 -3.48342,3.5961c0,0 0.41174,-2.13188 -2.11475,-3.22144c-1.79353,-0.64127 -5.01554,-0.78929 -5.01554,-0.78929" fill="url(#color-9)" stroke="#000000" stroke-width="1.28786" stroke-linecap="round"/><path d="M322.85555,196.24667c0,0 -4.44608,1.21889 -6.04158,2.25923c-1.59413,1.03946 -2.23663,3.31763 -2.23663,3.31763c0,0 -3.01557,-0.02299 -2.92818,-3.36095c0.29822,-2.84827 1.81552,-4.78591 1.81552,-4.78591c0,0 -3.16294,0.90315 -4.50631,2.22144c-1.39049,1.36451 -0.15634,3.35929 -0.15634,3.35929c0,0 -6.28432,-2.56714 -5.60819,-6.3817c0.9399,-5.30266 4.07849,-12.37883 4.07849,-12.37883" fill="url(#color-10)" stroke="#000000" stroke-width="1.28786" stroke-linecap="round"/><path d="M320.07504,163.12907c0,0 7.20446,-2.83169 12.54262,-3.54291c3.8401,-0.51164 7.35623,-0.02959 7.35623,-0.02959c0,0 -3.889,1.05252 -6.97429,5.58899c-2.20594,3.06655 -0.02296,4.73637 -0.02296,4.73637c0,0 0.97698,-1.62344 4.54762,-1.93308c2.69844,-0.18586 4.31563,-0.18661 4.31563,-0.18661c0,0 -0.65308,0.51761 -3.88951,3.07343c-0.77339,1.04642 0.16434,1.96057 -0.29286,2.59992c-1.10793,1.54934 -2.13272,4.60763 -2.13272,4.60763" fill="url(#color-11)" stroke="#000000" stroke-width="1.28786" stroke-linecap="round"/><path d="M304.24572,183.82749c0,0 -0.35903,-1.82361 -2.73432,-4.2781c-2.84911,-2.80949 -5.10227,-4.03343 -5.10227,-4.03343c0,0 1.67823,-1.22563 3.20057,-1.24515c2.75106,-0.02005 6.06086,1.12641 6.06086,1.12641c0,0 -0.61829,-2.12163 -2.98496,-4.04125c-3.60787,-2.314 -6.39521,-2.60798 -6.39521,-2.60798c0,0 4.47406,-3.59031 8.34807,-3.60097c8.59118,-0.01481 12.90571,1.81993 12.90571,1.81993" fill="url(#color-12)" stroke="#000000" stroke-width="1.28786" stroke-linecap="round"/><path d="M299.88139,183.95731c0,0 5.78059,-1.15133 11.78518,-9.35537c5.08925,-7.85568 5.39158,-16.74877 5.39158,-16.74877c0,0 3.66688,6.45394 11.95875,12.1609c8.43691,5.2343 14.1454,5.01585 14.1454,5.01585c0,0 -5.17334,3.11079 -10.8752,10.98202c-5.45468,8.03732 -6.30155,15.12213 -6.30155,15.12213c0,0 -3.43491,-6.1088 -10.72868,-10.98942c-8.44682,-5.89159 -15.37547,-6.18733 -15.37547,-6.18733z" fill="url(#color-13)" stroke="#000000" stroke-width="1.28786" stroke-linecap="butt"/><path d="M319.46744,180.89674c0,0.52282 -1.5399,0.94664 -3.43946,0.94664c-1.89956,0 -3.43946,-0.42383 -3.43946,-0.94664c0,-0.52282 1.5399,-0.94664 3.43946,-0.94664c1.89956,0 3.43946,0.42382 3.43946,0.94664z" fill="url(#color-14)" stroke="none" stroke-width="0" stroke-linecap="butt"/><path d="M320.09853,176.92085c0,2.54437 -0.64987,4.60699 -1.45152,4.60699c-0.80165,0 -1.45151,-2.06262 -1.45151,-4.60699c0,-2.54437 0.64987,-4.60699 1.45151,-4.60699c0.80165,0 1.45152,2.06262 1.45152,4.60699z" fill="#fafafa" stroke="#000000" stroke-width="1.28786" stroke-linecap="butt"/><path d="M330.26138,178.31149c0,0.52282 -1.5399,0.94664 -3.43946,0.94664c-1.89956,0 -3.43946,-0.42383 -3.43946,-0.94664c0,-0.52282 1.5399,-0.94664 3.43946,-0.94664c1.89956,0 3.43946,0.42382 3.43946,0.94664z" fill="url(#color-15)" stroke="none" stroke-width="0" stroke-linecap="butt"/><path d="M325.71527,175.15378c0,2.23068 -0.66399,4.03901 -1.48307,4.03901c-0.81907,0 -1.48307,-1.80832 -1.48307,-4.03901c0,-2.23068 0.66399,-4.039 1.48307,-4.039c0.81907,0 1.48307,1.80832 1.48307,4.039z" fill="#fafafa" stroke="#000000" stroke-width="1.28786" stroke-linecap="butt"/><path d="M319.46743,183.926l0.37866,2.14571l-2.08261,-0.0631l-0.06311,-1.83018" fill="#ffffff" stroke="#000000" stroke-width="1.28786" stroke-linecap="round"/><path d="M325.02107,182.53759c0,0 -1.94614,1.30063 -2.87306,1.40251c-0.801,0.08803 -2.36602,-0.82668 -2.36602,-0.82668c0,0 -1.72857,0.88195 -2.58567,0.87144c-1.65293,-0.02029 -3.09319,-1.06862 -3.09319,-1.06862" fill="none" stroke="#000000" stroke-width="1.28786" stroke-linecap="round"/></g><path d="M288.14394,222.14281v-12.81396h62.89539v12.81396z" fill="url(#color-16)" stroke="none" stroke-width="0" stroke-linecap="butt"/><path d="M288.09391,222.11282v-84.81396h8.64539v84.81396z" fill="url(#color-17)" stroke="none" stroke-width="0" stroke-linecap="butt"/><path d="M343.68149,222.18158v-84.81396h8.14539v84.81396z" fill="url(#color-18)" stroke="none" stroke-width="0" stroke-linecap="butt"/><path d="M288.14394,147.40359v-10.31396h62.89539v10.31396z" fill="#969696" stroke="none" stroke-width="0" stroke-linecap="butt"/><path d="M295.88897,211.2362v-21.00188l21.13534,21.00188z" fill="url(#color-19)" stroke="none" stroke-width="0" stroke-linecap="butt"/><path d="M303.00344,214.97976v-12.15842h44.05785v12.15842z" fill="url(#color-20)" stroke="none" stroke-width="0" stroke-linecap="butt"/><text transform="translate(318.75526,219.25581) scale(0.47116,0.5)" font-size="40" xml:space="preserve" fill="#000000" stroke="none" stroke-width="1" stroke-linecap="butt" font-family="Sans Serif" font-weight="normal" text-anchor="start"><tspan x="0" dy="0">125</tspan></text><g stroke-linecap="butt"><path d="M303.52763,213.44923l-2.65375,6.84999l-2.38631,-6.84999z" fill="#ffff00" stroke="#ffff00" stroke-width="1"/><path d="M298.55938,202.07342l2.38632,-6.84999l2.65375,6.84999z" fill="#ffff00" stroke="#ffff00" stroke-width="1"/><path d="M294.37597,207.97259c0,-3.72115 3.01658,-6.73773 6.73773,-6.73773c3.72115,0 6.73772,3.01658 6.73772,6.73773c0,3.72115 -3.01658,6.73772 -6.73772,6.73772c-3.72115,0 -6.73773,-3.01658 -6.73773,-6.73772z" fill="#ffff00" stroke="none" stroke-width="0"/><path d="M306.80397,205.43749l6.87114,2.59848l-6.83054,2.44142z" fill="#ffff00" stroke="#ffff00" stroke-width="1"/><path d="M295.46853,210.49722l-6.86899,-2.33105l6.82838,-2.70885z" fill="#ffff00" stroke="#ffff00" stroke-width="1"/><path d="M307.11957,210.08398l3.04475,6.68537l-6.56714,-3.08051z" fill="#ffff00" stroke="#ffff00" stroke-width="1"/><path d="M295.51088,205.68721l-3.23165,-6.49409l6.75404,2.88922z" fill="#ffff00" stroke="#ffff00" stroke-width="1"/><path d="M303.679,202.14138l6.66063,-3.0985l-3.02751,6.59174z" fill="#ffff00" stroke="#ffff00" stroke-width="1"/><path d="M299.37585,213.78509l-6.46785,3.28387l2.83472,-6.7771z" fill="#ffff00" stroke="#ffff00" stroke-width="1"/><path d="M296.39222,208.17317c0,-2.70702 2.19448,-4.90151 4.9015,-4.90151c2.70702,0 4.90151,2.19448 4.90151,4.90151c0,2.70702 -2.19448,4.9015 -4.90151,4.9015c-2.70702,0 -4.9015,-2.19448 -4.9015,-4.9015z" fill="#fffff7" stroke="none" stroke-width="0"/></g><path d="M351.90611,137.19466v33.64619l-33.86,-33.64619z" fill="#3aff00" stroke="none" stroke-width="0" stroke-linecap="butt"/></g></g></svg>