<svg version="1.1" xmlns="http://www.w3.org/2000/svg" xmlns:xlink="http://www.w3.org/1999/xlink" width="101.62843" height="88.4087" viewBox="0,0,101.62843,88.4087"><g transform="translate(-207.13265,-135.92065)"><g data-paper-data="{&quot;isPaintingLayer&quot;:true}" fill-rule="nonzero" stroke-linejoin="miter" stroke-miterlimit="10" stroke-dasharray="" stroke-dashoffset="0" style="mix-blend-mode: normal"><text transform="translate(277.24295,188.00197) scale(0.66683,0.66683)" font-size="40" xml:space="preserve" fill="#000000" fill-rule="nonzero" stroke="none" stroke-width="1" stroke-linecap="butt" stroke-linejoin="miter" stroke-miterlimit="10" stroke-dasharray="" stroke-dashoffset="0" font-family="Sans Serif" font-weight="normal" text-anchor="start" style="mix-blend-mode: normal"><tspan x="0" dy="0">+1</tspan></text><path d="M208.12516,220.92625v-84.81396h62.89539v84.81396z" fill="#515151" stroke="none" stroke-width="0" stroke-linecap="butt"></path><g stroke="#000000" stroke-width="1.28786"><g><path d="M217.41889,163.4848l-0.65971,-6.87544l3.568,-4.6177v11.49314z" fill="#3fff7c" stroke-linecap="butt"></path><path d="M221.12223,176.89007c0,0 -3.70172,-4.15109 -4.80733,-7.41932c-1.10561,-3.26822 -0.75646,-4.70976 0.11111,-6.46285c0.91429,-1.84748 2.53477,-3.9724 5.1582,-4.28405c2.62343,-0.31165 5.19892,1.24581 5.70381,2.99369c0.55846,1.93333 -4.32156,6.39929 -4.32004,6.52071c0.01022,0.82066 -1.31087,-3.66063 -1.31087,-3.66063l2.41009,9.52375z" fill="#3fff7c" stroke-linecap="butt"></path><path d="M221.75607,164.65081c0,0 0.05697,-1.07524 0.63267,-1.69937c0.3872,-0.41977 1.32545,-0.42317 1.44815,-0.55711c0.14522,-0.15853 -0.3399,0.35601 -0.3399,0.35601" fill="none" stroke-linecap="round"></path></g><path d="M251.53988,205.04688z" fill="none" stroke-linecap="butt"></path><path d="M251.17529,173.14495c3.12573,3.38316 10.95083,9.13069 11.47329,13.22099c0.20489,1.60402 -4.63175,2.87857 -9.04061,1.85486c-6.00456,-1.39421 -7.14346,1.21718 -7.14819,1.22156c-1.69464,1.56568 -5.68994,0.11823 -4.4136,4.6326c0.64689,2.288 -1.12073,3.06018 0.63278,5.2944c0.60094,0.76568 0.76904,3.00754 0.75395,3.03404c-2.20968,3.88134 -13.87558,-1.41077 -17.70103,-5.55129c-7.65079,-8.28091 -7.67697,-21.2923 -1.52848,-26.97292c6.14849,-5.68063 19.3211,-5.01513 26.9719,3.26579z" fill="#00a735" stroke-linecap="butt"></path><path d="M263.25072,189.72027c1.48485,5.94997 -3.20604,12.06892 -10.47737,13.66705c-7.27132,1.59812 -11.51244,0.35588 -12.99728,-5.59409c-1.12409,-4.5044 0.88024,-7.12651 4.47942,-10.42631c0.58798,-0.53907 5.34352,-4.98414 9.71135,-5.08128c4.21258,-0.09369 8.55491,4.51346 9.2839,7.43462z" fill="#ccf280" stroke-linecap="butt"></path><path d="M249.32568,192.6597c-0.9171,0 -1.66055,-1.50554 -1.66055,-3.36273c0,-1.85718 0.74346,-3.36272 1.66055,-3.36272c0.91709,0 1.66055,1.50554 1.66055,3.36272c0,1.85718 -0.74345,3.36273 -1.66055,3.36273z" fill="#000000" stroke-linecap="butt"></path><path d="M256.77428,191.91907c-1.11833,0 -2.02492,-1.42265 -2.02492,-3.17757c0,-1.75492 0.90659,-3.17756 2.02492,-3.17756c1.11833,0 2.02492,1.42264 2.02492,3.17756c0,1.75492 -0.90659,3.17757 -2.02492,3.17757z" fill="#000000" stroke-linecap="butt"></path><path d="M256.22651,196.26624c0,0 -6.6964,3.66506 -8.474,3.40985c-1.7776,-0.25521 1.09642,-4.46904 1.09642,-4.46904l10.70399,1.50516" fill="#000000" stroke-linecap="round"></path></g><path d="M208.12518,220.90629v-12.81396h62.89539v12.81396z" fill="#969696" stroke="none" stroke-width="0" stroke-linecap="butt"></path><path d="M208.07514,220.87629v-84.81396h8.64539v84.81396z" fill="#969696" stroke="none" stroke-width="0" stroke-linecap="butt"></path><path d="M263.62518,220.92628v-84.81396h8.14539v84.81396z" fill="#969696" stroke="none" stroke-width="0" stroke-linecap="butt"></path><path d="M208.12518,146.42628v-10.31396h62.89539v10.31396z" fill="#969696" stroke="none" stroke-width="0" stroke-linecap="butt"></path><path d="M215.87019,209.99969v-21.00188l21.13534,21.00188z" fill="#969696" stroke="none" stroke-width="0" stroke-linecap="butt"></path><path d="M222.98466,213.74326v-12.15842h44.05785v12.15842z" fill="#969696" stroke="none" stroke-width="0" stroke-linecap="butt"></path><text transform="translate(238.28239,218.07935) scale(0.47116,0.5)" font-size="40" xml:space="preserve" fill="#000000" fill-rule="nonzero" stroke="none" stroke-width="1" stroke-linecap="butt" stroke-linejoin="miter" stroke-miterlimit="10" stroke-dasharray="" stroke-dashoffset="0" font-family="Sans Serif" font-weight="normal" text-anchor="start" style="mix-blend-mode: normal"><tspan x="0" dy="0">175</tspan></text><g stroke-linecap="butt"><path d="M223.50885,212.21274l-2.65375,6.84999l-2.38631,-6.84999z" data-paper-data="{&quot;index&quot;:null}" fill="#ffff00" stroke="#ffff00" stroke-width="1"></path><path d="M218.5406,200.83689l2.38632,-6.84999l2.65375,6.84999z" fill="#ffff00" stroke="#ffff00" stroke-width="1"></path><path d="M214.3572,206.73609c0,-3.72115 3.01658,-6.73773 6.73773,-6.73773c3.72115,0 6.73772,3.01658 6.73772,6.73773c0,3.72115 -3.01658,6.73772 -6.73772,6.73772c-3.72115,0 -6.73773,-3.01658 -6.73773,-6.73772z" fill="#ffff00" stroke="none" stroke-width="0"></path><path d="M226.78521,204.20099l6.87114,2.59848l-6.83054,2.44142z" data-paper-data="{&quot;index&quot;:null}" fill="#ffff00" stroke="#ffff00" stroke-width="1"></path><path d="M215.44977,209.26073l-6.86899,-2.33105l6.82838,-2.70885z" fill="#ffff00" stroke="#ffff00" stroke-width="1"></path><path d="M227.10079,208.84748l3.04475,6.68537l-6.56714,-3.08051z" data-paper-data="{&quot;index&quot;:null}" fill="#ffff00" stroke="#ffff00" stroke-width="1"></path><path d="M215.49211,204.45067l-3.23165,-6.49409l6.75404,2.88922z" fill="#ffff00" stroke="#ffff00" stroke-width="1"></path><path d="M223.66022,200.90486l6.66063,-3.0985l-3.02751,6.59174z" data-paper-data="{&quot;index&quot;:null}" fill="#ffff00" stroke="#ffff00" stroke-width="1"></path><path d="M219.35707,212.54859l-6.46785,3.28387l2.83472,-6.7771z" fill="#ffff00" stroke="#ffff00" stroke-width="1"></path><path d="M216.37344,206.93665c0,-2.70702 2.19448,-4.90151 4.9015,-4.90151c2.70702,0 4.90151,2.19448 4.90151,4.90151c0,2.70702 -2.19448,4.9015 -4.90151,4.9015c-2.70702,0 -4.9015,-2.19448 -4.9015,-4.9015z" fill="#fffff7" stroke="none" stroke-width="0"></path></g><path d="M271.92487,135.92065v33.64619l-33.86,-33.64619z" fill="#3aff00" stroke="none" stroke-width="0" stroke-linecap="butt"></path></g></g></svg>