<svg version="1.1" xmlns="http://www.w3.org/2000/svg" xmlns:xlink="http://www.w3.org/1999/xlink" width="96.1724" height="97.40341" viewBox="0,0,96.1724,97.40341"><defs><linearGradient x1="279.63563" y1="144.55829" x2="279.63563" y2="175.97309" gradientUnits="userSpaceOnUse" id="color-1"><stop offset="0" stop-color="#1dffce"></stop><stop offset="1" stop-color="#30beff"></stop></linearGradient></defs><g transform="translate(-191.9138,-131.09496)"><g data-paper-data="{&quot;isPaintingLayer&quot;:true}" fill-rule="nonzero" stroke-linejoin="miter" stroke-miterlimit="10" stroke-dasharray="" stroke-dashoffset="0" style="mix-blend-mode: normal"><path d="M192.4138,226.60096v-64.88824v-9.24098c0,0 2.20499,0 4.81102,0c11.2941,0 90.36138,0 90.36138,0v74.12922z" fill="#afafaf" stroke="#000000" stroke-width="1" stroke-linecap="butt"></path><path d="M192.4138,205.86681v-64.88824v-9.24098c0,0 2.20499,0 4.81102,0c11.2941,0 90.36138,0 90.36138,0v74.12922z" fill="#afafaf" stroke="#000000" stroke-width="1" stroke-linecap="butt"></path><text transform="translate(227.49782,222.60713) scale(0.4713,0.4713)" font-size="40" xml:space="preserve" fill="#000000" fill-rule="nonzero" stroke="none" stroke-width="1" stroke-linecap="butt" stroke-linejoin="miter" stroke-miterlimit="10" stroke-dasharray="" stroke-dashoffset="0" font-family="Sans Serif" font-weight="normal" text-anchor="start" style="mix-blend-mode: normal"><tspan x="0" dy="0">3-8</tspan></text><path d="M196.91902,199.8377v-60.82023h86.62275v60.82023z" fill="#939393" stroke="#000000" stroke-width="1" stroke-linecap="butt"></path><g data-paper-data="{&quot;index&quot;:null}" stroke="#000000" stroke-width="0.5"><path d="M234.80868,197.69381v-35.38762h7.16978v35.38762z" data-paper-data="{&quot;index&quot;:null}" fill="#ff0000" stroke-linecap="butt"></path><path d="M241.07648,169.10829c0,2.64655 -1.85949,4.792 -4.1533,4.792c-2.29381,0 -2.17178,-1.59267 -2.17178,-4.23922c0,-2.64655 -0.12203,-5.34478 2.17178,-5.34478c2.2938,0 4.1533,2.14544 4.1533,4.792z" data-paper-data="{&quot;index&quot;:null}" fill="#0b8100" stroke-linecap="butt"></path><path d="M237.9227,168.91c0,2.1698 -0.55535,3.92876 -1.24044,3.92876c-0.68508,0 -1.24046,-1.75896 -1.24046,-3.92876c0,-2.1698 0.38306,-2.87344 1.06815,-2.87344c0.68508,0 1.41274,0.70364 1.41274,2.87344z" data-paper-data="{&quot;index&quot;:null}" fill="#000000" stroke-linecap="butt"></path><path d="M238.33393,163.62291l-3.30971,3.53208" data-paper-data="{&quot;index&quot;:null}" fill="none" stroke-linecap="round"></path><path d="M235.63448,189.52859c-0.96825,0 -0.71874,-3.70235 -0.71874,-3.70235c0,0 -0.34312,-4.43866 0.71874,-4.43866c2.03013,0 3.67586,1.82243 3.67586,4.07051c0,2.24808 -1.64574,4.0705 -3.67586,4.0705z" data-paper-data="{&quot;index&quot;:null}" fill="#ffffff" stroke-linecap="butt"></path><path d="M243.96104,169.53124l-0.94092,-2.03809l-1.86027,3.36177l1.60684,-4.82294l1.01371,1.51778l1.46934,-2.62579z" data-paper-data="{&quot;index&quot;:null}" fill="#e6ff00" stroke-linecap="round"></path><path d="M235.02946,183.54869l1.60684,4.82294l-1.86026,-3.36177z" data-paper-data="{&quot;index&quot;:null}" fill="#e6ff00" stroke-linecap="round"></path></g><g stroke="#000000" stroke-width="0.5"><path d="M271.94791,157.38252l-0.06134,-7.11053l5.56926,-0.06376l0.12268,7.17429z" fill="#0b8100" stroke-linecap="butt"></path><path d="M274.39341,153.02534c0,1.70399 -0.43615,3.08535 -0.97416,3.08535c-0.53801,0 -0.97416,-1.38135 -0.97416,-3.08535c0,-1.70399 0.43615,-3.08535 0.97416,-3.08535c0.53801,0 0.97416,1.38135 0.97416,3.08535z" fill="#000000" stroke-linecap="butt"></path><path d="M280.45249,156.80512l-3.55612,2.39047c0,0 -1.62287,8.57724 0.84628,10.63537c1.03517,0.86285 5.43317,3.0308 5.43317,3.0308l-0.07543,3.0838c0,0 -11.03633,-0.23115 -11.17871,-0.23024c-0.41652,0.00267 -0.94782,-5.48523 -0.83835,-10.10313c0.08194,-3.45677 0.77355,-6.38429 0.77355,-6.38429l-2.26542,0.01453l-2.17767,-2.11364l1.53141,-1.05044l1.97108,0.97773l1.8774,-1.33598l2.24739,0.54912l1.77754,-2.12893l-0.09244,-0.33106l-1.84816,-3.05234l-2.00545,1.1609l-1.89806,-1.46703l-1.92967,1.67648l-1.65945,-1.69067l2.62583,-2.04962l1.04959,-0.012c0,0 0.48242,-3.44655 2.25052,-3.50908c0.60645,-0.02145 1.60914,1.17331 2.36463,1.70791c0.75404,0.53357 1.26147,0.40697 1.26147,0.40697l1.08295,0.62075l2.53176,3.79897z" data-paper-data="{&quot;index&quot;:null}" fill="url(#color-1)" stroke-linecap="round"></path><path d="M273.61355,148.34613c0,1.15179 -0.3982,2.0855 -0.88941,2.0855c-0.49121,0 -0.88941,-0.93371 -0.88941,-2.0855c0,-1.15179 0.3982,-2.0855 0.88941,-2.0855c0.49121,0 0.88941,0.93371 0.88941,2.0855z" fill="#001515" stroke-linecap="butt"></path></g><path d="M196.68347,199.97845v-60.82023h86.62275v60.82023z" fill="none" stroke="#000000" stroke-width="1" stroke-linecap="butt"></path><g stroke="#000000" stroke-width="0.5"><path d="M223.14448,180.95488v-31.64688h6.41187v31.64688z" fill="#0b8100" stroke-linecap="butt"></path><path d="M223.15366,180.99674v-18.33088h6.4706v18.33088z" fill="#740000" stroke-linecap="butt"></path><path d="M223.15366,171.07795v-8.41212h2.96887z" fill="#ffffff" stroke-linecap="butt"></path><path d="M223.10809,168.11508v-5.52438h1.94971z" fill="#ff0000" stroke-linecap="butt"></path><path d="M225.92931,155.21372c0,1.94043 -0.49666,3.51346 -1.10932,3.51346c-0.61266,0 -1.10932,-1.57302 -1.10932,-3.51346c0,-0.55994 0.04136,-1.08929 0.11493,-1.55908c0.18137,-1.15821 0.55853,-1.95438 0.9944,-1.95438c0.61266,0 1.10932,1.57302 1.10932,3.51346z" fill="#000000" stroke-linecap="butt"></path><path d="M222.69967,152.04191l1.30187,-9.81025l7.43739,0.98698l-1.30187,9.81024z" fill="#ababab" stroke-linecap="butt"></path><path d="M230.03111,153.0634c0,0 -0.52502,2.439 -4.54464,1.94788c-2.58698,-0.31608 -2.14268,-3.0211 -2.14268,-3.0211" fill="none" stroke-linecap="round"></path></g><g stroke="#000000" stroke-width="0.5" stroke-linecap="butt"><path d="M212.43549,197.88071v-30.75994l6.60009,-0.15791v30.91785z" fill="#0b8100"></path><path d="M212.44493,197.92379v-18.86898h6.66054v18.86898z" fill="#740000"></path><path d="M212.44493,187.71389v-8.65905h3.05602z" fill="#ffffff"></path><path d="M212.39803,184.66401v-5.68654h2.00693z" fill="#ff0000"></path><path d="M215.30207,171.38397c0,1.99739 -0.51123,3.61659 -1.14189,3.61659c-0.63064,0 -1.14189,-1.6192 -1.14189,-3.61659c0,-1.99739 0.51124,-3.61659 1.14189,-3.61659c0.63064,0 1.14189,1.6192 1.14189,3.61659z" fill="#000000"></path><path d="M211.74265,169.76679v-3.10246h7.86316v3.10246z" fill="#ff6e00"></path><path d="M212.33476,166.56169l1.89487,-6.497h2.88919l1.97383,6.497z" fill="#ff6e00"></path></g><g stroke="#000000" stroke-width="0.5" stroke-linecap="butt"><path d="M201.90481,178.85255v-34.91026h7.07305v34.91026z" fill="#0b8100"></path><path d="M201.91493,178.8987v-20.22114h7.13784v20.22114z" fill="#740000"></path><path d="M201.91493,167.95715v-9.27956h3.27501z" fill="#ffffff"></path><path d="M201.86466,164.68872v-6.09404h2.15076z" fill="#ff0000"></path><path d="M204.97681,150.457c0,2.14052 -0.54788,3.87576 -1.22372,3.87576c-0.67584,0 -1.22371,-1.73523 -1.22371,-3.87576c0,-2.14052 0.54788,-3.87576 1.22371,-3.87576c0.67584,0 1.22372,1.73523 1.22372,3.87576z" fill="#000000"></path></g><g stroke="#000000" stroke-width="0.5" stroke-linecap="butt"><path d="M257.05928,180.66873c-1.2254,0.05912 -2.1662,0.16125 -2.2014,-0.56848c-0.0352,-0.72974 0.84851,-2.015 2.07391,-2.07412c1.2254,-0.05912 2.24732,0.48453 2.28253,1.21426c0.0352,0.72974 -0.92964,1.36922 -2.15504,1.42834z" data-paper-data="{&quot;index&quot;:null}" fill="#f6ff30"></path><path d="M250.99193,178.96864c0.0352,-0.72974 1.05713,-1.27337 2.28253,-1.21426c1.2254,0.05912 2.10912,1.34439 2.07392,2.07412c-0.0352,0.72974 -0.976,0.6276 -2.2014,0.56848c-1.2254,-0.05912 -2.19025,-0.6986 -2.15504,-1.42834z" data-paper-data="{&quot;index&quot;:null}" fill="#f6ff30"></path><path d="M259.56424,196.60183v-26.62356h5.39411v26.62356z" fill="#0b8100"></path><path d="M259.57196,196.63704v-15.42121h5.44352v15.42121z" fill="#ff0000"></path><path d="M261.90703,174.94659c0,1.63242 -0.41783,2.95577 -0.93324,2.95577c-0.51541,0 -0.93324,-1.32334 -0.93324,-2.95577c0,-1.63242 0.41783,-2.95577 0.93324,-2.95577c0.51541,0 0.93324,1.32334 0.93324,2.95577z" fill="#000000"></path><path d="M259.60002,178.3012h5.41578v2.90131l-1.86921,1.12571c0,0 0.13767,1.31044 -0.10289,1.51014c-0.44928,0.37296 -1.36249,0.13233 -1.36249,0.13233c0,0 0.22799,1.42369 -0.12526,1.76873c-0.75015,0.73271 -2.08487,0.87886 -2.08487,0.87886z" fill="#ffffff"></path><path d="M259.19113,170.8446c0,0 -0.85324,-5.16412 0.48267,-6.75443c2.53725,-3.02044 7.15484,-0.18421 7.15484,-0.18421c0,0 -1.95686,1.17232 -2.39298,2.70894c-0.33066,1.16505 0.64583,4.22971 0.64583,4.22971c0,0 -0.60309,0 -1.0982,0c-1.03427,0 -4.79216,0 -4.79216,0z" fill="#ff0000"></path><path d="M258.94154,171.49354v-1.54747h6.48938v1.54747z" fill="#ffffff"></path><path d="M268.02668,164.1805c0,0.62031 -0.49168,1.12316 -1.0982,1.12316c-0.60652,0 -1.0982,-0.50286 -1.0982,-1.12316c0,-0.62031 0.49168,-1.12316 1.0982,-1.12316c0.60652,0 1.0982,0.50286 1.0982,1.12316z" fill="#ffffff"></path><path d="M251.05444,188.06643v-7.73735h8.38629v7.73735z" fill="#31ffe6"></path><path d="M254.44889,188.01652v-7.68743h1.29788v7.68743z" fill="#f6ff30"></path><path d="M251.15428,184.77182v-1.24796h8.13669v1.24796z" fill="#f6ff30"></path></g><path d="M253.71156,131.59497h33.838v33.838z" fill="#ff0000" stroke="#000000" stroke-width="1" stroke-linecap="butt"></path><g><path d="M248.08335,175.38574v-32.67004h6.61917v32.67004z" fill="#0b8100" stroke="#000000" stroke-width="0.5" stroke-linecap="butt"></path><path d="M248.09282,175.42895v-18.92353h6.6798v18.92353z" fill="#740000" stroke="#000000" stroke-width="0.5" stroke-linecap="butt"></path><path d="M248.09282,165.18951v-8.68409h3.06486z" fill="#ffffff" stroke="#000000" stroke-width="0.5" stroke-linecap="butt"></path><path d="M248.04578,162.13082v-5.70298h2.01274z" fill="#ff0000" stroke="#000000" stroke-width="0.5" stroke-linecap="butt"></path><path d="M250.50505,148.21712c0,0 1.76235,0.2391 -0.34297,1.43095c-0.31485,0.17825 -1.57467,-0.99418 -1.57467,-0.99418" fill="none" stroke="#000000" stroke-width="0.5" stroke-linecap="round"></path><text transform="translate(240.94229,146.10789) scale(0.10324,0.10324)" font-size="40" xml:space="preserve" fill="#000000" fill-rule="nonzero" stroke="none" stroke-width="1" stroke-linecap="butt" stroke-linejoin="miter" stroke-miterlimit="10" stroke-dasharray="" stroke-dashoffset="0" font-family="Sans Serif" font-weight="normal" text-anchor="start" style="mix-blend-mode: normal"><tspan x="0" dy="0">Zzz</tspan></text></g></g></g></svg>