<svg version="1.1" xmlns="http://www.w3.org/2000/svg" xmlns:xlink="http://www.w3.org/1999/xlink" width="804" height="537" viewBox="0,0,804,537"><g transform="translate(34.97656,58.25147)"><g stroke-miterlimit="10"><path d="M-34.97656,478.74854v-537h804v537z" fill-opacity="0.42745" fill="#000000" stroke="none" stroke-width="0" stroke-linecap="butt"/><path d="M543.06005,227.02402l-7.28823,-45.03741l14.77174,-2.39046l7.28824,45.03743z" fill="#f8f8f8" stroke="#000000" stroke-width="2.5" stroke-linecap="butt"/><path d="M496.537,224.45144l7.28823,-45.03742l14.77174,2.39046l-7.28824,45.03742z" fill="#f8f8f8" stroke="#000000" stroke-width="2.5" stroke-linecap="butt"/><path d="M520.71283,187.19861v-20.52176h11.25791v20.52176z" fill="#ffe99b" stroke="#000000" stroke-width="2.5" stroke-linecap="butt"/><path d="M507.04254,234.535v-54.92278h40.38157v54.92279z" fill="#f8f8f8" stroke="#000000" stroke-width="2.5" stroke-linecap="butt"/><path d="M555.62618,146.31169c0,15.87244 -12.62484,28.7396 -28.19835,28.7396c-15.57351,0 -28.19834,-12.86715 -28.19834,-28.7396c0,-15.87244 12.62483,-28.73959 28.19834,-28.73959c15.57351,0 28.19835,12.86715 28.19835,28.73959z" fill="#ffe99b" stroke="#000000" stroke-width="2.5" stroke-linecap="butt"/><path d="M568.17492,141.67988l-3.38157,10.89617l-8.24687,-11.14032l-5.86096,6.27388l-11.64678,-10.10582l-8.00245,9.39203l-6.19908,-10.63178l-19.83709,6.79984l4.92169,-8.75337l-18.70997,2.81761l10.63237,-8.67824" fill="#ffbf00" stroke="#000000" stroke-width="2.5" stroke-linecap="round"/><path d="M498.79173,129.79285l4.24956,-28.91741l56.83448,8.35212l-2.58906,17.61806l28.89858,6.96266l0.82857,9.10116z" fill="#838383" stroke="#000000" stroke-width="2.5" stroke-linecap="butt"/><path d="M521.94077,150.97556c0,4.3755 -0.79864,7.92255 -1.78381,7.92255c-0.98517,0 -1.78381,-3.54705 -1.78381,-7.92255c0,-4.3755 0.79864,-7.92256 1.78381,-7.92256c0.98517,0 1.78381,3.54706 1.78381,7.92256z" fill="#000000" stroke="#000000" stroke-width="2.5" stroke-linecap="butt"/><path d="M532.34516,150.32402c0,4.3405 -0.9608,7.85917 -2.146,7.85917c-1.1852,0 -2.146,-3.51867 -2.146,-7.85917c0,-4.3405 0.9608,-7.85917 2.146,-7.85917c1.1852,0 2.146,3.51867 2.146,7.85917z" fill="#000000" stroke="#000000" stroke-width="2.5" stroke-linecap="butt"/><path d="M548.96046,157.90212c0,0 -2.34097,5.92878 -4.67051,7.53443c-2.29393,1.58111 -9.20153,2.02696 -9.20153,2.02696" fill="none" stroke="#000000" stroke-width="2.5" stroke-linecap="round"/><path d="M223.16844,348.91828v-125.38367h391.67136v125.38367z" fill="#ffdc5f" stroke="#000000" stroke-width="2.5" stroke-linecap="butt"/><text transform="translate(476.5011,251.2564) scale(0.5,0.5)" font-size="40" xml:space="preserve" fill="#000000" stroke="none" stroke-width="1" stroke-linecap="butt" font-family="Sans Serif" font-weight="normal" text-anchor="start"><tspan x="0" dy="0">Crazy Dave</tspan></text><text transform="translate(233.05628,283.34611) scale(0.604,0.604)" font-size="40" xml:space="preserve" fill="#000000" stroke="none" stroke-width="1" stroke-linecap="butt" font-family="Sans Serif" font-weight="normal" text-anchor="start"><tspan x="0" dy="0">See ya!</tspan></text><path d="M555.26414,336.72727v-31.49591l33.54755,17.69586z" fill="#bdae78" stroke="#000000" stroke-width="2.5" stroke-linecap="butt"/></g></g></svg>