<svg version="1.1" xmlns="http://www.w3.org/2000/svg" xmlns:xlink="http://www.w3.org/1999/xlink" width="61.1384" height="56.48654" viewBox="0,0,61.1384,56.48654"><g transform="translate(-289.38226,-152.30436)"><g stroke="#000000" stroke-width="1.28786" stroke-miterlimit="10"><path d="M321.95659,199.28212c-1.19439,2.30196 -5.0257,2.68254 -8.55747,0.85006c-3.53178,-1.83249 -7.65045,-5.92613 -7.65045,-5.92613c0,0 8.44393,-4.24249 11.97571,-2.41001c3.53178,1.83249 5.4266,5.18412 4.23221,7.48608z" fill="#5cb000" stroke-linecap="butt"/><path d="M326.58737,191.47828c3.53178,-1.83249 11.97571,2.41001 11.97571,2.41001c0,0 -4.11867,4.09364 -7.65045,5.92613c-3.53178,1.83249 -7.36309,1.45191 -8.55747,-0.85006c-1.19439,-2.30196 0.70043,-5.65359 4.23221,-7.48608z" fill="#5cb000" stroke-linecap="butt"/><g stroke-linecap="butt"><path d="M318.9355,202.19399v-19.49772h6.2v19.49772z" fill="#00e704"/><path d="M316.7951,188.50304l1.23495,-5.58687l7.91752,-1.01192l1.16634,6.59878z" fill="#00b403"/></g><g stroke-linecap="butt"><path d="M323.53641,201.90987l7.81028,-17.86507l5.68084,2.48356l-7.81028,17.86507z" fill="#00e704"/><path d="M327.05947,188.50794l3.94922,-4.61203l6.35024,2.38404l-0.8447,6.36143z" fill="#00b403"/></g><g stroke-linecap="butt"><path d="M317.50667,202.05891l-12.40993,-15.03845l4.78202,-3.94618l14.10797,18.26285z" fill="#00e704"/><path d="M307.45538,192.48398l-3.3547,-5.59752l8.33616,-4.57819l3.30326,4.12253z" fill="#00b403"/></g><path d="M330.29632,171.31057c0,0 -1.48873,-2.13997 -2.46304,-3.08763c-1.18202,-1.1497 -4.12712,-3.32229 -4.12712,-3.32229c0,0 3.37093,-0.77189 5.00013,-0.43489c1.8773,0.38832 5.62524,2.63274 5.62524,2.63274z" fill="#f7df77" stroke-linecap="butt"/><path d="M327.26428,172.66746c0,0 -2.90983,-1.12342 -4.27726,-1.12176c-1.14451,0.00138 -3.37818,1.13103 -3.37818,1.13103c0,0 -1.73514,-4.74912 1.40452,-5.61506c3.13965,-0.86595 7.75242,3.08951 7.75242,3.08951z" fill="#cb775b" stroke-linecap="butt"/><path d="M333.66045,168.99517c0,0 -2.39986,-6.18774 -0.36794,-9.10757c2.03191,-2.91981 6.2941,0.5918 6.2941,0.5918c0,0 -1.97463,1.89081 -2.39158,3.06927c-0.49817,1.40801 -0.39738,4.81333 -0.39738,4.81333z" fill="#cb775b" stroke-linecap="butt"/><path d="M342.8038,176.2875c0,0 2.2001,-1.40021 3.18212,-2.34769c1.19139,-1.14948 3.46024,-4.06104 3.46024,-4.06104c0,0 0.69762,3.55647 0.31688,5.22656c-0.4387,1.92439 -2.7999,5.66544 -2.7999,5.66544z" fill="#f7df77" stroke-linecap="butt"/><path d="M337.20547,170.16864c0,0 1.59327,-2.06332 2.2041,-3.2775c0.74105,-1.47303 1.92752,-4.93512 1.92752,-4.93512c0,0 1.7498,2.98281 1.9183,4.63795c0.19414,1.90718 -0.81941,6.15656 -0.81941,6.15656z" fill="#f7df77" stroke-linecap="butt"/><path d="M333.75233,186.47179c0,0 -4.35809,-0.30257 -6.12011,-1.05776c-1.52918,-0.6554 -3.85281,-3.21658 -3.85281,-3.21658c0,0 3.65844,-0.09769 5.28561,-0.36472c1.34122,-0.2201 3.78637,-1.12398 3.78637,-1.12398z" fill="#f7df77" stroke-linecap="butt"/><path d="M329.61463,180.61972c0,0 -3.91596,-1.93642 -5.25866,-3.3047c-1.16527,-1.18746 -2.34096,-4.43964 -2.34096,-4.43964c0,0 3.42099,1.30025 5.02751,1.67178c1.32421,0.30624 3.9294,0.39961 3.9294,0.39961z" fill="#f7df77" stroke-linecap="butt"/><path d="M343.63232,169.1107c4.74621,4.32686 5.65345,11.23225 2.02639,15.42358c-3.62706,4.19135 -10.41491,4.08148 -15.16111,-0.24538c-4.74621,-4.32686 -5.65344,-11.23223 -2.02639,-15.42358c3.62706,-4.19135 10.41492,-4.08148 15.16111,0.24538z" fill="#f94696" stroke-linecap="butt"/><path d="M345.32952,175.33529c0.30459,1.09961 -2.60146,5.38658 -4.31258,7.31536c-1.51898,1.7122 -1.75716,1.12092 -3.07119,1.4849c-2.79428,0.774 -4.02559,0.31872 -4.60056,-1.75703c-0.57497,-2.07575 2.31376,-1.53414 5.10804,-2.30814c1.10041,-0.30481 0.37766,-2.02648 1.47655,-3.14678c1.69152,-1.72448 5.05121,-2.84662 5.39975,-1.58832z" fill="#ffffff" stroke-linecap="butt"/><path d="M339.67995,178.75318l1.34613,2.86895l-1.98185,-0.94844z" fill="#ffffff" stroke-linecap="round"/><path d="M346.02118,175.95545l0.47389,2.14539l-2.48856,-1.96214z" fill="#ffffff" stroke-linecap="round"/><path d="M335.5699,175.69028c0,0 -2.17147,-2.58601 -3.29721,-3.65184c-0.98541,-0.93297 -3.09248,-2.39781 -3.09248,-2.39781c0,0 3.63056,-1.09453 5.49943,-0.77949c1.74086,0.29348 5.35703,2.60965 5.35703,2.60965" fill="#f7df77" stroke-linecap="round"/><path d="M312.22344,164.01489c0,0 -0.51368,-3.00852 -1.07507,-4.49747c-0.68108,-1.8064 -2.72212,-5.57377 -2.72212,-5.57377c0,0 3.95673,0.85826 5.51594,2.02569c1.79663,1.34518 4.65291,5.58794 4.65291,5.58794z" fill="#f7df77" stroke-linecap="butt"/><path d="M308.33498,163.94519c0,0 -2.52546,-2.63781 -3.97562,-3.31608c-1.21376,-0.56771 -4.14301,-0.48121 -4.14301,-0.48121c0,0 0.52271,-5.89651 4.28109,-5.25295c3.75837,0.64357 6.68036,7.12995 6.68036,7.12995z" fill="#cb775b" stroke-linecap="butt"/><path d="M316.94057,163.23382c0,0 0.53362,-7.75189 4.13931,-9.83612c3.60569,-2.08423 6.37682,3.75738 6.37682,3.75738c0,0 -3.03324,1.02206 -4.06124,2.06377c-1.22822,1.2446 -2.81491,4.90406 -2.81491,4.90406z" fill="#cb775b" stroke-linecap="butt"/><path d="M323.00507,175.51007c0,0 3.02823,-0.38996 4.54027,-0.90582c1.8344,-0.62585 5.68713,-2.58349 5.68713,-2.58349c0,0 -1.02927,4.11643 -2.26336,5.69724c-1.42201,1.82151 -5.7851,4.61239 -5.7851,4.61239z" fill="#f7df77" stroke-linecap="butt"/><path d="M320.11437,166.24055c0,0 2.71483,-1.39457 3.96607,-2.3777c1.51799,-1.19273 4.49728,-4.27216 4.49728,-4.27216c0,0 0.37123,4.03168 -0.2733,5.86978c-0.74268,2.11799 -3.93022,6.11785 -3.93022,6.11785z" fill="#f7df77" stroke-linecap="butt"/><path d="M308.34666,181.80303c0,0 -4.46869,-2.48802 -5.96069,-4.16473c-1.29484,-1.45513 -2.48396,-5.32531 -2.48396,-5.32531c0,0 3.92619,1.71583 5.78361,2.24202c1.53102,0.43372 4.57216,0.69168 4.57216,0.69168z" fill="#f7df77" stroke-linecap="butt"/><path d="M306.87136,173.54269c0,0 -3.18754,-3.99987 -3.93022,-6.11785c-0.64454,-1.83809 -0.27331,-5.86978 -0.27331,-5.86978c0,0 2.97928,3.07944 4.49728,4.27217c1.25124,0.98313 3.96606,2.3777 3.96606,2.3777z" fill="#f7df77" stroke-linecap="butt"/><path d="M327.45233,168.31539c2.87871,6.9464 0.40618,14.71662 -5.52254,17.35527c-5.92873,2.63864 -13.06857,-0.85347 -15.94728,-7.79986c-2.87871,-6.9464 -0.40618,-14.71661 5.52254,-17.35526c5.92873,-2.63864 13.06857,0.85346 15.94728,7.79986z" fill="#f94696" stroke-linecap="butt"/><path d="M314.47536,181.89221c-2.17605,-1.4652 0.06022,-4.38413 1.66423,-6.76632c1.604,-2.3822 4.66834,-3.12558 6.84439,-1.66038c2.17605,1.4652 2.63978,4.58413 1.03577,6.96632c-1.604,2.3822 -7.36834,2.92558 -9.54439,1.46038z" fill="#ffffff" stroke-linecap="butt"/><path d="M318.46791,176.56992v3.71025l-1.62889,-1.99086z" fill="#ffffff" stroke-linecap="round"/><path d="M326.58032,176.75817l-0.56465,2.50958l-1.66184,-3.31727z" fill="#ffffff" stroke-linecap="round"/><path d="M315.63485,171.27958c0,0 -1.01549,-3.8208 -1.67863,-5.51034c-0.58046,-1.47891 -2.08528,-4.07938 -2.08528,-4.07938c0,0 4.39236,0.64542 6.2165,1.90874c1.6992,1.1768 4.38013,5.43007 4.38013,5.43007" fill="#f7df77" stroke-linecap="round"/><path d="M302.44081,170.97377c0,0 0.55985,-2.54604 0.59382,-3.9048c0.04122,-1.64841 -0.36398,-5.28567 -0.36398,-5.28567c0,0 2.85579,1.95022 3.71482,3.37501c0.98982,1.64173 1.88752,5.91708 1.88752,5.91708z" fill="#f7df77" stroke-linecap="butt"/><path d="M299.38574,169.66956c0,0 -1.15141,-2.89887 -2.08125,-3.9015c-0.77825,-0.83918 -3.12435,-1.71165 -3.12435,-1.71165c0,0 2.30775,-4.4988 5.07553,-2.7822c2.76778,1.7166 2.99679,7.78872 2.99679,7.78872z" fill="#cb775b" stroke-linecap="butt"/><path d="M306.42498,171.87082c0,0 2.91237,-5.9637 6.43552,-6.45502c3.52314,-0.49132 3.8399,5.02206 3.8399,5.02206c0,0 -2.72891,-0.16543 -3.87711,0.3288c-1.37185,0.59048 -3.80308,2.97702 -3.80308,2.97702z" fill="#cb775b" stroke-linecap="butt"/><path d="M328.07446,169.82685c0,0 1.38948,-1.14839 2.09656,1.52004c0.25123,0.94811 -3.21433,5.03003 -3.21433,5.03003l-6.38892,-1.99654l-3.79342,3.6936l-5.98962,-2.5955" fill="#f94696" stroke-linecap="round"/><path d="M307.2813,183.53467c0,0 2.52191,0.6641 3.88429,0.74152c1.65284,0.09394 5.33084,-0.21785 5.33084,-0.21785c0,0 -2.13686,2.92726 -3.62136,3.78195c-1.71052,0.98483 -6.0601,1.79213 -6.0601,1.79213z" fill="#f7df77" stroke-linecap="butt"/><path d="M307.97102,175.26993c0,0 2.59657,-0.23166 3.90262,-0.60782c1.58451,-0.45635 4.93159,-1.93652 4.93159,-1.93652c0,0 -1.00124,3.31006 -2.10179,4.55775c-1.26811,1.43768 -5.07567,3.57941 -5.07567,3.57941z" fill="#f7df77" stroke-linecap="butt"/><path d="M293.65873,183.8066c0,0 -2.73746,-3.40452 -3.3797,-5.21078c-0.55736,-1.56757 -0.2553,-5.01252 -0.2553,-5.01252c0,0 2.55615,2.61912 3.85716,3.63221c1.07238,0.83504 3.39638,2.01606 3.39638,2.01606z" fill="#f7df77" stroke-linecap="butt"/><path d="M295.1445,176.7952c0,0 -1.23791,-4.18951 -1.14534,-6.10432c0.08032,-1.66177 1.66917,-4.73332 1.66917,-4.73332c0,0 1.36873,3.39416 2.18701,4.82574c0.67448,1.18 2.37512,3.15575 2.37512,3.15575z" fill="#f7df77" stroke-linecap="butt"/><path d="M313.11206,179.26911c0.04699,6.4223 -4.40577,11.77769 -9.94554,11.96159c-5.53979,0.1839 -10.06874,-4.87332 -10.11575,-11.29563c-0.04699,-6.4223 4.40577,-11.77769 9.94553,-11.96159c5.53979,-0.1839 10.06875,4.87331 10.11575,11.29561z" fill="#f94696" stroke-linecap="butt"/><path d="M309.9205,185.49103c-1.29734,1.71937 -8.72535,2.79744 -11.03989,1.05102c-2.31454,-1.74642 -3.13913,-4.556 -1.84179,-6.27537c1.29734,-1.71937 2.62535,0.90256 4.93989,2.64898c0.91149,0.68776 1.83792,-0.93342 3.39561,-0.7431c2.39776,0.29296 5.33262,2.27621 4.54618,3.31848z" fill="#ffffff" stroke-linecap="butt"/><path d="M303.34998,182.91607l-1.19179,2.93641l-0.64965,-2.09886z" fill="#ffffff" stroke-linecap="round"/><path d="M313.11891,180.66517c0,0 1.46857,-0.46256 1.17103,1.87645c-0.10571,0.83107 -4.15965,2.94843 -4.15965,2.94843l-4.41509,-3.63236l-4.1887,1.70472l-3.90666,-3.97814" fill="#f94696" stroke-linecap="round"/><path d="M309.70995,185.6709l-1.253,1.80479l-0.24966,-3.1592z" fill="#ffffff" stroke-linecap="round"/><path d="M302.80717,177.81909c0,0 0.42361,-3.35011 0.44149,-4.90027c0.01565,-1.35692 -0.33999,-3.89839 -0.33999,-3.89839c0,0 3.26895,1.9217 4.30682,3.50749c0.96681,1.47718 1.72235,5.70452 1.72235,5.70452" fill="#f7df77" stroke-linecap="round"/><path d="M324.25205,202.99629c0,2.59337 -3.22552,4.69571 -7.20439,4.69571c-3.97887,0 -9.52008,-1.73677 -9.52008,-1.73677c0,0 5.54121,-7.65466 9.52008,-7.65466c3.97887,0 7.20439,2.10235 7.20439,4.69571z" fill="#5cb000" stroke-linecap="butt"/><path d="M328.46243,198.75554c3.97887,0 9.52008,7.65466 9.52008,7.65466c0,0 -5.54121,1.73677 -9.52008,1.73677c-3.97887,0 -7.20439,-2.10235 -7.20439,-4.69571c0,-2.59337 3.22552,-4.69571 7.20439,-4.69571z" fill="#5cb000" stroke-linecap="butt"/><path d="M344.66175,170.05373c0,0 0.65776,-1.39212 2.17266,0.41471c0.53826,0.64197 -0.66052,5.05566 -0.66052,5.05566l-5.6646,0.77415l-1.59318,4.23238l-5.57314,0.16614" fill="#f94696" stroke-linecap="round"/></g></g></svg>