<svg version="1.1" xmlns="http://www.w3.org/2000/svg" xmlns:xlink="http://www.w3.org/1999/xlink" width="59.66425" height="58.82716" viewBox="0,0,59.66425,58.82716"><g transform="translate(-210.08454,-150.79279)"><g data-paper-data="{&quot;isPaintingLayer&quot;:true}" fill-rule="nonzero" stroke-linejoin="miter" stroke-miterlimit="10" stroke-dasharray="" stroke-dashoffset="0" style="mix-blend-mode: normal"><path d="M243.56623,184.45298c-4.0807,-1.95045 -4.56126,-10.63376 -4.56126,-10.63376c0,0 17.49303,-6.17322 24.00792,-3.05928c6.51489,3.11393 6.08616,17.44337 6.08616,17.44337c0,0 -21.45212,-1.79985 -25.53283,-3.75031z" data-paper-data="{&quot;index&quot;:null}" fill="#00db28" stroke="#000000" stroke-width="1.28786" stroke-linecap="round"></path><path d="M230.56089,176.48019c0,0 4.25732,-19.76781 10.4239,-23.93105c6.16658,-4.16323 18.06123,4.69992 18.06123,4.69992c0,0 -13.15089,18.70437 -17.01343,21.31208c-3.86253,2.60771 -11.4717,-2.08093 -11.4717,-2.08093z" data-paper-data="{&quot;index&quot;:null}" fill="#00db28" stroke="#000000" stroke-width="1.28786" stroke-linecap="round"></path><path d="M236.14997,181.10376c-4.522,0.41714 -25.25483,-6.06326 -25.25483,-6.06326c0,0 4.75032,-14.86803 11.96975,-15.53397c7.21944,-0.66595 21.37885,12.45779 21.37885,12.45779c0,0 -3.57178,8.72232 -8.09379,9.13943z" data-paper-data="{&quot;index&quot;:null}" fill="#00db28" stroke="#000000" stroke-width="1.28786" stroke-linecap="round"></path><path d="M243.50352,185.89364c-2.6069,4.06626 -20.44284,17.3284 -20.44284,17.3284c0,0 -7.37727,-13.52334 -3.21533,-20.01519c4.16194,-6.49185 22.44052,-9.97241 22.44052,-9.97241c0,0 3.82455,8.59291 1.21764,12.65917z" data-paper-data="{&quot;index&quot;:null}" fill="#00db28" stroke="#000000" stroke-width="1.28786" stroke-linecap="round"></path><path d="M229.10235,186.16758c-1.74815,-4.61605 3.68211,-11.98727 3.68211,-11.98727c0,0 17.1842,8.04931 19.97514,15.41891c2.79095,7.3696 -3.25227,18.96406 -3.25227,18.96406c0,0 -18.65684,-17.77967 -20.40498,-22.39573z" fill="#00db28" stroke="#000000" stroke-width="1.28786" stroke-linecap="round"></path><path d="M230.06937,188.25589c0,0 -16.16928,-2.53734 -16.41241,-6.99219c-0.25253,-4.45511 15.53018,-8.77601 15.53018,-8.77601c0,0 -2.5852,-16.16082 1.57958,-17.77551c4.15979,-1.61019 13.14648,12.06451 13.14648,12.06451c0,0 14.56789,-7.45198 17.38848,-3.99336c2.81971,3.45561 -7.40712,16.23149 -7.40712,16.23149c0,0 11.59003,11.55418 9.17169,15.30488c-2.41552,3.74999 -17.72698,-2.03051 -17.72698,-2.03051c0,0 -7.40585,14.58735 -11.71656,13.44999c-4.31941,-1.13481 -3.55334,-17.48328 -3.55334,-17.48328z" data-paper-data="{&quot;index&quot;:null}" fill="#ffff00" stroke="#000000" stroke-width="1.28786" stroke-linecap="butt"></path><g><path d="M248.21277,179.90892c-1.47065,0.79823 -3.10142,0.6373 -3.64244,-0.35947c-0.54101,-0.99675 0.2126,-2.45187 1.68325,-3.25011c1.47065,-0.79823 3.10142,-0.6373 3.64244,0.35947c0.54101,0.99675 -0.2126,2.45187 -1.68325,3.25011z" fill="#fab6ff" stroke="none" stroke-width="0" stroke-linecap="butt"></path><path d="M235.09881,187.28431c-1.47065,0.79823 -3.10142,0.6373 -3.64244,-0.35947c-0.54101,-0.99675 0.2126,-2.45187 1.68325,-3.25011c1.47065,-0.79823 3.10142,-0.6373 3.64244,0.35947c0.54101,0.99675 -0.2126,2.45187 -1.68325,3.25011z" fill="#fab6ff" stroke="none" stroke-width="0" stroke-linecap="butt"></path><path d="M237.08995,176.94412c1.4924,2.74958 1.86433,5.43335 0.83071,5.99437c-1.03361,0.56102 -3.08134,-1.21317 -4.57374,-3.96275c-1.4924,-2.74958 -1.86433,-5.43334 -0.83072,-5.99436c1.03361,-0.56102 3.08135,1.21317 4.57375,3.96274z" fill="#000000" stroke="#000000" stroke-width="1.28786" stroke-linecap="butt"></path><path d="M243.39034,173.99582c1.52136,2.80294 1.97142,5.50031 1.00522,6.02474c-0.9662,0.52442 -2.98277,-1.32267 -4.50413,-4.12562c-1.52136,-2.80294 -1.97141,-5.50031 -1.00521,-6.02474c0.9662,-0.52442 2.98277,1.32267 4.50413,4.12562z" fill="#000000" stroke="#000000" stroke-width="1.28786" stroke-linecap="butt"></path><path d="M247.66057,178.27876c0,0 1.49417,3.77615 -0.31824,4.98808c-1.8124,1.21195 -5.47436,-1.11461 -5.47436,-1.11461c0,0 0.6857,3.4608 -1.01584,4.4697c-1.70154,1.0089 -5.80272,-1.58296 -5.80272,-1.58296" fill="none" stroke="#000000" stroke-width="1.28786" stroke-linecap="round"></path><path d="M245.3458,187.69073l-2.91153,-5.12154c0,0 3.523,1.32681 4.54161,0.77393c0.94582,-0.51337 1.10491,-4.10209 1.10491,-4.10209l3.17454,5.24217z" fill="#ffffff" stroke="#000000" stroke-width="1.28786" stroke-linecap="butt"></path></g></g></g></svg>