<svg version="1.1" xmlns="http://www.w3.org/2000/svg" xmlns:xlink="http://www.w3.org/1999/xlink" width="76.2973" height="36.83071" viewBox="0,0,76.2973,36.83071"><g transform="translate(-202.08719,-161.45387)"><g data-paper-data="{&quot;isPaintingLayer&quot;:true}" fill-rule="nonzero" stroke="#000000" stroke-width="1.28786" stroke-linejoin="miter" stroke-miterlimit="10" stroke-dasharray="" stroke-dashoffset="0" style="mix-blend-mode: normal"><g><path d="M267.06845,178.83608l6.97711,-2.71891l-2.93958,8.46474l5.39569,0.01752l-8.23694,6.34665l4.36561,0.7921l-14.03873,1.99293l-2.7451,-4.62687z" fill="#94c6c6" stroke-linecap="round"></path><path d="M250.58465,172.79611l6.89264,-6.16381l4.56034,8.73036l-6.38904,2.25488z" fill="#bdffff" stroke-linecap="round"></path><path d="M221.55706,193.0357l-6.59024,0.16165l-11.46849,-9.31026l7.44851,-1.83126l-0.18003,-7.33913l9.14467,6.22004l-3.35195,-14.45501l12.29369,6.29264l3.48077,-4.7313l2.65645,4.43088c0,0 -4.50915,13.97656 -6.86653,17.58486c-1.12639,1.7241 -6.56686,2.9769 -6.56686,2.9769z" fill="#009c9c" stroke-linecap="round"></path><path d="M224.29888,188.72744l-11.60357,-8.70746l8.69081,-0.06332l1.38022,-4.82964l7.26284,2.8192l11.60749,-15.57128l9.02062,7.27214l4.3775,7.38602l15.28301,-12.36433l-3.98352,14.78481l3.15635,0.37219l-12.90492,11.55668c0,0 -10.43846,3.89083 -15.50425,4.01509c-5.16704,0.12674 -15.20026,-3.26193 -15.20026,-3.26193z" fill="#13ffff" stroke-linecap="round"></path><path d="M236.32129,185.45408c0.0815,3.32232 -0.7997,6.03882 -1.96821,6.06749c-1.1685,0.02866 -2.18184,-2.64139 -2.26334,-5.9637c-0.0815,-3.32232 -1.01142,-3.6136 0.15709,-3.64226c0.76949,-0.01887 2.09546,0.42491 3.04496,1.44395c0.49237,0.52842 1.00168,0.96002 1.02951,2.09451z" fill="#ffffff" stroke-linecap="butt"></path><path d="M227.87855,180.37098l7.95336,3.47668" fill="none" stroke-linecap="round"></path><path d="M244.90629,183.47997c0.87193,-1.03302 2.13616,-1.5263 2.88295,-1.54462c1.13408,-0.02782 0.24649,0.29879 0.32558,3.5232c0.07909,3.2244 -0.77613,5.86084 -1.9102,5.88866c-1.13408,0.02782 -2.11751,-2.56351 -2.19661,-5.78791c-0.02701,-1.10106 0.44615,-1.54365 0.89829,-2.07933z" data-paper-data="{&quot;index&quot;:null}" fill="#ffffff" stroke-linecap="butt"></path><path d="M254.83514,188.52362l5.5206,5.10997l-16.08787,3.99147l-23.85958,-4.71385l9.35471,-4.73992l1.37863,5.87918l5.32956,-2.67848l4.10646,2.44702l5.47933,-2.68216l6.48088,1.48957z" fill="#00bfbf" stroke-linecap="round"></path><path d="M250.64571,180.8861l-6.22211,2.95017" fill="none" stroke-linecap="round"></path></g></g></g></svg>