<svg version="1.1" xmlns="http://www.w3.org/2000/svg" xmlns:xlink="http://www.w3.org/1999/xlink" width="96.2701" height="97.37554" viewBox="0,0,96.2701,97.37554"><g transform="translate(-271.8161,-131.23746)"><g stroke-miterlimit="10"><path d="M272.3161,226.42989v-64.88824v-9.24098c0,0 2.20499,0 4.81102,0c11.2941,0 90.36138,0 90.36138,0v74.12922z" fill="#afafaf" stroke="#000000" stroke-width="1" stroke-linecap="butt"/><path d="M272.4138,205.86668v-64.88824v-9.24098c0,0 2.20499,0 4.81102,0c11.2941,0 90.36138,0 90.36138,0v74.12922z" fill="#afafaf" stroke="#000000" stroke-width="1" stroke-linecap="butt"/><path d="M363.54177,139.08309v60.82023h-86.62275v-60.82023z" fill="#2e2e2e" stroke="#000000" stroke-width="1" stroke-linecap="butt"/><path d="M300.0248,197.29073v-55.28946h44.10717v55.28946z" fill="#939393" stroke="#000000" stroke-width="1" stroke-linecap="butt"/><text transform="translate(279.54707,214.21037) scale(0.21017,0.23806)" font-size="40" xml:space="preserve" fill="#000000" stroke="none" stroke-width="1" stroke-linecap="butt" font-family="Sans Serif" font-weight="normal" text-anchor="start"><tspan x="0" dy="0">It wasnt so useless</tspan><tspan x="0" dy="48px">         after all...</tspan></text><path d="M300.99616,197.12401v-54.67897h40.54823v54.67897z" fill="#515151" stroke="none" stroke-width="0" stroke-linecap="butt"/><g stroke="#000000" stroke-width="1.28786"><g fill="#ffffff" stroke-linecap="butt"><path d="M335.8935,168.91982c0,1.86014 -6.37304,3.36808 -14.23458,3.36808c-7.86154,0 -14.23458,-1.50794 -14.23458,-3.36808c0,-1.86014 6.37304,-3.36809 14.23458,-3.36809c7.86154,0 14.23458,1.50795 14.23458,3.36809z"/><path d="M321.65892,154.68524c1.86014,0 3.36808,6.37305 3.36808,14.23459c0,7.86155 -1.50794,14.23458 -3.36808,14.23458c-1.86014,0 -3.36809,-6.37303 -3.36809,-14.23458c0,-7.86155 1.50795,-14.23459 3.36809,-14.23459z"/><path d="M331.72429,158.85445c1.31531,1.31531 -2.12482,6.88801 -7.68377,12.44697c-5.55895,5.55895 -11.13165,8.9991 -12.44697,7.68377c-1.31531,-1.31531 2.12482,-6.88801 7.68377,-12.44697c5.55895,-5.55895 11.13165,-8.9991 12.44697,-7.68377z"/><path d="M311.59355,158.85445c1.31531,-1.31531 6.88801,2.12482 12.44697,7.68377c5.55895,5.55895 8.9991,11.13165 7.68377,12.44697c-1.31531,1.31531 -6.88801,-2.12482 -12.44697,-7.68377c-5.55895,-5.55895 -8.9991,-11.13165 -7.68377,-12.44697z"/><path d="M334.75836,174.4901c-0.72791,1.7118 -7.18282,0.60559 -14.41744,-2.47079c-7.23462,-3.07638 -12.50936,-6.95797 -11.78145,-8.66977c0.72791,-1.7118 7.18282,-0.60559 14.41744,2.47079c7.23462,3.07638 12.50936,6.95797 11.78145,8.66977z"/><path d="M327.2292,155.82037c1.7118,0.72791 0.6056,7.18282 -2.47078,14.41744c-3.07638,7.23462 -6.95798,12.50935 -8.66978,11.78144c-1.7118,-0.72791 -0.60559,-7.18281 2.47079,-14.41743c3.07638,-7.23462 6.95797,-12.50936 8.66977,-11.78145z"/><path d="M320.34092,165.82032c7.23462,-3.07638 13.68953,-4.18259 14.41744,-2.47079c0.72791,1.7118 -4.54682,5.59339 -11.78145,8.66977c-7.23462,3.07638 -13.68953,4.18259 -14.41744,2.47079c-0.72791,-1.7118 4.54682,-5.59339 11.78145,-8.66977z"/><path d="M324.75841,167.60182c3.07638,7.23462 4.18259,13.68953 2.47079,14.41744c-1.7118,0.72791 -5.5934,-4.54682 -8.66978,-11.78144c-3.07638,-7.23462 -4.18258,-13.68953 -2.47078,-14.41744c1.7118,-0.72791 5.59339,4.54682 8.66977,11.78144z"/></g><path d="M319.24599,186.53224v-15.8171h4.4803v15.8171z" fill="#00ff50" stroke-linecap="butt"/><path d="M315.37004,189.15901c-3.11524,0 -5.64065,-1.32035 -5.64065,-2.94908c0,-1.62874 2.52541,-2.94908 5.64065,-2.94908c3.11524,0 5.64065,1.32035 5.64065,2.94908c0,1.62874 -2.52541,2.94908 -5.64065,2.94908z" fill="#00ff50" stroke-linecap="butt"/><path d="M334.00836,185.95611c0,1.67991 -2.7563,3.04175 -6.15637,3.04175c-3.40007,0 -6.15637,-1.36184 -6.15637,-3.04175c0,-1.67991 2.7563,-3.04174 6.15637,-3.04174c3.40007,0 6.15637,1.36183 6.15637,3.04174z" fill="#00ff50" stroke-linecap="butt"/><path d="M321.61103,177.08065c-5.12458,0 -9.27887,-3.40369 -9.27887,-7.60235c0,-4.19867 4.15429,-7.60236 9.27887,-7.60236c5.12458,0 9.27887,3.40369 9.27887,7.60236c0,4.19867 -4.15429,7.60235 -9.27887,7.60235z" fill="#fffd09" stroke-linecap="butt"/><path d="M321.13437,171.38228c-0.45616,0 -0.82595,-1.57829 -0.82595,-3.5252c0,-1.94692 0.36979,-3.52521 0.82595,-3.52521c0.45616,0 0.82596,1.5783 0.82596,3.52521c0,1.94692 -0.3698,3.5252 -0.82596,3.5252z" fill="#000000" stroke-linecap="butt"/><path d="M325.68716,170.70546c-0.29594,0 -0.53587,-1.56205 -0.53587,-3.48894c0,-1.92689 0.23992,-3.48895 0.53587,-3.48895c0.29594,0 0.53586,1.56206 0.53586,3.48895c0,1.92689 -0.23992,3.48894 -0.53586,3.48894z" fill="#000000" stroke-linecap="butt"/><path d="M320.66595,173.35223c0,0 -5.12348,0.40085 -5.96341,-0.96704c-0.83993,-1.36789 2.33701,-4.27109 2.33701,-4.27109l0.16118,0.24176c0,0 -1.57281,2.22613 -0.79719,2.86277c2.71091,2.22517 6.76059,2.21418 6.76059,2.21418z" fill="#ffffff" stroke-linecap="round"/></g><path d="M300.99617,197.11114v-8.26107h40.54822v8.26107z" fill="#969696" stroke="none" stroke-width="0" stroke-linecap="butt"/><path d="M300.96391,197.0918v-54.67897h5.57362v54.67897z" fill="#969696" stroke="none" stroke-width="0" stroke-linecap="butt"/><path d="M336.77663,197.12403v-54.67898h5.25127v54.67898z" fill="#969696" stroke="none" stroke-width="0" stroke-linecap="butt"/><path d="M300.99617,149.09439v-6.64934h40.54822v6.64934z" fill="#969696" stroke="none" stroke-width="0" stroke-linecap="butt"/><path d="M305.98932,190.07973v-13.53976l13.62581,13.53976z" fill="#969696" stroke="none" stroke-width="0" stroke-linecap="butt"/><path d="M310.57597,192.49318v-7.83845h28.4038v7.83845z" fill="#969696" stroke="none" stroke-width="0" stroke-linecap="butt"/><text transform="translate(323.3049,195.29245) scale(0.30376,0.32235)" font-size="40" xml:space="preserve" fill="#000000" stroke="none" stroke-width="1" stroke-linecap="butt" font-family="Sans Serif" font-weight="normal" text-anchor="start"><tspan x="0" dy="0">-50</tspan></text><g stroke-linecap="butt"><path d="M310.91391,191.50647l-1.71085,4.41614l-1.53844,-4.41614z" fill="#ffff00" stroke="#ffff00" stroke-width="1"/><path d="M307.71092,184.17254l1.53844,-4.41614l1.71085,4.41615z" fill="#ffff00" stroke="#ffff00" stroke-width="1"/><path d="M305.01391,187.97571c0,-2.399 1.94477,-4.34376 4.34377,-4.34376c2.399,0 4.34376,1.94476 4.34376,4.34376c0,2.399 -1.94477,4.34376 -4.34376,4.34376c-2.399,0 -4.34377,-1.94477 -4.34377,-4.34376z" fill="#ffff00" stroke="none" stroke-width="0"/><path d="M313.02616,186.34135l4.42978,1.67522l-4.4036,1.57397z" fill="#ffff00" stroke="#ffff00" stroke-width="1"/><path d="M305.71828,189.60333l-4.42839,-1.50281l4.40221,-1.74638z" fill="#ffff00" stroke="#ffff00" stroke-width="1"/><path d="M313.22961,189.33691l1.96292,4.31001l-4.23379,-1.98598z" fill="#ffff00" stroke="#ffff00" stroke-width="1"/><path d="M305.74557,186.50231l-2.08342,-4.18669l4.35429,1.86266z" fill="#ffff00" stroke="#ffff00" stroke-width="1"/><path d="M311.0115,184.21636l4.29407,-1.99758l-1.95182,4.24965z" fill="#ffff00" stroke="#ffff00" stroke-width="1"/><path d="M308.23729,191.72299l-4.16978,2.11709l1.82752,-4.36915z" fill="#ffff00" stroke="#ffff00" stroke-width="1"/><path d="M306.31376,188.10501c0,-1.74519 1.41477,-3.15997 3.15996,-3.15997c1.74519,0 3.15996,1.41477 3.15996,3.15997c0,1.74519 -1.41476,3.15996 -3.15996,3.15996c-1.74519,0 -3.15996,-1.41477 -3.15996,-3.15996z" fill="#fffff7" stroke="none" stroke-width="0"/></g></g></g></svg>