<svg version="1.1" xmlns="http://www.w3.org/2000/svg" xmlns:xlink="http://www.w3.org/1999/xlink" width="58.7323" height="44.21304" viewBox="0,0,58.7323,44.21304"><g transform="translate(-246.61429,-158.03484)"><g stroke="#000000" stroke-width="1.28786" stroke-miterlimit="10"><path d="M276.03599,187.49284c0,8.77519 -15.6696,14.11111 -20.33333,14.11111c-4.66374,0 -8.44444,-7.1137 -8.44444,-15.88889c0,-8.77519 3.78071,-15.88889 8.44444,-15.88889c4.66374,0 20.33333,8.89148 20.33333,17.66667z" fill="#a22538" stroke-linecap="butt"/><path d="M256.36933,201.60395c0,0 7.68731,-8.17239 7.44444,-15.44444c-0.32237,-9.65287 -7.44444,-16.33333 -7.44444,-16.33333h42.33333c0,0 5.85495,6.85244 6,16.33333c0.12234,7.99651 -6,15.44444 -6,15.44444z" fill="#ff3b57" stroke-linecap="butt"/><path d="M263.41666,173.42267l-2.44444,-6.66667l10.66667,3.44445z" fill="#00f466" stroke-linecap="round"/><path d="M273.48703,171.57984l-7.71048,-7.92124l5.44727,-4.63683l5.71825,9.70773z" fill="#5d0000" stroke-linecap="round"/><path d="M281,185.006c0,3.46712 -1.19391,6.27778 -2.66667,6.27778c-1.47276,0 -2.66667,-2.81066 -2.66667,-6.27778c0,-3.46712 1.19391,-6.27777 2.66667,-6.27777c1.47276,0 2.66667,2.81065 2.66667,6.27777z" fill="#ffffff" stroke-linecap="butt"/><path d="M294.63889,183.61711c0,3.6819 -1.14416,6.66666 -2.55556,6.66666c-1.4114,0 -2.55555,-2.98476 -2.55555,-6.66666c0,-3.6819 1.14416,-6.66666 2.55555,-6.66666c1.4114,0 2.55556,2.98476 2.55556,6.66666z" fill="#ffffff" stroke-linecap="butt"/><path d="M282.28534,197.69879l-14.16667,-9.83333l-3.58333,7.08333l12.5,-0.58333" fill="#ffffff" stroke-linecap="round"/></g></g></svg>