<svg version="1.1" xmlns="http://www.w3.org/2000/svg" xmlns:xlink="http://www.w3.org/1999/xlink" width="63.24485" height="54.02397" viewBox="0,0,63.24485,54.02397"><g transform="translate(-288.37757,-152.98801)"><g stroke="#000000" stroke-width="1.28786" stroke-miterlimit="10"><path d="M301.5215,206.36806c-3.58985,0 -6.5,-2.91015 -6.5,-6.5v-14.875c0,-3.58985 2.91015,-6.5 6.5,-6.5h30.5c3.58985,0 6.5,2.91015 6.5,6.5v14.875c0,3.58985 -2.91015,6.5 -6.5,6.5z" fill="#fffab9" stroke-linecap="butt"/><path d="M315.56696,189.84028c-14.66065,0 -26.54545,-8.10551 -26.54545,-18.10417v0c0,-9.99866 11.8848,-18.10417 26.54545,-18.10417h1.65909c14.66065,0 26.54545,8.10551 26.54545,18.10417v0c0,9.99866 -11.8848,18.10417 -26.54545,18.10417z" fill="#b100ff" stroke-linecap="butt"/><path d="M327.08484,196.6576c0.58126,2.1313 0.29658,4.06521 -0.63587,4.31951c-0.93244,0.2543 -2.15954,-1.2673 -2.74081,-3.3986c-0.58126,-2.1313 -0.29658,-4.06521 0.63587,-4.31951c0.93244,-0.2543 2.15954,1.2673 2.74081,3.3986z" fill="#000000" stroke-linecap="butt"/><path d="M336.3965,193.49306c0,2.07107 -0.69956,3.75 -1.5625,3.75c-0.86294,0 -1.5625,-1.67893 -1.5625,-3.75c0,-2.07107 0.69956,-3.75 1.5625,-3.75c0.86294,0 1.5625,1.67893 1.5625,3.75z" fill="#000000" stroke-linecap="butt"/><path d="M319.8965,201.74306c0,0 0.74183,-1.3193 2.11946,-0.85268c1.17248,0.39713 5.63054,3.47768 5.63054,3.47768" fill="none" stroke-linecap="round"/><path d="M318.2715,192.86806l9.5,1.125" fill="none" stroke-linecap="round"/><path d="M332.2715,192.49306l3.5,-4.125" fill="none" stroke-linecap="round"/><path d="M350.9785,174.79161c0,5.1435 -3.74932,9.31314 -8.37433,9.31314c-4.62501,0 -8.37433,-4.16963 -8.37433,-9.31314c0,-5.1435 3.74932,-9.31314 8.37433,-9.31314c4.62501,0 8.37433,4.16963 8.37433,9.31314z" fill="#b100ff" stroke-linecap="butt"/><path d="M348.3701,175.46082c0,2.67955 -1.35221,4.85175 -3.02025,4.85175c-1.66804,0 -3.02025,-2.1722 -3.02025,-4.85175c0,-2.67955 1.35221,-4.85175 3.02025,-4.85175c1.66804,0 3.02025,2.1722 3.02025,4.85175z" fill="#000000" stroke-linecap="butt"/></g></g></svg>