<svg version="1.1" xmlns="http://www.w3.org/2000/svg" xmlns:xlink="http://www.w3.org/1999/xlink" width="96.1724" height="97.26079" viewBox="0,0,96.1724,97.26079"><g transform="translate(-191.9138,-131.23752)"><g data-paper-data="{&quot;isPaintingLayer&quot;:true}" fill-rule="nonzero" stroke-linejoin="miter" stroke-miterlimit="10" stroke-dasharray="" stroke-dashoffset="0" style="mix-blend-mode: normal"><path d="M192.4138,226.6009v-64.88824v-9.24098c0,0 2.20499,0 4.81102,0c11.2941,0 90.36138,0 90.36138,0v74.12922z" fill="#afafaf" stroke="#000000" stroke-width="1" stroke-linecap="butt"></path><path d="M192.4138,205.86675v-64.88824v-9.24098c0,0 2.20499,0 4.81102,0c11.2941,0 90.36138,0 90.36138,0v74.12922z" fill="#afafaf" stroke="#000000" stroke-width="1" stroke-linecap="butt"></path><text transform="translate(226.51063,222.60707) scale(0.4713,0.4713)" font-size="40" xml:space="preserve" fill="#000000" fill-rule="nonzero" stroke="none" stroke-width="1" stroke-linecap="butt" stroke-linejoin="miter" stroke-miterlimit="10" stroke-dasharray="" stroke-dashoffset="0" font-family="Sans Serif" font-weight="normal" text-anchor="start" style="mix-blend-mode: normal"><tspan x="0" dy="0">1-9</tspan></text><path d="M196.91902,199.90345v-60.82023h86.62275v60.82023z" fill="#939393" stroke="#000000" stroke-width="1" stroke-linecap="butt"></path><g stroke="#000000"><path d="M267.43878,183.99102l-14.07796,-0.19978" data-paper-data="{&quot;index&quot;:null}" fill="none" stroke-width="1" stroke-linecap="round"></path><path d="M210.26697,180.94398v-3.77093h13.05619v3.77093z" fill="#d3b131" stroke-width="0.5" stroke-linecap="butt"></path><path d="M216.20622,178.56971l6.73951,3.53954" fill="none" stroke-width="1" stroke-linecap="round"></path><path d="M229.22521,192.4404v-7.81327h19.62714v7.81327z" fill="#d4d4d4" stroke-width="0.5" stroke-linecap="butt"></path><path d="M232.55625,185.78707v-31.79814c0,0 1.00915,-9.55505 9.67355,-5.43147c7.84335,3.73282 -1.54197,12.12909 -1.54197,12.12909v25.10052z" fill="#0b8100" stroke-width="0.5" stroke-linecap="butt"></path><path d="M232.53713,185.85988v-18.41849h8.20606v18.41849z" fill="#ffffff" stroke-width="0.5" stroke-linecap="butt"></path><path d="M232.56789,175.86297v-8.45231h3.76514z" fill="#ff0000" stroke-width="0.5" stroke-linecap="butt"></path><path d="M235.8131,160.36691c0,1.9497 -0.62987,3.53026 -1.40685,3.53026c-0.77698,0 -1.40685,-1.58055 -1.40685,-3.53026c0,-1.9497 0.64256,-3.31444 1.41954,-3.31444c0.77698,0 1.39415,1.36473 1.39415,3.31444z" fill="#000000" stroke-width="0.5" stroke-linecap="butt"></path><path d="M236.62758,154.7152l-4.08789,3.82107" fill="none" stroke-width="0.5" stroke-linecap="round"></path><path d="M238.49387,162.56048c0,0 -0.10287,1.85497 -0.83086,2.23402c-0.98509,0.51293 -4.54522,0.56524 -4.54522,0.56524" fill="none" stroke-width="0.5" stroke-linecap="round"></path><path d="M222.45428,178.1994v-5.67068l21.20774,-0.05714l0.02331,-6.15097l10.36664,0.35096v11.52783z" fill="#9b9b9b" stroke-width="0.5" stroke-linecap="butt"></path><path d="M220.49728,188.12669v-9.98442h36.78302v9.98442z" fill="#636363" stroke-width="0.5" stroke-linecap="butt"></path><path d="M216.47565,188.37804l8.30972,-5.37891" fill="none" stroke-width="1" stroke-linecap="round"></path><path d="M209.65648,189.67219v-4.49084h15.54874v4.49084z" fill="#d3b131" stroke-width="0.5" stroke-linecap="butt"></path><path d="M259.79507,186.6808v-4.49084h15.54874v4.49084z" fill="#d3b131" stroke-width="0.5" stroke-linecap="butt"></path><path d="M253.53604,185.07044l14.07796,-0.19978" fill="none" stroke-width="1" stroke-linecap="round"></path></g></g></g></svg>