<svg version="1.1" xmlns="http://www.w3.org/2000/svg" xmlns:xlink="http://www.w3.org/1999/xlink" width="41.47119" height="27.13512" viewBox="0,0,41.47119,27.13512"><g transform="translate(-299.26238,-166.51582)"><g stroke="#000000" stroke-width="0.5" stroke-miterlimit="10"><path d="M308.96648,193.23417l-9.38776,-11.45371l3.15832,-4.30071l9.38776,11.45371z" fill="#0b8100"/><path d="M306.46339,181.80512l-3.59635,-4.44705l10.22471,-6.40878l0.40366,6.25371z" fill="#ff0000"/><g><path d="M328.30873,188.93347l9.06336,-11.45371l3.04919,4.30071l-9.06336,11.45371z" fill="#0b8100"/><path d="M326.98546,177.203l0.38972,-6.25371l9.8714,6.40878l-3.47206,4.44705z" fill="#ff0000"/></g><path d="M312.42622,180.25953v-9.75h15.20862v9.75z" fill="#0b8100"/><path d="M312.47009,180.30954v-9.75h5.20603v9.75z" fill="#ff0000"/><path d="M322.34107,180.10954v-9.75h5.20603v9.75z" fill="#ff0000"/><path d="M313.4691,179.18214v-12.41632h13.25819v12.41632z" fill="#0b8100"/><path d="M319.02058,176.48584c0,2.55559 -0.38417,2.64757 -0.96632,2.64757c-0.58214,0 -1.14181,-0.09198 -1.14181,-2.64757c0,-2.55559 0.47192,-4.6273 1.05406,-4.6273c0.58214,0 1.05406,2.07171 1.05406,4.6273z" fill="#000000"/><path d="M323.15874,176.57483c0,2.55559 -0.42805,2.54757 -1.0102,2.54757c-0.58214,0 -1.09794,0.00802 -1.09794,-2.54757c0,-2.55559 0.47192,-4.6273 1.05406,-4.6273c0.58214,0 1.05406,2.07171 1.05406,4.6273z" fill="#000000"/></g></g></svg>