<svg version="1.1" xmlns="http://www.w3.org/2000/svg" xmlns:xlink="http://www.w3.org/1999/xlink" width="736" height="448.52099" viewBox="0,0,736,448.52099"><g transform="translate(53.4236,58.0208)"><g stroke-miterlimit="10"><path d="M-45.9236,273.9792c-4.14213,0 -7.5,-2.3923 -7.5,-5.34335v-321.3133c0,-2.95105 3.35787,-5.34335 7.5,-5.34335h721c4.14214,0 7.5,2.3923 7.5,5.34335v321.3133c0,2.95105 -3.35786,5.34335 -7.5,5.34335z" fill-opacity="0.50196" fill="#000000" stroke="none" stroke-width="0"/><path d="M53.50006,72.0001v-87h554v87z" fill="#adadad" stroke="#000000" stroke-width="1"/><path d="M124.68897,262.53342v-168h387.02222v168z" fill="#adadad" stroke="#000000" stroke-width="1"/><text transform="translate(275.60553,45.28072) scale(0.69512,0.69512)" font-size="40" xml:space="preserve" fill="#000000" stroke="none" stroke-width="1" font-family="Sans Serif" font-weight="normal" text-anchor="start"><tspan x="0" dy="0">Thanks</tspan></text><path d="M186.50008,390.00019v-116h79v116z" fill="#adadad" stroke="#000000" stroke-width="1"/><path d="M369.50009,390.00019v-116h93v116z" fill="#adadad" stroke="#000000" stroke-width="1"/><text transform="translate(139.00896,159.47834) scale(0.43518,0.47733)" font-size="40" xml:space="preserve" fill="#000000" stroke="none" stroke-width="1" font-family="Sans Serif" font-weight="normal" text-anchor="start"><tspan x="0" dy="0">This took me a while to write, so thanks for</tspan><tspan x="0" dy="46.150000000000006px">reading! And also thanks for playing and/or</tspan><tspan x="0" dy="46.150000000000006px">downloading the game, this means a lot </tspan><tspan x="0" dy="46.150000000000006px">for me :)</tspan></text></g></g></svg>