<svg version="1.1" xmlns="http://www.w3.org/2000/svg" xmlns:xlink="http://www.w3.org/1999/xlink" width="96.1724" height="97.26079" viewBox="0,0,96.1724,97.26079"><g transform="translate(-271.9138,-131.23755)"><g stroke-miterlimit="10"><path d="M272.4138,226.60092v-64.88824v-9.24098c0,0 2.20499,0 4.81102,0c11.2941,0 90.36138,0 90.36138,0v74.12922z" fill="#afafaf" stroke="#000000" stroke-width="1" stroke-linecap="butt"/><path d="M272.4138,205.86677v-64.88824v-9.24098c0,0 2.20499,0 4.81102,0c11.2941,0 90.36138,0 90.36138,0v74.12922z" fill="#afafaf" stroke="#000000" stroke-width="1" stroke-linecap="butt"/><text transform="translate(307.49782,222.60709) scale(0.4713,0.4713)" font-size="40" xml:space="preserve" fill="#000000" stroke="none" stroke-width="1" stroke-linecap="butt" font-family="Sans Serif" font-weight="normal" text-anchor="start"><tspan x="0" dy="0">2-5</tspan></text><path d="M276.91902,199.90347v-60.82023h86.62275v60.82023z" fill="#2e2e2e" stroke="#000000" stroke-width="1" stroke-linecap="butt"/><g><path d="M317.36987,197.68101v-53.33009h10.80504v53.33009z" fill="#0b8100" stroke="#000000" stroke-width="0.5" stroke-linecap="butt"/><path d="M317.38534,197.75154v-30.89048h10.904v30.89048z" fill="#740000" stroke="#000000" stroke-width="0.5" stroke-linecap="butt"/><path d="M317.38534,181.03683v-14.17577h5.00302z" fill="#ffffff" stroke="#000000" stroke-width="0.5" stroke-linecap="butt"/><path d="M317.30855,176.04387v-9.30946h3.28557z" fill="#ff0000" stroke="#000000" stroke-width="0.5" stroke-linecap="butt"/><path d="M321.32301,153.33135c0,0 2.87684,0.39032 -0.55987,2.33587c-0.51396,0.29096 -2.57046,-1.62289 -2.57046,-1.62289" fill="none" stroke="#000000" stroke-width="0.5" stroke-linecap="round"/><text transform="translate(305.71291,149.88827) scale(0.16853,0.16853)" font-size="40" xml:space="preserve" fill="#000000" stroke="none" stroke-width="1" stroke-linecap="butt" font-family="Sans Serif" font-weight="normal" text-anchor="start"><tspan x="0" dy="0">Zzz</tspan></text></g><path d="M333.7116,131.95688h33.838v33.838z" fill="#ff0000" stroke="#000000" stroke-width="1" stroke-linecap="butt"/></g></g></svg>