<svg version="1.1" xmlns="http://www.w3.org/2000/svg" xmlns:xlink="http://www.w3.org/1999/xlink" width="241.96666" height="197.70644" viewBox="0,0,241.96666,197.70644"><g transform="translate(-102.27894,-46.3976)"><g stroke="none" stroke-width="0.5" stroke-miterlimit="10"><path d="M280.67858,154.7873c-0.81353,-2.36393 1.5504,-3.17746 1.5504,-3.17746l4.6399,-1.56057c7.46151,-0.04722 14.92306,-0.03602 22.3847,-0.03442c0.12685,-0.07515 0.20356,-0.12052 0.21905,-0.12981c0,0 1.57374,-0.94424 2.83347,0.13371c5.3177,0.03142 10.73592,0.31478 15.64984,2.70813c2.79803,1.36279 4.86171,3.88742 7.26009,5.87085c3.17911,2.6291 7.14059,6.5449 8.55814,10.66158c0.99314,2.88415 0.10965,6.10013 0.10327,9.15047c-0.01126,5.38525 -0.53182,10.53886 -1.14007,15.88893c-8.71013,10.89727 -35.33038,5.16406 -42.89306,-6.00457c-2.75915,-4.07473 -1.42957,-28.45422 1.54847,-33.27461c-4.56641,0.00101 -9.1328,-0.00467 -13.69906,-0.03876l-3.83767,1.35694c0,0 -2.36393,0.81353 -3.17746,-1.5504zM310.265,155.01505c-1.83713,0.72991 -3.80947,1.30491 -4.8107,2.90427c-1.94106,3.10064 -2.65391,26.0811 -1.28593,27.86434c4.67217,6.09047 28.52727,13.38132 33.93472,6.63797c0.33273,-4.70407 0.76704,-9.30079 0.77435,-14.02096c0.00394,-2.54033 1.02821,-5.24212 0.13386,-7.61981c-1.20164,-3.19461 -4.445,-6.27881 -6.96146,-8.31334c-2.15335,-1.74096 -3.89773,-4.10625 -6.39542,-5.30183c-4.65838,-2.22986 -9.90097,-2.15066 -14.89555,-2.15066c-0.16462,0 -0.32924,0.00001 -0.49387,0.00003z" fill="#000000" stroke-linecap="butt"/><path d="M124.52442,54.29215c-4.6463,1.85852 -7.66803,4.49625 -11.42461,7.77315c-2.28469,1.99296 -7.81398,5.17548 -9.04297,7.88826c-0.40203,0.88741 0.00824,3.00918 0.01096,3.99998c0.00836,3.0512 -1.2044,9.26803 0.03287,11.99995c1.13406,2.50403 6.15096,5.42774 8.24793,7.27816c2.54553,2.24623 5.29166,5.63411 8.24793,7.27816c2.68739,1.49453 6.62113,1.99061 9.57656,2.87915c12.1999,3.66784 27.23181,6.92638 34.62726,-6.70201c1.99913,-3.68402 1.54165,-8.79019 1.54167,-12.80658c0.00002,-4.18581 0.90728,-10.02588 -1.27863,-13.83373c-2.06665,-3.6001 -7.0232,-6.94627 -10.14133,-9.63875c-5.20415,-4.49374 -10.93706,-10.77753 -17.69439,-12.88932c-4.37963,-1.36872 -18.4001,-1.4118 -22.97691,-0.52014c-12.78837,2.49147 -15.44072,28.50957 -7.4296,36.75118" fill="none" stroke-linecap="round"/><path d="M198.92095,118.96364c2.04972,2.04972 -0.71072,4.28364 -1.83317,5.75499c-2.41167,3.16131 -4.02545,11.93939 -1.83273,15.43534c5.2018,8.29342 15.63177,11.6928 24.59685,13.93978c3.10706,0.77875 7.93311,1.05298 10.66997,2.67429c1.82935,1.08371 1.46845,3.59355 1.8555,5.42276c0.89254,4.21826 1.17008,8.70683 2.81138,12.44931c1.63554,3.72935 5.0991,8.67364 8.2929,11.22542c1.33215,1.06436 2.89246,1.47879 4.13653,2.74931c3.71474,3.79371 8.16999,8.46699 11.03991,12.9275c1.24666,1.9376 1.65479,4.44667 2.96033,6.34322c0.86388,1.25495 2.90827,2.17478 3.51949,3.55138c2.02767,4.56683 -1.61634,11.59216 0.39935,15.99049c1.56006,3.40412 7.46682,5.99603 10.70854,6.79469c3.61673,0.89104 7.24866,0.75396 10.88232,1.41647c7.11663,1.29755 14.24095,3.80835 21.29592,5.5063c3.7104,0.893 9.89609,3.69262 13.6862,2.7779c3.2991,-0.79621 3.8159,-4.4373 4.65039,-7.14184" fill="none" stroke-linecap="round"/></g></g></svg>