<svg version="1.1" xmlns="http://www.w3.org/2000/svg" xmlns:xlink="http://www.w3.org/1999/xlink" width="64.79222" height="88.38662" viewBox="0,0,64.79222,88.38662"><g transform="translate(-287.5598,-137.40138)"><g stroke-miterlimit="10"><path d="M351.4477,137.59302v84.81396h-62.89539v-84.81396z" fill="#515151" stroke="none" stroke-width="0" stroke-linecap="butt"/><g stroke="#000000" stroke-width="1.28786"><path d="M297.84151,168.95141l6.64231,3.22953c0,0 -4.77399,4.79523 -1.11187,9.81027c5.80368,7.94779 14.37828,11.70621 14.37828,11.70621l-3.96432,5.33298c0,0 -12.50015,-9.06627 -15.29305,-14.33504c-2.48613,-4.69007 -0.65136,-15.74396 -0.65136,-15.74396z" fill="#ffffff" stroke-linecap="butt"/><path d="M303.55164,156.89286l9.86168,-6.21852l-4.27828,10.57373z" fill="#ff0000" stroke-linecap="butt"/><path d="M308.54338,166.25773c-2.08198,5.44292 -5.92142,9.28897 -8.57561,8.5904c-2.65419,-0.69858 -3.11806,-5.67723 -1.03608,-11.12015c2.08198,-5.44292 5.92142,-9.28897 8.57561,-8.5904c2.65419,0.69858 3.11806,5.67723 1.03608,11.12015z" fill="#ba0000" stroke-linecap="butt"/><path d="M327.39169,194.16932c1.09009,3.98929 -3.59851,8.74588 -10.47227,10.62416c-6.87377,1.87829 -13.32973,0.16698 -14.41982,-3.82231c-1.09009,-3.98928 3.59851,-8.74588 10.47227,-10.62416c6.87377,-1.87828 13.32973,-0.16697 14.41982,3.82232z" fill="#00ff07" stroke-linecap="butt"/><path d="M343.387,204.53762c0,-0.44277 0.09992,-0.80171 0.22316,-0.80171c0.12325,0 0.22317,0.35893 0.22317,0.80171c0,0.44277 -0.09992,0.80171 -0.22317,0.80171c-0.12325,0 -0.22316,-0.35893 -0.22316,-0.80171z" fill="#ba0000" stroke-linecap="butt"/><path d="M341.9625,193.42488c4.79317,4.01648 6.40424,9.98689 3.59842,13.3353c-2.80582,3.34841 -8.96603,2.80684 -13.7592,-1.20962c-4.79317,-4.01648 -6.40424,-9.98688 -3.59842,-13.3353c2.80582,-3.34841 8.96603,-2.80685 13.7592,1.20961z" fill="#00ff07" stroke-linecap="butt"/><path d="M341.41983,182.01559c0,8.17066 -7.31231,14.79429 -16.3325,14.79429c-9.02019,0 -16.3325,-6.62362 -16.3325,-14.79429c0,-8.17066 7.31231,-14.79429 16.3325,-14.79429c6.1242,0 7.08045,4.62359 9.8761,9.14129c1.32199,2.13631 6.45641,3.02975 6.45641,5.65299z" fill="#ffffff" stroke-linecap="butt"/><path d="M333.12208,173.11747c1.75178,4.97743 -1.39072,0.79217 -12.26053,7.58335c-5.2042,3.25146 -7.31125,8.05671 -9.86447,6.74994c-1.00212,-0.51289 -2.30553,-4.84016 -1.02073,-9.41651c1.16641,-4.15467 4.71307,-8.55824 7.88902,-9.676c6.67426,-2.34898 13.50492,-0.2182 15.25671,4.75922z" fill="#f38dff" stroke-linecap="butt"/><path d="M311.37749,179.48208l-4.8948,-12.63938l11.10974,7.24063z" fill="#f38dff" stroke-linecap="butt"/><path d="M323.8916,169.43639l7.36077,-11.03051l0.47799,13.54564z" fill="#f38dff" stroke-linecap="butt"/><path d="M324.31175,178.35478l1.7688,10.0006" fill="none" stroke-linecap="round"/><path d="M332.39192,187.84476l-1.78533,-10.61222" fill="none" stroke-linecap="round"/><path d="M334.77838,188.6627c0,0 1.41673,3.94066 -2.71949,3.72679c-1.07005,-0.05533 -3.08978,-3.58893 -3.08978,-3.58893c0,0 -1.58811,3.59628 -2.78672,3.48426c-4.80889,-0.44943 -5.37956,-3.86437 -5.37956,-3.86437" fill="none" stroke-linecap="round"/></g><path d="M288.55233,222.38702v-12.81396h62.89539v12.81396z" fill="#969696" stroke="none" stroke-width="0" stroke-linecap="butt"/><path d="M288.50229,222.35702v-84.81396h8.64539v84.81396z" fill="#969696" stroke="none" stroke-width="0" stroke-linecap="butt"/><path d="M344.14809,222.62133v-84.81396h8.14539v84.81396z" fill="#969696" stroke="none" stroke-width="0" stroke-linecap="butt"/><path d="M288.55233,147.90701v-10.31396h62.89539v10.31396z" fill="#969696" stroke="none" stroke-width="0" stroke-linecap="butt"/><path d="M296.29734,211.48042v-21.00188l21.13534,21.00188z" fill="#969696" stroke="none" stroke-width="0" stroke-linecap="butt"/><path d="M303.41181,215.22399v-12.15842h44.05785v12.15842z" fill="#969696" stroke="none" stroke-width="0" stroke-linecap="butt"/><text transform="translate(318.87042,219.538) scale(0.47116,0.5)" font-size="40" xml:space="preserve" fill="#000000" stroke="none" stroke-width="1" stroke-linecap="butt" font-family="Sans Serif" font-weight="normal" text-anchor="start"><tspan x="0" dy="0">175</tspan></text><g stroke-linecap="butt"><path d="M303.936,213.69347l-2.65375,6.84999l-2.38631,-6.84999z" fill="#ffff00" stroke="#ffff00" stroke-width="1"/><path d="M298.96775,202.31762l2.38632,-6.84999l2.65375,6.84999z" fill="#ffff00" stroke="#ffff00" stroke-width="1"/><path d="M294.78435,208.21682c0,-3.72115 3.01658,-6.73773 6.73773,-6.73773c3.72115,0 6.73772,3.01658 6.73772,6.73773c0,3.72115 -3.01658,6.73772 -6.73772,6.73772c-3.72115,0 -6.73773,-3.01658 -6.73773,-6.73772z" fill="#ffff00" stroke="none" stroke-width="0"/><path d="M307.21236,205.68172l6.87114,2.59848l-6.83054,2.44142z" fill="#ffff00" stroke="#ffff00" stroke-width="1"/><path d="M295.87692,210.74146l-6.86899,-2.33105l6.82838,-2.70885z" fill="#ffff00" stroke="#ffff00" stroke-width="1"/><path d="M307.52794,210.32821l3.04475,6.68537l-6.56714,-3.08051z" fill="#ffff00" stroke="#ffff00" stroke-width="1"/><path d="M295.91926,205.9314l-3.23165,-6.49409l6.75404,2.88922z" fill="#ffff00" stroke="#ffff00" stroke-width="1"/><path d="M304.08737,202.38559l6.66063,-3.0985l-3.02751,6.59174z" fill="#ffff00" stroke="#ffff00" stroke-width="1"/><path d="M299.78422,214.02932l-6.46785,3.28387l2.83472,-6.7771z" fill="#ffff00" stroke="#ffff00" stroke-width="1"/><path d="M296.80059,208.41738c0,-2.70702 2.19448,-4.90151 4.9015,-4.90151c2.70702,0 4.90151,2.19448 4.90151,4.90151c0,2.70702 -2.19448,4.9015 -4.90151,4.9015c-2.70702,0 -4.9015,-2.19448 -4.9015,-4.9015z" fill="#fffff7" stroke="none" stroke-width="0"/></g><path d="M352.35202,137.40138v33.64619l-33.86,-33.64619z" fill="#3aff00" stroke="none" stroke-width="0" stroke-linecap="butt"/></g></g></svg>