<svg version="1.1" xmlns="http://www.w3.org/2000/svg" xmlns:xlink="http://www.w3.org/1999/xlink" width="736" height="448.52083" viewBox="0,0,736,448.52083"><g transform="translate(53.42367,58.02083)"><g stroke-miterlimit="10"><path d="M-45.92367,273.97917c-4.14213,0 -7.5,-2.3923 -7.5,-5.34335v-321.3133c0,-2.95105 3.35787,-5.34335 7.5,-5.34335h721c4.14214,0 7.5,2.3923 7.5,5.34335v321.3133c0,2.95105 -3.35786,5.34335 -7.5,5.34335z" fill-opacity="0.50196" fill="#000000" stroke="none" stroke-width="0" stroke-linecap="butt"/><path d="M53.5,72v-87h554v87z" fill="#adadad" stroke="#000000" stroke-width="1" stroke-linecap="butt"/><path d="M124.48889,262.33333v-168h387.02222v168z" fill="#adadad" stroke="#000000" stroke-width="1" stroke-linecap="butt"/><text transform="translate(216.56645,53.01875) scale(0.86836,0.86836)" font-size="40" xml:space="preserve" fill="#000000" stroke="none" stroke-width="1" stroke-linecap="butt" font-family="Sans Serif" font-weight="normal" text-anchor="start"><tspan x="0" dy="0">Zombie Guide</tspan></text><path d="M186.5,390v-116h79v116z" fill="#adadad" stroke="#000000" stroke-width="1" stroke-linecap="butt"/><path d="M369.5,390v-116h93v116z" fill="#adadad" stroke="#000000" stroke-width="1" stroke-linecap="butt"/><path d="M317.59977,92.57554v169" fill="none" stroke="#000000" stroke-width="2" stroke-linecap="round"/><path d="M134.58805,254.28256v-124.5h85.56371v124.5z" fill="#adadad" stroke="#000000" stroke-width="1" stroke-linecap="butt"/><path d="M330.08804,254.28256v-124.5h85.56371v124.5z" fill="#adadad" stroke="#000000" stroke-width="1" stroke-linecap="butt"/><text transform="translate(134.58805,118.78256) scale(0.5,0.5)" font-size="40" xml:space="preserve" fill="#000000" stroke="none" stroke-width="1" stroke-linecap="butt" font-family="Sans Serif" font-weight="normal" text-anchor="start"><tspan x="0" dy="0">Sleepy Zombie</tspan></text><text transform="translate(329.58804,119.28256) scale(0.5,0.5)" font-size="40" xml:space="preserve" fill="#000000" stroke="none" stroke-width="1" stroke-linecap="butt" font-family="Sans Serif" font-weight="normal" text-anchor="start"><tspan x="0" dy="0">Zombot-2000</tspan></text><text transform="translate(226.08805,144.53256) scale(0.2758,0.31943)" font-size="40" xml:space="preserve" fill="#000000" stroke="none" stroke-width="1" stroke-linecap="butt" font-family="Sans Serif" font-weight="normal" text-anchor="start"><tspan x="0" dy="0">HP: 35</tspan><tspan x="0" dy="46.150000000000006px">Speed: Slow</tspan><tspan x="0" dy="46.150000000000006px">Damage: High</tspan><tspan x="0" dy="46.150000000000006px">Special: None</tspan></text><text transform="translate(421.08805,143.03256) scale(0.27742,0.31943)" font-size="40" xml:space="preserve" fill="#000000" stroke="none" stroke-width="1" stroke-linecap="butt" font-family="Sans Serif" font-weight="normal" text-anchor="start"><tspan x="0" dy="0">HP: 1500</tspan><tspan x="0" dy="46.150000000000006px">Speed: Fast</tspan><tspan x="0" dy="46.150000000000006px">Damage: Mortal</tspan><tspan x="0" dy="46.150000000000006px">Special: Can use</tspan><tspan x="0" dy="46.150000000000006px">special habili-</tspan><tspan x="0" dy="46.150000000000006px">ties in battle</tspan></text><g><path d="M174.85941,245.97346v-106.27644h21.53233v106.27644z" fill="#0b8100" stroke="#000000" stroke-width="0.5" stroke-linecap="butt"/><path d="M174.89023,246.11402v-61.55869h21.72955v61.55869z" fill="#740000" stroke="#000000" stroke-width="0.5" stroke-linecap="butt"/><path d="M174.89023,212.80487v-28.24954h9.97005z" fill="#ffffff" stroke="#000000" stroke-width="0.5" stroke-linecap="butt"/><path d="M174.73721,202.85489v-18.55194h6.5475z" fill="#ff0000" stroke="#000000" stroke-width="0.5" stroke-linecap="butt"/><path d="M182.73726,157.59327c0,0 5.73297,0.77782 -1.1157,4.65493c-1.02422,0.57983 -5.12243,-3.23409 -5.12243,-3.23409" fill="none" stroke="#000000" stroke-width="0.5" stroke-linecap="round"/><text transform="translate(151.62938,150.73189) scale(0.33584,0.33584)" font-size="40" xml:space="preserve" fill="#000000" stroke="none" stroke-width="1" stroke-linecap="butt" font-family="Sans Serif" font-weight="normal" text-anchor="start"><tspan x="0" dy="0">Zzz</tspan></text></g><g stroke="#000000" stroke-width="0.5"><path d="M366.81886,193.19271l9.11364,0.8401l-2.51665,27.30129z" fill="#383838" stroke-linecap="butt"/><path d="M380.58734,218.48545l9.4867,-25.72346l8.58692,3.16681z" fill="#383838" stroke-linecap="butt"/><path d="M344.60463,195.97481l8.58692,-3.16681l9.4867,25.72346z" fill="#383838" stroke-linecap="butt"/><path d="M403.65153,190.36691c0,3.80925 -2.98124,6.89725 -6.6588,6.89725c-3.67755,0 -6.6588,-3.088 -6.6588,-6.89725c0,-3.80925 2.98124,-6.89725 6.6588,-6.89725c3.67755,0 6.6588,3.08802 6.6588,6.89725z" fill="#bbbbbb" stroke-linecap="butt"/><path d="M367.46618,207.92548l9.11364,0.8401l-2.51665,27.30129z" fill="#636363" stroke-linecap="butt"/><path d="M380.01611,206.73207c0,3.96224 -3.16945,7.17429 -7.07917,7.17429c-3.90972,0 -7.07916,-3.21203 -7.07916,-7.17429c0,-3.96224 3.16944,-7.17429 7.07916,-7.17429c3.90972,0 7.07917,3.21203 7.07917,7.17429z" fill="#bbbbbb" stroke-linecap="butt"/><path d="M354.10209,190.05593c0,3.80925 -2.98124,6.89725 -6.6588,6.89725c-3.67755,0 -6.6588,-3.088 -6.6588,-6.89725c0,-3.80925 2.98124,-6.89725 6.6588,-6.89725c3.67755,0 6.6588,3.088 6.6588,6.89725z" fill="#bbbbbb" stroke-linecap="butt"/><path d="M344.53981,212.51006l8.58692,-3.16681l9.4867,25.72346z" fill="#636363" stroke-linecap="butt"/><path d="M384.89878,234.4988l9.4867,-25.72346l8.58692,3.16681z" fill="#636363" stroke-linecap="butt"/><path d="M364.07488,203.31806v-43.89753c0,0 1.39314,-13.1908 13.35439,-7.49818c10.82779,5.15318 -2.12869,16.74428 -2.12869,16.74428v34.65143z" fill="#0b8100" stroke-linecap="butt"/><path d="M364.04848,203.41858v-25.42684h11.32851v25.42684z" fill="#ffffff" stroke-linecap="butt"/><path d="M364.09095,189.61777v-11.66846h5.1978z" fill="#ff0000" stroke-linecap="butt"/><path d="M368.57099,168.22537c0,2.69158 -0.86954,4.87354 -1.94216,4.87354c-1.07262,0 -1.94216,-2.18197 -1.94216,-4.87354c0,-2.69158 0.88706,-4.57561 1.95969,-4.57561c1.07262,0 1.92464,1.88401 1.92464,4.57561z" fill="#000000" stroke-linecap="butt"/><path d="M364.05203,165.69816l5.64336,-5.27502" fill="none" stroke-linecap="round"/><path d="M364.47432,175.34763l6.2747,-0.78031" fill="none" stroke-linecap="round"/><path d="M370.44813,201.67213c-12.4889,0 -19.84256,-2.61025 -19.84256,-18.18491c0,-15.57464 7.35365,-38.21586 19.84256,-38.21586c12.48891,0 22.61319,12.62574 22.61319,28.20038c0,15.57464 -10.12427,28.20038 -22.61319,28.20038z" fill="none" stroke-linecap="butt"/><path d="M350.09083,192.82413v-7.8284l0.34265,-8.02088l11.20791,-0.06446l0.27563,5.95515l17.8334,-0.24171l-0.34999,-6.19844l14.31122,0.4845v15.91424z" fill="#9b9b9b" stroke-linecap="butt"/><path d="M347.4274,206.54793v-17.71938h50.77919v17.71938z" fill="#636363" stroke-linecap="butt"/><path d="M355.43957,207.87313c0,3.96224 -3.16945,7.17429 -7.07917,7.17429c-3.90972,0 -7.07916,-3.21203 -7.07916,-7.17429c0,-3.96224 3.16944,-7.17429 7.07916,-7.17429c3.90972,0 7.07917,3.21203 7.07917,7.17429z" fill="#bbbbbb" stroke-linecap="butt"/><path d="M398.72659,216.06002c-4.07855,0 -7.38489,-3.3275 -7.38489,-7.43221c0,-4.1047 3.30633,-7.43221 7.38489,-7.43221c4.07855,0 7.38487,3.32751 7.38487,7.43221c0,4.1047 -3.30632,7.43221 -7.38487,7.43221z" fill="#bbbbbb" stroke-linecap="butt"/></g><text transform="translate(421.4214,251.49774) scale(0.2439,0.2439)" font-size="40" xml:space="preserve" fill="#ff0000" stroke="none" stroke-width="1" stroke-linecap="butt" font-family="Sans Serif" font-weight="normal" text-anchor="start"><tspan x="0" dy="0">Boss zombie</tspan></text><text transform="translate(421.58808,242.49772) scale(0.22412,0.2439)" font-size="40" xml:space="preserve" fill="#ff0000" stroke="none" stroke-width="1" stroke-linecap="butt" font-family="Sans Serif" font-weight="normal" text-anchor="start"><tspan x="0" dy="0">Poision resistant</tspan></text></g></g></svg>