<svg version="1.1" xmlns="http://www.w3.org/2000/svg" xmlns:xlink="http://www.w3.org/1999/xlink" width="64.79222" height="88.38662" viewBox="0,0,64.79222,88.38662"><g transform="translate(-287.55981,-137.40138)"><g stroke-miterlimit="10"><path d="M351.4477,137.59302v84.81396h-62.89539v-84.81396z" fill="#515151" stroke="none" stroke-width="0"/><g stroke="#000000" stroke-width="1.28786"><path d="M320.81565,207.00892c0,0 -3.41747,-8.57988 -3.95707,-15.46855c-0.36245,-4.62712 3.95707,-13.84974 3.95707,-13.84974h5.75573c0,0 -3.79375,9.18863 -3.41746,13.84974c0.5396,6.68416 3.41746,15.46855 3.41746,15.46855z" fill="#09ff00"/><g><path d="M324.93985,185.7404c0.70211,3.23337 4.48942,6.26613 4.48942,6.26613c0,0 -6.55567,0.96299 -7.60527,0.61984c-2.03725,-0.66604 -4.46138,-1.60459 -4.92475,-3.73854c-0.70211,-3.23337 0.37027,-6.21098 2.39521,-6.65067c2.02494,-0.4397 4.94329,0.26986 5.6454,3.50324z" fill="#007cc5"/><path d="M319.83425,192.20978c-1.37252,5.76574 2.50368,9.80245 2.40007,9.77778c-2.86113,-0.68108 -13.58529,-5.12372 -12.1612,-11.1061c1.42408,-5.98238 4.89794,-10.27992 7.75909,-9.59883c2.86113,0.68108 3.42614,4.94478 2.00205,10.92716z" fill="#09ff00"/><path d="M323.45763,165.8895c2.12926,-2.53256 0.8913,-6.79138 0.8913,-6.79138c0,0 6.72342,2.37438 7.09365,3.41473c0.71861,2.0193 1.45814,4.51137 0.05287,6.18281c-2.12926,2.53256 -5.14112,3.50461 -6.72717,2.17113c-1.58605,-1.33348 -3.43992,-2.44472 -1.31066,-4.97728z" fill="#007cc5"/><path d="M332.32952,164.34207c5.40161,-2.4393 6.2258,-7.97469 6.26964,-7.87763c1.21045,2.68044 4.25212,13.8828 -1.35244,16.41375c-5.60456,2.53095 -11.12923,2.40976 -12.33968,-0.27069c-1.21045,-2.68044 1.81792,-5.73448 7.42248,-8.26544z" fill="#09ff00"/><path d="M311.60608,168.38474c-2.38694,-2.29133 -6.28021,-1.05884 -6.28021,-1.05884c0,0 3.47917,-5.00516 4.54164,-5.30612c2.06221,-0.58416 4.59756,-1.15807 6.17288,0.35415c2.38694,2.29133 3.15866,5.36062 1.72369,6.85547c-1.43497,1.49484 -3.77105,1.44667 -6.158,-0.84466z" fill="#007cc5"/><path d="M311.75112,161.25515c-2.07852,-5.55043 -7.54767,-6.73713 -7.44793,-6.77448c2.75429,-1.03142 14.13254,-3.32924 16.28915,2.42973c2.15661,5.75898 1.6721,11.26368 -1.08219,12.29511c-2.75429,1.03142 -5.60242,-2.19138 -7.75903,-7.95036z" fill="#09ff00"/><path d="M310.73745,179.66177c-0.08845,0.09643 1.53685,1.81921 1.45509,1.92709c-1.98566,2.61986 -3.74703,6.81013 -3.74703,6.81013c0,0 -3.14868,-5.00174 -3.47365,-6.05712c-0.63075,-2.04844 -1.26199,-4.57013 0.21414,-6.17932c2.23663,-2.43826 5.28764,-3.27935 6.81463,-1.87863c1.52699,1.40072 0.97345,2.93958 -1.26318,5.37785z" fill="#007cc5"/><path d="M304.16473,180.47609c-5.50188,2.20379 -6.56433,7.69845 -6.60392,7.59957c-1.09359,-2.73021 -3.64872,-14.05345 2.05989,-16.34005c5.70862,-2.2866 11.22289,-1.92699 12.31649,0.80323c1.09359,2.73021 -2.06383,5.65065 -7.77245,7.93724z" fill="#09ff00"/><path d="M331.9408,176.21174c3.3059,-0.13659 6.74966,-2.42912 6.74966,-2.42912c0,0 -0.26336,3.64658 -0.7816,4.62169c-1.00589,1.89266 -2.34667,4.11969 -4.52848,4.20983c-3.3059,0.13659 -6.0552,-1.43104 -6.14075,-3.5014c-0.08554,-2.07036 1.39528,-2.76441 4.70118,-2.901z" fill="#007cc5"/><path d="M337.06682,180.47304c5.44451,2.34196 10.08673,-0.78368 10.04465,-0.68584c-1.16216,2.70174 -7.3799,12.50399 -13.02898,10.07403c-5.64908,-2.42996 -9.28645,-6.59002 -8.12429,-9.29176c1.16216,-2.70174 5.45955,-2.52638 11.10862,-0.09642z" fill="#09ff00"/><path d="M310.14889,176.96519c0,-5.66756 4.59447,-10.26203 10.26203,-10.26203c5.66756,0 10.26203,4.59447 10.26203,10.26203c0,5.66756 -4.59447,10.26203 -10.26203,10.26203c-5.66756,0 -10.26203,-4.59447 -10.26203,-10.26203z" fill="#67ffed"/><path d="M320.36591,174.57972c0,2.06319 -0.58439,3.73574 -1.30526,3.73574c-0.72087,0 -1.30526,-1.67255 -1.30526,-3.73574c0,-2.06319 0.58439,-3.73574 1.30526,-3.73574c0.72087,0 1.30526,1.67255 1.30526,3.73574z" fill="#000000"/><path d="M325.4069,174.75975c0,2.21234 -0.62468,4.00579 -1.39528,4.00579c-0.77059,0 -1.39528,-1.79346 -1.39528,-4.00579c0,-2.21234 0.62468,-4.00579 1.39528,-4.00579c0.77059,0 1.39528,1.79346 1.39528,4.00579z" fill="#000000"/><path d="M329.27768,182.0512c0,2.7095 -3.72797,4.90597 -8.32665,4.90597c-4.59868,0 -8.95677,-2.19648 -8.95677,-4.90597c0,-1.03777 -1.0424,-2.69997 -0.9846,-3.05826c0.0931,-0.57718 2.37911,0.64984 6.16062,1.48294c4.49099,0.9894 12.10739,-1.13419 12.10739,1.57531z" fill="#67ffed"/></g><path d="M316.13715,209.34718c-4.12359,0 -7.46643,-1.34886 -7.46643,-3.01276c0,-1.6639 3.34284,-3.01276 7.46643,-3.01276c4.12359,0 7.46643,1.34886 7.46643,3.01276c0,1.6639 -3.34284,3.01276 -7.46643,3.01276z" fill="#09ff00"/><path d="M330.70636,209.88678c-4.12359,0 -7.46643,-1.34885 -7.46643,-3.01276c0,-1.6639 3.34282,-3.01276 7.46643,-3.01276c4.1236,0 7.46643,1.34885 7.46643,3.01276c0,1.6639 -3.34282,3.01276 -7.46643,3.01276z" fill="#09ff00"/></g><path d="M288.55233,222.38702v-12.81396h62.89539v12.81396z" fill="#969696" stroke="none" stroke-width="0"/><path d="M288.50229,222.35702v-84.81396h8.64539v84.81396z" fill="#969696" stroke="none" stroke-width="0"/><path d="M344.0581,222.41133v-84.81396h8.14539v84.81396z" fill="#969696" stroke="none" stroke-width="0"/><path d="M288.55233,147.90701v-10.31396h62.89539v10.31396z" fill="#969696" stroke="none" stroke-width="0"/><path d="M296.29734,211.48042v-21.00188l21.13534,21.00188z" fill="#969696" stroke="none" stroke-width="0"/><path d="M303.41181,215.22399v-12.15842h44.05785v12.15842z" fill="#969696" stroke="none" stroke-width="0"/><text transform="translate(337.49649,219.538) scale(0.47116,0.5)" font-size="40" xml:space="preserve" fill="#000000" stroke="none" stroke-width="1" font-family="Sans Serif" font-weight="normal" text-anchor="start"><tspan x="0" dy="0">0</tspan></text><g><path d="M303.936,213.69347l-2.65375,6.84999l-2.38631,-6.84999z" fill="#ffff00" stroke="#ffff00" stroke-width="1"/><path d="M298.96775,202.31762l2.38632,-6.84999l2.65375,6.84999z" fill="#ffff00" stroke="#ffff00" stroke-width="1"/><path d="M294.78435,208.21682c0,-3.72115 3.01658,-6.73773 6.73773,-6.73773c3.72115,0 6.73772,3.01658 6.73772,6.73773c0,3.72115 -3.01658,6.73772 -6.73772,6.73772c-3.72115,0 -6.73773,-3.01658 -6.73773,-6.73772z" fill="#ffff00" stroke="none" stroke-width="0"/><path d="M307.21236,205.68172l6.87114,2.59848l-6.83054,2.44142z" fill="#ffff00" stroke="#ffff00" stroke-width="1"/><path d="M295.87692,210.74146l-6.86899,-2.33105l6.82838,-2.70885z" fill="#ffff00" stroke="#ffff00" stroke-width="1"/><path d="M307.52794,210.32821l3.04475,6.68537l-6.56714,-3.08051z" fill="#ffff00" stroke="#ffff00" stroke-width="1"/><path d="M295.91926,205.9314l-3.23165,-6.49409l6.75404,2.88922z" fill="#ffff00" stroke="#ffff00" stroke-width="1"/><path d="M304.08737,202.38559l6.66063,-3.0985l-3.02751,6.59174z" fill="#ffff00" stroke="#ffff00" stroke-width="1"/><path d="M299.78422,214.02932l-6.46785,3.28387l2.83472,-6.7771z" fill="#ffff00" stroke="#ffff00" stroke-width="1"/><path d="M296.80059,208.41738c0,-2.70702 2.19448,-4.90151 4.9015,-4.90151c2.70702,0 4.90151,2.19448 4.90151,4.90151c0,2.70702 -2.19448,4.9015 -4.90151,4.9015c-2.70702,0 -4.9015,-2.19448 -4.9015,-4.9015z" fill="#fffff7" stroke="none" stroke-width="0"/></g><path d="M352.35202,137.40138v33.64619l-33.86,-33.64619z" fill="#00e2ff" stroke="none" stroke-width="0"/></g></g></svg>