<svg version="1.1" xmlns="http://www.w3.org/2000/svg" xmlns:xlink="http://www.w3.org/1999/xlink" width="58.37588" height="72.48533" viewBox="0,0,58.37588,72.48533"><g transform="translate(-210.81206,-142.29307)"><g data-paper-data="{&quot;isPaintingLayer&quot;:true}" fill-rule="nonzero" stroke="#000000" stroke-width="1.28786" stroke-linejoin="miter" stroke-miterlimit="10" stroke-dasharray="" stroke-dashoffset="0" style="mix-blend-mode: normal"><path d="M223.55329,164.817c0.04339,-0.05964 -6.37221,2.35564 -6.47389,1.7599c-0.62435,-3.65822 2.81812,-18.53961 2.81812,-18.53961l8.39057,6.96067l2.41429,-8.09145l7.45846,8.79848l-1.2472,1.47886l0.67676,-0.79437l5.76141,-10.13894l7.60107,11.79311l-1.1694,0.17112l4.8202,-11.70755l6.36037,11.00881l5.81846,-11.65051c0,0 -2.43597,20.91451 -2.54803,23.23794c-0.02063,0.42785 1.43043,-0.06689 1.43043,-0.06689" data-paper-data="{&quot;index&quot;:null}" fill="#00ffff" stroke-linecap="round"></path><path d="M216.37706,166.69255l4.77741,-14.08899l5.81846,11.65051l6.36037,-11.00881l4.8202,11.70755l-1.1694,-0.17112l7.60107,-11.79311l5.76141,10.13894l0.67676,0.79437l-1.2472,-1.47886l7.45846,-8.79848l4.76315,11.27974l1.69678,2.33213" fill="#00ffff" stroke-linecap="round"></path><path d="M216.96133,214.13447l4.32106,-43.87836l39.10345,0.22816l6.4602,43.65019z" fill="#87ffff" stroke-linecap="butt"></path><path d="M268.54401,170.9905c0,-1.0078 -1.66123,-2.88802 -10.34703,-3.70226c-9.19844,-0.8623 -25.64601,-0.62957 -33.06244,-0.61839c-14.12059,0.02128 -13.677,2.28859 -13.677,4.32065c0,1.59686 2.02673,3.91332 12.57547,4.26846c9.02705,0.30391 26.30767,0.66858 35.72345,-0.2988c7.88104,-0.8097 8.78755,-2.82588 8.78755,-3.96966z" fill="#549e9e" stroke-linecap="butt"></path><path d="M217.43419,172.36368l4.77741,-14.08899l5.81846,11.65051l6.36037,-11.00881l4.8202,11.70755l-1.1694,-0.17112l7.60107,-11.79311l5.76141,10.13894l0.67676,0.79437l-1.2472,-1.47886l7.45846,-8.79848l4.76315,11.27974l1.69678,2.33213" fill="#00ffff" stroke-linecap="round"></path><path d="M222.01234,180.22741l14.80421,4.70773" fill="none" stroke-linecap="round"></path><path d="M239.64401,184.05495l16.97816,-4.36099" fill="none" stroke-linecap="round"></path><path d="M237.71014,187.40904c0,-3.36234 -4.53697,-4.14093 -7.43545,-4.14093c-2.89848,0 -3.06087,0.7786 -3.06087,4.14093c0,3.36234 2.34968,6.08805 5.24816,6.08805c2.89848,0 5.24816,-2.72571 5.24816,-6.08805z" fill="#ffffff" stroke-linecap="butt"></path><path d="M240.36072,187.03244c0,-3.36234 4.53697,-4.14093 7.43545,-4.14093c2.89848,0 3.06087,0.7786 3.06087,4.14093c0,3.36234 -2.34968,6.08805 -5.24816,6.08805c-2.89848,0 -5.24816,-2.72571 -5.24816,-6.08805z" data-paper-data="{&quot;index&quot;:null}" fill="#ffffff" stroke-linecap="butt"></path><path d="M237.99021,204.6863c0,0 4.52604,-3.5049 7.7887,-4.7056c2.69012,-0.99 10.40313,-1.98926 10.40313,-1.98926" fill="none" stroke-linecap="round"></path></g></g></svg>