<svg version="1.1" xmlns="http://www.w3.org/2000/svg" xmlns:xlink="http://www.w3.org/1999/xlink" width="23.71168" height="52.00232" viewBox="0,0,23.71168,52.00232"><g transform="translate(-227.15098,-152.38897)"><g data-paper-data="{&quot;isPaintingLayer&quot;:true}" fill-rule="nonzero" stroke-width="0.5" stroke-linecap="butt" stroke-linejoin="miter" stroke-miterlimit="10" stroke-dasharray="" stroke-dashoffset="0" style="mix-blend-mode: normal"><path d="M243.34366,158.86964c1.29711,1.97425 0.9722,6.03934 -2.46628,8.29847c-3.43848,2.25913 -9.69669,1.12684 -9.69669,1.12684c0,0 3.65711,-8.12682 3.76618,-8.19848c3.43848,-2.25913 7.09967,-3.20108 8.39679,-1.22683z" fill="#15ff00" stroke="#000000"></path><path d="M235.11527,204.1094l0.01111,-46.24129l9.75835,-1.97752v48.21881z" data-paper-data="{&quot;index&quot;:null}" fill="#73ff66" stroke="#000000"></path><path d="M235.03581,204.14129v-27.92987h9.85894v27.92987z" data-paper-data="{&quot;index&quot;:null}" fill="#12db00" stroke="#000000"></path><path d="M242.35585,159.50372c0.93348,0 1.69022,2.39675 1.69022,5.35328c0,2.95654 -0.75674,5.35328 -1.69022,5.35328c-0.93348,0 -1.69022,-2.39675 -1.69022,-5.35328c0,-2.95654 0.75674,-5.35328 1.69022,-5.35328z" data-paper-data="{&quot;index&quot;:null}" fill="#000000" stroke="#000000"></path><path d="M244.23212,153.71411c1.29711,1.97426 0.9722,6.03934 -2.46628,8.29847c-3.43848,2.25913 -9.69669,1.12684 -9.69669,1.12684c0,0 3.65711,-8.12683 3.76618,-8.19849c3.43848,-2.25913 7.09967,-3.20108 8.39678,-1.22683z" fill="#15ff00" stroke="#000000"></path><path d="M236.71976,189.35337c-0.49725,0.05234 -0.5496,-0.44491 -0.5496,-0.44491l-0.02285,-0.62861c0.41993,-1.27691 1.83181,-2.59207 1.88804,-3.96071c0.09442,-2.29826 -1.37995,-3.69632 -0.64571,-6.08718c0,0 0.14774,-0.47767 0.62542,-0.32993c0.47767,0.14774 0.32993,0.62542 0.32993,0.62542c-0.68622,2.20156 0.81249,3.66005 0.68753,5.86682c-0.08739,1.54329 -1.48044,2.76903 -1.9339,4.19378l0.06603,0.21573c0,0 0.05234,0.49725 -0.44491,0.5496z" fill="#0fb400" stroke="none"></path><path d="M240.44759,189.37443c0.47045,0.16933 0.30112,0.63978 0.30112,0.63978l-0.02024,0.05623c-0.75306,2.09216 0.40001,3.56631 -0.22371,5.57505c-0.44191,1.42319 -2.09168,2.8303 -2.7649,4.22661c0,0 -0.21738,0.45027 -0.66766,0.23289c-0.45027,-0.21738 -0.23289,-0.66766 -0.23289,-0.66766c0.63719,-1.31813 2.33058,-2.79262 2.72359,-4.12787c0.56944,-1.93468 -0.54264,-3.44581 0.22466,-5.57768l0.02024,-0.05623c0,0 0.16933,-0.47045 0.63978,-0.30112z" fill="#0fb400" stroke="none"></path><path d="M243.05024,197.2637c-0.4975,0.04995 -0.54745,-0.44755 -0.54745,-0.44755l-0.05665,-0.57179c0.00977,-1.01549 0.08458,-2.02192 0.04577,-3.03648c-0.30303,-1.74349 0.0502,-3.4231 -0.10957,-5.16421c-0.09332,-1.01693 -0.87123,-2.0327 -1.18092,-2.99185c-0.55673,-1.72429 -0.31522,-3.50321 0.01906,-5.24452c0,0 0.09443,-0.491 0.58543,-0.39657c0.491,0.09443 0.39657,0.58543 0.39657,0.58543c-0.64576,3.35157 0.86009,4.88326 1.17131,7.91708c0.17916,1.74648 -0.18643,3.44211 0.11262,5.19c0.04104,1.03665 -0.03004,2.05924 -0.04129,3.09621l0.05265,0.5168c0,0 0.04995,0.4975 -0.44755,0.54745z" fill="#0fb400" stroke="none"></path><path d="M233.69956,197.51987c-0.49814,0.04304 -0.54118,-0.45511 -0.54118,-0.45511l-0.01091,-0.12632c-0.1609,-1.86575 -0.01481,-3.43142 0.40057,-5.24364c0.75605,-2.99924 -0.77502,-5.74694 -0.81362,-8.72456c-0.02783,-2.1469 1.03376,-4.45349 1.88832,-6.35119c0,0 0.2053,-0.45591 0.66121,-0.2506c0.45591,0.2053 0.2506,0.66121 0.2506,0.66121c-0.79567,1.7669 -1.83621,3.95547 -1.80029,5.95832c0.05522,3.07933 1.56067,5.81868 0.78626,8.9398c-0.39215,1.71127 -0.52931,3.16198 -0.37676,4.92459l0.01091,0.12632c0,0 0.04304,0.49814 -0.45511,0.54118z" fill="#0fb400" stroke="none"></path><path d="M249.97424,180.54385c0.0578,0.49665 -0.43885,0.55444 -0.43885,0.55444l-0.591,0.06878c-0.17942,0.02088 -1.12191,0.1366 -1.71532,0.18948c0.27002,1.05848 0.44034,2.13931 0.37909,3.2831c-0.1662,3.10366 -1.73857,5.88545 -1.95255,8.99077c0.09983,2.65793 0.34865,4.66534 2.16148,6.69193l0.36665,0.40999c0,0 0.3333,0.3727 -0.0394,0.70601c-0.3727,0.3333 -0.70601,-0.0394 -0.70601,-0.0394l-0.36665,-0.40999c-1.98681,-2.22226 -2.31329,-4.46626 -2.41594,-7.37503c0.21814,-3.12032 1.77973,-5.92133 1.95391,-9.02893c0.06737,-1.20191 -0.14701,-2.33691 -0.46206,-3.45083c-1.28147,-0.79513 -1.32072,-2.95343 -1.72028,-4.15833c-0.63973,-1.92916 -1.51876,-2.44529 -3.44717,-2.82744c0,0 -0.49029,-0.09805 -0.39224,-0.58834c0.09805,-0.49029 0.58834,-0.39224 0.58834,-0.39224c1.33909,0.27003 2.63764,0.53317 3.42131,1.75043c0.46521,0.7226 0.70305,1.48373 0.88605,2.19666c0.41425,-0.06848 0.54025,0.35594 0.54025,0.35594c0.24487,0.82649 0.52752,1.63632 0.78634,2.44847c0.44426,0.25914 1.07724,0.36401 2.01859,0.25446l0.591,-0.06878c0,0 0.49665,-0.0578 0.55444,0.43885z" fill="#0fb400" stroke="none"></path><path d="M231.67608,203.95555c-0.22359,-0.44722 0.22363,-0.67081 0.22363,-0.67081l0.43172,-0.19064c2.73021,-0.43694 2.85222,-4.71142 4.53466,-6.54423c0,0 0.33854,-0.36795 0.70649,-0.02942c0.36795,0.33854 0.02942,0.70649 0.02942,0.70649c-1.98986,2.15739 -1.74555,6.29319 -5.10908,6.85403l-0.14602,0.09821c0,0 -0.44722,0.22359 -0.67081,-0.22363z" fill="#0fb400" stroke="none"></path><path d="M250.64481,202.69105c0.40766,0.28951 0.11814,0.69717 0.11814,0.69717l-0.69546,0.90619c-3.28067,0.53192 -5.36387,-1.74921 -8.23219,-2.82748c0,0 -0.46794,-0.17616 -0.29179,-0.6441c0.17616,-0.46794 0.6441,-0.29179 0.6441,-0.29179c2.5044,0.94403 4.54628,3.05871 7.36666,2.9051l0.39336,-0.62695c0,0 0.28951,-0.40766 0.69717,-0.11814z" fill="#0fb400" stroke="none"></path><path d="M228.40595,182.32523c-0.41265,0.28235 -0.695,-0.13029 -0.695,-0.13029l-0.47794,-0.71339c-0.24773,-1.13059 0.06808,-2.03878 0.91478,-2.8866c1.59991,-1.60202 4.28309,-1.64249 5.89064,-3.22497c0.94048,-0.92582 1.21535,-2.59277 1.97493,-3.66918c0.81248,-1.15138 1.3447,-1.33942 2.65303,-0.99563c0,0 0.47548,0.15466 0.32081,0.63014c-0.15466,0.47548 -0.63014,0.32081 -0.63014,0.32081c-1.8017,-0.78972 -2.55971,3.36717 -3.57144,4.37846c-1.33427,1.33368 -7.34737,2.49768 -6.63804,5.04254l0.38866,0.55311c0,0 0.28235,0.41265 -0.13029,0.695z" fill="#0fb400" stroke="none"></path></g></g></svg>