<svg version="1.1" xmlns="http://www.w3.org/2000/svg" xmlns:xlink="http://www.w3.org/1999/xlink" width="41.28786" height="42.62119" viewBox="0,0,41.28786,42.62119"><g transform="translate(-219.35607,-158.6894)"><g data-paper-data="{&quot;isPaintingLayer&quot;:true}" fill-rule="nonzero" stroke="#000000" stroke-width="1.28786" stroke-linejoin="miter" stroke-miterlimit="10" stroke-dasharray="" stroke-dashoffset="0" style="mix-blend-mode: normal"><path d="M237.375,181.83334v-14h6v14z" fill="#c9c9c9" stroke-linecap="butt"></path><path d="M246.04166,165.41667c0,3.35973 -2.61167,6.08333 -5.83333,6.08333c-3.22166,0 -5.83333,-2.7236 -5.83333,-6.08333c0,-3.35973 2.61167,-6.08333 5.83333,-6.08333c3.22166,0 5.83333,2.7236 5.83333,6.08333z" fill="#ff0000" stroke-linecap="butt"></path><path d="M240,197.41666c-9.25077,0 -16.25,1.20584 -16.25,-6.25c0,-7.45584 7.24923,-15 16.5,-15c9.25077,0 17,7.54416 17,15c0,7.45584 -7.99923,6.25 -17.25,6.25z" fill="#ffe49d" stroke-linecap="butt"></path><path d="M227.25,192.16667c0,2.20914 -1.62297,4 -3.625,4c-2.00203,0 -3.625,-1.79086 -3.625,-4c0,-2.20914 1.62297,-4 3.625,-4c2.00203,0 3.625,1.79086 3.625,4z" fill="#960000" stroke-linecap="butt"></path><path d="M230.625,199.91667c-2.1401,0 -3.875,-1.84683 -3.875,-4.125c0,-2.27817 1.7349,-4.125 3.875,-4.125c2.1401,0 3.875,1.84683 3.875,4.125c0,2.27817 -1.7349,4.125 -3.875,4.125z" fill="#960000" stroke-linecap="butt"></path><path d="M235,196.66667c0,-2.20914 1.79086,-4 4,-4c2.20914,0 4,1.79086 4,4c0,2.20914 -1.79086,4 -4,4c-2.20914,0 -4,-1.79086 -4,-4z" fill="#960000" stroke-linecap="butt"></path><path d="M252,196.16667c0,2.20914 -1.90279,4 -4.25,4c-2.34721,0 -4.25,-1.79086 -4.25,-4c0,-2.20914 1.90279,-4 4.25,-4c2.34721,0 4.25,1.79086 4.25,4z" fill="#960000" stroke-linecap="butt"></path><path d="M260,193.66667c0,1.933 -1.67893,3.5 -3.75,3.5c-2.07107,0 -3.75,-1.567 -3.75,-3.5c0,-1.933 1.67893,-3.5 3.75,-3.5c2.07107,0 3.75,1.567 3.75,3.5z" fill="#960000" stroke-linecap="butt"></path><path d="M242.54167,183.16665c0,2.11709 -0.74619,3.83334 -1.66666,3.83334c-0.92048,0 -1.66666,-1.71625 -1.66666,-3.83334c0,-2.11709 0.74619,-3.83333 1.66666,-3.83333c0.92048,0 1.66666,1.71624 1.66666,3.83333z" fill="#000000" stroke-linecap="butt"></path><path d="M247.375,182.91666c0,2.07107 -0.55964,3.75 -1.25,3.75c-0.69036,0 -1.25,-1.67893 -1.25,-3.75c0,-2.07107 0.55964,-3.75 1.25,-3.75c0.69036,0 1.25,1.67893 1.25,3.75z" fill="#000000" stroke-linecap="butt"></path><path d="M239.54167,189c0,0 -3.9998,0.61961 -8.73002,-2.79492c-1.26731,-0.91481 -0.10331,-2.37175 -0.10331,-2.37175" fill="none" stroke-linecap="round"></path><path d="M227.6922,188.2094l2.4716,-3.34073c0,0 0.29594,0.50952 0.74204,1.22702c0.33349,0.53637 2.42975,1.96158 2.42975,1.96158l-1.62716,2.67407z" fill="#ffffff" stroke-linecap="butt"></path></g></g></svg>