<svg version="1.1" xmlns="http://www.w3.org/2000/svg" xmlns:xlink="http://www.w3.org/1999/xlink" width="24.2139" height="40.75929" viewBox="0,0,24.2139,40.75929"><g transform="translate(-283.84292,-160.10474)"><g stroke="#000000" stroke-miterlimit="10"><path d="M289.58855,183.03932l-3.53735,0.50519l5.11408,-6.26971l11.71983,0.31896l-0.0429,5.54804l-11.37744,-2.10731z" fill="#ffffff" stroke-width="0.5" stroke-linecap="butt"/><path d="M292.24825,182.68642l-1.06878,-5.45179l1.90813,-0.37407l1.06878,5.45179z" fill="#ffa661" stroke-width="0.5" stroke-linecap="butt"/><path d="M286.05173,185.81407l-0.10909,-9.3327l8.99939,-0.10519l0.10909,9.3327z" fill="#ff0000" stroke-width="0.5" stroke-linecap="butt"/><path d="M286.86588,179.41523l-0.03312,-2.83313l7.22173,-0.08442l0.03312,2.83314z" fill="#000000" stroke-width="0.5" stroke-linecap="butt"/><path d="M297.97352,200.48953v-40.13478h8.13158v40.13478z" fill="#0b8100" stroke-width="0.5" stroke-linecap="butt"/><path d="M297.91373,200.61404v-23.24734h8.20606v23.24734z" fill="#ffffff" stroke-width="0.5" stroke-linecap="butt"/><path d="M301.36423,168.12814c0,2.46086 -0.62987,4.45579 -1.40685,4.45579c-0.77698,0 -1.40685,-1.99492 -1.40685,-4.45579c0,-2.46086 0.62987,-4.45579 1.40685,-4.45579c0.77698,0 1.40685,1.99492 1.40685,4.45579z" fill="#000000" stroke-width="0.5" stroke-linecap="butt"/><path d="M295.97191,190.2639l-3.47188,0.61601l0.18961,-5.08919l10.07482,-7.34098l0.72671,5.13985l-6.45627,3.28285z" fill="#ffffff" stroke-width="0.5" stroke-linecap="butt"/><path d="M298.57562,187.5465l-3.70784,-4.13717l1.44801,-1.29774l3.70784,4.13717z" fill="#ffa661" stroke-width="0.5" stroke-linecap="butt"/><path d="M301.47348,184.71794v-6.77778h2.66667v6.77778z" fill="#ffa661" stroke-width="0.5" stroke-linecap="butt"/><path d="M297.75126,191.21794v-2.38889h8.66667v2.38889z" fill="#ffa661" stroke-width="0.5" stroke-linecap="butt"/><path d="M296.64015,177.66238v-3.05556h11.16667v3.05556z" fill="#ffa661" stroke-width="0.5" stroke-linecap="butt"/><path d="M286.86588,176.45689l-0.03312,-5.05849l7.22173,-0.15072l0.03312,5.0585z" fill="#00f5ff" stroke-width="0.5" stroke-linecap="butt"/><path d="M302.02924,173.78817c0,0 0.94089,-1.17905 1.41702,-1.49797c0.52802,-0.35367 1.61155,-0.5306 1.61155,-0.5306c0,0 -0.58346,-2.21323 -1.28571,-1.74286c-0.70225,0.47037 -1.74286,3.77143 -1.74286,3.77143z" fill="#000000" stroke-width="0.5" stroke-linecap="round"/><path d="M302.35432,163.74035l-2.94118,-2.11765" fill="none" stroke-width="0.5" stroke-linecap="round"/><g><g stroke-width="0.5" stroke-linecap="butt"><path d="M289.36778,179.34249l-0.07736,-5.54232l2.05694,-0.02871l0.07736,5.54232z" fill="#6e9c9a"/><path d="M288.73819,175.17944l-0.01196,-0.85706l3.17112,-0.04426l0.01196,0.85706z" fill="#3d5654"/><path d="M288.87958,177.12052l-0.01196,-0.85706l3.17112,-0.04426l0.01196,0.85706z" fill="#3d5654"/><path d="M288.87773,179.03502l-0.01196,-0.85706l3.17112,-0.04426l0.01196,0.85706z" fill="#3d5654"/></g><path d="M288.01266,172.33215c-0.01806,-1.2938 1.01613,-2.35727 2.30993,-2.37533c1.2938,-0.01806 2.35727,1.01613 2.37533,2.30993c0.01806,1.2938 -1.01613,2.35727 -2.30993,2.37533c-1.2938,0.01806 -2.35727,-1.01613 -2.37533,-2.30993z" fill="#6e9c9a" stroke-width="0.5" stroke-linecap="butt"/><path d="M289.28434,172.84416l0.13868,-0.36498l0.12341,0.34335l0.21264,0.04017l-0.1999,0.09984l-0.11528,0.23884l-0.15369,-0.19555l-0.30353,-0.11438z" fill="none" stroke-width="0.5" stroke-linecap="round"/><path d="M290.19535,169.9227c0,0 -0.92096,-1.69332 -2.24948,-1.68312c-0.99524,0.00764 -3.13985,1.50832 -3.13985,1.50832c0,0 1.57594,0.34978 2.1637,0.67723c0.39484,0.21997 1.02046,1.09668 1.02046,1.09668c0,0 0.95277,-0.21397 1.36489,-0.15258c0.2728,0.04064 0.86724,0.48509 0.86724,0.48509z" fill="#905fff" stroke-width="0.5" stroke-linecap="round"/><path d="M290.53559,169.87249c0,0 0.87334,-1.71837 2.20162,-1.74525c0.99507,-0.02014 3.18073,1.4201 3.18073,1.4201c0,0 -1.56556,0.39363 -2.14395,0.73735c-0.38855,0.2309 -0.98945,1.12474 -0.98945,1.12474c0,0 -0.95837,-0.1873 -1.36862,-0.11442c-0.27156,0.04823 -0.85337,0.50911 -0.85337,0.50911z" fill="#000000" stroke-width="0.5" stroke-linecap="round"/><path d="M291.66854,172.87674l-0.30022,0.12281l-0.14818,0.19976l-0.1219,-0.23553l-0.2026,-0.09422l0.21143,-0.04609l0.11378,-0.34666l0.14881,0.36096z" fill="none" stroke-width="0.5" stroke-linecap="round"/><path d="M288.62893,173.71242c0,0 0.29747,0.69828 1.74987,0.76188c1.29877,0.05687 1.72895,-0.87044 1.72895,-0.87044" fill="none" stroke-width="0.75" stroke-linecap="round"/><path d="M296.01322,169.66897c-0.00509,-0.36447 0.28625,-0.66406 0.65072,-0.66915c0.36447,-0.00509 0.66406,0.28625 0.66915,0.65072c0.00509,0.36447 -0.28625,0.66406 -0.65072,0.66915c-0.36447,0.00509 -0.66406,-0.28625 -0.66915,-0.65072z" fill="#905fff" stroke-width="0.5" stroke-linecap="butt"/><path d="M284.09298,169.73534c-0.00509,-0.36447 0.28625,-0.66406 0.65072,-0.66915c0.36447,-0.00509 0.66406,0.28625 0.66915,0.65072c0.00509,0.36447 -0.28625,0.66406 -0.65072,0.66915c-0.36447,0.00509 -0.66406,-0.28625 -0.66915,-0.65072z" fill="#000000" stroke-width="0.5" stroke-linecap="butt"/></g></g></g></svg>