<svg version="1.1" xmlns="http://www.w3.org/2000/svg" xmlns:xlink="http://www.w3.org/1999/xlink" width="483.91854" height="441.5425" viewBox="0,0,483.91854,441.5425"><g transform="translate(-79.16983,40.77125)"><g stroke-miterlimit="10"><path d="M79.16983,400.77125v-441.5425h480.66034v441.5425z" fill="#000000" stroke="none" stroke-width="0"/><path d="M187.5,260.5v-161h265v161z" fill="#747474" stroke="#000000" stroke-width="2"/><path d="M248.73855,206.09661v-52.19321h142.5229v52.19321z" fill="#afafaf" stroke="#000000" stroke-width="2"/><text transform="translate(261.5886,185.88924) scale(0.49077,0.49077)" font-size="40" xml:space="preserve" fill="#000000" stroke="none" stroke-width="1" font-family="Sans Serif" font-weight="normal" text-anchor="start"><tspan x="0" dy="0">MAIN MENU</tspan></text><text transform="translate(293.19475,197.76575) scale(0.23972,0.23972)" font-size="40" xml:space="preserve" fill="#000000" stroke="none" stroke-width="1" font-family="Sans Serif" font-weight="normal" text-anchor="start"><tspan x="0" dy="0">(Click to go)</tspan></text><text transform="translate(256.92006,125.76875) scale(0.5,0.5)" font-size="40" xml:space="preserve" fill="#000000" stroke="none" stroke-width="1" font-family="Sans Serif" font-weight="normal" text-anchor="start"><tspan x="0" dy="0">Where to go?</tspan></text><path d="M563.06269,-1.92539c-0.16257,0.97419 -0.32515,1.94837 -0.48772,2.92256c0.30976,2.74579 -0.23816,6.25088 -0.23816,8.82479v2.78629c0,1.0328 -0.62628,1.91933 -1.51979,2.30052v0.23247c0,0.00956 -0.00005,0.01911 -0.00016,0.02864c-0.00519,0.83648 -0.05419,1.67113 -0.13382,2.50394l0.07849,-0.01682l0.74876,3.4942c0.04358,0.18486 0.06663,0.37764 0.06663,0.5758c0,1.38071 -1.11929,2.5 -2.5,2.5c-0.68704,0 -1.30935,-0.27714 -1.76124,-0.72573c-0.3128,0.14079 -0.65977,0.21913 -1.02505,0.21913c-1.30615,0 -2.37835,-1.00167 -2.49034,-2.27874l-0.2276,-2.27605c-0.68413,-1.88091 -1.8502,-4.75538 -2.04301,-6.75851c-0.06781,-0.70446 0.68392,-1.49691 0.31341,-2.09989c-0.40101,-0.65262 -1.42094,-0.57253 -2.13141,-0.8588c0,0 -2.15945,-1.25968 -0.89977,-3.41912c1.25968,-2.15945 3.41912,-0.89977 3.41912,-0.89977c1.09796,0.74742 2.51517,1.1847 3.45251,2.08815c0.07387,-0.49069 0.13348,-0.97756 0.13348,-1.44849l0.28731,-1.93079c0,0 0.09558,-0.57346 0.47109,-1.12121c-0.00967,-1.67382 0.00158,-3.23689 0.00149,-3.78707v-0.7599c0,0 0,-0.54334 0.2533,-1.12341v-1.91618c0,-1.38071 1.11929,-2.5 2.5,-2.5c1.38071,0 2.5,1.11929 2.5,2.5v0.32126c1.54364,0.75575 1.23248,2.62273 1.23248,2.62273z" fill="#000000" stroke="none" stroke-width="0.5"/></g></g></svg>