<svg version="1.1" xmlns="http://www.w3.org/2000/svg" xmlns:xlink="http://www.w3.org/1999/xlink" width="96.1724" height="97.26078" viewBox="0,0,96.1724,97.26078"><g transform="translate(-191.9138,-131.23749)"><g data-paper-data="{&quot;isPaintingLayer&quot;:true}" fill-rule="nonzero" stroke-linecap="butt" stroke-linejoin="miter" stroke-miterlimit="10" stroke-dasharray="" stroke-dashoffset="0" style="mix-blend-mode: normal"><path d="M192.4138,226.60087v-64.88824v-9.24098c0,0 2.20499,0 4.81102,0c11.2941,0 90.36138,0 90.36138,0v74.12922z" fill="#afafaf" stroke="#000000" stroke-width="1"></path><path d="M192.4138,205.86672v-64.88824v-9.24098c0,0 2.20499,0 4.81102,0c11.2941,0 90.36138,0 90.36138,0v74.12922z" fill="#afafaf" stroke="#000000" stroke-width="1"></path><text transform="translate(226.18157,222.60703) scale(0.4713,0.4713)" font-size="40" xml:space="preserve" fill="#000000" fill-rule="nonzero" stroke="none" stroke-width="1" stroke-linecap="butt" stroke-linejoin="miter" stroke-miterlimit="10" stroke-dasharray="" stroke-dashoffset="0" font-family="Sans Serif" font-weight="normal" text-anchor="start" style="mix-blend-mode: normal"><tspan x="0" dy="0">1-2</tspan></text><path d="M196.91902,199.90336v-60.82023h86.62275v60.82023z" fill="#939393" stroke="#000000" stroke-width="1"></path><path d="M234.12548,197.70103v-44.99224l9.65388,-0.23097v45.22321z" fill="#0b8100" stroke="#000000" stroke-width="0.5"></path><path d="M234.13929,197.76403v-27.59945h9.74231v27.59945z" fill="#740000" stroke="#000000" stroke-width="0.5"></path><path d="M234.13929,182.8301v-12.6655h4.47001z" fill="#ffffff" stroke="#000000" stroke-width="0.5"></path><path d="M234.07068,178.36909v-8.31765h2.93552z" fill="#ff0000" stroke="#000000" stroke-width="0.5"></path><path d="M238.3184,158.94449c0,2.92157 -0.74778,5.28995 -1.67022,5.28995c-0.92244,0 -1.67024,-2.36839 -1.67024,-5.28995c0,-2.92157 0.74779,-5.28995 1.67024,-5.28995c0.92244,0 1.67022,2.36839 1.67022,5.28995z" fill="#000000" stroke="#000000" stroke-width="0.5"></path><path d="M233.11207,156.57905v-4.53793h11.50136v4.53793z" fill="#ff6e00" stroke="#000000" stroke-width="0.5"></path><path d="M233.97814,151.89102l2.77161,-9.5031h4.22599l2.8871,9.5031z" fill="#ff6e00" stroke="#000000" stroke-width="0.5"></path><path d="M253.7116,131.95687h33.838v33.838z" fill="#ff0000" stroke="#000000" stroke-width="1"></path></g></g></svg>