<svg version="1.1" xmlns="http://www.w3.org/2000/svg" xmlns:xlink="http://www.w3.org/1999/xlink" width="67.00864" height="165.0568" viewBox="0,0,67.00864,165.0568"><g transform="translate(-162.27983,-97.2216)"><g data-paper-data="{&quot;isPaintingLayer&quot;:true}" fill-rule="nonzero" stroke="#000000" stroke-linejoin="miter" stroke-miterlimit="10" stroke-dasharray="" stroke-dashoffset="0" style="mix-blend-mode: normal"><g stroke-width="0.5" stroke-linecap="butt"><path d="M194.69248,191.79945l-4.0504,-34.88657l15.9641,-1.85347l2.09044,29.83337z" fill="#636363"></path><path d="M189.95127,154.129c1.24656,-5.05546 6.32926,-8.14962 11.35252,-6.91099c5.02327,1.23861 8.08489,6.34099 6.83833,11.39645c-1.24656,5.05549 -6.32927,8.1496 -11.35252,6.91099c-5.02327,-1.23861 -8.08489,-6.34099 -6.83833,-11.39645z" data-paper-data="{&quot;index&quot;:null}" fill="#bbbbbb"></path><path d="M167.65688,183.33042l33.84951,-9.36426l4.28508,15.48952l-33.84951,9.36426z" data-paper-data="{&quot;index&quot;:null}" fill="#636363"></path><path d="M196.94404,189.96406c-4.3449,-2.80878 -5.57559,-8.63055 -2.74879,-13.00329c2.82679,-4.37274 8.64059,-5.64057 12.98549,-2.83179c4.3449,2.80878 5.57555,8.63057 2.74876,13.00329c-2.82679,4.37274 -8.64058,5.64057 -12.98546,2.83179z" data-paper-data="{&quot;index&quot;:null}" fill="#bbbbbb"></path></g><path d="M221.90274,126.41489c0,15.66004 -10.38934,28.2667 -25.11147,28.2667c-14.72212,0 -22.1974,2.73528 -22.1974,-12.92476c0,-15.66002 7.47528,-43.78523 22.1974,-43.78523c14.72212,0 25.11147,12.78329 25.11147,28.44331z" fill="none" stroke-width="1.5" stroke-linecap="butt"></path><path d="M190.02058,151.81667v-33.39078c0,0 1.382,-13.08532 13.24759,-7.43822c10.7412,5.11197 -2.11167,16.61038 -2.11167,16.61038l0.13247,22.38643z" fill="#0b8100" stroke-width="0.5" stroke-linecap="butt"></path><path d="M190.03305,148.63897v-11.84621h11.23792v11.84621z" fill="#ffffff" stroke-width="0.5" stroke-linecap="butt"></path><g stroke-width="0.5" stroke-linecap="butt"><path d="M162.58741,253.12709c0,0 -0.83928,-10.10012 3.89069,-12.61515c4.72997,-2.51503 21.92517,-1.11163 21.92517,-1.11163v13.72678z" fill="#636363"></path><path d="M187.50724,218.18177l-6.34477,-32.83587l15.06419,-2.91079l6.34477,32.83585z" fill="#636363"></path><path d="M181.33713,244.31983l6.34477,-32.83585l15.06417,2.91081l-6.34477,32.83585z" data-paper-data="{&quot;index&quot;:null}" fill="#636363"></path><path d="M200.92914,182.42753c0,5.88221 -5.08025,10.65069 -11.34707,10.65069c-6.2668,0 -11.34706,-4.76848 -11.34706,-10.65069c0,-5.88221 5.08025,-10.6507 11.34706,-10.6507c6.2668,0 11.34707,4.76849 11.34707,10.6507z" fill="#bbbbbb"></path><path d="M205.87221,211.5647c0,5.88221 -5.08025,10.65069 -11.34706,10.65069c-6.2668,0 -11.34706,-4.76848 -11.34706,-10.65069c0,-5.88221 5.08025,-10.6507 11.34706,-10.6507c6.2668,0 11.34706,4.76849 11.34706,10.6507z" fill="#bbbbbb"></path><path d="M197.56973,245.20854c0,4.36018 -3.76571,7.89477 -8.41095,7.89477c-4.64524,0 -8.41096,-3.53461 -8.41096,-7.89477c0,-4.36018 3.76572,-7.89478 8.41096,-7.89478c4.64524,0 8.41095,3.53461 8.41095,7.89478z" fill="#bbbbbb"></path></g><path d="M179.76745,195.79737l-4.5918,-40.48523c0,0 25.59415,-12.43516 34.1068,-12.62409c5.33572,-0.1184 12.05412,11.59965 12.05412,11.59965l-4.30482,41.50967z" fill="#636363" stroke-width="0.5" stroke-linecap="butt"></path><g stroke-width="0.5" stroke-linecap="butt"><path d="M185.75367,262.0284c0,0 -0.8393,-10.10012 3.89068,-12.61515c4.72997,-2.51503 21.92517,-1.11163 21.92517,-1.11163v13.72678z" fill="#636363"></path><path d="M210.6735,227.08308l-6.34477,-32.83585l15.06419,-2.91081l6.34477,32.83585z" fill="#636363"></path><path d="M204.50339,253.22115l6.34477,-32.83585l15.06417,2.91081l-6.34477,32.83585z" data-paper-data="{&quot;index&quot;:null}" fill="#636363"></path><path d="M224.09538,191.32885c0,5.88221 -5.08025,10.6507 -11.34706,10.6507c-6.2668,0 -11.34706,-4.76848 -11.34706,-10.6507c0,-5.88221 5.08025,-10.6507 11.34706,-10.6507c6.2668,0 11.34706,4.76848 11.34706,10.6507z" fill="#bbbbbb"></path><path d="M229.03847,220.46602c0,5.88221 -5.08025,10.65069 -11.34706,10.65069c-6.2668,0 -11.34706,-4.76848 -11.34706,-10.65069c0,-5.88221 5.08025,-10.6507 11.34706,-10.6507c6.2668,0 11.34706,4.76849 11.34706,10.6507z" fill="#bbbbbb"></path><path d="M220.73599,254.10985c0,4.36018 -3.76571,7.89477 -8.41095,7.89477c-4.64524,0 -8.41096,-3.53461 -8.41096,-7.89477c0,-4.36018 3.76572,-7.89478 8.41096,-7.89478c4.64524,0 8.41095,3.53461 8.41095,7.89478z" fill="#bbbbbb"></path></g><path d="M211.80482,190.987l-12.28469,-32.90235l15.0561,-5.62148l9.17197,28.46534z" fill="#636363" stroke-width="0.5" stroke-linecap="butt"></path><path d="M190.03652,148.36446v-11.57515h5.15623z" fill="#ff0000" stroke-width="0.5" stroke-linecap="butt"></path><path d="M193.9421,127.52985c0,2.67005 -0.86258,4.83457 -1.92663,4.83457c-1.06405,0 -1.68859,-0.26023 -1.68859,-2.93028c0,-2.67005 1.16556,-3.73004 2.22961,-3.73004c0.91616,0 0.80582,-2.4112 0.88979,-0.88084c0.01356,0.24703 0.49584,2.3355 0.49584,2.70659z" fill="#000000" stroke-width="0.5" stroke-linecap="butt"></path><path d="M190.39969,127.62306l4.65186,-6.08957" fill="none" stroke-width="0.5" stroke-linecap="round"></path><path d="M173.50623,155.09316v-13.14066h35.04833l0.57389,-14.06161l14.30933,-0.06806l0.44155,27.27033h-4.29221c0,0 -1.84713,-10.83562 -11.41966,-11.10987c-13.00328,-0.37254 -11.90273,11.10987 -11.90273,11.10987z" fill="#636363" stroke-width="0.5" stroke-linecap="butt"></path><path d="M198.14427,155.60508c0,-5.20688 4.19412,-9.42789 9.36784,-9.42789c5.17371,0 9.36786,4.22101 9.36786,9.42789c0,5.20689 -4.19415,9.42789 -9.36786,9.42789c-5.17371,0 -9.36784,-4.22101 -9.36784,-9.42789z" data-paper-data="{&quot;index&quot;:null}" fill="#bbbbbb" stroke-width="0.5" stroke-linecap="butt"></path><path d="M198.13096,132.10786l-7.78248,3.53885" fill="none" stroke-width="0.5" stroke-linecap="round"></path><path d="M183.52788,189.23677l30.62329,-17.19574l7.86877,14.0132l-30.62327,17.19574z" data-paper-data="{&quot;index&quot;:null}" fill="#636363" stroke-width="0.5" stroke-linecap="butt"></path><path d="M213.55149,188.66597c-4.89098,-1.68691 -7.47965,-7.04473 -5.78192,-11.96707c1.69773,-4.92233 7.03894,-7.54517 11.92992,-5.85826c4.89098,1.68691 7.47963,7.04476 5.7819,11.96709c-1.69773,4.92233 -7.03891,7.54516 -11.92989,5.85824z" data-paper-data="{&quot;index&quot;:null}" fill="#bbbbbb" stroke-width="0.5" stroke-linecap="butt"></path><path d="M188.99536,170.12932c1.09864,5.66268 -4.37221,11.23812 -10.04077,12.45312c-1.48211,0.31768 -0.42276,0.04792 -0.42276,0.04792l-1.30012,-10.38426l-1.02221,-9.93534c0,0 -0.41239,-0.03209 0.53276,-0.23468c5.66855,-1.215 11.15444,2.39057 12.25308,8.05323z" fill="#bbbbbb" stroke-width="0.5" stroke-linecap="butt"></path><path d="M186.32726,170.21252c0.8071,4.1672 -3.21197,8.2702 -7.37625,9.16433c-1.0888,0.23378 -0.31058,0.03526 -0.31058,0.03526l-0.9551,-7.64185l-0.75095,-7.31147c0,0 -0.30296,-0.02361 0.39138,-0.17269c4.16429,-0.89413 8.19439,1.75922 9.0015,5.92643z" fill="#8d8d8d" stroke-width="0.5" stroke-linecap="butt"></path></g></g></svg>