<svg version="1.1" xmlns="http://www.w3.org/2000/svg" xmlns:xlink="http://www.w3.org/1999/xlink" width="20.59702" height="51.73768" viewBox="0,0,20.59702,51.73768"><defs><linearGradient x1="223.01362" y1="171.79715" x2="223.01362" y2="200.61402" gradientUnits="userSpaceOnUse" id="color-1"><stop offset="0" stop-color="#4e0000"></stop><stop offset="1" stop-color="#710000"></stop></linearGradient><linearGradient x1="232.90285" y1="161.34712" x2="232.90285" y2="177.91302" gradientUnits="userSpaceOnUse" id="color-2"><stop offset="0" stop-color="#4e0000"></stop><stop offset="1" stop-color="#710000"></stop></linearGradient></defs><g transform="translate(-217.25205,-149.12634)"><g data-paper-data="{&quot;isPaintingLayer&quot;:true}" fill-rule="nonzero" stroke="#000000" stroke-linejoin="miter" stroke-miterlimit="10" stroke-dasharray="" stroke-dashoffset="0" style="mix-blend-mode: normal"><g stroke-width="0.5" stroke-linecap="butt"><path d="M228.8108,166.68571v-17.30937h8.13158v17.30937z" fill="#0b8100"></path><path d="M228.82244,166.70861v-8.68517h8.11658v8.68517z" fill="#ff0000"></path><path d="M232.34254,153.72398c0,1.67849 -0.62987,3.03917 -1.40685,3.03917c-0.77698,0 -1.40685,-1.36068 -1.40685,-3.03917c0,-1.67849 0.62987,-3.03917 1.40685,-3.03917c0.77698,0 1.40685,1.36068 1.40685,3.03917z" fill="#000000"></path></g><path d="M217.91317,200.54822v-49.75016h10.07973v49.75016z" fill="#0b8100" stroke-width="0.5" stroke-linecap="butt"></path><path d="M217.9276,200.61402v-28.81687h10.17204v28.81687z" fill="url(#color-1)" stroke-width="0.5" stroke-linecap="butt"></path><path d="M222.29103,160.08212c0,3.05042 -0.78078,5.52329 -1.7439,5.52329c-0.96312,0 -1.7439,-2.47285 -1.7439,-5.52329c0,-3.05042 0.78078,-5.52329 1.7439,-5.52329c0.96312,0 1.7439,2.47285 1.7439,5.52329z" fill="#000000" stroke-width="0.5" stroke-linecap="butt"></path><path d="M228.20662,177.91302v-16.5659h9.39246v16.5659z" fill="url(#color-2)" stroke-width="0.5" stroke-linecap="butt"></path><path d="M217.50206,171.93939v-4.26663h10.76389v4.26663z" fill="#7c0000" stroke-width="0.5" stroke-linecap="butt"></path><path d="M223.73444,150.8574l-5.85984,6.94038" fill="none" stroke-width="1" stroke-linecap="round"></path></g></g></svg>