<svg version="1.1" xmlns="http://www.w3.org/2000/svg" xmlns:xlink="http://www.w3.org/1999/xlink" width="96.1724" height="97.26079" viewBox="0,0,96.1724,97.26079"><g transform="translate(-271.9138,-131.23755)"><g stroke-miterlimit="10"><path d="M272.4138,226.60092v-64.88824v-9.24098c0,0 2.20499,0 4.81102,0c11.2941,0 90.36138,0 90.36138,0v74.12922z" fill="#afafaf" stroke="#000000" stroke-width="1"/><path d="M272.4138,205.86677v-64.88824v-9.24098c0,0 2.20499,0 4.81102,0c11.2941,0 90.36138,0 90.36138,0v74.12922z" fill="#afafaf" stroke="#000000" stroke-width="1"/><text transform="translate(307.49782,222.60709) scale(0.4713,0.4713)" font-size="40" xml:space="preserve" fill="#000000" stroke="none" stroke-width="1" font-family="Sans Serif" font-weight="normal" text-anchor="start"><tspan x="0" dy="0">3-5</tspan></text><path d="M276.91902,199.90347v-60.82023h86.62275v60.82023z" fill="#939393" stroke="#000000" stroke-width="1"/><path d="M276.68347,199.97841v-60.82023h86.62275v60.82023z" fill="none" stroke="#000000" stroke-width="1"/><g stroke="#000000" stroke-width="0.5"><path d="M312.00496,171.69733c-1.98929,0.09597 -3.51655,0.26178 -3.5737,-0.92286c-0.05715,-1.18464 1.37745,-3.27112 3.36674,-3.36709c1.98929,-0.09597 3.64826,0.78657 3.70541,1.97121c0.05715,1.18463 -1.50916,2.22277 -3.49846,2.31874z" fill="#f6ff30"/><path d="M302.15535,168.93744c0.05715,-1.18463 1.71612,-2.06716 3.70541,-1.9712c1.98929,0.09597 3.4239,2.18245 3.36675,3.36708c-0.05715,1.18463 -1.58442,1.01883 -3.57371,0.92286c-1.98929,-0.09597 -3.5556,-1.1341 -3.49845,-2.31874z" fill="#f6ff30"/><path d="M316.07145,197.56278v-43.2201h8.75669v43.2201z" fill="#0b8100"/><path d="M316.08399,197.61994v-25.03446h8.83689v25.03446z" fill="#ff0000"/><path d="M319.87469,162.40813c0,2.65004 -0.67829,4.79833 -1.515,4.79833c-0.83671,0 -1.515,-2.14828 -1.515,-4.79833c0,-2.65004 0.67829,-4.79832 1.515,-4.79832c0.83671,0 1.515,2.14828 1.515,4.79832z" fill="#000000"/><path d="M316.12954,167.85394h8.79186v4.70992l-3.03444,1.82745c0,0 0.22349,2.12734 -0.16703,2.45153c-0.72934,0.60546 -2.21183,0.21482 -2.21183,0.21482c0,0 0.37012,2.31119 -0.20335,2.87133c-1.21778,1.18946 -3.38453,1.42672 -3.38453,1.42672z" fill="#ffffff"/><path d="M315.46576,155.74906c0,0 -1.38513,-8.38332 0.78356,-10.965c4.11891,-4.90331 11.615,-0.29905 11.615,-0.29905c0,0 -3.17673,1.90312 -3.8847,4.39764c-0.53679,1.89132 1.04844,6.86642 1.04844,6.86642c0,0 -0.97905,0 -1.7828,0c-1.67901,0 -7.77949,0 -7.77949,0z" fill="#ff0000"/><path d="M315.06058,156.80254v-2.51214h10.53473v2.51214z" fill="#ffffff"/><path d="M329.8092,144.9307c0,1.00699 -0.79819,1.82332 -1.7828,1.82332c-0.98462,0 -1.78279,-0.81633 -1.78279,-1.82332c0,-1.00699 0.79818,-1.82332 1.78279,-1.82332c0.98462,0 1.7828,0.81633 1.7828,1.82332z" fill="#ffffff"/><path d="M302.25684,183.70661v-12.56064h13.61411v12.56064z" fill="#31ffe6"/><path d="M307.76731,183.62558v-12.4796h2.10695v12.4796z" fill="#f6ff30"/><path d="M302.41891,178.35821v-2.02591h13.20892v2.02591z" fill="#f6ff30"/></g></g></g></svg>