<svg version="1.1" xmlns="http://www.w3.org/2000/svg" xmlns:xlink="http://www.w3.org/1999/xlink" width="33.841" height="33.841" viewBox="0,0,33.841,33.841"><g transform="translate(-376.23266,-35.45188)"><g data-paper-data="{&quot;isPaintingLayer&quot;:true}" fill-rule="nonzero" stroke-linejoin="miter" stroke-miterlimit="10" stroke-dasharray="" stroke-dashoffset="0" style="mix-blend-mode: normal"><path d="M376.73266,52.37238c0,-9.06879 7.3517,-16.4205 16.4205,-16.4205c9.06879,0 16.4205,7.3517 16.4205,16.4205c0,9.06879 -7.3517,16.4205 -16.4205,16.4205c-9.06879,0 -16.4205,-7.3517 -16.4205,-16.4205z" fill="#7b7b7b" stroke="#000000" stroke-width="1" stroke-linecap="butt"></path><g fill="#2c2c2c" stroke="#5d5d5d" stroke-width="2" stroke-linecap="round"><path d="M404.25919,41.26634l-22.53995,22.53995" data-paper-data="{&quot;index&quot;:null}"></path><path d="M382.04711,40.93848l22.53995,22.53995" data-paper-data="{&quot;index&quot;:null}"></path></g><path d="M376.73266,52.37238c0,-9.06879 7.3517,-16.4205 16.4205,-16.4205c9.06879,0 16.4205,7.3517 16.4205,16.4205c0,9.06879 -7.3517,16.4205 -16.4205,16.4205c-9.06879,0 -16.4205,-7.3517 -16.4205,-16.4205z" fill="none" stroke="#000000" stroke-width="1" stroke-linecap="butt"></path></g></g></svg>