<svg version="1.1" xmlns="http://www.w3.org/2000/svg" xmlns:xlink="http://www.w3.org/1999/xlink" width="736" height="448.52094" viewBox="0,0,736,448.52094"><g transform="translate(53.42362,58.0208)"><g stroke-miterlimit="10"><path d="M-45.92362,273.9792c-4.14213,0 -7.5,-2.3923 -7.5,-5.34335v-321.3133c0,-2.95105 3.35787,-5.34335 7.5,-5.34335h721c4.14214,0 7.5,2.3923 7.5,5.34335v321.3133c0,2.95105 -3.35786,5.34335 -7.5,5.34335z" fill-opacity="0.50196" fill="#000000" stroke="none" stroke-width="0" stroke-linecap="butt"/><path d="M53.50004,72.00008v-87h554v87z" fill="#adadad" stroke="#000000" stroke-width="1" stroke-linecap="butt"/><path d="M124.48895,262.3334v-168h387.02222v168z" fill="#adadad" stroke="#000000" stroke-width="1" stroke-linecap="butt"/><text transform="translate(267.60553,45.2807) scale(0.69512,0.69512)" font-size="40" xml:space="preserve" fill="#000000" stroke="none" stroke-width="1" stroke-linecap="butt" font-family="Sans Serif" font-weight="normal" text-anchor="start"><tspan x="0" dy="0">Trophies</tspan></text><path d="M186.50006,390.00015v-116h79v116z" fill="#adadad" stroke="#000000" stroke-width="1" stroke-linecap="butt"/><path d="M369.50007,390.00015v-116h93v116z" fill="#adadad" stroke="#000000" stroke-width="1" stroke-linecap="butt"/><text transform="translate(280.08809,123.78264) scale(0.5,0.5)" font-size="40" xml:space="preserve" fill="#000000" stroke="none" stroke-width="1" stroke-linecap="butt" font-family="Sans Serif" font-weight="normal" text-anchor="start"><tspan x="0" dy="0">Silver trophy:</tspan><tspan x="0" dy="46.150000000000006px">-Complete Adventure</tspan><tspan x="0" dy="46.150000000000006px">Mode</tspan></text><g stroke="#000000" stroke-width="1"><path d="M151.78858,241.33798v-10.05185l10.6146,-35.01903h86.87913l11.00829,34.46075v10.61013z" fill="#afafaf" stroke-linecap="butt"/><g fill="#e0e0e0"><path d="M228.23959,128.03187c0,0 18.63595,4.91594 19.24172,15.42995c0.67372,11.69343 -26.35756,14.04917 -26.35756,14.04917l6.48317,-4.54508c0,0 14.52282,-2.10312 13.98647,-9.76557c-0.40581,-5.79751 -13.52908,-11.7962 -13.52908,-11.7962z" stroke-linecap="butt"/><path d="M181.61162,130.90278c0,0 -13.12327,5.99869 -13.52908,11.7962c-0.53635,7.66245 13.98647,9.76557 13.98647,9.76557l6.48317,4.54508c0,0 -27.03128,-2.35574 -26.35756,-14.04917c0.60577,-10.51402 19.24172,-15.42995 19.24172,-15.42995z" stroke-linecap="butt"/><path d="M180.04698,196.64878l6.15813,-6.15813h15.49466v-25.42712c0,0 -6.43881,-2.74168 -16.89775,-9.99248c-9.52136,-6.6008 -7.33747,-29.78688 -7.33747,-29.78688l56.23873,0.07997c0,0 2.18389,23.18608 -7.33746,29.78688c-10.45895,7.2508 -16.89776,9.99248 -16.89776,9.99248v25.42712h15.49466l6.15813,6.15813z" stroke-linecap="round"/><path d="M196.96556,169.86381l-18.29797,6.86174l2.28725,-7.84199l-7.84199,1.9605l-4.35416,-15.53777l24.34106,10.32394z" stroke-linecap="round"/><path d="M219.01978,165.794l24.34106,-10.32394l-4.35416,15.53777l-7.84199,-1.9605l2.28725,7.84199l-18.29797,-6.86174z" stroke-linecap="round"/></g></g></g></g></svg>