<svg version="1.1" xmlns="http://www.w3.org/2000/svg" xmlns:xlink="http://www.w3.org/1999/xlink" width="26.17974" height="51.66239" viewBox="0,0,26.17974,51.66239"><g transform="translate(-204.72941,-149.20163)"><g data-paper-data="{&quot;isPaintingLayer&quot;:true}" fill-rule="nonzero" stroke="#000000" stroke-width="0.5" stroke-linecap="butt" stroke-linejoin="miter" stroke-miterlimit="10" stroke-dasharray="" stroke-dashoffset="0" style="mix-blend-mode: normal"><path d="M214.12589,176.54193c-1.84728,0.08912 -3.26552,0.24309 -3.31859,-0.85698c-0.05307,-1.10007 1.27912,-3.0376 3.1264,-3.12672c1.84728,-0.08912 3.38782,0.73042 3.44089,1.83049c0.05307,1.10007 -1.40142,2.06409 -3.24871,2.15321z" data-paper-data="{&quot;index&quot;:null}" fill="#f6ff30"></path><path d="M204.97941,173.97906c0.05307,-1.10007 1.59361,-1.9196 3.44089,-1.83049c1.84728,0.08912 3.17948,2.02665 3.12641,3.12672c-0.05307,1.10007 -1.47131,0.9461 -3.31859,0.85698c-1.84728,-0.08912 -3.30178,-1.05314 -3.24871,-2.15321z" data-paper-data="{&quot;index&quot;:null}" fill="#f6ff30"></path><path d="M217.90209,200.56094v-40.13478h8.13158v40.13478z" fill="#0b8100"></path><path d="M217.91373,200.61402v-23.24734h8.20606v23.24734z" fill="#ff0000"></path><path d="M221.43383,167.91586c0,2.46086 -0.62987,4.45579 -1.40685,4.45579c-0.77698,0 -1.40685,-1.99492 -1.40685,-4.45579c0,-2.46086 0.62987,-4.45579 1.40685,-4.45579c0.77698,0 1.40685,1.99492 1.40685,4.45579z" fill="#000000"></path><path d="M217.95603,172.9729h8.16424v4.3737l-2.81782,1.697c0,0 0.20753,1.97548 -0.15511,2.27652c-0.67728,0.56224 -2.05394,0.19949 -2.05394,0.19949c0,0 0.3437,2.1462 -0.18883,2.66635c-1.13085,1.10455 -3.14292,1.32487 -3.14292,1.32487z" fill="#ffffff"></path><path d="M217.33964,161.73215c0,0 -1.28625,-7.78486 0.72762,-10.18225c3.82488,-4.55328 10.78585,-0.2777 10.78585,-0.2777c0,0 -2.94995,1.76726 -3.60739,4.08371c-0.49847,1.75631 0.97359,6.37625 0.97359,6.37625c0,0 -0.90915,0 -1.65553,0c-1.55915,0 -7.22414,0 -7.22414,0z" fill="#ff0000"></path><path d="M216.96338,162.71042v-2.3328h9.78269v2.3328z" fill="#ffffff"></path><path d="M230.65915,151.68608c0,0.93511 -0.74121,1.69316 -1.65553,1.69316c-0.91433,0 -1.65553,-0.75805 -1.65553,-1.69316c0,-0.93511 0.74121,-1.69316 1.65553,-1.69316c0.91433,0 1.65553,0.75805 1.65553,1.69316z" fill="#ffffff"></path><path d="M205.07365,187.69391v-11.66398h12.64225v11.66398z" fill="#31ffe6"></path><path d="M210.19075,187.61866v-11.58873h1.95654v11.58873z" fill="#f6ff30"></path><path d="M205.22415,182.72731v-1.88129h12.26599v1.88129z" fill="#f6ff30"></path></g></g></svg>