<svg version="1.1" xmlns="http://www.w3.org/2000/svg" xmlns:xlink="http://www.w3.org/1999/xlink" width="804" height="537" viewBox="0,0,804,537"><g transform="translate(82,88.5)"><g stroke="none" stroke-width="0" stroke-miterlimit="10"><path d="M-82,448.5v-537h804v537z" fill="#000000" stroke-linecap="butt"/><path d="M182.16857,348.9183v-125.38367h391.67136v125.38367z" fill="#ffffff" stroke-linecap="butt"/><path d="M514.26424,336.72729v-31.49591l33.54755,17.69586z" fill="#ffffff" stroke-linecap="butt"/><g fill="#ffffff"><path d="M451.33179,80.14469l35.20085,-42.13769l13.60324,11.36384l-35.20084,42.13769z" stroke-linecap="butt"/><path d="M438.06082,89.86774l-5.27307,-54.65235l17.64333,-1.7023l5.27307,54.65235z" stroke-linecap="butt"/><g stroke-linecap="butt"><path d="M512.50577,159.42924c-3.62579,4.43041 -9.91969,5.2766 -14.05783,1.89c-4.13814,-3.38659 -4.55347,-9.72354 -0.92769,-14.15394c3.62579,-4.43041 9.91969,-5.27659 14.05783,-1.88999c4.13814,3.38659 4.55347,9.72353 0.92769,14.15393z"/><path d="M497.46349,160.52439l-30.23767,-34.16389l11.20535,-9.91759l30.23766,34.16389z"/></g><g stroke-linecap="butt"><path d="M415.85976,177.45942c-4.93225,-2.9065 -6.72988,-8.99729 -4.01513,-13.60416c2.71476,-4.60687 8.91388,-5.98529 13.84613,-3.0788c4.93225,2.9065 6.72988,8.99729 4.01513,13.60416c-2.71476,4.60687 -8.91388,5.98529 -13.84613,3.0788z"/><path d="M415.88128,166.82223l16.586,-42.50166l13.94004,5.44001l-16.58601,42.50168z"/></g><path d="M463.28356,127.28822l0.7816,20.50687l-11.24974,0.42878l-0.7816,-20.50687z" stroke-linecap="butt"/><path d="M475.14104,79.46553l2.09183,54.88293l-40.35227,1.53801l-2.09183,-54.88294z" stroke-linecap="butt"/><path d="M434.26577,174.61255c-2.26803,-11.09698 3.28341,-31.10662 3.28341,-31.10662c0,0 7.55216,3.19575 11.92225,2.30258c3.27243,-0.66883 2.48102,-9.02241 2.48102,-9.02241c0,0 6.01706,11.91476 9.9628,9.44091c2.60598,-1.63386 3.82313,-12.14034 3.82313,-12.14034c0,0 7.37461,5.80362 10.31269,7.19337c1.97019,0.93192 5.60366,0.33526 5.60366,0.33526c0,0 6.64697,15.74225 7.86549,21.70421c3.17834,15.55097 -6.61423,30.68554 -21.87232,33.80402c-15.25809,3.11849 -30.20378,-6.96002 -33.38212,-22.51099z" stroke-linecap="butt"/><path d="M422.89867,181.66334l1.1312,-11.35262l10.31061,9.26331l4.48596,-7.32043l13.43451,7.56895l5.95968,-10.80424l8.20247,9.17513l18.07369,-10.63436l-3.06921,9.56162l17.76682,-6.50708l-8.67926,10.63153c0,0 -4.24853,18.29178 -31.38159,17.32231c-13.98006,-0.49951 -36.23486,-16.90412 -36.23486,-16.90412z" stroke-linecap="round"/><path d="M491.20729,186.04968l0.68036,29.22007l-57.42933,1.33717l-0.41451,-17.80246l-29.65835,-1.99718l-2.34923,-8.83169z" stroke-linecap="butt"/></g><path d="M472.08919,185.53576c0,6.06 -4.98083,10.9726 -11.125,10.9726c-6.14417,0 -11.125,-4.9126 -11.125,-10.9726c0,-6.06 4.98083,-10.9726 11.125,-10.9726c6.14417,0 11.125,4.9126 11.125,10.9726z" fill="#000000" stroke-linecap="butt"/></g></g></svg>