<svg version="1.1" xmlns="http://www.w3.org/2000/svg" xmlns:xlink="http://www.w3.org/1999/xlink" width="96.1724" height="95.86337" viewBox="0,0,96.1724,95.86337"><g transform="translate(-271.9138,-131.23751)"><g stroke-miterlimit="10"><path d="M272.4138,226.60089v-64.88824v-9.24098c0,0 2.20499,0 4.81102,0c11.2941,0 90.36138,0 90.36138,0v74.12922z" fill="#afafaf" stroke="#000000" stroke-width="1" stroke-linecap="butt"/><path d="M272.4138,205.86674v-64.88824v-9.24098c0,0 2.20499,0 4.81102,0c11.2941,0 90.36138,0 90.36138,0v74.12922z" fill="#afafaf" stroke="#000000" stroke-width="1" stroke-linecap="butt"/><text transform="translate(279.12651,218.90677) scale(0.25688,0.25688)" font-size="40" xml:space="preserve" fill="#000000" stroke="none" stroke-width="1" stroke-linecap="butt" font-family="Sans Serif" font-weight="normal" text-anchor="start"><tspan x="0" dy="0">Cran Jelly's quest</tspan></text><path d="M276.91902,199.90344v-60.82023h86.62275v60.82023z" fill="#939393" stroke="#000000" stroke-width="1" stroke-linecap="butt"/><g stroke="#000000" stroke-width="1.28786"><path d="M303.92148,165.18562l-2.44444,-6.66667l10.66667,3.44444z" fill="#00f466" stroke-linecap="round"/><path d="M314.32518,163.34279l-7.71048,-7.92124l5.44727,-4.63682l5.71825,9.70772z" fill="#5d0000" stroke-linecap="round"/><path d="M304.81037,176.29673c0,-9.08202 7.36243,-16.44444 16.44444,-16.44444c9.08202,0 16.44444,7.36243 16.44444,16.44444c0,9.08202 -7.36243,16.44444 -16.44444,16.44444c-9.08202,0 -16.44444,-7.36243 -16.44444,-16.44444z" fill="#ff3b57" stroke-linecap="butt"/><path d="M324.25482,177.01895c0,3.46712 -1.19391,6.27778 -2.66667,6.27778c-1.47276,0 -2.66667,-2.81066 -2.66667,-6.27778c0,-3.46712 1.19391,-6.27778 2.66667,-6.27778c1.47276,0 2.66667,2.81066 2.66667,6.27778z" fill="#ffffff" stroke-linecap="butt"/><path d="M331.47704,175.9634c0,3.6819 -1.14416,6.66667 -2.55556,6.66667c-1.41139,0 -2.55556,-2.98477 -2.55556,-6.66667c0,-3.6819 1.14416,-6.66667 2.55556,-6.66667c1.41139,0 2.55556,2.98477 2.55556,6.66667z" fill="#ffffff" stroke-linecap="butt"/><path d="M310.47704,183.9634l9.66667,2.44444" fill="none" stroke-linecap="round"/><path d="M314.92148,173.29673l6.88889,-6.22222" fill="none" stroke-linecap="round"/><path d="M327.58815,164.74117l6.88889,6.22222" fill="none" stroke-linecap="round"/></g><path d="M333.7116,131.95691h33.838v33.838z" fill="#ff0000" stroke="#000000" stroke-width="1" stroke-linecap="butt"/></g></g></svg>