<svg version="1.1" xmlns="http://www.w3.org/2000/svg" xmlns:xlink="http://www.w3.org/1999/xlink" width="64.79222" height="88.80982" viewBox="0,0,64.79222,88.80982"><defs><linearGradient x1="320.6022" y1="161.89327" x2="320.6022" y2="177.48435" gradientUnits="userSpaceOnUse" id="color-1"><stop offset="0" stop-color="#905fff"/><stop offset="1" stop-color="#5feeff"/></linearGradient><linearGradient x1="320.71203" y1="177.24279" x2="320.71203" y2="205.49025" gradientUnits="userSpaceOnUse" id="color-2"><stop offset="0" stop-color="#905fff"/><stop offset="1" stop-color="#000000"/></linearGradient></defs><g transform="translate(-287.5598,-137.40138)"><g stroke-miterlimit="10"><path d="M288.55231,222.40698v-84.81396h62.89539v84.81396z" fill="#515151" stroke="none" stroke-width="0" stroke-linecap="butt"/><g><path d="M309.8445,177.48435l-0.09913,-15.13998l21.61453,-0.4511l0.09913,15.14001z" fill="url(#color-1)" stroke="#000000" stroke-width="0.5" stroke-linecap="butt"/><path d="M307.40776,205.49025l-0.3265,-27.93263l26.93503,-0.31483l0.3265,27.93263z" fill="url(#color-2)" stroke="#000000" stroke-width="0.5" stroke-linecap="butt"/><path d="M309.8445,186.33862l-0.09913,-8.47951l21.61453,-0.25267l0.09913,8.47955z" fill="#000000" stroke="#000000" stroke-width="0.5" stroke-linecap="butt"/><path d="M316.39177,174.61836c0,-2.07107 1.67893,-3.75 3.75,-3.75c2.07107,0 3.75,1.67893 3.75,3.75c0,2.07107 -1.67893,3.75 -3.75,3.75c-2.07107,0 -3.75,-1.67893 -3.75,-3.75z" fill="#6e9c9a" stroke="#000000" stroke-width="0.5" stroke-linecap="butt"/><path d="M313.2768,165.13907c-0.05406,-3.87232 3.04126,-7.05527 6.91359,-7.10933c3.87232,-0.05406 7.05527,3.04126 7.10932,6.91358c0.05406,3.87232 -3.04126,7.05527 -6.91358,7.10933c-3.87232,0.05406 -7.05527,-3.04126 -7.10933,-6.91358z" fill="#6e9c9a" stroke="#000000" stroke-width="0.5" stroke-linecap="butt"/><path d="M317.12684,166.90655l0.69436,-1.82743l0.61791,1.71912l1.06466,0.20113l-1.00088,0.49989l-0.5772,1.19585l-0.76951,-0.9791l-1.51975,-0.57269z" fill="#000000" stroke="#000000" stroke-width="0.5" stroke-linecap="round"/><path d="M319.89024,163.70893c0,0 -1.77915,-1.33023 -2.59564,-1.45186c-1.23347,-0.18374 -4.0851,0.45667 -4.0851,0.45667c0,0 -1.87247,-2.62399 -3.05422,-3.28235c-1.75915,-0.98005 -6.47592,-2.02694 -6.47592,-2.02694c0,0 6.41878,-4.49151 9.39752,-4.51438c3.97624,-0.03053 6.73266,5.03755 6.73266,5.03755z" fill="#905fff" stroke="#000000" stroke-width="1.5" stroke-linecap="round"/><path d="M320.82788,157.77734c0,0 2.6139,-5.14306 6.58942,-5.22351c2.97823,-0.06028 9.51987,4.25034 9.51987,4.25034c0,0 -4.6857,1.17813 -6.41681,2.20688c-1.16292,0.69108 -2.9614,3.36633 -2.9614,3.36633c0,0 -2.86839,-0.56059 -4.09626,-0.34246c-0.81277,0.14435 -2.55412,1.52376 -2.55412,1.52376z" fill="#000000" stroke="#000000" stroke-width="1.5" stroke-linecap="round"/><path d="M337.22235,157.1682c-0.01524,-1.09086 0.85674,-1.98752 1.94759,-2.00275c1.09085,-0.01523 1.98752,0.85674 2.00275,1.94759c0.01524,1.09086 -0.85674,1.98752 -1.94759,2.00276c-1.09085,0.01523 -1.98752,-0.85674 -2.00275,-1.9476z" fill="#905fff" stroke="#000000" stroke-width="0.5" stroke-linecap="butt"/><path d="M301.54525,157.36685c-0.01523,-1.09086 0.85674,-1.98752 1.9476,-2.00275c1.09086,-0.01523 1.98752,0.85674 2.00276,1.9476c0.01523,1.09086 -0.85674,1.98752 -1.9476,2.00275c-1.09086,0.01523 -1.98752,-0.85674 -2.00276,-1.9476z" fill="#000000" stroke="#000000" stroke-width="0.5" stroke-linecap="butt"/><path d="M324.83711,167.14332l-1.51975,0.57269l-0.76952,0.9791l-0.5772,-1.19585l-1.00088,-0.49989l1.06466,-0.20113l0.61791,-1.71912l0.69436,1.82743z" fill="#000000" stroke="#000000" stroke-width="0.5" stroke-linecap="round"/><path d="M318.07275,167.17387c0,-0.27614 0.22386,-0.5 0.5,-0.5c0.27614,0 0.5,0.22386 0.5,0.5c0,0.27614 -0.22386,0.5 -0.5,0.5c-0.27614,0 -0.5,-0.22386 -0.5,-0.5z" fill="#ffdb12" stroke="none" stroke-width="0.5" stroke-linecap="butt"/><path d="M321.4061,167.11832c0,-0.27614 0.22386,-0.5 0.5,-0.5c0.27614,0 0.5,0.22386 0.5,0.5c0,0.27614 -0.22386,0.5 -0.5,0.5c-0.27614,0 -0.5,-0.22386 -0.5,-0.5z" fill="#ffdb12" stroke="none" stroke-width="0.5" stroke-linecap="butt"/><path d="M317.94203,169.88781c0,0 3.2514,-0.04523 4.3988,-0.26528c0.91597,-0.17567 1.94903,-0.95211 1.94903,-0.95211c0,0 4.95915,2.6743 3.26087,3c-1.69828,0.3257 -9.6087,-1.78261 -9.6087,-1.78261z" fill="#000000" stroke="#000000" stroke-width="0.5" stroke-linecap="round"/><path d="M326.16441,170.40125l-2.72459,-1.08089l1.2445,-0.39298z" fill="#ffdb12" stroke="#000000" stroke-width="0" stroke-linecap="round"/><path d="M321.39671,169.7282l0.71724,1.09031l-2.79553,-0.88132z" fill="#ffdb12" stroke="#000000" stroke-width="0" stroke-linecap="round"/><path d="M324.40951,170.91105l-2.72459,-1.08088l1.2445,-0.39298z" fill="#ffdb12" stroke="#000000" stroke-width="0" stroke-linecap="round"/><path d="M317.905,169.88781c0,0 3.2514,-0.04523 4.3988,-0.26528c0.91597,-0.17567 1.94903,-0.95211 1.94903,-0.95211c0,0 4.95915,2.6743 3.26087,3c-1.69828,0.3257 -9.6087,-1.78261 -9.6087,-1.78261z" fill="none" stroke="#000000" stroke-width="0.5" stroke-linecap="round"/><path d="M316.48001,182.20659c0,-2.07107 1.67893,-3.75 3.75,-3.75c2.07107,0 3.75,1.67893 3.75,3.75c0,2.07107 -1.67893,3.75 -3.75,3.75c-2.07107,0 -3.75,-1.67893 -3.75,-3.75z" fill="#6e9c9a" stroke="#000000" stroke-width="0.5" stroke-linecap="butt"/><path d="M318.2153,174.85365c0,-1.08021 0.87568,-1.95588 1.95588,-1.95588c1.0802,0 1.95588,0.87568 1.95588,1.95588c0,1.08021 -0.87568,1.95588 -1.95588,1.95588c-1.0802,0 -1.95588,-0.87568 -1.95588,-1.95588z" fill="#3d5654" stroke="#000000" stroke-width="0.5" stroke-linecap="butt"/><path d="M318.33295,182.32424c0,-1.08021 0.87568,-1.95588 1.95588,-1.95588c1.0802,0 1.95589,0.87568 1.95589,1.95588c0,1.08021 -0.87568,1.95588 -1.95589,1.95588c-1.0802,0 -1.95588,-0.87568 -1.95588,-1.95588z" fill="#3d5654" stroke="#000000" stroke-width="0.5" stroke-linecap="butt"/><path d="M305.88665,206.47952l-5.125,-4.25l8.5,2.25l1.875,-5.5l3.875,6.375l4.875,-5l5.125,4.625l4.625,-4.5l1.875,4.75l3.25,-4.875l4.125,5.25" fill="#119400" stroke="#000000" stroke-width="1.28786" stroke-linecap="round"/></g><path d="M288.55233,222.38702v-12.81396h62.89539v12.81396z" fill="#969696" stroke="none" stroke-width="0" stroke-linecap="butt"/><path d="M288.50228,222.35702v-84.81396h8.64539v84.81396z" fill="#969696" stroke="none" stroke-width="0" stroke-linecap="butt"/><path d="M344.05233,222.40701v-84.81396h8.14539v84.81396z" fill="#969696" stroke="none" stroke-width="0" stroke-linecap="butt"/><path d="M288.55233,147.90701v-10.31396h62.89539v10.31396z" fill="#969696" stroke="none" stroke-width="0" stroke-linecap="butt"/><path d="M296.29733,211.48042v-21.00188l21.13534,21.00188z" fill="#969696" stroke="none" stroke-width="0" stroke-linecap="butt"/><path d="M303.41181,215.22399v-12.15842h44.05785v12.15842z" fill="#969696" stroke="none" stroke-width="0" stroke-linecap="butt"/><text transform="translate(319.17197,219.9612) scale(0.47116,0.5)" font-size="40" xml:space="preserve" fill="#000000" stroke="none" stroke-width="1" stroke-linecap="butt" font-family="Sans Serif" font-weight="normal" text-anchor="start"><tspan x="0" dy="0">200</tspan></text><g stroke-linecap="butt"><path d="M303.936,213.69347l-2.65375,6.84999l-2.38631,-6.84999z" fill="#ffff00" stroke="#ffff00" stroke-width="1"/><path d="M298.96774,202.31762l2.38632,-6.84999l2.65375,6.84999z" fill="#ffff00" stroke="#ffff00" stroke-width="1"/><path d="M294.78434,208.21682c0,-3.72115 3.01658,-6.73773 6.73773,-6.73773c3.72115,0 6.73772,3.01658 6.73772,6.73773c0,3.72115 -3.01658,6.73772 -6.73772,6.73772c-3.72115,0 -6.73773,-3.01658 -6.73773,-6.73772z" fill="#ffff00" stroke="none" stroke-width="0"/><path d="M307.21236,205.68172l6.87114,2.59848l-6.83054,2.44142z" fill="#ffff00" stroke="#ffff00" stroke-width="1"/><path d="M295.87692,210.74146l-6.86899,-2.33105l6.82838,-2.70885z" fill="#ffff00" stroke="#ffff00" stroke-width="1"/><path d="M307.52794,210.32821l3.04475,6.68537l-6.56714,-3.08051z" fill="#ffff00" stroke="#ffff00" stroke-width="1"/><path d="M295.91926,205.9314l-3.23165,-6.49409l6.75404,2.88922z" fill="#ffff00" stroke="#ffff00" stroke-width="1"/><path d="M304.08736,202.38559l6.66063,-3.0985l-3.02751,6.59174z" fill="#ffff00" stroke="#ffff00" stroke-width="1"/><path d="M299.78422,214.02932l-6.46785,3.28387l2.83472,-6.7771z" fill="#ffff00" stroke="#ffff00" stroke-width="1"/><path d="M296.80059,208.41738c0,-2.70702 2.19448,-4.90151 4.9015,-4.90151c2.70702,0 4.90151,2.19448 4.90151,4.90151c0,2.70702 -2.19448,4.9015 -4.90151,4.9015c-2.70702,0 -4.9015,-2.19448 -4.9015,-4.9015z" fill="#fffff7" stroke="none" stroke-width="0"/></g><path d="M352.35202,137.40138v33.64619l-33.86,-33.64619z" fill="#3aff00" stroke="none" stroke-width="0" stroke-linecap="butt"/></g></g></svg>