<svg version="1.1" xmlns="http://www.w3.org/2000/svg" xmlns:xlink="http://www.w3.org/1999/xlink" width="96.1724" height="95.86338" viewBox="0,0,96.1724,95.86338"><g transform="translate(-271.9138,-131.23746)"><g stroke-miterlimit="10"><path d="M272.4138,226.60084v-64.88824v-9.24098c0,0 2.20499,0 4.81102,0c11.2941,0 90.36138,0 90.36138,0v74.12922z" fill="#afafaf" stroke="#000000" stroke-width="1"/><path d="M272.4138,205.86668v-64.88824v-9.24098c0,0 2.20499,0 4.81102,0c11.2941,0 90.36138,0 90.36138,0v74.12922z" fill="#afafaf" stroke="#000000" stroke-width="1"/><text transform="translate(277.21186,219.10528) scale(0.22018,0.24941)" font-size="40" xml:space="preserve" fill="#000000" stroke="none" stroke-width="1" font-family="Sans Serif" font-weight="normal" text-anchor="start"><tspan x="0" dy="0">ONcE upon a NIGHT</tspan></text><path d="M276.91902,199.90332v-60.82023h86.62275v60.82023z" fill="#2e2e2e" stroke="#000000" stroke-width="1"/><path d="M277.48169,175.79943v-12.24904h13.2502v12.24904z" fill="#cdcdcd" stroke="none" stroke-width="0"/><path d="M291.85202,175.84617v-12.24904h13.2502v12.24904z" fill="#cdcdcd" stroke="none" stroke-width="0"/><path d="M306.27116,175.84404v-12.24904h13.2502v12.24904z" fill="#cdcdcd" stroke="none" stroke-width="0"/><path d="M320.66592,175.91514v-12.24904h13.2502v12.24904z" fill="#cdcdcd" stroke="none" stroke-width="0"/><path d="M335.2363,175.99047v-12.24904h13.25021v12.24904z" fill="#cdcdcd" stroke="none" stroke-width="0"/><path d="M349.87502,176.03721v-12.24904h13.2502v12.24904z" fill="#cdcdcd" stroke="none" stroke-width="0"/></g></g></svg>