<svg version="1.1" xmlns="http://www.w3.org/2000/svg" xmlns:xlink="http://www.w3.org/1999/xlink" width="90.07347" height="64.7317" viewBox="0,0,90.07347,64.7317"><g transform="translate(-194.96326,-147.63415)"><g data-paper-data="{&quot;isPaintingLayer&quot;:true}" fill-rule="nonzero" stroke-linejoin="miter" stroke-miterlimit="10" stroke-dasharray="" stroke-dashoffset="0" style="mix-blend-mode: normal"><path d="M195.46326,211.86585v-63.7317h89.07347v63.7317z" fill="#00fed9" stroke="#000000" stroke-width="1" stroke-linecap="butt"></path><g><g><path d="M202.77146,206.53498v-54.99006h40.77891v54.99006z" fill="#515151" stroke="none" stroke-width="0" stroke-linecap="butt"></path><g stroke="#000000" stroke-width="1.28786"><path d="" fill="none" stroke-linecap="butt"></path><path d="" fill="#00a735" stroke-linecap="butt"></path><path d="" fill="#ccf280" stroke-linecap="butt"></path><path d="" fill="#000000" stroke-linecap="butt"></path><path d="" fill="#000000" stroke-linecap="butt"></path><path d="" fill="#000000" stroke-linecap="round"></path><path d="M235.63613,187.98112c0,0.49404 3.06522,4.04851 3.06522,4.04851c0,0 -3.48248,-2.08113 -4.3301,-1.77807c-1.73413,0.61999 -1.61304,3.92233 -2.32885,4.33378c-1.81021,1.04053 -4.43798,-0.95819 -4.43798,-0.95819c0,0 -2.34606,2.58052 -3.6565,2.58052c-2.10762,0 -3.46922,-3.53276 -3.46922,-3.53276c0,0 -3.50838,1.39678 -4.61105,0.39144c-0.40222,-0.36672 -1.32522,-1.19801 -2.28235,-1.35548c-2.79816,-0.46036 -6.87582,0.39326 -6.87582,0.39326l3.41469,-3.00585c0,0 -0.90458,0.0166 -1.50556,0.21599c-1.00578,0.33367 -0.09082,0.98357 -0.09082,0.98357c0,0 -1.94013,-1.50208 -0.79108,-2.34661c1.0148,-0.74585 3.45552,-1.84504 3.45552,-1.84504c0,0 -1.06246,-0.06007 -1.881,0.18598c-1.09839,0.33016 -4.12026,1.61792 -4.12026,1.61792c0,0 1.4309,-2.09028 4.58424,-3.4724c0.32532,-0.14259 -0.23722,-0.63344 -1.13444,-0.6348c-0.69674,-0.00106 -1.75118,0.47489 -1.75118,0.47489c0,0 2.37835,-2.1223 6.15283,-3.07429c4.46001,-1.1249 6.72409,-2.48285 7.08324,-2.48285c0.987,0 4.51397,-0.84773 7.6456,0.01608c2.72057,0.75042 5.03039,3.17782 6.52188,3.7592c1.39198,0.54259 2.53374,1.84782 2.53374,1.84782c0,0 -1.1498,-0.17162 -1.69787,-0.11598c-0.73385,0.0745 -2.771,-0.19671 -2.771,-0.19671c0,0 4.85083,2.22292 5.26212,2.54181c1.19164,0.92395 1.86792,2.14674 1.86792,2.14674c0,0 -3.85193,-1.38613 -3.85193,-0.7385z" fill="#acff26" stroke-linecap="butt"></path><path d="M234.69362,182.04743c-0.82594,2.04654 -3.04575,1.63698 -5.30914,0.72352c-2.26339,-0.91346 -3.71325,-1.98491 -2.88731,-4.03144c0.82594,-2.04654 3.33034,-2.96508 5.59373,-2.05162c2.26339,0.91346 3.42866,3.31301 2.60272,5.35955z" fill="#4e3605" stroke-linecap="butt"></path><path d="M223.50737,177.50129c0.49039,0 -0.0845,-2.06755 0.81036,-2.851c1.16273,-1.01795 3.77079,-0.81392 3.77079,-0.81392c0,0 -2.35601,1.31975 -2.35601,2.22514c0,0.33695 -0.34162,2.66737 -0.90391,3.19451c-1.25541,1.17692 -3.35001,0.66675 -3.35001,0.66675c0,0 -1.04712,-2.03574 -1.04712,-3.07591c0,-0.98568 1.04712,-3.01046 1.04712,-3.01046c0,0 0.95573,3.66492 2.02879,3.66492z" data-paper-data="{&quot;index&quot;:null}" fill="#acff26" stroke-linecap="butt"></path><path d="M224.24306,181.42984l5.88159,-1.99215l-1.0435,2.08702l2.37161,0.47432l1.23323,2.73334" fill="#acff26" stroke-linecap="round"></path><path d="M212.39961,176.37625c0,0 -0.99813,-3.6045 -0.39245,-5.62056c0.64083,-2.13306 3.15631,-3.96705 3.15631,-3.96705c0,0 2.01372,-2.12303 3.4371,-1.36289c1.67299,0.89345 -0.68141,3.22711 -0.68141,3.22711c0,0 -0.61815,0.12213 -1.41899,2.65712c-0.69642,2.20447 0.98942,5.2516 0.67315,5.02441c-0.20071,-0.14417 -4.77371,0.04186 -4.77371,0.04186z" fill="#acff26" stroke-linecap="butt"></path><path d="M216.63201,193.04805l2.25528,-8.30356l4.21078,-2.06476l3.07342,1.94294l3.61792,-1.68569l2.69725,2.83743l0.99611,6.92547c0,0 -1.14891,2.08964 -2.44673,2.34619c-1.29782,0.25654 -3.54155,-1.16246 -3.54155,-1.16246c0,0 -1.8872,2.10788 -3.52578,2.25805c-1.59118,0.14582 -7.33669,-3.09362 -7.33669,-3.09362z" fill="#f6fab0" stroke-linecap="round"></path><path d="M220.43471,179.74783c0,1.8296 -1.97405,2.76153 -3.63555,3.60683c-0.80211,0.40808 -0.87657,1.30526 -1.86579,1.30526c-3.0383,0 -5.50133,-2.19921 -5.50133,-4.91209c0,-2.71287 2.46304,-4.91209 5.50134,-4.91209c3.0383,0 5.50134,2.19922 5.50134,4.91209z" fill="#4e3605" stroke-linecap="butt"></path><path d="M225.93786,188.56435c0,2.04215 -0.76714,3.69765 -1.71344,3.69765c-0.9463,0 -1.71344,-1.65549 -1.71344,-3.69765c0,-2.04215 0.76713,-3.69764 1.71344,-3.69764c0.9463,0 1.71344,1.65549 1.71344,3.69764z" fill="#000000" stroke-linecap="butt"></path><path d="M231.89335,188.07352c0,1.87949 -0.72704,3.40314 -1.6239,3.40314c-0.89685,0 -1.6239,-1.52364 -1.6239,-3.40314c0,-1.87949 0.72704,-3.40314 1.6239,-3.40314c0.89685,0 1.6239,1.52364 1.6239,3.40314z" fill="#000000" stroke-linecap="butt"></path><path d="M213.81836,186.0782l-1.61269,-3.22538l5.31241,-0.66405l-0.18973,-2.18188l4.55349,2.18188" fill="#acff26" stroke-linecap="round"></path><path d="M213.1767,168.593l1.8535,-1.74791c0,0 2.01372,-2.12303 3.4371,-1.36289c1.67299,0.89345 -0.68141,3.22711 -0.68141,3.22711l-0.93117,1.33175z" fill="#4e3605" stroke-linecap="butt"></path><path d="M220.75755,196.33378c-2.51545,0 -4.55463,-1.20117 -4.55463,-2.6829c0,-1.48173 2.03918,-2.6829 4.55463,-2.6829c2.51545,0 4.55463,1.20117 4.55463,2.6829c0,1.48173 -2.03918,2.6829 -4.55463,2.6829z" fill="#f6fab0" stroke-linecap="butt"></path><path d="M232.55167,195.47924c-1.99217,-0.71174 -2.87627,-2.86199 -2.48638,-3.95332c0.3899,-1.09132 2.64714,-1.8152 4.4178,-1.1826c1.77066,0.63261 3.1599,2.74275 2.79646,3.76002c-0.38989,1.09132 -2.73573,2.08762 -4.72789,1.37589z" fill="#f6fab0" stroke-linecap="butt"></path><path d="M217.86596,195.63074l1.11256,-2.74869" fill="none" stroke-linecap="round"></path><path d="M220.48095,193.41122l0.71989,2.68324" fill="none" stroke-linecap="round"></path><path d="M222.18814,193.8095l1.37434,1.43979" fill="none" stroke-linecap="round"></path><path d="M230.7529,194.14233l1.37435,-1.8979" fill="none" stroke-linecap="round"></path><path d="M233.23981,193.357l-0.71989,1.96335" fill="none" stroke-linecap="round"></path><path d="M235.13771,195.32035l-0.45812,-1.83246" fill="none" stroke-linecap="round"></path><path d="M226.23719,192.11355l1.76702,-0.13089l-0.589,1.57068z" fill="#000000" stroke-linecap="round"></path></g><path d="M202.77148,206.52204v-8.30807h40.77891v8.30807z" fill="#969696" stroke="none" stroke-width="0" stroke-linecap="butt"></path><path d="M202.73903,206.50259v-54.99006h5.60533v54.99006z" fill="#969696" stroke="none" stroke-width="0" stroke-linecap="butt"></path><path d="M238.75551,206.535v-54.99006h5.28115v54.99006z" fill="#969696" stroke="none" stroke-width="0" stroke-linecap="butt"></path><path d="M202.77148,158.23211v-6.68717h40.77891v6.68717z" fill="#969696" stroke="none" stroke-width="0" stroke-linecap="butt"></path><path d="M207.79304,199.45063v-13.6168l13.70333,13.6168z" fill="#969696" stroke="none" stroke-width="0" stroke-linecap="butt"></path><path d="M212.40578,201.87781v-7.88304h28.56539v7.88304z" fill="#969696" stroke="none" stroke-width="0" stroke-linecap="butt"></path><text transform="translate(222.32423,204.68916) scale(0.30548,0.32418)" font-size="40" xml:space="preserve" fill="#000000" fill-rule="nonzero" stroke="none" stroke-width="1" stroke-linecap="butt" stroke-linejoin="miter" stroke-miterlimit="10" stroke-dasharray="" stroke-dashoffset="0" font-family="Sans Serif" font-weight="normal" text-anchor="start" style="mix-blend-mode: normal"><tspan x="0" dy="0">175</tspan></text><g stroke-linecap="butt"><path d="M212.74565,200.88548l-1.72059,4.44127l-1.54719,-4.44127z" data-paper-data="{&quot;index&quot;:null}" fill="#ffff00" stroke="#ffff00" stroke-width="1"></path><path d="M209.52443,193.50982l1.5472,-4.44127l1.72059,4.44127z" fill="#ffff00" stroke="#ffff00" stroke-width="1"></path><path d="M206.81207,197.33464c0,-2.41265 1.95583,-4.36848 4.36848,-4.36848c2.41265,0 4.36847,1.95583 4.36847,4.36848c0,2.41265 -1.95583,4.36847 -4.36847,4.36847c-2.41265,0 -4.36848,-1.95583 -4.36848,-4.36847z" fill="#ffff00" stroke="none" stroke-width="0"></path><path d="M214.86991,195.69098l4.45498,1.68475l-4.42866,1.58292z" data-paper-data="{&quot;index&quot;:null}" fill="#ffff00" stroke="#ffff00" stroke-width="1"></path><path d="M207.52045,198.97151l-4.45358,-1.51136l4.42725,-1.75631z" fill="#ffff00" stroke="#ffff00" stroke-width="1"></path><path d="M215.07452,198.70358l1.9741,4.33453l-4.25788,-1.99728z" data-paper-data="{&quot;index&quot;:null}" fill="#ffff00" stroke="#ffff00" stroke-width="1"></path><path d="M207.54791,195.85286l-2.09528,-4.21051l4.37906,1.87326z" fill="#ffff00" stroke="#ffff00" stroke-width="1"></path><path d="M212.84379,193.55389l4.31849,-2.00895l-1.96292,4.27383z" data-paper-data="{&quot;index&quot;:null}" fill="#ffff00" stroke="#ffff00" stroke-width="1"></path><path d="M210.05379,201.10323l-4.1935,2.12913l1.83792,-4.39401z" fill="#ffff00" stroke="#ffff00" stroke-width="1"></path><path d="M208.11933,197.46467c0,-1.75513 1.42282,-3.17795 3.17794,-3.17795c1.75513,0 3.17795,1.42282 3.17795,3.17795c0,1.75513 -1.42282,3.17794 -3.17795,3.17794c-1.75513,0 -3.17794,-1.42282 -3.17794,-3.17794z" fill="#fffff7" stroke="none" stroke-width="0"></path></g><path d="M244.1367,151.42067v21.81487l-21.9535,-21.81487z" fill="#3aff00" stroke="none" stroke-width="0" stroke-linecap="butt"></path></g><text transform="translate(247.58474,185.18816) scale(0.43235,0.43235)" font-size="40" xml:space="preserve" fill="#000000" fill-rule="nonzero" stroke="none" stroke-width="1" stroke-linecap="butt" stroke-linejoin="miter" stroke-miterlimit="10" stroke-dasharray="" stroke-dashoffset="0" font-family="Sans Serif" font-weight="normal" text-anchor="start" style="mix-blend-mode: normal"><tspan x="0" dy="0">+15</tspan></text></g></g></g></svg>