<svg version="1.1" xmlns="http://www.w3.org/2000/svg" xmlns:xlink="http://www.w3.org/1999/xlink" width="60.02634" height="44.78349" viewBox="0,0,60.02634,44.78349"><defs><linearGradient x1="298.604" y1="177.50122" x2="298.604" y2="197.23825" gradientUnits="userSpaceOnUse" id="color-1"><stop offset="0" stop-color="#fde600"/><stop offset="1" stop-color="#fcf6b2"/></linearGradient><linearGradient x1="341.00201" y1="176.3385" x2="341.00201" y2="196.62878" gradientUnits="userSpaceOnUse" id="color-2"><stop offset="0" stop-color="#fde600"/><stop offset="1" stop-color="#fcf6b2"/></linearGradient><radialGradient cx="305.85162" cy="197.52356" r="17.60144" gradientUnits="userSpaceOnUse" id="color-3"><stop offset="0" stop-color="#7df9ff"/><stop offset="1" stop-color="#00dbff"/></radialGradient><radialGradient cx="335.14754" cy="180.18752" r="17.60144" gradientUnits="userSpaceOnUse" id="color-4"><stop offset="0" stop-color="#00b4b4"/><stop offset="1" stop-color="#00b4b4" stop-opacity="0"/></radialGradient><radialGradient cx="303.34353" cy="182.05698" r="22.68875" gradientUnits="userSpaceOnUse" id="color-5"><stop offset="0" stop-color="#005866"/><stop offset="1" stop-color="#00a3bc"/></radialGradient><radialGradient cx="334.38118" cy="159.91377" r="22.68875" gradientUnits="userSpaceOnUse" id="color-6"><stop offset="0" stop-color="#6eecff"/><stop offset="1" stop-color="#6eecff" stop-opacity="0"/></radialGradient></defs><g transform="translate(-289.58656,-157.60825)"><g stroke="#000000" stroke-width="1.28786" stroke-miterlimit="10"><path d="M297.55204,181.708l3.37968,-2.21052l5.626,17.74077l-8.61944,-10.78595l-4.16043,2.16035l-3.12758,-11.11143z" fill="url(#color-1)" stroke-linecap="round"/><path d="M348.59973,176.3385l-2.73043,11.21563l-4.23463,-2.01102l-8.23039,11.08568l4.99149,-17.92963l3.45616,2.08893z" fill="url(#color-2)" stroke-linecap="round"/><path d="M305.7622,201.22529c-1.41176,0 -2.55623,-1.0909 -2.55623,-2.43662v-28.68233c0,-1.3457 1.14447,-2.43662 2.55623,-2.43662h30.09043c1.41176,0 2.55622,1.0909 2.55622,2.43662v28.68233c0,1.3457 -1.14446,2.43662 -2.55622,2.43662c0,0 -10.34587,0.52252 -15.38207,0.52252c-4.99358,0 -14.70835,-0.52252 -14.70835,-0.52252z" fill="url(#color-3)" stroke-linecap="butt"/><path d="M305.44869,200.91178c-1.41176,0 -2.55623,-1.0909 -2.55623,-2.43662v-28.68233c0,-1.3457 1.14447,-2.43662 2.55623,-2.43662h30.09043c1.41176,0 2.55622,1.0909 2.55622,2.43662v28.68233c0,1.3457 -1.14446,2.43662 -2.55622,2.43662c0,0 -10.34587,0.52252 -15.38207,0.52252c-4.99358,0 -14.70835,-0.52252 -14.70835,-0.52252z" fill="url(#color-4)" stroke-linecap="butt"/><path d="M300.02517,184.03875l-1.50354,-6.57918c-0.91887,-4.02077 0.65096,-11.32737 4.44887,-12.19531l29.85008,-6.82165c3.79791,-0.86794 8.38572,5.03146 9.30458,9.05223l1.50354,6.57918c0.91887,4.02077 -42.68465,13.9855 -43.60353,9.96473z" fill="url(#color-5)" stroke-linecap="butt"/><path d="M310.21218,193.50119c0,0 1.68588,-0.34816 3.04588,0.1845c1.69903,0.66546 6.35947,3.49926 6.35947,3.49926" fill="none" stroke-linecap="round"/><path d="M316.84379,186.52694l8.52584,0.85939" fill="none" stroke-linecap="round"/><path d="M330.66881,187.0742l8.0468,-1.12342" fill="none" stroke-linecap="round"/><path d="M300.12967,183.93425l-1.50354,-6.57918c-0.91887,-4.02077 0.65096,-11.32737 4.44887,-12.19531l29.85008,-6.82165c3.79791,-0.86794 8.38572,5.03146 9.30458,9.05223l1.50354,6.57918c0.91887,4.02077 -42.68465,13.9855 -43.60353,9.96473z" fill="url(#color-6)" stroke-linecap="butt"/></g></g></svg>