<svg version="1.1" xmlns="http://www.w3.org/2000/svg" xmlns:xlink="http://www.w3.org/1999/xlink" width="67.38696" height="70.88718" viewBox="0,0,67.38696,70.88718"><defs><linearGradient x1="240.07956" y1="180.13093" x2="240.07956" y2="214.79966" gradientUnits="userSpaceOnUse" id="color-1"><stop offset="0" stop-color="#f100ff"></stop><stop offset="1" stop-color="#f100ff" stop-opacity="0"></stop></linearGradient><radialGradient cx="252.69337" cy="209.71016" r="17.33437" gradientUnits="userSpaceOnUse" id="color-2"><stop offset="0" stop-color="#66c3ff"></stop><stop offset="1" stop-color="#66c3ff" stop-opacity="0"></stop></radialGradient><radialGradient cx="219.99455" cy="156.5414" r="33.04955" gradientUnits="userSpaceOnUse" id="color-3"><stop offset="0" stop-color="#66c3ff"></stop><stop offset="1" stop-color="#66c3ff" stop-opacity="0"></stop></radialGradient><radialGradient cx="232.16768" cy="183.31023" r="17.33437" gradientUnits="userSpaceOnUse" id="color-4"><stop offset="0" stop-color="#ff667d"></stop><stop offset="1" stop-color="#ff667d" stop-opacity="0"></stop></radialGradient><radialGradient cx="267.81754" cy="153.22166" r="33.04955" gradientUnits="userSpaceOnUse" id="color-5"><stop offset="0" stop-color="#ff667d"></stop><stop offset="1" stop-color="#ff667d" stop-opacity="0"></stop></radialGradient><radialGradient cx="254.7284" cy="185.11321" r="17.33437" gradientUnits="userSpaceOnUse" id="color-6"><stop offset="0" stop-color="#d890ff"></stop><stop offset="1" stop-color="#d890ff" stop-opacity="0"></stop></radialGradient><radialGradient cx="240.91727" cy="179.53637" r="33.04955" gradientUnits="userSpaceOnUse" id="color-7"><stop offset="0" stop-color="#d890ff"></stop><stop offset="1" stop-color="#d890ff" stop-opacity="0"></stop></radialGradient><radialGradient cx="254.72843" cy="185.1132" r="17.33437" gradientUnits="userSpaceOnUse" id="color-8"><stop offset="0" stop-color="#d890ff" stop-opacity="0"></stop><stop offset="1" stop-color="#d890ff" stop-opacity="0"></stop></radialGradient><radialGradient cx="240.91728" cy="179.53636" r="33.04955" gradientUnits="userSpaceOnUse" id="color-9"><stop offset="0" stop-color="#d890ff" stop-opacity="0"></stop><stop offset="1" stop-color="#d890ff" stop-opacity="0"></stop></radialGradient></defs><g transform="translate(-206.30653,-144.5564)"><g data-paper-data="{&quot;isPaintingLayer&quot;:true}" fill-rule="nonzero" stroke="#000000" stroke-linejoin="miter" stroke-miterlimit="10" stroke-dasharray="" stroke-dashoffset="0" style="mix-blend-mode: normal"><g><g stroke-width="0" stroke-linecap="butt"><path d="M223.56768,214.79966v-48.08374h33.55075v48.08374z" data-paper-data="{&quot;index&quot;:null}" fill="#00ffc5"></path><path d="M215.02747,181.14105c0,0 -18.18687,-19.56895 0.02035,-29.92609c18.20722,-10.35713 42.8531,-5.31805 52.39492,0.10978c4.06152,2.31039 6.13657,8.03413 5.4905,13.87206c-0.87177,7.87722 -5.4905,15.94426 -5.4905,15.94426z" data-paper-data="{&quot;index&quot;:null}" fill="#00ffc5"></path><path d="M223.56768,214.79966v-48.08374h33.55075v48.08374z" data-paper-data="{&quot;index&quot;:null}" fill="none"></path><path d="M215.02747,181.14105c0,0 -18.18687,-19.56895 0.02035,-29.92609c18.20722,-10.35713 42.8531,-5.31805 52.39492,0.10978c4.06152,2.31039 6.13657,8.03413 5.4905,13.87206c-0.87177,7.87722 -5.4905,15.94426 -5.4905,15.94426z" data-paper-data="{&quot;index&quot;:null}" fill="none"></path></g><g stroke-width="0" stroke-linecap="butt"><path d="M223.30419,214.79966v-34.66873h33.55076v34.66873z" data-paper-data="{&quot;index&quot;:null}" fill="url(#color-1)"></path><path d="M215.02747,181.14104c0,0 -18.18687,-19.56895 0.02035,-29.92609c18.20722,-10.35713 42.85311,-5.31806 52.39493,0.10978c4.06152,2.31039 6.13656,8.03413 5.49049,13.87206c-0.87176,7.87722 -5.49049,15.94426 -5.49049,15.94426z" data-paper-data="{&quot;index&quot;:null}" fill="#e210fb"></path></g><g stroke-width="0" stroke-linecap="butt"><path d="M223.30419,214.79966v-34.66873h33.55076v34.66873z" data-paper-data="{&quot;index&quot;:null}" fill="url(#color-2)"></path><path d="M215.02747,181.14104c0,0 -18.18687,-19.56895 0.02035,-29.92609c18.20722,-10.35713 42.8531,-5.31805 52.39493,0.10978c4.06152,2.31039 6.13656,8.03413 5.49049,13.87206c-0.87176,7.87722 -5.49049,15.94426 -5.49049,15.94426z" data-paper-data="{&quot;index&quot;:null}" fill="url(#color-3)"></path></g><g stroke-width="0" stroke-linecap="butt"><path d="M223.30419,214.79966v-34.66873h33.55075v34.66873z" data-paper-data="{&quot;index&quot;:null}" fill="url(#color-4)"></path><path d="M215.02747,181.14104c0,0 -18.18687,-19.56895 0.02035,-29.92609c18.20722,-10.35713 42.85311,-5.31805 52.39492,0.10978c4.06152,2.31039 6.13657,8.03413 5.4905,13.87206c-0.87177,7.87722 -5.4905,15.94426 -5.4905,15.94426z" data-paper-data="{&quot;index&quot;:null}" fill="url(#color-5)"></path></g><g stroke-width="0" stroke-linecap="butt"><path d="M223.30419,214.79966v-34.22956l33.55076,0.32941v33.90016z" data-paper-data="{&quot;index&quot;:null}" fill="url(#color-6)"></path><path d="M215.02747,181.14104c0,0 -18.18687,-19.56895 0.02035,-29.92609c18.20722,-10.35713 42.85311,-5.31805 52.39493,0.10978c4.06152,2.31039 6.13657,8.03413 5.4905,13.87206c-0.87177,7.87722 -5.4905,15.94426 -5.4905,15.94426z" data-paper-data="{&quot;index&quot;:null}" fill="url(#color-7)"></path></g><path d="M226.81519,157.73808l16.68753,13.56884l-17.46594,0.73864z" data-paper-data="{&quot;index&quot;:null}" fill="#ffffff" stroke-width="1.28786" stroke-linecap="round"></path><path d="M266.47404,171.62806l-17.27074,-0.19933l15.23572,-12.23058z" data-paper-data="{&quot;index&quot;:null}" fill="#ffffff" stroke-width="1.28786" stroke-linecap="round"></path><path d="M229.52315,186.67626c0,0 2.76455,-2.05492 5.27508,-1.21739c7.60594,2.53738 9.94132,7.66149 9.94132,7.66149" fill="none" stroke-width="1.28786" stroke-linecap="round"></path><g stroke-width="1.28786" stroke-linecap="butt"><path d="M223.3042,214.79965l0.0941,-33.55197l33.45665,0.02823v33.52374z" data-paper-data="{&quot;index&quot;:null}" fill="url(#color-8)"></path><path d="M215.02749,181.14103c0,0 -18.18687,-19.56895 0.02035,-29.92609c18.20722,-10.35713 42.8531,-5.31805 52.39492,0.10978c4.06152,2.31039 6.13657,8.03413 5.4905,13.87206c-0.87177,7.87722 -5.4905,15.94426 -5.4905,15.94426z" data-paper-data="{&quot;index&quot;:null}" fill="url(#color-9)"></path></g></g></g></g></svg>