<svg version="1.1" xmlns="http://www.w3.org/2000/svg" xmlns:xlink="http://www.w3.org/1999/xlink" width="61.73083" height="41.59321" viewBox="0,0,61.73083,41.59321"><g transform="translate(-213.55456,-162.93492)"><g data-paper-data="{&quot;isPaintingLayer&quot;:true}" fill-rule="nonzero" stroke="#000000" stroke-width="1.28786" stroke-linejoin="miter" stroke-miterlimit="10" stroke-dasharray="" stroke-dashoffset="0" style="mix-blend-mode: normal"><path d="M242.87175,194.79854c0,-4.97682 -3.96479,-9.01132 -8.8556,-9.01132c-4.89082,0 -8.8556,4.0345 -8.8556,9.01132c0,4.97682 3.96479,9.01133 8.8556,9.01133c4.89082,0 8.8556,-4.03451 8.8556,-9.01133z" fill="#3d4e00" stroke-linecap="butt"></path><path d="M237.68274,164.16692c6.14214,0 8.87329,-0.83925 14.53379,-0.36529c5.6605,0.47395 12.20069,6.33916 12.20069,11.42932c0,11.14058 -1.04632,22.11768 -16.09395,22.6147c-0.07057,0.00233 -4.3907,-6.28494 -4.74895,-6.44396c-1.82735,-0.81113 -7.13087,4.57816 -7.49482,4.57816c-0.25687,0 3.42065,-8.3569 3.18026,-8.35863c-14.40594,-0.10387 -3.50603,4.95389 -2.91085,-11.3791c0.46197,-12.67747 0.37808,-1.98018 -0.9568,-2.23969c-1.02765,-0.19979 -4.51699,-9.8355 2.29064,-9.8355z" data-paper-data="{&quot;index&quot;:null}" fill="#c6ff00" stroke-linecap="butt"></path><path d="M246.30219,186.78982v-13.20827l26.33557,7.02253z" fill="#ff0000" stroke-linecap="butt"></path><path d="M248.26861,181.40732c0.68471,13.60526 18.01419,16.17153 0.30485,16.17153c-17.70934,0 -32.06559,-7.61116 -32.06559,-17c0,-9.38884 14.35626,-17 32.0656,-17c17.70934,0 -1.23002,-0.55476 -0.30485,17.82847z" fill="#c6ff00" stroke-linecap="butt"></path><path d="M230.68478,171.35095l12.73656,6.07421l-9.21182,3.36206l0.48748,-7.37394l8.51758,3.86966" fill="#ffffff" stroke-linecap="round"></path><path d="M231.90969,194.87288c0,-4.97682 -3.96479,-9.01133 -8.8556,-9.01133c-4.89081,0 -8.8556,4.03451 -8.8556,9.01133c0,4.97682 3.96479,9.01133 8.8556,9.01133c4.89081,0 8.8556,-4.03451 8.8556,-9.01133z" fill="#749400" stroke-linecap="butt"></path></g></g></svg>