<svg version="1.1" xmlns="http://www.w3.org/2000/svg" xmlns:xlink="http://www.w3.org/1999/xlink" width="45.00215" height="25.76669" viewBox="0,0,45.00215,25.76669"><g transform="translate(-297.09894,-177.30318)"><g stroke="#000000" stroke-width="1.28786" stroke-miterlimit="10"><path d="M341.45715,193.8948c0,2.36342 -1.28542,5.25594 -4.38025,6.4333c-4.56944,1.73836 -7.29169,0.95638 -7.29169,0.95638c0,0 -2.14141,1.02782 -4.85487,1.14107c-4.05048,0.16906 -5.97319,-0.32245 -5.97319,-0.32245c0,0 -4.92894,0.38499 -6.4968,0.32334c-1.22822,-0.0483 -2.14271,-0.66307 -2.14271,-0.66307c0,0 -5.00046,-0.51557 -7.99119,-1.6618c-3.28301,-1.25824 -4.58358,-3.27643 -4.58358,-6.20678c0,-2.6514 3.11193,-4.38484 5.55999,-7.126c3.74534,-4.19378 7.94936,-7.35532 15.36858,-7.35532c7.78306,0 11.17482,4.10666 15.22609,8.57813c2.33483,2.57701 7.55963,3.45072 7.55963,5.90319z" fill="#e4ff99" stroke-linecap="butt"/><path d="M312.15556,187.25846c0,-0.74532 -0.15105,-1.29761 1.44444,-1.29761c0.73756,0 1.2748,0.37001 2.11728,0.61829c0.97998,0.28879 2.21605,0.48617 2.21605,0.88694c0,0.74532 -1.29341,1.1419 -2.88889,1.1419c-1.59549,0 -2.88888,-0.6042 -2.88888,-1.34951z" fill="#ffffff" stroke-linecap="butt"/><path d="M324.15173,188.40036c-1.59549,0 -2.88889,-0.39658 -2.88889,-1.1419c0,-0.40077 1.23608,-0.59815 2.21605,-0.88694c0.84248,-0.24828 1.37972,-0.61829 2.11728,-0.61829c1.59549,0 1.44445,0.55229 1.44445,1.29761c0,0.74532 -1.2934,1.34951 -2.88889,1.34951z" fill="#ffffff" stroke-linecap="butt"/><path d="M302.82222,192.81223c0,0 1.96401,-2.24913 4.66667,-2.43951c2.70266,-0.19038 23.33333,0.46714 23.33333,0.46714" fill="none" stroke-linecap="round"/><path d="M319.71481,180.20297c-1.44918,-0.37519 -2.01938,-1.18893 -1.2736,-1.81754v0c0.74579,-0.62861 2.52515,-0.83405 3.97433,-0.45887l4.49822,1.16457c1.44918,0.37519 2.01938,1.18893 1.2736,1.81754v0c-0.74579,0.62861 -2.52515,0.83405 -3.97433,0.45887z" fill="#64bb2f" stroke-linecap="butt"/><path d="M310.88572,183.48427c0,0 0.77571,-1.32717 1.85908,-1.97946c1.05893,-0.63757 4.5695,-1.89112 4.5695,-1.89112c0,0 3.6463,0.84322 4.88423,1.45621c1.13387,0.56145 2.25862,2.0807 2.25862,2.0807" fill="none" stroke-linecap="round"/><path d="M310.45715,201.64339c0,0 -3.71053,-1.54505 -4.46426,-2.75072c-0.81318,-1.30076 -0.25002,-4.79024 -0.25002,-4.79024" fill="none" stroke-linecap="round"/><path d="M320.02858,201.97706c0,0 -3.68561,-2.25726 -4.40485,-3.58961c-0.65585,-1.21494 0.26199,-4.08482 0.26199,-4.08482" fill="none" stroke-linecap="round"/><path d="M333.45715,192.16713c0,0 1.39228,4.33465 1.00774,5.99927c-0.31635,1.36941 -5.29345,3.07658 -5.29345,3.07658" fill="none" stroke-linecap="round"/><path d="M328.26667,184.92276l-8.77778,2.85474l-9.55556,-3.11426" fill="none" stroke-linecap="round"/></g></g></svg>