<svg version="1.1" xmlns="http://www.w3.org/2000/svg" xmlns:xlink="http://www.w3.org/1999/xlink" width="804" height="537" viewBox="0,0,804,537"><g transform="translate(82,88.5)"><g stroke-miterlimit="10"><path d="M-82,448.5v-537h804v537z" fill="#000000" stroke="none" stroke-width="0" stroke-linecap="butt"/><path d="M551.91529,254.42431c0,0 -25.34583,-3.73506 -33.81717,-12.42645c-9.51659,-9.76383 -20.51234,-43.31441 -20.51234,-43.31441l14.38116,-4.90089c0,0 2.18606,21.2938 15.42934,39.48495c8.35648,11.4786 22.13316,4.43915 22.13316,4.43915l2.38583,16.71762z" fill="#ffffff" stroke="none" stroke-width="0" stroke-linecap="butt"/><path d="M596.26204,231.01112c4.66602,-0.25475 13.09081,-1.68146 14.84798,-0.6363c3.10352,1.84598 -4.63473,4.46418 -3.10238,11.69972c0.82334,3.8877 6.50521,7.06661 3.29793,9.14848c-1.85733,1.20562 -11.37819,2.21403 -16.25726,2.48042c-13.30431,0.7264 -23.81786,-3.76457 -23.48271,-10.03087c0.33517,-6.2663 11.39215,-11.93503 24.69646,-12.66143z" fill="#ffffff" stroke="none" stroke-width="0" stroke-linecap="butt"/><path d="M577.51147,244.83639l3.97506,-0.80562l1.79707,7.01244l-5.25485,0.37272z" fill="#ffffff" stroke="none" stroke-width="0" stroke-linecap="butt"/><path d="M480.36849,223.51685c-1.99825,-9.24201 9.29115,-19.52531 25.21564,-22.96843c15.92448,-3.44311 30.45374,1.25781 32.45198,10.4998c1.99825,9.24201 -9.29115,19.52531 -25.21565,22.9684c-15.92448,3.44311 -30.45373,-1.25779 -32.45198,-10.4998z" fill="#ffffff" stroke="none" stroke-width="0" stroke-linecap="butt"/><path d="M447.26334,241.64587c-0.2818,0 -0.51026,-0.82069 -0.51026,-1.83304c0,-1.01238 0.22846,-1.83304 0.51026,-1.83304c0.28178,0 0.51024,0.82069 0.51024,1.83304c0,1.01238 -0.22844,1.83304 -0.51024,1.83304z" fill="#ffffff" stroke="none" stroke-width="0" stroke-linecap="butt"/><path d="M452.61014,195.65811c13.60474,4.39854 22.14264,15.66881 19.06992,25.1728c-3.07274,9.50402 -16.5925,13.64279 -30.19728,9.24428c-13.60474,-4.39854 -22.14268,-15.66879 -19.06994,-25.17279c3.07272,-9.50401 16.5925,-13.64279 30.19729,-9.24428z" fill="#ffffff" stroke="none" stroke-width="0" stroke-linecap="butt"/><path d="M443.27132,182.51811c0,-5.99781 11.73941,-8.04059 14.76203,-12.92508c6.39201,-10.32933 8.5784,-20.90078 22.58086,-20.90078c20.62389,0 37.34286,15.14436 37.34286,33.82588c0,18.68154 -16.71897,33.82588 -37.34286,33.82588c-20.62389,0 -37.34286,-15.14436 -37.34286,-33.82588z" fill="#ffffff" stroke="none" stroke-width="0" stroke-linecap="butt"/><path d="M497.1266,151.29179c7.26154,2.55566 15.37067,12.62405 18.03757,22.12335c2.93759,10.46343 -0.04255,20.35737 -2.33381,21.53004c-5.83772,2.98782 -10.65531,-7.99898 -22.55427,-15.43316c-24.85289,-15.52745 -32.03795,-5.95821 -28.03265,-17.33868c4.00532,-11.38044 19.62304,-16.25229 34.88316,-10.88155z" fill="#ffffff" stroke="none" stroke-width="0" stroke-linecap="butt"/><path d="M497.75065,164.3817l25.40147,-16.55508l-11.19154,28.89886z" fill="#ffffff" stroke="none" stroke-width="0" stroke-linecap="butt"/><path d="M465.42548,159.5075l1.09288,-30.97095l16.82977,25.22032z" fill="#ffffff" stroke="none" stroke-width="0" stroke-linecap="butt"/><path d="M610.56118,229.05093c2.53093,-0.3822 5.31555,4.16151 6.21967,10.14867c0.90412,5.98716 -0.41465,11.15053 -2.94556,11.5327c-2.53093,0.3822 -5.31557,-4.16151 -6.21969,-10.14867c-0.90412,-5.98716 0.41465,-11.15053 2.94556,-11.5327z" fill="#ffffff" stroke="none" stroke-width="0" stroke-linecap="butt"/><path d="M182.16857,348.9183v-125.38367h391.67136v125.38367z" fill="#ffffff" stroke="none" stroke-width="0" stroke-linecap="butt"/><text transform="translate(437.50133,251.25642) scale(0.5,0.5)" font-size="40" xml:space="preserve" fill="#ffffff" stroke="none" stroke-width="0" stroke-linecap="butt" font-family="Sans Serif" font-weight="normal" text-anchor="start"><tspan x="0" dy="0">NEO Cattail</tspan></text><path d="M514.26424,336.72729v-31.49591l33.54755,17.69586z" fill="#ffffff" stroke="none" stroke-width="0" stroke-linecap="butt"/><path d="M490.20469,222.76719c0,6.24082 -6.62618,11.3 -14.8,11.3c-8.17381,0 -14.8,-5.05918 -14.8,-11.3c0,-6.24082 6.62619,-11.3 14.8,-11.3c8.17382,0 14.8,5.05918 14.8,11.3z" fill="#ffffff" stroke="none" stroke-width="0" stroke-linecap="butt"/><path d="M480.33293,182.36719c0,5.90945 -2.26729,10.7 -5.06412,10.7c-2.79683,0 -5.06412,-4.79056 -5.06412,-10.7c0,-5.90945 2.26728,-10.7 5.06412,-10.7c2.79683,0 5.06412,4.79055 5.06412,10.7z" fill="#000000" stroke="none" stroke-width="0" stroke-linecap="butt"/><path d="M563.73802,185.36719c0,2.92711 -7.79195,5.3 -17.4038,5.3c-9.61185,0 -7.35372,-5.55542 -7.35372,-5.55542c0,0 -2.25813,-5.04458 7.35372,-5.04458c9.61185,0 17.4038,2.37289 17.4038,5.3z" fill="#ffffff" stroke="none" stroke-width="0" stroke-linecap="butt"/><path d="M536.73802,184.66719l-17.2,0.2" fill="none" stroke="#ffffff" stroke-width="0.5" stroke-linecap="round"/><path d="M536.73802,190.06719l-16.8,2" fill="none" stroke="#ffffff" stroke-width="0.5" stroke-linecap="round"/><path d="M537.93802,180.46719l-18.6,-2.2" fill="none" stroke="#ffffff" stroke-width="0.5" stroke-linecap="round"/></g></g></svg>