<svg version="1.1" xmlns="http://www.w3.org/2000/svg" xmlns:xlink="http://www.w3.org/1999/xlink" width="45.00214" height="54.1359" viewBox="0,0,45.00214,54.1359"><g transform="translate(-297.49893,-152.89512)"><g stroke="#000000" stroke-width="1.28786" stroke-miterlimit="10"><g><path d="M341.85714,188.1235c0,5.05936 -1.28542,11.25133 -4.38024,13.7717c-4.56944,3.72129 -7.29169,2.04731 -7.29169,2.04731c0,0 -2.14141,2.20025 -4.85487,2.44269c-4.05048,0.36189 -5.9732,-0.69027 -5.9732,-0.69027c0,0 -4.92894,0.82415 -6.4968,0.69217c-1.22822,-0.10339 -2.14271,-1.41943 -2.14271,-1.41943c0,0 -5.00046,-1.10368 -7.99119,-3.55739c-3.28301,-2.69351 -4.58358,-7.01381 -4.58358,-13.28677c0,-5.67582 3.11193,-9.38657 5.55998,-15.25455c3.74534,-8.97758 7.94937,-15.74545 15.36858,-15.74545c7.78306,0 11.17482,8.79109 15.22609,18.36311c2.33483,5.51657 7.55963,7.38692 7.55963,12.63689z" fill="#e4ff99" stroke-linecap="butt"/><path d="M312.55555,173.91715c0,-1.59549 -0.15105,-2.77778 1.44444,-2.77778c0.73756,0 1.2748,0.79208 2.11728,1.32356c0.97998,0.61821 2.21606,1.04073 2.21606,1.89866c0,1.59549 -1.2934,2.44445 -2.88889,2.44445c-1.59549,0 -2.88889,-1.2934 -2.88889,-2.88889z" fill="#ffffff" stroke-linecap="butt"/><path d="M324.55173,176.36159c-1.59549,0 -2.88889,-0.84895 -2.88889,-2.44445c0,-0.85793 1.23608,-1.28045 2.21605,-1.89866c0.84248,-0.53148 1.37972,-1.32356 2.11728,-1.32356c1.59549,0 1.44445,1.18229 1.44445,2.77778c0,1.59549 -1.2934,2.88889 -2.88889,2.88889z" fill="#ffffff" stroke-linecap="butt"/><path d="M303.22222,185.80604c0,0 1.96401,-4.81468 4.66667,-5.22223c2.70266,-0.40754 23.33333,1 23.33333,1" fill="none" stroke-linecap="round"/><path d="M320.11481,158.81354c-1.44918,-0.80316 -2.01939,-2.54512 -1.2736,-3.89078v0c0.74579,-1.34566 2.52515,-1.78544 3.97433,-0.98229l4.49822,2.49298c1.44918,0.80316 2.01938,2.54512 1.2736,3.89078v0c-0.74579,1.34566 -2.52515,1.78545 -3.97433,0.98229z" fill="#64bb2f" stroke-linecap="butt"/><path d="M324.85714,165.1235c0,0 -1.12475,-3.25224 -2.25862,-4.45414c-1.23793,-1.31221 -4.88423,-3.1173 -4.88423,-3.1173c0,0 -3.51057,2.68347 -4.56949,4.0483c-1.08338,1.39635 -1.85908,4.23741 -1.85908,4.23741" fill="none" stroke-linecap="round"/><path d="M310.85714,204.7108c0,0 -3.71053,-3.30748 -4.46426,-5.88844c-0.81318,-2.78452 -0.25002,-10.25442 -0.25002,-10.25442" fill="none" stroke-linecap="round"/><path d="M320.42857,205.42508c0,0 -3.68561,-4.83208 -4.40485,-7.68424c-0.65585,-2.60081 0.26199,-8.74433 0.26199,-8.74433" fill="none" stroke-linecap="round"/><path d="M333.85714,184.42508c0,0 1.39228,9.27914 1.00774,12.84257c-0.31635,2.93147 -5.29345,6.58601 -5.29345,6.58601" fill="none" stroke-linecap="round"/><path d="M310.33333,168.36159l9.55555,6.66666l8.77778,-6.11111" fill="none" stroke-linecap="round"/></g></g></g></svg>