<svg version="1.1" xmlns="http://www.w3.org/2000/svg" xmlns:xlink="http://www.w3.org/1999/xlink" width="54.16286" height="54.26522" viewBox="0,0,54.16286,54.26522"><g transform="translate(-294.14398,-166.68169)"><g stroke="#000000" stroke-width="1.28786" stroke-miterlimit="10"><path d="M294.78791,193.76313c0,-14.60103 11.83647,-26.4375 26.4375,-26.4375c14.60103,0 26.4375,11.83647 26.4375,26.4375c0,14.60103 -11.83647,26.4375 -26.4375,26.4375c-14.60103,0 -26.4375,-11.83647 -26.4375,-26.4375z" fill="#18d83b" stroke-linecap="butt"/><path d="M346.37594,200.53531c0,0 -8.33306,-4.39804 -13.32454,-2.22063c-2.75832,1.20325 -3.65243,10.79819 -3.65243,10.79819c0,0 -5.74381,-8.30054 -11.30875,-5.72041c-5.56493,2.58013 -6.85714,14.14286 -6.85714,14.14286c0,0 7.36733,6.32392 21.28646,-0.14667c15.06694,-7.00416 13.85639,-16.85334 13.85639,-16.85334z" fill="#1dff46" stroke-linecap="round"/><path d="M319.80451,213.7496l7.85715,-2" fill="none" stroke-linecap="round"/><path d="M332.37594,209.96388l7.85715,-2" fill="none" stroke-linecap="round"/></g></g></svg>