<svg version="1.1" xmlns="http://www.w3.org/2000/svg" xmlns:xlink="http://www.w3.org/1999/xlink" width="96.1724" height="97.26079" viewBox="0,0,96.1724,97.26079"><g transform="translate(-191.9138,-131.2375)"><g data-paper-data="{&quot;isPaintingLayer&quot;:true}" fill-rule="nonzero" stroke-linecap="butt" stroke-linejoin="miter" stroke-miterlimit="10" stroke-dasharray="" stroke-dashoffset="0" style="mix-blend-mode: normal"><path d="M192.4138,226.60087v-64.88824v-9.24098c0,0 2.20499,0 4.81102,0c11.2941,0 90.36138,0 90.36138,0v74.12922z" fill="#afafaf" stroke="#000000" stroke-width="1"></path><path d="M192.4138,205.86672v-64.88824v-9.24098c0,0 2.20499,0 4.81102,0c11.2941,0 90.36138,0 90.36138,0v74.12922z" fill="#afafaf" stroke="#000000" stroke-width="1"></path><text transform="translate(226.18157,222.60704) scale(0.4713,0.4713)" font-size="40" xml:space="preserve" fill="#000000" fill-rule="nonzero" stroke="none" stroke-width="1" stroke-linecap="butt" stroke-linejoin="miter" stroke-miterlimit="10" stroke-dasharray="" stroke-dashoffset="0" font-family="Sans Serif" font-weight="normal" text-anchor="start" style="mix-blend-mode: normal"><tspan x="0" dy="0">1-4</tspan></text><path d="M196.91902,199.90336v-60.82023h86.62275v60.82023z" fill="#939393" stroke="#000000" stroke-width="1"></path><g stroke="#000000" stroke-width="0.5"><path d="M234.04271,196.92222v-54.51813h11.04574v54.51813z" fill="#0b8100"></path><path d="M234.05852,196.99432v-31.57863h11.14692v31.57863z" fill="#740000"></path><path d="M234.05852,179.90726v-14.49156h5.11448z" fill="#ffffff"></path><path d="M233.98002,174.80308v-9.51685h3.35876z" fill="#ff0000"></path><path d="M238.84014,152.57792c0,3.34277 -0.8556,6.05264 -1.91103,6.05264c-1.05543,0 -1.91103,-2.70985 -1.91103,-6.05264c0,-3.34277 0.8556,-6.05264 1.91103,-6.05264c1.05543,0 1.91103,2.70985 1.91103,6.05264z" fill="#000000"></path></g><g stroke="#000000" stroke-width="0.5"><path d="M209.42705,197.31534v-54.51812h11.04574v54.51813z" fill="#0b8100"></path><path d="M209.44286,197.38744v-31.57863h11.14692v31.57863z" fill="#740000"></path><path d="M209.44286,180.30037v-14.49156h5.11447z" fill="#ffffff"></path><path d="M209.36436,175.19619v-9.51685h3.35876z" fill="#ff0000"></path><path d="M214.22448,152.97104c0,3.34277 -0.8556,6.05264 -1.91103,6.05264c-1.05543,0 -1.91103,-2.70985 -1.91103,-6.05264c0,-3.34277 0.8556,-6.05264 1.91103,-6.05264c1.05543,0 1.91103,2.70986 1.91103,6.05264z" fill="#000000"></path></g><g stroke="#000000" stroke-width="0.5"><path d="M257.20523,197.05033v-54.51812h11.04574v54.51813z" fill="#0b8100"></path><path d="M257.22104,197.12244v-31.57864h11.14692v31.57864z" fill="#740000"></path><path d="M257.22104,180.03537v-14.49157h5.11448z" fill="#ffffff"></path><path d="M257.14254,174.93119v-9.51685h3.35876z" fill="#ff0000"></path><path d="M262.00266,152.70604c0,3.34277 -0.8556,6.05264 -1.91103,6.05264c-1.05543,0 -1.91104,-2.70985 -1.91104,-6.05264c0,-3.34277 0.85561,-6.05264 1.91104,-6.05264c1.05543,0 1.91103,2.70986 1.91103,6.05264z" fill="#000000"></path></g></g></g></svg>