<svg version="1.1" xmlns="http://www.w3.org/2000/svg" xmlns:xlink="http://www.w3.org/1999/xlink" width="49.85607" height="32.19273" viewBox="0,0,49.85607,32.19273"><g transform="translate(-294.64065,-159.8035)"><g stroke-miterlimit="10"><path d="M297.73675,180.20618c0,-4.46262 2.99354,-9.57575 10.92659,-11.23107c2.69232,-0.56178 22.94617,-0.93436 26.8814,0.77171c4.57189,1.98208 6.71852,7.24712 6.71852,10.45936c0,2.89868 -1.79509,7.7278 -5.61224,9.67059c-4.05391,2.06328 -26.13023,1.76454 -28.79338,1.21707c-7.99139,-1.64279 -10.12089,-6.40452 -10.12089,-10.88766z" fill="#737373" stroke="#000000"/><text transform="translate(294.71944,166.50107) scale(0.15759,0.15759)" font-size="40" xml:space="preserve" fill="#000000" stroke="none" font-family="Sans Serif" font-weight="normal" text-anchor="start"><tspan x="0" dy="0">Music Indicator?</tspan></text><path d="M320.57301,180.19871c0,-5.97715 4.84544,-10.8226 10.8226,-10.8226c5.97715,0 10.8226,4.84544 10.8226,10.8226c0,5.97715 -4.84544,10.8226 -10.8226,10.8226c-5.97715,0 -10.8226,-4.84544 -10.8226,-10.8226z" fill="#b2b2b2" stroke="#000000"/><text transform="translate(323.98495,183.33146) scale(0.23658,0.23658)" font-size="40" xml:space="preserve" fill="#000000" stroke="none" font-family="Sans Serif" font-weight="normal" text-anchor="start"><tspan x="0" dy="0">Yes</tspan></text></g></g></svg>