<svg version="1.1" xmlns="http://www.w3.org/2000/svg" xmlns:xlink="http://www.w3.org/1999/xlink" width="52.45737" height="77.95927" viewBox="0,0,52.45737,77.95927"><g transform="translate(-213.77131,-141.02036)"><g data-paper-data="{&quot;isPaintingLayer&quot;:true}" fill-rule="nonzero" stroke="#000000" stroke-width="1.28786" stroke-linejoin="miter" stroke-miterlimit="10" stroke-dasharray="" stroke-dashoffset="0" style="mix-blend-mode: normal"><path d="M232.05703,217.67705c-6.1046,0 -11.05335,-2.58734 -11.05335,-5.77899c0,-3.19164 4.94875,-5.77899 11.05335,-5.77899c6.1046,0 11.05335,2.58734 11.05335,5.77899c0,3.19164 -4.94875,5.77899 -11.05335,5.77899z" fill="#00ff50" stroke-linecap="butt"></path><path d="M265.58476,212.37513c0,3.29193 -5.40121,5.96058 -12.06393,5.96058c-6.66272,0 -12.06393,-2.66865 -12.06393,-5.96058c0,-3.29193 5.40121,-5.96056 12.06393,-5.96056c6.66272,0 12.06393,2.66864 12.06393,5.96056z" fill="#00ff50" stroke-linecap="butt"></path><path d="M258.69376,196.66481c0,8.97448 -7.55846,16.24974 -16.8823,16.24974c-9.32383,0 -16.8823,-7.27526 -16.8823,-16.24974c0,-4.55309 4.56972,-6.73847 7.49824,-17.6015c2.84381,-10.54885 3.52097,-21.44698 3.94896,-21.02797c3.50995,3.4362 10.17191,11.61056 13.10009,21.56121c3.07438,10.44746 9.21729,12.7298 9.21729,17.06826z" fill="#00ff50" stroke-linecap="butt"></path><path d="M232.87404,174.67348c3.11175,7.0855 1.88743,14.47497 -2.7346,16.50484c-4.62204,2.02987 -10.89151,-2.06853 -14.00326,-9.15403c-3.11175,-7.0855 -1.88743,-14.47497 2.7346,-16.50484c4.62204,-2.02987 10.89151,2.06853 14.00326,9.15403z" fill="#ffff00" stroke-linecap="butt"></path><path d="M260.24109,159.61949c4.62204,2.02987 5.84636,9.41934 2.73461,16.50484c-3.11176,7.0855 -9.38124,11.1839 -14.00328,9.15403c-4.62203,-2.02987 -5.84635,-9.41934 -2.7346,-16.50484c3.11175,-7.0855 9.38122,-11.1839 14.00326,-9.15403z" data-paper-data="{&quot;index&quot;:null}" fill="#ffff00" stroke-linecap="butt"></path><path d="M242.9052,152.98637c2.04023,7.4649 -0.25337,14.5953 -5.1229,15.92619c-4.86953,1.33089 -10.47099,-3.64172 -12.51122,-11.10662c-2.04023,-7.4649 0.25337,-14.5953 5.1229,-15.92618c4.86953,-1.33089 10.47099,3.64171 12.51122,11.10661z" fill="#ffff00" stroke-linecap="butt"></path><path d="M239.69107,194.77906c0,4.96313 -1.31697,8.98653 -2.94154,8.98653c-1.62457,0 -2.94154,-4.02341 -2.94154,-8.98653c0,-4.96313 1.31697,-8.98653 2.94154,-8.98653c1.62457,0 2.94154,4.02341 2.94154,8.98653z" fill="#000000" stroke-linecap="butt"></path><path d="M248.10109,194.99643c0,4.96313 -1.31697,8.98653 -2.94154,8.98653c-1.62457,0 -2.94155,-4.02341 -2.94155,-8.98653c0,-4.96313 1.31697,-8.98652 2.94155,-8.98652c1.62457,0 2.94154,4.0234 2.94154,8.98652z" fill="#000000" stroke-linecap="butt"></path><path d="M246.89143,206.36412c0,0 0.28035,3.02362 -9.97393,2.51054c-2.3866,-0.11941 -5.97897,-4.36921 -5.97897,-4.36921" fill="none" stroke-linecap="round"></path></g></g></svg>