<svg version="1.1" xmlns="http://www.w3.org/2000/svg" xmlns:xlink="http://www.w3.org/1999/xlink" width="71.12093" height="73.26732" viewBox="0,0,71.12093,73.26732"><defs><linearGradient x1="217.33169" y1="178.78486" x2="224.68657" y2="187.07458" gradientUnits="userSpaceOnUse" id="color-1"><stop offset="0" stop-color="#bce6a7"></stop><stop offset="1" stop-color="#b8fc9f"></stop></linearGradient><linearGradient x1="258.35404" y1="162.23738" x2="252.52739" y2="153.15204" gradientUnits="userSpaceOnUse" id="color-2"><stop offset="0" stop-color="#bce6a7"></stop><stop offset="1" stop-color="#b8fc9f"></stop></linearGradient><linearGradient x1="248.49553" y1="170.354" x2="243.82636" y2="180.08499" gradientUnits="userSpaceOnUse" id="color-3"><stop offset="0" stop-color="#bce6a7"></stop><stop offset="1" stop-color="#b8fc9f"></stop></linearGradient><linearGradient x1="244.18188" y1="147.43994" x2="244.18188" y2="198.02241" gradientUnits="userSpaceOnUse" id="color-4"><stop offset="0" stop-color="#bce6a8"></stop><stop offset="1" stop-color="#b8ff9e"></stop></linearGradient><linearGradient x1="226.21537" y1="159.7545" x2="226.21537" y2="170.54769" gradientUnits="userSpaceOnUse" id="color-5"><stop offset="0" stop-color="#bce6a7"></stop><stop offset="1" stop-color="#b8fc9f"></stop></linearGradient><linearGradient x1="240.80185" y1="146.83524" x2="234.9752" y2="155.92058" gradientUnits="userSpaceOnUse" id="color-6"><stop offset="0" stop-color="#bce6a7"></stop><stop offset="1" stop-color="#b8fc9f"></stop></linearGradient><linearGradient x1="268.51782" y1="158.19492" x2="258.46203" y2="154.34507" gradientUnits="userSpaceOnUse" id="color-7"><stop offset="0" stop-color="#bce6a7"></stop><stop offset="1" stop-color="#b8fc9f"></stop></linearGradient></defs><g transform="translate(-200.1238,-142.99471)"><g data-paper-data="{&quot;isPaintingLayer&quot;:true}" fill-rule="nonzero" stroke="#000000" stroke-width="1.28786" stroke-linejoin="miter" stroke-miterlimit="10" stroke-dasharray="" stroke-dashoffset="0" style="mix-blend-mode: normal"><path d="" fill="none" stroke-linecap="butt"></path><path d="" fill="#00a735" stroke-linecap="butt"></path><path d="" fill="#ccf280" stroke-linecap="butt"></path><path d="" fill="#000000" stroke-linecap="butt"></path><path d="" fill="#000000" stroke-linecap="butt"></path><path d="" fill="#000000" stroke-linecap="round"></path><path d="M226.99415,206.16309c-2.67933,-0.21471 -7.97453,-2.56657 -7.97453,-2.56657c0,0 -0.93966,-13.43904 -2.15606,-20.02227c-1.18373,-6.4064 -5.69015,-18.322 -5.69015,-18.322c0,0 7.18799,4.74632 9.42464,6.93181c1.03827,1.01452 3.43801,5.63659 3.43801,5.63659l1.41489,-3.19536l0.77176,5.96466c0,0 3.07759,5.38267 4.19153,7.7378c0.77813,1.64515 1.85391,5.04363 1.85391,5.04363l0.90038,-2.13024l-0.5145,5.96466l2.31527,7.66885c0,0 -5.33859,1.4997 -7.97514,1.28843z" data-paper-data="{&quot;index&quot;:null}" fill="#55b54c" stroke-linecap="round"></path><path d="M223.99017,187.62026l-10.37263,-5.92515l9.36378,-3.63899" fill="url(#color-1)" stroke-linecap="round"></path><path d="M260.64612,157.39317l-6.11748,7.29753l-2.71851,-11.07866" data-paper-data="{&quot;index&quot;:null}" fill="url(#color-2)" stroke-linecap="round"></path><path d="M243.16955,170.94882l9.42324,1.37115l-7.99819,8.13363" data-paper-data="{&quot;index&quot;:null}" fill="url(#color-3)" stroke-linecap="round"></path><path d="M220.18121,185.5464c0,0 2.14067,-17.14392 10.23173,-28.44094c3.1195,-4.35555 8.45347,-7.11654 12.91685,-8.7672c16.04006,-5.93198 24.85276,19.45616 24.85276,19.45616c0,0 -13.3986,-18.09621 -19.45616,-11.64529c-6.05757,6.45091 -2.41427,34.93589 -2.41427,34.93589l-9.79909,6.93739z" fill="url(#color-4)" stroke-linecap="round"></path><path d="M235.25416,183.48743c0,3.3334 -1.04912,6.03567 -2.34326,6.03567c-1.29414,0 -2.34326,-2.70227 -2.34326,-6.03567c0,-3.3334 1.04912,-6.03568 2.34326,-6.03568c1.29414,0 2.34326,2.70227 2.34326,6.03568z" fill="#000000" stroke-linecap="butt"></path><path d="M244.20116,183.13239c0,3.5295 -1.20807,6.39071 -2.6983,6.39071c-1.49023,0 -2.69829,-2.86122 -2.69829,-6.39071c0,-3.5295 1.20807,-6.39071 2.69829,-6.39071c1.49023,0 2.6983,2.86122 2.6983,6.39071z" fill="#000000" stroke-linecap="butt"></path><path d="M230.47342,197.05435l7.45583,-6.39071l7.02978,4.89955l-5.96466,14.48561z" fill="#55b54c" stroke-linecap="round"></path><path d="M241.12462,214.30927c0,0 -8.84146,1.4997 -13.20796,1.28843c-4.43734,-0.21471 -13.20698,-2.56657 -13.20698,-2.56657c0,0 -1.55621,-13.43904 -3.57075,-20.02227c-1.96042,-6.4064 -9.4237,-18.322 -9.4237,-18.322c0,0 11.90433,4.74633 15.60854,6.93182c1.71953,1.01452 5.69383,5.63658 5.69383,5.63658l2.34326,-3.19536l1.27814,5.96466c0,0 5.09693,5.38268 6.94177,7.7378c1.2887,1.64515 3.07034,5.04363 3.07034,5.04363l1.49117,-2.13024l-0.85209,5.96466l3.83443,7.66885z" fill="#55b54c" stroke-linecap="round"></path><path d="M234.00754,212.66975l2.31528,-7.66885l-0.5145,-5.96466l0.90038,2.13024c0,0 1.07578,-3.39848 1.85391,-5.04363c1.11394,-2.35511 4.19153,-7.7378 4.19153,-7.7378l0.77176,-5.96466l1.41489,3.19536c0,0 2.39974,-4.62207 3.43801,-5.63659c2.23666,-2.18549 9.42464,-6.93181 9.42464,-6.93181c0,0 -4.50642,11.9156 -5.69015,18.322c-1.21641,6.58323 -2.15606,20.02227 -2.15606,20.02227c0,0 -5.29522,2.35186 -7.97453,2.56657c-2.63655,0.21128 -7.97514,-1.28843 -7.97514,-1.28843z" data-paper-data="{&quot;index&quot;:null}" fill="#55b54c" stroke-linecap="round"></path><path d="M225.36327,170.54769l-3.69241,-10.7932l9.08901,2.84031" fill="url(#color-5)" stroke-linecap="round"></path><path d="M234.25793,155.46058l2.71851,-11.07866l6.11748,7.29753" fill="url(#color-6)" stroke-linecap="round"></path><path d="M258.73499,153.58153l11.23862,0.54113l-5.55785,7.13143" fill="url(#color-7)" stroke-linecap="round"></path></g></g></svg>