<svg version="1.1" xmlns="http://www.w3.org/2000/svg" xmlns:xlink="http://www.w3.org/1999/xlink" width="67.76221" height="61.88974" viewBox="0,0,67.76221,61.88974"><defs><radialGradient cx="239.82584" cy="180.10906" r="20.06974" gradientUnits="userSpaceOnUse" id="color-1"><stop offset="0" stop-color="#ffffff"></stop><stop offset="1" stop-color="#ffffff" stop-opacity="0"></stop></radialGradient></defs><g transform="translate(-206.11889,-149.05513)"><g data-paper-data="{&quot;isPaintingLayer&quot;:true}" fill-rule="nonzero" stroke-linecap="butt" stroke-linejoin="miter" stroke-miterlimit="10" stroke-dasharray="" stroke-dashoffset="0" style="mix-blend-mode: normal"><path d="M238.72413,203.73464c-10.96435,0 -19.76545,-3.10565 -19.76545,-21.22592c0,-18.12028 8.88836,-32.80966 19.85271,-32.80966c10.96435,0 19.85271,14.68939 19.85271,32.80966c0,18.12027 -8.97562,21.22592 -19.93998,21.22592z" fill="#00ff51" stroke="#000000" stroke-width="1.28786"></path><path d="M238.74758,207.48739c-9.42814,0 -16.99611,-3.10565 -16.99611,-21.22592c0,-18.12028 7.64301,-32.80966 17.07115,-32.80966c9.42814,0 17.07115,14.68939 17.07115,32.80966c0,18.12027 -7.71804,21.22592 -17.14618,21.22592z" fill="#64ff95" stroke="#000000" stroke-width="1.28786"></path><path d="M240.08764,210.30094c-5.88581,0 -10.6572,-1.59689 -10.6572,-3.56674c0,-1.96986 4.77139,-3.56674 10.6572,-3.56674c5.88581,0 10.6572,1.59689 10.6572,3.56674c0,1.96986 -4.77139,3.56674 -10.6572,3.56674z" fill="#ccf280" stroke="#000000" stroke-width="1.28786"></path><path d="M252.06049,203.27096z" fill="none" stroke="#000000" stroke-width="1.28786"></path><path d="M240.27665,204.17144c-1.14306,3.9399 -9.17081,5.07361 -17.9305,2.53221c-8.75968,-2.54139 -14.91038,-12.10557 -14.91038,-12.10557c0,0 8.38676,1.30884 17.14644,3.85023c8.75968,2.54139 16.8375,1.78323 15.69444,5.72312z" fill="#00a735" stroke="#000000" stroke-width="1.28786"></path><path d="M255.41779,198.44889c8.75969,-2.54139 17.14644,-3.85023 17.14644,-3.85023c0,0 -6.15069,9.56417 -14.91038,12.10556c-8.75968,2.54139 -16.78744,1.40768 -17.9305,-2.53221c-1.14306,-3.9399 6.93475,-3.18173 15.69444,-5.72312z" data-paper-data="{&quot;index&quot;:null}" fill="#00a735" stroke="#000000" stroke-width="1.28786"></path><path d="M225.19809,200.1788v-40.13947h29.25549v40.13947z" fill="url(#color-1)" stroke="none" stroke-width="0"></path></g></g></svg>