<svg version="1.1" xmlns="http://www.w3.org/2000/svg" xmlns:xlink="http://www.w3.org/1999/xlink" width="163.42283" height="161.79595" viewBox="0,0,163.42283,161.79595"><g transform="translate(-156.85864,165.3904)"><g data-paper-data="{&quot;isPaintingLayer&quot;:true}" fill-rule="nonzero" stroke="#000000" stroke-width="1" stroke-linejoin="miter" stroke-miterlimit="10" stroke-dasharray="" stroke-dashoffset="0" style="mix-blend-mode: normal"><path d="M171.78858,-4.09445v-12.73688l13.44994,-44.37322h110.08606l13.9488,43.66582v13.44428z" fill="#afafaf" stroke-linecap="butt"></path><path d="M268.661,-147.6666c0,0 23.61394,6.22907 24.38152,19.55156c0.85368,14.81695 -33.39813,17.80195 -33.39813,17.80195l8.21494,-5.75915c0,0 18.40212,-2.6649 17.7225,-12.37412c-0.51421,-7.34613 -17.14294,-14.94717 -17.14294,-14.94717z" data-paper-data="{&quot;index&quot;:null}" fill="#f1d400" stroke-linecap="butt"></path><path d="M209.57788,-144.02882c0,0 -16.62873,7.60104 -17.14294,14.94717c-0.67962,9.70922 17.7225,12.37412 17.7225,12.37412l8.21494,5.75915c0,0 -34.25181,-2.985 -33.39812,-17.80195c0.76758,-13.3225 24.38152,-19.55156 24.38152,-19.55156z" data-paper-data="{&quot;index&quot;:null}" fill="#f1d400" stroke-linecap="butt"></path><path d="M207.5953,-60.72091l7.80307,-7.80307h19.63355v-32.21915c0,0 -8.15873,-3.47403 -21.41144,-12.66164c-12.06468,-8.36399 -9.29744,-37.74348 -9.29744,-37.74348l71.26108,0.10133c0,0 2.76725,29.37949 -9.29743,37.74348c-13.25272,9.18761 -21.41145,12.66164 -21.41145,12.66164v32.21915h19.63355l7.80307,7.80307z" data-paper-data="{&quot;index&quot;:null}" fill="#f1d400" stroke-linecap="round"></path><path d="M229.03313,-94.66062l-23.18568,8.69463l2.89821,-9.93672l-9.93672,2.48418l-5.51723,-19.68818l30.84298,13.08164z" fill="#f1d400" stroke-linecap="round"></path><path d="M256.97841,-99.81754l30.84298,-13.08164l-5.51723,19.68818l-9.93672,-2.48418l2.89821,9.93672l-23.18568,-8.69463z" data-paper-data="{&quot;index&quot;:null}" fill="#f1d400" stroke-linecap="round"></path><path d="M288.67646,-151.34352l30.84298,-13.08164l-5.51723,19.68818l-9.93672,-2.48418l2.89821,9.93672l-23.18568,-8.69463z" data-paper-data="{&quot;index&quot;:null}" fill="#f1d400" stroke-linecap="round"></path><path d="M193.36209,-146.07799l-23.18568,8.69463l2.89821,-9.93672l-9.93672,2.48418l-5.51723,-19.68818l30.84298,13.08164z" data-paper-data="{&quot;index&quot;:null}" fill="#f1d400" stroke-linecap="round"></path></g></g></svg>