<svg version="1.1" xmlns="http://www.w3.org/2000/svg" xmlns:xlink="http://www.w3.org/1999/xlink" width="804" height="537" viewBox="0,0,804,537"><g transform="translate(34.97656,58.25147)"><g stroke-miterlimit="10"><path d="M-34.97656,478.74854v-537h804v537z" fill-opacity="0.42745" fill="#000000" stroke="none" stroke-width="0" stroke-linecap="butt"/><path d="M543.06015,227.02403l-7.28823,-45.03741l14.77174,-2.39046l7.28824,45.03743z" fill="#f8f8f8" stroke="#000000" stroke-width="2.5" stroke-linecap="butt"/><path d="M496.5371,224.45145l7.28823,-45.03742l14.77174,2.39046l-7.28824,45.03742z" fill="#f8f8f8" stroke="#000000" stroke-width="2.5" stroke-linecap="butt"/><path d="M520.71293,187.19862v-20.52176h11.25791v20.52176z" fill="#1c9600" stroke="#000000" stroke-width="2.5" stroke-linecap="butt"/><path d="M507.04263,234.53501v-54.92278h40.38157v54.92279z" fill="#f8f8f8" stroke="#000000" stroke-width="2.5" stroke-linecap="butt"/><path d="M555.62628,146.27837c0,15.87244 -12.62484,28.7396 -28.19835,28.7396c-15.57351,0 -28.19834,-12.86715 -28.19834,-28.7396c0,-5.60738 1.57564,-10.83968 4.3003,-15.26209c4.98785,-8.09582 -12.66611,-38.32281 20.14804,-36.2275c41.67643,-1.56816 22.50992,28.04062 27.52008,36.02173c2.80323,4.4655 4.42827,9.77326 4.42827,15.46786z" fill="#1c9600" stroke="#000000" stroke-width="2.5" stroke-linecap="butt"/><path d="M523.09079,152.2504c0,4.3755 -0.79864,7.92255 -1.78381,7.92255c-0.98517,0 -1.78381,-3.54705 -1.78381,-7.92255c0,-4.3755 0.79864,-7.92256 1.78381,-7.92256c0.98517,0 1.78381,3.54706 1.78381,7.92256z" fill="#000000" stroke="#000000" stroke-width="2.5" stroke-linecap="butt"/><path d="M533.32016,150.67398c0,4.3405 -0.9608,7.85917 -2.146,7.85917c-1.1852,0 -2.146,-3.51867 -2.146,-7.85917c0,-4.3405 0.9608,-7.85917 2.146,-7.85917c1.1852,0 2.146,3.51867 2.146,7.85917z" fill="#000000" stroke="#000000" stroke-width="2.5" stroke-linecap="butt"/><path d="M223.1685,348.91829v-125.38367h391.67136v125.38367z" fill="#ffdc5f" stroke="#000000" stroke-width="2.5" stroke-linecap="butt"/><text transform="translate(461.5012,251.25641) scale(0.5,0.5)" font-size="40" xml:space="preserve" fill="#000000" stroke="none" stroke-width="1" stroke-linecap="butt" font-family="Sans Serif" font-weight="normal" text-anchor="start"><tspan x="0" dy="0">Dr. Zomboss</tspan></text><text transform="translate(232.95634,286.79666) scale(0.604,0.604)" font-size="40" xml:space="preserve" fill="#000000" stroke="none" stroke-width="1" stroke-linecap="butt" font-family="Sans Serif" font-weight="normal" text-anchor="start"><tspan x="0" dy="0">I WILL NOT HAVE ANY MERCY</tspan><tspan x="0" dy="48px">ON YOU THIS TIME</tspan></text><path d="M555.26419,336.72728v-31.49591l33.54755,17.69586z" fill="#bdae78" stroke="#000000" stroke-width="2.5" stroke-linecap="butt"/><path d="M523.61385,145.79209l-12.17411,-8.4489" fill="none" stroke="#000000" stroke-width="2.5" stroke-linecap="round"/><path d="M541.4373,134.91861l-15.24888,10.59862" fill="none" stroke="#000000" stroke-width="2.5" stroke-linecap="round"/><path d="M516.28738,180.30748h19.79855l-8.25,23.09579z" fill="#ff0000" stroke="#000000" stroke-width="2.5" stroke-linecap="butt"/><path d="M545.90255,164.17121l-14.28877,3.9691" fill="none" stroke="#000000" stroke-width="2.5" stroke-linecap="round"/></g></g></svg>