<svg version="1.1" xmlns="http://www.w3.org/2000/svg" xmlns:xlink="http://www.w3.org/1999/xlink" width="239.43834" height="68.34783" viewBox="0,0,239.43834,68.34783"><g transform="translate(-120.4264,-145.8261)"><g data-paper-data="{&quot;isPaintingLayer&quot;:true}" fill-rule="nonzero" stroke-linejoin="miter" stroke-miterlimit="10" stroke-dasharray="" stroke-dashoffset="0" style="mix-blend-mode: normal"><path d="M120.9264,213.67393v-67.34783h238.1472l-32,67.34783z" fill="#a2a2a2" stroke="#000000" stroke-width="1" stroke-linecap="butt"></path><text transform="translate(189.5,166.69922) scale(0.32085,0.32085)" font-size="40" xml:space="preserve" fill="#000000" fill-rule="nonzero" stroke="none" stroke-width="1" stroke-linecap="butt" stroke-linejoin="miter" stroke-miterlimit="10" stroke-dasharray="" stroke-dashoffset="0" font-family="Sans Serif" font-weight="normal" text-anchor="start" style="mix-blend-mode: normal"><tspan x="0" dy="0">Playing...</tspan></text><g data-paper-data="{&quot;index&quot;:null}"><path d="" data-paper-data="{&quot;index&quot;:null}" fill="none" stroke="#000000" stroke-width="1.28786" stroke-linecap="butt"></path><path d="" data-paper-data="{&quot;index&quot;:null}" fill="#00a735" stroke="#000000" stroke-width="1.28786" stroke-linecap="butt"></path><path d="" data-paper-data="{&quot;index&quot;:null}" fill="#ccf280" stroke="#000000" stroke-width="1.28786" stroke-linecap="butt"></path><path d="" data-paper-data="{&quot;index&quot;:null}" fill="#000000" stroke="#000000" stroke-width="1.28786" stroke-linecap="butt"></path><path d="" data-paper-data="{&quot;index&quot;:null}" fill="#000000" stroke="#000000" stroke-width="1.28786" stroke-linecap="butt"></path><path d="" data-paper-data="{&quot;index&quot;:null}" fill="#000000" stroke="#000000" stroke-width="1.28786" stroke-linecap="round"></path><g><path d="M303.40442,172.80938c0.19301,-0.7076 -4.42867,-0.34106 -4.42867,-0.34106c0,0 1.10331,-1.13447 2.68064,-1.78884c0.54441,-0.22585 6.50685,-1.20896 6.50685,-1.20896c0,0 -2.3066,-0.31078 -3.0862,-0.61089c-0.58223,-0.22413 -1.88963,-0.37928 -1.88963,-0.37928c0,0 1.63645,-1.08582 3.31902,-1.26381c1.80286,-0.19073 5.04996,-2.15452 8.24606,-2.16365c3.67902,-0.0105 7.27992,1.96681 8.35831,2.26096c0.39241,0.10703 2.46143,2.26544 6.99915,4.82367c3.84027,2.165 5.80635,5.1926 5.80635,5.1926c0,0 -1.01022,-0.83427 -1.77179,-1.04075c-0.9807,-0.26589 -1.7416,0.10275 -1.42865,0.35549c3.03341,2.44985 3.97386,5.1601 3.97386,5.1601c0,0 -2.9179,-2.30756 -4.0196,-2.99563c-0.821,-0.51276 -1.99974,-0.76376 -1.99974,-0.76376c0,0 2.33915,1.92835 3.22563,3.04568c1.00376,1.26517 2.48893,4.15705 2.48893,4.15705c0,0 -2.85923,-2.26632 -3.85869,-2.93063c-0.5972,-0.39695 -1.58059,-0.68468 -1.58059,-0.68468l2.83507,4.3018c0,0 -4.2008,-2.14787 -7.39526,-2.47879c-1.09267,-0.11319 -2.34888,0.52 -2.89763,0.8008c-1.50438,0.76981 -4.92134,-1.80186 -4.92134,-1.80186c0,0 -2.54051,3.45407 -4.84327,2.82597c-1.43177,-0.39054 -3.22601,-3.90915 -3.22601,-3.90915c0,0 -3.46674,1.40066 -5.13445,-0.27569c-0.65947,-0.66287 0.457,-4.23489 -1.25293,-5.42909c-0.8358,-0.58373 -5.26094,0.65225 -5.26094,0.65225c0,0 4.40833,-2.9701 4.55557,-3.50988z" data-paper-data="{&quot;index&quot;:null}" fill="#acff26" stroke="#000000" stroke-width="1.28786" stroke-linecap="butt"></path><path d="M306.20258,166.60715c-0.29251,-2.48217 1.69576,-4.75663 4.44095,-5.08014c2.74518,-0.32351 5.20772,1.42644 5.50024,3.90861c0.29251,2.48217 -1.61091,3.22073 -4.3561,3.54425c-2.74518,0.32351 -5.29258,0.10944 -5.58509,-2.37273z" data-paper-data="{&quot;index&quot;:null}" fill="#4e3605" stroke="#000000" stroke-width="1.28786" stroke-linecap="butt"></path><path d="M319.77939,164.9738c1.17242,0.31978 3.30886,-3.39964 3.30886,-3.39964c0,0 0.54065,2.52433 0.2469,3.60127c-0.30999,1.13648 -2.06075,3.04865 -2.06075,3.04865c0,0 -2.44059,-0.06681 -3.46149,-1.72684c-0.45725,-0.74351 -0.136,-3.39153 -0.03558,-3.75967c0.26982,-0.98922 -1.91103,-3.13329 -1.91103,-3.13329c0,0 2.91035,0.55432 3.87737,2.01304c0.74424,1.12268 -0.50005,3.21033 0.03575,3.35648z" data-paper-data="{&quot;index&quot;:null}" fill="#acff26" stroke="#000000" stroke-width="1.28786" stroke-linecap="butt"></path><path d="M307.59594,170.13902l2.16201,-2.6189l2.73256,0.18854l-0.51815,-2.59124l5.83248,3.92942" data-paper-data="{&quot;index&quot;:null}" fill="#acff26" stroke="#000000" stroke-width="1.28786" stroke-linecap="round"></path><path d="M332.25092,167.05489c0,0 -4.94098,-1.56609 -5.20324,-1.46839c-0.41325,0.15396 2.33678,-2.67288 2.23285,-5.28902c-0.11953,-3.00838 -0.75851,-3.32603 -0.75851,-3.32603c0,0 -1.87693,-3.25139 0.21723,-3.72898c1.78171,-0.40633 3.34919,2.51339 3.34919,2.51339c0,0 2.20182,2.75346 2.2663,5.275c0.06095,2.38325 -2.1038,6.02402 -2.1038,6.02402z" data-paper-data="{&quot;index&quot;:null}" fill="#acff26" stroke="#000000" stroke-width="1.28786" stroke-linecap="butt"></path><path d="M322.65816,184.00902c0,0 -7.24291,1.82712 -8.93796,1.1936c-1.74555,-0.65239 -3.1793,-3.51787 -3.1793,-3.51787c0,0 -2.87437,0.88172 -4.2159,0.21465c-1.34153,-0.66707 -1.97407,-3.29259 -1.97407,-3.29259l3.15225,-7.26985l3.7926,-2.29633l3.45053,2.91998l3.93702,-1.20692l3.98532,3.51082l-0.0105,9.74452z" data-paper-data="{&quot;index&quot;:null}" fill="#f6fab0" stroke="#000000" stroke-width="1.28786" stroke-linecap="round"></path><path d="M329.94166,164.61663c3.31963,0.90547 5.3553,4.04235 4.54682,7.0064c-0.80848,2.96406 -4.15497,4.63288 -7.47459,3.72742c-1.08082,-0.29481 -0.8948,-1.29724 -1.64956,-1.98215c-1.56342,-1.41872 -3.44253,-3.02525 -2.89727,-5.02426c0.80848,-2.96405 4.15498,-4.63288 7.4746,-3.72741z" data-paper-data="{&quot;index&quot;:null}" fill="#4e3605" stroke="#000000" stroke-width="1.28786" stroke-linecap="butt"></path><path d="M320.15849,170.57971l5.62534,-1.02688l-0.85753,2.32737l5.60639,2.30873l-2.72324,3.04342" data-paper-data="{&quot;index&quot;:null}" fill="#acff26" stroke="#000000" stroke-width="1.28786" stroke-linecap="round"></path><path d="M329.27132,158.80543l-0.62051,-1.73257c0,0 -1.87693,-3.25139 0.21723,-3.72898c1.78171,-0.40633 3.34919,2.51339 3.34919,2.51339l1.50421,2.46213z" data-paper-data="{&quot;index&quot;:null}" fill="#4e3605" stroke="#000000" stroke-width="1.28786" stroke-linecap="butt"></path><path d="M304.53994,181.92098c-2.38874,0.18394 -4.65485,-1.60372 -4.75561,-2.91228c-0.09392,-1.21979 2.05281,-3.11129 4.17595,-3.27477c2.12314,-0.16348 4.37365,1.30013 4.47441,2.60869c0.10076,1.30857 -1.50602,3.39443 -3.89475,3.57837z" data-paper-data="{&quot;index&quot;:null}" fill="#f6fab0" stroke="#000000" stroke-width="1.28786" stroke-linecap="butt"></path><path d="M305.96769,178.51315l0.93599,2.48321" data-paper-data="{&quot;index&quot;:null}" fill="none" stroke="#000000" stroke-width="1.28786" stroke-linecap="round"></path><path d="M304.42054,179.39717l0.20143,2.35968" data-paper-data="{&quot;index&quot;:null}" fill="none" stroke="#000000" stroke-width="1.28786" stroke-linecap="round"></path><path d="M302.80844,179.11109l-1.04664,1.8656" data-paper-data="{&quot;index&quot;:null}" fill="none" stroke="#000000" stroke-width="1.28786" stroke-linecap="round"></path><path d="M310.72595,181.34752l-0.17545,-1.89165l1.89161,0.66961z" data-paper-data="{&quot;index&quot;:null}" fill="#000000" stroke="#000000" stroke-width="1.28786" stroke-linecap="round"></path><g stroke="none" stroke-width="1" stroke-linecap="butt"><path d="M294.52332,193.27661c0.15695,-0.14086 0.39003,-0.19954 0.62704,-0.23943c0.1521,-0.25764 0.29677,-0.50389 0.45281,-0.74272c0.00607,-0.15831 -0.10068,-0.29297 -0.07581,-0.45523c0.0681,-0.37743 0.23856,-0.68797 0.58748,-0.84946c0.25886,-0.12297 0.44204,-0.27915 0.57534,-0.53283c0.09615,-0.19683 0.21504,-0.3788 0.33393,-0.56076c-0.02017,-0.14299 -0.05519,-0.26325 -0.05261,-0.39138c0.01822,-0.47493 0.2372,-0.83493 0.66483,-1.04236c0.18757,-0.0884 0.29206,-0.19863 0.38472,-0.36529c0.09615,-0.19683 0.20367,-0.38623 0.30375,-0.56424c-0.00789,-0.03761 0.00698,-0.06035 0.00304,-0.07916c-0.15541,-0.50725 0.08586,-0.90135 0.48287,-1.16125c0.1797,-0.12601 0.32179,-0.24413 0.40656,-0.44839c0.04064,-0.08704 0.09266,-0.16665 0.14467,-0.24626c0.10752,-0.1894 0.16605,-0.37834 0.13756,-0.60793c-0.0605,-0.429 0.15499,-0.7588 0.52623,-0.95441c0.14997,-0.08052 0.25839,-0.17195 0.33225,-0.33467c0.1145,-0.24976 0.25174,-0.48463 0.38505,-0.73833c-0.1536,-0.31133 -0.14145,-0.62795 0.03294,-0.9197c0.18183,-0.30313 0.36501,-0.45931 0.72228,-0.53421c0.14467,-0.24627 0.3042,-0.51526 0.43751,-0.76896c-0.01925,-0.04504 -0.02714,-0.08265 -0.02365,-0.11282c-0.14753,-0.46964 0.0443,-0.91227 0.49862,-1.08604c0.19153,-0.0696 0.31876,-0.16497 0.41142,-0.33162c0.04064,-0.08704 0.10403,-0.15922 0.17485,-0.24277c0.10054,-0.12904 0.14072,-0.26507 0.14286,-0.44218c-0.00803,-0.45961 0.31286,-0.8017 0.77203,-0.85871c0.1618,-0.02411 0.2781,-0.07793 0.39397,-0.18074c0.36986,-0.34254 0.77036,-0.63261 1.22423,-0.85537c0.24004,-0.11904 0.50679,-0.2044 0.77004,-0.25958c0.49632,-0.11386 0.94198,-0.00118 1.36627,0.24359c0.4584,0.26706 0.72968,0.67149 0.95984,1.11399c0.19561,0.37123 0.33479,0.75427 0.44776,1.15263c0.0429,0.15786 0.12342,0.30783 0.2,0.43901c0.06126,0.10494 0.12646,0.22869 0.30313,0.18183c0.05641,-0.01182 0.11721,0.04413 0.17408,0.08128c0.22746,0.14862 0.45492,0.29723 0.68238,0.44585c0.10235,0.06688 0.19332,0.12632 0.2323,0.26537c0.01576,0.07522 0.10281,0.11587 0.15968,0.15301c0.39806,0.26007 0.78866,0.53153 1.18672,0.7916c0.25021,0.16347 0.50435,0.34576 0.73226,0.54335c0.03806,0.0411 0.08355,0.07083 0.07658,0.13118c-0.0144,0.07173 -0.07475,0.06476 -0.12722,0.09538c-0.23262,0.10765 -0.47313,0.1777 -0.71757,0.22894c-0.18803,0.03941 -0.38744,0.07141 -0.5676,0.14844c-0.15392,0.06171 -0.31618,0.03684 -0.48238,-0.00684c-0.23049,-0.06945 -0.43126,-0.18441 -0.63597,-0.31816c-0.18197,-0.11889 -0.36393,-0.23778 -0.53452,-0.34924c-0.1019,-0.0179 -0.17272,0.06565 -0.2593,0.07399c-0.11283,0.02365 -0.21079,0.02456 -0.28341,-0.08781c-0.042,-0.0599 -0.1251,-0.08174 -0.18197,-0.11889c-0.16665,-0.09266 -0.32192,-0.17789 -0.48114,-0.28191c-0.11374,-0.0743 -0.2314,-0.16741 -0.27037,-0.30648c-0.01926,-0.04503 -0.04989,-0.09751 -0.08795,-0.1386c-0.40683,-0.39565 -0.71268,-0.87136 -0.99973,-1.351c-0.03063,-0.05248 -0.07263,-0.11236 -0.10326,-0.16484c-0.09189,-0.15741 -0.23974,-0.25401 -0.36878,-0.35455c-0.14042,-0.10798 -0.29873,-0.11404 -0.44476,-0.01472c-0.20594,0.14133 -0.41187,0.28265 -0.56442,0.4913c-0.41658,0.5879 -0.79509,1.21688 -1.14343,1.84937c-0.45585,0.82187 -0.82862,1.66558 -1.23899,2.51719c-0.20321,0.4352 -0.38762,0.86646 -0.59084,1.30166c-0.26963,0.58653 -0.53533,1.19188 -0.79359,1.78585c-0.2067,0.46537 -0.41341,0.93075 -0.6201,1.39613c-0.23642,0.51087 -0.48422,1.0143 -0.72064,1.52517c-0.2255,0.46932 -0.45101,0.93864 -0.66514,1.4154c-0.22899,0.49949 -0.47679,1.00293 -0.70578,1.50243c-0.22899,0.49949 -0.45055,0.98762 -0.70229,1.47225c-0.22944,0.45052 -0.39066,0.94562 -0.60873,1.40356c-0.35138,0.71163 -0.70274,1.42327 -1.09961,2.10518c-0.20019,0.35605 -0.41916,0.71603 -0.60797,1.07951c-0.33348,0.60974 -0.75793,1.16004 -1.20514,1.69546c-0.01485,0.02274 -0.02229,0.03413 -0.04852,0.04943c-0.37031,0.29356 -0.68725,0.65446 -1.08031,0.93316c-0.53166,0.36665 -1.12109,0.59818 -1.76436,0.71341c-0.48145,0.09112 -0.94896,0.06153 -1.42087,-0.03584c-0.19637,-0.04717 -0.40367,-0.05278 -0.61141,-0.10738c-0.20774,-0.0546 -0.41943,-0.128 -0.61976,-0.19397c-0.20031,-0.06597 -0.39713,-0.16212 -0.60883,-0.23552c-0.41595,-0.15817 -0.76501,-0.41871 -1.12894,-0.65649c-0.73181,-0.49437 -1.28437,-1.16373 -1.71712,-1.9171c-0.06125,-0.10493 -0.10021,-0.24399 -0.13525,-0.36425c-0.17118,-0.58245 -0.18799,-1.17764 -0.08804,-1.77768c0.09646,-0.56986 0.24584,-1.12137 0.46696,-1.65848c0.19882,-0.50298 0.4278,-1.00249 0.67211,-1.47574c0.34834,-0.63248 0.69274,-1.28377 0.97678,-1.94203c0.17349,-0.38971 0.30543,-0.79035 0.426,-1.1984c0.11359,-0.34771 0.10647,-0.70938 0.08055,-1.06709c-0.22048,-0.20896 -0.43702,-0.39913 -0.58273,-0.67284c-0.28356,-0.50983 -0.28459,-1.0298 -0.06348,-1.5669c0.16212,-0.39714 0.44236,-0.65219 0.79827,-0.87403c0.30344,-0.19121 0.64146,-0.31114 0.97552,-0.44988c0.65327,-0.25473 1.31489,-0.42289 2.02684,-0.44455c0.77974,-0.02606 1.55599,-0.02195 2.34103,0.11775c0.55105,0.10041 1.08376,0.25373 1.58326,0.48272c0.59791,0.27707 1.12152,0.66786 1.52577,1.19164c0.06475,0.07476 0.11069,0.15346 0.1304,0.24748c0.06398,0.39882 0.07898,0.7981 -0.09451,1.1878c-0.12193,0.26113 -0.27054,0.48857 -0.51014,0.65659c-0.22474,0.14527 -0.35455,0.36878 -0.47299,0.59972c-0.25523,0.51481 -0.5332,1.01475 -0.87547,1.48893c-0.32741,0.45142 -0.62812,0.9365 -0.95553,1.38793c-0.26402,0.37925 -0.55078,0.74363 -0.82223,1.13425c-0.23429,0.33376 -0.47602,0.67888 -0.71032,1.01263c-0.08174,0.12509 -0.18623,0.23534 -0.27934,0.35301c-0.29071,0.34558 -0.5285,0.70951 -0.60706,1.17747c-0.02836,0.19244 0.02501,0.25977 0.22094,0.25795c0.15832,0.00607 0.26675,-0.08536 0.37911,-0.158c0.04064,-0.08704 0.0135,-0.16969 0.00516,-0.25628c-0.0194,-0.46705 0.18473,-0.80429 0.5743,-1.05282c0.15741,-0.09189 0.31876,-0.16497 0.4845,-0.17028c0.12419,-0.01622 0.19153,-0.0696 0.26235,-0.15315c0.14164,-0.1671 0.2719,-0.34163 0.39823,-0.53497c-0.0473,-0.22564 -0.08718,-0.46266 0.01246,-0.68967c0.10358,-0.2082 0.18835,-0.41246 0.37154,-0.56864zM308.89653,180.46802c-0.12904,-0.10054 -0.19818,-0.24309 -0.30099,-0.35894c-0.01926,-0.04503 -0.01971,-0.09402 0.02533,-0.11327c0.04503,-0.01926 0.08658,-0.00834 0.12071,0.01395c0.11373,0.07431 0.16407,0.22079 0.3154,0.28722c0.1609,-0.12206 0.20063,-0.30706 0.25174,-0.48463c-0.34209,-0.32088 -0.5154,-0.72623 -0.64368,-1.15082c-0.04291,-0.15786 -0.09325,-0.30435 -0.15497,-0.45826c-0.25033,-0.58549 -0.57149,-1.08744 -1.13225,-1.42137c-0.21214,-0.12238 -0.41245,-0.18836 -0.64598,-0.17865c-0.12813,-0.00258 -0.25977,0.02501 -0.38395,0.04124c-0.53787,0.10294 -0.97991,0.38209 -1.41801,0.68005c-0.20593,0.14132 -0.38912,0.29751 -0.53425,0.49479c0.16588,0.4167 0.12311,0.68087 -0.15273,1.0037c-0.26098,0.30009 -0.57367,0.30676 -0.90651,0.17041c-0.13026,0.17454 -0.26054,0.34907 -0.37549,0.54984c0.19121,0.30344 0.27703,0.61916 0.08033,0.94502c-0.1932,0.29568 -0.45509,0.49782 -0.83252,0.42972c-0.14862,0.22746 -0.2898,0.44354 -0.38943,0.67054c0.13085,0.29646 0.25777,0.57412 0.10612,0.88073c-0.18486,0.38228 -0.49923,0.61503 -0.92821,0.67553c-0.16348,0.2502 -0.2854,0.51132 -0.39596,0.77987c0.32374,0.37381 0.33828,0.72411 0.06289,1.09591c-0.04458,0.06823 -0.10798,0.14042 -0.15256,0.20865c-0.12284,0.16317 -0.30299,0.2402 -0.50633,0.25337c-0.06778,0.00439 -0.15483,-0.03625 -0.24096,0.02107c-0.14118,0.21608 -0.27099,0.43959 -0.35531,0.69283c0.03109,0.10145 0.11069,0.15346 0.16407,0.22079c0.16755,0.19061 0.24109,0.40095 0.19832,0.6651c-0.03185,0.22261 -0.14332,0.39321 -0.29284,0.5227c-0.23171,0.20561 -0.49057,0.32859 -0.80855,0.1695c-0.02275,-0.01486 -0.06035,-0.00698 -0.09796,0.00091c-0.12981,0.22351 -0.271,0.4396 -0.35926,0.67403c0.3395,0.44902 0.39211,0.8404 0.18799,1.17764c-0.27099,0.43959 -0.57883,0.56302 -1.14126,0.45518c-0.12981,0.22351 -0.25962,0.44703 -0.37806,0.67797c-0.03715,0.05686 -0.08568,0.1063 -0.08128,0.17408c0.01576,0.07522 0.08006,0.10099 0.11812,0.14209c0.28568,0.33271 0.33616,0.90121 -0.07086,1.30062c-0.29115,0.2966 -0.56972,0.32556 -0.94108,0.09915c-0.17135,0.2126 -0.30117,0.43611 -0.43841,0.671c0.06915,0.14255 0.19424,0.22428 0.24065,0.35197c0.19697,0.51815 -0.15396,1.27878 -0.77797,1.43904c-0.13906,0.03897 -0.28205,0.05913 -0.40715,-0.02261c-0.05686,-0.03715 -0.11722,-0.04412 -0.18151,-0.06991c-0.19455,0.14875 -0.30951,0.34952 -0.43583,0.54285c0.19288,0.07735 0.2922,0.22338 0.32419,0.42279c0.01228,0.10539 0.00577,0.21473 -0.01214,0.31662c-0.10434,0.53226 -0.44055,0.84811 -0.95522,1.0149c-0.20289,0.06216 -0.41019,0.05655 -0.56637,-0.12665c-0.01532,-0.02624 -0.05687,-0.03715 -0.08704,-0.04064c-0.22474,0.14526 -0.40884,0.20349 -0.5632,0.21622c-0.2825,0.01015 -0.51391,-0.15727 -0.58047,-0.42795c-0.02365,-0.11282 -0.0097,-0.23353 0.03444,-0.35074c0.10267,-0.30616 0.27358,-0.56773 0.45586,-0.82188c0.39777,-0.58395 0.81829,-1.15304 1.22743,-1.72956c0.45024,-0.61458 0.93854,-1.18808 1.34329,-1.83238c0.32301,-0.51921 0.66877,-1.02355 0.98436,-1.53138c0.09661,-0.14785 0.17046,-0.31055 0.23597,-0.55985c-0.0787,0.04595 -0.12373,0.0652 -0.16135,0.07309c-0.09008,0.03851 -0.18409,0.05822 -0.28205,0.05913c-0.04898,0.00046 -0.0831,-0.02184 -0.10979,-0.0555c-0.03062,-0.05247 -0.00485,-0.11676 0.04763,-0.1474c0.04109,-0.03806 0.09751,-0.04988 0.14255,-0.06914c0.11631,-0.05382 0.24399,-0.10023 0.36029,-0.15405c0.41626,-0.21486 0.8019,-0.48219 1.02391,-0.92133c0.01485,-0.02274 0.06338,-0.07218 0.00652,-0.10934c-0.07173,-0.0144 -0.09008,0.03852 -0.13118,0.07658c-0.2575,0.26991 -0.55699,0.47992 -0.90243,0.61123c-0.36424,0.13525 -0.73244,0.2517 -1.12336,0.35329c-0.88331,0.23425 -1.7833,0.29533 -2.67722,0.1981c-0.39229,-0.04535 -0.77716,-0.10208 -1.16201,-0.15881c-0.48677,-0.07463 -0.96261,-0.19079 -1.40524,-0.38263c-0.19288,-0.07734 -0.37834,-0.16605 -0.55636,-0.26615c-0.09842,-0.04808 -0.18939,-0.10753 -0.26551,-0.18971c-0.21304,-0.22034 -0.44839,-0.40656 -0.58668,-0.69165c-0.01532,-0.02624 -0.02714,-0.08264 -0.08355,-0.07082c0.02727,0.50466 0.29067,0.87149 0.67779,1.17312c0.19728,0.14512 0.41336,0.28631 0.63293,0.39732c0.08705,0.04064 0.17408,0.08128 0.20911,0.20154c-0.23959,0.16801 -0.43338,-0.00729 -0.64856,-0.05052c-0.04458,0.06823 -0.02139,0.13208 -0.02837,0.19243c-0.01169,0.3656 -0.08768,0.70543 -0.20126,1.05314c-0.23416,0.75577 -0.58553,1.4674 -0.94827,2.17161c-0.31118,0.57562 -0.60357,1.14729 -0.86926,1.75263c-0.15514,0.33679 -0.26873,0.6845 -0.39369,1.02477c-0.22763,0.64643 -0.26283,1.32123 -0.23026,1.99163c0.02637,0.40671 0.12796,0.79763 0.36465,1.1308c0.18333,0.26584 0.38546,0.52774 0.56878,0.79356c0.08006,0.10099 0.16755,0.19061 0.26642,0.28767c0.3154,0.28722 0.66796,0.51757 1.02052,0.74793c0.29569,0.1932 0.62111,0.34091 0.95396,0.47725c0.51435,0.20624 1.05449,0.3482 1.59024,0.42237c0.77715,0.10208 1.52276,0.05374 2.21623,-0.33703c0.41232,-0.23367 0.83207,-0.4787 1.16433,-0.81335c0.20154,-0.20911 0.40308,-0.41822 0.60462,-0.62732c0.65663,-0.70693 1.14266,-1.52531 1.61733,-2.35113c0.27449,-0.46977 0.50742,-0.95046 0.75916,-1.4351c0.31816,-0.63596 0.60221,-1.29423 0.89762,-1.94507c0.22505,-0.5183 0.45011,-1.0366 0.68653,-1.54747c0.21065,-0.44658 0.42523,-0.87434 0.63587,-1.32092c0.281,-0.5791 0.53184,-1.16169 0.82422,-1.73337c0.35137,-0.71164 0.67257,-1.42677 1.0012,-2.15327c0.10706,-0.23838 0.20275,-0.48418 0.30982,-0.72255c0.45057,-0.98762 0.88974,-1.98267 1.3403,-2.97029c0.31772,-0.68495 0.63543,-1.3699 0.9833,-2.05136c0.14073,-0.26506 0.30026,-0.53406 0.44099,-0.79912c0.29588,-0.60186 0.67877,-1.16305 1.05426,-1.7129c0.24172,-0.34513 0.57095,-0.60063 0.97673,-0.72496c0.12769,-0.0464 0.24839,-0.03244 0.36955,0.0305c0.37091,0.17743 0.61854,0.46905 0.81019,0.82147c0.1991,0.34104 0.42047,0.64796 0.67204,0.95839c0.10674,0.13466 0.21699,0.23915 0.39456,0.29025c-0.01972,-0.09402 -0.07309,-0.16135 -0.1339,-0.21732c-0.0875,-0.08962 -0.16362,-0.17181 -0.22487,-0.27675c-0.06869,-0.09357 -0.12251,-0.20987 -0.08582,-0.31572c0.0599,-0.042 0.10145,-0.03109 0.12814,0.00258c0.05338,0.06732 0.10674,0.13466 0.16755,0.19061c0.07309,0.16135 0.21745,0.28813 0.3242,0.42278c0.02669,0.03367 0.08309,0.02185 0.11631,-0.05382zM295.74203,188.97735c0.06778,-0.00439 0.10144,-0.03108 0.16878,-0.08446c-0.1072,-0.18365 -0.21789,-0.3371 -0.39591,-0.43719c-0.04549,-0.02973 -0.09098,-0.05944 -0.13647,-0.08917c-0.03411,-0.0223 -0.05337,-0.06733 -0.03502,-0.12025c0.01092,-0.04155 0.05595,-0.0608 0.10493,-0.06125c0.06779,-0.00439 0.13209,0.02138 0.17758,0.05111c0.20076,0.11495 0.34557,0.2907 0.47552,0.48921c0.00394,0.01881 0.03411,0.0223 0.05686,0.03715c0.02624,-0.01532 0.05247,-0.03062 0.07476,-0.06475c0.02229,-0.03413 0.07871,-0.04594 0.06294,-0.12116c-0.06125,-0.10493 -0.15664,-0.23216 -0.26687,-0.33665c-0.17104,-0.16045 -0.34557,-0.29071 -0.53891,-0.41704c-0.06824,-0.04459 -0.11767,-0.09311 -0.09584,-0.17621c0.04109,-0.03806 0.0975,-0.04989 0.15042,-0.03154c0.20031,0.06597 0.3709,0.17743 0.51921,0.32301c0.133,0.11934 0.25854,0.25006 0.39153,0.36941c0.07522,-0.01576 0.12769,-0.0464 0.10448,-0.11023c-0.00789,-0.03761 -0.03457,-0.07128 -0.06125,-0.10493c-0.25945,-0.34803 -0.54861,-0.65056 -0.95319,-0.8013c-0.06429,-0.02578 -0.15483,-0.03625 -0.15573,-0.13421c0.01835,-0.05292 0.05596,-0.06081 0.10099,-0.08006c0.10888,-0.04246 0.20729,0.00562 0.30571,0.0537c0.29523,0.14422 0.55333,0.3453 0.76289,0.59582c0.05338,0.06733 0.07309,0.16135 0.16361,0.17182c0.05248,-0.03063 0.05202,-0.07961 0.04413,-0.11721c-0.01319,-0.20335 -0.10508,-0.36075 -0.23807,-0.4801c-0.15968,-0.15301 -0.30797,-0.29858 -0.4825,-0.42885c-0.69813,-0.52106 -1.51032,-0.74339 -2.34828,-0.90144c-0.55105,-0.10041 -1.12001,-0.0989 -1.68154,-0.10878c-0.53135,-0.00638 -1.06224,0.0362 -1.58085,0.18419c-0.31572,0.08583 -0.64629,0.19438 -0.96551,0.31038c-0.30041,0.11205 -0.6043,0.25428 -0.87407,0.4188c-0.22474,0.14526 -0.40005,0.33905 -0.50711,0.57743c-0.08128,0.17408 -0.06946,0.2305 0.0338,0.39533c0.02229,-0.03413 0.04459,-0.06824 0.0743,-0.11374c0.21458,-0.42777 0.58141,-0.69115 1.01299,-0.87978c0.10888,-0.04245 0.21777,-0.0849 0.33847,-0.07096c0.01881,-0.00394 0.05292,0.01835 0.0455,0.02972c0.00789,0.03761 0.00439,0.06779 -0.01046,0.09053c-0.0223,0.03411 -0.06733,0.05337 -0.10099,0.08006c-0.14998,0.08051 -0.28114,0.15709 -0.43111,0.23761c-0.35984,0.20303 -0.60946,0.51056 -0.76415,0.89633c-0.03669,0.10584 -0.02835,0.19243 0.07005,0.2405c0.02624,-0.01532 0.04503,-0.01926 0.05247,-0.03062c0.13589,-0.38183 0.43143,-0.61065 0.76111,-0.81717c0.08614,-0.05731 0.16878,-0.08446 0.27068,-0.06656c0.04155,0.01092 0.08309,0.02183 0.08749,0.08962c-0.02184,0.08309 -0.12329,0.11417 -0.18318,0.15618c-0.17227,0.11463 -0.33316,0.23671 -0.47874,0.385c-0.14557,0.14829 -0.25704,0.31888 -0.25872,0.54498c0.04199,0.0599 0.09144,0.10843 0.17408,0.08128c0.01092,-0.04155 0.01441,-0.07173 0.04412,-0.11722c0.13724,-0.23489 0.30511,-0.4173 0.56048,-0.5101c0.0564,-0.01182 0.11282,-0.02366 0.15088,0.01744c0.042,0.05989 0.0009,0.09796 -0.0402,0.13602c-0.07476,0.06475 -0.1609,0.12206 -0.21685,0.18287c-0.13071,0.12556 -0.24612,0.27734 -0.2898,0.44354c0.05338,0.06732 0.10674,0.13466 0.19682,0.09615c0.18486,-0.38228 0.22596,-0.42033 0.53909,-0.37803c-0.13026,0.17454 -0.29859,0.30798 -0.35713,0.49691c0.1028,0.11586 0.2646,0.09176 0.37833,0.16606c0.2502,0.16348 0.5371,0.22112 0.83144,0.26737c0.52436,0.06674 1.04873,0.13347 1.58054,0.18884c0.26021,0.02397 0.52391,0.01777 0.78367,-0.00725c0.24839,-0.03244 0.50071,-0.04608 0.74911,-0.07852c0.1618,-0.02411 0.3236,-0.04821 0.4854,-0.07232c0.3647,-0.08628 0.73683,-0.18391 1.10153,-0.27019c0.08265,-0.02714 0.17318,-0.01667 0.23657,-0.08885c0.01835,-0.05292 -0.01972,-0.09402 -0.03502,-0.12025c-0.04199,-0.0599 -0.11023,-0.10448 -0.15224,-0.16438c-0.03806,-0.0411 -0.02714,-0.08264 -0.00485,-0.11676c0.01487,-0.02274 0.05248,-0.03063 0.08265,-0.02714c0.04155,0.01092 0.08309,0.02185 0.11721,0.04413c0.12859,0.05157 0.16755,0.19061 0.21744,0.28812zM292.75875,196.00214c-0.14164,0.1671 -0.15469,0.38576 -0.0396,0.60702c0.06915,0.14255 0.19773,0.19411 0.35559,0.15119c0.39836,-0.11296 0.63221,-0.49569 0.6815,-0.86918c0.0179,-0.10191 -0.02062,-0.19199 -0.1304,-0.24749c-0.16271,-0.07385 -0.33634,-0.10616 -0.50118,-0.00289c-0.12722,0.09538 -0.25446,0.19075 -0.36592,0.36135zM295.17611,194.18997c0.08174,-0.12509 0.11799,-0.27993 0.12407,-0.43824c0.02003,-0.27901 -0.17726,-0.42414 -0.43611,-0.30117c-0.04504,0.01925 -0.08614,0.05731 -0.1386,0.08794c-0.14952,0.12949 -0.25355,0.28871 -0.34227,0.47417c-0.08477,0.20425 -0.03004,0.41852 0.13707,0.56017c0.0608,0.05595 0.13254,0.07037 0.21124,0.02442c0.17621,-0.09584 0.29161,-0.24762 0.44461,-0.40729zM309.09227,181.26126c0.08401,0.1198 0.22745,0.14862 0.3565,0.24916c0.36727,-0.21441 0.58672,-0.52542 0.77203,-0.85871c0.15559,-0.28781 0.13239,-0.35164 -0.14055,-0.52999c-0.03411,-0.0223 -0.06823,-0.04458 -0.1207,-0.01396c-0.16514,0.4763 -0.47071,0.84462 -0.86726,1.15351zM296.55733,191.97667c0.11541,-0.1518 0.15164,-0.30661 0.1236,-0.48723c-0.02457,-0.21078 -0.21002,-0.2995 -0.39806,-0.26007c-0.30828,0.07445 -0.53425,0.49479 -0.42219,0.79519c0.0696,0.19153 0.27385,0.27629 0.45007,0.18047c0.10888,-0.04245 0.19108,-0.11858 0.24658,-0.22837zM297.39297,189.03366c-0.02972,0.04548 -0.05945,0.09097 -0.08174,0.12509c-0.11495,0.20077 -0.09434,0.39276 0.05048,0.56851c0.08401,0.1198 0.22351,0.12981 0.33938,0.027c0.06733,-0.05338 0.12328,-0.11418 0.1753,-0.19378c0.11889,-0.18195 0.22641,-0.37135 0.22808,-0.59745c0.00258,-0.12814 -0.06216,-0.2029 -0.18287,-0.21685c-0.07173,-0.01441 -0.14694,0.00136 -0.22959,0.02849c-0.13512,0.05777 -0.24354,0.14921 -0.29904,0.25899zM298.82207,187.517c0.18365,-0.1072 0.30647,-0.27036 0.44068,-0.42609c0.04852,-0.04943 0.0555,-0.10979 0.08128,-0.17408c0.04412,-0.11722 -0.00271,-0.29387 -0.11645,-0.36818c-0.09098,-0.05945 -0.20032,-0.06598 -0.29783,-0.01608c-0.05989,0.042 -0.13117,0.07657 -0.19106,0.11858c-0.13071,0.12556 -0.20851,0.26945 -0.1879,0.46144c0.02411,0.1618 0.05958,0.33103 0.27127,0.40443zM301.5624,182.32947c0.11495,-0.20077 0.10571,-0.38533 -0.07672,-0.55319c-0.36909,0.01849 -0.49451,0.30979 -0.62386,0.58228c-0.0555,0.10979 -0.04277,0.26415 0.05609,0.36121c0.07613,0.08219 0.30176,0.03489 0.41763,-0.06793c0.04109,-0.03806 0.07082,-0.08356 0.11192,-0.12161c0.04457,-0.06824 0.07036,-0.13253 0.11494,-0.20077zM300.11837,185.08594c0.20108,-0.25808 0.35319,-0.51571 0.30846,-0.86949c-0.16271,-0.07385 -0.30176,-0.03489 -0.42157,0.04912c-0.13859,0.08795 -0.22382,0.24322 -0.26008,0.39805c-0.03275,0.12464 -0.05414,0.25673 -0.00774,0.38441c0.06171,0.15392 0.16755,0.19062 0.30616,0.10268c0.02622,-0.01531 0.05246,-0.03063 0.07475,-0.06476zM302.48366,180.49722c0.20942,-0.1715 0.30162,-0.38713 0.24644,-0.65037c-0.15922,-0.10403 -0.30965,-0.07249 -0.45568,0.02682c-0.15346,0.1107 -0.19715,0.27689 -0.21065,0.44658c-0.00653,0.10933 0.08841,0.18758 0.18682,0.23565c0.09841,0.04807 0.16574,-0.0053 0.23307,-0.05868zM303.61965,178.65923c0.12025,-0.03502 0.23262,-0.10765 0.30299,-0.24018c0.05944,-0.09098 0.10358,-0.2082 0.11753,-0.32891c0.01744,-0.15088 -0.07005,-0.24051 -0.2091,-0.20153c-0.22169,0.06611 -0.37865,0.20698 -0.45205,0.41866c-0.01835,0.05292 -0.02138,0.13207 -0.01699,0.19986c0.00879,0.13557 0.12994,0.1985 0.25763,0.1521zM308.98766,180.94949c0.40838,-0.25247 0.66846,-0.65052 0.65694,-1.07996c-0.0778,0.1439 -0.1744,0.29176 -0.25219,0.43566c-0.09266,0.16666 -0.23475,0.28478 -0.3541,0.41776c-0.11192,0.12161 -0.30389,0.14223 -0.39655,0.30889c0.15527,0.08523 0.25233,-0.01364 0.3459,-0.08234z" data-paper-data="{&quot;index&quot;:null}" fill="#010001"></path><path d="M308.58417,180.10162c-0.04852,0.04943 -0.09051,-0.01047 -0.1395,-0.01001c-0.05338,-0.06733 -0.10675,-0.13466 -0.16755,-0.19062c-0.02669,-0.03367 -0.06824,-0.0446 -0.12814,-0.00258c-0.02533,0.11327 0.01713,0.22215 0.08582,0.31572c0.06869,0.09357 0.14875,0.19456 0.22487,0.27675c0.06081,0.05596 0.11419,0.12329 0.1339,0.21732c-0.17014,-0.06247 -0.28781,-0.15559 -0.39456,-0.29025c-0.24019,-0.30298 -0.47294,-0.61736 -0.67203,-0.95839c-0.1991,-0.34104 -0.44672,-0.63266 -0.81019,-0.82146c-0.12116,-0.06294 -0.24187,-0.07689 -0.36955,-0.0305c-0.41322,0.1357 -0.73502,0.37983 -0.97675,0.72496c-0.38685,0.54241 -0.75839,1.11105 -1.05426,1.7129c-0.12935,0.27249 -0.30026,0.53407 -0.441,0.79913c-0.34789,0.68146 -0.66559,1.36641 -0.9833,2.05136c-0.45055,0.98762 -0.90111,1.97524 -1.3403,2.97029c-0.10706,0.23838 -0.20275,0.48418 -0.30982,0.72255c-0.32864,0.72651 -0.64982,1.44163 -1.0012,2.15327c-0.281,0.5791 -0.54322,1.15427 -0.82422,1.73338c-0.21065,0.44658 -0.42524,0.87434 -0.63587,1.32092c-0.23642,0.51087 -0.46148,1.02917 -0.68653,1.54747c-0.28405,0.65826 -0.56808,1.31652 -0.89762,1.94507c-0.25174,0.48463 -0.48468,0.96534 -0.75916,1.4351c-0.47466,0.82582 -0.9607,1.64419 -1.61733,2.35113c-0.20154,0.20911 -0.40308,0.41821 -0.60461,0.62731c-0.33969,0.34603 -0.75201,0.57971 -1.16432,0.81337c-0.69346,0.39076 -1.43909,0.4391 -2.21624,0.33702c-0.55455,-0.07022 -1.07588,-0.21613 -1.59024,-0.42237c-0.33284,-0.13634 -0.65825,-0.28405 -0.95395,-0.47725c-0.35255,-0.23036 -0.71254,-0.44933 -1.02052,-0.74793c-0.08749,-0.08962 -0.19378,-0.1753 -0.26642,-0.28767c-0.19075,-0.25446 -0.38545,-0.52772 -0.56878,-0.79355c-0.23669,-0.33316 -0.33829,-0.7241 -0.36465,-1.1308c-0.04395,-0.67783 0.00263,-1.3452 0.23026,-1.99163c0.11359,-0.34771 0.24598,-0.69935 0.39369,-1.02477c0.25826,-0.59397 0.56944,-1.16959 0.86926,-1.75263c0.37412,-0.69677 0.72549,-1.40841 0.94827,-2.17161c0.10616,-0.33634 0.18957,-0.68754 0.20126,-1.05314c0.00698,-0.06035 -0.01622,-0.12419 0.02837,-0.19243c0.2038,0.0358 0.40897,0.21854 0.64856,0.05052c-0.03502,-0.12025 -0.12206,-0.1609 -0.20911,-0.20154c-0.21956,-0.111 -0.43565,-0.2522 -0.63293,-0.39732c-0.38713,-0.30162 -0.65051,-0.66844 -0.6778,-1.17311c0.0564,-0.01182 0.06824,0.04459 0.08356,0.07082c0.13829,0.28509 0.37363,0.47131 0.58668,0.69165c0.07612,0.08219 0.17453,0.13026 0.26552,0.18971c0.18545,0.08872 0.37091,0.17744 0.55636,0.26615c0.45401,0.19928 0.92985,0.31545 1.40524,0.38264c0.38487,0.05672 0.76973,0.11345 1.16201,0.15881c0.90529,0.10466 1.7939,0.03614 2.67722,-0.19811c0.37213,-0.09763 0.75169,-0.20666 1.12336,-0.35328c0.35287,-0.14267 0.64494,-0.34132 0.90243,-0.61123c0.04109,-0.03806 0.05944,-0.09098 0.13117,-0.07658c0.05686,0.03715 0.0044,0.06778 -0.00652,0.10934c-0.21064,0.44657 -0.58884,0.70252 -1.02391,0.92133c-0.11631,0.05382 -0.244,0.10022 -0.3603,0.15405c-0.04503,0.01925 -0.09751,0.04988 -0.14254,0.06914c-0.04109,0.03806 -0.05944,0.09098 -0.04762,0.14739c0.01926,0.04503 0.0608,0.05595 0.10979,0.0555c0.09796,-0.00091 0.19198,-0.02061 0.28205,-0.05913c0.04503,-0.01926 0.07127,-0.03457 0.16135,-0.07308c-0.05808,0.23792 -0.13194,0.40062 -0.23597,0.55984c-0.33438,0.51178 -0.66876,1.02356 -0.98435,1.53139c-0.40475,0.64431 -0.90048,1.22917 -1.34329,1.83238c-0.40914,0.57652 -0.82966,1.14562 -1.22743,1.72956c-0.18228,0.25415 -0.35319,0.51572 -0.45586,0.82188c-0.04412,0.11722 -0.05808,0.23791 -0.03443,0.35075c0.06656,0.27067 0.29052,0.44947 0.58046,0.42794c0.16574,-0.0053 0.34589,-0.08233 0.5632,-0.21622c0.02274,0.01485 0.06429,0.02578 0.08704,0.04064c0.15618,0.18318 0.35604,0.20018 0.56637,0.12665c0.50724,-0.15542 0.84344,-0.47127 0.95522,-1.0149c0.02533,-0.11327 0.03186,-0.22261 0.01214,-0.31663c-0.032,-0.19941 -0.13131,-0.34544 -0.3242,-0.42278c0.13375,-0.20471 0.24127,-0.39411 0.43584,-0.54286c0.0643,0.02578 0.12464,0.03276 0.18151,0.06991c0.13647,0.08917 0.2681,0.06158 0.40715,0.02261c0.62401,-0.16026 0.97493,-0.92088 0.77797,-1.43904c-0.05777,-0.13511 -0.18287,-0.21685 -0.24065,-0.35197c0.12981,-0.22351 0.26706,-0.4584 0.43842,-0.671c0.36393,0.23779 0.64992,0.19746 0.94108,-0.09915c0.40702,-0.39941 0.35654,-0.96791 0.07086,-1.30062c-0.03806,-0.0411 -0.11372,-0.07431 -0.11812,-0.14209c-0.0044,-0.06778 0.04412,-0.11722 0.08128,-0.17408c0.12981,-0.22351 0.24825,-0.45446 0.37806,-0.67797c0.58123,0.1039 0.88907,-0.01953 1.14126,-0.45518c0.21154,-0.34862 0.14757,-0.74743 -0.188,-1.17765c0.08826,-0.23443 0.22945,-0.45052 0.35926,-0.67402c0.03018,0.00349 0.06777,-0.0044 0.09796,-0.00091c0.31799,0.15908 0.57684,0.03611 0.80856,-0.16951c0.15695,-0.14087 0.26099,-0.30009 0.29283,-0.52269c0.04277,-0.26415 -0.03077,-0.47449 -0.19832,-0.6651c-0.05338,-0.06732 -0.13298,-0.11934 -0.16407,-0.22079c0.07689,-0.24187 0.21414,-0.47675 0.35532,-0.69284c0.08613,-0.05732 0.15437,-0.01273 0.24096,-0.02107c0.20335,-0.01319 0.37213,-0.09763 0.50633,-0.25337c0.05595,-0.0608 0.10798,-0.14042 0.15257,-0.20866c0.27539,-0.37182 0.26827,-0.73348 -0.06289,-1.09591c0.11056,-0.26855 0.23249,-0.52966 0.39596,-0.77987c0.42898,-0.06049 0.74334,-0.29325 0.92821,-0.67553c0.15164,-0.30661 0.01336,-0.5917 -0.10612,-0.88073c0.09964,-0.227 0.24082,-0.44308 0.38943,-0.67054c0.38486,0.05672 0.65069,-0.12659 0.83252,-0.42972c0.19669,-0.32588 0.11087,-0.64159 -0.08034,-0.94504c0.10358,-0.20819 0.23384,-0.38273 0.37548,-0.54983c0.34422,0.14376 0.65689,0.1371 0.90651,-0.17041c0.27585,-0.32283 0.31863,-0.587 0.15274,-1.0037c0.1565,-0.18985 0.33969,-0.34603 0.53424,-0.49478c0.4381,-0.29796 0.88757,-0.58848 1.41802,-0.68006c0.13162,-0.0276 0.25582,-0.04382 0.38395,-0.04124c0.23352,-0.0097 0.44521,0.0637 0.64598,0.17865c0.56075,0.33393 0.8933,0.8433 1.13225,1.42136c0.06171,0.15392 0.11205,0.30041 0.15495,0.45827c0.12085,0.43596 0.30158,0.82994 0.64368,1.15082c-0.05111,0.17758 -0.09084,0.36257 -0.25174,0.48463c-0.13997,-0.059 -0.20167,-0.21291 -0.31541,-0.28722c-0.03411,-0.0223 -0.06823,-0.04458 -0.1207,-0.01396c-0.05247,0.03062 -0.04459,0.06824 -0.02533,0.11327zM290.78276,190.13481c0.00789,0.0376 0.03458,0.07127 0.04989,0.09751c0.17803,0.10009 0.3744,0.14726 0.56682,0.17562c0.66433,0.12574 1.3273,0.10453 2.00513,0.06057c0.18456,-0.00924 0.36517,-0.0373 0.53393,-0.12175c0.02624,-0.01532 0.04852,-0.04943 0.04459,-0.06824c-0.01532,-0.02624 -0.03062,-0.05247 -0.05338,-0.06732c-0.06824,-0.04459 -0.15088,-0.01744 -0.21866,-0.01305c-0.30131,0.01409 -0.61005,0.03955 -0.90393,0.04228c-0.614,0.02075 -1.23587,0.0039 -1.82544,-0.18657c-0.04155,-0.01092 -0.08309,-0.02185 -0.12464,-0.03276c-0.04898,0.00046 -0.09356,0.0687 -0.0743,0.11374zM291.82914,197.74781c-0.12464,-0.03276 -0.25277,-0.03534 -0.38486,-0.05672c-0.06339,0.07218 -0.06293,0.12116 -0.0135,0.16968c0.33814,0.30208 1.05313,0.20127 1.29834,-0.17403c0.04459,-0.06824 0.02882,-0.14346 -0.04336,-0.20684c-0.01881,0.00394 -0.03018,-0.00349 -0.03018,-0.00349c-0.08659,0.00834 -0.11981,0.084 -0.1797,0.12601c-0.1985,0.12994 -0.39745,0.21091 -0.64674,0.1454zM289.13063,199.71707c-0.07522,0.01576 -0.10493,0.06125 -0.12329,0.11418c-0.0681,0.37743 -0.08723,0.75442 0.02923,1.12259c0.00789,0.03761 0.03457,0.07128 0.06125,0.10493c0.03806,0.0411 0.09842,0.04807 0.14345,0.02882c0.06384,-0.0232 0.08219,-0.07612 0.07037,-0.13253c-0.12737,-0.32664 -0.10779,-0.65463 -0.09959,-0.99007c0.00304,-0.07916 0.0135,-0.16969 -0.08143,-0.24794zM288.6692,199.52916c0.01487,-0.02274 -0.00789,-0.03761 -0.0232,-0.06384c-0.03018,-0.00349 -0.06035,-0.00697 -0.08658,0.00834c-0.08265,0.02714 -0.10843,0.09144 -0.13026,0.17454c-0.06856,0.32845 -0.04658,0.66737 -0.0246,1.00628c0.00834,0.08659 0.07658,0.13118 0.1483,0.14558c0.06778,-0.0044 0.12373,-0.0652 0.11146,-0.1706c0.00349,-0.03018 -0.0044,-0.06777 -0.00091,-0.09796c-0.04032,-0.286 -0.03562,-0.59125 0.00321,-0.87422c0.01092,-0.04155 0.01047,-0.09054 0.00258,-0.12814zM287.12931,198.03622c-0.01092,0.04155 -0.03715,0.05687 -0.06338,0.07218c-0.01485,0.02274 -0.02972,0.0455 -0.03715,0.05687c-0.11404,0.29873 -0.19397,0.61975 -0.23628,0.93289c-0.01441,0.07173 0.00137,0.14694 0.03593,0.21821c0.01532,0.02624 0.04943,0.04852 0.07961,0.05202c0.03018,0.00349 0.06385,-0.02321 0.09008,-0.03852c0.01487,-0.02274 0.03715,-0.05687 0.04064,-0.08704c0.03443,-0.35075 0.12179,-0.68314 0.20915,-1.01552c0.01092,-0.04155 0.01047,-0.09054 0.00258,-0.12814c-0.00045,-0.04898 -0.07612,-0.0822 -0.12116,-0.06294zM287.3534,199.85409c0.13557,-0.00879 0.16483,-0.10326 0.17136,-0.21259c0.03095,-0.32057 0.0807,-0.64507 0.14182,-0.96215c0.01092,-0.04155 -0.00834,-0.08659 -0.04245,-0.10888c-0.12814,-0.00258 -0.18759,0.0884 -0.21292,0.20168c-0.05414,0.25672 -0.10829,0.51345 -0.11345,0.76972c-0.00653,0.10933 -0.01699,0.19986 0.05564,0.31223zM288.10539,199.27438c0.00698,-0.06035 -0.03108,-0.10144 -0.08401,-0.1198c-0.09402,0.01972 -0.13466,0.10675 -0.1565,0.18985c-0.05763,0.2869 -0.11526,0.57381 -0.07493,0.8598c-0.00349,0.03018 0.01183,0.05641 0.01972,0.09402c0.01926,0.04503 0.05337,0.06733 0.10235,0.06688c0.06036,0.00697 0.10889,-0.04246 0.11587,-0.10281c0.01092,-0.04155 0.01046,-0.09053 0.00258,-0.12814c-0.01319,-0.20335 0.01124,-0.41458 0.0396,-0.60701c0.01047,-0.09053 0.03231,-0.17363 0.03535,-0.25278zM286.46908,198.35132c-0.01441,0.07173 -0.02882,0.14345 0.0473,0.22564c0.12814,0.00258 0.14997,-0.08052 0.17182,-0.16361c0.0537,-0.30571 0.13011,-0.59655 0.24811,-0.87647c0.01835,-0.05292 -0.00834,-0.08659 -0.04245,-0.10888c-0.12419,0.01622 -0.19501,0.09977 -0.23172,0.20561c-0.08826,0.23443 -0.16515,0.4763 -0.19307,0.71771zM289.75911,201.26367c0.03806,0.0411 0.12071,0.01396 0.13906,-0.03897c0.02973,-0.04549 0.02184,-0.08311 0.00258,-0.12814c-0.12646,-0.22868 -0.10992,-0.47753 -0.14237,-0.7259c-0.01183,-0.0564 -0.01229,-0.10539 -0.02411,-0.1618c-0.00394,-0.01881 -0.01925,-0.04504 -0.03806,-0.0411c-0.03018,-0.00349 -0.06779,0.00439 -0.08265,0.02713c-0.0223,0.03411 -0.04458,0.06823 -0.04412,0.11722c-0.0314,0.27158 -0.01381,0.54272 0.07898,0.79809c0.0232,0.06384 0.05383,0.11632 0.11069,0.15347zM290.94131,201.56547c0.01182,0.0564 0.03108,0.10143 0.09538,0.12722c0.09402,-0.01971 0.13117,-0.07658 0.12283,-0.16316c-0.0285,-0.22959 -0.08718,-0.46266 -0.16466,-0.6918c-0.01926,-0.04503 -0.05337,-0.06733 -0.10235,-0.06688c-0.0564,0.01182 -0.09751,0.04989 -0.10448,0.11023c-0.00743,0.01137 -0.00349,0.03018 -0.00349,0.03018c0.03593,0.21821 0.06443,0.44779 0.15677,0.65418zM290.1516,200.51397c-0.00911,0.23747 0.07459,0.7303 0.15115,0.86147c0.03062,0.05247 0.07613,0.08218 0.13253,0.07036c0.0564,-0.01182 0.10492,-0.06126 0.09311,-0.11767c-0.04775,-0.27462 -0.11037,-0.52648 -0.22197,-0.77791c-0.03062,-0.05247 -0.08355,-0.07082 -0.15483,-0.03625zM291.60718,201.04309c-0.01183,-0.05641 -0.06475,-0.07476 -0.1474,-0.04763c-0.07734,0.19288 -0.01517,0.39578 0.06186,0.57594c0.00789,0.03761 0.06081,0.05596 0.11721,0.04413c0.04503,-0.01925 0.06733,-0.05337 0.06687,-0.10236c-0.0053,-0.16574 -0.02939,-0.32754 -0.09855,-0.47008zM286.25227,197.3171c-0.02533,0.11327 -0.06946,0.23049 0.04867,0.37258c0.14512,-0.19728 0.2111,-0.3976 0.20534,-0.61232c0.00744,-0.01136 -0.03411,-0.0223 -0.05687,-0.03715c-0.12769,0.0464 -0.17182,0.16361 -0.19715,0.27689zM292.21161,201.2108c-0.04988,-0.09751 -0.10326,-0.16483 -0.24626,-0.14467c-0.03974,0.185 0.0482,0.32362 0.11735,0.46615c0.01926,0.04505 0.09842,0.04808 0.12814,0.00258c0.00744,-0.01136 0.01487,-0.02274 0.01487,-0.02274c0.06688,-0.10235 0.01699,-0.19986 -0.0141,-0.30131zM292.70276,201.35323c0.06688,-0.10235 0.0358,-0.2038 -0.00272,-0.29388c-0.03063,-0.05248 -0.05732,-0.08613 -0.13253,-0.07036c-0.0564,0.01182 -0.08613,0.05732 -0.09311,0.11767c-0.01047,0.09053 0.02412,0.1618 0.07005,0.2405c0.04199,0.0599 0.12859,0.05157 0.15831,0.00607zM294.30629,190.18133c-0.02972,0.0455 0.01228,0.10539 0.0652,0.12373c0.08309,0.02185 0.15087,0.01744 0.22215,-0.01713c0.04503,-0.01926 0.0787,-0.04595 0.06688,-0.10235c-0.00045,-0.04898 -0.02713,-0.08265 -0.08006,-0.10099c-0.10585,-0.0367 -0.2261,-0.00167 -0.27417,0.09673zM290.31693,189.87912c-0.08704,-0.04064 -0.18152,-0.06991 -0.28645,-0.00866c-0.0188,0.00395 -0.02578,0.0643 -0.01046,0.09053c0.05383,0.11631 0.17058,0.11146 0.26855,0.11056c0.04898,-0.00046 0.08265,-0.02713 0.08219,-0.07612c0.01092,-0.04155 -0.00439,-0.06778 -0.05382,-0.11631z" data-paper-data="{&quot;index&quot;:null}" fill="#ffc941"></path><path d="M295.4961,188.45964c0.18546,0.08871 0.30752,0.24961 0.41473,0.43325c-0.05595,0.0608 -0.10843,0.09144 -0.18758,0.08841c-0.04989,-0.09751 -0.08885,-0.23657 -0.21744,-0.28813c-0.03413,-0.02229 -0.07567,-0.03321 -0.11722,-0.04412c-0.03018,-0.00349 -0.06779,0.00439 -0.08265,0.02714c-0.03367,0.02669 -0.03321,0.07566 0.00485,0.11676c0.04943,0.04852 0.11024,0.10449 0.15224,0.16439c0.02668,0.03367 0.05338,0.06732 0.03502,0.12025c-0.06339,0.07218 -0.15392,0.06171 -0.23657,0.08885c-0.37212,0.09765 -0.73682,0.18391 -1.10152,0.27019c-0.15786,0.04291 -0.31224,0.05564 -0.48541,0.07232c-0.24839,0.03243 -0.50071,0.04608 -0.74911,0.07852c-0.25977,0.02502 -0.51209,0.03865 -0.78368,0.00726c-0.5318,-0.05536 -1.05617,-0.12211 -1.58054,-0.18884c-0.28296,-0.03883 -0.58124,-0.1039 -0.83144,-0.26737c-0.11373,-0.07431 -0.28296,-0.03884 -0.37834,-0.16606c0.05854,-0.18895 0.22686,-0.32238 0.35713,-0.49691c-0.31313,-0.04231 -0.35422,-0.00426 -0.53909,0.37803c-0.09008,0.03851 -0.13602,-0.0402 -0.19682,-0.09615c0.03974,-0.185 0.15908,-0.31799 0.2898,-0.44354c0.07476,-0.06475 0.14952,-0.12949 0.21685,-0.18287c0.04109,-0.03806 0.08218,-0.07613 0.04018,-0.13601c-0.03063,-0.05248 -0.08704,-0.04064 -0.15088,-0.01744c-0.25537,0.0928 -0.43068,0.28659 -0.56049,0.51009c-0.0223,0.03411 -0.03321,0.07567 -0.04412,0.11722c-0.09402,0.01971 -0.12464,-0.03276 -0.17408,-0.08129c-0.00577,-0.21473 0.1057,-0.38531 0.25872,-0.54498c0.14557,-0.1483 0.29509,-0.2778 0.47874,-0.385c0.07871,-0.04594 0.16135,-0.07308 0.18318,-0.15618c-0.00439,-0.06779 -0.04594,-0.07871 -0.08749,-0.08962c-0.1019,-0.0179 -0.19197,0.02062 -0.27067,0.06656c-0.32968,0.20652 -0.62523,0.43535 -0.76111,0.81716c-0.00743,0.01137 -0.03366,0.02669 -0.05246,0.03063c-0.10235,-0.06688 -0.11812,-0.14209 -0.07005,-0.2405c0.15469,-0.38576 0.40429,-0.69329 0.76415,-0.89633c0.14998,-0.08051 0.28115,-0.15708 0.43112,-0.2376c0.03367,-0.02669 0.0787,-0.04595 0.10099,-0.08006c0.01486,-0.02275 0.00698,-0.06035 0.01047,-0.09054c-0.00394,-0.01881 -0.02669,-0.03366 -0.0455,-0.02972c-0.12071,-0.01395 -0.24096,0.02106 -0.33847,0.07096c-0.43551,0.16983 -0.79097,0.44065 -1.01299,0.87978c-0.0223,0.03411 -0.04458,0.06823 -0.07431,0.11372c-0.10326,-0.16483 -0.11509,-0.22124 -0.0338,-0.39533c0.10707,-0.23838 0.27099,-0.43959 0.50711,-0.57743c0.2772,-0.17589 0.57367,-0.30674 0.87407,-0.4188c0.30783,-0.12342 0.63098,-0.22062 0.96551,-0.31038c0.51119,-0.13662 1.04208,-0.1792 1.58086,-0.18419c0.56152,0.00988 1.13048,0.00838 1.68154,0.10878c0.83796,0.15803 1.65014,0.38036 2.34828,0.90143c0.17454,0.13026 0.3342,0.28327 0.4825,0.42885c0.12556,0.13071 0.22882,0.29555 0.23807,0.4801c0.00789,0.03761 0.00834,0.08659 -0.04412,0.11722c-0.08309,-0.02185 -0.12162,-0.11192 -0.16361,-0.17182c-0.20956,-0.25052 -0.46764,-0.4516 -0.76288,-0.59583c-0.09842,-0.04808 -0.19683,-0.09615 -0.30571,-0.0537c-0.04503,0.01926 -0.08264,0.02714 -0.10099,0.08006c0.00091,0.09796 0.09143,0.10841 0.15573,0.1342c0.41595,0.15817 0.71254,0.44933 0.95319,0.8013c0.02669,0.03367 0.05338,0.06733 0.06126,0.10494c0.01576,0.07522 -0.04064,0.08704 -0.10448,0.11023c-0.13299,-0.11935 -0.25853,-0.25007 -0.39152,-0.36941c-0.1483,-0.14557 -0.32632,-0.24566 -0.51921,-0.32301c-0.05293,-0.01836 -0.10191,-0.0179 -0.15043,0.03153c-0.02927,0.09447 0.03897,0.13906 0.09584,0.17621c0.19335,0.12632 0.36044,0.26796 0.53892,0.41703c0.11023,0.10448 0.21304,0.22034 0.26687,0.33665c0.02714,0.08265 -0.02927,0.09447 -0.06294,0.12116c-0.01485,0.02274 -0.0411,0.03805 -0.07476,0.06475c-0.02275,-0.01486 -0.03411,-0.0223 -0.05687,-0.03715c-0.11858,-0.19107 -0.26339,-0.36682 -0.47552,-0.48921c-0.05687,-0.03715 -0.12117,-0.06293 -0.17758,-0.05111c-0.04897,0.00045 -0.08264,0.02714 -0.10493,0.06125c-0.01092,0.04155 -0.00304,0.07916 0.03502,0.12025c0.04549,0.02973 0.08355,0.07082 0.13647,0.08917zM290.63459,186.33804c-0.10145,0.03109 -0.19546,0.0508 -0.20199,0.16013c0.05383,0.11631 0.15573,0.13421 0.26855,0.11056c0.37607,-0.07884 0.75259,-0.10869 1.12913,-0.13855c0.59867,-0.04699 1.18644,-0.05244 1.78648,0.04751c0.24536,0.04672 0.48328,0.1048 0.72863,0.15152c0.0831,0.02184 0.1662,0.04368 0.24096,-0.02107c0.01441,-0.07173 -0.01622,-0.12419 -0.06566,-0.17273c-0.07218,-0.06338 -0.16665,-0.09266 -0.26113,-0.12193c-0.52133,-0.14589 -1.03433,-0.20521 -1.56568,-0.21159c-0.48237,-0.00685 -0.97171,0.04668 -1.45363,0.08882c-0.20334,0.01319 -0.40625,0.07536 -0.60566,0.10734z" data-paper-data="{&quot;index&quot;:null}" fill="#ffc941"></path><path d="M292.73052,196.61659c-0.12646,-0.22868 -0.12085,-0.43596 0.02822,-0.61445c0.11146,-0.17058 0.22732,-0.2734 0.3773,-0.35392c0.16484,-0.10326 0.33847,-0.07096 0.50117,0.0029c0.09841,0.04807 0.12949,0.14952 0.1304,0.24748c-0.0493,0.37349 -0.28314,0.75622 -0.6815,0.86918c-0.15786,0.04291 -0.28644,-0.00866 -0.35559,-0.1512z" data-paper-data="{&quot;index&quot;:null}" fill="#fcc741"></path><path d="M295.17611,194.18997c-0.14163,0.1671 -0.26841,0.31146 -0.44461,0.40729c-0.0787,0.04595 -0.15043,0.03153 -0.21124,-0.02442c-0.15573,-0.13421 -0.22184,-0.3559 -0.13707,-0.56017c0.08128,-0.17408 0.19275,-0.34467 0.34227,-0.47417c0.0411,-0.03805 0.09356,-0.06868 0.1386,-0.08794c0.25885,-0.12298 0.46357,0.01078 0.43611,0.30117c-0.00607,0.15831 -0.04232,0.31314 -0.12407,0.43824z" data-paper-data="{&quot;index&quot;:null}" fill="#fcc741"></path><path d="M310.22081,180.6517c-0.18531,0.33329 -0.40475,0.64431 -0.77203,0.85871c-0.12511,-0.08173 -0.26855,-0.11056 -0.3565,-0.24916c0.40792,-0.30145 0.70211,-0.67721 0.86726,-1.15351c0.04503,-0.01926 0.08659,-0.00834 0.1207,0.01396c0.28038,0.16697 0.2922,0.22337 0.14055,0.52999z" data-paper-data="{&quot;index&quot;:null}" fill="#fac540"></path><path d="M296.55733,191.97667c-0.0555,0.10979 -0.14908,0.17848 -0.25401,0.23974c-0.18016,0.07703 -0.38441,-0.00775 -0.45006,-0.18047c-0.11205,-0.3004 0.1139,-0.72074 0.42219,-0.79518c0.19547,-0.0508 0.37349,0.0493 0.39805,0.26008c0.03548,0.16923 -0.00076,0.32406 -0.11617,0.47585z" data-paper-data="{&quot;index&quot;:null}" fill="#fac640"></path><path d="M297.32258,189.16619c-0.00045,-0.04898 0.03322,-0.07567 0.07037,-0.13253c0.0743,-0.11374 0.1753,-0.1938 0.31041,-0.25157c0.07128,-0.03457 0.13906,-0.03896 0.22959,-0.02849c0.12071,0.01395 0.19682,0.09615 0.18287,0.21685c-0.01305,0.21866 -0.10919,0.41549 -0.22809,0.59745c-0.04458,0.06823 -0.11934,0.13298 -0.1753,0.19378c-0.11585,0.10281 -0.24794,0.08143 -0.33937,-0.027c-0.13738,-0.18713 -0.16543,-0.36773 -0.05048,-0.56851z" data-paper-data="{&quot;index&quot;:null}" fill="#fcc741"></path><path d="M299.27412,187.09833c-0.13815,0.13693 -0.26841,0.31146 -0.45205,0.41866c-0.21169,-0.0734 -0.25459,-0.23127 -0.2599,-0.397c-0.02061,-0.19198 0.06856,-0.32845 0.1879,-0.46144c0.04852,-0.04943 0.1198,-0.08401 0.19107,-0.11857c0.10493,-0.06125 0.21426,-0.05474 0.29782,0.01609c0.11373,0.07431 0.16058,0.25097 0.11645,0.36819c-0.02579,0.0643 -0.05157,0.12859 -0.08129,0.17408z" data-paper-data="{&quot;index&quot;:null}" fill="#f8c440"></path><path d="M300.8618,182.35856c0.12935,-0.27249 0.24339,-0.57123 0.62386,-0.58228c0.18243,0.16787 0.19166,0.35242 0.07672,0.55319c-0.04457,0.06824 -0.07036,0.13253 -0.11494,0.20077c-0.02972,0.0455 -0.07082,0.08356 -0.11192,0.12161c-0.11587,0.10281 -0.34151,0.15011 -0.41763,0.06793c-0.09886,-0.09706 -0.11159,-0.25142 -0.05609,-0.36121z" data-paper-data="{&quot;index&quot;:null}" fill="#f9c540"></path><path d="M300.00527,184.26558c0.11981,-0.084 0.25886,-0.12297 0.42157,-0.04912c0.04473,0.35379 -0.11481,0.62279 -0.30846,0.86949c-0.01485,0.02274 -0.04852,0.04943 -0.07475,0.06476c-0.12723,0.09537 -0.24445,0.05124 -0.30616,-0.10268c-0.0464,-0.12769 -0.02501,-0.25977 0.00774,-0.38441c0.04368,-0.1662 0.13284,-0.30267 0.26008,-0.39805z" data-paper-data="{&quot;index&quot;:null}" fill="#f7c340"></path><path d="M302.28579,179.88111c0.13466,-0.10674 0.28509,-0.13828 0.44431,-0.03425c0.05518,0.26325 -0.03702,0.47888 -0.23506,0.65781c-0.06733,0.05338 -0.14209,0.11812 -0.23307,0.05868c-0.09842,-0.04808 -0.19333,-0.12632 -0.18681,-0.23566c0.00214,-0.17712 0.05718,-0.33589 0.21064,-0.44658z" data-paper-data="{&quot;index&quot;:null}" fill="#f9c540"></path><path d="M304.03276,178.1015c-0.01395,0.12072 -0.03928,0.23399 -0.1101,0.31754c-0.08174,0.1251 -0.18274,0.20516 -0.31042,0.25156c-0.12769,0.0464 -0.24884,-0.01654 -0.25764,-0.1521c-0.0044,-0.06778 0.00258,-0.12813 0.01699,-0.19986c0.08083,-0.22306 0.23778,-0.36393 0.45205,-0.41866c0.13905,-0.03897 0.22655,0.05065 0.20911,0.20154z" data-paper-data="{&quot;index&quot;:null}" fill="#f6c340"></path><path d="M309.6446,179.86952c0.00757,0.41064 -0.24856,0.8275 -0.64557,1.08739c-0.09356,0.06868 -0.19805,0.17892 -0.34589,0.08233c0.09266,-0.16666 0.28464,-0.18726 0.39656,-0.30887c0.11934,-0.133 0.26143,-0.25111 0.3541,-0.41776c0.0778,-0.1439 0.15559,-0.28781 0.24082,-0.44309z" data-paper-data="{&quot;index&quot;:null}" fill="#e6b73f"></path><path d="M308.44466,180.09164c0.04899,-0.00046 0.09098,0.05945 0.15088,0.01744c0.10281,0.11587 0.17196,0.2584 0.28962,0.35151c-0.03322,0.07567 -0.08962,0.08749 -0.11631,0.05382c-0.10674,-0.13466 -0.2511,-0.26143 -0.32418,-0.42278z" data-paper-data="{&quot;index&quot;:null}" fill="#a98836"></path><path d="M291.38068,190.41188c-0.17363,-0.03231 -0.35862,-0.07204 -0.54802,-0.17956c-0.01532,-0.02624 -0.042,-0.0599 -0.06869,-0.09356c-0.01925,-0.04504 0.01396,-0.12071 0.0743,-0.11374c0.04155,0.01092 0.09053,0.01047 0.12464,0.03275c0.58957,0.19048 1.21144,0.20734 1.82544,0.18657c0.30131,-0.0141 0.60263,-0.02818 0.90393,-0.04228c0.06778,-0.0044 0.1618,-0.02411 0.21867,0.01304c0.02274,0.01487 0.04942,0.04853 0.05337,0.06733c0.00789,0.03761 -0.00698,0.06035 -0.04458,0.06823c-0.16877,0.08446 -0.34937,0.11251 -0.53393,0.12175c-0.66647,0.05137 -1.34081,0.06516 -2.00515,-0.06057z" data-paper-data="{&quot;index&quot;:null}" fill="#060503"></path><path d="M291.43078,197.86075c-0.04943,-0.04852 -0.04988,-0.09751 0.0135,-0.16968c0.13207,0.02138 0.26021,0.02397 0.38486,0.05672c0.24929,0.06552 0.44824,-0.01546 0.64674,-0.1454c0.0599,-0.042 0.10449,-0.11024 0.1797,-0.12601c0.01881,-0.00394 0.01881,-0.00394 0.03018,0.00349c0.07961,0.05202 0.07658,0.13118 0.04336,0.20684c-0.25265,0.38668 -0.9602,0.47611 -1.29834,0.17403z" data-paper-data="{&quot;index&quot;:null}" fill="#fefcf5"></path><path d="M289.13063,199.71707c0.09493,0.07825 0.08446,0.16878 0.08143,0.24794c-0.0082,0.33543 -0.0352,0.67479 0.09959,0.99007c0.0232,0.06384 -0.00653,0.10933 -0.07037,0.13253c-0.05641,0.01182 -0.10539,0.01229 -0.14345,-0.02882c-0.02668,-0.03367 -0.05337,-0.06733 -0.06125,-0.10493c-0.11645,-0.36818 -0.08989,-0.75654 -0.02923,-1.12259c0.01092,-0.04155 0.04808,-0.09842 0.12329,-0.11418z" data-paper-data="{&quot;index&quot;:null}" fill="#0e0b07"></path><path d="M288.57822,199.46972c0.00744,-0.01136 0.03761,-0.00789 0.06778,-0.00439c0.01531,0.02625 0.03806,0.0411 0.042,0.0599c0.00789,0.03761 0.00834,0.08659 -0.00258,0.12814c-0.04626,0.29433 -0.05493,0.58078 -0.00321,0.8742c0.00789,0.03761 0.0044,0.06778 0.00091,0.09796c0.00091,0.09796 -0.04368,0.1662 -0.11146,0.1706c-0.07916,-0.00304 -0.13997,-0.059 -0.1483,-0.14558c-0.04077,-0.33497 -0.05137,-0.66647 0.0246,-1.00628c0.01441,-0.07173 0.04763,-0.1474 0.13026,-0.17454z" data-paper-data="{&quot;index&quot;:null}" fill="#100e08"></path><path d="M287.03273,198.18408c0.01487,-0.02274 0.02972,-0.0455 0.03322,-0.07567c0.02624,-0.01532 0.0411,-0.03806 0.06733,-0.05338c0.0411,-0.03806 0.12814,0.00258 0.12116,0.06294c0.00045,0.04897 0.00834,0.08659 -0.00259,0.12813c-0.08736,0.33238 -0.17472,0.66479 -0.20915,1.01552c-0.00349,0.03018 -0.01441,0.07173 -0.04064,0.08704c-0.01487,0.02274 -0.0599,0.042 -0.09008,0.03851c-0.03018,-0.00349 -0.0643,-0.02579 -0.07961,-0.05202c-0.04199,-0.0599 -0.05034,-0.14648 -0.03593,-0.21821c0.04232,-0.31314 0.11088,-0.64159 0.23628,-0.93289z" data-paper-data="{&quot;index&quot;:null}" fill="#0b0a06"></path><path d="M287.51734,199.65288c0.00834,0.08659 -0.00957,0.18848 -0.16392,0.20121c-0.08006,-0.10099 -0.06217,-0.2029 -0.06308,-0.30085c0.01259,-0.26765 0.05931,-0.513 0.11346,-0.76972c0.02533,-0.11327 0.08477,-0.20425 0.21291,-0.20167c0.04549,0.02973 0.0608,0.05595 0.04245,0.10888c-0.06112,0.31708 -0.12225,0.63415 -0.14182,0.96215z" data-paper-data="{&quot;index&quot;:null}" fill="#141109"></path><path d="M287.86491,199.34444c0.01047,-0.09054 0.06249,-0.17015 0.1565,-0.18985c0.0643,0.02578 0.09098,0.05945 0.08401,0.1198c-0.00304,0.07916 -0.0135,0.16969 -0.03535,0.25278c-0.0358,0.2038 -0.06415,0.39623 -0.0396,0.60701c0.00789,0.03761 0.00834,0.08659 -0.00258,0.12814c-0.00699,0.06035 -0.04808,0.09842 -0.11587,0.10281c-0.04898,0.00046 -0.08309,-0.02185 -0.10235,-0.06688c-0.01531,-0.02625 -0.02321,-0.06385 -0.01972,-0.09402c-0.0329,-0.29736 0.00593,-0.58032 0.07493,-0.8598z" data-paper-data="{&quot;index&quot;:null}" fill="#100d08"></path><path d="M286.67683,198.40589c-0.01047,0.09054 -0.03231,0.17363 -0.16045,0.17106c-0.07612,-0.08219 -0.06171,-0.15392 -0.05868,-0.23307c0.02791,-0.24142 0.1048,-0.48328 0.19306,-0.71771c0.0367,-0.10585 0.10753,-0.18939 0.23172,-0.20561c0.03413,0.02229 0.07218,0.06339 0.04245,0.10888c-0.11798,0.27992 -0.19442,0.57077 -0.24811,0.87646z" data-paper-data="{&quot;index&quot;:null}" fill="#15120a"></path><path d="M289.90078,201.09656c0.01925,0.04504 0.01971,0.09402 -0.00258,0.12814c-0.01092,0.04155 -0.09357,0.0687 -0.13906,0.03897c-0.05686,-0.03715 -0.08749,-0.08962 -0.11069,-0.15347c-0.0928,-0.25537 -0.11038,-0.5265 -0.07898,-0.79809c0.01092,-0.04155 0.02184,-0.0831 0.04412,-0.11722c0.01487,-0.02274 0.05247,-0.03062 0.08265,-0.02713c0.01881,-0.00394 0.03413,0.02229 0.03806,0.0411c0.01183,0.0564 0.01229,0.10539 0.02411,0.1618c0.03244,0.24839 0.01591,0.49722 0.14237,0.7259z" data-paper-data="{&quot;index&quot;:null}" fill="#120f09"></path><path d="M291.15209,201.54092c0.01577,0.07521 -0.02881,0.14344 -0.11541,0.15179c-0.05292,-0.01836 -0.08354,-0.07083 -0.1028,-0.11586c-0.08491,-0.21776 -0.12085,-0.43596 -0.15677,-0.65418c-0.00394,-0.01881 -0.00394,-0.01881 0.00349,-0.03018c0.00698,-0.06035 0.04808,-0.09842 0.10448,-0.11023c0.04898,-0.00046 0.08309,0.02185 0.10235,0.06688c0.07747,0.22914 0.13616,0.4622 0.16465,0.69179z" data-paper-data="{&quot;index&quot;:null}" fill="#16130a"></path><path d="M290.1516,200.51397c0.08264,-0.02714 0.13557,-0.00879 0.1662,0.04368c0.11161,0.25142 0.16679,0.51468 0.22198,0.77792c0.01182,0.0564 -0.0179,0.1019 -0.09311,0.11767c-0.0564,0.01183 -0.10191,-0.01789 -0.13253,-0.07036c-0.08795,-0.1386 -0.17163,-0.63144 -0.16252,-0.8689z" data-paper-data="{&quot;index&quot;:null}" fill="#0d0b07"></path><path d="M291.52163,201.57142c-0.07703,-0.18016 -0.1392,-0.38305 -0.06186,-0.57594c0.08265,-0.02714 0.11676,-0.00485 0.1474,0.04763c0.06171,0.15392 0.09324,0.30434 0.09855,0.47008c0.00046,0.04898 -0.02184,0.0831 -0.06687,0.10236c-0.04503,0.01925 -0.09796,0.0009 -0.11721,-0.04413z" data-paper-data="{&quot;index&quot;:null}" fill="#201b0f"></path><path d="M286.50627,197.07737c0.00576,0.21472 -0.06021,0.41504 -0.20534,0.61232c-0.11813,-0.1421 -0.074,-0.25931 -0.04867,-0.37258c0.02533,-0.11328 0.08084,-0.22307 0.19715,-0.27689c0.02275,0.01486 0.05292,0.01834 0.05687,0.03715z" data-paper-data="{&quot;index&quot;:null}" fill="#1d180e"></path><path d="M292.08271,201.53232c-0.06914,-0.14255 -0.15708,-0.28115 -0.11735,-0.46615c0.14299,-0.02017 0.2038,0.0358 0.24626,0.14467c0.03108,0.10144 0.08841,0.18758 0.0141,0.30131c-0.00744,0.01136 -0.01487,0.02274 -0.01487,0.02274c-0.02972,0.04548 -0.10888,0.04245 -0.12814,-0.00258z" data-paper-data="{&quot;index&quot;:null}" fill="#17130b"></path><path d="M292.70276,201.35323c-0.02972,0.0455 -0.11631,0.05382 -0.15831,-0.00607c-0.04595,-0.0787 -0.08053,-0.14997 -0.07005,-0.2405c0.00698,-0.06035 0.03671,-0.10584 0.09311,-0.11767c0.05641,-0.01182 0.10191,0.01789 0.13253,0.07036c0.03851,0.09008 0.05823,0.1841 0.00272,0.29388z" data-paper-data="{&quot;index&quot;:null}" fill="#382e16"></path><path d="M294.37543,190.32386c-0.05687,-0.03715 -0.08006,-0.10099 -0.06914,-0.14254c0.04807,-0.09841 0.16089,-0.12207 0.2781,-0.07793c0.04155,0.01092 0.0796,0.05201 0.08006,0.10099c0.00046,0.04898 -0.03321,0.07566 -0.06688,0.10235c-0.07128,0.03457 -0.13905,0.03897 -0.22215,0.01713z" data-paper-data="{&quot;index&quot;:null}" fill="#201b0f"></path><path d="M290.31694,189.87913c0.04549,0.02973 0.07218,0.06338 0.05382,0.11631c-0.01092,0.04155 -0.05201,0.07961 -0.08219,0.07612c-0.10933,-0.00653 -0.21471,0.00576 -0.26855,-0.11056c-0.01532,-0.02624 -0.00439,-0.06779 0.01046,-0.09053c0.09751,-0.04988 0.19198,-0.02061 0.28645,0.00866z" data-paper-data="{&quot;index&quot;:null}" fill="#3d3219"></path><path d="M290.68233,186.61265c-0.09401,0.01971 -0.1959,0.00182 -0.24975,-0.1145c0.00653,-0.10933 0.10054,-0.12904 0.18318,-0.15618c0.20683,-0.04337 0.4023,-0.09416 0.60565,-0.10734c0.48193,-0.04214 0.97126,-0.09565 1.45363,-0.08882c0.53135,0.00638 1.05572,0.07313 1.56568,0.21159c0.09447,0.02927 0.18893,0.05854 0.26113,0.12193c0.05687,0.03715 0.08006,0.10099 0.06565,0.17272c-0.08219,0.07613 -0.15786,0.0429 -0.24096,0.02107c-0.24536,-0.04672 -0.48328,-0.1048 -0.72863,-0.15152c-0.58866,-0.09252 -1.18036,-0.10588 -1.78647,-0.04752c-0.37653,0.02986 -0.75305,0.05973 -1.12912,0.13856z" data-paper-data="{&quot;index&quot;:null}" fill="#fefefa"></path></g><path d="M305.85573,181.24776c0.8501,-1.4468 3.53035,-1.44974 5.98651,-0.00658c2.45617,1.44316 3.75814,3.78593 2.90805,5.23274c-0.8501,1.4468 -3.53035,1.44974 -5.98651,0.00658c-2.45617,-1.44316 -3.75814,-3.78593 -2.90805,-5.23274z" data-paper-data="{&quot;index&quot;:null}" fill="#f6fab0" stroke="#000000" stroke-width="1.28786" stroke-linecap="butt"></path><path d="M313.11813,177.45342c0,0 3.63666,-2.39215 5.27765,-1.80269c1.641,0.58947 1.45958,4.22278 1.45958,4.22278" fill="none" stroke="#000000" stroke-width="1.28786" stroke-linecap="round"></path><path d="M306.33357,173.67262c0,0 2.94216,-1.38151 3.93967,-1.0232c1.641,0.58947 1.45959,4.22278 1.45959,4.22278" data-paper-data="{&quot;index&quot;:null}" fill="none" stroke="#000000" stroke-width="1.28786" stroke-linecap="round"></path></g></g><text transform="translate(189.07362,209.21757) scale(0.21298,0.21298)" font-size="40" xml:space="preserve" fill="#000000" fill-rule="nonzero" stroke="none" stroke-width="1" stroke-linecap="butt" stroke-linejoin="miter" stroke-miterlimit="10" stroke-dasharray="" stroke-dashoffset="0" font-family="Sans Serif" font-weight="normal" text-anchor="start" style="mix-blend-mode: normal"><tspan x="0" dy="0">By Laura Shigihara</tspan></text><text transform="translate(188.57366,193.3305) scale(0.24671,0.57366)" font-size="40" xml:space="preserve" fill="#000000" fill-rule="nonzero" stroke="none" stroke-width="1" stroke-linecap="butt" stroke-linejoin="miter" stroke-miterlimit="10" stroke-dasharray="" stroke-dashoffset="0" font-family="Sans Serif" font-weight="normal" text-anchor="start" style="mix-blend-mode: normal"><tspan x="0" dy="0">GRAZE THE ROOF</tspan></text></g></g></svg>