<svg version="1.1" xmlns="http://www.w3.org/2000/svg" xmlns:xlink="http://www.w3.org/1999/xlink" width="64.79222" height="88.4087" viewBox="0,0,64.79222,88.4087"><g transform="translate(-207.5598,-137.40138)"><g data-paper-data="{&quot;isPaintingLayer&quot;:true}" fill-rule="nonzero" stroke-linejoin="miter" stroke-miterlimit="10" stroke-dasharray="" stroke-dashoffset="0" style="mix-blend-mode: normal"><path d="M208.55231,222.40698v-84.81396h62.89539v84.81396z" fill="#515151" stroke="none" stroke-width="0" stroke-linecap="butt"></path><g stroke="#000000" stroke-width="1.28786"><path d="" fill="none" stroke-linecap="butt"></path><path d="" fill="#00a735" stroke-linecap="butt"></path><path d="" fill="#ccf280" stroke-linecap="butt"></path><path d="" fill="#000000" stroke-linecap="butt"></path><path d="" fill="#000000" stroke-linecap="butt"></path><path d="" fill="#000000" stroke-linecap="round"></path><path d="M259.24115,193.79042c0,0.76198 4.72765,6.24423 4.72765,6.24423c0,0 -5.3712,-3.20983 -6.67854,-2.74241c-2.67464,0.95624 -2.48788,6.04961 -3.5919,6.68421c-2.79198,1.60486 -6.84492,-1.47787 -6.84492,-1.47787c0,0 -3.61845,3.98006 -5.6396,3.98006c-3.25069,0 -5.35076,-5.44875 -5.35076,-5.44875c0,0 -5.41116,2.15432 -7.11186,0.60374c-0.62037,-0.56561 -2.04396,-1.84775 -3.52018,-2.09063c-4.31575,-0.71004 -10.60492,0.60655 -10.60492,0.60655l5.26665,-4.63608c0,0 -1.39518,0.02561 -2.3221,0.33313c-1.55127,0.51463 -0.14007,1.51701 -0.14007,1.51701c0,0 -2.99236,-2.31673 -1.22012,-3.61929c1.56517,-1.15036 5.32963,-2.8457 5.32963,-2.8457c0,0 -1.63869,-0.09265 -2.90116,0.28684c-1.6941,0.50923 -6.35489,2.4954 -6.35489,2.4954c0,0 2.20695,-3.22394 7.0705,-5.35566c0.50175,-0.21992 -0.36587,-0.97698 -1.7497,-0.97908c-1.07461,-0.00164 -2.70093,0.73245 -2.70093,0.73245c0,0 3.66825,-3.27333 9.48983,-4.74164c6.8789,-1.73499 10.3709,-3.82942 10.92484,-3.82942c1.5223,0 6.96213,-1.30749 11.79219,0.0248c4.19607,1.15741 7.75862,4.90131 10.05903,5.79801c2.14692,0.83686 3.90792,2.84999 3.90792,2.84999c0,0 -1.7734,-0.2647 -2.61871,-0.17888c-1.13185,0.11491 -4.27385,-0.30339 -4.27385,-0.30339c0,0 7.48168,3.42852 8.11604,3.92037c1.83793,1.42505 2.88099,3.31103 2.88099,3.31103c0,0 -5.94102,-2.1379 -5.94102,-1.13903z" fill="#acff26" stroke-linecap="butt"></path><path d="M257.78747,184.63858c-1.27389,3.15648 -4.69761,2.52479 -8.18855,1.11592c-3.49094,-1.40888 -5.72714,-3.06142 -4.45325,-6.2179c1.27389,-3.15648 5.13656,-4.57319 8.62749,-3.16432c3.49094,1.40888 5.2882,5.10983 4.01431,8.2663z" fill="#4e3605" stroke-linecap="butt"></path><path d="M240.53436,177.62685c0.75635,0 -0.13033,-3.18888 1.24986,-4.39724c1.79334,-1.57004 5.81588,-1.25535 5.81588,-1.25535c0,0 -3.6338,2.03552 -3.6338,3.43194c0,0.51969 -0.5269,4.11402 -1.39415,4.92705c-1.93628,1.81522 -5.16689,1.02836 -5.16689,1.02836c0,0 -1.61503,-3.13983 -1.61503,-4.74413c0,-1.52026 1.61503,-4.64319 1.61503,-4.64319c0,0 1.47407,5.65259 3.12911,5.65259z" data-paper-data="{&quot;index&quot;:null}" fill="#acff26" stroke-linecap="butt"></path><path d="M241.66904,183.68605l9.07147,-3.0726l-1.60945,3.21892l3.65785,0.73157l1.90208,4.21577" fill="#acff26" stroke-linecap="round"></path><path d="M223.40229,175.89164c0,0 -1.53947,-5.5594 -0.60529,-8.66888c0.98839,-3.28992 4.86813,-6.11858 4.86813,-6.11858c0,0 3.10587,-3.27446 5.30122,-2.10205c2.58034,1.37801 -1.05098,4.97733 -1.05098,4.97733c0,0 -0.9534,0.18836 -2.18858,4.09821c-1.07413,3.40007 1.52604,8.09981 1.03824,7.74941c-0.30957,-0.22236 -7.36273,0.06456 -7.36273,0.06456z" fill="#acff26" stroke-linecap="butt"></path><path d="M229.93013,201.6054l3.47844,-12.807l6.4945,-3.18458l4.74029,2.9967l5.5801,-2.59993l4.16011,4.37632l1.53635,10.6815c0,0 -1.77203,3.22296 -3.77372,3.61865c-2.0017,0.39568 -5.46231,-1.79292 -5.46231,-1.79292c0,0 -2.91072,3.25109 -5.43799,3.4827c-2.45416,0.22491 -11.31575,-4.77145 -11.31575,-4.77145z" fill="#f6fab0" stroke-linecap="round"></path><path d="M235.79524,181.09179c0,2.82189 -3.04468,4.25925 -5.60729,5.563c-1.23713,0.62941 -1.35198,2.01317 -2.87771,2.01317c-4.68613,0 -8.48498,-3.39196 -8.48498,-7.57617c0,-4.18419 3.79887,-7.57617 8.48499,-7.57617c4.68613,0 8.48499,3.39197 8.48499,7.57617z" fill="#4e3605" stroke-linecap="butt"></path><path d="M244.28302,194.68997c0,3.14971 -1.1832,5.70307 -2.64273,5.70307c-1.45953,0 -2.64272,-2.55335 -2.64272,-5.70307c0,-3.14971 1.18319,-5.70306 2.64272,-5.70306c1.45953,0 2.64273,2.55334 2.64273,5.70306z" fill="#000000" stroke-linecap="butt"></path><path d="M253.46848,193.93293c0,2.89884 -1.12135,5.24883 -2.50463,5.24883c-1.38326,0 -2.50463,-2.34999 -2.50463,-5.24883c0,-2.89884 1.12135,-5.24883 2.50463,-5.24883c1.38326,0 2.50463,2.34998 2.50463,5.24883z" fill="#000000" stroke-linecap="butt"></path><path d="M225.5905,190.85544l-2.48734,-4.97467l8.1936,-1.0242l-0.29263,-3.36523l7.02308,3.36523" fill="#acff26" stroke-linecap="round"></path><path d="M224.60084,163.88714l2.85875,-2.69589c0,0 3.10587,-3.27446 5.30122,-2.10205c2.58034,1.37801 -1.05098,4.97734 -1.05098,4.97734l-1.43619,2.05403z" fill="#4e3605" stroke-linecap="butt"></path><path d="M236.29317,206.67315c-3.87971,0 -7.02484,-1.85263 -7.02484,-4.13797c0,-2.28535 3.14513,-4.13797 7.02484,-4.13797c3.87971,0 7.02484,1.85263 7.02484,4.13797c0,2.28535 -3.14513,4.13797 -7.02484,4.13797z" fill="#f6fab0" stroke-linecap="butt"></path><path d="M254.48383,205.35515c-3.07262,-1.09775 -4.43622,-4.41419 -3.83487,-6.0974c0.60136,-1.6832 4.08282,-2.79967 6.8138,-1.82399c2.73098,0.9757 4.87368,4.23028 4.31313,5.79927c-0.60134,1.6832 -4.21945,3.21984 -7.29207,2.1221z" fill="#f6fab0" stroke-linecap="butt"></path><path d="M231.83332,205.58881l1.71596,-4.23945" fill="none" stroke-linecap="round"></path><path d="M235.86655,202.16553l1.11033,4.1385" fill="none" stroke-linecap="round"></path><path d="M238.49963,202.77982l2.11972,2.22066" fill="none" stroke-linecap="round"></path><path d="M251.7095,203.29317l2.11973,-2.92723" fill="none" stroke-linecap="round"></path><path d="M255.54519,202.08191l-1.11033,3.02817" fill="none" stroke-linecap="round"></path><path d="M258.47242,205.11008l-0.70658,-2.82629" fill="none" stroke-linecap="round"></path><path d="M244.7447,200.16407l2.72536,-0.20188l-0.90845,2.42254z" fill="#000000" stroke-linecap="round"></path></g><path d="M208.55233,222.38702v-12.81396h62.89539v12.81396z" fill="#969696" stroke="none" stroke-width="0" stroke-linecap="butt"></path><path d="M208.50229,222.35702v-84.81396h8.64539v84.81396z" fill="#969696" stroke="none" stroke-width="0" stroke-linecap="butt"></path><path d="M264.05233,222.40701v-84.81396h8.14539v84.81396z" fill="#969696" stroke="none" stroke-width="0" stroke-linecap="butt"></path><path d="M208.55233,147.90701v-10.31396h62.89539v10.31396z" fill="#969696" stroke="none" stroke-width="0" stroke-linecap="butt"></path><path d="M216.29734,211.48042v-21.00188l21.13534,21.00188z" fill="#969696" stroke="none" stroke-width="0" stroke-linecap="butt"></path><path d="M223.41181,215.22399v-12.15842h44.05785v12.15842z" fill="#969696" stroke="none" stroke-width="0" stroke-linecap="butt"></path><text transform="translate(238.70954,219.56008) scale(0.47116,0.5)" font-size="40" xml:space="preserve" fill="#000000" fill-rule="nonzero" stroke="none" stroke-width="1" stroke-linecap="butt" stroke-linejoin="miter" stroke-miterlimit="10" stroke-dasharray="" stroke-dashoffset="0" font-family="Sans Serif" font-weight="normal" text-anchor="start" style="mix-blend-mode: normal"><tspan x="0" dy="0">175</tspan></text><g stroke-linecap="butt"><path d="M223.936,213.69347l-2.65375,6.84999l-2.38631,-6.84999z" data-paper-data="{&quot;index&quot;:null}" fill="#ffff00" stroke="#ffff00" stroke-width="1"></path><path d="M218.96775,202.31762l2.38632,-6.84999l2.65375,6.84999z" fill="#ffff00" stroke="#ffff00" stroke-width="1"></path><path d="M214.78435,208.21682c0,-3.72115 3.01658,-6.73773 6.73773,-6.73773c3.72115,0 6.73772,3.01658 6.73772,6.73773c0,3.72115 -3.01658,6.73772 -6.73772,6.73772c-3.72115,0 -6.73773,-3.01658 -6.73773,-6.73772z" fill="#ffff00" stroke="none" stroke-width="0"></path><path d="M227.21236,205.68172l6.87114,2.59848l-6.83054,2.44142z" data-paper-data="{&quot;index&quot;:null}" fill="#ffff00" stroke="#ffff00" stroke-width="1"></path><path d="M215.87692,210.74146l-6.86899,-2.33105l6.82838,-2.70885z" fill="#ffff00" stroke="#ffff00" stroke-width="1"></path><path d="M227.52794,210.32821l3.04475,6.68537l-6.56714,-3.08051z" data-paper-data="{&quot;index&quot;:null}" fill="#ffff00" stroke="#ffff00" stroke-width="1"></path><path d="M215.91926,205.9314l-3.23165,-6.49409l6.75404,2.88922z" fill="#ffff00" stroke="#ffff00" stroke-width="1"></path><path d="M224.08737,202.38559l6.66063,-3.0985l-3.02751,6.59174z" data-paper-data="{&quot;index&quot;:null}" fill="#ffff00" stroke="#ffff00" stroke-width="1"></path><path d="M219.78422,214.02932l-6.46785,3.28387l2.83472,-6.7771z" fill="#ffff00" stroke="#ffff00" stroke-width="1"></path><path d="M216.80059,208.41738c0,-2.70702 2.19448,-4.90151 4.9015,-4.90151c2.70702,0 4.90151,2.19448 4.90151,4.90151c0,2.70702 -2.19448,4.9015 -4.90151,4.9015c-2.70702,0 -4.9015,-2.19448 -4.9015,-4.9015z" fill="#fffff7" stroke="none" stroke-width="0"></path></g><path d="M272.35202,137.40138v33.64619l-33.86,-33.64619z" fill="#3aff00" stroke="none" stroke-width="0" stroke-linecap="butt"></path></g></g></svg>