<svg version="1.1" xmlns="http://www.w3.org/2000/svg" xmlns:xlink="http://www.w3.org/1999/xlink" width="32.4311" height="33.66185" viewBox="0,0,32.4311,33.66185"><g transform="translate(-218.04621,-158.49501)"><g data-paper-data="{&quot;isPaintingLayer&quot;:true}" fill="#9966ff" fill-rule="nonzero" stroke="none" stroke-width="0.5" stroke-linecap="butt" stroke-linejoin="miter" stroke-miterlimit="10" stroke-dasharray="" stroke-dashoffset="0" style="mix-blend-mode: normal"><path d="M234.42019,158.49501c0.74825,0.63382 2.04048,0.96888 2.40512,1.81544c0.04064,0.09434 0.06975,0.19504 0.08531,0.3032c0.37932,2.63709 -1.24135,5.1822 -1.81121,7.78477c-0.29179,1.33259 0.75901,4.26634 -0.06007,5.30483c-1.45966,1.85067 -2.49413,1.97286 -4.3448,0.5132c-2.54442,-2.00683 0.99081,-12.78261 1.17557,-13.50392c0.13187,-0.51482 0.53839,-1.60538 0.99527,-1.67534z"></path><path d="M245.54354,172.74992c-0.97246,1.67367 -2.25155,5.77772 -5.18381,4.15601c-3.3044,-1.82753 3.14678,-11.11454 4.14401,-12.50571c0.06849,-0.16778 0.15468,-0.32645 0.25626,-0.4737c0.45094,-0.65367 1.20509,-1.08208 2.05929,-1.08208c1.38071,0 2.5,1.11929 2.5,2.5c0,0.46084 -0.12469,0.89256 -0.34218,1.26326c-0.16405,1.65271 -1.78522,3.30529 -3.43357,6.14222z"></path><path d="M220.83449,177.87708c4.60813,0.56104 7.09656,6.26246 11.40379,7.99375c2.75323,1.10666 5.97553,0.68598 8.90005,0.18383c2.43945,-0.41887 4.48989,-3.74724 6.82475,-2.92577c7.60054,2.67406 -4.38963,7.32112 -5.07635,7.65039c-9.59312,4.59972 -17.29243,-3.38179 -23.7962,-8.36657c-0.0306,-0.02195 -0.06068,-0.04457 -0.09022,-0.06785c-0.34934,-0.25931 -0.79962,-0.57083 -0.75252,-0.97975c-0.12973,-0.30229 -0.20158,-0.63532 -0.20158,-0.98512c0,-1.38071 1.11929,-2.5 2.5,-2.5c0.00258,0 0.00516,0 0.00774,0.00001c0.09225,-0.01291 0.18582,-0.01445 0.28055,-0.00292z"></path></g></g></svg>