<svg version="1.1" xmlns="http://www.w3.org/2000/svg" xmlns:xlink="http://www.w3.org/1999/xlink" width="11.64461" height="49.6928" viewBox="0,0,11.64461,49.6928"><g transform="translate(-217.05726,-151.17122)"><g data-paper-data="{&quot;isPaintingLayer&quot;:true}" fill-rule="nonzero" stroke="#000000" stroke-width="0.5" stroke-linejoin="miter" stroke-miterlimit="10" stroke-dasharray="" stroke-dashoffset="0" style="mix-blend-mode: normal"><path d="M217.90209,200.56093v-40.13478h8.13158v40.13478z" fill="#0b8100" stroke-linecap="butt"></path><path d="M217.91373,200.61402v-23.24734h8.20606v23.24734z" fill="#740000" stroke-linecap="butt"></path><path d="M217.91373,188.03498v-10.6683h3.76514z" fill="#ffffff" stroke-linecap="butt"></path><path d="M217.85594,184.27742v-7.00605h2.47263z" fill="#ff0000" stroke-linecap="butt"></path><path d="M221.43383,167.91586c0,2.46086 -0.62987,4.45579 -1.40685,4.45579c-0.77698,0 -1.40685,-1.99492 -1.40685,-4.45579c0,-0.71012 0.05245,-1.38144 0.14575,-1.97723c0.23002,-1.46885 0.70833,-2.47856 1.2611,-2.47856c0.77698,0 1.40685,1.99492 1.40685,4.45579z" fill="#000000" stroke-linecap="butt"></path><path d="M217.33797,163.89335l1.65104,-12.44142l9.43214,1.25169l-1.65104,12.44141z" fill="#ababab" stroke-linecap="butt"></path><path d="M218.15486,163.82776c0,0 -0.56346,3.43053 2.71736,3.83138c5.09771,0.62283 5.76354,-2.47032 5.76354,-2.47032" fill="none" stroke-linecap="round"></path></g></g></svg>