<svg version="1.1" xmlns="http://www.w3.org/2000/svg" xmlns:xlink="http://www.w3.org/1999/xlink" width="58.51412" height="64.85882" viewBox="0,0,58.51412,64.85882"><g transform="translate(-210.74294,-147.57059)"><g data-paper-data="{&quot;isPaintingLayer&quot;:true}" fill-rule="nonzero" stroke="#000000" stroke-width="1.28786" stroke-linecap="butt" stroke-linejoin="miter" stroke-miterlimit="10" stroke-dasharray="" stroke-dashoffset="0" style="mix-blend-mode: normal"><path d="M239.15011,208.56103c0,0 -3.82905,-9.61318 -4.43363,-17.33147c-0.4061,-5.18437 4.43363,-15.5177 4.43363,-15.5177h6.44891c0,0 -4.25064,10.29524 -3.82904,15.5177c0.60459,7.48915 3.82904,17.33147 3.82904,17.33147z" fill="#09ff00"></path><g><path d="M243.77101,184.7311c0.78666,3.62278 5.03009,7.02078 5.03009,7.02078c0,0 -7.34519,1.07897 -8.52119,0.69449c-2.2826,-0.74625 -4.99868,-1.79783 -5.51785,-4.18878c-0.78666,-3.62278 0.41487,-6.95899 2.68367,-7.45163c2.26881,-0.49265 5.53862,0.30237 6.32529,3.92514z" fill="#007cc5"></path><path d="M238.05053,191.9796c-1.53781,6.46012 2.80521,10.98298 2.68911,10.95534c-3.20571,-0.76311 -15.2214,-5.74078 -13.6258,-12.44363c1.59559,-6.70285 5.48781,-11.51795 8.69353,-10.75484c3.20571,0.76311 3.83876,5.54029 2.24316,12.24314z" fill="#09ff00"></path><path d="M242.11027,162.4895c2.3857,-2.83756 0.99864,-7.60928 0.99864,-7.60928c0,0 7.53314,2.66033 7.94796,3.82598c0.80515,2.26249 1.63375,5.05469 0.05924,6.92742c-2.3857,2.83756 -5.76028,3.92668 -7.53734,2.4326c-1.77706,-1.49408 -3.8542,-2.73915 -1.4685,-5.57671z" fill="#007cc5"></path><path d="M252.05063,160.7557c6.05213,-2.73307 6.97559,-8.9351 7.02471,-8.82635c1.35623,3.00326 4.76421,15.55474 -1.51532,18.3905c-6.27953,2.83576 -12.46955,2.69997 -13.82578,-0.30328c-1.35623,-3.00326 2.03686,-6.4251 8.31639,-9.26086z" fill="#09ff00"></path><path d="M228.83141,165.28525c-2.67441,-2.56728 -7.03656,-1.18635 -7.03656,-1.18635c0,0 3.89818,-5.60794 5.08861,-5.94515c2.31057,-0.65451 5.15125,-1.29754 6.91629,0.3968c2.67441,2.56728 3.53906,6.00621 1.93128,7.68109c-1.60779,1.67487 -4.22521,1.62089 -6.89962,-0.94638z" fill="#007cc5"></path><path d="M228.99393,157.29703c-2.32884,-6.21888 -8.45666,-7.5485 -8.3449,-7.59035c3.086,-1.15564 15.83456,-3.73019 18.2509,2.72235c2.41634,6.45255 1.87348,12.6202 -1.21252,13.77584c-3.086,1.15564 -6.27714,-2.4553 -8.69347,-8.90785z" fill="#09ff00"></path><path d="M227.85818,177.9204c-0.0991,0.10804 1.72193,2.0383 1.63033,2.15917c-2.2248,2.93537 -4.19829,7.6303 -4.19829,7.6303c0,0 -3.52788,-5.60411 -3.89198,-6.7866c-0.70671,-2.29514 -1.41397,-5.12053 0.23992,-6.92351c2.506,-2.73191 5.92445,-3.67429 7.63534,-2.10488c1.71089,1.56941 1.09068,3.2936 -1.41531,6.02552z" fill="#007cc5"></path><path d="M220.49389,178.83278c-6.16449,2.4692 -7.35488,8.62559 -7.39925,8.51481c-1.22529,-3.05901 -4.08815,-15.74594 2.30797,-18.30792c6.39612,-2.56198 12.57449,-2.15906 13.79979,0.89996c1.22529,3.05901 -2.31238,6.33117 -8.7085,8.89314z" fill="#09ff00"></path><path d="M251.6151,174.05488c3.70404,-0.15304 7.56253,-2.72166 7.56253,-2.72166c0,0 -0.29507,4.08574 -0.87573,5.17829c-1.12703,2.1206 -2.62928,4.61583 -5.07385,4.71683c-3.70404,0.15304 -6.78444,-1.60339 -6.8803,-3.92308c-0.09584,-2.3197 1.56331,-3.09733 5.26736,-3.25037z" fill="#007cc5"></path><path d="M257.35846,178.82937c6.10021,2.62401 11.3015,-0.87806 11.25435,-0.76844c-1.30212,3.02711 -8.26868,14.00987 -14.59809,11.28727c-6.32941,-2.72261 -10.40484,-7.38367 -9.10272,-10.41079c1.30212,-3.02711 6.11705,-2.83063 12.44646,-0.10803z" fill="#09ff00"></path><path d="M227.19873,174.89906c0,-6.35012 5.14779,-11.49792 11.49792,-11.49792c6.35012,0 11.49792,5.14779 11.49792,11.49792c0,6.35012 -5.14779,11.49792 -11.49792,11.49792c-6.35012,0 -11.49792,-5.14779 -11.49792,-11.49792z" fill="#67ffed"></path><path d="M238.64621,172.22631c0,2.31167 -0.65477,4.18564 -1.46246,4.18564c-0.80769,0 -1.46246,-1.87397 -1.46246,-4.18564c0,-2.31167 0.65477,-4.18564 1.46246,-4.18564c0.80769,0 1.46246,1.87397 1.46246,4.18564z" fill="#000000"></path><path d="M244.2943,172.42802c0,2.47878 -0.69992,4.48822 -1.56331,4.48822c-0.8634,0 -1.56331,-2.00945 -1.56331,-4.48822c0,-2.47878 0.69992,-4.48822 1.56331,-4.48822c0.8634,0 1.56331,2.00945 1.56331,4.48822z" fill="#000000"></path><path d="M248.63125,180.59759c0,3.03581 -4.17694,5.49681 -9.32945,5.49681c-5.15251,0 -10.03546,-2.461 -10.03546,-5.49681c0,-1.16275 -1.16794,-3.02513 -1.10318,-3.42657c0.10432,-0.64669 2.66563,0.7281 6.90256,1.66153c5.03185,1.10856 13.56552,-1.27078 13.56552,1.76503z" fill="#67ffed"></path></g><path d="M233.90817,211.18089c-4.62021,0 -8.36563,-1.51131 -8.36563,-3.3756c0,-1.86429 3.74542,-3.3756 8.36563,-3.3756c4.62021,0 8.36563,1.51131 8.36563,3.3756c0,1.86429 -3.74542,3.3756 -8.36563,3.3756z" fill="#09ff00"></path><path d="M250.23199,211.78548c-4.62021,0 -8.36563,-1.5113 -8.36563,-3.3756c0,-1.86429 3.74541,-3.3756 8.36563,-3.3756c4.62022,0 8.36563,1.5113 8.36563,3.3756c0,1.86429 -3.74541,3.3756 -8.36563,3.3756z" fill="#09ff00"></path></g></g></svg>