<svg version="1.1" xmlns="http://www.w3.org/2000/svg" xmlns:xlink="http://www.w3.org/1999/xlink" width="40.85084" height="44.18559" viewBox="0,0,40.85084,44.18559"><g transform="translate(-219.50426,-161.88493)"><g data-paper-data="{&quot;isPaintingLayer&quot;:true}" fill-rule="nonzero" stroke="#000000" stroke-width="1.28786" stroke-linejoin="miter" stroke-miterlimit="10" stroke-dasharray="" stroke-dashoffset="0" style="mix-blend-mode: normal"><path d="M228.19154,205.4266v-23.68375h23.68375v23.68375z" fill="#fff9c9" stroke-linecap="butt"></path><path d="M220.1755,183.20031c0,0 0.88504,-21.30036 20.40446,-21.31538c19.73489,-0.01519 19.12918,21.31538 19.12918,21.31538z" fill="#fff300" stroke-linecap="butt"></path><path d="M237.11849,189.30343c0,3.57189 -0.85645,6.46749 -1.91292,6.46749c-1.05647,0 -1.91292,-2.8956 -1.91292,-6.46749c0,-3.57189 0.85645,-6.46749 1.91292,-6.46749c1.05647,0 1.91292,2.8956 1.91292,6.46749z" fill="#000000" stroke-linecap="butt"></path><path d="M242.21961,199.77893c0,0 -3.85114,3.34466 -8.42892,0.73431c-1.62893,-0.92885 -2.68422,-2.19177 -2.68422,-2.19177" fill="none" stroke-linecap="round"></path><path d="M245.4989,189.84998c0,3.57189 -0.85645,6.46749 -1.91292,6.46749c-1.05647,0 -1.91292,-2.8956 -1.91292,-6.46749c0,-3.57189 0.85645,-6.46749 1.91292,-6.46749c1.05647,0 1.91292,2.8956 1.91292,6.46749z" fill="#000000" stroke-linecap="butt"></path></g></g></svg>