<svg version="1.1" xmlns="http://www.w3.org/2000/svg" xmlns:xlink="http://www.w3.org/1999/xlink" width="17.32222" height="17.83681" viewBox="0,0,17.32222,17.83681"><g transform="translate(-231.33889,-171.08159)"><g data-paper-data="{&quot;isPaintingLayer&quot;:true}" fill="#ffb300" fill-rule="nonzero" stroke="none" stroke-width="0" stroke-linecap="butt" stroke-linejoin="miter" stroke-miterlimit="10" stroke-dasharray="" stroke-dashoffset="0" style="mix-blend-mode: normal"><path d="M237.05516,182.80829c0,0 -5.63057,-0.88357 -5.71522,-2.43487c-0.08794,-1.55139 5.40801,-3.05604 5.40801,-3.05604c0,0 -0.90023,-5.62762 0.55005,-6.18989c1.44854,-0.56072 4.57795,4.20118 4.57795,4.20118c0,0 5.07292,-2.59497 6.05512,-1.39059c0.98189,1.20333 -2.57935,5.65222 -2.57935,5.65222c0,0 4.03595,4.02347 3.19382,5.32955c-0.84114,1.30584 -6.173,-0.70708 -6.173,-0.70708c0,0 -2.5789,5.07969 -4.08001,4.68363c-1.50413,-0.39516 -1.23737,-6.08813 -1.23737,-6.08813z" data-paper-data="{&quot;index&quot;:null}"></path></g></g></svg>