<svg version="1.1" xmlns="http://www.w3.org/2000/svg" xmlns:xlink="http://www.w3.org/1999/xlink" width="57.04234" height="60.55538" viewBox="0,0,57.04234,60.55538"><g transform="translate(-291.3842,-149.72266)"><g stroke="#000000" stroke-width="1.28786" stroke-miterlimit="10"><path d="M312.82166,170.74371c0,0 3.79205,-16.08447 9.28471,-19.47197c5.49265,-3.3875 16.08737,3.82418 16.08737,3.82418c0,0 -11.71367,15.21918 -15.15408,17.34099c-3.44041,2.12181 -10.218,-1.69319 -10.218,-1.69319z" fill="#00ab1f" stroke-linecap="round"/><path d="M326.85745,179.85789c0,0 4.976,16.25264 0.67814,25.37584c-2.0108,4.26838 -3.23029,4.39968 -3.23029,4.39968l-7.02646,-0.14233c0,0 -0.50835,-0.93014 -2.85389,-3.98941c-2.97644,-5.09554 -1.35627,-25.03476 -1.35627,-25.03476z" fill="#88ff9e" stroke-linecap="round"/><path d="M317.41713,169.01025c0,0 11.8784,-11.48883 18.33061,-11.3733c6.45222,0.11553 11.47393,11.90699 11.47393,11.90699c0,0 -18.07799,6.48227 -22.11943,6.4099c-4.04144,-0.07237 -7.68512,-6.94359 -7.68512,-6.94359z" fill="#00ab1f" stroke-linecap="round"/><path d="M311.14867,176.68353c-3.44041,-2.12181 -15.15407,-17.34098 -15.15407,-17.34098c0,0 10.59472,-7.21168 16.08736,-3.82418c5.49265,3.3875 9.28471,19.47197 9.28471,19.47197c0,0 -6.77759,3.815 -10.218,1.69319z" fill="#00ab1f" stroke-linecap="round"/><path d="M314.7122,178.94925c-4.02781,0.33941 -22.49481,-4.93349 -22.49481,-4.93349c0,0 4.23117,-12.09767 10.66162,-12.63952c6.43045,-0.54186 19.04243,10.13653 19.04243,10.13653c0,0 -3.18143,7.09709 -7.20924,7.43648z" fill="#00ab1f" stroke-linecap="round"/><path d="M321.10683,179.53765c-2.322,3.30859 -18.20871,14.0996 -18.20871,14.0996c0,0 -6.57103,-11.00353 -2.86393,-16.28575c3.7071,-5.28222 19.98806,-8.11425 19.98806,-8.11425c0,0 3.40658,6.9918 1.08457,10.30039z" fill="#00ab1f" stroke-linecap="round"/><path d="M321.79704,169.92464c0,0 15.94438,-4.34354 21.54249,-1.13331c5.59811,3.21022 4.31671,15.96225 4.31671,15.96225c0,0 -18.96439,-3.03074 -22.47085,-5.04151c-3.50645,-2.01078 -3.38836,-9.78742 -3.38836,-9.78742z" fill="#00ab1f" stroke-linecap="round"/><path d="M318.90701,194.21384c0,2.82329 -0.55851,5.11201 -1.24747,5.11201c-0.68896,0 -1.24747,-2.28873 -1.24747,-5.11201c0,-2.82329 0.55851,-5.11201 1.24747,-5.11201c0.68896,0 1.24747,2.28873 1.24747,5.11201z" fill="#000000" stroke-linecap="butt"/><path d="M324.58747,193.94867c0,2.82329 -0.55851,5.11201 -1.24747,5.11201c-0.68896,0 -1.24747,-2.28873 -1.24747,-5.11201c0,-2.82329 0.55851,-5.11201 1.24747,-5.11201c0.68896,0 1.24747,2.28873 1.24747,5.11201z" fill="#000000" stroke-linecap="butt"/><path d="M313.8864,177.74651c-1.12106,-3.88351 4.37235,-9.38919 4.37235,-9.38919c0,0 14.47754,7.96812 16.26732,14.1682c1.78978,6.20008 -7.99983,14.4717 -7.99983,14.4717c0,0 -11.5188,-15.36721 -12.63985,-19.25072z" fill="#00ab1f" stroke-linecap="round"/><g stroke-linecap="butt"><path d="M314.33534,163.95212c1.54655,-1.28821 5.45484,-0.12138 8.72941,2.60621c3.27457,2.72759 4.6754,5.98304 3.12884,7.27126c-1.54655,1.28821 -5.45484,0.12138 -8.72941,-2.60621c-3.27457,-2.72759 -4.6754,-5.98304 -3.12885,-7.27126z" fill="#ffffff"/><path d="M323.06102,171.00907c-3.27457,2.72759 -7.18286,3.89442 -8.72941,2.60621c-1.54655,-1.28821 -0.14572,-4.54367 3.12884,-7.27126c3.27457,-2.72759 7.18286,-3.89442 8.72941,-2.60621c1.54655,1.28821 0.14572,4.54367 -3.12884,7.27126z" fill="#ffffff"/><path d="M320.05434,172.05632c-4.63093,0 -8.38505,-1.47687 -8.38505,-3.29869c0,-1.82182 3.75412,-3.29869 8.38505,-3.29869c4.63093,0 8.38505,1.47687 8.38505,3.29869c0,1.82182 -3.75412,3.29869 -8.38505,3.29869z" fill="#ffffff"/><path d="M316.17485,169.03565c0,-3.85739 1.77305,-6.98442 3.96019,-6.98442c2.18716,0 3.96019,3.12704 3.96019,6.98442c0,3.85739 -1.77305,6.98442 -3.96019,6.98442c-2.18716,0 -3.96019,-3.12704 -3.96019,-6.98442z" fill="#ffffff"/><path d="M316.17483,168.78949c0,-1.78691 1.73907,-3.23549 3.88431,-3.23549c2.14525,0 3.88431,1.44858 3.88431,3.23549c0,1.78691 -1.73907,3.23549 -3.88431,3.23549c-2.14525,0 -3.88431,-1.44858 -3.88431,-3.23549z" fill="#fff701"/></g></g></g></svg>