<svg version="1.1" xmlns="http://www.w3.org/2000/svg" xmlns:xlink="http://www.w3.org/1999/xlink" width="53.89153" height="61.88853" viewBox="0,0,53.89153,61.88853"><g transform="translate(-213.05423,-149.05573)"><g data-paper-data="{&quot;isPaintingLayer&quot;:true}" fill-rule="nonzero" stroke="#000000" stroke-width="1.28786" stroke-linejoin="miter" stroke-miterlimit="10" stroke-dasharray="" stroke-dashoffset="0" style="mix-blend-mode: normal"><g><path d="M227.42893,188.06864c-8.44005,4.8267 -8.92177,13.99472 -9.00852,13.84305c-2.39515,-4.18822 -9.11113,-22.0069 -0.35397,-27.01494c8.75716,-5.00804 17.7979,-5.67265 20.19305,-1.48443c2.39515,4.18822 -2.07343,9.64829 -10.8306,14.65633z" fill="#07d200" stroke-linecap="butt"></path><path d="M228.90072,164.60477c0.2823,-9.71863 -7.28953,-14.91016 -7.11488,-14.9051c4.82269,0.14009 23.52917,3.70059 23.23625,13.78437c-0.29292,10.08379 -4.43991,18.14473 -9.2626,18.00464c-4.82269,-0.14009 -7.15168,-6.80016 -6.85877,-16.88393z" fill="#07d200" stroke-linecap="butt"></path><path d="M235.65456,207.36593c0,0 -3.48462,-8.74846 -4.03482,-15.77247c-0.36957,-4.71803 4.03482,-14.12185 4.03482,-14.12185h5.86882c0,0 -3.86828,9.36916 -3.48461,14.12185c0.5502,6.81549 3.48461,15.77247 3.48461,15.77247z" fill="#09ff00" stroke-linecap="butt"></path><path d="M249.82357,175.97148c8.93148,3.84189 16.54682,-1.28559 16.4778,-1.1251c-1.90647,4.43208 -12.10638,20.51222 -21.37344,16.52598c-9.26706,-3.98624 -15.234,-10.81063 -13.32753,-15.2427c1.90647,-4.43208 8.95614,-4.14441 18.22319,-0.15816z" fill="#07d200" stroke-linecap="butt"></path><path d="M224.77823,176.73192c0,-5.77892 4.68474,-10.46366 10.46366,-10.46366c5.77892,0 10.46366,4.68474 10.46366,10.46366c0,5.77892 -4.68474,10.46366 -10.46366,10.46366c-5.77892,0 -10.46366,-4.68474 -10.46366,-10.46366z" fill="#09ff00" stroke-linecap="butt"></path><path d="M235.19599,174.29959c0,2.10373 -0.59587,3.80914 -1.33091,3.80914c-0.73504,0 -1.33091,-1.70541 -1.33091,-3.80914c0,-2.10373 0.59587,-3.80914 1.33091,-3.80914c0.73504,0 1.33091,1.70541 1.33091,3.80914z" fill="#000000" stroke-linecap="butt"></path><path d="M240.33602,174.48316c0,2.25581 -0.63696,4.08449 -1.42269,4.08449c-0.78573,0 -1.42269,-1.8287 -1.42269,-4.08449c0,-2.25581 0.63696,-4.08449 1.42269,-4.08449c0.78573,0 1.42269,1.8287 1.42269,4.08449z" fill="#000000" stroke-linecap="butt"></path><path d="M230.88414,209.75014c-4.20461,0 -7.61313,-1.37536 -7.61313,-3.07195c0,-1.69659 3.40851,-3.07195 7.61313,-3.07195c4.20461,0 7.61313,1.37536 7.61313,3.07195c0,1.69659 -3.40851,3.07195 -7.61313,3.07195z" fill="#09ff00" stroke-linecap="butt"></path><path d="M245.7396,210.30034c-4.20461,0 -7.61313,-1.37535 -7.61313,-3.07195c0,-1.69659 3.4085,-3.07195 7.61313,-3.07195c4.20462,0 7.61313,1.37535 7.61313,3.07195c0,1.69659 -3.4085,3.07195 -7.61313,3.07195z" fill="#09ff00" stroke-linecap="butt"></path><path d="M235.4062,182.78883c0,0 -3.77324,-0.45902 -5.56472,-1.6829c-1.36025,-0.92928 -2.13811,-2.87592 -2.13811,-2.87592" fill="none" stroke-linecap="round"></path></g></g></g></svg>