<svg version="1.1" xmlns="http://www.w3.org/2000/svg" xmlns:xlink="http://www.w3.org/1999/xlink" width="37.92555" height="43.58731" viewBox="0,0,37.92555,43.58731"><g transform="translate(-300.82949,-158.03485)"><g stroke="#000000" stroke-width="1.28786" stroke-miterlimit="10"><path d="M312.55556,170.20045l-10.66667,-3.44444l2.44444,6.66667z" fill="#00f466" stroke-linecap="round"/><path d="M318.19207,168.7295l-5.71825,-9.70772l-5.44727,4.63682l7.71048,7.92124z" fill="#5d0000" stroke-linecap="round"/><path d="M305.22222,184.53378c0,-9.08202 7.36243,-16.44444 16.44444,-16.44444c9.08202,0 16.44444,7.36243 16.44444,16.44444c0,9.08202 -7.36243,16.44444 -16.44444,16.44444c-9.08202,0 -16.44444,-7.36243 -16.44444,-16.44444z" fill="#ff3b57" stroke-linecap="butt"/><path d="M324.66667,185.256c0,3.46712 -1.19391,6.27778 -2.66667,6.27778c-1.47276,0 -2.66667,-2.81066 -2.66667,-6.27778c0,-3.46712 1.19391,-6.27778 2.66667,-6.27778c1.47276,0 2.66667,2.81066 2.66667,6.27778z" fill="#ffffff" stroke-linecap="butt"/><path d="M331.88889,184.20045c0,3.6819 -1.14416,6.66667 -2.55556,6.66667c-1.41139,0 -2.55556,-2.98477 -2.55556,-6.66667c0,-3.6819 1.14416,-6.66667 2.55556,-6.66667c1.41139,0 2.55556,2.98477 2.55556,6.66667z" fill="#ffffff" stroke-linecap="butt"/><path d="M310.88889,192.20045l9.66667,2.44444" fill="none" stroke-linecap="round"/><path d="M315.33333,181.53378l6.88889,-6.22222" fill="none" stroke-linecap="round"/><path d="M328,172.97822l6.88889,6.22222" fill="none" stroke-linecap="round"/></g></g></svg>