<svg version="1.1" xmlns="http://www.w3.org/2000/svg" xmlns:xlink="http://www.w3.org/1999/xlink" width="96.1724" height="97.26079" viewBox="0,0,96.1724,97.26079"><g transform="translate(-191.9138,-131.23751)"><g data-paper-data="{&quot;isPaintingLayer&quot;:true}" fill-rule="nonzero" stroke-linejoin="miter" stroke-miterlimit="10" stroke-dasharray="" stroke-dashoffset="0" style="mix-blend-mode: normal"><path d="M192.4138,226.60088v-64.88824v-9.24098c0,0 2.20499,0 4.81102,0c11.2941,0 90.36138,0 90.36138,0v74.12922z" fill="#afafaf" stroke="#000000" stroke-width="1" stroke-linecap="butt"></path><path d="M192.4138,205.86673v-64.88824v-9.24098c0,0 2.20499,0 4.81102,0c11.2941,0 90.36138,0 90.36138,0v74.12922z" fill="#afafaf" stroke="#000000" stroke-width="1" stroke-linecap="butt"></path><text transform="translate(226.18157,222.60705) scale(0.4713,0.4713)" font-size="40" xml:space="preserve" fill="#000000" fill-rule="nonzero" stroke="none" stroke-width="1" stroke-linecap="butt" stroke-linejoin="miter" stroke-miterlimit="10" stroke-dasharray="" stroke-dashoffset="0" font-family="Sans Serif" font-weight="normal" text-anchor="start" style="mix-blend-mode: normal"><tspan x="0" dy="0">1-6</tspan></text><path d="M196.91902,199.90343v-60.82023h86.62275v60.82023z" fill="#939393" stroke="#000000" stroke-width="1" stroke-linecap="butt"></path><g stroke="#000000" stroke-width="0.5"><path d="M262.77972,195.46761v-46.7706h12.08653v46.7706z" fill="#ff0000" stroke-linecap="butt"></path><path d="M273.34574,157.68711c0,3.49785 -3.13467,6.33342 -7.00149,6.33342c-3.86682,0 -3.6611,-2.10497 -3.6611,-5.60283c0,-3.49786 -0.20572,-7.06401 3.6611,-7.06401c3.86681,0 7.00149,2.83556 7.00149,6.33342z" fill="#0b8100" stroke-linecap="butt"></path><path d="M268.02918,157.42503c0,2.86774 -0.93621,5.19251 -2.0911,5.19251c-1.15488,0 -2.09111,-2.32476 -2.09111,-5.19251c0,-2.86774 0.64576,-3.79772 1.80065,-3.79772c1.15488,0 2.38155,0.92998 2.38155,3.79772z" fill="#000000" stroke-linecap="butt"></path><path d="M268.72244,150.43728l-5.57939,4.66823" fill="none" stroke-linecap="round"></path><path d="M270.36843,179.29607c0,2.97121 -2.77432,5.37984 -6.19663,5.37984c-1.63224,0 -1.21163,-4.89326 -1.21163,-4.89326c0,0 -0.57843,-5.86642 1.21163,-5.86642c3.42231,0 6.19663,2.40864 6.19663,5.37985z" fill="#ffffff" stroke-linecap="butt"></path><path d="M278.20841,158.24611l-1.58615,-2.69367l-3.13597,4.44314l2.70875,-6.37431l1.70888,2.006l2.47696,-3.47041z" data-paper-data="{&quot;index&quot;:null}" fill="#e6ff00" stroke-linecap="round"></path><path d="M263.15188,176.77251l2.70875,6.37431l-3.13597,-4.44314z" data-paper-data="{&quot;index&quot;:null}" fill="#e6ff00" stroke-linecap="round"></path></g><g stroke="#000000" stroke-width="0.5" stroke-linecap="butt"><path d="M203.05985,195.91138v-46.89618h9.50149v46.89618z" fill="#0b8100"></path><path d="M203.07345,195.97341v-27.16376h9.58851v27.16376z" fill="#740000"></path><path d="M203.07345,181.2752v-12.46556h4.39944z" fill="#ffffff"></path><path d="M203.00592,176.88462v-8.18634h2.88919z" fill="#ff0000"></path><path d="M207.18657,157.76668c0,2.87543 -0.73598,5.20645 -1.64386,5.20645c-0.90788,0 -1.64386,-2.331 -1.64386,-5.20645c0,-2.87543 0.73598,-5.20645 1.64386,-5.20645c0.90788,0 1.64386,2.331 1.64386,5.20645z" fill="#000000"></path></g><g stroke="#000000" stroke-width="0.5" stroke-linecap="butt"><path d="M222.62451,194.98712v-41.52823l8.91062,-0.21319v41.74142z" fill="#0b8100"></path><path d="M222.63726,195.04527v-25.47454h8.99224v25.47454z" fill="#740000"></path><path d="M222.63726,181.26112v-11.69037h4.12586z" fill="#ffffff"></path><path d="M222.57393,177.14357v-7.67726h2.70951z" fill="#ff0000"></path><path d="M226.49461,159.2145c0,2.69663 -0.6902,4.88267 -1.54163,4.88267c-0.85142,0 -1.54164,-2.18604 -1.54164,-4.88267c0,-2.69663 0.69021,-4.88267 1.54164,-4.88267c0.85142,0 1.54163,2.18604 1.54163,4.88267z" fill="#000000"></path><path d="M221.68912,157.03117v-4.18855h10.61586v4.18855z" fill="#ff6e00"></path><path d="M222.48851,152.70407l2.55822,-8.77144h3.90063l2.66482,8.77144z" fill="#ff6e00"></path></g><g stroke="#000000" stroke-width="0.5"><path d="M242.56529,195.91391v-44.96245h9.1097v44.96245z" fill="#0b8100" stroke-linecap="butt"></path><path d="M242.57833,195.9734v-26.04368h9.19314v26.04368z" fill="#740000" stroke-linecap="butt"></path><path d="M242.57833,181.88127v-11.95155h4.21804z" fill="#ffffff" stroke-linecap="butt"></path><path d="M242.51359,177.67172v-7.84878h2.77005z" fill="#ff0000" stroke-linecap="butt"></path><path d="M246.52185,159.34209c0,2.75687 -0.70563,4.99176 -1.57608,4.99176c-0.87044,0 -1.57608,-2.23488 -1.57608,-4.99176c0,-0.79554 0.05876,-1.54761 0.16328,-2.21506c0.25769,-1.64553 0.79353,-2.7767 1.41279,-2.7767c0.87044,0 1.57608,2.23488 1.57608,4.99176z" fill="#000000" stroke-linecap="butt"></path><path d="M241.93332,154.83573l1.84964,-13.93795l10.5667,1.40225l-1.84964,13.93794z" fill="#ababab" stroke-linecap="butt"></path><path d="M252.34951,156.28702c0,0 -0.74592,3.46521 -6.45682,2.76747c-3.67546,-0.44907 -3.04422,-4.29224 -3.04422,-4.29224" fill="none" stroke-linecap="round"></path></g></g></g></svg>