<svg version="1.1" xmlns="http://www.w3.org/2000/svg" xmlns:xlink="http://www.w3.org/1999/xlink" width="64.66759" height="89.62764" viewBox="0,0,64.66759,89.62764"><g transform="translate(-287.5598,-136.83978)"><g stroke-miterlimit="10"><path d="M288.55231,222.407v-84.81396h62.89539v84.81396z" fill="#515151" stroke="none" stroke-width="0" stroke-linecap="butt"/><g stroke="#000000" stroke-width="1.28786"><path d="M336.37635,202.24354c0,0 -10.19228,-1.94793 -15.15784,-2.02204c-5.0952,-0.07604 -15.03448,1.57141 -15.03448,1.57141l-5.16568,-5.66785l-9.61348,-8.01122l8.01123,0.40057l-6.80955,-6.20871l7.61068,-1.0014l3.00421,-4.40618l5.07378,0.13353l-3.27125,-4.5397v-8.01122l3.80533,3.40477l5.20731,-5.60785l2.63807,2.88961l-0.51888,-5.00578l5.66818,-6.23903l4.23204,5.84919l-0.54069,5.43381l3.74063,-3.48773l2.40337,5.60786l6.60926,-3.2045v8.01123l-3.67181,4.27265l5.47433,0.13352l3.00421,4.40617l6.39955,1.00141l-5.59842,6.20869l6.49732,-0.40056l-8.09957,8.01122z" fill="#27ffb8" stroke-linecap="round"/><path d="M321.87509,200.55685l-15.90744,8.57973l-3.31028,-3.04518l-0.18907,3.99632l-7.29553,0.62265l-5.48169,-1.68129l4.73756,-4.93507l3.7658,0.49829l-0.1914,-3.27018l11.01609,-4.28444" fill="#27ffb8" stroke-linecap="round"/><path d="M333.44686,197.25041l11.01611,4.28444l-0.1914,3.27018l3.7658,-0.49829l2.61808,4.93508l-3.3622,1.68129l-7.29553,-0.62265l-0.18907,-3.99632l-3.31028,3.04518l-15.90744,-8.57973" fill="#27ffb8" stroke-linecap="round"/><path d="M316.6852,183.14393l-5.07545,-2.86325l4.38182,0.04005z" fill="#000000" stroke-linecap="round"/><path d="M325.76081,180.13572l4.38182,-0.04005l-5.07546,2.86325z" fill="#000000" stroke-linecap="round"/><path d="M318.13243,181.38207c0,3.44327 -0.81293,6.2346 -1.81575,6.2346c-1.00282,0 -1.81575,-2.79133 -1.81575,-6.2346c0,-3.44327 0.81294,-6.23459 1.81575,-6.23459c1.00282,0 1.81575,2.79132 1.81575,6.23459z" fill="#ffffff" stroke-linecap="butt"/><path d="M326.07631,181.92277c0,3.55756 -0.78006,6.44152 -1.74231,6.44152c-0.96226,0 -1.74231,-2.88396 -1.74231,-6.44152c0,-3.55756 0.78006,-6.44152 1.74231,-6.44152c0.96226,0 1.74231,2.88397 1.74231,6.44152z" fill="#ffffff" stroke-linecap="butt"/><path d="M303.06421,195.28635l-1.47114,-3.85193l6.53844,1.3867l-0.32692,-5.85494l12.67783,13.60863h-29.47198z" fill="#27ffb8" stroke-linecap="round"/><path d="M314.97035,193.49677l10.62224,-2.83566l-1.20643,3.18515l-5.68798,-1.2818z" fill="#ffffff" stroke-linecap="round"/><path d="M348.98956,201.01021l-26.61105,-0.30278l11.95004,-13.60863l-0.30816,5.85493l6.16309,-1.3867l-1.3867,3.85193z" fill="#27ffb8" stroke-linecap="round"/></g><path d="M288.55233,222.38704v-12.81396h62.89539v12.81396z" fill="#969696" stroke="none" stroke-width="0" stroke-linecap="butt"/><path d="M288.50229,222.35704v-84.81396h8.64539v84.81396z" fill="#969696" stroke="none" stroke-width="0" stroke-linecap="butt"/><path d="M344.04987,222.40517v-84.81396h8.14539v84.81396z" fill="#969696" stroke="none" stroke-width="0" stroke-linecap="butt"/><path d="M288.55233,147.90703v-10.31396h62.89539v10.31396z" fill="#969696" stroke="none" stroke-width="0" stroke-linecap="butt"/><path d="M296.29734,211.48044v-21.00188l21.13534,21.00188z" fill="#969696" stroke="none" stroke-width="0" stroke-linecap="butt"/><path d="M303.41181,215.22401v-12.15842c0,0 25.81745,0 33.81975,0c4.4029,0 10.2381,0 10.2381,0v12.15842z" fill="#969696" stroke="none" stroke-width="0" stroke-linecap="butt"/><text transform="translate(337.43001,220.21742) scale(0.47116,0.5)" font-size="40" xml:space="preserve" fill="#000000" stroke="none" stroke-width="1" stroke-linecap="butt" font-family="Sans Serif" font-weight="normal" text-anchor="start"><tspan x="0" dy="0">0</tspan></text><g stroke-linecap="butt"><path d="M303.936,213.69349l-2.65375,6.84999l-2.38631,-6.84999z" fill="#ffff00" stroke="#ffff00" stroke-width="1"/><path d="M298.96775,202.31764l2.38632,-6.84999l2.65375,6.84999z" fill="#ffff00" stroke="#ffff00" stroke-width="1"/><path d="M294.78435,208.21684c0,-3.72115 3.01658,-6.73773 6.73773,-6.73773c3.72115,0 6.73772,3.01658 6.73772,6.73773c0,3.72115 -3.01658,6.73772 -6.73772,6.73772c-3.72115,0 -6.73773,-3.01658 -6.73773,-6.73772z" fill="#ffff00" stroke="none" stroke-width="0"/><path d="M307.21236,205.68174l6.87114,2.59848l-6.83054,2.44142z" fill="#ffff00" stroke="#ffff00" stroke-width="1"/><path d="M295.87692,210.74148l-6.86899,-2.33105l6.82838,-2.70885z" fill="#ffff00" stroke="#ffff00" stroke-width="1"/><path d="M307.52794,210.32823l3.04475,6.68537l-6.56714,-3.08051z" fill="#ffff00" stroke="#ffff00" stroke-width="1"/><path d="M295.91926,205.93142l-3.23165,-6.49409l6.75404,2.88922z" fill="#ffff00" stroke="#ffff00" stroke-width="1"/><path d="M304.08737,202.38561l6.66063,-3.0985l-3.02751,6.59174z" fill="#ffff00" stroke="#ffff00" stroke-width="1"/><path d="M299.78422,214.02934l-6.46785,3.28387l2.83472,-6.7771z" fill="#ffff00" stroke="#ffff00" stroke-width="1"/><path d="M296.80059,208.4174c0,-2.70702 2.19448,-4.90151 4.9015,-4.90151c2.70702,0 4.90151,2.19448 4.90151,4.90151c0,2.70702 -2.19448,4.9015 -4.90151,4.9015c-2.70702,0 -4.9015,-2.19448 -4.9015,-4.9015z" fill="#fffff7" stroke="none" stroke-width="0"/></g><path d="M352.22739,136.83978v33.64619l-33.86,-33.64619z" fill="#ffe000" stroke="none" stroke-width="0" stroke-linecap="butt"/></g></g></svg>