<svg version="1.1" xmlns="http://www.w3.org/2000/svg" xmlns:xlink="http://www.w3.org/1999/xlink" width="54.93798" height="63.94631" viewBox="0,0,54.93798,63.94631"><g transform="translate(-213.21093,-155.26296)"><g data-paper-data="{&quot;isPaintingLayer&quot;:true}" fill-rule="nonzero" stroke="#000000" stroke-width="1.28786" stroke-linecap="round" stroke-linejoin="miter" stroke-miterlimit="10" stroke-dasharray="" stroke-dashoffset="0" style="mix-blend-mode: normal"><path d="M253.24988,196.49417l-11.94115,-3.04618l-13.18385,2.67118l-4.2987,-4.71659l-8,-6.66666l6.66667,0.33334l-5.66667,-5.16667l6.33334,-0.83333l2.5,-3.66667l4.22222,0.11112l-2.72222,-3.77778v-6.66666l3.16666,2.83333l4.33334,-4.66666l2.19531,2.40463l-0.43179,-4.16564l4.71686,-5.1919l3.52176,4.86749l-0.44994,4.52183l3.11282,-2.90237l2,4.66667l5.5,-2.66667v6.66667l-3.05555,3.55555l4.55555,0.11111l2.5,3.66666l6.33334,0.83334l-5.66667,5.16666l6.66667,-0.33333l-8,6.66666z" fill="#27ffb8"></path><path d="M234.84723,198.50747l-6.90242,3.72284l-2.7547,-2.53409l-0.15734,3.3256l-6.07109,0.51815l-4.56167,-1.39911l3.94243,-4.10679l3.13377,0.41466l-0.15928,-2.72133l3.66096,-1.42384" fill="#27ffb8"></path><path d="M254.77068,193.81756l5.27222,2.0505l-0.15928,2.72133l3.13377,-0.41466l3.94243,4.1068l-4.56166,1.39911l-6.07109,-0.51815l-0.15734,-3.3256l-2.7547,2.53409l-5.96467,-3.21706" data-paper-data="{&quot;index&quot;:null}" fill="#27ffb8"></path><path d="M244.31074,178.42308l3.75165,-0.3596l-4.22362,2.3827z" fill="#000000"></path><path d="M228.21379,201.9418l-3.28184,-1.00158l4.25135,-3.58648l-4.01299,-2.77652l15.41622,-1.37514l-17.37748,22.34274z" fill="#27ffb8"></path><path d="M235.43655,189.21541l8.83946,-2.35974l1.17787,3.65057l-6.91516,-2.06667z" fill="#ffffff"></path><path d="M258.85016,213.84551l-17.13952,-20.44669l15.06714,0.34601l-3.89867,2.93346l4.17908,3.18914l-3.19785,1.17485z" data-paper-data="{&quot;index&quot;:null}" fill="#27ffb8"></path><path d="M234.44243,175.58208l5.09963,5.29931l-5.89824,2.0046" fill="none"></path><path d="M247.90497,182.63931l-5.89823,-2.0046l5.09963,-5.29931" data-paper-data="{&quot;index&quot;:null}" fill="none"></path><path d="M238.00034,180.74674l-4.22362,-2.3827l3.75165,0.3596z" data-paper-data="{&quot;index&quot;:null}" fill="#000000"></path></g></g></svg>