<svg version="1.1" xmlns="http://www.w3.org/2000/svg" xmlns:xlink="http://www.w3.org/1999/xlink" width="736" height="448.52095" viewBox="0,0,736,448.52095"><defs><linearGradient x1="174.43593" y1="132.07175" x2="174.43593" y2="162.07913" gradientUnits="userSpaceOnUse" id="color-1"><stop offset="0" stop-color="#98edde"/><stop offset="1" stop-color="#d3fff7"/></linearGradient><linearGradient x1="205.57009" y1="129.78517" x2="205.57009" y2="202.51001" gradientUnits="userSpaceOnUse" id="color-2"><stop offset="0" stop-color="#98edde"/><stop offset="1" stop-color="#d3fff7"/></linearGradient><linearGradient x1="182.15842" y1="160.34527" x2="182.15842" y2="182.14835" gradientUnits="userSpaceOnUse" id="color-3"><stop offset="0" stop-color="#98edde"/><stop offset="1" stop-color="#d3fff7"/></linearGradient><linearGradient x1="229.96238" y1="160.51198" x2="229.96238" y2="182.31507" gradientUnits="userSpaceOnUse" id="color-4"><stop offset="0" stop-color="#98edde"/><stop offset="1" stop-color="#d3fff7"/></linearGradient><linearGradient x1="255.7378" y1="119.11937" x2="255.7378" y2="140.92246" gradientUnits="userSpaceOnUse" id="color-5"><stop offset="0" stop-color="#98edde"/><stop offset="1" stop-color="#d3fff7"/></linearGradient><linearGradient x1="153.15234" y1="119.0399" x2="153.15234" y2="140.84299" gradientUnits="userSpaceOnUse" id="color-6"><stop offset="0" stop-color="#98edde"/><stop offset="1" stop-color="#d3fff7"/></linearGradient><linearGradient x1="226.82544" y1="101.88737" x2="226.82544" y2="125.60557" gradientUnits="userSpaceOnUse" id="color-7"><stop offset="0" stop-color="#98edde"/><stop offset="1" stop-color="#d3fff7"/></linearGradient><linearGradient x1="186.49036" y1="102.43227" x2="186.49036" y2="126.15046" gradientUnits="userSpaceOnUse" id="color-8"><stop offset="0" stop-color="#98edde"/><stop offset="1" stop-color="#d3fff7"/></linearGradient></defs><g transform="translate(53.42362,58.0208)"><g stroke-miterlimit="10"><path d="M-45.92361,273.9792c-4.14213,0 -7.5,-2.3923 -7.5,-5.34335v-321.3133c0,-2.95105 3.35787,-5.34335 7.5,-5.34335h721c4.14214,0 7.5,2.3923 7.5,5.34335v321.3133c0,2.95105 -3.35786,5.34335 -7.5,5.34335z" fill-opacity="0.50196" fill="#000000" stroke="none" stroke-width="0" stroke-linecap="butt"/><path d="M53.50005,72.00009v-87h554v87z" fill="#adadad" stroke="#000000" stroke-width="1" stroke-linecap="butt"/><path d="M124.68896,262.53341v-168h387.02222v168z" fill="#adadad" stroke="#000000" stroke-width="1" stroke-linecap="butt"/><text transform="translate(267.60553,45.28071) scale(0.69512,0.69512)" font-size="40" xml:space="preserve" fill="#000000" stroke="none" stroke-width="1" stroke-linecap="butt" font-family="Sans Serif" font-weight="normal" text-anchor="start"><tspan x="0" dy="0">Trophies</tspan></text><path d="M186.50007,390.00016v-116h79v116z" fill="#adadad" stroke="#000000" stroke-width="1" stroke-linecap="butt"/><path d="M369.50008,390.00016v-116h93v116z" fill="#adadad" stroke="#000000" stroke-width="1" stroke-linecap="butt"/><text transform="translate(280.0881,123.78265) scale(0.45585,0.5)" font-size="40" xml:space="preserve" fill="#000000" stroke="none" stroke-width="1" stroke-linecap="butt" font-family="Sans Serif" font-weight="normal" text-anchor="start"><tspan x="0" dy="0">Diamond trophy:</tspan><tspan x="0" dy="46.15px">-Get gold trophy</tspan><tspan x="0" dy="46.15px">-Obtain all achievements</tspan><tspan x="0" dy="46.15px"> </tspan></text><g stroke="#000000" stroke-width="1"><path d="M150.14139,247.91862v-10.23198l10.93688,-35.64656h89.51702l11.34253,35.07827v10.80026z" fill="#afafaf" stroke-linecap="butt"/><path d="M228.91367,132.5821c0,0 19.20179,5.00403 19.82595,15.70645c0.69417,11.90297 -27.15785,14.30093 -27.15785,14.30093l6.68002,-4.62652c0,0 14.96377,-2.14081 14.41114,-9.94056c-0.41813,-5.9014 -13.93987,-12.00758 -13.93987,-12.00758z" fill="#98edde" stroke-linecap="butt"/><path d="M180.86994,135.50446c0,0 -13.52173,6.10619 -13.93986,12.00759c-0.55263,7.79976 14.41113,9.94056 14.41113,9.94056l6.68002,4.62652c0,0 -27.85202,-2.39795 -27.15784,-14.30093c0.62416,-10.70243 19.82595,-15.70645 19.82595,-15.70645z" fill="url(#color-1)" stroke-linecap="butt"/><path d="M179.2578,202.42861l6.3451,-6.26848h15.96512v-25.88277c0,0 -6.63432,-2.79081 -17.41082,-10.17154c-9.81046,-6.71908 -7.56026,-30.32066 -7.56026,-30.32066l57.94629,0.0814c0,0 2.2502,23.60157 -7.56025,30.32065c-10.77651,7.38073 -17.41082,10.17154 -17.41082,10.17154v25.88277h15.96512l6.3451,6.26848z" fill="url(#color-2)" stroke-linecap="round"/><path d="M196.69007,175.16366l-18.85355,6.9847l2.35669,-7.98251l-8.08009,1.99563l-4.48636,-15.8162l25.08012,10.50894z" fill="url(#color-3)" stroke-linecap="round"/><path d="M219.41391,171.02092l25.08012,-10.50894l-4.48636,15.8162l-8.08009,-1.99563l2.35669,7.98251l-18.85355,-6.9847z" fill="url(#color-4)" stroke-linecap="round"/><path d="M245.18934,129.6283l25.08012,-10.50894l-4.48636,15.8162l-8.08009,-1.99563l2.35669,7.98251l-18.85355,-6.9847z" fill="url(#color-5)" stroke-linecap="round"/><path d="M167.68399,133.85829l-18.85355,6.9847l2.35669,-7.98251l-8.08009,1.99563l-4.48636,-15.8162l25.08012,10.50894z" fill="url(#color-6)" stroke-linecap="round"/><path d="M205.23841,161.94763l-17.72447,-17.51041l5.46643,-5.40041h17.89012l-10.83389,-0.09732h17.8901l5.46643,5.40042l-17.72446,17.51041z" fill="#1affff" stroke-linecap="round"/><path d="M217.51351,118.70424l21.26978,-16.81686l0.00946,16.42548l-8.32532,0.23704l4.45364,7.05566l-20.06294,-1.68841z" fill="url(#color-7)" stroke-linecap="round"/><path d="M198.45766,124.46205l-20.06294,1.68841l4.45363,-7.05566l-8.32531,-0.23704l0.00946,-16.42548l21.26978,16.81686z" fill="url(#color-8)" stroke-linecap="round"/></g></g></g></svg>