<svg version="1.1" xmlns="http://www.w3.org/2000/svg" xmlns:xlink="http://www.w3.org/1999/xlink" width="37.7595" height="51.65228" viewBox="0,0,37.7595,51.65228"><g transform="translate(-221.12025,-154.13541)"><g data-paper-data="{&quot;isPaintingLayer&quot;:true}" fill-rule="nonzero" stroke="#000000" stroke-width="1.28786" stroke-linejoin="miter" stroke-miterlimit="10" stroke-dasharray="" stroke-dashoffset="0" style="mix-blend-mode: normal"><path d="M240.78519,181.85149c0,0 2.32452,-8.78441 4.53245,-11.66612c2.45122,-3.19924 9.52142,-6.6765 9.52142,-6.6765c0,0 1.90409,6.31103 -1.3175,12.08948c-3.22159,5.77845 -12.73639,6.25315 -12.73639,6.25315z" data-paper-data="{&quot;index&quot;:null}" fill="#45d1aa" stroke-linecap="butt"></path><path d="M239.17385,181.81447c0,0 -9.50436,-0.65097 -12.6183,-6.48813c-3.11394,-5.83717 -1.09321,-12.11182 -1.09321,-12.11182c0,0 7.00454,3.6077 9.39604,6.85183c2.15414,2.92214 4.31545,11.74812 4.31545,11.74812z" data-paper-data="{&quot;index&quot;:null}" fill="#45d1aa" stroke-linecap="butt"></path><path d="M233.55779,203.27941c0,0 2.42818,-9.71165 2.86432,-14.15001c0.38755,-3.94377 0.0929,-10.13839 0.0929,-10.13839l3.40165,-2.28725l2.86653,1.25351c0,0 1.23678,7.4255 0.82187,11.64781c-0.41452,4.21839 -3.11877,13.67431 -3.11877,13.67431z" fill="#e3ac21" stroke-linecap="butt"></path><path d="M250.10034,163.21165c3.77627,13.5164 -3.59307,20.68774 -10.65793,20.68774c-7.06485,0 -8.86192,-5.38148 -8.86192,-12.70267c0,-3.31677 -2.13668,-13.27557 -2.13668,-13.27557l4.20587,-3.06491c0,0 3.57186,1.27401 7.8668,3.0234c3.0728,1.25159 8.86705,2.76635 9.58386,5.332z" fill="#45d1aa" stroke-linecap="butt"></path><path d="M240.13506,185.09301c0,0 -6.80504,4.89476 -11.70937,1.88237c-4.90433,-3.0124 -6.50762,-9.3169 -6.50762,-9.3169c0,0 6.50287,-1.03992 9.6802,0.25678c2.86197,1.168 8.53679,7.17776 8.53679,7.17776z" fill="#45d1aa" stroke-linecap="butt"></path><path d="M239.86495,185.00126c0,0 5.67481,-6.00977 8.53678,-7.17777c3.17733,-1.2967 9.6802,-0.25677 9.6802,-0.25677c0,0 -1.60329,6.3045 -6.50763,9.3169c-4.90433,3.0124 -11.70937,-1.88237 -11.70937,-1.88237z" data-paper-data="{&quot;index&quot;:null}" fill="#45d1aa" stroke-linecap="butt"></path><path d="M237.24791,203.22393c0,0 3.6025,-3.81514 5.41935,-4.55661c2.01704,-0.82318 6.14521,-0.16301 6.14521,-0.16301c0,0 -1.01781,4.00224 -4.13119,5.91458c-3.11338,1.91234 -7.43338,-1.19497 -7.43338,-1.19497z" data-paper-data="{&quot;index&quot;:null}" fill="#45d1aa" stroke-linecap="butt"></path><path d="M238.80933,203.32675c0,0 -4.32,3.10731 -7.43338,1.19497c-3.11338,-1.91234 -4.13119,-5.91458 -4.13119,-5.91458c0,0 4.12816,-0.66017 6.14521,0.16301c1.81685,0.74147 5.41935,4.55661 5.41935,4.55661z" data-paper-data="{&quot;index&quot;:null}" fill="#45d1aa" stroke-linecap="butt"></path><path d="M245.09112,167.30214c0,2.9002 -0.75144,5.25128 -1.67838,5.25128c-0.92694,0 -1.67838,-2.35108 -1.67838,-5.25128c0,-2.9002 0.75144,-5.25128 1.67838,-5.25128c0.92694,0 1.67838,2.35108 1.67838,5.25128z" fill="#000000" stroke-linecap="butt"></path><path d="M239.79138,167.25872c0,2.9002 -0.75144,5.25128 -1.67838,5.25128c-0.92694,0 -1.67838,-2.35108 -1.67838,-5.25128c0,-2.9002 0.75144,-5.25128 1.67838,-5.25128c0.92694,0 1.67838,2.35108 1.67838,5.25128z" fill="#000000" stroke-linecap="butt"></path><path d="M234.54363,177.30249c-0.95757,-0.47238 1.33243,-3.28643 1.33243,-3.28643l6.94961,1.72221c0,0 -3.06509,4.13782 -8.28204,1.56422z" fill="#000000" stroke-linecap="round"></path></g></g></svg>