<svg version="1.1" xmlns="http://www.w3.org/2000/svg" xmlns:xlink="http://www.w3.org/1999/xlink" width="56.5835" height="50.37232" viewBox="0,0,56.5835,50.37232"><defs><linearGradient x1="240" y1="158.74594" x2="240" y2="201.25406" gradientUnits="userSpaceOnUse" id="color-1"><stop offset="0" stop-color="#ffb400"></stop><stop offset="1" stop-color="#ff8ac5"></stop></linearGradient></defs><g transform="translate(-212.83337,-153.50497)"><g data-paper-data="{&quot;isPaintingLayer&quot;:true}" fill-rule="nonzero" stroke="#000000" stroke-width="1.28786" stroke-linejoin="miter" stroke-miterlimit="10" stroke-dasharray="" stroke-dashoffset="0" style="mix-blend-mode: normal"><path d="M218.74594,180c0,-11.73829 9.51577,-21.25406 21.25406,-21.25406c11.73829,0 21.25406,9.51577 21.25406,21.25406c0,11.73829 -9.51577,21.25406 -21.25406,21.25406c-11.73829,0 -21.25406,-9.51577 -21.25406,-21.25406z" fill="url(#color-1)" stroke-linecap="butt"></path><path d="M224.75526,177.43136l15.95199,1.35365" fill="#ffb400" stroke-linecap="round"></path><path d="M243.60983,178.69965l13.9031,-3.32924" fill="#ffb400" stroke-linecap="round"></path><path d="M222.69423,175.24945l-1.73987,-14.27814l7.14564,6.2287" fill="#ffa935" stroke-linecap="round"></path><path d="M254.39228,168.92044l7.14564,-6.2287l-1.73987,14.27814" data-paper-data="{&quot;index&quot;:null}" fill="#ffa935" stroke-linecap="round"></path><path d="M254.29119,189.75253l8.94647,3.1333l-13.2722,5.54449" data-paper-data="{&quot;index&quot;:null}" fill="#ff939c" stroke-linecap="round"></path><path d="M256.77474,181.22397l9.27328,-1.96549l-8.46649,11.62803" data-paper-data="{&quot;index&quot;:null}" fill="#ff9d6b" stroke-linecap="round"></path><path d="M259.44176,171.36017l8.46649,11.62803l-9.27328,-1.96549" data-paper-data="{&quot;index&quot;:null}" fill="#ffa545" stroke-linecap="round"></path><path d="M246.88802,165.36232l6.40362,6.98931l-14.31683,-1.38601" data-paper-data="{&quot;index&quot;:null}" fill="#ffa935" stroke-linecap="round"></path><path d="M228.67872,173.7857l7.33184,-12.06866l1.3915,9.36221" data-paper-data="{&quot;index&quot;:null}" fill="#ffa935" stroke-linecap="round"></path><path d="M249.84817,192.78852l0.64131,9.45757l-10.32127,-10.01818" data-paper-data="{&quot;index&quot;:null}" fill="#ff939c" stroke-linecap="round"></path><path d="M239.59973,197.61051l-14.16415,2.50388l5.83611,-7.46972" data-paper-data="{&quot;index&quot;:null}" fill="#ff91a4" stroke-linecap="round"></path><path d="M229.25296,191.98922l-12.1363,2.77792l5.20354,-7.55363" data-paper-data="{&quot;index&quot;:null}" fill="#ff958c" stroke-linecap="round"></path><path d="M226.49633,185.66256l-11.89255,-3.68427l8.29044,-3.92463" data-paper-data="{&quot;index&quot;:null}" fill="#ff9d6b" stroke-linecap="round"></path><path d="M240.12544,164.5069l10.8732,-9.41627l-1.17703,9.40592" data-paper-data="{&quot;index&quot;:null}" fill="#ffb400" stroke-linecap="round"></path><path d="M231.46913,163.26126l-4.48877,-8.34912l13.53667,4.86325" data-paper-data="{&quot;index&quot;:null}" fill="#ffb307" stroke-linecap="round"></path><path d="M228.97883,178.33115l10.18107,4.04493l-6.84172,3.89665" fill="none" stroke-linecap="round"></path><path d="M251.03799,186.22793l-6.84172,-3.89665l10.18107,-4.04493" data-paper-data="{&quot;index&quot;:null}" fill="none" stroke-linecap="round"></path></g></g></svg>