<svg version="1.1" xmlns="http://www.w3.org/2000/svg" xmlns:xlink="http://www.w3.org/1999/xlink" width="64.79222" height="88.80982" viewBox="0,0,64.79222,88.80982"><g transform="translate(-287.5598,-137.40138)"><g stroke-miterlimit="10"><path d="M288.55231,222.40698v-84.81396h62.89539v84.81396z" fill="#515151" stroke="none" stroke-width="0" stroke-linecap="butt"/><g stroke="#000000" stroke-width="1.28786"><path d="M321.70593,186.1929c0,1.50056 -1.56957,5.11195 -4.39189,5.94333c-3.78767,1.11575 -9.1162,-0.80802 -9.1162,-0.80802c0,0 3.23747,-0.95112 3.23747,-4.46549c0,-3.51436 0.56623,-7.03314 4.01894,-7.03314c3.45271,0 6.25168,2.84896 6.25168,6.36332z" fill="#00de46" stroke-linecap="butt"/><path d="M324.05031,183.40196c3.45271,0 4.01894,3.51878 4.01894,7.03314c0,3.51436 3.23747,4.46548 3.23747,4.46548c0,0 -5.32854,1.92378 -9.1162,0.80802c-2.82232,-0.83139 -4.39189,-4.44277 -4.39189,-5.94333c0,-3.51436 2.79897,-6.36332 6.25168,-6.36332z" fill="#00de46" stroke-linecap="butt"/><path d="M318.38413,203.42766v-19.17258h5.43076v19.17258z" fill="#00ff50" stroke-linecap="butt"/><path d="M313.68593,206.61169c-3.77613,0 -6.83728,-1.60045 -6.83728,-3.57471c0,-1.97426 3.06115,-3.57471 6.83728,-3.57471c3.77613,0 6.83728,1.60045 6.83728,3.57471c0,1.97426 -3.06115,3.57471 -6.83728,3.57471z" fill="#00ff50" stroke-linecap="butt"/><path d="M336.27824,202.72932c0,2.03629 -3.34103,3.68704 -7.4624,3.68704c-4.12137,0 -7.4624,-1.65075 -7.4624,-3.68704c0,-2.03629 3.34103,-3.68703 7.4624,-3.68703c4.12137,0 7.4624,1.65074 7.4624,3.68703z" fill="#00ff50" stroke-linecap="butt"/><path d="M336.10712,175.25246c3.45271,0 4.01893,3.51878 4.01893,7.03314c0,3.51436 3.23748,4.46549 3.23748,4.46549c0,0 -5.32854,1.92378 -9.1162,0.80802c-2.82232,-0.83139 -4.39189,-4.44277 -4.39189,-5.94333c0,-3.51436 2.79897,-6.36331 6.25168,-6.36331z" fill="#00de46" stroke-linecap="butt"/><path d="M331.64163,180.27613c3.45271,0 4.01894,3.51878 4.01894,7.03314c0,3.51436 3.23747,4.46548 3.23747,4.46548c0,0 -5.32854,1.92378 -9.1162,0.80802c-2.82232,-0.83139 -4.39189,-4.44277 -4.39189,-5.94333c0,-3.51436 2.79897,-6.36332 6.25168,-6.36332z" fill="#00de46" stroke-linecap="butt"/><path d="M312.10513,178.60157c0,1.50056 -1.56957,5.11195 -4.39189,5.94333c-3.78767,1.11575 -9.1162,-0.80802 -9.1162,-0.80802c0,0 3.23748,-0.95112 3.23748,-4.46549c0,-3.51436 0.56622,-7.03314 4.01893,-7.03314c3.45271,0 6.25168,2.84895 6.25168,6.36332z" fill="#00de46" stroke-linecap="butt"/><path d="M316.57062,183.62524c0,1.50056 -1.56957,5.11195 -4.39189,5.94333c-3.78767,1.11575 -9.11621,-0.80802 -9.11621,-0.80802c0,0 3.23748,-0.95112 3.23748,-4.46549c0,-3.51436 0.56623,-7.03314 4.01894,-7.03314c3.45271,0 6.25168,2.84896 6.25168,6.36332z" fill="#00de46" stroke-linecap="butt"/><path d="M336.57599,171.33399c0,8.76125 -6.47262,15.86364 -14.45701,15.86364c-7.98439,0 -14.45701,-7.1024 -14.45701,-15.86364c0,-8.76125 6.47262,-15.86364 14.45701,-15.86364c7.98439,0 14.45701,7.1024 14.45701,15.86364z" fill="#00ff50" stroke-linecap="butt"/><path d="M321.48265,169.27987c0,4.16174 -1.32452,7.5355 -2.95839,7.5355c-1.63387,0 -2.95839,-3.37376 -2.95839,-7.5355c0,-4.16174 1.32452,-7.53551 2.95839,-7.53551c1.63387,0 2.95839,3.37377 2.95839,7.53551z" fill="#000000" stroke-linecap="butt"/><path d="M329.29725,169.83805c0,4.16174 -1.32452,7.5355 -2.95839,7.5355c-1.63387,0 -2.95839,-3.37376 -2.95839,-7.5355c0,-4.16174 1.32452,-7.53551 2.95839,-7.53551c1.63387,0 2.95839,3.37376 2.95839,7.53551z" fill="#000000" stroke-linecap="butt"/><path d="M311.54694,182.73214v-3.68403c0,0 4.78476,6.18783 10.27061,5.47022c7.63394,-0.11069 10.15898,-5.47022 10.15898,-5.47022v3.68403c0,0 -2.32971,5.3162 -10.15898,4.68876c-7.72126,-0.61878 -10.27061,-4.68876 -10.27061,-4.68876z" fill="#00377a" stroke-linecap="butt"/><path d="M333.20455,162.69327c0,2.04114 0.89581,1.77552 -0.07455,2.56974c-3.03063,2.4805 -11.55953,1.61665 -18.4014,1.61665c-2.60518,0 -2.56533,15.39167 -2.56533,15.39167c0,0 -3.30252,0.3656 -5.77716,-2.71239c-2.03179,-2.52716 -3.32359,-8.24885 -3.32359,-10.94891c0,-8.41598 7.32231,-15.23847 16.35485,-15.23847c9.03253,0 13.78719,0.90573 13.78719,9.3217z" fill="#004dae" stroke-linecap="butt"/><path d="M341.88992,174.42634c0,6.47383 -3.46373,11.7219 -7.73646,11.7219c-4.27273,0 -7.73646,-5.24808 -7.73646,-11.7219c0,-6.47383 3.46373,-11.7219 7.73646,-11.7219c4.27273,0 7.73646,5.24808 7.73646,11.7219z" fill="#00ff50" stroke-linecap="butt"/><path d="M337.98262,174.77242c0,4.27273 -1.3645,7.73646 -3.04769,7.73646c-1.6832,0 -3.04769,-3.46373 -3.04769,-7.73646c0,-4.27273 1.3645,-7.73646 3.04769,-7.73646c1.6832,0 3.04769,3.46373 3.04769,7.73646z" fill="#000000" stroke-linecap="butt"/><path d="M328.5158,156.72068l-6.80987,4.46548l-8.26115,-3.12584" fill="none" stroke-linecap="round"/><path d="M329.52053,160.73962l-7.25641,3.68403l-7.25642,-2.56765" fill="none" stroke-linecap="round"/></g><path d="M288.55233,222.38702v-12.81396h62.89539v12.81396z" fill="#969696" stroke="none" stroke-width="0" stroke-linecap="butt"/><path d="M288.50229,222.35702v-84.81396h8.64539v84.81396z" fill="#969696" stroke="none" stroke-width="0" stroke-linecap="butt"/><path d="M344.05233,222.40701v-84.81396h8.14539v84.81396z" fill="#969696" stroke="none" stroke-width="0" stroke-linecap="butt"/><path d="M288.55233,147.90701v-10.31396h62.89539v10.31396z" fill="#969696" stroke="none" stroke-width="0" stroke-linecap="butt"/><path d="M296.29734,211.48042v-21.00188l21.13534,21.00188z" fill="#969696" stroke="none" stroke-width="0" stroke-linecap="butt"/><path d="M303.41181,215.22399v-12.15842h44.05785v12.15842z" fill="#969696" stroke="none" stroke-width="0" stroke-linecap="butt"/><text transform="translate(318.31589,219.9612) scale(0.47116,0.5)" font-size="40" xml:space="preserve" fill="#000000" stroke="none" stroke-width="1" stroke-linecap="butt" font-family="Sans Serif" font-weight="normal" text-anchor="start"><tspan x="0" dy="0">225</tspan></text><g stroke-linecap="butt"><path d="M303.936,213.69347l-2.65375,6.84999l-2.38631,-6.84999z" fill="#ffff00" stroke="#ffff00" stroke-width="1"/><path d="M298.96775,202.31762l2.38632,-6.84999l2.65375,6.84999z" fill="#ffff00" stroke="#ffff00" stroke-width="1"/><path d="M294.78435,208.21682c0,-3.72115 3.01658,-6.73773 6.73773,-6.73773c3.72115,0 6.73772,3.01658 6.73772,6.73773c0,3.72115 -3.01658,6.73772 -6.73772,6.73772c-3.72115,0 -6.73773,-3.01658 -6.73773,-6.73772z" fill="#ffff00" stroke="none" stroke-width="0"/><path d="M307.21236,205.68172l6.87114,2.59848l-6.83054,2.44142z" fill="#ffff00" stroke="#ffff00" stroke-width="1"/><path d="M295.87692,210.74146l-6.86899,-2.33105l6.82838,-2.70885z" fill="#ffff00" stroke="#ffff00" stroke-width="1"/><path d="M307.52794,210.32821l3.04475,6.68537l-6.56714,-3.08051z" fill="#ffff00" stroke="#ffff00" stroke-width="1"/><path d="M295.91926,205.9314l-3.23165,-6.49409l6.75404,2.88922z" fill="#ffff00" stroke="#ffff00" stroke-width="1"/><path d="M304.08737,202.38559l6.66063,-3.0985l-3.02751,6.59174z" fill="#ffff00" stroke="#ffff00" stroke-width="1"/><path d="M299.78422,214.02932l-6.46785,3.28387l2.83472,-6.7771z" fill="#ffff00" stroke="#ffff00" stroke-width="1"/><path d="M296.80059,208.41738c0,-2.70702 2.19448,-4.90151 4.9015,-4.90151c2.70702,0 4.90151,2.19448 4.90151,4.90151c0,2.70702 -2.19448,4.9015 -4.90151,4.9015c-2.70702,0 -4.9015,-2.19448 -4.9015,-4.9015z" fill="#fffff7" stroke="none" stroke-width="0"/></g><path d="M352.35202,137.40138v33.64619l-33.86,-33.64619z" fill="#3aff00" stroke="none" stroke-width="0" stroke-linecap="butt"/></g></g></svg>