<svg version="1.1" xmlns="http://www.w3.org/2000/svg" xmlns:xlink="http://www.w3.org/1999/xlink" width="96.1724" height="97.26079" viewBox="0,0,96.1724,97.26079"><g transform="translate(-271.9138,-131.2375)"><g stroke-miterlimit="10"><path d="M272.4138,226.60088v-64.88824v-9.24098c0,0 2.20499,0 4.81102,0c11.2941,0 90.36138,0 90.36138,0v74.12922z" fill="#afafaf" stroke="#000000" stroke-width="1" stroke-linecap="butt"/><path d="M272.4138,205.86673v-64.88824v-9.24098c0,0 2.20499,0 4.81102,0c11.2941,0 90.36138,0 90.36138,0v74.12922z" fill="#afafaf" stroke="#000000" stroke-width="1" stroke-linecap="butt"/><text transform="translate(306.18157,222.60705) scale(0.4713,0.4713)" font-size="40" xml:space="preserve" fill="#000000" stroke="none" stroke-width="1" stroke-linecap="butt" font-family="Sans Serif" font-weight="normal" text-anchor="start"><tspan x="0" dy="0">4-2</tspan></text><path d="M276.91902,199.90337v-60.82023h86.62275v60.82023z" fill="#939393" stroke="#000000" stroke-width="1" stroke-linecap="butt"/><g><path d="M315.98183,151.92001l-2.47241,-3.7019l-1.90633,0.61892l-1.26114,-1.32794l1.54667,-1.71777l-1.3186,-1.97434l2.59132,-1.73069l1.2362,1.85095l1.90604,-0.97559l1.43017,1.45189l-1.79783,1.8271l2.63723,3.9487z" fill="#000000" stroke="#ffffff" stroke-width="0.5" stroke-linecap="round"/><path d="M313.2568,170.94528c-2.60833,-1.95225 -7.05813,-3.58026 -7.05813,-3.58026h10.42111v7.79986c0,0 -0.75466,-2.26735 -3.36299,-4.21959z" fill="#000000" stroke="#ffffff" stroke-width="0.5" stroke-linecap="butt"/><path d="M314.7389,198.62811v-51.3189h10.39756v51.31891z" fill="#000000" stroke="#ffffff" stroke-width="0.5" stroke-linecap="butt"/><path d="M314.70267,166.89261h10.4928l-0.20815,9.09687c0,0 -4.83383,-0.79125 -6.09951,-0.01118c-1.26567,0.78008 -4.24133,7.11798 -4.24133,7.11798l0.08745,-6.16961z" fill="#000000" stroke="#ffffff" stroke-width="0.5" stroke-linecap="round"/><path d="M319.20369,156.88602c0,3.14661 -0.80539,5.69745 -1.79889,5.69745c-0.99349,0 -1.79888,-2.55083 -1.79888,-5.69745c0,-3.14661 0.80539,-5.69746 1.79888,-5.69746c0.99349,0 1.79889,2.55084 1.79889,5.69746z" fill="#ffffff" stroke="#000000" stroke-width="0.5" stroke-linecap="butt"/><path d="M327.04035,172.1787c0,0 -0.40783,9.89175 -6.14514,15.9386c-5.73732,6.04685 -10.16478,5.39083 -10.16478,5.39083l16.99108,-26.39528l2.99194,2.56404l-2.22541,3.18783z" fill="#000000" stroke="#ffffff" stroke-width="0.5" stroke-linecap="butt"/><path d="M319.17711,174.6534v-7.79986h16.04724c0,0 -6.85214,1.62802 -10.86865,3.58026c-4.01651,1.95225 -5.17859,4.21959 -5.17859,4.21959z" fill="#000000" stroke="#ffffff" stroke-width="0.5" stroke-linecap="butt"/><path d="M316.08521,155.25006l-0.44597,-4.24785l1.8947,-0.72962l1.36899,3.99967z" fill="#000000" stroke="none" stroke-width="0" stroke-linecap="butt"/><path d="M320.84972,156.50519l-0.83152,4.92871l-3.53388,2.47279l-1.38049,-4.11012z" fill="#000000" stroke="none" stroke-width="0" stroke-linecap="butt"/><path d="M314.71566,159.57862l0.12368,-4.05607l7.52053,-2.55597l-2.37013,3.74013z" fill="#ffffff" stroke="#ffffff" stroke-width="0.5" stroke-linecap="round"/><path d="M320.59256,151.92065l3.40879,-5.10393l-2.3238,-2.36166l1.84859,-1.87665l2.46368,1.26101l1.59787,-2.39247l3.34947,2.23702l-1.7044,2.55197l1.99918,2.22032l-1.63011,1.71646l-2.46407,-0.79999l-3.19574,4.78494z" fill="#000000" stroke="#ffffff" stroke-width="0.5" stroke-linecap="round"/></g></g></g></svg>