<svg version="1.1" xmlns="http://www.w3.org/2000/svg" xmlns:xlink="http://www.w3.org/1999/xlink" width="55.94297" height="49.95806" viewBox="0,0,55.94297,49.95806"><g transform="translate(-211.85129,-158.89421)"><g data-paper-data="{&quot;isPaintingLayer&quot;:true}" fill-rule="nonzero" stroke="#000000" stroke-linejoin="miter" stroke-miterlimit="10" stroke-dasharray="" stroke-dashoffset="0" style="mix-blend-mode: normal"><g fill="none" stroke-width="0" stroke-linecap="round"><g><g><path d="M221.33827,197.9177l0.19998,-39.02349l38.54747,0.29148l-1.71429,36.57143"></path><path d="M237.65136,170.0499l19.74141,-4.84223"></path><path d="M223.29526,171.36402l34.45463,-1.11414"></path><path d="M224.80945,178.30598l31.22628,-8.01325l-30.11208,5.99922l31.61196,0.34281"></path><path d="M255.20721,188.46179l3.01407,-20.58303"></path><path d="M224.32376,163.37934l34.32605,-3.3567"></path><path d="M260.77824,165.83616l-21.69841,-5.31359"></path><path d="M254.8501,166.67891l3.57116,10.7843"></path><path d="M228.72344,179.97718l30.49777,1.47124"></path><path d="M232.36603,186.79058l29.8121,-2.44254"></path></g><path d="M229.63766,178.13456l23.41257,0.89989"></path><path d="M229.08056,197.70345l7.94227,-35.22399"></path><path d="M226.53788,198.11767l1.75702,-32.45292l22.85546,-2.79963"></path><path d="M254.55012,161.65099l-6.19955,39.50914"></path><path d="M227.9235,167.25027l19.74141,-3.05674"></path><path d="M225.33797,164.52205l27.51228,-1.5855"></path><path d="M225.55224,170.94978l29.42641,2.98532"></path><path d="M227.6378,178.87732l24.48392,-4.92793"></path><path d="M223.05243,164.13638l32.1405,1.95689l-24.79818,5.11362"></path><path d="M225.99507,172.80669l23.06974,-7.98467"></path><path d="M227.13784,160.7654l14.12753,1.75692l1.52201,35.91334l4.53998,-2.01777"></path><path d="M222.83815,192.98977l6.37097,-27.03933"></path><path d="M253.19307,167.22169l2.52839,18.5833"></path><path d="M248.12201,168.86434l0.48568,18.38332"></path><path d="M246.43643,185.87641l-3.2569,-19.44033"></path><path d="M235.19439,187.97614l-3.1569,-16.14076"></path><path d="M229.92335,167.72163l0.81423,18.56901"></path><path d="M230.46616,184.91939l-0.17141,-18.91182"></path><path d="M226.35218,161.65099l0.57139,23.52551"></path><path d="M224.39518,188.20468l-0.42854,-28.33917l1.49989,24.16827"></path><path d="M228.22347,185.13365l22.62691,-3.81379"></path></g><path d="M228.35204,181.69124l27.54084,1.98546"></path><path d="M223.89522,183.96237l29.54069,1.49981"></path></g><path d="M259.1945,195.04414l5.08045,-1.83761l-2.26998,6.05331l3.89141,0.1081l-6.0533,4.43188l3.13475,0.64856l-10.1609,1.18905l-1.89808,-3.38577z" fill="#94c6c6" stroke-width="1.28786" stroke-linecap="round"></path><path d="M247.41218,190.39608l5.08046,-4.32379l3.13475,6.37759l-4.64808,1.51333z" fill="#bdffff" stroke-width="1.28786" stroke-linecap="round"></path><path d="M226.11752,204.48062h-4.75617l-8.1071,-6.91807l5.40474,-1.18904v-5.29664l6.48568,4.64808l-2.1619,-10.48519l8.75568,4.75617l2.59427,-3.35094l1.83761,3.24284c0,0 -3.49957,10.00102 -5.2637,12.56185c-0.84293,1.22361 -4.78911,2.03095 -4.78911,2.03095z" fill="#009c9c" stroke-width="1.28786" stroke-linecap="round"></path><path d="M228.17132,201.42173l-8.21519,-6.48568l6.26949,0.10809l1.08095,-3.45903l5.18855,2.16189l8.64757,-11.02566l6.37759,5.40474l3.02666,5.40473l11.24185,-8.64757l-3.13475,10.59328l2.26998,0.32429l-9.51233,8.1071c0,0 -7.59773,2.62164 -11.25371,2.62164c-3.72905,0 -10.9057,-2.62164 -10.9057,-2.62164z" fill="#13ffff" stroke-width="1.28786" stroke-linecap="round"></path><path d="M236.90058,199.27347c0,2.39771 -0.68364,4.34144 -1.52695,4.34144c-0.84331,0 -1.52695,-1.94374 -1.52695,-4.34144c0,-2.39771 -0.66557,-2.62426 0.17774,-2.62426c0.55534,0 1.50386,0.34355 2.17067,1.09535c0.34578,0.38985 0.70549,0.71014 0.70549,1.52891z" fill="#ffffff" stroke-width="1.28786" stroke-linecap="butt"></path><path d="M230.90105,195.45784l5.67497,2.64832" fill="none" stroke-width="1.28786" stroke-linecap="round"></path><path d="M243.12756,198.00151c0.64717,-0.72965 1.56774,-1.06307 2.1067,-1.06307c0.81846,0 0.1725,0.21987 0.1725,2.54692c0,2.32705 -0.66349,4.21348 -1.48195,4.21348c-0.81846,0 -1.48194,-1.88643 -1.48194,-4.21348c0,-0.79464 0.3491,-1.10549 0.68469,-1.48385z" data-paper-data="{&quot;index&quot;:null}" fill="#ffffff" stroke-width="1.28786" stroke-linecap="butt"></path><path d="M250.19965,201.81498l3.89141,3.78331l-11.67423,2.59427l-17.12567,-3.82207l6.83109,-3.25323l0.89034,4.26484l3.89141,-1.8376l2.91855,1.8376l3.9995,-1.8376l4.64808,1.18904z" fill="#00bfbf" stroke-width="1.28786" stroke-linecap="round"></path><path d="M247.31309,196.23219l-4.53998,2.01777" fill="none" stroke-width="1.28786" stroke-linecap="round"></path></g></g></svg>