<svg version="1.1" xmlns="http://www.w3.org/2000/svg" xmlns:xlink="http://www.w3.org/1999/xlink" width="64.7547" height="88.41618" viewBox="0,0,64.7547,88.41618"><defs><linearGradient x1="319.95335" y1="137.31685" x2="319.95335" y2="222.13082" gradientUnits="userSpaceOnUse" id="color-1"><stop offset="0" stop-color="#555555"/><stop offset="1" stop-color="#00ffe8"/></linearGradient><linearGradient x1="319.59165" y1="209.32887" x2="319.59165" y2="222.14281" gradientUnits="userSpaceOnUse" id="color-2"><stop offset="0" stop-color="#7c7c7c"/><stop offset="1" stop-color="#7a7a7a"/></linearGradient><linearGradient x1="292.41661" y1="137.2988" x2="292.41661" y2="222.11282" gradientUnits="userSpaceOnUse" id="color-3"><stop offset="0" stop-color="#969696"/><stop offset="1" stop-color="#7a7a7a"/></linearGradient><linearGradient x1="347.75417" y1="137.36757" x2="347.75417" y2="222.18158" gradientUnits="userSpaceOnUse" id="color-4"><stop offset="0" stop-color="#969696"/><stop offset="1" stop-color="#7a7a7a"/></linearGradient><linearGradient x1="306.45662" y1="190.23432" x2="306.45662" y2="211.2362" gradientUnits="userSpaceOnUse" id="color-5"><stop offset="0" stop-color="#858585"/><stop offset="1" stop-color="#818181"/></linearGradient><linearGradient x1="325.03236" y1="202.82136" x2="325.03236" y2="214.97976" gradientUnits="userSpaceOnUse" id="color-6"><stop offset="0" stop-color="#808080"/><stop offset="1" stop-color="#7d7d7d"/></linearGradient></defs><g transform="translate(-287.15141,-137.08963)"><g stroke-miterlimit="10"><path d="M351.40105,137.31686v84.81396h-62.89539v-84.81396z" fill="url(#color-1)" stroke="none" stroke-width="0" stroke-linecap="butt"/><g stroke="#000000" stroke-width="1.28786"><path d="M315.1135,160.64925l-5.18372,1.65359l-5.02349,-4.39995" fill="none" stroke-linecap="round"/><path d="M317.16066,160.4798l-2.96537,-4.65604l2.76835,-6.14604" fill="none" stroke-linecap="round"/><path d="M315.01208,159.61184l-4.92017,-2.35049l-0.82003,-6.71569" fill="none" stroke-linecap="round"/><path d="M336.66085,182.50116c0,14.83589 -6.35152,26.86276 -14.1865,26.86276c-7.83499,0 -14.1865,-12.02687 -14.1865,-26.86276c0,-14.83589 6.35152,-26.86276 14.1865,-26.86276c7.83499,0 14.1865,12.02687 14.1865,26.86276z" fill="#49574b" stroke-linecap="butt"/><path d="M322.31035,207.5171c-8.1973,0 -8.6103,-10.81156 -8.6103,-25.18383c0,-6.72826 2.20646,-17.81527 2.20646,-17.81527c0,0 -3.49466,-2.46404 -2.88361,-3.32451c2.54271,-3.58061 5.77239,-5.72298 9.28747,-5.72298c3.43712,0 6.60135,2.04838 9.11727,5.48685c0.68471,0.9358 -1.70562,3.60665 -1.70562,3.60665c0,0 2.68231,9.10038 2.84002,17.1333c0.13334,6.79196 -2.05437,25.81978 -10.25167,25.81978z" fill="#5d6f5f" stroke-linecap="butt"/><path d="M323.70439,156.30997v37.60786" fill="none" stroke-linecap="round"/><path d="M304.67972,211.04284l5.08417,-16.78923h25.91291l4.42816,16.78923z" fill="#a5a5a5" stroke-linecap="butt"/><path d="M320.42428,178.47174c0,-2.59628 2.05598,-4.70098 4.59216,-4.70098c2.53618,0 4.59216,2.10469 4.59216,4.70098c0,2.59628 -2.05598,4.70098 -4.59216,4.70098c-2.53618,0 -4.59216,-2.10469 -4.59216,-4.70098z" fill="#000000" stroke-linecap="butt"/><path d="M321.73631,178.63964c0,-2.41083 1.79899,-4.3652 4.01814,-4.3652c2.21916,0 4.01814,1.95437 4.01814,4.3652c0,2.41083 -1.79899,4.3652 -4.01814,4.3652c-2.21916,0 -4.01814,-1.95437 -4.01814,-4.3652z" fill="#ff0000" stroke-linecap="butt"/></g><path d="M288.14394,222.14281v-12.81396h62.89539v12.81396z" fill="url(#color-2)" stroke="none" stroke-width="0" stroke-linecap="butt"/><path d="M288.09391,222.11282v-84.81396h8.64539v84.81396z" fill="url(#color-3)" stroke="none" stroke-width="0" stroke-linecap="butt"/><path d="M343.68149,222.18158v-84.81396h8.14539v84.81396z" fill="url(#color-4)" stroke="none" stroke-width="0" stroke-linecap="butt"/><path d="M288.14394,147.40359v-10.31396h62.89539v10.31396z" fill="#969696" stroke="none" stroke-width="0" stroke-linecap="butt"/><path d="M295.88897,211.2362v-21.00188l21.13534,21.00188z" fill="url(#color-5)" stroke="none" stroke-width="0" stroke-linecap="butt"/><path d="M303.00344,214.97976v-12.15842h44.05785v12.15842z" fill="url(#color-6)" stroke="none" stroke-width="0" stroke-linecap="butt"/><text transform="translate(318.75526,219.25581) scale(0.47116,0.5)" font-size="40" xml:space="preserve" fill="#000000" stroke="none" stroke-width="1" stroke-linecap="butt" font-family="Sans Serif" font-weight="normal" text-anchor="start"><tspan x="0" dy="0">225</tspan></text><g stroke-linecap="butt"><path d="M303.52763,213.44923l-2.65375,6.84999l-2.38631,-6.84999z" fill="#ffff00" stroke="#ffff00" stroke-width="1"/><path d="M298.55938,202.07342l2.38632,-6.84999l2.65375,6.84999z" fill="#ffff00" stroke="#ffff00" stroke-width="1"/><path d="M294.37597,207.97259c0,-3.72115 3.01658,-6.73773 6.73773,-6.73773c3.72115,0 6.73772,3.01658 6.73772,6.73773c0,3.72115 -3.01658,6.73772 -6.73772,6.73772c-3.72115,0 -6.73773,-3.01658 -6.73773,-6.73772z" fill="#ffff00" stroke="none" stroke-width="0"/><path d="M306.80397,205.43749l6.87114,2.59848l-6.83054,2.44142z" fill="#ffff00" stroke="#ffff00" stroke-width="1"/><path d="M295.46853,210.49722l-6.86899,-2.33105l6.82838,-2.70885z" fill="#ffff00" stroke="#ffff00" stroke-width="1"/><path d="M307.11957,210.08398l3.04475,6.68537l-6.56714,-3.08051z" fill="#ffff00" stroke="#ffff00" stroke-width="1"/><path d="M295.51088,205.68721l-3.23165,-6.49409l6.75404,2.88922z" fill="#ffff00" stroke="#ffff00" stroke-width="1"/><path d="M303.679,202.14138l6.66063,-3.0985l-3.02751,6.59174z" fill="#ffff00" stroke="#ffff00" stroke-width="1"/><path d="M299.37585,213.78509l-6.46785,3.28387l2.83472,-6.7771z" fill="#ffff00" stroke="#ffff00" stroke-width="1"/><path d="M296.39222,208.17317c0,-2.70702 2.19448,-4.90151 4.9015,-4.90151c2.70702,0 4.90151,2.19448 4.90151,4.90151c0,2.70702 -2.19448,4.9015 -4.90151,4.9015c-2.70702,0 -4.9015,-2.19448 -4.9015,-4.9015z" fill="#fffff7" stroke="none" stroke-width="0"/></g><path d="M351.90611,137.19466v33.64619l-33.86,-33.64619z" fill="#3aff00" stroke="none" stroke-width="0" stroke-linecap="butt"/></g></g></svg>