<svg version="1.1" xmlns="http://www.w3.org/2000/svg" xmlns:xlink="http://www.w3.org/1999/xlink" width="804" height="537" viewBox="0,0,804,537"><defs><radialGradient cx="486.08602" cy="213.64649" r="15.875" gradientUnits="userSpaceOnUse" id="color-1"><stop offset="0" stop-color="#105900"/><stop offset="1" stop-color="#1c9600"/></radialGradient></defs><g transform="translate(82,88.5)"><g stroke-miterlimit="10"><path d="M-82,448.5v-537h804v537z" fill-opacity="0.42745" fill="#000000" stroke="none" stroke-width="0" stroke-linecap="butt"/><path d="M418.53125,218.86198v-42h28v42z" fill="#949494" stroke="#000000" stroke-width="2.5" stroke-linecap="butt"/><path d="M502.06017,227.02404l-7.28823,-45.03741l14.77174,-2.39046l7.28824,45.03743z" fill="#f8f8f8" stroke="#000000" stroke-width="2.5" stroke-linecap="butt"/><path d="M433.19554,187.67369l34.82745,-4.97432l0.41577,15.38291l-33.32745,4.4743z" fill="#f8f8f8" stroke="#000000" stroke-width="2.5" stroke-linecap="butt"/><path d="M479.71296,187.19863v-20.52176h11.25791v20.52176z" fill="#1c9600" stroke="#000000" stroke-width="2.5" stroke-linecap="butt"/><path d="M466.04268,234.53502v-54.92278h40.38157v54.92279z" fill="#f8f8f8" stroke="#000000" stroke-width="2.5" stroke-linecap="butt"/><path d="M514.62632,146.27838c0,15.87244 -12.62484,28.7396 -28.19835,28.7396c-15.57351,0 -28.19834,-12.86715 -28.19834,-28.7396c0,-5.60738 1.57564,-10.83968 4.3003,-15.26209c4.98785,-8.09582 -12.66611,-38.32281 20.14804,-36.2275c41.67643,-1.56816 22.50992,28.04062 27.52008,36.02173c2.80323,4.4655 4.42827,9.77326 4.42827,15.46786z" fill="#1c9600" stroke="#000000" stroke-width="2.5" stroke-linecap="butt"/><path d="M482.09084,152.25041c0,4.3755 -0.79864,7.92255 -1.78381,7.92255c-0.98517,0 -1.78381,-3.54705 -1.78381,-7.92255c0,-4.3755 0.79864,-7.92256 1.78381,-7.92256c0.98517,0 1.78381,3.54706 1.78381,7.92256z" fill="#000000" stroke="#000000" stroke-width="2.5" stroke-linecap="butt"/><path d="M492.32021,150.67398c0,4.3405 -0.9608,7.85917 -2.146,7.85917c-1.1852,0 -2.146,-3.51867 -2.146,-7.85917c0,-4.3405 0.9608,-7.85917 2.146,-7.85917c1.1852,0 2.146,3.51867 2.146,7.85917z" fill="#000000" stroke="#000000" stroke-width="2.5" stroke-linecap="butt"/><path d="M482.61391,145.79209l-12.17411,-8.4489" fill="none" stroke="#000000" stroke-width="2.5" stroke-linecap="round"/><path d="M500.43734,134.91861l-15.24888,10.59862" fill="none" stroke="#000000" stroke-width="2.5" stroke-linecap="round"/><path d="M475.28743,180.30749h19.79855l-8.25,23.09579z" fill="#ff0000" stroke="#000000" stroke-width="2.5" stroke-linecap="butt"/><path d="M492.3711,200.09289l5.33333,-2.55555l-0.22222,9.66666l4.33333,-2.22222l-3.44444,11.33333l4.33333,3.55555l-7.55556,3.77778l-17.33333,-0.11111l-7.44444,-0.66667l5,-7.88889l-4.88889,-4l5.22222,-4.77778l-4.33333,-7.33334l8.77778,0.33334l3.66667,-10.22222l3.66667,8.55556l4.6416,-4.49795z" fill="#ffffff" stroke="#000000" stroke-width="2.5" stroke-linecap="round"/><path d="M502.86052,161.57858c0,0 -1.6668,2.55007 -3.36187,3.43998c-2.04748,1.07493 -8.0667,2.56002 -8.0667,2.56002" fill="none" stroke="#000000" stroke-width="2.5" stroke-linecap="round"/><path d="M496.88102,213.64649c0,8.76752 -4.83309,15.875 -10.795,15.875c-5.96191,0 -10.795,-7.10748 -10.795,-15.875c0,-8.76752 4.83308,-15.875 10.795,-15.875c5.96191,0 10.795,7.10748 10.795,15.875z" fill="url(#color-1)" stroke="#000000" stroke-width="2.5" stroke-linecap="butt"/><path d="M182.16857,348.9183v-125.38367h391.67136v125.38367z" fill="#ffdc5f" stroke="#000000" stroke-width="2.5" stroke-linecap="butt"/><text transform="translate(420.50133,251.25642) scale(0.5,0.5)" font-size="40" xml:space="preserve" fill="#000000" stroke="none" stroke-width="1" stroke-linecap="butt" font-family="Sans Serif" font-weight="normal" text-anchor="start"><tspan x="0" dy="0">Dr. Zomboss</tspan></text><text transform="translate(212.45635,271.39033) scale(0.52535,0.53716)" font-size="40" xml:space="preserve" fill="#000000" stroke="none" stroke-width="1" stroke-linecap="butt" font-family="Sans Serif" font-weight="normal" text-anchor="start"><tspan x="0" dy="0">Now, without any</tspan><tspan x="0" dy="48px">obstacles, world</tspan><tspan x="0" dy="48px">domination</tspan></text><path d="M514.26424,336.72729v-31.49591l33.54755,17.69586z" fill="#bdae78" stroke="#000000" stroke-width="2.5" stroke-linecap="butt"/><path d="M410.53125,188.83682v-46.64151h42.77778v46.64151z" fill="#a4a4a4" stroke="#000000" stroke-width="2.5" stroke-linecap="butt"/><path d="M420.86459,171.86198v-23.33333h24v23.33333z" fill="#949494" stroke="#000000" stroke-width="2.5" stroke-linecap="butt"/><path d="M429.19792,164.86198v-9h8v9z" fill="#000000" stroke="#000000" stroke-width="2.5" stroke-linecap="butt"/><path d="M427.53125,208.86198v-19h10.66667v19z" fill="#575757" stroke="#000000" stroke-width="2.5" stroke-linecap="butt"/><g stroke="#000000" stroke-width="2.5"><path d="M550.21354,-33.76332l42.6666,-16.5497l5.34271,13.77399l-42.66659,16.5497z" fill="#d9d9d9" stroke-linecap="butt"/><path d="M536.61248,-32.0201l18.18518,-41.9956l13.55737,5.87069l-18.18518,41.9956z" fill="#d9d9d9" stroke-linecap="butt"/><g stroke-linecap="butt"><path d="M562.87911,48.73721c-4.43111,1.7704 -9.36374,-0.14955 -11.01735,-4.28834c-1.65361,-4.13878 0.59801,-8.92913 5.0291,-10.69953c4.43111,-1.7704 9.36374,0.14955 11.01735,4.28834c1.65361,4.13878 -0.598,8.92913 -5.0291,10.69952z" fill="#ffe99b"/><path d="M551.46401,43.47216l-8.28645,-37.11287l12.17258,-2.71785l8.28644,37.11286z" fill="#f8f8f8"/></g><g stroke-linecap="butt"><path d="M485.10562,22.92969c-2.42647,-4.10868 -1.28249,-9.2767 2.55513,-11.5431c3.83763,-2.26639 8.91568,-0.77293 11.34215,3.33574c2.42647,4.10868 1.28249,9.2767 -2.55513,11.5431c-3.83763,2.26639 -8.91568,0.77293 -11.34215,-3.33574z" fill="#ffe99b"/><path d="M489.40949,15.17835l29.23346,-24.31942l7.97648,9.58823l-29.23347,24.31943z" fill="#f8f8f8"/></g><path d="M539.92762,5.44684l-7.69673,15.27521l-8.37974,-4.2223l7.69673,-15.27521z" fill="#ffe99b" stroke-linecap="butt"/><path d="M567.8566,-24.66057l-20.5989,40.88136l-30.05772,-15.14518l20.5989,-40.88136z" fill="#f8f8f8" stroke-linecap="butt"/><path d="M499.68079,28.27286c2.81895,-9.00976 14.9353,-21.3692 14.9353,-21.3692c0,0 4.22113,5.37586 7.76926,6.48598c2.65692,0.83129 5.44715,-5.58184 5.44715,-5.58184c0,0 -0.41364,11.11768 3.46213,10.90361c2.55977,-0.14138 7.68317,-7.31538 7.68317,-7.31538c0,0 3.0403,7.20677 4.62343,9.40504c1.0616,1.47409 3.95282,2.50358 3.95282,2.50358c0,0 -1.49708,14.16384 -3.01159,19.00442c-3.9504,12.62599 -17.19545,19.71926 -29.58365,15.84326c-12.3882,-3.87599 -19.22841,-17.25349 -15.27801,-29.87949z" fill="#ffbf00" stroke-linecap="butt"/><path d="M488.54591,28.83412l5.40181,-7.82592l3.78746,10.91426l6.22367,-3.53196l6.74945,10.93753l8.7032,-5.47936l2.28508,10.00008l17.4721,-0.47192l-6.09361,5.73808l15.58441,2.4153l-10.61756,4.25703c0,0 -10.47333,11.63147 -29.87657,-0.01391c-9.99734,-6.00018 -19.61943,-26.9392 -19.61943,-26.9392z" fill="#ffbf00" stroke-linecap="round"/><path d="M536.61001,59.57125l-11.28314,21.59084l-42.43478,-22.17597l6.8743,-13.15431l-20.83117,-13.41313l1.84651,-7.38992z" fill="#838383" stroke-linecap="butt"/></g></g></g></svg>