<svg version="1.1" xmlns="http://www.w3.org/2000/svg" xmlns:xlink="http://www.w3.org/1999/xlink" width="96.1724" height="97.26078" viewBox="0,0,96.1724,97.26078"><g transform="translate(-191.9138,-131.23747)"><g data-paper-data="{&quot;isPaintingLayer&quot;:true}" fill-rule="nonzero" stroke-linecap="butt" stroke-linejoin="miter" stroke-miterlimit="10" stroke-dasharray="" stroke-dashoffset="0" style="mix-blend-mode: normal"><path d="M192.4138,226.60086v-64.88824v-9.24098c0,0 2.20499,0 4.81102,0c11.2941,0 90.36138,0 90.36138,0v74.12922z" fill="#afafaf" stroke="#000000" stroke-width="1"></path><path d="M192.4138,205.8667v-64.88824v-9.24098c0,0 2.20499,0 4.81102,0c11.2941,0 90.36138,0 90.36138,0v74.12922z" fill="#afafaf" stroke="#000000" stroke-width="1"></path><text transform="translate(226.18157,222.60701) scale(0.4713,0.4713)" font-size="40" xml:space="preserve" fill="#000000" fill-rule="nonzero" stroke="none" stroke-width="1" stroke-linecap="butt" stroke-linejoin="miter" stroke-miterlimit="10" stroke-dasharray="" stroke-dashoffset="0" font-family="Sans Serif" font-weight="normal" text-anchor="start" style="mix-blend-mode: normal"><tspan x="0" dy="0">1-1</tspan></text><path d="M196.91902,199.90335v-60.82023h86.62275v60.82023z" fill="#939393" stroke="#000000" stroke-width="1"></path><g stroke="#000000" stroke-width="0.5"><path d="M233.98135,196.86019v-51.78054h10.49109v51.78054z" fill="#0b8100"></path><path d="M233.99637,196.92868v-29.99294h10.58718v29.99294z" fill="#740000"></path><path d="M233.99637,180.69962v-13.76388h4.85766z" fill="#ffffff"></path><path d="M233.92181,175.85174v-9.03897h3.1901z" fill="#ff0000"></path><path d="M238.53789,154.74261c0,3.17492 -0.81264,5.74871 -1.81507,5.74871c-1.00243,0 -1.81507,-2.57378 -1.81507,-5.74871c0,-3.17492 0.81264,-5.74871 1.81507,-5.74871c1.00243,0 1.81507,2.57378 1.81507,5.74871z" fill="#000000"></path></g></g></g></svg>