<svg version="1.1" xmlns="http://www.w3.org/2000/svg" xmlns:xlink="http://www.w3.org/1999/xlink" width="51.45665" height="54.1133" viewBox="0,0,51.45665,54.1133"><defs><linearGradient x1="238.98547" y1="180.57431" x2="238.98547" y2="206.88766" gradientUnits="userSpaceOnUse" id="color-1"><stop offset="0" stop-color="#f100ff"></stop><stop offset="1" stop-color="#f100ff" stop-opacity="0"></stop></linearGradient><radialGradient cx="248.55927" cy="203.02476" r="13.15668" gradientUnits="userSpaceOnUse" id="color-2"><stop offset="0" stop-color="#66c3ff"></stop><stop offset="1" stop-color="#66c3ff" stop-opacity="0"></stop></radialGradient><radialGradient cx="223.74108" cy="162.67002" r="25.0844" gradientUnits="userSpaceOnUse" id="color-3"><stop offset="0" stop-color="#66c3ff"></stop><stop offset="1" stop-color="#66c3ff" stop-opacity="0"></stop></radialGradient><radialGradient cx="232.9804" cy="182.98738" r="13.15668" gradientUnits="userSpaceOnUse" id="color-4"><stop offset="0" stop-color="#ff667d"></stop><stop offset="1" stop-color="#ff667d" stop-opacity="0"></stop></radialGradient><radialGradient cx="260.03842" cy="160.15034" r="25.0844" gradientUnits="userSpaceOnUse" id="color-5"><stop offset="0" stop-color="#ff667d"></stop><stop offset="1" stop-color="#ff667d" stop-opacity="0"></stop></radialGradient><radialGradient cx="250.10385" cy="184.35584" r="13.15668" gradientUnits="userSpaceOnUse" id="color-6"><stop offset="0" stop-color="#d890ff"></stop><stop offset="1" stop-color="#d890ff" stop-opacity="0"></stop></radialGradient><radialGradient cx="239.62129" cy="180.12305" r="25.0844" gradientUnits="userSpaceOnUse" id="color-7"><stop offset="0" stop-color="#d890ff"></stop><stop offset="1" stop-color="#d890ff" stop-opacity="0"></stop></radialGradient><radialGradient cx="250.10386" cy="184.35584" r="13.15668" gradientUnits="userSpaceOnUse" id="color-8"><stop offset="0" stop-color="#d890ff" stop-opacity="0"></stop><stop offset="1" stop-color="#d890ff" stop-opacity="0"></stop></radialGradient><radialGradient cx="239.62129" cy="180.12305" r="25.0844" gradientUnits="userSpaceOnUse" id="color-9"><stop offset="0" stop-color="#d890ff" stop-opacity="0"></stop><stop offset="1" stop-color="#d890ff" stop-opacity="0"></stop></radialGradient></defs><g transform="translate(-213.19675,-153.41829)"><g data-paper-data="{&quot;isPaintingLayer&quot;:true}" fill-rule="nonzero" stroke="#000000" stroke-linejoin="miter" stroke-miterlimit="10" stroke-dasharray="" stroke-dashoffset="0" style="mix-blend-mode: normal"><g stroke-width="0" stroke-linecap="butt"><path d="M226.45306,206.88766v-36.49525h25.4648v36.49525z" data-paper-data="{&quot;index&quot;:null}" fill="#00ffc5"></path><path d="M219.9711,181.34099c0,0 -13.80372,-14.85271 0.01544,-22.71371c13.81916,-7.861 32.52523,-4.03637 39.76741,0.08332c3.08267,1.75357 4.65762,6.09786 4.16725,10.5288c-0.66167,5.97876 -4.16725,12.10159 -4.16725,12.10159z" data-paper-data="{&quot;index&quot;:null}" fill="#00ffc5"></path><path d="M226.45306,206.88766v-36.49525h25.4648v36.49525z" data-paper-data="{&quot;index&quot;:null}" fill="none"></path><path d="M219.9711,181.34099c0,0 -13.80372,-14.85271 0.01544,-22.71371c13.81916,-7.861 32.52523,-4.03637 39.76741,0.08332c3.08267,1.75357 4.65762,6.09786 4.16725,10.5288c-0.66167,5.97876 -4.16725,12.10159 -4.16725,12.10159z" data-paper-data="{&quot;index&quot;:null}" fill="none"></path></g><g stroke-width="0" stroke-linecap="butt"><path d="M226.25307,206.88766v-26.31335h25.46481v26.31335z" data-paper-data="{&quot;index&quot;:null}" fill="url(#color-1)"></path><path d="M219.9711,181.34098c0,0 -13.80372,-14.85271 0.01544,-22.71371c13.81916,-7.861 32.52524,-4.03638 39.76742,0.08332c3.08267,1.75357 4.65761,6.09786 4.16724,10.5288c-0.66166,5.97876 -4.16724,12.10159 -4.16724,12.10159z" data-paper-data="{&quot;index&quot;:null}" fill="#e210fb"></path></g><g stroke-width="0" stroke-linecap="butt"><path d="M226.25307,206.88766v-26.31335h25.46481v26.31335z" data-paper-data="{&quot;index&quot;:null}" fill="url(#color-2)"></path><path d="M219.9711,181.34098c0,0 -13.80372,-14.85271 0.01544,-22.71371c13.81916,-7.861 32.52523,-4.03637 39.76742,0.08332c3.08267,1.75357 4.65761,6.09786 4.16724,10.5288c-0.66166,5.97876 -4.16724,12.10159 -4.16724,12.10159z" data-paper-data="{&quot;index&quot;:null}" fill="url(#color-3)"></path></g><g stroke-width="0" stroke-linecap="butt"><path d="M226.25307,206.88766v-26.31335h25.4648v26.31335z" data-paper-data="{&quot;index&quot;:null}" fill="url(#color-4)"></path><path d="M219.9711,181.34098c0,0 -13.80372,-14.85271 0.01544,-22.71371c13.81916,-7.861 32.52524,-4.03637 39.76741,0.08332c3.08267,1.75357 4.65762,6.09786 4.16725,10.5288c-0.66167,5.97876 -4.16725,12.10159 -4.16725,12.10159z" data-paper-data="{&quot;index&quot;:null}" fill="url(#color-5)"></path></g><g stroke-width="0" stroke-linecap="butt"><path d="M226.25307,206.88766v-25.98002l25.46481,0.25002v25.73z" data-paper-data="{&quot;index&quot;:null}" fill="url(#color-6)"></path><path d="M219.9711,181.34098c0,0 -13.80372,-14.85271 0.01544,-22.71371c13.81916,-7.861 32.52524,-4.03637 39.76742,0.08332c3.08267,1.75357 4.65762,6.09786 4.16725,10.5288c-0.66167,5.97876 -4.16725,12.10159 -4.16725,12.10159z" data-paper-data="{&quot;index&quot;:null}" fill="url(#color-7)"></path></g><path d="M228.9179,163.57829l12.66573,10.29866l-13.25654,0.56062z" data-paper-data="{&quot;index&quot;:null}" fill="#ffffff" stroke-width="1.28786" stroke-linecap="round"></path><path d="M259.01871,174.12069l-13.10838,-0.15129l11.56381,-9.28293z" data-paper-data="{&quot;index&quot;:null}" fill="#ffffff" stroke-width="1.28786" stroke-linecap="round"></path><path d="M230.97322,185.54218c0,0 2.09828,-1.55967 4.00375,-0.92399c5.77286,1.92586 7.5454,5.81502 7.5454,5.81502" fill="none" stroke-width="1.28786" stroke-linecap="round"></path><g stroke-width="1.28786" stroke-linecap="butt"><path d="M226.25307,206.88766l0.07142,-25.46573l25.39338,0.02143v25.4443z" data-paper-data="{&quot;index&quot;:null}" fill="url(#color-8)"></path><path d="M219.9711,181.34098c0,0 -13.80372,-14.85271 0.01544,-22.71371c13.81916,-7.861 32.52523,-4.03637 39.76741,0.08332c3.08267,1.75357 4.65762,6.09786 4.16725,10.5288c-0.66167,5.97876 -4.16725,12.10159 -4.16725,12.10159z" data-paper-data="{&quot;index&quot;:null}" fill="url(#color-9)"></path></g></g></g></svg>