<svg version="1.1" xmlns="http://www.w3.org/2000/svg" xmlns:xlink="http://www.w3.org/1999/xlink" width="804" height="537" viewBox="0,0,804,537"><defs><radialGradient cx="486.08602" cy="213.64649" r="15.875" gradientUnits="userSpaceOnUse" id="color-1"><stop offset="0" stop-color="#105900"/><stop offset="1" stop-color="#1c9600"/></radialGradient></defs><g transform="translate(13,88.5)"><g stroke-miterlimit="10"><path d="M-13,448.5v-537h804v537z" fill-opacity="0.42745" fill="#000000" stroke="none" stroke-width="0" stroke-linecap="butt"/><path d="M502.06017,227.02404l-7.28823,-45.03741l14.77174,-2.39046l7.28824,45.03743z" fill="#f8f8f8" stroke="#000000" stroke-width="2.5" stroke-linecap="butt"/><path d="M455.53716,224.45146l7.28823,-45.03742l14.77174,2.39046l-7.28824,45.03742z" fill="#f8f8f8" stroke="#000000" stroke-width="2.5" stroke-linecap="butt"/><path d="M479.71296,187.19863v-20.52176h11.25791v20.52176z" fill="#1c9600" stroke="#000000" stroke-width="2.5" stroke-linecap="butt"/><path d="M466.04268,234.53502v-54.92278h40.38157v54.92279z" fill="#f8f8f8" stroke="#000000" stroke-width="2.5" stroke-linecap="butt"/><path d="M514.62632,146.27838c0,15.87244 -12.62484,28.7396 -28.19835,28.7396c-15.57351,0 -28.19834,-12.86715 -28.19834,-28.7396c0,-5.60738 1.57564,-10.83968 4.3003,-15.26209c4.98785,-8.09582 -12.66611,-38.32281 20.14804,-36.2275c41.67643,-1.56816 22.50992,28.04062 27.52008,36.02173c2.80323,4.4655 4.42827,9.77326 4.42827,15.46786z" fill="#1c9600" stroke="#000000" stroke-width="2.5" stroke-linecap="butt"/><path d="M482.09084,152.25041c0,4.3755 -0.79864,7.92255 -1.78381,7.92255c-0.98517,0 -1.78381,-3.54705 -1.78381,-7.92255c0,-4.3755 0.79864,-7.92256 1.78381,-7.92256c0.98517,0 1.78381,3.54706 1.78381,7.92256z" fill="#000000" stroke="#000000" stroke-width="2.5" stroke-linecap="butt"/><path d="M492.32021,150.67398c0,4.3405 -0.9608,7.85917 -2.146,7.85917c-1.1852,0 -2.146,-3.51867 -2.146,-7.85917c0,-4.3405 0.9608,-7.85917 2.146,-7.85917c1.1852,0 2.146,3.51867 2.146,7.85917z" fill="#000000" stroke="#000000" stroke-width="2.5" stroke-linecap="butt"/><path d="M482.61391,145.79209l-12.17411,-8.4489" fill="none" stroke="#000000" stroke-width="2.5" stroke-linecap="round"/><path d="M500.43734,134.91861l-15.24888,10.59862" fill="none" stroke="#000000" stroke-width="2.5" stroke-linecap="round"/><path d="M475.28743,180.30749h19.79855l-8.25,23.09579z" fill="#ff0000" stroke="#000000" stroke-width="2.5" stroke-linecap="butt"/><path d="M492.3711,200.09289l5.33333,-2.55555l-0.22222,9.66666l4.33333,-2.22222l-3.44444,11.33333l4.33333,3.55555l-7.55556,3.77778l-17.33333,-0.11111l-7.44444,-0.66667l5,-7.88889l-4.88889,-4l5.22222,-4.77778l-4.33333,-7.33334l8.77778,0.33334l3.66667,-10.22222l3.66667,8.55556l4.6416,-4.49795z" fill="#ffffff" stroke="#000000" stroke-width="2.5" stroke-linecap="round"/><path d="M502.86052,161.57858c0,0 -1.6668,2.55007 -3.36187,3.43998c-2.04748,1.07493 -8.0667,2.56002 -8.0667,2.56002" fill="none" stroke="#000000" stroke-width="2.5" stroke-linecap="round"/><path d="M496.88102,213.64649c0,8.76752 -4.83309,15.875 -10.795,15.875c-5.96191,0 -10.795,-7.10748 -10.795,-15.875c0,-8.76752 4.83308,-15.875 10.795,-15.875c5.96191,0 10.795,7.10748 10.795,15.875z" fill="url(#color-1)" stroke="#000000" stroke-width="2.5" stroke-linecap="butt"/><path d="M182.16857,348.9183v-125.38367h391.67136v125.38367z" fill="#ffdc5f" stroke="#000000" stroke-width="2.5" stroke-linecap="butt"/><text transform="translate(420.50133,251.25642) scale(0.5,0.5)" font-size="40" xml:space="preserve" fill="#000000" stroke="none" stroke-width="1" stroke-linecap="butt" font-family="Sans Serif" font-weight="normal" text-anchor="start"><tspan x="0" dy="0">Dr. Zomboss</tspan></text><text transform="translate(198.95635,301.07587) scale(0.76131,0.77842)" font-size="40" xml:space="preserve" fill="#000000" stroke="none" stroke-width="1" stroke-linecap="butt" font-family="Sans Serif" font-weight="normal" text-anchor="start"><tspan x="0" dy="0">He... Easy</tspan></text><path d="M514.26424,336.72729v-31.49591l33.54755,17.69586z" fill="#bdae78" stroke="#000000" stroke-width="2.5" stroke-linecap="butt"/></g></g></svg>