<svg version="1.1" xmlns="http://www.w3.org/2000/svg" xmlns:xlink="http://www.w3.org/1999/xlink" width="71.89891" height="63.51102" viewBox="0,0,71.89891,63.51102"><g transform="translate(-204.04883,-148.24449)"><g data-paper-data="{&quot;isPaintingLayer&quot;:true}" fill-rule="nonzero" stroke="#000000" stroke-width="1.28786" stroke-linejoin="miter" stroke-miterlimit="10" stroke-dasharray="" stroke-dashoffset="0" style="mix-blend-mode: normal"><g data-paper-data="{&quot;index&quot;:null}" fill="#ffff00" stroke-linecap="butt"><path d="M256.60067,172.96478c10.62246,3.89598 18.54669,9.27072 17.69926,12.00481c-0.84743,2.73408 -10.14563,1.79218 -20.76809,-2.1038c-10.62246,-3.89598 -18.54669,-9.27072 -17.69925,-12.00481c0.84743,-2.73408 10.14562,-1.79218 20.76808,2.1038z"></path><path d="M259.61719,179.58443c-3.58153,11.55513 -8.52245,20.1751 -11.03586,19.25326c-2.51341,-0.92184 -1.64753,-11.03641 1.934,-22.59154c3.58152,-11.55512 8.52245,-20.1751 11.03585,-19.25326c2.51341,0.92184 1.64754,11.03641 -1.93399,22.59154z"></path><path d="M259.36925,175.595c4.97869,10.92559 7.0882,20.82134 4.71173,22.10279c-2.37647,1.28146 -8.33902,-6.53666 -13.31772,-17.46224c-4.97869,-10.92559 -7.0882,-20.82134 -4.71173,-22.10279c2.37647,-1.28146 8.33902,6.53666 13.31772,17.46224z"></path><path d="M257.19926,182.59608c-10.04374,5.41583 -19.14078,7.71055 -20.3188,5.12542c-1.17803,-2.58513 6.00906,-9.07119 16.05279,-14.48702c10.04374,-5.41583 19.14078,-7.71055 20.3188,-5.12542c1.17803,2.58513 -6.00906,9.07119 -16.05279,14.48702z"></path><path d="M254.69744,172.70639c11.1769,-0.93645 20.40268,0.6365 20.60637,3.51329c0.20369,2.87679 -8.69184,5.96804 -19.86874,6.90449c-11.1769,0.93645 -20.40268,-0.6365 -20.60637,-3.51329c-0.20369,-2.87679 8.69184,-5.96804 19.86874,-6.90449z"></path><path d="M259.85472,177.51408c0.86087,12.15823 -0.58513,22.19405 -3.22972,22.41563c-2.64459,0.22158 -5.48634,-9.455 -6.3472,-21.61323c-0.86087,-12.15823 0.58513,-22.19405 3.22972,-22.41563c2.64459,-0.22158 5.48634,9.455 6.3472,21.61323z"></path><path d="M270.22845,192.5944c-1.7634,2.15532 -9.98126,-2.66951 -18.35511,-10.77656c-8.37385,-8.10705 -13.73267,-16.42635 -11.96927,-18.58167c1.7634,-2.15532 9.98126,2.6695 18.35511,10.77655c8.37385,8.10705 13.73267,16.42636 11.96927,18.58168z" data-paper-data="{&quot;index&quot;:null}"></path><path d="M268.56057,161.42184c1.98136,1.91823 -2.45404,10.85762 -9.90674,19.9667c-7.4527,9.10908 -15.10052,14.9384 -17.08187,13.02017c-1.98136,-1.91823 2.45404,-10.85762 9.90674,-19.9667c7.4527,-9.10908 15.10052,-14.93841 17.08187,-13.02018z" data-paper-data="{&quot;index&quot;:null}"></path></g><path d="M232.48828,205.91389l17.42213,-19.31125l4.78391,4.60592l-14.58045,16.57183z" data-paper-data="{&quot;index&quot;:null}" fill="#00ff50" stroke-linecap="butt"></path><path d="M242.33899,174.1615c1.91281,-6.17132 9.0767,-9.1154 16.001,-6.57579c6.9243,2.53961 10.98691,9.60123 9.0741,15.77255c-1.91281,6.17132 -9.07669,9.1154 -16.00099,6.57578c-6.9243,-2.53961 -10.98691,-9.60122 -9.0741,-15.77254z" data-paper-data="{&quot;index&quot;:null}" fill="#a90000" stroke-linecap="butt"></path><path d="M258.67135,182.24507c-0.61637,0.22607 -1.83506,-1.9105 -2.72202,-4.77213c-0.88697,-2.86164 -1.10633,-5.36471 -0.48997,-5.59077c0.61637,-0.22607 1.83506,1.9105 2.72202,4.77213c0.88697,2.86164 1.10633,5.36472 0.48997,5.59078z" data-paper-data="{&quot;index&quot;:null}" fill="#000000" stroke-linecap="butt"></path><path d="M253.35405,183.05405c-0.39988,0.14667 -1.43569,-2.03039 -2.31353,-4.86259c-0.87784,-2.8322 -1.26531,-5.24704 -0.86543,-5.39371c0.39988,-0.14667 1.43569,2.03039 2.31353,4.86259c0.87784,2.8322 1.26531,5.24704 0.86543,5.39371z" data-paper-data="{&quot;index&quot;:null}" fill="#000000" stroke-linecap="butt"></path><path d="M257.84571,185.67126c0,0 -2.23176,1.23342 -7.08337,-0.45189c-1.66204,-0.57735 -2.30628,-5.50851 -2.30628,-5.50851" data-paper-data="{&quot;index&quot;:null}" fill="none" stroke-linecap="round"></path><g fill="#ffff00" stroke-linecap="butt"><path d="M245.28775,170.96805c0,2.88531 -9.0875,5.22432 -20.2975,5.22432c-11.20999,0 -20.2975,-2.33901 -20.2975,-5.22432c0,-2.88531 9.0875,-5.22432 20.2975,-5.22432c11.20999,0 20.2975,2.33901 20.2975,5.22432z"></path><path d="M224.99026,148.88842c2.65243,0 4.80264,9.88539 4.80264,22.07963c0,12.19425 -2.15022,22.07963 -4.80264,22.07963c-2.65243,0 -4.80264,-9.88538 -4.80264,-22.07963c0,-12.19425 2.15022,-22.07963 4.80264,-22.07963z"></path><path d="M239.34276,155.35539c1.87555,2.04022 -3.02985,10.68417 -10.95651,19.30681c-7.92666,8.62263 -15.87294,13.95873 -17.74848,11.9185c-1.87555,-2.04022 3.02985,-10.68417 10.95651,-19.30681c7.92666,-8.62263 15.87294,-13.95873 17.74848,-11.9185z"></path><path d="M210.63776,155.35539c1.87555,-2.04022 9.82181,3.29587 17.74848,11.9185c7.92666,8.62263 12.83207,17.26659 10.95651,19.30681c-1.87555,2.04022 -9.82181,-3.29587 -17.74848,-11.9185c-7.92666,-8.62263 -12.83207,-17.26659 -10.95651,-19.30681z"></path><path d="M243.66912,179.60825c-1.03795,2.65522 -10.24218,0.93935 -20.55823,-3.8325c-10.31605,-4.77185 -17.83744,-10.79269 -16.79949,-13.44791c1.03795,-2.65522 10.24218,-0.93935 20.55823,3.8325c10.31605,4.77185 17.83744,10.79269 16.79949,13.44791z"></path><path d="M232.93308,150.64916c2.44091,1.12908 0.86353,11.14145 -3.52316,22.36326c-4.3867,11.22181 -9.92157,19.40358 -12.36248,18.2745c-2.44091,-1.12908 -0.86353,-11.14145 3.52316,-22.36326c4.3867,-11.22181 9.92157,-19.40358 12.36248,-18.2745z"></path><path d="M223.11089,166.16034c10.31605,-4.77185 19.52029,-6.48772 20.55823,-3.8325c1.03795,2.65522 -6.48344,8.67606 -16.79949,13.44791c-10.31605,4.77185 -19.52029,6.48772 -20.55823,3.8325c-1.03795,-2.65522 6.48344,-8.67606 16.79949,-13.44791z" data-paper-data="{&quot;index&quot;:null}"></path><path d="M229.40991,168.92367c4.3867,11.22181 5.96407,21.23418 3.52316,22.36326c-2.44091,1.12908 -7.97578,-7.05269 -12.36248,-18.2745c-4.3867,-11.22181 -5.96407,-21.23418 -3.52316,-22.36326c2.44091,-1.12908 7.97578,7.05269 12.36248,18.2745z" data-paper-data="{&quot;index&quot;:null}"></path></g><path d="M230.20716,206.29797l-8.76878,-22.60411l5.88596,-2.70189l10.83717,24.3541z" fill="#00ff50" stroke-linecap="butt"></path><path d="M227.85858,211.11158c-4.44212,0 -8.04316,-2.04803 -8.04316,-4.5744c0,-2.52637 3.60105,-4.5744 8.04316,-4.5744c4.44212,0 8.04316,2.04803 8.04316,4.5744c0,2.52637 -3.60105,4.5744 -8.04316,4.5744z" fill="#00ff50" stroke-linecap="butt"></path><path d="M254.43548,206.14348c0,2.60575 -3.93029,4.71814 -8.77854,4.71814c-4.84825,0 -8.77854,-2.11239 -8.77854,-4.71814c0,-2.60575 3.93029,-4.71813 8.77854,-4.71813c4.84825,0 8.77854,2.11238 8.77854,4.71813z" fill="#00ff50" stroke-linecap="butt"></path><path d="M224.92197,183.62653c-7.30729,0 -13.23101,-5.27955 -13.23101,-11.79221c0,-6.51266 5.92372,-11.79222 13.23101,-11.79222c7.30729,0 13.23101,5.27956 13.23101,11.79222c0,6.51266 -5.92372,11.79221 -13.23101,11.79221z" fill="#a90000" stroke-linecap="butt"></path><path d="M226.88524,177.28764c-0.65046,0 -1.17775,-2.44813 -1.17775,-5.46804c0,-3.01992 0.5273,-5.46804 1.17775,-5.46804c0.65046,0 1.17775,2.44813 1.17775,5.46804c0,3.01992 -0.5273,5.46804 -1.17775,5.46804z" fill="#000000" stroke-linecap="butt"></path><path d="M230.96405,177.7378c-0.422,0 -0.7641,-2.42294 -0.7641,-5.41179c0,-2.98885 0.3421,-5.41179 0.7641,-5.41179c0.422,0 0.7641,2.42294 0.7641,5.41179c0,2.98885 -0.3421,5.41179 -0.7641,5.41179z" fill="#000000" stroke-linecap="butt"></path><path d="M225.54634,180.41228c0,0 -2.47705,0.39313 -6.5794,-2.89c-1.40536,-1.12472 -0.56752,-6.02134 -0.56752,-6.02134" fill="none" stroke-linecap="round"></path></g></g></svg>