<svg version="1.1" xmlns="http://www.w3.org/2000/svg" xmlns:xlink="http://www.w3.org/1999/xlink" width="96.1724" height="97.26079" viewBox="0,0,96.1724,97.26079"><defs><linearGradient x1="306.28097" y1="143.01286" x2="306.28097" y2="198.06935" gradientUnits="userSpaceOnUse" id="color-1"><stop offset="0" stop-color="#1dffce"/><stop offset="1" stop-color="#30beff"/></linearGradient></defs><g transform="translate(-271.9138,-131.23751)"><g stroke-miterlimit="10"><path d="M272.4138,226.60088v-64.88824v-9.24098c0,0 2.20499,0 4.81102,0c11.2941,0 90.36138,0 90.36138,0v74.12922z" fill="#afafaf" stroke="#000000" stroke-width="1" stroke-linecap="butt"/><path d="M272.4138,205.86673v-64.88824v-9.24098c0,0 2.20499,0 4.81102,0c11.2941,0 90.36138,0 90.36138,0v74.12922z" fill="#afafaf" stroke="#000000" stroke-width="1" stroke-linecap="butt"/><text transform="translate(306.18157,222.60705) scale(0.4713,0.4713)" font-size="40" xml:space="preserve" fill="#000000" stroke="none" stroke-width="1" stroke-linecap="butt" font-family="Sans Serif" font-weight="normal" text-anchor="start"><tspan x="0" dy="0">4-3</tspan></text><path d="M276.91902,199.90339v-60.82023h86.62275v60.82023z" fill="#939393" stroke="#000000" stroke-width="1" stroke-linecap="butt"/><g><path d="M336.54028,151.92001l-2.47241,-3.7019l-1.90634,0.61892l-1.26113,-1.32795l1.54667,-1.71777l-1.31861,-1.97435l2.59133,-1.73069l1.2362,1.85095l1.90604,-0.97559l1.43017,1.45188l-1.79783,1.82711l2.63723,3.94869z" fill="#000000" stroke="#ffffff" stroke-width="0.5" stroke-linecap="round"/><path d="M333.81524,170.94527c-2.60833,-1.95225 -7.05812,-3.58026 -7.05812,-3.58026h10.42111v7.79985c0,0 -0.75466,-2.26734 -3.36299,-4.21959z" fill="#000000" stroke="#ffffff" stroke-width="0.5" stroke-linecap="butt"/><path d="M335.29734,198.62811v-51.31891h10.39756v51.31891z" fill="#000000" stroke="#ffffff" stroke-width="0.5" stroke-linecap="butt"/><path d="M335.26112,166.89261h10.4928l-0.20815,9.09687c0,0 -4.83383,-0.79125 -6.09951,-0.01117c-1.26568,0.78008 -4.24133,7.11798 -4.24133,7.11798l0.08745,-6.16961z" fill="#000000" stroke="#ffffff" stroke-width="0.5" stroke-linecap="round"/><path d="M339.76214,156.88602c0,3.14662 -0.80539,5.69746 -1.79889,5.69746c-0.9935,0 -1.79888,-2.55083 -1.79888,-5.69746c0,-3.14662 0.80539,-5.69746 1.79888,-5.69746c0.9935,0 1.79889,2.55084 1.79889,5.69746z" fill="#ffffff" stroke="#000000" stroke-width="0.5" stroke-linecap="butt"/><path d="M347.59881,172.1787c0,0 -0.40783,9.89175 -6.14514,15.9386c-5.73732,6.04685 -10.16478,5.39083 -10.16478,5.39083l16.99108,-26.39528l2.99193,2.56404l-2.22542,3.18783z" fill="#000000" stroke="#ffffff" stroke-width="0.5" stroke-linecap="butt"/><path d="M339.73556,174.65342v-7.79985h16.04724c0,0 -6.85213,1.62801 -10.86865,3.58026c-4.01651,1.95225 -5.17859,4.21959 -5.17859,4.21959z" fill="#000000" stroke="#ffffff" stroke-width="0.5" stroke-linecap="butt"/><path d="M336.64366,155.25005l-0.44597,-4.24785l1.8947,-0.72962l1.36899,3.99967z" fill="#000000" stroke="none" stroke-width="0" stroke-linecap="butt"/><path d="M341.40817,156.50519l-0.83153,4.92871l-3.53387,2.47279l-1.38049,-4.11012z" fill="#000000" stroke="none" stroke-width="0" stroke-linecap="butt"/><path d="M335.27411,159.57862l0.12369,-4.05606l7.52054,-2.55597l-2.37013,3.74013z" fill="#ffffff" stroke="#ffffff" stroke-width="0.5" stroke-linecap="round"/><path d="M341.15101,151.92064l3.40879,-5.10393l-2.3238,-2.36167l1.84859,-1.87666l2.46368,1.26102l1.59787,-2.39247l3.34947,2.23702l-1.7044,2.55197l1.99918,2.22032l-1.63011,1.71646l-2.46406,-0.79999l-3.19574,4.78494z" fill="#000000" stroke="#ffffff" stroke-width="0.5" stroke-linecap="round"/></g><g stroke="#000000" stroke-width="0.5"><path d="M292.80773,165.48817l-0.1075,-12.46167l9.76049,-0.11174l0.215,12.57341z" fill="#0b8100" stroke-linecap="butt"/><path d="M297.09364,157.85193c0,2.98635 -0.76437,5.40727 -1.70727,5.40727c-0.9429,0 -1.70727,-2.42091 -1.70727,-5.40727c0,-2.98635 0.76437,-5.40727 1.70727,-5.40727c0.9429,0 1.70727,2.42091 1.70727,5.40727z" fill="#000000" stroke-linecap="butt"/><path d="M307.71257,164.47623l-6.23233,4.18946c0,0 -2.84418,15.03218 1.48315,18.63918c3.38981,2.82553 14.14686,8.60349 17.58596,5.84034c2.53525,-2.03696 1.36806,-5.89139 1.36806,-5.89139c0,0 10.53539,6.71459 3.28827,9.32466c-7.13668,2.57029 -32.0545,1.03663 -32.44392,1.03913c-0.72997,0.00468 -1.66112,-9.61322 -1.46926,-17.7064c0.14361,-6.05823 1.35569,-11.18889 1.35569,-11.18889l-3.9703,0.02546l-3.81651,-3.7043l2.6839,-1.84097l3.45444,1.71354l3.29028,-2.34139l3.9387,0.96236l3.11526,-3.73109l-0.16201,-0.58021l-3.23902,-5.34942l-3.51469,2.03456l-3.32648,-2.57106l-3.38188,2.93815l-2.90831,-2.96301l4.60193,-3.5921l1.83948,-0.02104c0,0 0.84546,-6.0403 3.94418,-6.1499c1.06284,-0.0376 2.82012,2.05631 4.14416,2.99323c1.32151,0.93512 2.21081,0.71325 2.21081,0.71325l1.89795,1.0879l4.43707,6.65795z" fill="url(#color-1)" stroke-linecap="round"/><path d="M295.72688,149.65128c0,2.01859 -0.69787,3.65498 -1.55874,3.65498c-0.86087,0 -1.55874,-1.6364 -1.55874,-3.65498c0,-2.01859 0.69787,-3.65498 1.55874,-3.65498c0.86087,0 1.55874,1.6364 1.55874,3.65498z" fill="#001515" stroke-linecap="butt"/></g><path d="M333.7116,131.95689h33.838v33.838z" fill="#ff0000" stroke="#000000" stroke-width="1" stroke-linecap="butt"/></g></g></svg>