<svg version="1.1" xmlns="http://www.w3.org/2000/svg" xmlns:xlink="http://www.w3.org/1999/xlink" width="53.01009" height="72.85894" viewBox="0,0,53.01009,72.85894"><g transform="translate(-213.49495,-143.53208)"><g data-paper-data="{&quot;isPaintingLayer&quot;:true}" fill-rule="nonzero" stroke="#000000" stroke-width="1.28786" stroke-linejoin="miter" stroke-miterlimit="10" stroke-dasharray="" stroke-dashoffset="0" style="mix-blend-mode: normal"><g data-paper-data="{&quot;index&quot;:null}"><path d="M241.11631,182.63228c0,0 3.30479,-12.48887 6.44382,-16.58582c3.48492,-4.54838 13.53668,-9.49203 13.53668,-9.49203c0,0 2.70706,8.97244 -1.8731,17.18771c-4.58016,8.21527 -18.10743,8.89015 -18.10743,8.89015z" data-paper-data="{&quot;index&quot;:null}" fill="#45d1aa" stroke-linecap="butt"></path><path d="M238.82546,182.57965c0,0 -13.51242,-0.92549 -17.93954,-9.22423c-4.42712,-8.29876 -1.55423,-17.21947 -1.55423,-17.21947c0,0 9.95841,5.1291 13.35843,9.7413c3.06256,4.15443 6.13531,16.7024 6.13531,16.7024z" data-paper-data="{&quot;index&quot;:null}" fill="#45d1aa" stroke-linecap="butt"></path><path d="M230.84106,213.09653c0,0 3.45216,-13.80713 4.07223,-20.11719c0.55098,-5.60689 0.13208,-14.41383 0.13208,-14.41383l4.83615,-3.2518l4.07537,1.78213c0,0 1.75835,10.5569 1.16846,16.55979c-0.58933,5.99732 -4.43398,19.44088 -4.43398,19.44088z" fill="#e3ac21" stroke-linecap="butt"></path><path d="M254.35974,156.13187c5.36875,19.21638 -5.1083,29.41193 -15.15247,29.41193c-10.04416,0 -12.59906,-7.65089 -12.59906,-18.05949c0,-4.71548 -3.03774,-18.87399 -3.03774,-18.87399l5.97952,-4.35741c0,0 5.07814,1.81127 11.18429,4.29839c4.36862,1.7794 12.60636,3.93295 13.62545,7.58055z" fill="#45d1aa" stroke-linecap="butt"></path><path d="M240.19201,187.24078c0,0 -9.67478,6.95892 -16.64731,2.67618c-6.97253,-4.28275 -9.25194,-13.24591 -9.25194,-13.24591c0,0 9.24518,-1.47846 13.76242,0.36507c4.06889,1.66055 12.13683,10.20468 12.13683,10.20468z" fill="#45d1aa" stroke-linecap="butt"></path><path d="M239.808,187.11033c0,0 8.06792,-8.54414 12.13681,-10.20469c4.51724,-1.84353 13.76242,-0.36506 13.76242,-0.36506c0,0 -2.27941,8.96316 -9.25195,13.24591c-6.97253,4.28275 -16.64731,-2.67618 -16.64731,-2.67618z" data-paper-data="{&quot;index&quot;:null}" fill="#45d1aa" stroke-linecap="butt"></path><path d="M236.08733,213.01765c0,0 5.1217,-5.42401 7.70473,-6.47817c2.86764,-1.17032 8.73669,-0.23176 8.73669,-0.23176c0,0 -1.44703,5.69002 -5.87334,8.4088c-4.42631,2.71879 -10.5681,-1.6989 -10.5681,-1.6989z" data-paper-data="{&quot;index&quot;:null}" fill="#45d1aa" stroke-linecap="butt"></path><path d="M238.30722,213.16383c0,0 -6.14178,4.41768 -10.5681,1.6989c-4.42631,-2.71879 -5.87334,-8.4088 -5.87334,-8.4088c0,0 5.86904,-0.93856 8.73669,0.23176c2.58303,1.05415 7.70473,6.47817 7.70473,6.47817z" data-paper-data="{&quot;index&quot;:null}" fill="#45d1aa" stroke-linecap="butt"></path><path d="M247.23808,161.94735c0,4.12324 -1.06833,7.46579 -2.38617,7.46579c-1.31784,0 -2.38617,-3.34256 -2.38617,-7.46579c0,-4.12324 1.06833,-7.46578 2.38617,-7.46578c1.31784,0 2.38617,3.34255 2.38617,7.46578z" fill="#000000" stroke-linecap="butt"></path><path d="M239.7034,161.88562c0,4.12324 -1.06833,7.46579 -2.38617,7.46579c-1.31784,0 -2.38617,-3.34256 -2.38617,-7.46579c0,-4.12324 1.06833,-7.46578 2.38617,-7.46578c1.31784,0 2.38617,3.34255 2.38617,7.46578z" fill="#000000" stroke-linecap="butt"></path><path d="M232.24263,176.16493c-1.36139,-0.67159 1.89433,-4.67234 1.89433,-4.67234l9.88031,2.44848c0,0 -4.35766,5.88277 -11.77464,2.22386z" fill="#000000" stroke-linecap="round"></path></g></g></g></svg>