<svg version="1.1" xmlns="http://www.w3.org/2000/svg" xmlns:xlink="http://www.w3.org/1999/xlink" width="20.83036" height="40.68786" viewBox="0,0,20.83036,40.68786"><g transform="translate(-287.22645,-160.17616)"><g stroke-miterlimit="10"><path d="M290.76482,185.0223l-3.10568,1.76715l2.45872,-7.7083l11.02037,-4.00094l1.99456,5.17729l-11.35762,2.21161z" fill="#ffffff" stroke="#000000" stroke-width="0.5"/><path d="M293.79784,182.49094l-3.70784,-4.13717l1.44801,-1.29774l3.70784,4.13717z" fill="#ffa661" stroke="#000000" stroke-width="0.5"/><g stroke="#000000" stroke-width="0.5"><path d="M290.41793,189.55126v-9.33334h9v9.33334z" fill="#ff0000"/><path d="M291.30681,183.16237v-2.83333h7.22222v2.83333z" fill="#00f5ff"/></g><path d="M297.90209,200.56095v-40.13478h8.13158v40.13478z" fill="#0b8100" stroke="#000000" stroke-width="0.5"/><path d="M297.91373,200.61403v-23.24734h8.20606v23.24734z" fill="#ffffff" stroke="#000000" stroke-width="0.5"/><path d="M301.73818,168.48108c0,2.46086 -0.62987,4.45579 -1.40685,4.45579c-0.77698,0 -1.40685,-1.99492 -1.40685,-4.45579c0,-2.46086 0.62987,-4.45579 1.40685,-4.45579c0.77698,0 1.40685,1.99492 1.40685,4.45579z" fill="#000000" stroke="#000000" stroke-width="0.5"/><path d="M298.82131,172.09957c0,-1.38071 0.79628,-2.28054 1.63889,-2.61111c1.98255,-0.77778 1.81585,-0.36202 2.10753,0.04611c0.3266,0.45701 -0.13531,1.61342 -0.13531,2.34278c0,1.38071 -0.73376,2.5 -1.63889,2.5c-0.90513,0 -1.97222,-0.89707 -1.97222,-2.27778z" fill="#0b8100" stroke="none" stroke-width="0"/><path d="M295.97191,190.26389l-3.47188,0.61601l0.18961,-5.08919l10.07482,-7.34098l0.72671,5.13985l-6.45627,3.28285z" fill="#ffffff" stroke="#000000" stroke-width="0.5"/><path d="M298.57562,187.54649l-3.70784,-4.13717l1.44801,-1.29774l3.70784,4.13717z" fill="#ffa661" stroke="#000000" stroke-width="0.5"/><path d="M301.47348,184.71793v-6.77778h2.66667v6.77778z" fill="#ffa661" stroke="#000000" stroke-width="0.5"/><path d="M297.75126,191.21793v-2.38889h8.66667v2.38889z" fill="#ffa661" stroke="#000000" stroke-width="0.5"/><path d="M296.64015,177.66237v-3.05556h11.16667v3.05556z" fill="#ffa661" stroke="#000000" stroke-width="0.5"/></g></g></svg>