<svg version="1.1" xmlns="http://www.w3.org/2000/svg" xmlns:xlink="http://www.w3.org/1999/xlink" width="54.78811" height="81.4516" viewBox="0,0,54.78811,81.4516"><g transform="translate(-212.60595,-139.2742)"><g data-paper-data="{&quot;isPaintingLayer&quot;:true}" fill-rule="nonzero" stroke="#000000" stroke-width="1.28786" stroke-linejoin="miter" stroke-miterlimit="10" stroke-dasharray="" stroke-dashoffset="0" style="mix-blend-mode: normal"><path d="M231.69523,219.39321c-6.38266,0 -11.55682,-2.70519 -11.55682,-6.04222c0,-3.33702 5.17416,-6.04222 11.55682,-6.04222c6.38266,0 11.55682,2.70519 11.55682,6.04222c0,3.33702 -5.17416,6.04222 -11.55682,6.04222z" fill="#00ff50" stroke-linecap="butt"></path><path d="M266.75012,213.84979c0,3.44187 -5.64723,6.23208 -12.61343,6.23208c-6.9662,0 -12.61343,-2.7902 -12.61343,-6.23208c0,-3.44187 5.64723,-6.23206 12.61343,-6.23206c6.9662,0 12.61343,2.79019 12.61343,6.23206z" fill="#00ff50" stroke-linecap="butt"></path><path d="M259.54524,197.42388c0,9.38326 -7.90274,16.9899 -17.65128,16.9899c-9.74852,0 -17.65128,-7.60664 -17.65128,-16.9899c0,-4.76048 4.77787,-7.0454 7.83978,-18.40323c2.97334,-11.02934 3.68135,-22.42387 4.12883,-21.98578c3.66983,3.59272 10.63523,12.13941 13.69679,22.54331c3.21442,10.92333 9.63713,13.30963 9.63713,17.84571z" fill="#00ff50" stroke-linecap="butt"></path><path d="M232.54946,174.43086c3.25349,7.40824 1.9734,15.13429 -2.85916,17.25662c-4.83257,2.12233 -11.38761,-2.16275 -14.6411,-9.57099c-3.25349,-7.40824 -1.9734,-15.13429 2.85916,-17.25662c4.83257,-2.12233 11.38761,2.16275 14.6411,9.57099z" fill="#ffff00" stroke-linecap="butt"></path><path d="M261.16305,158.69117c4.83257,2.12233 6.11266,9.84838 2.85917,17.25662c-3.2535,7.40824 -9.80855,11.69332 -14.64112,9.57099c-4.83256,-2.12233 -6.11265,-9.84838 -2.85916,-17.25662c3.25349,-7.40824 9.80853,-11.69332 14.6411,-9.57099z" data-paper-data="{&quot;index&quot;:null}" fill="#ffff00" stroke-linecap="butt"></path><path d="M243.03753,151.75592c2.13316,7.80492 -0.26491,15.2601 -5.35624,16.65162c-5.09133,1.39151 -10.94794,-3.8076 -13.0811,-11.61252c-2.13316,-7.80492 0.26491,-15.2601 5.35624,-16.65161c5.09133,-1.39151 10.94794,3.80759 13.0811,11.61251z" fill="#ffff00" stroke-linecap="butt"></path><path d="M239.677,195.45223c0,5.1892 -1.37696,9.39586 -3.07552,9.39586c-1.69857,0 -3.07552,-4.20667 -3.07552,-9.39586c0,-5.1892 1.37696,-9.39586 3.07552,-9.39586c1.69857,0 3.07552,4.20667 3.07552,9.39586z" fill="#000000" stroke-linecap="butt"></path><path d="M248.47009,195.6795c0,5.1892 -1.37696,9.39586 -3.07552,9.39586c-1.69857,0 -3.07554,-4.20667 -3.07554,-9.39586c0,-5.1892 1.37696,-9.39585 3.07554,-9.39585c1.69857,0 3.07552,4.20666 3.07552,9.39585z" fill="#000000" stroke-linecap="butt"></path><path d="M247.20533,207.56498c0,0 0.29312,3.16134 -10.42823,2.62489c-2.49531,-0.12485 -6.25131,-4.56822 -6.25131,-4.56822" fill="none" stroke-linecap="round"></path></g></g></svg>