<svg version="1.1" xmlns="http://www.w3.org/2000/svg" xmlns:xlink="http://www.w3.org/1999/xlink" width="76.375" height="75.125" viewBox="0,0,76.375,75.125"><g transform="translate(-281.90021,-141.97901)"><g fill="#8a00ff" stroke="none" stroke-width="0" stroke-miterlimit="10"><path d="M345.15021,148.60401c5.38478,0 9.75,4.58908 9.75,10.25c0,5.66092 -4.36522,10.25 -9.75,10.25c-5.38478,0 -9.75,-4.58908 -9.75,-10.25c0,-5.66092 4.36522,-10.25 9.75,-10.25z"/><path d="M348.65021,163.60401c5.31574,0 9.625,4.50513 9.625,10.0625c0,5.55737 -4.30926,10.0625 -9.625,10.0625c-5.31574,0 -9.625,-4.50513 -9.625,-10.0625c0,-5.55737 4.30926,-10.0625 9.625,-10.0625z"/><path d="M336.90021,187.10401c0,-4.41828 4.14137,-8 9.25,-8c5.10863,0 9.25,3.58172 9.25,8c0,4.41828 -4.14137,8 -9.25,8c-5.10863,0 -9.25,-3.58172 -9.25,-8z"/><path d="M345.29452,189.98051c5.22083,-0.7964 10.20003,3.45421 11.12135,9.49399c0.92132,6.03978 -2.56412,11.5816 -7.78495,12.378c-5.22083,0.7964 -10.20003,-3.45421 -11.12135,-9.49399c-0.92132,-6.03978 2.56412,-11.5816 7.78495,-12.378z"/><path d="M331.08771,141.97901c6.73097,0 12.1875,5.12074 12.1875,11.4375c0,6.31676 -5.45653,11.4375 -12.1875,11.4375c-6.73097,0 -12.1875,-5.12074 -12.1875,-11.4375c0,-6.31676 5.45653,-11.4375 12.1875,-11.4375z"/><path d="M318.83771,164.72901c-5.28122,0 -9.5625,-3.3019 -9.5625,-7.375c0,-4.0731 4.28128,-7.375 9.5625,-7.375c5.28122,0 9.5625,3.3019 9.5625,7.375c0,4.0731 -4.28128,7.375 -9.5625,7.375z"/><path d="M304.71271,141.97901c4.93604,0 8.9375,5.42855 8.9375,12.125c0,6.69645 -4.00146,12.125 -8.9375,12.125c-4.93604,0 -8.9375,-5.42855 -8.9375,-12.125c0,-6.69645 4.00146,-12.125 8.9375,-12.125z"/><path d="M292.21271,150.35401c4.59087,0 8.3125,4.30926 8.3125,9.625c0,5.31574 -3.72163,9.625 -8.3125,9.625c-4.59087,0 -8.3125,-4.30926 -8.3125,-9.625c0,-5.31574 3.72163,-9.625 8.3125,-9.625z"/><path d="M291.65021,163.85401c5.38478,0 9.75,4.72899 9.75,10.5625c0,5.83351 -4.36522,10.5625 -9.75,10.5625c-5.38478,0 -9.75,-4.72899 -9.75,-10.5625c0,-5.83351 4.36522,-10.5625 9.75,-10.5625z"/><path d="M292.65021,196.97901c-5.17767,0 -9.375,-4.5611 -9.375,-10.1875c0,-5.6264 4.19733,-10.1875 9.375,-10.1875c5.17767,0 9.375,4.5611 9.375,10.1875c0,5.6264 -4.19733,10.1875 -9.375,10.1875z"/><path d="M293.65021,213.35401c-5.79899,0 -10.5,-4.8689 -10.5,-10.875c0,-6.0061 4.70101,-10.875 10.5,-10.875c5.79899,0 10.5,4.8689 10.5,10.875c0,6.0061 -4.70101,10.875 -10.5,10.875z"/><path d="M306.77521,197.85401c5.52285,0 10,3.94549 10,8.8125c0,4.86701 -4.47715,8.8125 -10,8.8125c-5.52285,0 -10,-3.94549 -10,-8.8125c0,-4.86701 4.47715,-8.8125 10,-8.8125z"/><path d="M318.58771,200.72901c4.10762,0 7.4375,3.66567 7.4375,8.1875c0,4.52183 -3.32988,8.1875 -7.4375,8.1875c-4.10762,0 -7.4375,-3.66567 -7.4375,-8.1875c0,-4.52183 3.32988,-8.1875 7.4375,-8.1875z"/><path d="M320.40021,208.29151c0,-4.59087 5.28864,-8.3125 11.8125,-8.3125c6.52386,0 11.8125,3.72163 11.8125,8.3125c0,4.59087 -5.28864,8.3125 -11.8125,8.3125c-6.52386,0 -11.8125,-3.72163 -11.8125,-8.3125z"/><path d="M295.65021,203.35401v-45.5h50.375v45.5z"/></g></g></svg>