<svg version="1.1" xmlns="http://www.w3.org/2000/svg" xmlns:xlink="http://www.w3.org/1999/xlink" width="827.95312" height="537" viewBox="0,0,827.95312,537"><g transform="translate(103.95311,87.5)"><g stroke-miterlimit="10"><path d="M-79.99999,449.5v-537h804v537z" fill="#000000" stroke="none" stroke-width="0" stroke-linecap="butt"/><g fill="#ffffff" stroke="#ffffff" stroke-width="2.5"><path d="M503.8809,190.40551c3.45239,-2.84486 9.52537,-1.17759 13.56437,3.72396c4.039,4.90155 4.51453,11.18125 1.06214,14.02612c-3.45239,2.84486 -9.52537,1.17758 -13.56437,-3.72397c-4.039,-4.90155 -4.51454,-11.18125 -1.06214,-14.02611z" stroke-linecap="butt"/><path d="M512.38235,182.1661l16.4533,25.08563l-5.01713,3.29066l-16.4533,-25.08563z" stroke-linecap="butt"/><path d="M553.63357,235.12561l-6.06638,13.49959l-26.18103,-11.7651l6.06638,-13.49959z" stroke-linecap="butt"/><path d="M520.05071,176.40039l-13.8543,30.83015l-12.04018,-5.41056l13.8543,-30.83015z" stroke-linecap="butt"/><path d="M546.12487,215.96423l-14.01826,31.19501l-54.1808,-24.3475l14.01826,-31.19501z" stroke-linecap="butt"/><path d="M537.38735,222.23367c-1.06397,2.36766 -3.84585,3.42452 -6.21352,2.36055c-2.36766,-1.06397 -3.42452,-3.84585 -2.36055,-6.21352c1.06397,-2.36766 3.84585,-3.42452 6.21352,-2.36055c2.36766,1.06397 3.42452,3.84585 2.36055,6.21352z" stroke-linecap="butt"/><path d="M530.65427,225.01854l-4.18088,9.30377l-14.2293,-6.39429" stroke-linecap="round"/><path d="M496.06931,215.61636l5.41056,-12.04018l16.41842,7.37803" stroke-linecap="round"/><path d="M502.69613,218.92319c-1.7431,3.87894 -6.30066,5.61038 -10.17959,3.86728c-3.87894,-1.7431 -5.61038,-6.30066 -3.86728,-10.17959c1.7431,-3.87894 6.30066,-5.61038 10.17959,-3.86728c3.87894,1.7431 5.61038,6.30066 3.86728,10.17959z" stroke-linecap="butt"/></g><path d="M482.0469,196.33594v-27h217.00001v27z" fill="#ffffff" stroke="none" stroke-width="0" stroke-linecap="butt"/><path d="M474.63348,204.95351l-29.55477,-34.75634l11.39968,-9.69361l29.55476,34.75635z" fill="#ffffff" stroke="none" stroke-width="0" stroke-linecap="butt"/><path d="M517.36579,193.8518l-32.56151,-31.95677l10.48144,-10.67979l32.56153,31.95678z" fill="#ffffff" stroke="none" stroke-width="0" stroke-linecap="butt"/><path d="M469.87366,165.81238l-3.85692,-20.15606l11.0573,-2.11585l3.85692,20.15606z" fill="#ffffff" stroke="none" stroke-width="0" stroke-linecap="butt"/><path d="M466.74354,226.87447l-11.72235,-65.94405l39.66196,-7.58943l13.92236,70.54406z" fill="#ffffff" stroke="none" stroke-width="0" stroke-linecap="butt"/><path d="M496.47422,119.05961c2.98311,15.58959 -6.99846,30.60022 -22.29445,33.52715c-15.29599,2.92693 -30.11414,-7.33818 -33.09725,-22.92778c-1.05387,-5.50745 -0.48968,-10.94264 1.35527,-15.79833c3.37741,-8.88899 -19.6429,-35.25939 12.9803,-39.3686c40.63903,-9.37301 27.37883,23.31036 33.7997,30.20762c3.59253,3.85908 6.18618,8.76684 7.25644,14.35996z" fill="#ffffff" stroke="none" stroke-width="0" stroke-linecap="butt"/><path d="M465.64092,131.04003c0.82234,4.29753 0.70458,7.93147 -0.26304,8.11662c-0.96762,0.18516 -2.41867,-3.14858 -3.24101,-7.44611c-0.82234,-4.29753 -0.70458,-7.93148 0.26304,-8.11664c0.96762,-0.18515 2.41867,3.1486 3.24101,7.44612z" fill="#ffffff" stroke="none" stroke-width="0" stroke-linecap="butt"/><path d="M475.39173,127.56917c0.81576,4.26315 0.5334,7.8997 -0.63068,8.12245c-1.16408,0.22275 -2.76907,-3.05265 -3.58483,-7.3158c-0.81576,-4.26315 -0.5334,-7.89969 0.63068,-8.12244c1.16408,-0.22275 2.76907,3.05264 3.58484,7.31579z" fill="#ffffff" stroke="none" stroke-width="0" stroke-linecap="butt"/><path d="M182.16857,348.9183v-125.38367h391.67136v125.38367z" fill="#ffffff" stroke="none" stroke-width="0" stroke-linecap="butt"/><path d="M451.39579,118.58821l13.54508,6.0103" fill="#ffffff" stroke="none" stroke-width="0" stroke-linecap="round"/><path d="M480.40309,110.56901l-12.98521,13.27567" fill="#ffffff" stroke="none" stroke-width="0" stroke-linecap="round"/><path d="M464.23188,159.87579l19.44574,-3.721l-3.76229,24.23476z" fill="#ffffff" stroke="none" stroke-width="0" stroke-linecap="butt"/><path d="M487.79365,136.29846c0,0 -1.15783,2.81789 -2.65544,4.01052c-1.80897,1.44058 -7.44181,4.03048 -7.44181,4.03048" fill="#ffffff" stroke="none" stroke-width="0" stroke-linecap="round"/><path d="M484.46147,184.66719c0,9.83067 -3.14147,17.8 -7.01666,17.8c-3.8752,0 -7.01667,-7.96933 -7.01667,-17.8c0,-9.83067 3.14147,-17.8 7.01667,-17.8c3.8752,0 7.01666,7.96933 7.01666,17.8z" fill="#000000" stroke="none" stroke-width="0" stroke-linecap="butt"/><path d="M-103.9531,198.33594v-27h584.00001v27z" fill="#ffffff" stroke="none" stroke-width="0" stroke-linecap="butt"/></g></g></svg>