<svg version="1.1" xmlns="http://www.w3.org/2000/svg" xmlns:xlink="http://www.w3.org/1999/xlink" width="64.79222" height="88.99064" viewBox="0,0,64.79222,88.99064"><g transform="translate(-207.5598,-137.40138)"><g data-paper-data="{&quot;isPaintingLayer&quot;:true}" fill-rule="nonzero" stroke-linejoin="miter" stroke-miterlimit="10" stroke-dasharray="" stroke-dashoffset="0" style="mix-blend-mode: normal"><path d="M208.55231,222.40698v-84.81396h62.89539v84.81396z" fill="#515151" stroke="none" stroke-width="0" stroke-linecap="butt"></path><g stroke="#000000" stroke-width="1.28786"><path d="M225.52265,161.81062c0.03803,-0.05227 -5.58497,2.06462 -5.67409,1.54248c-0.54722,-3.20628 2.46997,-16.24917 2.46997,-16.24917l7.35398,6.10073l2.11602,-7.0918l6.53702,7.71149l-1.09312,1.29616l0.59315,-0.69624l5.04963,-8.88634l6.66201,10.33616l-1.02492,0.14997l4.22469,-10.26116l5.57459,9.64874l5.09963,-10.21117c0,0 -2.13502,18.33067 -2.23324,20.36705c-0.01808,0.37499 1.25371,-0.05863 1.25371,-0.05863" data-paper-data="{&quot;index&quot;:null}" fill="#00ffff" stroke-linecap="round"></path><path d="M219.233,163.45447l4.18719,-12.34839l5.09963,10.21117l5.57459,-9.64875l4.22469,10.26116l-1.02492,-0.14998l6.66201,-10.33615l5.04963,8.88634l0.59315,0.69624l-1.09312,-1.29616l6.53702,-7.71149l4.17469,9.88621l1.48716,2.04401" fill="#00ffff" stroke-linecap="round"></path><path d="M219.74509,205.03527l3.78723,-38.45749l34.27249,0.19997l5.66208,38.25752z" fill="#87ffff" stroke-linecap="butt"></path><path d="M264.95509,167.22144c0,1.00247 -0.79451,2.76957 -7.70191,3.47924c-8.25253,0.84787 -23.39825,0.52825 -31.31007,0.26188c-9.24552,-0.31126 -11.02186,-2.34154 -11.02186,-3.74112c0,-1.78102 -0.38878,-3.76822 11.9873,-3.78687c6.50018,-0.0098 20.91576,-0.21376 28.9778,0.542c7.61273,0.71365 9.06873,2.36157 9.06873,3.24487z" fill="#549e9e" stroke-linecap="butt"></path><path d="M220.15953,168.42497l4.18719,-12.34839l5.09963,10.21117l5.57459,-9.64874l4.22469,10.26116l-1.02492,-0.14998l6.66201,-10.33615l5.04963,8.88634l0.59315,0.69623l-1.09311,-1.29616l6.53702,-7.71149l4.1747,9.88621l1.48715,2.04401" fill="#00ffff" stroke-linecap="round"></path><path d="M224.17208,175.31719l12.97525,4.12613" fill="none" stroke-linecap="round"></path><path d="M239.62548,178.67186l14.88063,-3.82222" fill="none" stroke-linecap="round"></path><path d="M237.93052,181.61159c0,2.94694 -2.0594,5.33591 -4.59979,5.33591c-2.54039,0 -4.59978,-2.38898 -4.59978,-5.33592c0,-2.94695 0.14233,-3.62935 2.68272,-3.62935c2.54039,0 6.51685,0.68241 6.51685,3.62935z" fill="#ffffff" stroke-linecap="butt"></path><path d="M240.25364,181.28151c0,-2.94694 3.97646,-3.62935 6.51685,-3.62935c2.54039,0 2.68272,0.6824 2.68272,3.62935c0,2.94694 -2.05939,5.33592 -4.59978,5.33592c-2.54039,0 -4.59978,-2.38897 -4.59978,-5.33591z" data-paper-data="{&quot;index&quot;:null}" fill="#ffffff" stroke-linecap="butt"></path><path d="M238.176,196.75435c0,0 3.96688,-3.07189 6.82646,-4.12426c2.35778,-0.86769 9.1179,-1.7435 9.1179,-1.7435" fill="none" stroke-linecap="round"></path></g><path d="M208.55233,222.38702v-12.81396h62.89539v12.81396z" fill="#969696" stroke="none" stroke-width="0" stroke-linecap="butt"></path><path d="M208.50229,222.35702v-84.81396h8.64539v84.81396z" fill="#969696" stroke="none" stroke-width="0" stroke-linecap="butt"></path><path d="M264.04986,222.70719v-84.81396h8.14539v84.81396z" fill="#969696" stroke="none" stroke-width="0" stroke-linecap="butt"></path><path d="M208.55233,147.90701v-10.31396h62.89539v10.31396z" fill="#969696" stroke="none" stroke-width="0" stroke-linecap="butt"></path><path d="M216.29734,211.48042v-21.00188l21.13534,21.00188z" fill="#969696" stroke="none" stroke-width="0" stroke-linecap="butt"></path><path d="M223.41181,215.22399v-12.15842h44.05785v12.15842z" fill="#969696" stroke="none" stroke-width="0" stroke-linecap="butt"></path><text transform="translate(247.74982,220.14202) scale(0.47116,0.5)" font-size="40" xml:space="preserve" fill="#000000" fill-rule="nonzero" stroke="none" stroke-width="1" stroke-linecap="butt" stroke-linejoin="miter" stroke-miterlimit="10" stroke-dasharray="" stroke-dashoffset="0" font-family="Sans Serif" font-weight="normal" text-anchor="start" style="mix-blend-mode: normal"><tspan x="0" dy="0">75</tspan></text><g stroke-linecap="butt"><path d="M223.936,213.69347l-2.65375,6.84999l-2.38631,-6.84999z" data-paper-data="{&quot;index&quot;:null}" fill="#ffff00" stroke="#ffff00" stroke-width="1"></path><path d="M218.96775,202.31762l2.38632,-6.84999l2.65375,6.84999z" fill="#ffff00" stroke="#ffff00" stroke-width="1"></path><path d="M214.78435,208.21682c0,-3.72115 3.01658,-6.73773 6.73773,-6.73773c3.72115,0 6.73772,3.01658 6.73772,6.73773c0,3.72115 -3.01658,6.73772 -6.73772,6.73772c-3.72115,0 -6.73773,-3.01658 -6.73773,-6.73772z" fill="#ffff00" stroke="none" stroke-width="0"></path><path d="M227.21236,205.68172l6.87114,2.59848l-6.83054,2.44142z" data-paper-data="{&quot;index&quot;:null}" fill="#ffff00" stroke="#ffff00" stroke-width="1"></path><path d="M215.87692,210.74146l-6.86899,-2.33105l6.82838,-2.70885z" fill="#ffff00" stroke="#ffff00" stroke-width="1"></path><path d="M227.52794,210.32821l3.04475,6.68537l-6.56714,-3.08051z" data-paper-data="{&quot;index&quot;:null}" fill="#ffff00" stroke="#ffff00" stroke-width="1"></path><path d="M215.91926,205.9314l-3.23165,-6.49409l6.75404,2.88922z" fill="#ffff00" stroke="#ffff00" stroke-width="1"></path><path d="M224.08737,202.38559l6.66063,-3.0985l-3.02751,6.59174z" data-paper-data="{&quot;index&quot;:null}" fill="#ffff00" stroke="#ffff00" stroke-width="1"></path><path d="M219.78422,214.02932l-6.46785,3.28387l2.83472,-6.7771z" fill="#ffff00" stroke="#ffff00" stroke-width="1"></path><path d="M216.80059,208.41738c0,-2.70702 2.19448,-4.90151 4.9015,-4.90151c2.70702,0 4.90151,2.19448 4.90151,4.90151c0,2.70702 -2.19448,4.9015 -4.90151,4.9015c-2.70702,0 -4.9015,-2.19448 -4.9015,-4.9015z" fill="#fffff7" stroke="none" stroke-width="0"></path></g><path d="M272.35202,137.40138v33.64619l-33.86,-33.64619z" fill="#00e2ff" stroke="none" stroke-width="0" stroke-linecap="butt"></path></g></g></svg>