<svg version="1.1" xmlns="http://www.w3.org/2000/svg" xmlns:xlink="http://www.w3.org/1999/xlink" width="65.21811" height="88.41618" viewBox="0,0,65.21811,88.41618"><defs><linearGradient x1="319.95335" y1="137.31686" x2="319.95335" y2="222.1308" gradientUnits="userSpaceOnUse" id="color-1"><stop offset="0" stop-color="#555555"/><stop offset="1" stop-color="#00ff94"/></linearGradient><linearGradient x1="319.59165" y1="209.32887" x2="319.59165" y2="222.14281" gradientUnits="userSpaceOnUse" id="color-2"><stop offset="0" stop-color="#7c7c7c"/><stop offset="1" stop-color="#7a7a7a"/></linearGradient><linearGradient x1="292.41661" y1="137.2988" x2="292.41661" y2="222.11282" gradientUnits="userSpaceOnUse" id="color-3"><stop offset="0" stop-color="#969696"/><stop offset="1" stop-color="#7a7a7a"/></linearGradient><linearGradient x1="347.75417" y1="137.36757" x2="347.75417" y2="222.18158" gradientUnits="userSpaceOnUse" id="color-4"><stop offset="0" stop-color="#969696"/><stop offset="1" stop-color="#7a7a7a"/></linearGradient><linearGradient x1="306.45662" y1="190.23432" x2="306.45662" y2="211.2362" gradientUnits="userSpaceOnUse" id="color-5"><stop offset="0" stop-color="#858585"/><stop offset="1" stop-color="#818181"/></linearGradient><linearGradient x1="325.03236" y1="202.82136" x2="325.03236" y2="214.97976" gradientUnits="userSpaceOnUse" id="color-6"><stop offset="0" stop-color="#808080"/><stop offset="1" stop-color="#7d7d7d"/></linearGradient></defs><g transform="translate(-287.15141,-137.08963)"><g stroke-miterlimit="10"><path d="M351.40105,137.31686v84.81396h-62.89539v-84.81396z" fill="url(#color-1)" stroke="none" stroke-width="0" stroke-linecap="butt"/><g stroke="#000000" stroke-width="1.28786"><path d="M313.27943,172.87242c0,0 3.35121,-14.21459 8.20533,-17.20828c4.85411,-2.99369 14.21716,3.37961 14.21716,3.37961c0,0 -10.35191,13.4499 -13.39236,15.32504c-3.04045,1.87514 -9.03012,-1.49635 -9.03012,-1.49635z" fill="#00ab1f" stroke-linecap="round"/><path d="M325.68351,180.92705c0,0 4.39752,14.36321 0.5993,22.42581c-1.77704,3.77217 -2.85476,3.8882 -2.85476,3.8882l-6.20961,-0.12578c0,0 -0.44925,-0.82201 -2.52212,-3.52563c-2.63042,-4.50317 -1.1986,-22.12438 -1.1986,-22.12438z" fill="#88ff9e" stroke-linecap="round"/><path d="M317.34067,171.34048c0,0 10.49749,-10.15321 16.19961,-10.05111c5.70213,0.1021 10.14005,10.52276 10.14005,10.52276c0,0 -15.97636,5.72868 -19.54797,5.66473c-3.57161,-0.06396 -6.7917,-6.13637 -6.7917,-6.13637z" fill="#00ab1f" stroke-linecap="round"/><path d="M311.80094,178.12172c-3.04045,-1.87514 -13.39236,-15.32503 -13.39236,-15.32503c0,0 9.36305,-6.3733 14.21715,-3.37961c4.85411,2.99369 8.20533,17.20828 8.20533,17.20828c0,0 -5.98967,3.37149 -9.03012,1.49635z" fill="#00ab1f" stroke-linecap="round"/><path d="M314.95019,180.12404c-3.55956,0.29995 -19.87971,-4.35995 -19.87971,-4.35995c0,0 3.73928,-10.69127 9.42217,-11.17013c5.68289,-0.47887 16.82868,8.95812 16.82868,8.95812c0,0 -2.81158,6.27203 -6.37114,6.57196z" fill="#00ab1f" stroke-linecap="round"/><path d="M320.60142,180.64403c-2.05206,2.92395 -16.09188,12.46047 -16.09188,12.46047c0,0 -5.80712,-9.72433 -2.53099,-14.39247c3.27614,-4.66814 17.66438,-7.17094 17.66438,-7.17094c0,0 3.01055,6.17898 0.95848,9.10293z" fill="#00ab1f" stroke-linecap="round"/><path d="M321.2114,172.14857c0,0 14.09079,-3.83859 19.0381,-1.00156c4.94731,2.83702 3.81488,14.10658 3.81488,14.10658c0,0 -16.75971,-2.67841 -19.85853,-4.45542c-3.09881,-1.77702 -2.99445,-8.6496 -2.99445,-8.6496z" fill="#00ab1f" stroke-linecap="round"/><path d="M318.65734,193.61407c0,2.49507 -0.49358,4.51772 -1.10245,4.51772c-0.60887,0 -1.10245,-2.02266 -1.10245,-4.51772c0,-2.49507 0.49358,-4.51772 1.10245,-4.51772c0.60887,0 1.10245,2.02266 1.10245,4.51772z" fill="#000000" stroke-linecap="butt"/><path d="M323.67743,193.37972c0,2.49507 -0.49358,4.51772 -1.10245,4.51772c-0.60887,0 -1.10245,-2.02266 -1.10245,-4.51772c0,-2.49507 0.49358,-4.51772 1.10245,-4.51772c0.60887,0 1.10245,2.02266 1.10245,4.51772z" fill="#000000" stroke-linecap="butt"/><path d="M314.2204,179.06112c-0.99073,-3.43204 3.86405,-8.29766 3.86405,-8.29766c0,0 12.79447,7.0418 14.37619,12.5211c1.58171,5.4793 -7.06982,12.78931 -7.06982,12.78931c0,0 -10.1797,-13.58072 -11.17042,-17.01276z" fill="#00ab1f" stroke-linecap="round"/><g stroke-linecap="butt"><path d="M314.61714,166.87038c1.36676,-1.13845 4.8207,-0.10727 7.71459,2.30323c2.89389,2.4105 4.13187,5.28749 2.7651,6.42595c-1.36676,1.13845 -4.8207,0.10727 -7.71459,-2.30323c-2.89389,-2.4105 -4.13187,-5.28749 -2.76511,-6.42595z" fill="#ffffff"/><path d="M322.32843,173.10693c-2.89389,2.4105 -6.34783,3.44168 -7.71459,2.30323c-1.36676,-1.13845 -0.12878,-4.01545 2.7651,-6.42595c2.89389,-2.4105 6.34783,-3.44168 7.71459,-2.30323c1.36676,1.13845 0.12878,4.01545 -2.7651,6.42595z" fill="#ffffff"/><path d="M319.67129,174.03244c-4.09257,0 -7.41026,-1.30518 -7.41026,-2.91521c0,-1.61003 3.31769,-2.91521 7.41026,-2.91521c4.09257,0 7.41026,1.30518 7.41026,2.91521c0,1.61003 -3.31769,2.91521 -7.41026,2.91521z" fill="#ffffff"/><path d="M316.2428,171.36293c0,-3.40895 1.56693,-6.17246 3.4998,-6.17246c1.93289,0 3.4998,2.76351 3.4998,6.17246c0,3.40895 -1.56693,6.17246 -3.4998,6.17246c-1.93289,0 -3.4998,-2.76351 -3.4998,-6.17246z" fill="#ffffff"/><path d="M316.24279,171.14539c0,-1.57918 1.5369,-2.85935 3.43275,-2.85935c1.89586,0 3.43275,1.28018 3.43275,2.85935c0,1.57918 -1.5369,2.85935 -3.43275,2.85935c-1.89586,0 -3.43275,-1.28018 -3.43275,-2.85935z" fill="#fff701"/></g></g><path d="M288.14394,222.14281v-12.81396h62.89539v12.81396z" fill="url(#color-2)" stroke="none" stroke-width="0" stroke-linecap="butt"/><path d="M288.09391,222.11282v-84.81396h8.64539v84.81396z" fill="url(#color-3)" stroke="none" stroke-width="0" stroke-linecap="butt"/><path d="M343.68149,222.18158v-84.81396h8.14539v84.81396z" fill="url(#color-4)" stroke="none" stroke-width="0" stroke-linecap="butt"/><path d="M288.14394,147.40359v-10.31396h62.89539v10.31396z" fill="#969696" stroke="none" stroke-width="0" stroke-linecap="butt"/><path d="M295.88897,211.2362v-21.00188l21.13534,21.00188z" fill="url(#color-5)" stroke="none" stroke-width="0" stroke-linecap="butt"/><path d="M303.00344,214.97976v-12.15842h44.05785v12.15842z" fill="url(#color-6)" stroke="none" stroke-width="0" stroke-linecap="butt"/><text transform="translate(319.32943,219.25581) scale(0.47116,0.5)" font-size="40" xml:space="preserve" fill="#000000" stroke="none" stroke-width="1" stroke-linecap="butt" font-family="Sans Serif" font-weight="normal" text-anchor="start"><tspan x="0" dy="0">225</tspan></text><g stroke-linecap="butt"><path d="M303.52763,213.44923l-2.65375,6.84999l-2.38631,-6.84999z" fill="#ffff00" stroke="#ffff00" stroke-width="1"/><path d="M298.55938,202.07342l2.38632,-6.84999l2.65375,6.84999z" fill="#ffff00" stroke="#ffff00" stroke-width="1"/><path d="M294.37597,207.97259c0,-3.72115 3.01658,-6.73773 6.73773,-6.73773c3.72115,0 6.73772,3.01658 6.73772,6.73773c0,3.72115 -3.01658,6.73772 -6.73772,6.73772c-3.72115,0 -6.73773,-3.01658 -6.73773,-6.73772z" fill="#ffff00" stroke="none" stroke-width="0"/><path d="M306.80397,205.43749l6.87114,2.59848l-6.83054,2.44142z" fill="#ffff00" stroke="#ffff00" stroke-width="1"/><path d="M295.46853,210.49722l-6.86899,-2.33105l6.82838,-2.70885z" fill="#ffff00" stroke="#ffff00" stroke-width="1"/><path d="M307.11957,210.08398l3.04475,6.68537l-6.56714,-3.08051z" fill="#ffff00" stroke="#ffff00" stroke-width="1"/><path d="M295.51088,205.68721l-3.23165,-6.49409l6.75404,2.88922z" fill="#ffff00" stroke="#ffff00" stroke-width="1"/><path d="M303.679,202.14138l6.66063,-3.0985l-3.02751,6.59174z" fill="#ffff00" stroke="#ffff00" stroke-width="1"/><path d="M299.37585,213.78509l-6.46785,3.28387l2.83472,-6.7771z" fill="#ffff00" stroke="#ffff00" stroke-width="1"/><path d="M296.39222,208.17317c0,-2.70702 2.19448,-4.90151 4.9015,-4.90151c2.70702,0 4.90151,2.19448 4.90151,4.90151c0,2.70702 -2.19448,4.9015 -4.90151,4.9015c-2.70702,0 -4.9015,-2.19448 -4.9015,-4.9015z" fill="#fffff7" stroke="none" stroke-width="0"/></g><path d="M351.90611,137.19466v33.64619l-33.86,-33.64619z" fill="#00e2ff" stroke="none" stroke-width="0" stroke-linecap="butt"/></g></g></svg>