<svg version="1.1" xmlns="http://www.w3.org/2000/svg" xmlns:xlink="http://www.w3.org/1999/xlink" width="804" height="599.2557" viewBox="0,0,804,599.2557"><g transform="translate(75.97656,120.50716)"><g stroke-miterlimit="10"><path d="M-75.97656,478.74854v-537h804v537z" fill-opacity="0.42745" fill="#000000" stroke="none" stroke-width="0" stroke-linecap="butt"/><path d="M182.16849,348.9183v-125.38367h391.67136v125.38367z" fill="#ffdc5f" stroke="#000000" stroke-width="2.5" stroke-linecap="butt"/><path d="M445.25983,132.07744l-1.85267,-54.87488l17.71517,-0.59809l1.85267,54.87487z" fill="#d9d9d9" stroke="#000000" stroke-width="2.5" stroke-linecap="butt"/><path d="M436.81352,145.98736l-20.09044,-51.09852l16.49605,-6.48577l20.09044,51.09852z" fill="#d9d9d9" stroke="#000000" stroke-width="2.5" stroke-linecap="butt"/><g stroke="#000000" stroke-width="2.5" stroke-linecap="butt"><path d="M462.11882,115.01121c4.1188,-3.97623 10.46846,-4.08093 14.18238,-0.23385c3.71392,3.84708 3.38569,10.18913 -0.7331,14.16535c-4.1188,3.97623 -10.46846,4.08092 -14.18238,0.23384c-3.71392,-3.84708 -3.38569,-10.18912 0.7331,-14.16534z" fill="#ffe99b"/><path d="M477.18599,115.68184l26.03703,37.46413l-12.28779,8.53983l-26.03702,-37.46413z" fill="#f8f8f8"/></g><g stroke="#000000" stroke-width="2.5" stroke-linecap="butt"><path d="M419.52822,194.40218c-1.44521,-5.53951 1.57763,-11.12446 6.7517,-12.47433c5.17407,-1.34987 10.54006,2.04651 11.98527,7.58602c1.44521,5.53951 -1.57763,11.12446 -6.7517,12.47433c-5.17407,1.34987 -10.54006,-2.04651 -11.98527,-7.58602z" fill="#ffe99b"/><path d="M427.04772,186.87839l41.73889,-18.4215l6.04204,13.68986l-41.73891,18.42151z" fill="#f8f8f8"/></g><path d="M396.072,75.37015l16.46282,-4.23089l13.66406,53.16824l-16.46282,4.23089z" fill="#838383" stroke="#000000" stroke-width="2.5" stroke-linecap="butt"/><path d="M453.97961,111.81713l-13.75927,9.98034l-32.23248,-44.43687l13.75927,-9.98034z" fill="#838383" stroke="#000000" stroke-width="2.5" stroke-linecap="butt"/><path d="M389.57337,70.38359l-26.72932,-64.6859l34.93239,-14.43466l26.72933,64.6859z" fill="#838383" stroke="#000000" stroke-width="2.5" stroke-linecap="butt"/><path d="M361.0773,-21.76985v-97.48731h39.79706v97.48731z" fill="#838383" stroke="#000000" stroke-width="2.5" stroke-linecap="butt"/><path d="M379.02597,21.32455c-16.31883,0 -29.54785,-13.16111 -29.54785,-29.39617c0,-16.23505 13.22902,-29.39616 29.54785,-29.39616c16.31883,0 29.54785,13.1611 29.54785,29.39616c0,16.23506 -13.22902,29.39617 -29.54785,29.39617z" fill="#b5b5b5" stroke="#000000" stroke-width="2.5" stroke-linecap="butt"/><path d="M407.76835,87.58909c-13.45635,0 -24.36488,-11.20634 -24.36488,-25.03007c0,-13.82372 10.90853,-25.03007 24.36488,-25.03007c13.45635,0 24.36488,11.20635 24.36488,25.03007c0,13.82373 -10.90853,25.03007 -24.36488,25.03007z" fill="#b5b5b5" stroke="#000000" stroke-width="2.5" stroke-linecap="butt"/><path d="M485.5962,159.24975l14.25329,14.76436l-8.09949,7.81913l-14.25329,-14.76436z" fill="#ffe99b" stroke="#000000" stroke-width="2.5" stroke-linecap="butt"/><path d="M462.554,115.69901l38.14637,39.51413l-29.05247,28.04684l-38.14637,-39.51414z" fill="#f8f8f8" stroke="#000000" stroke-width="2.5" stroke-linecap="butt"/><path d="M488.87567,212.91472c-11.02413,-11.41941 -10.87803,-29.4452 0.32631,-40.26171c11.20434,-10.81651 29.22408,-10.32777 40.24822,1.09164c11.02413,11.41941 10.87803,29.44518 -0.32631,40.26169c-11.20434,10.81651 -29.22409,10.32778 -40.24822,-1.09163z" fill="#ffe99b" stroke="#000000" stroke-width="2.5" stroke-linecap="butt"/><text transform="translate(435.5011,251.25643) scale(0.5,0.5)" font-size="40" xml:space="preserve" fill="#000000" stroke="none" stroke-width="1" stroke-linecap="butt" font-family="Sans Serif" font-weight="normal" text-anchor="start"><tspan x="0" dy="0">Crazy Dave</tspan></text><path d="M483.06449,224.96274l-5.13502,-10.18789l13.67066,2.28706l-0.14083,-8.58444l15.39821,-0.8186l-0.76584,-12.31515l11.84418,3.34348l9.54897,-18.6699l2.53871,9.71594l11.50391,-15.02205l-1.62201,13.62821c0,0 6.2264,17.71641 -17.19273,31.45277c-12.06649,7.07753 -39.6482,5.17056 -39.6482,5.17056z" fill="#ffbf00" stroke="#000000" stroke-width="2.5" stroke-linecap="round"/><path d="M571.01548,176.93584l2.7548,8.71371l-23.959,17.59468l9.19966,15.24682l-49.18505,29.67738l-15.09986,-25.02538z" fill="#838383" stroke="#000000" stroke-width="2.5" stroke-linecap="butt"/><text transform="translate(196.05871,291.78166) scale(0.604,0.604)" font-size="40" xml:space="preserve" fill="#000000" stroke="none" stroke-width="1" stroke-linecap="butt" font-family="Sans Serif" font-weight="normal" text-anchor="start"><tspan x="0" dy="0">NEIGHBOOR!!!!!!</tspan></text><path d="M514.26414,336.7273v-31.49591l33.54755,17.69586z" fill="#bdae78" stroke="#000000" stroke-width="2.5" stroke-linecap="butt"/><path d="M490.41557,178.88024c0,0 3.81644,8.40164 1.57054,12.9859c-2.2459,4.58425 -7.34701,-1.19514 -7.34701,-1.19514c0,0 1.66884,-2.68587 2.43001,-3.99607c1.11359,-1.91684 3.34645,-7.79469 3.34645,-7.79469z" fill="#ffffff" stroke="#000000" stroke-width="2.5" stroke-linecap="round"/><path d="M517.96113,176.60775l-14.63226,6.8991l-0.63329,-10.14868" fill="none" stroke="#000000" stroke-width="2.5" stroke-linecap="round"/><path d="M492.19635,199.30478l7.16614,-9.58209l0.74995,0.73324l2.89978,11.13189" fill="none" stroke="#000000" stroke-width="2.5" stroke-linecap="round"/></g></g></svg>