<svg version="1.1" xmlns="http://www.w3.org/2000/svg" xmlns:xlink="http://www.w3.org/1999/xlink" width="51.3983" height="64.14276" viewBox="0,0,51.3983,64.14276"><g transform="translate(-214.30152,-146.46437)"><g data-paper-data="{&quot;isPaintingLayer&quot;:true}" fill-rule="nonzero" stroke="#000000" stroke-width="1.28786" stroke-linejoin="miter" stroke-miterlimit="10" stroke-dasharray="" stroke-dashoffset="0" style="mix-blend-mode: normal"><path d="M225.56313,166.6724c0.03809,-0.05234 -5.59352,2.06779 -5.68276,1.54484c-0.54805,-3.21119 2.47376,-16.27405 2.47376,-16.27405l7.36522,6.11007l2.11926,-7.10266l6.54702,7.72329l-1.0948,1.29814l0.59406,-0.69731l5.05735,-8.89994l6.6722,10.35199l-1.02648,0.1502l4.23115,-10.27685l5.58312,9.6635l5.10744,-10.2268c0,0 -2.13828,18.35873 -2.23665,20.39824c-0.01812,0.37555 1.25564,-0.05873 1.25564,-0.05873" data-paper-data="{&quot;index&quot;:null}" fill="#00ffec" stroke-linecap="round"></path><path d="M219.26384,168.31874l4.1936,-12.36729l5.10744,10.2268l5.58313,-9.66352l4.23115,10.27687l-1.02648,-0.15022l6.67222,-10.35197l5.05735,8.89994l0.59406,0.69731l-1.09479,-1.29814l6.54702,-7.72329l4.18108,9.90136l1.48944,2.04713" fill="#00ffec" stroke-linecap="round"></path><path d="M219.77671,209.9632l3.79303,-38.51636l34.32495,0.20028l5.67076,38.31608z" fill="#87ffd6" stroke-linecap="butt"></path><path d="M265.0559,172.09148c0,1.00399 -0.79572,2.7738 -7.7137,3.48455c-8.26517,0.84917 -23.43407,0.52906 -31.358,0.26228c-9.25967,-0.31174 -11.03874,-2.34513 -11.03874,-3.74685c0,-1.78374 -0.38937,-3.77398 12.00565,-3.79266c6.51012,-0.00981 20.94778,-0.2141 29.02215,0.54282c7.62438,0.71474 9.08261,2.36519 9.08261,3.24984z" fill="#549e9e" stroke-linecap="butt"></path><path d="M220.1918,173.29685l4.1936,-12.36729l5.10744,10.2268l5.58312,-9.6635l4.23115,10.27687l-1.02648,-0.15022l6.6722,-10.35196l5.05735,8.89994l0.59406,0.69729l-1.09479,-1.29814l6.54702,-7.72331l4.18108,9.90136l1.48942,2.04713" fill="#00ffec" stroke-linecap="round"></path><path d="M254.92482,178.05063l-10.90452,10.85619" fill="none" stroke-linecap="round"></path><path d="M251.86363,186.17307c0,2.95146 -2.06254,5.34408 -4.60681,5.34408c-0.61882,0 -2.71549,-2.55817 -2.71549,-2.55817l6.40598,-6.3527c0,0 0.91631,2.64374 0.91631,3.56679z" data-paper-data="{&quot;index&quot;:null}" fill="#00ebff" stroke-linecap="butt"></path><path d="M225.41668,201.50001c0,0 2.85381,-4.70454 7.66305,-4.23101c14.9277,1.46983 26.00362,4.06434 26.00362,4.06434" fill="none" stroke-linecap="round"></path><path d="M232.12431,182.93961l6.40598,6.3527c0,0 -2.09667,2.55817 -2.71548,2.55817c-2.54427,0 -4.60681,-2.39263 -4.60681,-5.34409c0,-0.92305 0.91631,-3.56679 0.91631,-3.56679z" data-paper-data="{&quot;index&quot;:null}" fill="#00ebff" stroke-linecap="butt"></path><path d="M240.42482,189.90682l-10.90452,-10.85619" data-paper-data="{&quot;index&quot;:null}" fill="none" stroke-linecap="round"></path></g></g></svg>