<svg version="1.1" xmlns="http://www.w3.org/2000/svg" xmlns:xlink="http://www.w3.org/1999/xlink" width="54.52982" height="58.32548" viewBox="0,0,54.52982,58.32548"><g transform="translate(-292.63931,-154.48107)"><g stroke-miterlimit="10"><path d="M300.75,180c0,-13.73808 8.61852,-24.875 19.25,-24.875c10.63148,0 19.25,11.13692 19.25,24.875c0,13.73808 -8.61852,24.875 -19.25,24.875c-10.63148,0 -19.25,-11.13692 -19.25,-24.875z" fill="#00ffe4" stroke="#00ffe4" stroke-width="1.28786" stroke-linecap="butt"/><path d="" fill="#520000" stroke="none" stroke-width="0.5" stroke-linecap="butt"/><path d="M297.26977,206.04151c-0.01845,-0.00002 -0.0367,-0.00014 -0.05474,-0.00036c0.01339,-0.02452 0.02766,-0.05019 0.04272,-0.07691c0.00393,0.02631 0.00794,0.05207 0.01203,0.07728z" fill="#520000" stroke="none" stroke-width="0.5" stroke-linecap="butt"/><path d="M330.77521,157.54151c0,0 7.45596,6.63853 8.59164,20.63148c0.31302,14.64673 -5.71664,21.74352 -5.71664,21.74352c0,0 -3.8892,2.64322 -14.04269,0.62625c-4.60677,-0.91513 -11.70731,-5.00125 -11.70731,-5.00125c0,0 -5.50133,-5.69843 -4.97507,-20.40635c0.60325,-11.15129 6.97507,-18.59365 6.97507,-18.59365c0,0 -8.62322,1.36024 -11.5,4.75c-2.87678,3.38976 -5.33269,10.56731 -5.10191,17.24056c0.26459,7.65098 7.72691,22.00944 7.72691,22.00944l-2.625,9.25c0,0 9.29381,1.97809 16.1324,2.37112c7.58412,0.43587 26.8676,-2.12112 26.8676,-2.12112l-3.125,-8c0,0 7.94128,-10.87374 8.25,-27.125c0.36996,-19.47466 -15.75,-17.375 -15.75,-17.375z" fill="#520000" stroke="#000000" stroke-width="1.28786" stroke-linecap="round"/><path d="M320.27521,204.54151c0,2.62336 -0.92341,4.75 -2.0625,4.75c-1.13909,0 -2.0625,-2.12664 -2.0625,-4.75c0,-2.62336 0.92341,-4.75 2.0625,-4.75c1.13909,0 2.0625,2.12664 2.0625,4.75z" fill="#ffffff" stroke="#000000" stroke-width="1.28786" stroke-linecap="butt"/><path d="M326.77521,203.91651c0,2.62336 -0.92341,4.75 -2.0625,4.75c-1.13909,0 -2.0625,-2.12664 -2.0625,-4.75c0,-2.62336 0.92341,-4.75 2.0625,-4.75c1.13909,0 2.0625,2.12664 2.0625,4.75z" fill="#ffffff" stroke="#000000" stroke-width="1.28786" stroke-linecap="butt"/><path d="M301.40021,207.29151c0,0 -0.02595,-4.57759 1.875,-4.5c1.90095,0.07759 10.375,5 10.375,5" fill="none" stroke="#000000" stroke-width="1.28786" stroke-linecap="round"/><path d="M310.27521,193.04151l11.25,8.625l10.375,-6.375" fill="none" stroke="#000000" stroke-width="1.28786" stroke-linecap="round"/></g></g></svg>