<svg version="1.1" xmlns="http://www.w3.org/2000/svg" xmlns:xlink="http://www.w3.org/1999/xlink" width="57.03747" height="48.2508" viewBox="0,0,57.03747,48.2508"><g transform="translate(-209.67466,-156.21151)"><g data-paper-data="{&quot;isPaintingLayer&quot;:true}" fill-rule="nonzero" stroke="#000000" stroke-width="1.28786" stroke-linejoin="miter" stroke-miterlimit="10" stroke-dasharray="" stroke-dashoffset="0" style="mix-blend-mode: normal"><path d="" fill="none" stroke-linecap="butt"></path><path d="" fill="#00a735" stroke-linecap="butt"></path><path d="" fill="#ccf280" stroke-linecap="butt"></path><path d="" fill="#000000" stroke-linecap="butt"></path><path d="" fill="#000000" stroke-linecap="butt"></path><path d="" fill="#000000" stroke-linecap="round"></path><path d="M258.99016,191.19414c0,0.74669 4.63279,6.11894 4.63279,6.11894c0,0 -5.26343,-3.14542 -6.54454,-2.68738c-2.62098,0.93706 -2.43795,5.92822 -3.51982,6.55009c-2.73596,1.57266 -6.70758,-1.44821 -6.70758,-1.44821c0,0 -3.54584,3.9002 -5.52644,3.9002c-3.18546,0 -5.2434,-5.33942 -5.2434,-5.33942c0,0 -5.30258,2.1111 -6.96916,0.59163c-0.60792,-0.55426 -2.00295,-1.81068 -3.44955,-2.04868c-4.22916,-0.69579 -10.39213,0.59438 -10.39213,0.59438l5.16098,-4.54305c0,0 -1.36719,0.0251 -2.27551,0.32645c-1.52014,0.50431 -5.99738,2.41813 -5.99738,2.41813c0,0 2.92781,-3.20181 4.66449,-4.47823c1.53376,-1.12728 5.22269,-2.7886 5.22269,-2.7886c0,0 -1.60581,-0.09079 -2.84295,0.28108c-1.66011,0.49901 -6.22738,2.44533 -6.22738,2.44533c0,0 2.16267,-3.15925 6.92863,-5.2482c0.49168,-0.21551 -0.35853,-0.95737 -1.71459,-0.95944c-1.05305,-0.00161 -2.64673,0.71776 -2.64673,0.71776c0,0 3.59464,-3.20765 9.29942,-4.6465c6.74087,-1.70018 10.16281,-3.75258 10.70563,-3.75258c1.49175,0 6.82243,-1.28126 11.55558,0.0243c4.11187,1.13418 7.60294,4.80297 9.85719,5.68168c2.10384,0.82007 3.8295,2.7928 3.8295,2.7928c0,0 -1.73781,-0.25939 -2.56616,-0.17529c-1.10914,0.11261 -4.1881,-0.29731 -4.1881,-0.29731c0,0 7.33156,3.35973 7.95319,3.84171c1.80105,1.39646 2.82318,3.24459 2.82318,3.24459c0,0 -5.82181,-2.09501 -5.82181,-1.11618z" fill="#acff26" stroke-linecap="butt"></path><path d="M257.56565,182.22593c-1.24833,3.09314 -4.60335,2.47413 -8.02424,1.09353c-3.42089,-1.38061 -5.61223,-3 -4.3639,-6.09314c1.24833,-3.09314 5.03349,-4.48143 8.45438,-3.10083c3.4209,1.38061 5.1821,5.0073 3.93377,8.10044z" fill="#4e3605" stroke-linecap="butt"></path><path d="M240.65873,175.35489c0.74117,0 -0.12772,-3.1249 1.22478,-4.30901c1.75735,-1.53854 5.69918,-1.23016 5.69918,-1.23016c0,0 -3.56089,1.99467 -3.56089,3.36307c0,0.50926 -0.51633,4.03148 -1.36617,4.82819c-1.89743,1.7788 -5.06322,1.00772 -5.06322,1.00772c0,0 -1.58262,-3.07682 -1.58262,-4.64894c0,-1.48976 1.58262,-4.55003 1.58262,-4.55003c0,0 1.4445,5.53917 3.06633,5.53917z" data-paper-data="{&quot;index&quot;:null}" fill="#acff26" stroke-linecap="butt"></path><path d="M241.77064,181.29251l8.88945,-3.01094l-1.57716,3.15433l3.58446,0.71689l1.86392,4.13118" fill="#acff26" stroke-linecap="round"></path><path d="M223.87041,173.6545c0,0 -1.50858,-5.44785 -0.59314,-8.49494c0.96856,-3.22391 4.77045,-5.99582 4.77045,-5.99582c0,0 3.04355,-3.20875 5.19485,-2.05987c2.52857,1.35036 -1.02989,4.87746 -1.02989,4.87746c0,0 -0.93427,0.18458 -2.14467,4.01598c-1.05258,3.33185 1.49542,7.93728 1.01741,7.59392c-0.30336,-0.2179 -7.215,0.06327 -7.215,0.06327z" fill="#acff26" stroke-linecap="butt"></path><path d="M230.26727,198.85231l3.40865,-12.55003l6.36418,-3.12068l4.64517,2.93657l5.46813,-2.54776l4.07664,4.28851l1.50552,10.46718c0,0 -1.73647,3.15829 -3.698,3.54604c-1.96153,0.38774 -5.35271,-1.75695 -5.35271,-1.75695c0,0 -2.85232,3.18586 -5.32888,3.41282c-2.40491,0.22039 -11.0887,-4.67571 -11.0887,-4.67571z" fill="#f6fab0" stroke-linecap="round"></path><path d="M236.0147,178.75031c0,2.76527 -2.98359,4.17379 -5.49478,5.45138c-1.21231,0.61678 -1.32485,1.97277 -2.81997,1.97277c-4.5921,0 -8.31473,-3.3239 -8.31473,-7.42415c0,-4.10024 3.72264,-7.42415 8.31474,-7.42415c4.5921,0 8.31474,3.32391 8.31474,7.42415z" fill="#4e3605" stroke-linecap="butt"></path><path d="M244.33217,192.07564c0,3.08651 -1.15945,5.58863 -2.5897,5.58863c-1.43025,0 -2.5897,-2.50211 -2.5897,-5.58863c0,-3.08651 1.15945,-5.58863 2.5897,-5.58863c1.43025,0 2.5897,2.50211 2.5897,5.58863z" fill="#000000" stroke-linecap="butt"></path><path d="M253.33332,191.33379c0,2.84068 -1.09885,5.14351 -2.45437,5.14351c-1.35551,0 -2.45437,-2.30283 -2.45437,-5.14351c0,-2.84068 1.09885,-5.14351 2.45437,-5.14351c1.35551,0 2.45437,2.30283 2.45437,5.14351z" fill="#000000" stroke-linecap="butt"></path><path d="M226.01472,188.31805l-2.43743,-4.87486l8.02919,-1.00365l-0.28675,-3.2977l6.88216,3.2977" fill="#acff26" stroke-linecap="round"></path><path d="M225.04491,161.89087l2.80139,-2.6418c0,0 3.04355,-3.20875 5.19485,-2.05987c2.52857,1.35036 -1.02989,4.87746 -1.02989,4.87746l-1.40738,2.01282z" fill="#4e3605" stroke-linecap="butt"></path><path d="M236.50264,203.81838c-3.80186,0 -6.88389,-1.81546 -6.88389,-4.05494c0,-2.23949 3.08202,-4.05494 6.88389,-4.05494c3.80186,0 6.88389,1.81546 6.88389,4.05494c0,2.23949 -3.08202,4.05494 -6.88389,4.05494z" fill="#f6fab0" stroke-linecap="butt"></path><path d="M254.3283,202.52682c-3.01097,-1.07572 -4.34721,-4.32562 -3.75792,-5.97505c0.58929,-1.64942 4.00089,-2.7435 6.67708,-1.78739c2.67619,0.95612 4.77589,4.14539 4.22659,5.68291c-0.58928,1.64942 -4.13478,3.15524 -7.14575,2.07952z" fill="#f6fab0" stroke-linecap="butt"></path><path d="M232.13227,202.75579l1.68153,-4.15438" fill="none" stroke-linecap="round"></path><path d="M237.17263,203.45666l-1.08805,-4.05546" fill="none" stroke-linecap="round"></path><path d="M240.74201,202.17927l-2.07719,-2.1761" fill="none" stroke-linecap="round"></path><path d="M253.68683,197.63772l-2.07719,2.8685" fill="none" stroke-linecap="round"></path><path d="M254.28031,202.28667l1.08805,-2.96741" fill="none" stroke-linecap="round"></path><path d="M257.54446,199.51709l0.6924,2.76958" fill="none" stroke-linecap="round"></path><path d="M244.78459,197.4399l2.67067,-0.19783l-0.89022,2.37393z" fill="#000000" stroke-linecap="round"></path></g></g></svg>