<svg version="1.1" xmlns="http://www.w3.org/2000/svg" xmlns:xlink="http://www.w3.org/1999/xlink" width="28.52069" height="49.37777" viewBox="0,0,28.52069,49.37777"><g transform="translate(-291.05201,-151.48625)"><g stroke="#000000" stroke-width="0.5" stroke-miterlimit="10"><path d="M314.9219,192.97528l-2.0606,1.6262l-8.86669,-11.23519l2.0606,-1.6262z" fill="#797979"/><path d="M305.36771,184.13997l-2.0606,-1.62621l8.86669,-11.23519l2.0606,1.62621z" fill="#797979"/><path d="M294.03778,184.26283l-2.20281,-2.95724l7.66878,-5.71238l2.20281,2.95724z" fill="#740000"/><path d="M297.90209,200.56094v-40.13478h8.13158v40.13478z" fill="#0b8100"/><path d="M297.91373,200.61402v-23.24734h8.20606v23.24734z" fill="#740000"/><path d="M297.91373,188.03498v-10.6683h3.76514z" fill="#ffffff"/><path d="M297.85594,184.27742v-7.00605h2.47263z" fill="#ff0000"/><path d="M301.43383,167.91586c0,2.46086 -0.62987,4.45579 -1.40685,4.45579c-0.77698,0 -1.40685,-1.99492 -1.40685,-4.45579c0,-2.46086 0.62987,-4.45579 1.40685,-4.45579c0.77698,0 1.40685,1.99492 1.40685,4.45579z" fill="#000000"/><path d="M291.30201,198.52177v-29.25h4.5625v29.25z" fill="#797979"/><path d="M295.47072,190.65131l-2.65664,-2.55733l6.63171,-6.88925l2.65664,2.55733z" fill="#740000"/><path d="M295.47073,190.46381l-2.65664,-2.55732l2.69569,-2.80037l2.48737,2.73317z" fill="#0b8100"/><path d="M314.92899,180.99095l-9.26883,-27.74259l4.32737,-1.44578l9.26883,27.74259z" fill="#797979"/><path d="M310.23382,198.40301l4.27953,-14.63722l3.41935,0.99973l-4.27953,14.63722z" fill="#797979"/></g></g></svg>