<svg version="1.1" xmlns="http://www.w3.org/2000/svg" xmlns:xlink="http://www.w3.org/1999/xlink" width="736" height="448.52094" viewBox="0,0,736,448.52094"><g transform="translate(53.42362,58.0208)"><g stroke-miterlimit="10"><path d="M-45.92362,273.9792c-4.14213,0 -7.5,-2.3923 -7.5,-5.34335v-321.3133c0,-2.95105 3.35787,-5.34335 7.5,-5.34335h721c4.14214,0 7.5,2.3923 7.5,5.34335v321.3133c0,2.95105 -3.35786,5.34335 -7.5,5.34335z" fill-opacity="0.50196" fill="#000000" stroke="none" stroke-width="0"/><path d="M53.50004,72.00008v-87h554v87z" fill="#adadad" stroke="#000000" stroke-width="1"/><path d="M124.48895,262.3334v-168h387.02222v168z" fill="#adadad" stroke="#000000" stroke-width="1"/><text transform="translate(267.60553,45.2807) scale(0.69512,0.69512)" font-size="40" xml:space="preserve" fill="#000000" stroke="none" stroke-width="1" font-family="Sans Serif" font-weight="normal" text-anchor="start"><tspan x="0" dy="0">Trophies</tspan></text><path d="M186.50006,390.00015v-116h79v116z" fill="#adadad" stroke="#000000" stroke-width="1"/><path d="M369.50007,390.00015v-116h93v116z" fill="#adadad" stroke="#000000" stroke-width="1"/><text transform="translate(137.08809,143.78264) scale(0.5,0.5)" font-size="40" xml:space="preserve" fill="#000000" stroke="none" stroke-width="1" font-family="Sans Serif" font-weight="normal" text-anchor="start"><tspan x="0" dy="0">In the game, trophies represent your</tspan><tspan x="0" dy="46.150000000000006px">progress in the game, you can get </tspan><tspan x="0" dy="46.150000000000006px">trophies by completting certain things </tspan><tspan x="0" dy="46.150000000000006px">in game:</tspan></text></g></g></svg>