<svg version="1.1" xmlns="http://www.w3.org/2000/svg" xmlns:xlink="http://www.w3.org/1999/xlink" width="101.8337" height="31.4105" viewBox="0,0,101.8337,31.4105"><g transform="translate(-188.57371,-160.95734)"><g data-paper-data="{&quot;isPaintingLayer&quot;:true}" fill-rule="nonzero" stroke-linejoin="miter" stroke-miterlimit="10" stroke-dasharray="" stroke-dashoffset="0" style="mix-blend-mode: normal"><path d="M195.36487,178.90796c0,0 -1.72492,-7.4996 9.28092,-13.77928c7.12682,-4.0664 36.66475,-3.06136 36.66475,-3.06136c0,0 10.18521,-0.17642 19.65472,0.62898c6.17624,0.5253 11.83767,1.10217 14.89513,2.78415c9.47129,5.2104 8.28396,13.42751 8.28396,13.42751" fill="#959595" stroke="#000000" stroke-width="2" stroke-linecap="round"></path><path d="M273.53963,179.90964c0,4.04793 -1.58213,9.10268 -9.88928,11.31419c-2.75719,0.73402 -12.78762,0.67081 -22.72265,0.64401c-9.81559,-0.02648 -19.53807,-0.00867 -22.06138,-0.58095c-9.45609,-2.14463 -11.78946,-7.00567 -11.78946,-11.37725c0,-3.2602 1.15336,-7.94004 6.85672,-10.23105c3.06736,-1.23214 15.18643,-1.35869 27.1798,-1.2272c11.66409,0.12789 23.20929,0.48001 26.19352,1.68248c5.68176,2.2894 6.23272,6.52253 6.23272,9.77576z" fill="#6f6f6f" stroke="#000000" stroke-width="1" stroke-linecap="butt"></path><text transform="translate(213.59475,182.24325) scale(0.15643,0.15643)" font-size="40" xml:space="preserve" fill="#000000" fill-rule="nonzero" stroke="none" stroke-width="1" stroke-linecap="butt" stroke-linejoin="miter" stroke-miterlimit="10" stroke-dasharray="" stroke-dashoffset="0" font-family="Sans Serif" font-weight="normal" text-anchor="start" style="mix-blend-mode: normal"><tspan x="0" dy="0">UnlockEverything</tspan></text><path d="M188.57371,182.56897v-4.57626h10.43388v4.57626z" fill="#959595" stroke="none" stroke-width="0" stroke-linecap="butt"></path><path d="M279.97353,182.44355v-4.57626h10.43388v4.57626z" fill="#959595" stroke="none" stroke-width="0" stroke-linecap="butt"></path></g></g></svg>