<svg version="1.1" xmlns="http://www.w3.org/2000/svg" xmlns:xlink="http://www.w3.org/1999/xlink" width="62.20757" height="52.96867" viewBox="0,0,62.20757,52.96867"><g transform="translate(-208.54466,-153.51567)"><g data-paper-data="{&quot;isPaintingLayer&quot;:true}" fill-rule="nonzero" stroke="#000000" stroke-width="1.28786" stroke-linejoin="miter" stroke-miterlimit="10" stroke-dasharray="" stroke-dashoffset="0" style="mix-blend-mode: normal"><path d="" fill="none" stroke-linecap="butt"></path><path d="" fill="#00a735" stroke-linecap="butt"></path><path d="" fill="#ccf280" stroke-linecap="butt"></path><path d="" fill="#000000" stroke-linecap="butt"></path><path d="" fill="#000000" stroke-linecap="butt"></path><path d="" fill="#000000" stroke-linecap="round"></path><g><path d="M262.56486,191.94794c0,0.8217 5.0982,6.73365 5.0982,6.73365c0,0 -5.79219,-3.46141 -7.202,-2.95735c-2.88428,1.0312 -2.68287,6.52377 -3.87342,7.20811c-3.01081,1.73065 -7.38142,-1.5937 -7.38142,-1.5937c0,0 -3.90205,4.29201 -6.08162,4.29201c-3.50547,0 -5.77015,-5.87582 -5.77015,-5.87582c0,0 -5.83527,2.32318 -7.66928,0.65106c-0.66899,-0.60994 -2.20417,-1.99258 -3.79609,-2.25449c-4.65402,-0.76569 -11.43612,0.65409 -11.43612,0.65409l5.67945,-4.99944c0,0 -1.50454,0.02762 -2.50411,0.35925c-1.67285,0.55497 -6.59987,2.66105 -6.59987,2.66105c0,0 3.22194,-3.52346 5.13308,-4.92811c1.68784,-1.24053 5.74736,-3.06874 5.74736,-3.06874c0,0 -1.76713,-0.09991 -3.12855,0.30932c-1.82688,0.54914 -6.85298,2.69099 -6.85298,2.69099c0,0 2.37993,-3.47663 7.62468,-5.77543c0.54107,-0.23716 -0.39455,-1.05355 -1.88684,-1.05582c-1.15884,-0.00177 -2.91262,0.78987 -2.91262,0.78987c0,0 3.95576,-3.52989 10.23364,-5.11329c7.41805,-1.87098 11.18376,-4.12956 11.78111,-4.12956c1.64161,0 7.50781,-1.40997 12.71645,0.02674c4.52495,1.24812 8.36673,5.28547 10.84744,6.25246c2.31519,0.90245 4.21421,3.07336 4.21421,3.07336c0,0 -1.91239,-0.28545 -2.82396,-0.1929c-1.22056,0.12392 -4.60883,-0.32718 -4.60883,-0.32718c0,0 8.06809,3.69725 8.75216,4.22765c1.98198,1.53675 3.1068,3.57054 3.1068,3.57054c0,0 -6.40667,-2.30547 -6.40667,-1.22831z" fill="#acff26" stroke-linecap="butt"></path><path d="M260.99725,182.07879c-1.37374,3.40388 -5.0658,2.72268 -8.83035,1.20339c-3.76455,-1.51931 -6.17603,-3.30138 -4.8023,-6.70525c1.37374,-3.40388 5.53915,-4.93163 9.3037,-3.41234c3.76456,1.51931 5.70269,5.51033 4.32895,8.91421z" fill="#4e3605" stroke-linecap="butt"></path><path d="M242.39187,174.51749c0.81563,0 -0.14055,-3.43883 1.34782,-4.74189c1.93389,-1.6931 6.27172,-1.35374 6.27172,-1.35374c0,0 -3.91862,2.19505 -3.91862,3.70092c0,0.56042 -0.5682,4.43648 -1.50341,5.31323c-2.08804,1.9575 -5.57187,1.10896 -5.57187,1.10896c0,0 -1.74161,-3.38592 -1.74161,-5.11597c0,-1.63942 1.74161,-5.00712 1.74161,-5.00712c0,0 1.58961,6.09563 3.37437,6.09563z" data-paper-data="{&quot;index&quot;:null}" fill="#acff26" stroke-linecap="butt"></path><path d="M243.61548,181.0516l9.78248,-3.31342l-1.7356,3.47121l3.94455,0.78891l2.05117,4.5462" fill="#acff26" stroke-linecap="round"></path><path d="M223.917,172.64628c0,0 -1.66013,-5.99514 -0.65273,-9.34834c1.06586,-3.54778 5.24969,-6.59816 5.24969,-6.59816c0,0 3.3493,-3.5311 5.71672,-2.2668c2.78259,1.48602 -1.13335,5.36745 -1.13335,5.36745c0,0 -1.02813,0.20312 -2.36012,4.41942c-1.15832,3.66657 1.64565,8.73466 1.11962,8.3568c-0.33384,-0.23979 -7.93982,0.06963 -7.93982,0.06963z" fill="#acff26" stroke-linecap="butt"></path><path d="M230.95648,200.37545l3.75108,-13.8108l7.00352,-3.43418l5.11182,3.23158l6.01746,-2.80371l4.48618,4.71933l1.65676,11.51871c0,0 -1.91091,3.47557 -4.0695,3.90227c-2.15858,0.42669 -5.89044,-1.93345 -5.89044,-1.93345c0,0 -3.13886,3.50591 -5.86422,3.75567c-2.64651,0.24253 -12.20267,-5.14543 -12.20267,-5.14543z" fill="#f6fab0" stroke-linecap="round"></path><path d="M237.2813,178.25401c0,3.04307 -3.28332,4.59309 -6.04678,5.99902c-1.3341,0.67874 -1.45794,2.17095 -3.10326,2.17095c-5.05342,0 -9.15002,-3.65782 -9.15002,-8.16998c0,-4.51215 4.09661,-8.16998 9.15003,-8.16998c5.05342,0 9.15003,3.65783 9.15003,8.16998z" fill="#4e3605" stroke-linecap="butt"></path><path d="M246.43434,192.91799c0,3.39658 -1.27593,6.15006 -2.84986,6.15006c-1.57393,0 -2.84986,-2.75347 -2.84986,-6.15006c0,-3.39658 1.27593,-6.15006 2.84986,-6.15006c1.57393,0 2.84986,2.75347 2.84986,6.15006z" fill="#000000" stroke-linecap="butt"></path><path d="M256.33974,192.10162c0,3.12605 -1.20924,5.66022 -2.70093,5.66022c-1.49168,0 -2.70093,-2.53417 -2.70093,-5.66022c0,-3.12605 1.20924,-5.66022 2.70093,-5.66022c1.49168,0 2.70093,2.53417 2.70093,5.66022z" fill="#000000" stroke-linecap="butt"></path><path d="M226.27673,188.78292l-2.68229,-5.36459l8.8358,-1.10448l-0.31556,-3.62899l7.57354,3.62899" fill="#acff26" stroke-linecap="round"></path><path d="M225.20949,159.70088l3.08282,-2.90719c0,0 3.3493,-3.5311 5.71672,-2.2668c2.78259,1.48602 -1.13335,5.36745 -1.13335,5.36745l-1.54876,2.21503z" fill="#4e3605" stroke-linecap="butt"></path><path d="M237.81826,205.8404c-4.18379,0 -7.57544,-1.99784 -7.57544,-4.4623c0,-2.46447 3.39164,-4.4623 7.57544,-4.4623c4.18379,0 7.57544,1.99784 7.57544,4.4623c0,2.46447 -3.39164,4.4623 -7.57544,4.4623z" fill="#f6fab0" stroke-linecap="butt"></path><path d="M257.43467,204.4191c-3.31345,-1.18379 -4.78393,-4.76017 -4.13544,-6.5753c0.64849,-1.81512 4.40282,-3.01911 7.34786,-1.96695c2.94504,1.05217 5.25567,4.56183 4.65119,6.25381c-0.64848,1.81512 -4.55016,3.47221 -7.86361,2.28843z" fill="#f6fab0" stroke-linecap="butt"></path><path d="M233.00884,204.67107l1.85046,-4.57173" fill="none" stroke-linecap="round"></path><path d="M238.55555,205.44235l-1.19735,-4.46287" fill="none" stroke-linecap="round"></path><path d="M242.48351,204.03663l-2.28586,-2.39471" fill="none" stroke-linecap="round"></path><path d="M254.4429,202.19551l2.28586,-3.15667" fill="none" stroke-linecap="round"></path><path d="M257.38186,204.15482l1.19735,-3.26551" fill="none" stroke-linecap="round"></path><path d="M260.97393,201.10701l0.76196,3.04781" fill="none" stroke-linecap="round"></path><path d="M246.93221,198.82115l2.93896,-0.2177l-0.97965,2.61241z" fill="#000000" stroke-linecap="round"></path></g></g></g></svg>