<svg version="1.1" xmlns="http://www.w3.org/2000/svg" xmlns:xlink="http://www.w3.org/1999/xlink" width="239.43834" height="68.34783" viewBox="0,0,239.43834,68.34783"><g transform="translate(-120.4264,-145.8261)"><g data-paper-data="{&quot;isPaintingLayer&quot;:true}" fill-rule="nonzero" stroke-linejoin="miter" stroke-miterlimit="10" stroke-dasharray="" stroke-dashoffset="0" style="mix-blend-mode: normal"><path d="M120.9264,213.67393v-67.34783h238.1472l-32,67.34783z" fill="#a2a2a2" stroke="#000000" stroke-width="1" stroke-linecap="butt"></path><text transform="translate(189.5,166.69922) scale(0.32085,0.32085)" font-size="40" xml:space="preserve" fill="#000000" fill-rule="nonzero" stroke="none" stroke-width="1" stroke-linecap="butt" stroke-linejoin="miter" stroke-miterlimit="10" stroke-dasharray="" stroke-dashoffset="0" font-family="Sans Serif" font-weight="normal" text-anchor="start" style="mix-blend-mode: normal"><tspan x="0" dy="0">Playing...</tspan></text><g data-paper-data="{&quot;index&quot;:null}"><path d="" data-paper-data="{&quot;index&quot;:null}" fill="none" stroke="#000000" stroke-width="1.28786" stroke-linecap="butt"></path><path d="" data-paper-data="{&quot;index&quot;:null}" fill="#00a735" stroke="#000000" stroke-width="1.28786" stroke-linecap="butt"></path><path d="" data-paper-data="{&quot;index&quot;:null}" fill="#ccf280" stroke="#000000" stroke-width="1.28786" stroke-linecap="butt"></path><path d="" data-paper-data="{&quot;index&quot;:null}" fill="#000000" stroke="#000000" stroke-width="1.28786" stroke-linecap="butt"></path><path d="" data-paper-data="{&quot;index&quot;:null}" fill="#000000" stroke="#000000" stroke-width="1.28786" stroke-linecap="butt"></path><path d="" data-paper-data="{&quot;index&quot;:null}" fill="#000000" stroke="#000000" stroke-width="1.28786" stroke-linecap="round"></path><g><path d="M305.49874,178.64659c-0.17136,-0.71315 -4.04619,1.83242 -4.04619,1.83242c0,0 0.42114,-1.52544 1.48886,-2.85816c0.36852,-0.45998 5.12189,-4.19129 5.12189,-4.19129c0,0 -2.17147,0.83768 -2.99928,0.94981c-0.61823,0.08374 -1.83893,0.57696 -1.83893,0.57696c0,0 0.91189,-1.73937 2.30113,-2.70517c1.48854,-1.03485 3.38975,-4.31899 6.18697,-5.86518c3.21987,-1.77981 7.32794,-1.77956 8.4148,-2.04071c0.39549,-0.09504 3.24791,0.80121 8.45675,0.85981c4.40822,0.04957 7.58873,1.75727 7.58873,1.75727c0,0 -1.28704,-0.24511 -2.05398,-0.05958c-0.98762,0.23891 -1.47719,0.92825 -1.08123,0.99918c3.83804,0.68758 5.96678,2.6107 5.96678,2.6107c0,0 -3.66831,-0.61844 -4.96518,-0.69137c-0.96644,-0.05435 -2.12049,0.29292 -2.12049,0.29292c0,0 2.97849,0.56457 4.29329,1.11736c1.48876,0.62593 4.18239,2.44611 4.18239,2.44611c0,0 -3.59703,-0.61053 -4.79285,-0.71184c-0.71453,-0.06054 -1.71502,0.16052 -1.71502,0.16052l4.55547,2.4064c0,0 -4.71601,0.13896 -7.67545,1.38628c-1.01228,0.42665 -1.8087,1.58626 -2.15458,2.0965c-0.94821,1.39881 -5.18109,0.78903 -5.18109,0.78903c0,0 -0.5646,4.25041 -2.88542,4.80809c-1.44301,0.34673 -4.70919,-1.87407 -4.70919,-1.87407c0,0 -2.36475,2.89622 -4.6334,2.2294c-0.89709,-0.26367 -1.63753,-3.93213 -3.71114,-4.15599c-1.01357,-0.10944 -4.29769,3.10368 -4.29769,3.10368c0,0 2.4348,-4.72511 2.30409,-5.26912z" data-paper-data="{&quot;index&quot;:null}" fill="#acff26" stroke="#000000" stroke-width="1.28786" stroke-linecap="butt"></path><path d="M304.96658,171.86322c-1.451,-2.03503 -0.80277,-4.98565 1.44789,-6.59041c2.25065,-1.60475 5.25145,-1.25594 6.70246,0.77908c1.451,2.03503 0.13796,3.59849 -2.11269,5.20325c-2.25065,1.60475 -4.58666,2.64309 -6.03766,0.60807z" data-paper-data="{&quot;index&quot;:null}" fill="#4e3605" stroke="#000000" stroke-width="1.28786" stroke-linecap="butt"></path><path d="M316.08155,163.89735c1.18161,-0.28394 1.26431,-4.57249 1.26431,-4.57249c0,0 1.6888,1.95256 1.94961,3.03795c0.27523,1.1454 -0.33917,3.66414 -0.33917,3.66414c0,0 -2.17151,1.11602 -3.86532,0.15221c-0.75864,-0.43168 -1.75146,-2.90747 -1.84061,-3.2785c-0.23957,-0.99698 -3.18312,-1.82683 -3.18312,-1.82683c0,0 2.81791,-0.91476 4.36761,-0.10149c1.19269,0.62593 1.10671,3.05475 1.64671,2.92499z" data-paper-data="{&quot;index&quot;:null}" fill="#acff26" stroke="#000000" stroke-width="1.28786" stroke-linecap="butt"></path><path d="M307.88774,174.28857l0.63476,-3.33617l2.48603,-1.14983l-1.70128,-2.02204l7.0037,0.63742" data-paper-data="{&quot;index&quot;:null}" fill="#acff26" stroke="#000000" stroke-width="1.28786" stroke-linecap="round"></path><path d="M328.01531,159.7194c0,0 -5.08484,1.00516 -5.26771,1.21701c-0.28815,0.33384 0.76198,-3.4676 -0.58819,-5.71081c-1.55262,-2.57954 -2.26561,-2.55046 -2.26561,-2.55046c0,0 -3.21006,-1.94677 -1.60423,-3.37327c1.36624,-1.21366 4.14543,0.5913 4.14543,0.5913c0,0 3.25521,1.35394 4.52528,3.53322c1.20041,2.05976 1.05505,6.29299 1.05505,6.29299z" data-paper-data="{&quot;index&quot;:null}" fill="#acff26" stroke="#000000" stroke-width="1.28786" stroke-linecap="butt"></path><path d="M327.76608,179.19763c0,0 -5.4696,5.0874 -7.26032,5.34785c-1.84408,0.26821 -4.47993,-1.55357 -4.47993,-1.55357c0,0 -2.09525,2.15624 -3.59224,2.21714c-1.49699,0.0609 -3.31504,-1.93613 -3.31504,-1.93613l-0.73559,-7.88963l2.21933,-3.83816l4.42994,0.89894l2.87023,-2.95272l5.18307,1.15947l4.68054,8.54683z" data-paper-data="{&quot;index&quot;:null}" fill="#f6fab0" stroke="#000000" stroke-width="1.28786" stroke-linecap="round"></path><path d="M324.81762,158.69347c3.34567,-0.80393 6.63977,0.96607 7.35759,3.95337c0.71782,2.98731 -1.41246,6.06072 -4.75812,6.86465c-1.0893,0.26174 -1.40868,-0.70648 -2.39991,-0.94361c-2.05324,-0.49118 -4.47359,-0.99506 -4.95769,-3.00976c-0.71782,-2.9873 1.41247,-6.06072 4.75814,-6.86465z" data-paper-data="{&quot;index&quot;:null}" fill="#4e3605" stroke="#000000" stroke-width="1.28786" stroke-linecap="butt"></path><path d="M319.11182,168.62889l4.43681,-3.60744l0.36841,2.45281l6.02553,-0.67442l-0.92241,3.97839" data-paper-data="{&quot;index&quot;:null}" fill="#acff26" stroke="#000000" stroke-width="1.28786" stroke-linecap="round"></path><path d="M321.43326,153.92215l-1.37776,-1.22009c0,0 -3.21006,-1.94677 -1.60423,-3.37327c1.36624,-1.21366 4.14543,0.5913 4.14543,0.5913l2.5035,1.4343z" data-paper-data="{&quot;index&quot;:null}" fill="#4e3605" stroke="#000000" stroke-width="1.28786" stroke-linecap="butt"></path><path d="M310.87924,186.08708c-2.00538,1.31087 -4.85214,0.83446 -5.57023,-0.26409c-0.66938,-1.02403 0.30207,-3.71523 2.08447,-4.88033c1.78241,-1.16511 4.45953,-0.96525 5.17763,0.13331c0.7181,1.09856 0.3135,3.70027 -1.69187,5.01113z" data-paper-data="{&quot;index&quot;:null}" fill="#f6fab0" stroke="#000000" stroke-width="1.28786" stroke-linecap="butt"></path><path d="M310.49068,182.41273l2.01556,1.72625" data-paper-data="{&quot;index&quot;:null}" fill="none" stroke="#000000" stroke-width="1.28786" stroke-linecap="round"></path><path d="M309.55995,183.93224l1.31221,1.97149" data-paper-data="{&quot;index&quot;:null}" fill="none" stroke="#000000" stroke-width="1.28786" stroke-linecap="round"></path><path d="M308.00914,184.45732l-0.0196,2.13905" data-paper-data="{&quot;index&quot;:null}" fill="none" stroke="#000000" stroke-width="1.28786" stroke-linecap="round"></path><path d="M316.02574,182.60725l-1.06419,-1.57373l1.9804,-0.32341z" data-paper-data="{&quot;index&quot;:null}" fill="#000000" stroke="#000000" stroke-width="1.28786" stroke-linecap="round"></path><g stroke="none" stroke-width="1" stroke-linecap="butt"><path d="M307.56408,200.86181c0.06979,-0.19901 0.24586,-0.36262 0.43442,-0.51165c0.00933,-0.29904 0.01763,-0.58452 0.03947,-0.86897c-0.07087,-0.14169 -0.22925,-0.20836 -0.28554,-0.36256c-0.12195,-0.36362 -0.12198,-0.71787 0.10615,-1.02735c0.16773,-0.23237 0.25313,-0.45744 0.24789,-0.74396c-0.01045,-0.21881 0.00619,-0.43554 0.02284,-0.65226c-0.0865,-0.11563 -0.17507,-0.2042 -0.23448,-0.31775c-0.2126,-0.42508 -0.1939,-0.84603 0.08111,-1.23367c0.12187,-0.16776 0.16042,-0.31467 0.16143,-0.50536c-0.01045,-0.21881 -0.00735,-0.43658 -0.00529,-0.64078c-0.02502,-0.02917 -0.02293,-0.05626 -0.03543,-0.07085c-0.38035,-0.36985 -0.35853,-0.83142 -0.1356,-1.25031c0.09688,-0.19694 0.16458,-0.36887 0.14058,-0.58871c-0.00627,-0.09586 0.00102,-0.19068 0.0083,-0.28549c0.0031,-0.21777 -0.03653,-0.41156 -0.172,-0.5991c-0.2595,-0.34693 -0.22933,-0.73974 0.00195,-1.08987c0.09271,-0.14276 0.14374,-0.27508 0.13017,-0.45326c-0.01983,-0.27404 -0.01257,-0.54597 -0.01781,-0.83251c-0.28448,-0.19898 -0.4262,-0.48237 -0.41375,-0.82204c0.0135,-0.35322 0.09891,-0.57829 0.37603,-0.81589c0.00829,-0.2855 0.01867,-0.59807 0.01343,-0.88461c-0.03855,-0.03022 -0.06357,-0.05939 -0.07503,-0.08751c-0.35534,-0.34067 -0.40022,-0.82099 -0.0856,-1.19196c0.13439,-0.15319 0.20002,-0.29802 0.20104,-0.48869c-0.00627,-0.09586 0.01456,-0.18963 0.03643,-0.29696c0.02603,-0.1615 -0.00422,-0.30008 -0.08758,-0.45636c-0.22824,-0.39902 -0.11159,-0.85332 0.26347,-1.12428c0.13023,-0.099 0.20627,-0.20215 0.25836,-0.34804c0.15935,-0.47826 0.37082,-0.92528 0.66146,-1.33898c0.15312,-0.21987 0.34587,-0.42307 0.55007,-0.59814c0.38026,-0.33867 0.82515,-0.45438 1.31487,-0.44402c0.53035,0.01348 0.96279,0.23744 1.3775,0.51455c0.35013,0.23127 0.65648,0.50005 0.94722,0.79487c0.11358,0.11773 0.25634,0.21044 0.3866,0.28857c0.1042,0.0625 0.22091,0.1396 0.35322,0.0135c0.04376,-0.03751 0.12398,-0.01773 0.19171,-0.01253c0.27091,0.02081 0.54182,0.0416 0.81273,0.06241c0.1219,0.00937 0.23025,0.01769 0.33134,0.12082c0.05002,0.05835 0.14589,0.05209 0.21361,0.05728c0.47409,0.0364 0.94713,0.08637 1.42122,0.12276c0.298,0.02287 0.6085,0.06036 0.90338,0.12387c0.05314,0.01771 0.10733,0.02188 0.13026,0.07813c0.0219,0.06981 -0.03436,0.09274 -0.06561,0.14483c-0.1521,0.20632 -0.32921,0.38347 -0.51882,0.54603c-0.14586,0.12504 -0.30525,0.24906 -0.4261,0.40329c-0.10522,0.12817 -0.25942,0.18446 -0.42613,0.22616c-0.23547,0.05005 -0.46678,0.0459 -0.71059,0.02718c-0.21673,-0.01664 -0.43345,-0.03328 -0.63662,-0.04889c-0.09794,0.03335 -0.11981,0.14067 -0.19169,0.18965c-0.08752,0.07503 -0.17295,0.12298 -0.29069,0.05942c-0.06564,-0.03229 -0.149,-0.01144 -0.21673,-0.01664c-0.19068,-0.00102 -0.3678,-0.001 -0.55743,-0.01556c-0.13546,-0.01039 -0.28341,-0.03538 -0.3845,-0.13853c-0.03855,-0.0302 -0.09066,-0.06146 -0.1438,-0.07917c-0.54703,-0.15102 -1.04408,-0.42082 -1.52653,-0.70311c-0.05211,-0.03126 -0.11774,-0.06354 -0.16985,-0.0948c-0.1563,-0.09376 -0.3324,-0.10728 -0.4939,-0.13331c-0.17506,-0.02707 -0.31674,0.04381 -0.39695,0.20115c-0.1125,0.223 -0.225,0.44598 -0.25831,0.7023c-0.08222,0.71582 -0.11131,1.44934 -0.11225,2.17141c-0.00404,0.93982 0.07525,1.85879 0.12538,2.80279c0.03132,0.47928 0.07722,0.94606 0.10854,1.42535c0.04593,0.6439 0.10436,1.30241 0.16384,1.94736c0.04278,0.50741 0.08556,1.01483 0.12835,1.52224c0.03863,0.5616 0.0637,1.12215 0.10233,1.68374c0.0282,0.51992 0.0564,1.03984 0.09815,1.56081c0.03966,0.54805 0.06474,1.10861 0.10441,1.65666c0.03966,0.54805 0.08037,1.08256 0.09294,1.62852c0.0157,0.50534 0.11266,1.01692 0.1419,1.52329c0.03448,0.7929 0.06898,1.58581 0.04927,2.37455c-0.00412,0.40845 -0.02282,0.82938 -0.01339,1.23887c0.00113,0.69498 -0.10609,1.38163 -0.24042,2.06619c-0.00207,0.02708 -0.00311,0.04064 -0.01874,0.06668c-0.18332,0.43555 -0.28745,0.90443 -0.49787,1.3379c-0.28958,0.57727 -0.69483,1.0639 -1.20325,1.47449c-0.37817,0.31158 -0.80222,0.51064 -1.26274,0.65241c-0.19483,0.05316 -0.37925,0.14801 -0.58762,0.20013c-0.20838,0.05212 -0.42926,0.08966 -0.63662,0.12824c-0.20734,0.03858 -0.42614,0.04902 -0.64703,0.08656c-0.44073,0.06154 -0.8721,0.00115 -1.30555,-0.03214c-0.87941,-0.08115 -1.68591,-0.40196 -2.42782,-0.85408c-0.10419,-0.0625 -0.20527,-0.16565 -0.29386,-0.2542c-0.43037,-0.42818 -0.73155,-0.94181 -0.93272,-1.51589c-0.1897,-0.54595 -0.32419,-1.10128 -0.38885,-1.67851c-0.06779,-0.53658 -0.10747,-1.08464 -0.12108,-1.61706c0.00095,-0.72206 -0.0106,-1.45871 -0.07842,-2.17242c-0.03548,-0.4251 -0.11264,-0.83979 -0.20333,-1.25551c-0.06777,-0.35946 -0.24807,-0.67306 -0.44295,-0.97415c-0.29383,-0.07706 -0.57517,-0.13954 -0.83462,-0.30934c-0.49393,-0.31043 -0.74508,-0.76573 -0.80975,-1.34295c-0.04902,-0.42615 0.07388,-0.78459 0.2791,-1.15033c0.17396,-0.31365 0.41254,-0.58145 0.6386,-0.86384c0.45004,-0.53769 0.94907,-1.00351 1.56272,-1.36514c0.67096,-0.39811 1.35337,-0.76809 2.10875,-1.02345c0.53136,-0.17719 1.07211,-0.29917 1.62016,-0.33884c0.65746,-0.04488 1.30451,0.04567 1.91095,0.31025c0.09274,0.03437 0.17088,0.08125 0.23341,0.15418c0.24802,0.3188 0.45333,0.66158 0.48881,1.08668c0.01879,0.28758 -0.00201,0.55847 -0.13118,0.82106c-0.12709,0.2355 -0.13331,0.4939 -0.12598,0.75333c0.02404,0.5741 0.02098,1.14612 -0.05084,1.72649c-0.06974,0.55327 -0.09988,1.12321 -0.16962,1.67649c-0.04891,0.45951 -0.12491,0.91692 -0.17486,1.38997c-0.04474,0.40532 -0.09054,0.82418 -0.1353,1.2295c-0.01145,0.14899 -0.04998,0.29592 -0.07497,0.44388c-0.08851,0.44284 -0.1218,0.87629 0.03455,1.3243c0.06776,0.18234 0.14694,0.21567 0.31781,0.11978c0.1417,-0.07087 0.19274,-0.2032 0.25628,-0.32095c-0.00627,-0.09586 -0.06983,-0.15524 -0.11882,-0.22713c-0.24178,-0.40007 -0.22515,-0.79392 -0.00328,-1.19927c0.09376,-0.1563 0.20002,-0.29802 0.34275,-0.38244c0.10106,-0.07399 0.13439,-0.15319 0.15626,-0.26051c0.04374,-0.21464 0.07392,-0.43032 0.09161,-0.6606c-0.15006,-0.17503 -0.29908,-0.3636 -0.321,-0.61054c-0.00941,-0.23235 -0.0334,-0.4522 0.05201,-0.67727zM313.99884,182.71675c-0.1615,-0.02603 -0.29071,-0.11771 -0.43659,-0.16978c-0.03855,-0.0302 -0.06253,-0.07293 -0.03231,-0.11148c0.0302,-0.03855 0.07188,-0.04898 0.11252,-0.04587c0.13546,0.0104 0.25008,0.11458 0.4147,0.09998c0.0823,-0.18443 0.02809,-0.36572 -0.01257,-0.54597c-0.4543,-0.11664 -0.8013,-0.38855 -1.11809,-0.69899c-0.11359,-0.11772 -0.22821,-0.22191 -0.35639,-0.32712c-0.50121,-0.39275 -1.0243,-0.67818 -1.67656,-0.70102c-0.24485,-0.00518 -0.45219,0.03339 -0.65223,0.15429c-0.11356,0.0594 -0.21567,0.14694 -0.31671,0.22093c-0.42194,0.3491 -0.67507,0.80653 -0.9157,1.27856c-0.1125,0.22299 -0.19791,0.44806 -0.23018,0.69084c0.34595,0.28543 0.4356,0.53758 0.34917,0.95332c-0.08434,0.38865 -0.35523,0.54499 -0.71261,0.58565c-0.03018,0.21569 -0.06039,0.43138 -0.06452,0.66269c0.31365,0.17396 0.54082,0.40941 0.52523,0.78972c-0.02705,0.35217 -0.15933,0.6554 -0.52295,0.77735c-0.02081,0.27091 -0.04057,0.52827 -0.01865,0.7752c0.25738,0.19689 0.50226,0.3792 0.51689,0.72095c0.02194,0.42406 -0.14162,0.77938 -0.48853,1.03887c-0.02289,0.298 -0.00409,0.58556 0.02824,0.87418c0.46369,0.17187 0.64502,0.47193 0.58256,0.93038c-0.00624,0.08126 -0.02707,0.17506 -0.03331,0.25632c-0.02915,0.20215 -0.14999,0.35637 -0.3219,0.46578c-0.0573,0.03647 -0.15317,0.04274 -0.20108,0.13444c-0.01976,0.25736 -0.02598,0.51575 0.02198,0.77832c0.07608,0.07397 0.17088,0.08125 0.25008,0.11458c0.2386,0.08645 0.4043,0.23543 0.49393,0.48756c0.07922,0.21046 0.06361,0.41365 -0.00514,0.59912c-0.10416,0.29175 -0.27188,0.52413 -0.62718,0.53771c-0.02709,-0.00208 -0.05626,0.02293 -0.08543,0.04794c-0.00622,0.2584 -0.02598,0.51577 0.00947,0.76374c0.5137,0.23021 0.74817,0.54796 0.73155,0.94181c-0.02598,0.51575 -0.23642,0.7721 -0.78133,0.94825c-0.00622,0.2584 -0.01243,0.5168 -0.00511,0.77624c-0.0052,0.06772 -0.02395,0.13441 0.01253,0.19171c0.05002,0.05835 0.11878,0.04999 0.17192,0.0677c0.41054,0.15416 0.72839,0.62819 0.56384,1.17419c-0.11247,0.40011 -0.34272,0.55957 -0.77721,0.53983c-0.04788,0.26882 -0.05411,0.52723 -0.06137,0.79917c0.12922,0.09168 0.2782,0.10312 0.38034,0.19271c0.42203,0.3594 0.48048,1.19504 0.01062,1.63584c-0.10314,0.10109 -0.21878,0.18757 -0.36778,0.17613c-0.06772,-0.0052 -0.12399,0.01774 -0.19275,0.02607c-0.09895,0.22402 -0.10309,0.45534 -0.12078,0.6856c0.2063,-0.02502 0.36364,0.05518 0.48765,0.21458c0.06149,0.08647 0.1084,0.18545 0.14174,0.28338c0.1647,0.51678 0.022,0.95545 -0.34888,1.34935c-0.14793,0.15213 -0.33235,0.24698 -0.55742,0.16156c-0.02606,-0.01563 -0.06773,-0.00519 -0.09586,0.00627c-0.12709,0.23549 -0.26044,0.37514 -0.38963,0.46058c-0.24275,0.14486 -0.52617,0.10947 -0.71478,-0.09577c-0.07503,-0.08751 -0.12089,-0.20004 -0.13861,-0.32402c-0.05735,-0.31778 -0.03342,-0.62932 0.00405,-0.93983c0.06764,-0.70331 0.16237,-1.40454 0.24355,-2.10681c0.09889,-0.75541 0.25091,-1.49313 0.29562,-2.2527c0.03326,-0.61058 0.09362,-1.21907 0.12586,-1.81611c0.01353,-0.1761 -0.00004,-0.35426 -0.06259,-0.60431c-0.04687,0.07815 -0.07708,0.1167 -0.10626,0.14172c-0.06043,0.07711 -0.13335,0.13963 -0.21878,0.18757c-0.04271,0.02398 -0.08335,0.02085 -0.12295,0.00419c-0.05209,-0.03126 -0.06044,-0.10001 -0.02919,-0.15213c0.0177,-0.05314 0.06147,-0.09065 0.09168,-0.12921c0.07605,-0.10315 0.16564,-0.20528 0.24168,-0.30843c0.26148,-0.38867 0.47086,-0.8086 0.45412,-1.30039c0.00207,-0.02708 0.02082,-0.09377 -0.04691,-0.09898c-0.06981,0.0219 -0.06042,0.07712 -0.07813,0.13026c-0.09582,0.36052 -0.25727,0.68875 -0.49688,0.9701c-0.25419,0.29385 -0.5209,0.57313 -0.81468,0.85032c-0.66155,0.63045 -1.42106,1.11713 -2.25144,1.46212c-0.3657,0.14904 -0.73036,0.28454 -1.09502,0.42003c-0.46261,0.16885 -0.93562,0.29603 -1.41594,0.3409c-0.20629,0.02503 -0.41156,0.03653 -0.61578,0.03446c-0.10941,0.00522 -0.21777,-0.00311 -0.32404,-0.03851c-0.29279,-0.09061 -0.58871,-0.14058 -0.84714,-0.32393c-0.02606,-0.01563 -0.06356,-0.05938 -0.10732,-0.02187c0.26678,0.42925 0.67422,0.62403 1.15872,0.70212c0.24277,0.03226 0.50013,0.05203 0.74603,0.04367c0.09586,-0.00627 0.19171,-0.01253 0.2803,0.07603c-0.12916,0.26258 -0.3834,0.20218 -0.59282,0.26785c-0.00624,0.08126 0.04482,0.12607 0.06774,0.18233c0.16571,0.3261 0.26264,0.66056 0.33043,1.02001c0.15847,0.77518 0.19296,1.56808 0.2139,2.35995c0.00426,0.65433 0.02308,1.29616 0.08152,1.95466c0.0261,0.36989 0.09387,0.72935 0.14809,1.08776c0.11157,0.67619 0.40548,1.28465 0.75667,1.85662c0.21885,0.34382 0.49604,0.6376 0.86386,0.81573c0.28864,0.1448 0.59187,0.27709 0.88049,0.42188c0.11878,0.04999 0.2386,0.08645 0.37198,0.12394c0.4147,0.09998 0.83461,0.13222 1.25452,0.16447c0.35218,0.02705 0.70852,-0.00009 1.0659,-0.04077c0.55012,-0.06676 1.09192,-0.20227 1.59723,-0.3951c0.73036,-0.28454 1.36067,-0.68575 1.78048,-1.36204c0.24897,-0.40327 0.49899,-0.82007 0.62918,-1.27332c0.07603,-0.2803 0.15205,-0.56059 0.22808,-0.84088c0.23536,-0.93569 0.26754,-1.88697 0.28618,-2.83931c0.01452,-0.54389 -0.01264,-1.07735 -0.02521,-1.62333c-0.02718,-0.71059 -0.09499,-1.42431 -0.14928,-2.13699c-0.05217,-0.56264 -0.10433,-1.12528 -0.14296,-1.68688c-0.03028,-0.49284 -0.04805,-0.97107 -0.07833,-1.46391c-0.03239,-0.64286 -0.09289,-1.27426 -0.11173,-1.9161c-0.03449,-0.79291 -0.09711,-1.57435 -0.15868,-2.36934c-0.02088,-0.26048 -0.0553,-0.522 -0.07616,-0.78247c-0.08035,-1.08257 -0.17428,-2.16616 -0.25464,-3.24872c-0.05114,-0.75332 -0.10229,-1.50663 -0.12532,-2.2714c-0.00421,-0.30007 0.00617,-0.61265 0.00197,-0.91272c-0.0303,-0.66997 0.03525,-1.34617 0.09977,-2.00886c0.04578,-0.41886 0.21141,-0.80128 0.50727,-1.10555c0.0896,-0.10213 0.20212,-0.14798 0.33862,-0.15112c0.41052,-0.02298 0.76793,0.11347 1.10554,0.33016c0.33866,0.20313 0.68042,0.36562 1.05034,0.51667c0.15837,0.06667 0.3053,0.1052 0.48555,0.06454c-0.06254,-0.07292 -0.14172,-0.10626 -0.22196,-0.12605c-0.11983,-0.03645 -0.22611,-0.07186 -0.33031,-0.13437c-0.10524,-0.04896 -0.20839,-0.12501 -0.22717,-0.23545c0.03229,-0.06564 0.07397,-0.07608 0.11357,-0.05941c0.07919,0.03332 0.15837,0.06667 0.2386,0.08645c0.14172,0.10626 0.32928,0.14791 0.48766,0.21457c0.0396,0.01667 0.08335,-0.02084 0.07605,-0.10315zM306.56326,196.50667c0.0573,-0.03647 0.07396,-0.07606 0.1073,-0.15526c-0.18235,-0.10939 -0.35323,-0.19063 -0.55745,-0.19269c-0.05418,-0.00417 -0.10836,-0.00832 -0.16254,-0.01249c-0.04063,-0.00313 -0.07919,-0.03333 -0.08857,-0.08855c-0.01042,-0.04168 0.01978,-0.08022 0.0625,-0.10419c0.05731,-0.03647 0.12608,-0.04483 0.18026,-0.04066c0.2313,0.00414 0.44282,0.08851 0.65227,0.19997c0.01251,0.01459 0.04063,0.00313 0.06772,0.0052c0.01563,-0.02606 0.03126,-0.05209 0.03437,-0.09274c0.00311,-0.04064 0.04689,-0.07815 -0.00314,-0.1365c-0.10419,-0.0625 -0.24904,-0.12812 -0.39595,-0.16666c-0.22715,-0.05833 -0.44283,-0.08852 -0.6731,-0.1062c-0.08128,-0.00624 -0.14796,-0.02499 -0.16882,-0.10834c0.0177,-0.05314 0.06146,-0.09066 0.11667,-0.10004c0.20734,-0.03858 0.41051,-0.02297 0.61058,0.03326c0.17402,0.0406 0.34698,0.09477 0.52099,0.13538c0.05835,-0.05002 0.0896,-0.10213 0.03853,-0.14691c-0.02502,-0.02917 -0.06461,-0.04584 -0.10419,-0.0625c-0.39492,-0.18021 -0.79399,-0.30623 -1.22118,-0.24366c-0.06876,0.00834 -0.15317,0.04274 -0.2011,-0.0427c-0.00938,-0.05522 0.01979,-0.08024 0.04999,-0.11878c0.07501,-0.08962 0.18441,-0.09484 0.29382,-0.10006c0.3282,-0.01567 0.65122,0.03638 0.95548,0.15512c0.0792,0.03333 0.14172,0.10626 0.22611,0.07187c0.03126,-0.05211 0.00729,-0.09482 -0.01773,-0.12398c-0.10943,-0.1719 -0.26573,-0.26565 -0.43974,-0.30627c-0.21361,-0.05728 -0.41366,-0.11351 -0.62934,-0.14371c-0.86273,-0.12076 -1.68168,0.07524 -2.49227,0.33998c-0.53136,0.17719 -1.02937,0.45233 -1.52634,0.71392c-0.46884,0.25013 -0.91371,0.54296 -1.29708,0.92227c-0.23544,0.22718 -0.47297,0.48143 -0.69696,0.73674c-0.2094,0.2428 -0.40734,0.51373 -0.56463,0.78777c-0.12709,0.23549 -0.1875,0.48973 -0.16662,0.75022c0.01253,0.19171 0.05005,0.23548 0.21989,0.33027c0.00311,-0.04064 0.00624,-0.08128 0.01039,-0.13546c-0.01778,-0.47824 0.17702,-0.88566 0.46455,-1.25871c0.07501,-0.08961 0.15003,-0.17923 0.26254,-0.2251c0.01459,-0.01251 0.05522,-0.00938 0.05419,0.00415c0.02502,0.02917 0.03647,0.05731 0.0344,0.08439c-0.00313,0.04063 -0.03333,0.07919 -0.04999,0.11878c-0.09272,0.14275 -0.17084,0.27301 -0.26354,0.41576c-0.21771,0.35115 -0.28852,0.74086 -0.23846,1.15346c0.01878,0.11043 0.06776,0.18232 0.17715,0.1771c0.01563,-0.02606 0.0302,-0.03855 0.03126,-0.05209c-0.06465,-0.4001 0.08429,-0.74291 0.27389,-1.08261c0.04793,-0.09169 0.1073,-0.15526 0.20524,-0.18861c0.04168,-0.01042 0.08334,-0.02085 0.11982,0.03645c0.02084,0.08335 -0.05313,0.15941 -0.08541,0.22506c-0.09584,0.18339 -0.17812,0.36783 -0.23436,0.56788c-0.05624,0.20005 -0.07185,0.40323 0.0355,0.60223c0.06564,0.0323 0.13234,0.05104 0.19171,-0.01253c-0.01042,-0.04168 -0.02189,-0.06981 -0.01774,-0.12399c0.00726,-0.27195 0.06662,-0.51263 0.24581,-0.71688c0.04375,-0.0375 0.08751,-0.07504 0.14065,-0.05733c0.06564,0.03228 0.04793,0.08544 0.03022,0.13858c-0.03437,0.09274 -0.0823,0.18443 -0.10207,0.26466c-0.05415,0.17297 -0.08227,0.36156 -0.04057,0.52827c0.07919,0.03332 0.15837,0.06667 0.2188,-0.01044c-0.02194,-0.42406 -0.00422,-0.4772 0.29062,-0.59082c-0.03018,0.21569 -0.11351,0.41367 -0.0739,0.60745c0.14587,0.05209 0.2761,-0.04691 0.41155,-0.03652c0.298,0.02289 0.57723,-0.06466 0.85749,-0.16578c0.49176,-0.19386 0.98352,-0.38773 1.47634,-0.59513c0.23963,-0.10422 0.4678,-0.23657 0.68345,-0.38351c0.20212,-0.14798 0.41673,-0.28137 0.61886,-0.42935c0.13023,-0.099 0.26046,-0.198 0.39068,-0.297c0.27816,-0.25115 0.55737,-0.51582 0.83554,-0.76697c0.05939,-0.06357 0.14378,-0.09796 0.16461,-0.19174c-0.00938,-0.05522 -0.06254,-0.07292 -0.08857,-0.08855c-0.06564,-0.0323 -0.14691,-0.03853 -0.21256,-0.07082c-0.05314,-0.01771 -0.06356,-0.05938 -0.06044,-0.10001c0.00209,-0.02709 0.03126,-0.05211 0.05939,-0.06357c0.04168,-0.01042 0.08335,-0.02084 0.12398,-0.01773c0.13754,-0.01668 0.2386,0.08645 0.32927,0.14791zM307.32902,204.10017c-0.04374,0.21464 0.05006,0.41259 0.25743,0.55116c0.12922,0.09168 0.26674,0.07499 0.38446,-0.03861c0.29483,-0.29074 0.31562,-0.73877 0.17907,-1.08988c-0.03336,-0.09795 -0.11047,-0.15837 -0.23341,-0.15419c-0.17817,0.01357 -0.34592,0.06881 -0.44071,0.23867c-0.06561,0.14483 -0.13125,0.28967 -0.14685,0.49286zM308.57587,201.34826c0.01145,-0.14899 -0.0313,-0.30216 -0.10216,-0.44386c-0.11672,-0.25421 -0.35951,-0.28648 -0.52723,-0.05411c-0.03022,0.03855 -0.04793,0.09169 -0.07917,0.14379c-0.06875,0.18547 -0.08331,0.3751 -0.07182,0.58037c0.02399,0.21984 0.17509,0.38132 0.38974,0.42506c0.08022,0.01978 0.15005,-0.0021 0.19692,-0.08026c0.10834,-0.16882 0.13645,-0.3574 0.19372,-0.571zM314.55219,183.31788c0.1313,0.06458 0.2709,0.02081 0.43241,0.04683c0.21875,-0.3647 0.26143,-0.74294 0.26347,-1.12428c-0.00213,-0.32717 -0.05318,-0.37195 -0.37827,-0.39693c-0.04063,-0.00313 -0.08126,-0.00624 -0.11252,0.04585c0.08447,0.49699 -0.00612,0.96691 -0.20507,1.42852zM308.72141,198.74341c0.02811,-0.18861 -0.01464,-0.34175 -0.12614,-0.48658c-0.12298,-0.17294 -0.32824,-0.16146 -0.47409,-0.0364c-0.2344,0.21363 -0.23018,0.69084 0.01262,0.90023c0.15319,0.13439 0.37302,0.11039 0.48137,-0.05841c0.07501,-0.08961 0.11043,-0.19591 0.10624,-0.31885zM308.03753,195.76148c-0.00416,0.05417 -0.00833,0.10835 -0.01145,0.14899c-0.00414,0.23131 0.10633,0.38969 0.31786,0.47405c0.1313,0.06458 0.2584,0.00622 0.31049,-0.13967c0.03333,-0.0792 0.05311,-0.15942 0.0604,-0.25423c0.01665,-0.21671 0.01975,-0.43448 -0.08761,-0.63348c-0.05941,-0.11357 -0.15214,-0.14794 -0.26466,-0.10207c-0.06981,0.02189 -0.12815,0.07191 -0.18754,0.13547c-0.09064,0.11567 -0.14167,0.248 -0.13749,0.37094zM308.56031,193.74423c0.10939,-0.18235 0.13853,-0.38448 0.18122,-0.58558c0.01874,-0.06668 -0.00419,-0.12295 -0.01253,-0.19171c-0.01774,-0.12399 -0.14381,-0.25629 -0.27927,-0.26669c-0.10836,-0.00833 -0.20735,0.03857 -0.26881,0.12924c-0.03228,0.06564 -0.07813,0.13025 -0.11041,0.1959c-0.05415,0.17297 -0.0531,0.33654 0.05737,0.49492c0.099,0.13023 0.21154,0.2615 0.43243,0.22396zM308.46581,187.87815c0.00414,-0.23131 -0.09279,-0.38864 -0.33348,-0.44799c-0.31464,0.19384 -0.28438,0.50955 -0.26662,0.81066c0.00419,0.12295 0.08964,0.25213 0.22301,0.28963c0.10629,0.03541 0.28131,-0.11464 0.33339,-0.26054c0.0177,-0.05314 0.02186,-0.10733 0.03958,-0.16046c0.00623,-0.08127 -0.00211,-0.15003 0.00413,-0.23131zM308.52662,190.98936c0.05205,-0.323 0.0614,-0.62204 -0.14807,-0.91062c-0.17817,0.01357 -0.28131,0.11464 -0.3459,0.24595c-0.07916,0.14379 -0.07914,0.32092 -0.03641,0.47409c0.03128,0.12502 0.0761,0.2511 0.17822,0.34069c0.12817,0.10522 0.23861,0.08646 0.31779,-0.05734c0.01562,-0.02604 0.03124,-0.0521 0.03436,-0.09274zM308.39155,185.82867c0.10103,-0.25112 0.07808,-0.48451 -0.09698,-0.6887c-0.18963,-0.01456 -0.30632,0.08548 -0.38653,0.24281c-0.08124,0.17089 -0.03956,0.3376 0.03028,0.49284c0.04689,0.09898 0.16777,0.12188 0.27717,0.11665c0.1094,-0.00522 0.14273,-0.08441 0.17606,-0.16361zM308.50276,183.67082c0.08855,-0.08857 0.1521,-0.20632 0.15,-0.35636c0.00832,-0.10836 -0.00941,-0.23235 -0.05527,-0.34488c-0.05733,-0.14065 -0.17715,-0.17711 -0.28028,-0.07602c-0.16251,0.16464 -0.2323,0.36367 -0.19477,0.58454c0.00938,0.05522 0.04482,0.12606 0.08129,0.18337c0.07295,0.11461 0.20943,0.11146 0.29903,0.00934zM314.31044,183.09494c0.23647,-0.41785 0.27288,-0.89194 0.0561,-1.26283c0.00106,0.16358 -0.01246,0.33968 -0.01139,0.50326c-0.00101,0.19068 -0.06872,0.36261 -0.10934,0.53661c-0.03958,0.16046 -0.19793,0.27093 -0.19895,0.46161c0.17712,-0.00002 0.21462,-0.1334 0.26358,-0.23865z" data-paper-data="{&quot;index&quot;:null}" fill="#010001"></path><path d="M313.5487,182.54591c-0.01874,0.06668 -0.08438,0.03438 -0.1271,0.05836c-0.0792,-0.03333 -0.15838,-0.06666 -0.23861,-0.08646c-0.0396,-0.01667 -0.08128,-0.00625 -0.11357,0.05941c0.03231,0.11148 0.12193,0.18649 0.22717,0.23545c0.10524,0.04896 0.22403,0.09896 0.33031,0.13437c0.08024,0.01979 0.15943,0.05312 0.22196,0.12605c-0.1792,0.02712 -0.32717,0.00213 -0.48555,-0.06454c-0.35636,-0.14999 -0.71168,-0.31355 -1.05033,-0.51667c-0.33866,-0.20313 -0.69606,-0.33958 -1.10553,-0.33015c-0.1365,0.00314 -0.24902,0.04901 -0.33862,0.15112c-0.29691,0.31782 -0.4615,0.68669 -0.50729,1.10556c-0.07806,0.66164 -0.13007,1.33891 -0.09977,2.00886c0.01776,0.30111 -0.00617,0.61266 -0.00197,0.91274c0.02302,0.76478 0.07417,1.51809 0.12532,2.2714c0.08037,1.08256 0.16074,2.16512 0.25464,3.24872c0.02088,0.26048 0.0553,0.522 0.07616,0.78247c0.06157,0.795 0.1242,1.57643 0.15868,2.36934c0.03239,0.64286 0.07934,1.27324 0.11174,1.91611c0.03028,0.49284 0.04804,0.97108 0.07833,1.46391c0.03863,0.5616 0.09079,1.12424 0.14296,1.68688c0.06781,0.71372 0.13564,1.42742 0.14928,2.13699c0.01257,0.54597 0.03973,1.07945 0.02521,1.62333c-0.01863,0.95233 -0.05082,1.90361 -0.28618,2.83931c-0.07603,0.2803 -0.15206,0.56058 -0.22808,0.84086c-0.13123,0.4668 -0.38019,0.87008 -0.62916,1.27333c-0.41981,0.67627 -1.05014,1.07749 -1.7805,1.36203c-0.5199,0.20534 -1.0471,0.32834 -1.59723,0.3951c-0.35737,0.04067 -0.71371,0.06781 -1.06589,0.04076c-0.4199,-0.03226 -0.84084,-0.05095 -1.25452,-0.16447c-0.11982,-0.03645 -0.25423,-0.0604 -0.37198,-0.12394c-0.28967,-0.13125 -0.59185,-0.27708 -0.88049,-0.42187c-0.36782,-0.17813 -0.64502,-0.47192 -0.86386,-0.81573c-0.36474,-0.57302 -0.6451,-1.18043 -0.75667,-1.85662c-0.06777,-0.35946 -0.12096,-0.73141 -0.14809,-1.08776c-0.05948,-0.64495 -0.06373,-1.29928 -0.08152,-1.95466c-0.00739,-0.79082 -0.04188,-1.58373 -0.2139,-2.35995c-0.06881,-0.34592 -0.16472,-0.69391 -0.33043,-1.02001c-0.02293,-0.05626 -0.07399,-0.10106 -0.06774,-0.18233c0.19587,-0.0667 0.46367,-0.00526 0.59282,-0.26785c-0.08857,-0.08855 -0.18443,-0.0823 -0.2803,-0.07603c-0.24588,0.00837 -0.50326,-0.01141 -0.74603,-0.04367c-0.48451,-0.07808 -0.89192,-0.27286 -1.15872,-0.70211c0.04375,-0.0375 0.08128,0.00624 0.10733,0.02186c0.25843,0.18335 0.55434,0.23332 0.84714,0.32393c0.10628,0.03541 0.21568,0.03019 0.32405,0.03851c0.20526,-0.01148 0.41053,-0.02297 0.61578,-0.03446c0.49388,-0.04382 0.9669,-0.17099 1.41595,-0.34089c0.36466,-0.13551 0.72932,-0.271 1.09502,-0.42003c0.84392,-0.34395 1.58988,-0.83167 2.25143,-1.46212c0.27921,-0.26467 0.55945,-0.54292 0.81468,-0.85032c0.24065,-0.29489 0.40107,-0.60958 0.49688,-0.9701c0.0177,-0.05314 0.00832,-0.10836 0.07812,-0.13026c0.06772,0.0052 0.03648,0.0573 0.04691,0.09898c0.03028,0.49283 -0.17806,0.8992 -0.45412,1.30039c-0.07605,0.10315 -0.16565,0.20528 -0.24169,0.30844c-0.03021,0.03855 -0.06147,0.09065 -0.09167,0.12921c-0.0177,0.05314 -0.00832,0.10836 0.02919,0.15212c0.03855,0.0302 0.08022,0.01978 0.12295,-0.00419c0.08543,-0.04794 0.15837,-0.11046 0.21878,-0.18757c0.0302,-0.03855 0.04584,-0.0646 0.10626,-0.14171c0.06359,0.23651 0.07715,0.41467 0.06259,0.60431c-0.0468,0.60954 -0.09361,1.21908 -0.12584,1.81611c-0.04471,0.75958 -0.19777,1.51083 -0.29562,2.2527c-0.08118,0.70227 -0.1759,1.40351 -0.24355,2.10681c-0.03747,0.31051 -0.0614,0.62205 -0.00405,0.93983c0.01774,0.12399 0.06359,0.2365 0.13863,0.32403c0.18861,0.20523 0.47098,0.25417 0.71477,0.09576c0.14273,-0.08441 0.26357,-0.23863 0.38963,-0.46058c0.02708,0.00207 0.06876,-0.00834 0.09586,-0.00627c0.22506,0.08541 0.40844,0.00412 0.55742,-0.16156c0.36983,-0.38036 0.51253,-0.81902 0.34888,-1.34935c-0.03231,-0.11148 -0.07921,-0.21047 -0.14174,-0.28339c-0.12402,-0.1594 -0.28135,-0.23961 -0.48766,-0.21457c0.01872,-0.24381 0.02182,-0.46158 0.12078,-0.68561c0.06877,-0.00835 0.12502,-0.03127 0.19275,-0.02607c0.16254,0.01249 0.26465,-0.07505 0.36778,-0.17613c0.46986,-0.4408 0.4114,-1.27642 -0.01062,-1.63584c-0.11566,-0.09063 -0.26466,-0.10207 -0.38034,-0.19271c0.00622,-0.2584 0.01348,-0.53035 0.06137,-0.79918c0.43345,0.03329 0.66473,-0.1397 0.77721,-0.53983c0.16456,-0.546 -0.15329,-1.02004 -0.56384,-1.17419c-0.05314,-0.01771 -0.13545,-0.01041 -0.17192,-0.0677c-0.03648,-0.0573 -0.01774,-0.12399 -0.01253,-0.19171c0.00622,-0.2584 -0.00111,-0.51784 0.00511,-0.77624c0.55949,-0.18865 0.76993,-0.445 0.78133,-0.94825c0.01765,-0.4074 -0.23036,-0.7262 -0.73156,-0.94182c-0.03546,-0.24797 -0.01569,-0.50534 -0.00947,-0.76373c0.02813,-0.01147 0.05729,-0.03647 0.08543,-0.04794c0.3553,-0.01359 0.52302,-0.24596 0.62718,-0.53772c0.06978,-0.19902 0.08435,-0.38866 0.00513,-0.59911c-0.08964,-0.25213 -0.25533,-0.40112 -0.49393,-0.48756c-0.07919,-0.03332 -0.174,-0.04061 -0.25008,-0.11458c-0.04901,-0.24902 -0.04174,-0.52097 -0.02198,-0.77833c0.04791,-0.0917 0.12919,-0.08545 0.20108,-0.13444c0.1719,-0.10943 0.27921,-0.26467 0.3219,-0.46578c0.01978,-0.08022 0.02707,-0.17506 0.03332,-0.25633c0.06245,-0.45846 -0.11784,-0.77206 -0.58256,-0.93038c-0.03233,-0.28861 -0.05112,-0.57618 -0.02824,-0.87418c0.34692,-0.25948 0.51046,-0.6148 0.48853,-1.03887c-0.01464,-0.34175 -0.27306,-0.5251 -0.51689,-0.72095c-0.02191,-0.24694 -0.00215,-0.50429 0.01865,-0.7752c0.36466,-0.1355 0.50945,-0.42412 0.52295,-0.77735c0.01558,-0.38032 -0.21159,-0.61576 -0.52524,-0.78973c-0.0094,-0.23234 0.02078,-0.44803 0.06452,-0.66267c0.37092,-0.03965 0.64179,-0.19596 0.71261,-0.58565c0.08643,-0.41574 -0.0032,-0.6679 -0.34916,-0.95332c0.04581,-0.24174 0.13123,-0.4668 0.23018,-0.69082c0.24063,-0.47203 0.4948,-0.94301 0.9157,-1.27857c0.10209,-0.08754 0.20316,-0.16153 0.31671,-0.22093c0.20003,-0.12089 0.42092,-0.15843 0.65223,-0.15429c0.65225,0.02284 1.1889,0.30929 1.67656,0.70101c0.12817,0.10522 0.2428,0.2094 0.35638,0.32713c0.31575,0.32399 0.66378,0.58236 1.11809,0.69899c0.04066,0.18026 0.09487,0.36154 0.01257,0.54597c-0.15109,0.01565 -0.27925,-0.08957 -0.41471,-0.09997c-0.04063,-0.00313 -0.08126,-0.00624 -0.11252,0.04585c-0.03126,0.05209 -0.00624,0.08128 0.03231,0.11148zM302.77315,199.90801c0.02501,0.02916 0.06461,0.04583 0.09066,0.06146c0.20423,0.00206 0.39906,-0.0511 0.58138,-0.11885c0.64285,-0.2095 1.21378,-0.54716 1.78679,-0.91192c0.15733,-0.09692 0.30215,-0.20844 0.40943,-0.36369c0.01563,-0.02606 0.01874,-0.06668 0.00624,-0.08128c-0.02606,-0.01563 -0.05209,-0.03126 -0.07919,-0.03332c-0.08128,-0.00624 -0.14065,0.05733 -0.19795,0.0938c-0.25734,0.15736 -0.51572,0.32827 -0.77201,0.4721c-0.52823,0.31369 -1.08145,0.59821 -1.68992,0.71499c-0.04168,0.01042 -0.08335,0.02084 -0.12502,0.03127c-0.04271,0.02398 -0.04895,0.10525 -0.01039,0.13546zM307.35429,206.07777c-0.12502,0.03127 -0.23858,0.09067 -0.36466,0.1355c-0.02083,0.09378 0.00315,0.13649 0.06983,0.15523c0.44179,0.10206 1.02001,-0.33041 1.05433,-0.7774c0.00624,-0.08128 -0.04378,-0.13962 -0.13755,-0.16044c-0.01459,0.01251 -0.02813,0.01147 -0.02813,0.01147c-0.07189,0.04898 -0.0646,0.13129 -0.09688,0.19694c-0.11146,0.20943 -0.24689,0.37616 -0.49694,0.43871zM305.9366,209.10268c-0.05835,0.05002 -0.0625,0.10419 -0.05312,0.15942c0.12195,0.36362 0.28662,0.70328 0.56589,0.96996c0.02502,0.02917 0.06461,0.04584 0.10419,0.0625c0.05314,0.01771 0.10941,-0.00523 0.13961,-0.04378c0.04479,-0.05106 0.03541,-0.10628 -0.0021,-0.15004c-0.26885,-0.22502 -0.40954,-0.52195 -0.56379,-0.81994c-0.03543,-0.07085 -0.06983,-0.15524 -0.19071,-0.17815zM305.44169,209.16003c0.00209,-0.02709 -0.02502,-0.02917 -0.05106,-0.04479c-0.02813,0.01147 -0.05626,0.02293 -0.07188,0.04898c-0.05939,0.06357 -0.05104,0.13234 -0.03018,0.21569c0.09798,0.32091 0.28035,0.60742 0.46273,0.89392c0.04898,0.07189 0.13026,0.07813 0.20006,0.05624c0.0573,-0.03648 0.07708,-0.1167 0.0156,-0.20319c-0.01147,-0.02813 -0.03647,-0.05729 -0.04794,-0.08543c-0.17299,-0.23129 -0.31577,-0.50113 -0.41792,-0.76786c-0.01042,-0.04168 -0.0344,-0.0844 -0.05941,-0.11357zM303.37335,208.59247c0.01042,0.04168 -0.00519,0.06773 -0.02082,0.09377c-0.00207,0.02708 -0.00415,0.05419 -0.00519,0.06773c0.04381,0.31674 0.12824,0.63661 0.24186,0.93146c0.02189,0.06981 0.07192,0.12814 0.13651,0.17398c0.02606,0.01563 0.06668,0.01874 0.09482,0.00729c0.02813,-0.01147 0.0448,-0.05107 0.06042,-0.07712c0.00209,-0.02709 0.00519,-0.06773 -0.00627,-0.09586c-0.13863,-0.32403 -0.22202,-0.65744 -0.3054,-0.99083c-0.01042,-0.04168 -0.0344,-0.0844 -0.05941,-0.11357c-0.02397,-0.04272 -0.10629,-0.03542 -0.1365,0.00314zM304.44467,210.07811c0.11461,-0.07295 0.09479,-0.16984 0.0479,-0.26882c-0.12715,-0.2959 -0.23971,-0.60429 -0.33874,-0.91165c-0.01042,-0.04168 -0.04898,-0.07189 -0.08961,-0.07501c-0.11357,0.05941 -0.12189,0.16777 -0.08958,0.27926c0.07609,0.25109 0.15218,0.50219 0.271,0.72932c0.04689,0.09898 0.08129,0.18337 0.19904,0.24691zM304.82485,209.20804c-0.02293,-0.05626 -0.07606,-0.07396 -0.1313,-0.06458c-0.07292,0.06254 -0.06666,0.15838 -0.04581,0.24174c0.08756,0.27922 0.17512,0.55846 0.34811,0.78974c0.01147,0.02813 0.03752,0.04375 0.06254,0.07292c0.03855,0.0302 0.07919,0.03333 0.1219,0.00937c0.05626,-0.02294 0.07502,-0.08962 0.05209,-0.14589c-0.01042,-0.04168 -0.0344,-0.08439 -0.05941,-0.11357c-0.10943,-0.1719 -0.18967,-0.36882 -0.25742,-0.55115c-0.03439,-0.08439 -0.05524,-0.16775 -0.09067,-0.23859zM302.94626,209.18642c0.02189,0.06981 0.04378,0.13961 0.15006,0.17503c0.11357,-0.05941 0.09271,-0.14276 0.07187,-0.22611c-0.10006,-0.29382 -0.17305,-0.58554 -0.20433,-0.8877c-0.00938,-0.05522 -0.04898,-0.07189 -0.08961,-0.07501c-0.10106,0.07399 -0.12292,0.18131 -0.10417,0.29175c0.03546,0.24797 0.08446,0.49699 0.17617,0.72204zM307.23184,210.15591c0.05314,0.01771 0.11253,-0.04586 0.10314,-0.10109c0.00417,-0.05418 -0.02085,-0.08336 -0.05941,-0.11357c-0.22091,-0.13959 -0.32617,-0.36569 -0.47415,-0.56779c-0.03751,-0.04375 -0.06149,-0.08647 -0.099,-0.13023c-0.01251,-0.01459 -0.03855,-0.03022 -0.05314,-0.01771c-0.02813,0.01147 -0.05731,0.03647 -0.05939,0.06356c-0.00313,0.04063 -0.00624,0.08126 0.01774,0.12399c0.10318,0.25317 0.24909,0.48238 0.45333,0.66157c0.05106,0.04479 0.10317,0.07606 0.17089,0.08126zM308.41337,209.85151c0.0375,0.04375 0.07606,0.07395 0.14483,0.06561c0.07293,-0.06253 0.07812,-0.13026 0.02915,-0.20214c-0.13548,-0.18754 -0.29908,-0.3636 -0.47728,-0.52717c-0.03855,-0.0302 -0.07919,-0.03333 -0.1219,-0.00937c-0.04375,0.0375 -0.06146,0.09066 -0.03853,0.14691c-0.00104,0.01354 0.01147,0.02813 0.01147,0.02813c0.13651,0.17398 0.27199,0.36151 0.45226,0.49799zM307.21508,209.30985c0.1063,0.21254 0.41686,0.60426 0.54709,0.6824c0.05209,0.03126 0.10628,0.0354 0.15003,-0.00211c0.04375,-0.0375 0.06249,-0.10419 0.02499,-0.14796c-0.17402,-0.21774 -0.35013,-0.40838 -0.56896,-0.57507c-0.05209,-0.03126 -0.10732,-0.02187 -0.15317,0.04274zM308.74565,209.07314c-0.03752,-0.04375 -0.09274,-0.03437 -0.15213,0.02919c0.02503,0.20629 0.17718,0.35423 0.33141,0.47508c0.02502,0.02917 0.08024,0.01979 0.12398,-0.01773c0.03021,-0.03855 0.03333,-0.07919 0.00935,-0.12191c-0.08441,-0.14273 -0.1834,-0.27297 -0.31262,-0.36463zM302.25847,208.3842c0.03231,0.11148 0.05004,0.23547 0.22197,0.30317c0.03226,-0.24277 -0.00631,-0.45012 -0.1147,-0.63557c0.00105,-0.01354 -0.04063,-0.00313 -0.06773,-0.00519c-0.0896,0.10213 -0.07187,0.22611 -0.03956,0.3376zM309.35619,208.92925c-0.09065,-0.06147 -0.16984,-0.09479 -0.28549,-0.0083c0.0542,0.18129 0.198,0.26048 0.32721,0.35214c0.03856,0.03022 0.10941,-0.00522 0.11357,-0.05941c0.00105,-0.01354 0.00209,-0.02709 0.00209,-0.02709c0.00937,-0.1219 -0.08129,-0.18337 -0.15737,-0.25733zM309.85526,208.81773c0.00937,-0.1219 -0.0667,-0.19587 -0.14382,-0.2563c-0.05211,-0.03126 -0.0917,-0.04791 -0.15003,0.00211c-0.04375,0.0375 -0.04791,0.0917 -0.02499,0.14796c0.03439,0.08439 0.09901,0.13022 0.17715,0.1771c0.06564,0.0323 0.13754,-0.01668 0.14169,-0.07087zM305.88417,198.25302c-0.00415,0.05419 0.06149,0.08647 0.1167,0.07708c0.08335,-0.02084 0.14064,-0.05732 0.18649,-0.12193c0.0302,-0.03855 0.04687,-0.07815 0.00937,-0.1219c-0.02397,-0.04272 -0.06356,-0.05939 -0.11878,-0.04999c-0.11045,0.01877 -0.199,0.10735 -0.19378,0.21674zM302.24176,199.90807c-0.09586,0.00627 -0.19276,0.02608 -0.25526,0.13027c-0.01458,0.01251 0.00835,0.06877 0.0344,0.08439c0.10316,0.07605 0.20317,0.01561 0.28861,-0.03233c0.04271,-0.02398 0.05939,-0.06356 0.03541,-0.10628c-0.01042,-0.04168 -0.03647,-0.0573 -0.10315,-0.07605z" data-paper-data="{&quot;index&quot;:null}" fill="#ffc941"></path><path d="M306.09853,196.17121c0.20526,-0.0115 0.38969,0.0708 0.57205,0.18018c-0.01978,0.08022 -0.05104,0.13234 -0.12188,0.16777c-0.09066,-0.06146 -0.19174,-0.16461 -0.32927,-0.14792c-0.04064,-0.00311 -0.08231,0.00731 -0.12399,0.01774c-0.02813,0.01147 -0.05731,0.03647 -0.05939,0.06357c-0.01667,0.0396 0.0073,0.0823 0.06044,0.10001c0.06668,0.01874 0.14692,0.03854 0.21257,0.07083c0.03959,0.01667 0.07919,0.03332 0.08857,0.08855c-0.02083,0.09378 -0.10522,0.12817 -0.16461,0.19174c-0.27919,0.26469 -0.55737,0.51582 -0.83553,0.76697c-0.11772,0.11359 -0.24692,0.19904 -0.39069,0.29701c-0.20212,0.14797 -0.41673,0.28137 -0.61886,0.42935c-0.21567,0.14695 -0.43028,0.28033 -0.68346,0.38353c-0.4928,0.20741 -0.98458,0.40126 -1.47634,0.59513c-0.26672,0.10214 -0.5595,0.18866 -0.85749,0.16578c-0.13546,-0.0104 -0.26673,0.10213 -0.41156,0.03652c-0.03962,-0.1938 0.04371,-0.39177 0.0739,-0.60745c-0.29484,0.11361 -0.31255,0.16674 -0.29062,0.59082c-0.06043,0.07711 -0.13858,0.03022 -0.2188,0.01044c-0.0542,-0.18129 -0.01359,-0.3553 0.04057,-0.52827c0.03437,-0.09274 0.06875,-0.18547 0.10207,-0.26466c0.0177,-0.05314 0.0354,-0.10628 -0.03024,-0.13856c-0.05211,-0.03126 -0.09586,0.00627 -0.14065,0.05733c-0.17919,0.20425 -0.23959,0.45849 -0.24582,0.71688c-0.00313,0.04063 0.00731,0.08231 0.01774,0.12399c-0.07293,0.06253 -0.12502,0.03127 -0.19172,0.01252c-0.1084,-0.18545 -0.09278,-0.38862 -0.0355,-0.60223c0.05623,-0.20005 0.12497,-0.38553 0.23436,-0.56788c0.04689,-0.07815 0.10626,-0.14171 0.08541,-0.22506c-0.03647,-0.05731 -0.07815,-0.04689 -0.11982,-0.03645c-0.09794,0.03335 -0.15835,0.11046 -0.20523,0.18861c-0.1896,0.33969 -0.33854,0.68252 -0.27389,1.0826c-0.00104,0.01354 -0.01666,0.0396 -0.03124,0.0521c-0.1219,-0.00937 -0.17192,-0.0677 -0.17715,-0.1771c-0.05006,-0.41259 0.02073,-0.80229 0.23846,-1.15346c0.09272,-0.14275 0.17085,-0.273 0.26356,-0.41576c0.01667,-0.0396 0.04687,-0.07815 0.04999,-0.11878c0.00208,-0.02709 -0.02293,-0.05626 -0.0344,-0.0844c-0.01251,-0.01459 -0.0396,-0.01666 -0.05419,-0.00415c-0.11252,0.04587 -0.20108,0.13443 -0.26254,0.2251c-0.30002,0.35847 -0.48127,0.76693 -0.46455,1.25871c-0.00313,0.04063 -0.00624,0.08126 -0.01041,0.13545c-0.16984,-0.09479 -0.20736,-0.13854 -0.21989,-0.33027c-0.02087,-0.26049 0.02598,-0.51575 0.16662,-0.75022c0.15834,-0.28759 0.35524,-0.54497 0.56463,-0.78777c0.21044,-0.25634 0.44692,-0.49706 0.69696,-0.73674c0.38234,-0.36578 0.82721,-0.6586 1.29709,-0.92228c0.49697,-0.26158 0.99498,-0.53672 1.52634,-0.71392c0.81059,-0.26476 1.62952,-0.46075 2.49227,-0.33999c0.21569,0.03018 0.42928,0.08747 0.62934,0.14371c0.17297,0.05415 0.34282,0.14895 0.43974,0.30627c0.02502,0.02917 0.04898,0.07189 0.01774,0.12399c-0.08335,0.02084 -0.16047,-0.03957 -0.22611,-0.07187c-0.30426,-0.11874 -0.62726,-0.1708 -0.95547,-0.15514c-0.10941,0.00522 -0.21881,0.01045 -0.29382,0.10006c-0.0302,0.03855 -0.05938,0.06356 -0.04999,0.11878c0.04794,0.08543 0.13232,0.05103 0.2011,0.04269c0.44073,-0.06154 0.84084,0.05095 1.22118,0.24366c0.0396,0.01667 0.0792,0.03333 0.1042,0.0625c0.05002,0.05835 0.00627,0.09586 -0.03853,0.14691c-0.17401,-0.04061 -0.34697,-0.09478 -0.52098,-0.13539c-0.20005,-0.05623 -0.40427,-0.05829 -0.61058,-0.03326c-0.05523,0.00938 -0.09795,0.03336 -0.11669,0.10004c0.01981,0.0969 0.10109,0.10314 0.16882,0.10834c0.23028,0.01768 0.44491,0.06142 0.67311,0.10619c0.14691,0.03853 0.29279,0.09061 0.39595,0.16666c0.06357,0.05939 0.01981,0.0969 0.00314,0.1365c-0.00207,0.02708 -0.01771,0.05313 -0.03437,0.09274c-0.02709,-0.00208 -0.04063,-0.00313 -0.06773,-0.00519c-0.1959,-0.11042 -0.40742,-0.19478 -0.65227,-0.19997c-0.06773,-0.00519 -0.1365,0.00315 -0.18026,0.04066c-0.04271,0.02396 -0.05938,0.06356 -0.0625,0.10419c0.01042,0.04168 0.03543,0.07085 0.08857,0.08855c0.05418,0.00417 0.10732,0.02187 0.16254,0.01249zM300.816,196.65118c-0.07397,0.07608 -0.14689,0.1386 -0.09999,0.23758c0.10316,0.07605 0.2011,0.0427 0.28861,-0.03233c0.29171,-0.2501 0.60739,-0.45747 0.92308,-0.66487c0.50216,-0.32931 1.01476,-0.61697 1.58884,-0.81813c0.23756,-0.07713 0.47407,-0.14072 0.71162,-0.21785c0.08335,-0.02085 0.16671,-0.0417 0.20108,-0.13444c-0.02189,-0.06981 -0.07399,-0.10106 -0.14069,-0.11981c-0.09377,-0.02082 -0.19068,-0.00102 -0.28758,0.01879c-0.5272,0.12302 -1.00543,0.31791 -1.47426,0.56804c-0.42613,0.22615 -0.82931,0.50857 -1.23147,0.77745c-0.17189,0.10942 -0.31984,0.26157 -0.47925,0.38558z" data-paper-data="{&quot;index&quot;:null}" fill="#ffc941"></path><path d="M307.59999,204.65236c-0.22091,-0.13959 -0.31575,-0.32399 -0.27098,-0.55219c0.01561,-0.20317 0.06768,-0.34906 0.1604,-0.49182c0.0948,-0.16985 0.26254,-0.2251 0.44071,-0.23866c0.1094,-0.00522 0.18547,0.06875 0.23341,0.15418c0.13653,0.35112 0.11575,0.79915 -0.17907,1.08988c-0.11772,0.11359 -0.25525,0.13026 -0.38447,0.0386z" data-paper-data="{&quot;index&quot;:null}" fill="#fcc741"></path><path d="M308.57587,201.34826c-0.04373,0.21464 -0.08538,0.40219 -0.19372,0.571c-0.04687,0.07815 -0.11669,0.10004 -0.19692,0.08026c-0.2011,-0.0427 -0.36574,-0.20521 -0.38974,-0.42506c-0.01253,-0.19171 0.00308,-0.39489 0.07182,-0.58037c0.01771,-0.05313 0.04896,-0.10523 0.07917,-0.14379c0.16771,-0.23238 0.41154,-0.21365 0.52723,0.05411c0.07087,0.14169 0.11361,0.29486 0.10216,0.44386z" data-paper-data="{&quot;index&quot;:null}" fill="#fcc741"></path><path d="M315.24807,182.24043c-0.00204,0.38134 -0.04471,0.75958 -0.26347,1.12428c-0.149,-0.01143 -0.28861,0.03233 -0.43241,-0.04683c0.21249,-0.46056 0.28953,-0.93153 0.20507,-1.42852c0.0302,-0.03855 0.07189,-0.04898 0.11252,-0.04585c0.32613,0.01142 0.36364,0.05517 0.37827,0.39693z" data-paper-data="{&quot;index&quot;:null}" fill="#fac540"></path><path d="M308.72141,198.74341c0.00419,0.12295 -0.04478,0.2282 -0.10728,0.3324c-0.12085,0.15423 -0.34069,0.17821 -0.48136,0.05841c-0.24279,-0.2094 -0.24703,-0.6866 -0.01262,-0.90022c0.1469,-0.1386 0.35112,-0.13653 0.47409,0.03641c0.11255,0.13127 0.15529,0.28443 0.12718,0.47303z" data-paper-data="{&quot;index&quot;:null}" fill="#fac640"></path><path d="M308.03961,195.91153c-0.02397,-0.04272 -0.0073,-0.08232 -0.0021,-0.15004c0.01039,-0.13546 0.06039,-0.25425 0.15102,-0.36991c0.04584,-0.06461 0.10315,-0.10108 0.18754,-0.13547c0.11252,-0.04587 0.2188,-0.01044 0.26466,0.10207c0.0938,0.19795 0.10425,0.41676 0.0876,0.63348c-0.00624,0.08126 -0.04061,0.174 -0.0604,0.25423c-0.05207,0.14588 -0.17815,0.19071 -0.31048,0.13966c-0.21048,-0.09792 -0.32199,-0.24273 -0.31786,-0.47405z" data-paper-data="{&quot;index&quot;:null}" fill="#fcc741"></path><path d="M308.75508,193.15968c-0.0552,0.18652 -0.08538,0.40219 -0.19477,0.58454c-0.22089,0.03754 -0.33447,-0.0802 -0.41889,-0.22292c-0.11046,-0.15837 -0.09798,-0.32091 -0.05737,-0.49492c0.01874,-0.06668 0.06458,-0.1313 0.11042,-0.19589c0.0625,-0.10419 0.16147,-0.1511 0.2688,-0.12923c0.13546,0.0104 0.26154,0.14271 0.27928,0.2667c0.00834,0.06878 0.01668,0.13754 0.01252,0.19172z" data-paper-data="{&quot;index&quot;:null}" fill="#f8c440"></path><path d="M307.86568,188.24082c-0.01776,-0.30111 -0.06157,-0.61786 0.26662,-0.81066c0.2407,0.05935 0.33761,0.21668 0.33348,0.44799c-0.00623,0.08127 0.00211,0.15003 -0.00413,0.23131c-0.00415,0.05419 -0.02186,0.10733 -0.03958,0.16046c-0.05209,0.14589 -0.22711,0.29594 -0.33339,0.26054c-0.13337,-0.0375 -0.21882,-0.16668 -0.22301,-0.28963z" data-paper-data="{&quot;index&quot;:null}" fill="#f9c540"></path><path d="M308.03266,190.32469c0.0646,-0.13129 0.16773,-0.23237 0.3459,-0.24595c0.20948,0.2886 0.19909,0.60118 0.14807,0.91062c-0.00207,0.02708 -0.01874,0.06668 -0.03436,0.09274c-0.06563,0.14483 -0.18962,0.16256 -0.31779,0.05734c-0.10213,-0.0896 -0.14694,-0.21567 -0.17822,-0.34069c-0.0417,-0.16671 -0.02922,-0.32924 0.03641,-0.47409z" data-paper-data="{&quot;index&quot;:null}" fill="#f7c340"></path><path d="M307.92159,185.38384c0.06667,-0.15837 0.18335,-0.25842 0.37299,-0.24386c0.17506,0.2042 0.19802,0.43759 0.11054,0.68975c-0.03333,0.0792 -0.0677,0.17192 -0.17606,0.16361c-0.10941,0.00522 -0.23026,-0.01768 -0.27717,-0.11667c-0.08337,-0.15629 -0.11153,-0.32195 -0.03028,-0.49283z" data-paper-data="{&quot;index&quot;:null}" fill="#f9c540"></path><path d="M308.59646,182.98312c0.04587,0.11253 0.07818,0.22401 0.05631,0.33133c-0.01144,0.149 -0.06145,0.26778 -0.15104,0.36991c-0.0896,0.10213 -0.22609,0.10526 -0.29904,-0.00933c-0.03648,-0.0573 -0.0594,-0.11356 -0.08129,-0.18337c-0.0365,-0.23443 0.03328,-0.43345 0.19477,-0.58454c0.10313,-0.10108 0.22296,-0.06463 0.2803,0.07603z" data-paper-data="{&quot;index&quot;:null}" fill="#f6c340"></path><path d="M314.36654,181.8321c0.20426,0.35631 0.18037,0.84499 -0.04256,1.26387c-0.04896,0.10523 -0.0875,0.25215 -0.26357,0.23863c0.00101,-0.19068 0.15938,-0.30114 0.19896,-0.4616c0.0406,-0.17402 0.10831,-0.34593 0.10934,-0.53661c-0.00106,-0.16358 -0.00213,-0.32717 -0.00215,-0.5043z" data-paper-data="{&quot;index&quot;:null}" fill="#e6b73f"></path><path d="M313.42161,182.6043c0.04272,-0.02398 0.10836,0.00833 0.14065,-0.05733c0.14589,0.05209 0.2751,0.14375 0.42304,0.16874c0.0073,0.08232 -0.03645,0.11982 -0.07605,0.10315c-0.15837,-0.06667 -0.34593,-0.10832 -0.48764,-0.21458z" data-paper-data="{&quot;index&quot;:null}" fill="#a98836"></path><path d="M303.43062,199.86312c-0.16775,0.05524 -0.34903,0.10944 -0.5668,0.10635c-0.02606,-0.01563 -0.06564,-0.03229 -0.10524,-0.04895c-0.03855,-0.03022 -0.04586,-0.11253 0.01039,-0.13546c0.04168,-0.01042 0.08439,-0.03439 0.12502,-0.03128c0.60847,-0.11677 1.1617,-0.40128 1.68992,-0.71499c0.25733,-0.15737 0.51469,-0.31473 0.77201,-0.4721c0.0573,-0.03648 0.13023,-0.099 0.19796,-0.09381c0.02709,0.00209 0.06668,0.01876 0.07919,0.03333c0.02502,0.02917 0.02293,0.05626 -0.00624,0.08126c-0.10729,0.15526 -0.2521,0.26676 -0.40943,0.36369c-0.55949,0.36578 -1.14396,0.70241 -1.78681,0.91192z" data-paper-data="{&quot;index&quot;:null}" fill="#060503"></path><path d="M307.05945,206.36848c-0.06668,-0.01874 -0.09065,-0.06147 -0.06983,-0.15523c0.12606,-0.04482 0.23963,-0.10422 0.36466,-0.1355c0.25005,-0.06254 0.38547,-0.22928 0.49694,-0.43871c0.03229,-0.06564 0.03854,-0.14692 0.09688,-0.19694c0.01459,-0.01251 0.01459,-0.01251 0.02813,-0.01147c0.09482,0.00729 0.13026,0.07813 0.13755,0.16044c-0.03537,0.46055 -0.61255,0.87946 -1.05433,0.7774z" data-paper-data="{&quot;index&quot;:null}" fill="#fefcf5"></path><path d="M305.9366,209.10268c0.12087,0.0229 0.15526,0.1073 0.19071,0.17815c0.15424,0.29798 0.2939,0.60844 0.56379,0.81994c0.05106,0.04479 0.04689,0.09898 0.0021,0.15004c-0.04376,0.03751 -0.08647,0.06149 -0.13961,0.04378c-0.03959,-0.01667 -0.07919,-0.03333 -0.10419,-0.0625c-0.27927,-0.26669 -0.4429,-0.6199 -0.56589,-0.96996c-0.01042,-0.04168 -0.00522,-0.10941 0.05312,-0.15942z" data-paper-data="{&quot;index&quot;:null}" fill="#0e0b07"></path><path d="M305.33333,209.15171c0.00105,-0.01354 0.02917,-0.02502 0.0573,-0.03647c0.02605,0.01564 0.05314,0.01771 0.06564,0.03229c0.02502,0.02917 0.04898,0.07189 0.05941,0.11357c0.1011,0.28027 0.23136,0.53553 0.41791,0.76784c0.02502,0.02917 0.03648,0.0573 0.04794,0.08543c0.04794,0.08543 0.0417,0.16671 -0.0156,0.20319c-0.07085,0.03543 -0.15109,0.01565 -0.20006,-0.05624c-0.19695,-0.274 -0.36578,-0.55949 -0.46273,-0.89392c-0.02189,-0.06981 -0.02919,-0.15213 0.03018,-0.21569z" data-paper-data="{&quot;index&quot;:null}" fill="#100e08"></path><path d="M303.35985,208.76856c0.00209,-0.02709 0.00415,-0.05419 -0.0073,-0.08232c0.01563,-0.02606 0.01771,-0.05314 0.03333,-0.0792c0.01771,-0.05314 0.11357,-0.05941 0.1365,-0.00314c0.02396,0.04271 0.04898,0.07189 0.05939,0.11356c0.08339,0.3334 0.16679,0.66682 0.3054,0.99083c0.01147,0.02813 0.02189,0.06981 0.00627,0.09586c-0.00209,0.02709 -0.03229,0.06564 -0.06043,0.07711c-0.02813,0.01147 -0.06878,0.00834 -0.09482,-0.00729c-0.06564,-0.0323 -0.11462,-0.10417 -0.13651,-0.17398c-0.11361,-0.29486 -0.21158,-0.61576 -0.24186,-0.93146z" data-paper-data="{&quot;index&quot;:null}" fill="#0b0a06"></path><path d="M304.49154,209.82284c0.04898,0.07189 0.08232,0.16982 -0.04685,0.25526c-0.11878,-0.04999 -0.15215,-0.14794 -0.20008,-0.23336c-0.11778,-0.24067 -0.1949,-0.47823 -0.27099,-0.72932c-0.03231,-0.11148 -0.02399,-0.21984 0.08957,-0.27925c0.05418,0.00417 0.08022,0.01978 0.08961,0.07501c0.09903,0.30736 0.19804,0.61471 0.33874,0.91165z" data-paper-data="{&quot;index&quot;:null}" fill="#141109"></path><path d="M304.64777,209.38519c-0.0344,-0.0844 -0.02711,-0.17922 0.04581,-0.24174c0.06877,-0.00835 0.10836,0.00833 0.1313,0.06458c0.03543,0.07085 0.06983,0.15524 0.09067,0.23859c0.0667,0.19587 0.13446,0.3782 0.25742,0.55115c0.02502,0.02917 0.04898,0.07189 0.05941,0.11357c0.02292,0.05627 0.00522,0.10941 -0.05209,0.14589c-0.04271,0.02398 -0.08335,0.02084 -0.1219,-0.00937c-0.02605,-0.01564 -0.05107,-0.0448 -0.06254,-0.07292c-0.17195,-0.24482 -0.27409,-0.51155 -0.34811,-0.78974z" data-paper-data="{&quot;index&quot;:null}" fill="#100d08"></path><path d="M303.15463,209.13427c0.0344,0.0844 0.05524,0.16775 -0.05832,0.22717c-0.10628,-0.03541 -0.12817,-0.10522 -0.16361,-0.17606c-0.09172,-0.22505 -0.14072,-0.47407 -0.17618,-0.72204c-0.01877,-0.11045 0.00311,-0.21777 0.10417,-0.29175c0.04064,0.00311 0.09378,0.02083 0.08961,0.07501c0.0313,0.30215 0.10427,0.59389 0.20433,0.88769z" data-paper-data="{&quot;index&quot;:null}" fill="#15120a"></path><path d="M307.2756,209.94125c0.03855,0.03022 0.06253,0.07293 0.05941,0.11357c0.01042,0.04168 -0.04896,0.10525 -0.10314,0.10109c-0.06772,-0.0052 -0.11982,-0.03645 -0.17089,-0.08126c-0.20425,-0.17919 -0.35014,-0.40839 -0.45333,-0.66157c-0.01042,-0.04168 -0.02085,-0.08335 -0.01774,-0.12399c0.00209,-0.02709 0.03126,-0.05209 0.05939,-0.06356c0.01459,-0.01251 0.04064,0.00311 0.05314,0.01771c0.03751,0.04375 0.06149,0.08647 0.099,0.13023c0.14798,0.20212 0.25324,0.42819 0.47415,0.56779z" data-paper-data="{&quot;index&quot;:null}" fill="#120f09"></path><path d="M308.58632,209.72854c0.05002,0.05834 0.04378,0.1396 -0.02811,0.1886c-0.05522,0.00937 -0.10732,-0.02188 -0.14587,-0.05209c-0.17923,-0.15002 -0.31575,-0.32399 -0.45226,-0.49799c-0.01251,-0.01459 -0.01251,-0.01459 -0.01147,-0.02813c-0.02293,-0.05626 -0.00522,-0.10941 0.03853,-0.14691c0.04271,-0.02398 0.08335,-0.02084 0.1219,0.00937c0.17819,0.16357 0.3418,0.33962 0.47727,0.52716z" data-paper-data="{&quot;index&quot;:null}" fill="#16130a"></path><path d="M307.21508,209.30985c0.05938,-0.06356 0.11461,-0.07295 0.16671,-0.0417c0.21884,0.16667 0.3939,0.37088 0.56897,0.57507c0.0375,0.04375 0.03335,0.09794 -0.02499,0.14796c-0.04375,0.03751 -0.09794,0.03336 -0.15003,0.00211c-0.1438,-0.07917 -0.45434,-0.4709 -0.56064,-0.68344z" data-paper-data="{&quot;index&quot;:null}" fill="#0d0b07"></path><path d="M308.92493,209.57743c-0.15423,-0.12085 -0.30637,-0.26878 -0.33141,-0.47508c0.05939,-0.06357 0.10001,-0.06044 0.15213,-0.02919c0.12817,0.10522 0.2282,0.2219 0.31262,0.36463c0.02398,0.04271 0.02085,0.08335 -0.00935,0.12191c-0.03021,0.03855 -0.08544,0.04793 -0.12398,0.01773z" data-paper-data="{&quot;index&quot;:null}" fill="#201b0f"></path><path d="M302.36575,208.05181c0.10839,0.18545 0.14697,0.39279 0.1147,0.63557c-0.17194,-0.06771 -0.18966,-0.19169 -0.22197,-0.30317c-0.03231,-0.11149 -0.03649,-0.23444 0.03956,-0.3376c0.02709,0.00208 0.05521,-0.00939 0.06773,0.00519z" data-paper-data="{&quot;index&quot;:null}" fill="#1d180e"></path><path d="M309.39793,209.27313c-0.12921,-0.09168 -0.273,-0.17085 -0.32721,-0.35214c0.11563,-0.0865 0.19587,-0.0667 0.28549,0.0083c0.07606,0.07396 0.16777,0.12188 0.15737,0.25733c-0.00105,0.01354 -0.00209,0.02709 -0.00209,0.02709c-0.00416,0.05417 -0.07501,0.08961 -0.11357,0.05941z" data-paper-data="{&quot;index&quot;:null}" fill="#17130b"></path><path d="M309.85526,208.81773c-0.00415,0.05419 -0.07605,0.10315 -0.14169,0.07087c-0.07815,-0.04687 -0.14277,-0.0927 -0.17715,-0.1771c-0.02293,-0.05626 -0.01876,-0.11044 0.02499,-0.14796c0.04376,-0.03751 0.09794,-0.03336 0.15003,-0.00211c0.07711,0.06043 0.13964,0.13335 0.14382,0.2563z" data-paper-data="{&quot;index&quot;:null}" fill="#382e16"></path><path d="M306.01337,198.34468c-0.06773,-0.00519 -0.11878,-0.04999 -0.12921,-0.09167c-0.00522,-0.1094 0.08228,-0.18443 0.20627,-0.20215c0.04168,-0.01042 0.09481,0.00728 0.11878,0.04999c0.02398,0.04271 0.0073,0.0823 -0.00937,0.1219c-0.04584,0.06461 -0.10313,0.10108 -0.18649,0.12193z" data-paper-data="{&quot;index&quot;:null}" fill="#201b0f"></path><path d="M302.24178,199.90808c0.05418,0.00417 0.09377,0.02082 0.10315,0.07605c0.01042,0.04168 -0.00728,0.09481 -0.03541,0.10628c-0.09898,0.04689 -0.18544,0.10838 -0.28861,0.03233c-0.02606,-0.01563 -0.03647,-0.05731 -0.0344,-0.08439c0.06147,-0.09065 0.15837,-0.11046 0.25526,-0.13027z" data-paper-data="{&quot;index&quot;:null}" fill="#3d3219"></path><path d="M300.99001,196.86892c-0.07292,0.06252 -0.17084,0.09588 -0.27403,0.01983c-0.04689,-0.09898 0.02603,-0.1615 0.08541,-0.22506c0.16043,-0.13756 0.30733,-0.27615 0.47924,-0.38557c0.40217,-0.26888 0.80535,-0.55128 1.23147,-0.77745c0.46884,-0.25013 0.96061,-0.44398 1.47426,-0.56804c0.0969,-0.01981 0.19378,-0.03961 0.28758,-0.01879c0.06773,0.00519 0.11878,0.04999 0.14067,0.11981c-0.03541,0.10629 -0.11773,0.11358 -0.20108,0.13444c-0.23756,0.07713 -0.47407,0.14072 -0.71162,0.21785c-0.56053,0.2022 -1.08563,0.47526 -1.58884,0.81812c-0.31569,0.20739 -0.63136,0.41478 -0.92307,0.66487z" data-paper-data="{&quot;index&quot;:null}" fill="#fefefa"></path></g><path d="M311.70863,184.8637c0.04887,-1.67735 2.39689,-2.96985 5.24444,-2.8869c2.84756,0.08295 5.11634,1.50996 5.06748,3.18732c-0.04887,1.67735 -2.39689,2.96985 -5.24444,2.8869c-2.84756,-0.08295 -5.11634,-1.50996 -5.06748,-3.18732z" data-paper-data="{&quot;index&quot;:null}" fill="#f6fab0" stroke="#000000" stroke-width="1.28786" stroke-linecap="butt"></path><path d="M316.24854,178.04251c0,0 2.03652,-3.84711 3.75866,-4.12016c1.72215,-0.27305 3.31173,2.99912 3.31173,2.99912" fill="none" stroke="#000000" stroke-width="1.28786" stroke-linecap="round"></path><path d="M308.4818,177.99357c0,0 1.91414,-2.62697 2.96097,-2.79295c1.72215,-0.27305 3.31173,2.99911 3.31173,2.99911" data-paper-data="{&quot;index&quot;:null}" fill="none" stroke="#000000" stroke-width="1.28786" stroke-linecap="round"></path></g></g><text transform="translate(189.07362,209.21757) scale(0.21298,0.21298)" font-size="40" xml:space="preserve" fill="#000000" fill-rule="nonzero" stroke="none" stroke-width="1" stroke-linecap="butt" stroke-linejoin="miter" stroke-miterlimit="10" stroke-dasharray="" stroke-dashoffset="0" font-family="Sans Serif" font-weight="normal" text-anchor="start" style="mix-blend-mode: normal"><tspan x="0" dy="0">By Laura Shigihara</tspan></text><text transform="translate(188.57366,193.3305) scale(0.40142,0.57366)" font-size="40" xml:space="preserve" fill="#000000" fill-rule="nonzero" stroke="none" stroke-width="1" stroke-linecap="butt" stroke-linejoin="miter" stroke-miterlimit="10" stroke-dasharray="" stroke-dashoffset="0" font-family="Sans Serif" font-weight="normal" text-anchor="start" style="mix-blend-mode: normal"><tspan x="0" dy="0">MAIN MENU</tspan></text></g></g></svg>