<svg version="1.1" xmlns="http://www.w3.org/2000/svg" xmlns:xlink="http://www.w3.org/1999/xlink" width="42.32698" height="59.93864" viewBox="0,0,42.32698,59.93864"><g transform="translate(-196.53448,-150.68313)"><g data-paper-data="{&quot;isPaintingLayer&quot;:true}" fill-rule="nonzero" stroke="#000000" stroke-width="0.5" stroke-linejoin="miter" stroke-miterlimit="10" stroke-dasharray="" stroke-dashoffset="0" style="mix-blend-mode: normal"><path d="M213.45354,181.61578l5.8352,0.53789l-1.61134,17.48023z" data-paper-data="{&quot;index&quot;:null}" fill="#383838" stroke-linecap="butt"></path><path d="M222.2691,197.80999l6.07406,-16.46999l5.49796,2.02762z" data-paper-data="{&quot;index&quot;:null}" fill="#383838" stroke-linecap="butt"></path><path d="M199.23041,183.39708l5.49796,-2.02762l6.07406,16.46999z" data-paper-data="{&quot;index&quot;:null}" fill="#383838" stroke-linecap="butt"></path><path d="M237.03644,179.8065c0,2.43895 -1.9088,4.41611 -4.26344,4.41611c-2.35463,0 -4.26344,-1.97716 -4.26344,-4.41611c0,-2.43895 1.9088,-4.41611 4.26344,-4.41611c2.35463,0 4.26344,1.97717 4.26344,4.41611z" fill="#bbbbbb" stroke-linecap="butt"></path><path d="M213.868,191.04875l5.8352,0.53789l-1.61134,17.48023z" data-paper-data="{&quot;index&quot;:null}" fill="#636363" stroke-linecap="butt"></path><path d="M221.90336,190.28464c0,2.53691 -2.02931,4.59349 -4.53259,4.59349c-2.50328,0 -4.53258,-2.05657 -4.53258,-4.59349c0,-2.53691 2.0293,-4.59349 4.53258,-4.59349c2.50328,0 4.53259,2.05657 4.53259,4.59349z" fill="#bbbbbb" stroke-linecap="butt"></path><path d="M205.31136,179.60739c0,2.43895 -1.9088,4.41611 -4.26344,4.41611c-2.35463,0 -4.26344,-1.97716 -4.26344,-4.41611c0,-2.43895 1.9088,-4.41611 4.26344,-4.41611c2.35463,0 4.26344,1.97716 4.26344,4.41611z" fill="#bbbbbb" stroke-linecap="butt"></path><path d="M199.18891,193.98412l5.49796,-2.02762l6.07406,16.46999z" data-paper-data="{&quot;index&quot;:null}" fill="#636363" stroke-linecap="butt"></path><path d="M225.02959,208.06288l6.07406,-16.46999l5.49796,2.02762z" data-paper-data="{&quot;index&quot;:null}" fill="#636363" stroke-linecap="butt"></path><path d="M211.69665,188.09875v-28.10632c0,0 0.89199,-8.44569 8.55043,-4.80087c6.93272,3.29943 -1.36294,10.72088 -1.36294,10.72088v22.18631z" fill="#0b8100" stroke-linecap="butt"></path><path d="M211.67975,188.16311v-16.28007h7.25332v16.28007z" fill="#ffffff" stroke-linecap="butt"></path><path d="M211.70694,179.32685v-7.47098h3.328z" fill="#ff0000" stroke-linecap="butt"></path><path d="M214.57538,165.62991c0,1.72334 -0.55674,3.12039 -1.24351,3.12039c-0.68677,0 -1.24351,-1.39705 -1.24351,-3.12039c0,-1.72334 0.56796,-2.92963 1.25473,-2.92963c0.68677,0 1.23229,1.20628 1.23229,2.92963z" fill="#000000" stroke-linecap="butt"></path><path d="M215.2953,160.63437l-3.61328,3.37744" fill="none" stroke-linecap="round"></path><path d="M211.9524,170.19009l4.01751,-0.49961" fill="none" stroke-linecap="round"></path><path d="M215.77726,187.04491c-7.99628,0 -12.70462,-1.67127 -12.70462,-11.64327c0,-9.97199 4.70833,-24.46851 12.70462,-24.46851c7.99629,0 14.47857,8.0839 14.47857,18.05589c0,9.97199 -6.48228,18.05589 -14.47857,18.05589z" fill="none" stroke-linecap="butt"></path><path d="M202.74307,181.37979v-5.0123l0.21939,-5.13554l7.1761,-0.04127l0.17648,3.81291l11.41821,-0.15476l-0.22409,-3.96868l9.16306,0.31021v10.18943z" fill="#9b9b9b" stroke-linecap="butt"></path><path d="M201.03775,190.16674v-11.34521h32.51245v11.34521z" fill="#636363" stroke-linecap="butt"></path><path d="M206.16771,191.01523c0,2.53691 -2.02931,4.59349 -4.53259,4.59349c-2.50328,0 -4.53258,-2.05657 -4.53258,-4.59349c0,-2.53691 2.0293,-4.59349 4.53258,-4.59349c2.50328,0 4.53259,2.05657 4.53259,4.59349z" fill="#bbbbbb" stroke-linecap="butt"></path><path d="M233.88314,196.25706c-2.61138,0 -4.72833,-2.1305 -4.72833,-4.75863c0,-2.62812 2.11695,-4.75863 4.72833,-4.75863c2.61138,0 4.72832,2.13051 4.72832,4.75863c0,2.62812 -2.11694,4.75863 -4.72832,4.75863z" fill="#bbbbbb" stroke-linecap="butt"></path></g></g></svg>