<svg version="1.1" xmlns="http://www.w3.org/2000/svg" xmlns:xlink="http://www.w3.org/1999/xlink" width="55.38799" height="58.11641" viewBox="0,0,55.38799,58.11641"><g transform="translate(-212.61606,-155.98283)"><g data-paper-data="{&quot;isPaintingLayer&quot;:true}" fill-rule="nonzero" stroke-linejoin="miter" stroke-miterlimit="10" stroke-dasharray="" stroke-dashoffset="0" style="mix-blend-mode: normal"><g><path d="M213.96902,169.95317l7.22301,3.51187c0,0 -5.19135,5.21445 -1.20907,10.66793c6.31107,8.64263 15.63529,12.72962 15.63529,12.72962l-4.3109,5.79921c0,0 -13.59297,-9.85888 -16.63004,-15.58827c-2.70348,-5.1001 -0.7083,-17.12037 -0.7083,-17.12037z" fill="#7a7a7a" stroke="#000000" stroke-width="1.28786" stroke-linecap="butt"></path><path d="M225.6065,167.024c-2.26399,5.91877 -6.4391,10.10105 -9.32533,9.34141c-2.88623,-0.75966 -3.39065,-6.17356 -1.12666,-12.09232c0.83027,-2.17058 2.67167,-6.33512 3.48774,-7.0008c1.4092,-1.14951 2.02225,1.8857 3.66291,2.82398c3.0535,1.74626 5.36458,-1.37695 5.74907,0.29688c0.21769,0.94769 -1.65371,4.55507 -2.44772,6.63087z" fill="#a3a3a3" stroke="#000000" stroke-width="1.28786" stroke-linecap="butt"></path><path d="M246.10262,197.37575c1.18539,4.33805 -3.91311,9.51049 -11.3878,11.55298c-7.4747,2.0425 -14.49508,0.18158 -15.68047,-4.15648c-1.18539,-4.33804 3.91311,-9.51048 11.38781,-11.55297c7.47471,-2.04249 14.49508,-0.18157 15.68047,4.15649z" fill="#00ff07" stroke="#000000" stroke-width="1.28786" stroke-linecap="butt"></path><path d="M263.49631,208.6505c0,-0.48148 0.10866,-0.8718 0.24267,-0.8718c0.13403,0 0.24268,0.39031 0.24268,0.8718c0,0.48148 -0.10865,0.87179 -0.24268,0.87179c-0.13403,0 -0.24267,-0.3903 -0.24267,-0.87179z" fill="#ba0000" stroke="#000000" stroke-width="1.28786" stroke-linecap="butt"></path><path d="M261.94727,196.56623c5.21221,4.36762 6.96413,10.85999 3.91301,14.50114c-3.05112,3.64114 -9.74988,3.05223 -14.96209,-1.31537c-5.21221,-4.36762 -6.96413,-10.85998 -3.91301,-14.50114c3.05112,-3.64114 9.74988,-3.05224 14.96209,1.31536z" fill="#00ff07" stroke="#000000" stroke-width="1.28786" stroke-linecap="butt"></path><path d="M261.35716,184.15948c0,8.88497 -7.95159,16.08768 -17.76037,16.08768c-9.80877,0 -17.76036,-7.20269 -17.76036,-16.08768c0,-8.88497 7.95159,-16.08767 17.76036,-16.08767c6.6596,0 7.69946,5.02781 10.73952,9.94046c1.43757,2.32307 7.02086,3.29462 7.02086,6.1472z" fill="#ffffff" stroke="#000000" stroke-width="1.28786" stroke-linecap="butt"></path><path d="M252.33398,174.48345c1.90493,5.41258 -1.5123,0.86143 -13.3324,8.24633c-5.65918,3.53572 -7.95043,8.76107 -10.72687,7.34005c-1.08973,-0.55773 -2.50709,-5.26331 -1.10997,-10.23974c1.26838,-4.51789 5.12511,-9.30644 8.57872,-10.52192c7.25776,-2.55434 14.68558,-0.23728 16.59052,5.17529z" fill="#c06fc9" stroke="#000000" stroke-width="1.28786" stroke-linecap="butt"></path><path d="M228.68838,181.40448l-5.32273,-13.74438l12.08101,7.87364z" fill="#c06fc9" stroke="#000000" stroke-width="1.28786" stroke-linecap="butt"></path><path d="M242.29653,170.48055l8.00428,-11.99485l0.51978,14.72986z" data-paper-data="{&quot;index&quot;:null}" fill="#c06fc9" stroke="#000000" stroke-width="1.28786" stroke-linecap="butt"></path><path d="M242.75341,180.17863l1.92343,10.8749" fill="none" stroke="#000000" stroke-width="1.28786" stroke-linecap="round"></path><path d="M251.53999,188.5409l-1.66595,-7.23435l6.11014,-1.95741" fill="none" stroke="#000000" stroke-width="1.28786" stroke-linecap="round"></path><path d="M228.32263,160.64042c-0.46071,1.12681 -2.99507,1.15674 -5.66066,0.06687c-2.66559,-1.08987 -4.45299,-2.88685 -3.99227,-4.01366c0.46071,-1.12681 2.99507,-1.15675 5.66067,-0.06688c2.66559,1.08987 4.45299,2.88684 3.99227,4.01365z" fill="#606060" stroke="#000000" stroke-width="1.28786" stroke-linecap="butt"></path><path d="M225.13529,159.28136c-0.26647,0.58347 -1.22521,0.71726 -2.14143,0.29883c-0.91622,-0.41842 -1.44295,-1.23062 -1.17649,-1.81409c0.26647,-0.58347 1.22521,-0.71725 2.14144,-0.29882c0.91622,0.41842 1.44295,1.23061 1.17648,1.81408z" fill="#00fff9" stroke="#000000" stroke-width="1.28786" stroke-linecap="butt"></path><path d="M216.11614,162.40696l1.19997,-2.21654l5.99806,3.24716l-1.19996,2.21655z" fill="#00fff9" stroke="#000000" stroke-width="1.28786" stroke-linecap="butt"></path><path d="M214.28782,167.04345l1.19996,-2.21654l4.57465,2.58489l-1.12089,2.32528z" fill="#00fff9" stroke="#000000" stroke-width="1.28786" stroke-linecap="butt"></path><path d="M213.71489,172.31254l0.93308,-2.32528l2.91397,1.83368l-0.94296,1.6828z" fill="#00fff9" stroke="#000000" stroke-width="1.28786" stroke-linecap="butt"></path><path d="M235.62831,193.1012l-2.83137,-10.22208l12.95686,-3.47159l2.12953,10.41978z" fill="#00fff9" stroke="#000000" stroke-width="1.28786" stroke-linecap="butt"></path><path d="M230.47381,195.10609c0,0 -2.52439,-3.26962 -3.3051,-5.10822c-0.74655,-1.75818 -1.28127,-5.69294 -1.28127,-5.69294l6.35806,-1.50536l3.10363,10.54417z" fill="#adadad" stroke="#000000" stroke-width="1.28786" stroke-linecap="butt"></path><path d="M243.95975,186.25072c0.59673,1.72288 1.29476,2.92658 0.32751,3.2616c-0.96725,0.33501 -0.96983,-0.62205 -1.56656,-2.34494c-0.59673,-1.72288 -1.56165,-3.55918 -0.59441,-3.8942c0.96725,-0.33501 1.23672,1.25465 1.83345,2.97754z" fill="#00c8c8" stroke="none" stroke-width="0" stroke-linecap="butt"></path><path d="M242.23681,184.24135l-4.64766,1.27143" fill="none" stroke="#00c8c8" stroke-width="1.5" stroke-linecap="round"></path><path d="M246.62158,196.4845c0,0 -6.5614,0.65072 -7.77452,0.06041c-1.21312,-0.59032 1.44375,-3.14104 1.44375,-3.14104" fill="#f9ffff" stroke="#000000" stroke-width="1.28786" stroke-linecap="round"></path><path d="M252.13395,195.70731c0,0 -4.58397,1.26696 -9.39577,-0.26363c-1.71513,-0.54556 -2.4128,-1.97618 -2.4128,-1.97618" fill="none" stroke="#000000" stroke-width="1.28786" stroke-linecap="round"></path></g></g></g></svg>