<svg version="1.1" xmlns="http://www.w3.org/2000/svg" xmlns:xlink="http://www.w3.org/1999/xlink" width="736" height="448.52083" viewBox="0,0,736,448.52083"><g transform="translate(53.42367,58.02083)"><g stroke-miterlimit="10"><path d="M-45.92367,273.97917c-4.14213,0 -7.5,-2.3923 -7.5,-5.34335v-321.3133c0,-2.95105 3.35787,-5.34335 7.5,-5.34335h721c4.14214,0 7.5,2.3923 7.5,5.34335v321.3133c0,2.95105 -3.35786,5.34335 -7.5,5.34335z" fill-opacity="0.50196" fill="#000000" stroke="none" stroke-width="0" stroke-linecap="butt"/><path d="M53.5,72v-87h554v87z" fill="#adadad" stroke="#000000" stroke-width="1" stroke-linecap="butt"/><path d="M124.48889,262.33333v-168h387.02222v168z" fill="#adadad" stroke="#000000" stroke-width="1" stroke-linecap="butt"/><text transform="translate(216.56645,53.01875) scale(0.86836,0.86836)" font-size="40" xml:space="preserve" fill="#000000" stroke="none" stroke-width="1" stroke-linecap="butt" font-family="Sans Serif" font-weight="normal" text-anchor="start"><tspan x="0" dy="0">Zombie Guide</tspan></text><path d="M186.5,390v-116h79v116z" fill="#adadad" stroke="#000000" stroke-width="1" stroke-linecap="butt"/><path d="M369.5,390v-116h93v116z" fill="#adadad" stroke="#000000" stroke-width="1" stroke-linecap="butt"/><path d="M317.59977,92.57554v169" fill="none" stroke="#000000" stroke-width="2" stroke-linecap="round"/><path d="M134.58805,254.28256v-124.5h85.56371v124.5z" fill="#adadad" stroke="#000000" stroke-width="1" stroke-linecap="butt"/><path d="M330.08804,253.78256v-124.5h85.56371v124.5z" fill="#adadad" stroke="#000000" stroke-width="1" stroke-linecap="butt"/><text transform="translate(134.58805,118.78256) scale(0.5,0.5)" font-size="40" xml:space="preserve" fill="#000000" stroke="none" stroke-width="1" stroke-linecap="butt" font-family="Sans Serif" font-weight="normal" text-anchor="start"><tspan x="0" dy="0">Cubehead Zombie</tspan></text><text transform="translate(329.58804,119.28256) scale(0.5,0.5)" font-size="40" xml:space="preserve" fill="#000000" stroke="none" stroke-width="1" stroke-linecap="butt" font-family="Sans Serif" font-weight="normal" text-anchor="start"><tspan x="0" dy="0">Flash Zombie</tspan></text><text transform="translate(226.08805,144.53256) scale(0.31943,0.31943)" font-size="40" xml:space="preserve" fill="#000000" stroke="none" stroke-width="1" stroke-linecap="butt" font-family="Sans Serif" font-weight="normal" text-anchor="start"><tspan x="0" dy="0">HP: 36</tspan><tspan x="0" dy="46.150000000000006px">Speed: Avg</tspan><tspan x="0" dy="46.150000000000006px">Damage: Avg</tspan><tspan x="0" dy="46.150000000000006px">Special: None</tspan></text><text transform="translate(421.08805,143.03256) scale(0.31943,0.31943)" font-size="40" xml:space="preserve" fill="#000000" stroke="none" stroke-width="1" stroke-linecap="butt" font-family="Sans Serif" font-weight="normal" text-anchor="start"><tspan x="0" dy="0">HP: 15</tspan><tspan x="0" dy="46.150000000000006px">Speed: Fast</tspan><tspan x="0" dy="46.150000000000006px">Damage: Avg</tspan><tspan x="0" dy="46.150000000000006px">Special: None</tspan></text><g stroke="#000000" stroke-width="0.5"><path d="M362.49947,241.06096v-99.11711h20.0818v99.11711z" fill="#ff0000" stroke-linecap="butt"/><path d="M380.05494,160.99584c0,7.4127 -5.20825,13.42189 -11.63298,13.42189c-6.42473,0 -6.08294,-4.4609 -6.08294,-11.87362c0,-7.41272 -0.34179,-14.97019 6.08294,-14.97019c6.42471,0 11.63298,6.00917 11.63298,13.42189z" fill="#0b8100" stroke-linecap="butt"/><path d="M371.22147,160.44045c0,6.07738 -1.55551,11.00405 -3.47437,11.00405c-1.91883,0 -3.47439,-4.92667 -3.47439,-11.00405c0,-6.07738 1.07292,-8.0482 2.99178,-8.0482c1.91883,0 3.95695,1.97082 3.95695,8.0482z" fill="#000000" stroke-linecap="butt"/><path d="M372.37332,145.63185l-9.27016,9.893" fill="none" stroke-linecap="round"/><path d="M375.10814,206.78993c0,6.29663 -4.60955,11.40106 -10.29572,11.40106c-2.71197,0 -2.01312,-10.3699 -2.01312,-10.3699c0,0 -0.96105,-12.43222 2.01312,-12.43222c5.68619,0 10.29572,5.10443 10.29572,11.40109z" fill="#ffffff" stroke-linecap="butt"/><path d="M388.13428,162.18047l-2.63542,-5.70847l-5.21043,9.41597l4.50059,-13.50855l2.83931,4.25116l4.11548,-7.35456z" fill="#e6ff00" stroke-linecap="round"/><path d="M363.11783,201.44195l4.50059,13.50855l-5.2104,-9.41597z" fill="#e6ff00" stroke-linecap="round"/></g><g stroke="#000000" stroke-width="0.5"><path d="M171.58922,246.49626v-89.02143h18.03635v89.02143z" fill="#0b8100" stroke-linecap="butt"/><path d="M171.61504,246.61402v-51.56404h18.20155v51.56404z" fill="#740000" stroke-linecap="butt"/><path d="M171.61504,218.71293v-23.66295h8.35131z" fill="#ffffff" stroke-linecap="butt"/><path d="M171.48686,210.37843v-15.53985h5.48445z" fill="#ff0000" stroke-linecap="butt"/><path d="M179.42284,174.08748c0,5.45834 -1.39709,9.88322 -3.12048,9.88322c-1.72339,0 -3.12048,-4.42486 -3.12048,-9.88322c0,-1.57509 0.11634,-3.06412 0.32328,-4.38562c0.5102,-3.258 1.57112,-5.4976 2.7972,-5.4976c1.72339,0 3.12048,4.42486 3.12048,9.88322z" fill="#000000" stroke-linecap="butt"/><path d="M170.33797,165.1653l3.66211,-27.59584l20.92107,2.77633l-3.66211,27.59582z" fill="#ababab" stroke-linecap="butt"/><path d="M190.96104,168.03873c0,0 -1.47685,6.8608 -12.78389,5.47932c-7.27706,-0.88911 -6.02727,-8.49824 -6.02727,-8.49824" fill="none" stroke-linecap="round"/></g></g></g></svg>