<svg version="1.1" xmlns="http://www.w3.org/2000/svg" xmlns:xlink="http://www.w3.org/1999/xlink" width="72.57949" height="68.84545" viewBox="0,0,72.57949,68.84545"><g transform="translate(-205.14386,-145.863)"><g data-paper-data="{&quot;isPaintingLayer&quot;:true}" fill-rule="nonzero" stroke="#000000" stroke-width="1.28786" stroke-linejoin="miter" stroke-miterlimit="10" stroke-dasharray="" stroke-dashoffset="0" style="mix-blend-mode: normal"><path d="M255.07942,178.55561v-7.71429h22v7.71429z" fill="#9c9c9c" stroke-linecap="butt"></path><path d="M273.67682,176.54263v-3.63636h1.72728v3.63636z" fill="#000000" stroke-linecap="butt"></path><path d="M236.78572,188.50693c0,1.9202 -2.00851,6.54153 -5.62011,7.60541c-4.84691,1.42778 -11.6656,-1.03399 -11.6656,-1.03399c0,0 4.14285,-1.21712 4.14285,-5.71429c0,-4.49717 0.72458,-9 5.14286,-9c4.41828,0 8,3.64569 8,8.14286z" fill="#00de46" stroke-linecap="butt"></path><path d="M240.78572,184.64977c4.41828,0 5.14286,4.50283 5.14286,9c0,4.49717 4.14285,5.71428 4.14285,5.71428c0,0 -6.81869,2.46177 -11.6656,1.03399c-3.6116,-1.06389 -5.62011,-5.68522 -5.62011,-7.60541c0,-4.49717 3.58172,-8.14286 8,-8.14286z" data-paper-data="{&quot;index&quot;:null}" fill="#00de46" stroke-linecap="butt"></path><path d="M238.84981,210.90026l-6.38985,-23.68759l6.70966,-1.80997l6.38984,23.68759z" fill="#00ff50" stroke-linecap="butt"></path><path d="M230.66574,214.06452c-4.83214,0 -8.74936,-2.04803 -8.74936,-4.5744c0,-2.52637 3.91722,-4.5744 8.74936,-4.5744c4.83214,0 8.74936,2.04803 8.74936,4.5744c0,2.52637 -3.91722,4.5744 -8.74936,4.5744z" fill="#00ff50" stroke-linecap="butt"></path><path d="M259.57612,209.09641c0,2.60575 -4.27537,4.71814 -9.5493,4.71814c-5.27393,0 -9.5493,-2.11239 -9.5493,-4.71814c0,-2.60575 4.27537,-4.71813 9.5493,-4.71813c5.27393,0 9.5493,2.11238 9.5493,4.71813z" fill="#00ff50" stroke-linecap="butt"></path><path d="M255.21429,174.50694c4.41828,0 5.14285,4.50283 5.14285,9c0,4.49717 4.14286,5.71429 4.14286,5.71429c0,0 -6.81869,2.46177 -11.6656,1.03399c-3.6116,-1.06389 -5.62011,-5.68522 -5.62011,-7.60542c0,-4.49717 3.58172,-8.14285 8,-8.14285z" data-paper-data="{&quot;index&quot;:null}" fill="#00de46" stroke-linecap="butt"></path><path d="M249.5,180.9355c4.41828,0 5.14286,4.50283 5.14286,9c0,4.49717 4.14285,5.71428 4.14285,5.71428c0,0 -6.81869,2.46177 -11.6656,1.03399c-3.6116,-1.06389 -5.62011,-5.68522 -5.62011,-7.60541c0,-4.49717 3.58172,-8.14286 8,-8.14286z" data-paper-data="{&quot;index&quot;:null}" fill="#00de46" stroke-linecap="butt"></path><path d="M224.5,178.79265c0,1.9202 -2.00851,6.54153 -5.62011,7.60541c-4.84691,1.42778 -11.6656,-1.03399 -11.6656,-1.03399c0,0 4.14286,-1.21711 4.14286,-5.71429c0,-4.49717 0.72457,-9 5.14285,-9c4.41828,0 8,3.64568 8,8.14286z" fill="#00de46" stroke-linecap="butt"></path><path d="M230.21429,185.22122c0,1.9202 -2.00851,6.54153 -5.62011,7.60541c-4.84691,1.42778 -11.66561,-1.03399 -11.66561,-1.03399c0,0 4.14286,-1.21711 4.14286,-5.71429c0,-4.49717 0.72458,-9 5.14286,-9c4.41828,0 8,3.64569 8,8.14286z" fill="#00de46" stroke-linecap="butt"></path><path d="M255.81429,169.49265c0,11.21138 -8.28273,20.3 -18.5,20.3c-10.21727,0 -18.5,-9.08862 -18.5,-20.3c0,-11.21138 8.28273,-20.3 18.5,-20.3c10.21727,0 18.5,9.08862 18.5,20.3z" fill="#00ff50" stroke-linecap="butt"></path><path d="M223.78572,184.07835v-4.71429c0,0 6.12285,7.91829 13.14285,7c9.76882,-0.14165 13,-7 13,-7v4.71429c0,0 -2.98123,6.8029 -13,6c-9.88056,-0.79183 -13.14285,-6 -13.14285,-6z" fill="#00377a" stroke-linecap="butt"></path><path d="M251.5,158.4355c0,2.61195 1.14633,2.27205 -0.0954,3.28838c-3.87816,3.17418 -14.79222,2.06876 -23.54745,2.06876c-3.33373,0 -3.28274,19.69604 -3.28274,19.69604c0,0 -4.22609,0.46784 -7.39277,-3.47092c-2.59999,-3.2339 -4.25305,-10.55569 -4.25305,-14.01083c0,-10.76955 9.37004,-19.5 20.92857,-19.5c11.55853,0 17.64285,1.15902 17.64285,11.92857z" fill="#004dae" stroke-linecap="butt"></path><path d="M262.61429,173.44979c0,8.28427 -4.43238,15 -9.9,15c-5.46762,0 -9.9,-6.71573 -9.9,-15c0,-8.28427 4.43238,-15 9.9,-15c5.46762,0 9.9,6.71573 9.9,15z" fill="#00ff50" stroke-linecap="butt"></path><path d="M257.61429,173.89265c0,5.46762 -1.74609,9.9 -3.9,9.9c-2.15391,0 -3.9,-4.43238 -3.9,-9.9c0,-5.46762 1.74609,-9.9 3.9,-9.9c2.15391,0 3.9,4.43238 3.9,9.9z" fill="#000000" stroke-linecap="butt"></path><path d="M245.78572,151.07835l-8.71429,5.71428l-10.57143,-4" fill="none" stroke-linecap="round"></path><path d="M246.78572,155.93549l-9.28571,4.71429l-9.28572,-3.28571" fill="none" stroke-linecap="round"></path><path d="M227.93656,164.4647l8,4.85714l-7.71428,5.42857" fill="none" stroke-linecap="round"></path><path d="M251.36514,174.17899v-7.71428h23.14285v7.71428z" fill="#9c9c9c" stroke-linecap="butt"></path><path d="M251.65085,182.03613v-7.71429h23.14285v7.71429z" fill="#9c9c9c" stroke-linecap="butt"></path><path d="M242.36513,173.17899l-3.71429,-4.14286l5.85715,-5" fill="none" stroke-linecap="round"></path><path d="M271.31318,172.2699v-3.63637h1.72727v3.63637z" fill="#000000" stroke-linecap="butt"></path><path d="M271.40409,180.17899v-3.63637h1.72728v3.63637z" fill="#000000" stroke-linecap="butt"></path><path d="M250.50799,178.55561v-7.71429h22v7.71429z" fill="#9c9c9c" stroke-linecap="butt"></path><path d="M269.22228,176.36081v-3.63636h1.72727v3.63636z" fill="#000000" stroke-linecap="butt"></path></g></g></svg>