<svg version="1.1" xmlns="http://www.w3.org/2000/svg" xmlns:xlink="http://www.w3.org/1999/xlink" width="60.19316" height="62.11159" viewBox="0,0,60.19316,62.11159"><defs><linearGradient x1="360.57581" y1="151.65429" x2="360.57581" y2="198.02297" gradientUnits="userSpaceOnUse" id="color-1"><stop offset="0" stop-color="#edcf21"/><stop offset="1" stop-color="#edda70"/></linearGradient></defs><g transform="translate(-330.90342,-147.70189)"><g stroke="#000000" stroke-width="1.28786" stroke-miterlimit="10"><path d="M343.92252,190.82995l-9.34175,-9.04982l8.90385,2.0435z" fill="#2ba21c" stroke-linecap="round"/><path d="M381.4593,183.96759l5.37686,-1.45764l-10.50946,10.65543l-0.14596,-0.87579l-3.50316,-3.94105l8.75788,-6.27649z" fill="#2ba21c" stroke-linecap="round"/><path d="M360.85003,198.02297l-20.78138,-5.953v-2.27297l1.84002,-0.10823l-1.29884,-1.73179l2.3812,-0.10824l-0.97413,-1.62354l1.84002,-0.10824l-3.2471,-3.68004l4.32945,1.40707l-0.86589,-1.62355l2.16473,0.21648l-4.87064,-7.79303l6.8189,3.13886l-2.59768,-4.11298l5.52006,3.13886l0.21648,-2.27296l1.51531,0.10824l-2.92238,-5.73652l4.93318,2.96201v-4.43769l2.59767,3.03062l0.75765,-0.64942l4.00475,-0.97413l-3.24709,-0.21648l3.46357,-3.89651l-3.60067,-4.84553l7.90126,-8.22596l-4.87065,8.87539l4.11298,3.68004l-1.19059,1.29883l1.84001,0.97412l-1.29883,4.97888l3.63909,-2.87897l-2.3812,4.7624l4.54593,-0.54118l-1.29883,4.65416l5.73652,-4.11298l-3.35533,5.30358l7.36007,-2.92238l-4.22122,5.953l1.19061,0.43294l-2.05649,5.30359l6.60242,0.64941l-5.73652,7.57655z" fill="url(#color-1)" stroke-linecap="round"/><path d="M372.44137,196.85718l4.23298,2.48139l-1.75158,0.29193l3.21123,3.79508l-1.89754,-0.29192l3.21122,4.81683l-10.3635,-4.52491l0.14597,1.60562l-2.33544,-1.31369l-2.4814,0.14596l-3.64912,-7.15228z" fill="#2ba21c" stroke-linecap="round"/><path d="M356.53395,194.06739l7.50959,-2.31065l0.96277,2.69575c0,0 -2.2167,1.45717 -3.35917,1.40525c-1.5534,-0.07061 -5.11319,-1.79035 -5.11319,-1.79035z" fill="#ffffff" stroke-linecap="round"/><path d="M358.8636,189.87929c0,1.94079 -0.82266,1.68484 -1.93928,1.68484c-1.11662,0 -2.10434,0.25594 -2.10434,-1.68484c0,-1.94079 0.9052,-3.51411 2.02182,-3.51411c1.11662,0 2.02181,1.57332 2.02181,3.51411z" fill="#ffffff" stroke-linecap="butt"/><path d="M368.52003,188.95464c0,1.94079 -0.82267,1.68484 -1.93929,1.68484c-1.11662,0 -2.10434,0.25594 -2.10434,-1.68484c0,-1.94079 0.9052,-3.51411 2.02182,-3.51411c1.11662,0 2.02181,1.57332 2.02181,3.51411z" fill="#ffffff" stroke-linecap="butt"/><path d="M363.36961,195.22272l-1.2516,-2.69575" fill="none" stroke-linecap="round"/><path d="M359.90364,193.58601l0.96276,1.82926" fill="none" stroke-linecap="round"/><path d="M353.84814,181.9261l1.16771,-1.45965l2.91929,0.72982" fill="none" stroke-linecap="round"/><path d="M348.59341,189.07836l-1.75158,-2.0435l1.45965,-0.14597l-0.43789,-1.60561l1.60561,-0.72982l0.29193,-3.06526l3.35719,1.31369" fill="none" stroke-linecap="round"/><path d="M363.33584,180.75838l3.79508,0.29192l2.33544,2.4814" fill="none" stroke-linecap="round"/><path d="M365.08741,176.0875l1.60561,0.72982l0.4379,2.33544l3.06526,0.14596l-0.58386,2.04351l3.06525,0.29192l-0.43789,3.50316" fill="none" stroke-linecap="round"/><path d="M353.5562,178.86083l1.31368,-2.91929v-2.33544l2.0435,0.43789l2.91929,0.43789" fill="none" stroke-linecap="round"/><path d="M362.16811,197.10642l-3.64912,7.15228l-2.4814,-0.14596l-2.33543,1.31368l0.14596,-1.60561l-10.3635,4.52491l3.21122,-4.81683l-1.89754,0.29192l3.21123,-3.79508l-1.75158,-0.29192l4.23298,-2.48139z" fill="#2ba21c" stroke-linecap="round"/><path d="M364.18322,194.88207l-0.1675,1.67499l8.03998,-4.01999l-0.67,3.01499l2.14794,-1.26118l-0.80794,2.08882l0.79809,-2.08882l-2.17749,1.18234l0.57146,-1.85234l18.8979,-5.10381l-22.10994,10.71998l2.67999,1.67499l-9.54575,-1.3403l-11.22565,1.34l2.67999,-1.675l-22.10994,-10.71997l18.8979,5.10381l0.57146,1.85235l-2.17749,-1.18234l0.79809,2.08882l-0.80794,-2.08882l2.14794,1.26117l-0.67,-3.01499l8.03998,4.01999l-0.1675,-1.67499l3.18249,2.51249z" fill="#2ba21c" stroke-linecap="round"/></g></g></svg>