<svg version="1.1" xmlns="http://www.w3.org/2000/svg" xmlns:xlink="http://www.w3.org/1999/xlink" width="47.14961" height="57.87368" viewBox="0,0,47.14961,57.87368"><g transform="translate(-219.89454,-155.68565)"><g data-paper-data="{&quot;isPaintingLayer&quot;:true}" fill-rule="nonzero" stroke-linejoin="miter" stroke-miterlimit="10" stroke-dasharray="" stroke-dashoffset="0" style="mix-blend-mode: normal"><g stroke="#000000" stroke-width="1.28786" stroke-linecap="butt"><path d="M224.41759,167.25814l5.49376,4.93647c0,0 -5.91151,3.29231 -3.77484,9.12295c3.38616,9.24034 10.59135,15.2182 10.59135,15.2182l-5.28158,4.03254c0,0 -9.5143,-12.16262 -10.74549,-17.99738c-1.09595,-5.19389 3.71679,-15.3128 3.71679,-15.3128z" fill="#7a7a7a"></path><path d="M235.44729,167.62101c-3.5026,4.65744 -8.25399,7.29519 -10.6125,5.89158c-2.35852,-1.40362 -1.43105,-6.31706 2.07155,-10.97451c1.28451,-1.70803 3.96857,-4.92206 4.85877,-5.30347c1.53721,-0.65861 1.30917,2.17981 2.52139,3.42535c2.25609,2.31814 5.09117,0.14371 5.00644,1.72077c-0.04798,0.89291 -2.61723,3.60685 -3.84564,5.24028z" fill="#a3a3a3"></path><path d="M239.46745,162.6674c0.69307,-0.87915 -0.43103,-2.92095 -2.51074,-4.56048c-2.07971,-1.63953 -4.3275,-2.25597 -5.02057,-1.37681c-0.69307,0.87915 0.43103,2.92095 2.51074,4.56049c2.07971,1.63953 4.3275,2.25597 5.02058,1.37681z" fill="#606060"></path><path d="M236.99483,160.65757c-0.38354,0.44815 -1.26494,0.3232 -1.96867,-0.27907c-0.70373,-0.60227 -0.96329,-1.4538 -0.57975,-1.90195c0.38354,-0.44815 1.26494,-0.32321 1.96867,0.27907c0.70373,0.60227 0.96329,1.45381 0.57975,1.90196z" fill="#00fff9"></path><path d="M228.22971,161.1325l1.62295,-1.65487l4.47815,4.39176l-1.62295,1.65488z" fill="#00fff9"></path><path d="M225.43748,164.76702l1.62295,-1.65487l3.38793,3.44529l-1.58064,1.77104z" fill="#00fff9"></path><path d="M223.59446,169.27917l1.41461,-1.81868l2.11058,2.36002l-1.26037,1.24828z" fill="#00fff9"></path></g><path d="M246.85174,198.12858c1.09009,3.98929 -3.59851,8.74588 -10.47227,10.62416c-6.87377,1.87829 -13.32973,0.16698 -14.41982,-3.82231c-1.09009,-3.98928 3.59851,-8.74588 10.47227,-10.62416c6.87377,-1.87828 13.32973,-0.16697 14.41982,3.82232z" fill="#00ff07" stroke="#000000" stroke-width="1.28786" stroke-linecap="butt"></path><path d="M262.84705,208.49688c0,-0.44277 0.09992,-0.80171 0.22316,-0.80171c0.12325,0 0.22317,0.35893 0.22317,0.80171c0,0.44277 -0.09992,0.80171 -0.22317,0.80171c-0.12325,0 -0.22316,-0.35893 -0.22316,-0.80171z" fill="#ba0000" stroke="#000000" stroke-width="1.28786" stroke-linecap="butt"></path><path d="M261.42255,197.38414c4.79317,4.01648 6.40424,9.98689 3.59842,13.3353c-2.80582,3.34841 -8.96603,2.80684 -13.7592,-1.20962c-4.79317,-4.01648 -6.40424,-9.98688 -3.59842,-13.3353c2.80582,-3.34841 8.96603,-2.80685 13.7592,1.20961z" fill="#00ff07" stroke="#000000" stroke-width="1.28786" stroke-linecap="butt"></path><path d="M260.87988,185.97485c0,8.17066 -7.31231,14.79429 -16.3325,14.79429c-9.02019,0 -16.3325,-6.62362 -16.3325,-14.79429c0,-8.17066 7.31231,-14.79429 16.3325,-14.79429c6.1242,0 7.08045,4.62359 9.8761,9.14129c1.32199,2.13631 6.45641,3.02975 6.45641,5.65299z" fill="#ffffff" stroke="#000000" stroke-width="1.28786" stroke-linecap="butt"></path><path d="M252.58213,177.07673c1.75178,4.97743 -1.39072,0.79217 -12.26053,7.58335c-5.2042,3.25146 -7.31125,8.05671 -9.86447,6.74994c-1.00212,-0.51289 -2.30553,-4.84016 -1.02073,-9.41651c1.16641,-4.15467 4.71307,-8.55824 7.88902,-9.676c6.67426,-2.34898 13.50492,-0.2182 15.25671,4.75922z" fill="#c06fc9" stroke="#000000" stroke-width="1.28786" stroke-linecap="butt"></path><path d="M230.83754,183.44134l-4.8948,-12.63938l11.10974,7.24063z" fill="#c06fc9" stroke="#000000" stroke-width="1.28786" stroke-linecap="butt"></path><path d="M243.35165,173.39565l7.36077,-11.03051l0.47799,13.54564z" data-paper-data="{&quot;index&quot;:null}" fill="#c06fc9" stroke="#000000" stroke-width="1.28786" stroke-linecap="butt"></path><path d="M243.7718,182.31404l1.7688,10.0006" fill="none" stroke="#000000" stroke-width="1.28786" stroke-linecap="round"></path><path d="M237.21953,194.19769l-2.60374,-9.40026l11.91518,-3.19249l1.95833,9.58207z" fill="#00fff9" stroke="#000000" stroke-width="1.28786" stroke-linecap="butt"></path><path d="M232.47943,196.04139c0,0 -2.32144,-3.00675 -3.03938,-4.69754c-0.68653,-1.61683 -1.17826,-5.23525 -1.17826,-5.23525l5.84689,-1.38434l2.85411,9.69646z" fill="#adadad" stroke="#000000" stroke-width="1.28786" stroke-linecap="butt"></path><path d="M241.50718,194.47602c0,0 -2.44327,2.34565 -1.32768,2.88851c1.11559,0.54286 7.14948,-0.05555 7.14948,-0.05555" fill="#f9ffff" stroke="#000000" stroke-width="1.28786" stroke-linecap="round"></path><path d="M241.53897,194.53454c0,0 0.64158,1.3156 2.21882,1.8173c4.42495,1.40754 8.64039,0.24244 8.64039,0.24244" fill="none" stroke="#000000" stroke-width="1.28786" stroke-linecap="round"></path><path d="M238.40516,186.16347l5.40675,1.66407l-2.91407,2.83534" fill="none" stroke="#00c8c8" stroke-width="1.5" stroke-linecap="round"></path><path d="M251.77561,181.54978l-2.21412,5.37787l5.93528,1.88547" fill="none" stroke="#000000" stroke-width="1.28786" stroke-linecap="round"></path></g></g></svg>