<svg version="1.1" xmlns="http://www.w3.org/2000/svg" xmlns:xlink="http://www.w3.org/1999/xlink" width="64.7547" height="88.41618" viewBox="0,0,64.7547,88.41618"><defs><linearGradient x1="319.95335" y1="137.31686" x2="319.95335" y2="222.1308" gradientUnits="userSpaceOnUse" id="color-1"><stop offset="0" stop-color="#555555"/><stop offset="1" stop-color="#00ff94"/></linearGradient><linearGradient x1="319.59165" y1="209.32887" x2="319.59165" y2="222.14281" gradientUnits="userSpaceOnUse" id="color-2"><stop offset="0" stop-color="#7c7c7c"/><stop offset="1" stop-color="#7a7a7a"/></linearGradient><linearGradient x1="292.41661" y1="137.2988" x2="292.41661" y2="222.11282" gradientUnits="userSpaceOnUse" id="color-3"><stop offset="0" stop-color="#969696"/><stop offset="1" stop-color="#7a7a7a"/></linearGradient><linearGradient x1="347.75417" y1="137.36757" x2="347.75417" y2="222.18158" gradientUnits="userSpaceOnUse" id="color-4"><stop offset="0" stop-color="#969696"/><stop offset="1" stop-color="#7a7a7a"/></linearGradient><linearGradient x1="306.45662" y1="190.23432" x2="306.45662" y2="211.2362" gradientUnits="userSpaceOnUse" id="color-5"><stop offset="0" stop-color="#858585"/><stop offset="1" stop-color="#818181"/></linearGradient><linearGradient x1="325.03236" y1="202.82136" x2="325.03236" y2="214.97976" gradientUnits="userSpaceOnUse" id="color-6"><stop offset="0" stop-color="#808080"/><stop offset="1" stop-color="#7d7d7d"/></linearGradient></defs><g transform="translate(-287.15141,-137.08963)"><g stroke-miterlimit="10"><path d="M351.40105,137.31686v84.81396h-62.89539v-84.81396z" fill="url(#color-1)" stroke="none" stroke-width="0" stroke-linecap="butt"/><g stroke="#000000" stroke-width="1.28786"><path d="M294.78791,181.80613c0,-11.89751 9.64484,-21.54235 21.54235,-21.54235c11.89751,0 21.54235,9.64484 21.54235,21.54235c0,11.89751 -9.64484,21.54235 -21.54235,21.54235c-11.89751,0 -21.54235,-9.64484 -21.54235,-21.54235z" fill="#18d83b" stroke-linecap="butt"/><path d="M336.82394,187.32439c0,0 0.98641,8.02551 -11.29075,13.73279c-11.34187,5.27249 -17.34507,0.1195 -17.34507,0.1195c0,0 1.05295,-9.42178 5.58748,-11.52418c4.53454,-2.10239 9.21483,4.66122 9.21483,4.66122c0,0 0.72856,-7.81835 2.97615,-8.7988c4.06725,-1.77425 10.85737,1.80946 10.85737,1.80946z" fill="#1dff46" stroke-linecap="round"/><path d="M320.38924,196.4087c0.51601,2.71585 0.39671,5.01962 -0.26646,5.14562c-0.66317,0.126 -1.61909,-1.97348 -2.1351,-4.68933c-0.51601,-2.71585 0.24352,-1.87667 0.90669,-2.00267c0.66317,-0.126 0.97886,-1.16948 1.49487,1.54637z" fill="#000000" stroke-linecap="butt"/><path d="M310.74903,196.81145l9.42887,-2.44452" fill="none" stroke-linecap="round"/><path d="M325.00875,192.09702l9.42887,-2.44452" fill="none" stroke-linecap="round"/><path d="M327.89741,193.44035c0.51601,2.71585 0.39671,5.01962 -0.26646,5.14562c-0.66317,0.12601 -1.61909,-1.97348 -2.13509,-4.68933c-0.51601,-2.71585 0.24352,-1.87666 0.90669,-2.00267c0.66317,-0.12601 0.97886,-1.16948 1.49487,1.54637z" fill="#000000" stroke-linecap="butt"/></g><path d="M288.14394,222.14281v-12.81396h62.89539v12.81396z" fill="url(#color-2)" stroke="none" stroke-width="0" stroke-linecap="butt"/><path d="M288.09391,222.11282v-84.81396h8.64539v84.81396z" fill="url(#color-3)" stroke="none" stroke-width="0" stroke-linecap="butt"/><path d="M343.68149,222.18158v-84.81396h8.14539v84.81396z" fill="url(#color-4)" stroke="none" stroke-width="0" stroke-linecap="butt"/><path d="M288.14394,147.40359v-10.31396h62.89539v10.31396z" fill="#969696" stroke="none" stroke-width="0" stroke-linecap="butt"/><path d="M295.88897,211.2362v-21.00188l21.13534,21.00188z" fill="url(#color-5)" stroke="none" stroke-width="0" stroke-linecap="butt"/><path d="M303.00344,214.97976v-12.15842h44.05785v12.15842z" fill="url(#color-6)" stroke="none" stroke-width="0" stroke-linecap="butt"/><text transform="translate(327.9419,219.25581) scale(0.47116,0.5)" font-size="40" xml:space="preserve" fill="#000000" stroke="none" stroke-width="1" stroke-linecap="butt" font-family="Sans Serif" font-weight="normal" text-anchor="start"><tspan x="0" dy="0">75</tspan></text><g stroke-linecap="butt"><path d="M303.52763,213.44923l-2.65375,6.84999l-2.38631,-6.84999z" fill="#ffff00" stroke="#ffff00" stroke-width="1"/><path d="M298.55938,202.07342l2.38632,-6.84999l2.65375,6.84999z" fill="#ffff00" stroke="#ffff00" stroke-width="1"/><path d="M294.37597,207.97259c0,-3.72115 3.01658,-6.73773 6.73773,-6.73773c3.72115,0 6.73772,3.01658 6.73772,6.73773c0,3.72115 -3.01658,6.73772 -6.73772,6.73772c-3.72115,0 -6.73773,-3.01658 -6.73773,-6.73772z" fill="#ffff00" stroke="none" stroke-width="0"/><path d="M306.80397,205.43749l6.87114,2.59848l-6.83054,2.44142z" fill="#ffff00" stroke="#ffff00" stroke-width="1"/><path d="M295.46853,210.49722l-6.86899,-2.33105l6.82838,-2.70885z" fill="#ffff00" stroke="#ffff00" stroke-width="1"/><path d="M307.11957,210.08398l3.04475,6.68537l-6.56714,-3.08051z" fill="#ffff00" stroke="#ffff00" stroke-width="1"/><path d="M295.51088,205.68721l-3.23165,-6.49409l6.75404,2.88922z" fill="#ffff00" stroke="#ffff00" stroke-width="1"/><path d="M303.679,202.14138l6.66063,-3.0985l-3.02751,6.59174z" fill="#ffff00" stroke="#ffff00" stroke-width="1"/><path d="M299.37585,213.78509l-6.46785,3.28387l2.83472,-6.7771z" fill="#ffff00" stroke="#ffff00" stroke-width="1"/><path d="M296.39222,208.17317c0,-2.70702 2.19448,-4.90151 4.9015,-4.90151c2.70702,0 4.90151,2.19448 4.90151,4.90151c0,2.70702 -2.19448,4.9015 -4.90151,4.9015c-2.70702,0 -4.9015,-2.19448 -4.9015,-4.9015z" fill="#fffff7" stroke="none" stroke-width="0"/></g><path d="M351.90611,137.19466v33.64619l-33.86,-33.64619z" fill="#00e2ff" stroke="none" stroke-width="0" stroke-linecap="butt"/></g></g></svg>