<svg version="1.1" xmlns="http://www.w3.org/2000/svg" xmlns:xlink="http://www.w3.org/1999/xlink" width="52.37991" height="63.15604" viewBox="0,0,52.37991,63.15604"><g transform="translate(-213.81005,-148.42198)"><g data-paper-data="{&quot;isPaintingLayer&quot;:true}" fill-rule="nonzero" stroke="#000000" stroke-width="1.28786" stroke-linejoin="miter" stroke-miterlimit="10" stroke-dasharray="" stroke-dashoffset="0" style="mix-blend-mode: normal"><g><g fill="#ffffff" stroke-linecap="butt"><path d="M265.54602,174.61193c0,3.33829 -11.43735,6.04451 -25.54602,6.04451c-14.10868,0 -25.54602,-2.70622 -25.54602,-6.04451c0,-3.33829 11.43735,-6.04451 25.54602,-6.04451c14.10868,0 25.54602,2.70622 25.54602,6.04451z"></path><path d="M240,149.06591c3.33829,0 6.04451,11.43735 6.04451,25.54602c0,14.10869 -2.70622,25.54602 -6.04451,25.54602c-3.33829,0 -6.04451,-11.43734 -6.04451,-25.54602c0,-14.10869 2.70622,-25.54602 6.04451,-25.54602z"></path><path d="M258.06377,156.54816c2.36052,2.36052 -3.81331,12.36153 -13.78965,22.33788c-9.97634,9.97634 -19.97736,16.15018 -22.33788,13.78965c-2.36052,-2.36052 3.81331,-12.36153 13.78965,-22.33788c9.97634,-9.97634 19.97736,-16.15018 22.33788,-13.78965z"></path><path d="M221.93623,156.54816c2.36052,-2.36052 12.36153,3.81331 22.33788,13.78965c9.97634,9.97634 16.15018,19.97736 13.78965,22.33788c-2.36052,2.36052 -12.36153,-3.81331 -22.33788,-13.78965c-9.97634,-9.97634 -16.15018,-19.97736 -13.78965,-22.33788z"></path><path d="M263.50884,184.6086c-1.30634,3.07208 -12.8906,1.08682 -25.87418,-4.43418c-12.98358,-5.52101 -22.44985,-12.48709 -21.14351,-15.55917c1.30634,-3.07208 12.8906,-1.08682 25.87418,4.43418c12.98358,5.52101 22.44985,12.48709 21.14351,15.55917z"></path><path d="M249.99668,151.10308c3.07208,1.30634 1.08682,12.8906 -4.43418,25.87418c-5.52101,12.98358 -12.48709,22.44985 -15.55917,21.14351c-3.07208,-1.30634 -1.08682,-12.8906 4.43418,-25.87418c5.52101,-12.98358 12.48709,-22.44985 15.55917,-21.14351z"></path><path d="M237.63466,169.04944c12.98358,-5.52101 24.56784,-7.50626 25.87418,-4.43418c1.30634,3.07208 -8.15993,10.03816 -21.14351,15.55917c-12.98358,5.52101 -24.56784,7.50626 -25.87418,4.43418c-1.30634,-3.07208 8.15993,-10.03816 21.14351,-15.55917z" data-paper-data="{&quot;index&quot;:null}"></path><path d="M245.56249,172.24659c5.52101,12.98358 7.50626,24.56784 4.43418,25.87418c-3.07208,1.30634 -10.03816,-8.15993 -15.55917,-21.14351c-5.52101,-12.98358 -7.50626,-24.56784 -4.43418,-25.87418c3.07208,-1.30634 10.03816,8.15993 15.55917,21.14351z" data-paper-data="{&quot;index&quot;:null}"></path></g><path d="M235.66965,206.21996v-28.38606h8.04054v28.38606z" fill="#00ff50" stroke-linecap="butt"></path><path d="M228.7137,210.93409c-5.59076,0 -10.12297,-2.36956 -10.12297,-5.29256c0,-2.923 4.5322,-5.29256 10.12297,-5.29256c5.59076,0 10.12297,2.36956 10.12297,5.29256c0,2.923 -4.5322,5.29256 -10.12297,5.29256z" fill="#00ff50" stroke-linecap="butt"></path><path d="M262.16287,205.18602c0,3.01484 -4.94658,5.45886 -11.04849,5.45886c-6.10191,0 -11.04849,-2.44402 -11.04849,-5.45886c0,-3.01484 4.94658,-5.45885 11.04849,-5.45885c6.10191,0 11.04849,2.44401 11.04849,5.45885z" fill="#00ff50" stroke-linecap="butt"></path><path d="M239.91406,189.25773c-9.1968,0 -16.65228,-6.10841 -16.65228,-13.64353c0,-7.53512 7.45548,-13.64354 16.65228,-13.64354c9.1968,0 16.65228,6.10842 16.65228,13.64354c0,7.53512 -7.45548,13.64353 -16.65228,13.64353z" fill="#fffd09" stroke-linecap="butt"></path><path d="M239.05862,179.03118c-0.81865,0 -1.4823,-2.83247 -1.4823,-6.3265c0,-3.49403 0.66365,-6.3265 1.4823,-6.3265c0.81865,0 1.4823,2.83247 1.4823,6.3265c0,3.49403 -0.66365,6.3265 -1.4823,6.3265z" fill="#000000" stroke-linecap="butt"></path><path d="M247.22925,177.81652c-0.53112,0 -0.96168,-2.80333 -0.96168,-6.26141c0,-3.45808 0.43056,-6.26141 0.96168,-6.26141c0.53112,0 0.96168,2.80333 0.96168,6.26141c0,3.45808 -0.43056,6.26141 -0.96168,6.26141z" fill="#000000" stroke-linecap="butt"></path><path d="M238.21797,182.56653c0,0 -9.19482,0.71938 -10.7022,-1.73549c-1.50738,-2.45488 4.19411,-7.66509 4.19411,-7.66509l0.28925,0.43387c0,0 -2.82263,3.9951 -1.43066,5.13766c4.86512,3.99339 12.13286,3.97368 12.13286,3.97368z" fill="#ffffff" stroke-linecap="round"></path></g></g></g></svg>