<svg version="1.1" xmlns="http://www.w3.org/2000/svg" xmlns:xlink="http://www.w3.org/1999/xlink" width="240.08653" height="64.88697" viewBox="0,0,240.08653,64.88697"><g transform="translate(-325.49657,-152.12822)"><g fill="#b200ff" stroke="none" stroke-miterlimit="10"><path d="M334.10503,204.97048c-4.93085,-0.18068 -8.78228,-4.30648 -8.60241,-9.21522c0.17987,-4.90876 4.32293,-8.74159 9.25378,-8.56091c4.93085,0.18068 8.78228,4.30648 8.60241,9.21522c-0.17987,4.90876 -4.32293,8.74159 -9.25378,8.56091z" stroke-width="NaN"/><path d="M344.41462,163.1798c4.13935,0.15168 7.37201,3.63026 7.22033,7.76961c-0.15168,4.13935 -3.63026,7.37201 -7.76961,7.22033c-4.13935,-0.15168 -7.37201,-3.63026 -7.22033,-7.76961c0.15168,-4.13935 3.63026,-7.37201 7.76961,-7.22033z" stroke-width="0"/><path d="M376.45773,171.69221c3.2195,0.11797 5.73378,2.82353 5.61581,6.04303c-0.11797,3.2195 -2.82353,5.73379 -6.04303,5.61582c-3.2195,-0.11797 -5.73378,-2.82354 -5.61581,-6.04304c0.11797,-3.2195 2.82353,-5.73378 6.04303,-5.61581z" stroke-width="0"/><path d="M363.57711,154.54237c3.67943,0.13483 6.5529,3.22689 6.41808,6.90632c-0.13483,3.67943 -3.22689,6.55289 -6.90632,6.41807c-3.67943,-0.13483 -6.5529,-3.22688 -6.41808,-6.90631c0.13483,-3.67943 3.22689,-6.5529 6.90632,-6.41808z" stroke-width="0"/><path d="M363.30698,189.22241c4.59929,0.16853 8.19112,4.03361 8.02259,8.6329c-0.16853,4.59929 -4.03361,8.19113 -8.6329,8.0226c-4.59928,-0.16853 -8.19112,-4.03362 -8.02259,-8.63291c0.16853,-4.59929 4.03361,-8.19112 8.6329,-8.02259z" stroke-width="0"/><path d="M389.26514,190.84071c6.62297,0.24269 11.79522,5.8084 11.55253,12.43137c-0.24269,6.62298 -5.80841,11.79522 -12.43137,11.55253c-6.62297,-0.24269 -11.79522,-5.8084 -11.55253,-12.43137c0.24269,-6.62298 5.80841,-11.79522 12.43137,-11.55253z" stroke-width="0"/><path d="M398.70798,156.16323c3.77141,0.1382 6.71672,3.30757 6.57852,7.07898c-0.1382,3.77142 -3.30755,6.71672 -7.07897,6.57852c-3.77142,-0.1382 -6.71673,-3.30756 -6.57853,-7.07897c0.1382,-3.77142 3.30756,-6.71673 7.07898,-6.57853z" stroke-width="0"/><path d="M408.22089,174.19034c4.23135,0.15505 7.53584,3.71093 7.38079,7.94227c-0.15505,4.23134 -3.71092,7.53583 -7.94227,7.38078c-4.23134,-0.15505 -7.53583,-3.71092 -7.38078,-7.94226c0.15505,-4.23134 3.71091,-7.53584 7.94226,-7.38079z" stroke-width="0"/><path d="M552.79212,152.1362c6.439,0.23594 11.46756,5.64705 11.23162,12.08606c-0.23595,6.43901 -5.64704,11.46757 -12.08605,11.23163c-6.43901,-0.23595 -11.46757,-5.64705 -11.23163,-12.08606c0.23595,-6.43901 5.64705,-11.46757 12.08606,-11.23163z" stroke-width="0"/><path d="M538.0203,172.94256c5.51914,0.20224 9.82935,4.84034 9.62711,10.35948c-0.20224,5.51914 -4.84034,9.82935 -10.35948,9.62711c-5.51914,-0.20224 -9.82935,-4.84034 -9.62711,-10.35948c0.20224,-5.51914 4.84034,-9.82935 10.35948,-9.62711z" stroke-width="0"/><path d="M558.19707,186.69063c4.23135,0.15505 7.53584,3.71093 7.38079,7.94227c-0.15505,4.23135 -3.71093,7.53584 -7.94227,7.38079c-4.23135,-0.15505 -7.53584,-3.71093 -7.38079,-7.94227c0.15505,-4.23135 3.71093,-7.53584 7.94227,-7.38079z" stroke-width="0"/><path d="M504.75304,188.73496c3.67943,0.13483 6.5529,3.22689 6.41808,6.90632c-0.13483,3.67943 -3.22689,6.5529 -6.90632,6.41808c-3.67943,-0.13483 -6.5529,-3.22689 -6.41808,-6.90632c0.13483,-3.67943 3.22689,-6.5529 6.90632,-6.41808z" stroke-width="0"/><path d="M511.42547,152.28819c8.27871,0.30336 14.74402,7.2605 14.44066,15.53922c-0.30336,8.27871 -7.2605,14.74402 -15.53922,14.44066c-8.27871,-0.30336 -14.74402,-7.2605 -14.44066,-15.53922c0.30336,-8.27871 7.2605,-14.74402 15.53922,-14.44066z" stroke-width="0"/><path d="M483.84115,172.29151c4.13936,0.15168 7.37201,3.63025 7.22033,7.76961c-0.15168,4.13936 -3.63025,7.37201 -7.76961,7.22033c-4.13936,-0.15168 -7.37201,-3.63025 -7.22033,-7.76961c0.15168,-4.13936 3.63025,-7.37201 7.76961,-7.22033z" stroke-width="0"/><path d="M459.84425,185.42158c5.88709,0.21572 10.48464,5.16302 10.26892,11.05011c-0.21572,5.88709 -5.16302,10.48464 -11.05011,10.26892c-5.88709,-0.21572 -10.48464,-5.16302 -10.26892,-11.05011c0.21572,-5.88709 5.16302,-10.48464 11.05011,-10.26892z" stroke-width="0"/><path d="M484.50027,154.30358c3.2195,0.11797 5.73378,2.82353 5.61581,6.04303c-0.11797,3.2195 -2.82353,5.73378 -6.04303,5.61581c-3.2195,-0.11797 -5.73378,-2.82353 -5.61581,-6.04303c0.11797,-3.2195 2.82353,-5.73378 6.04303,-5.61581z" stroke-width="0"/><path d="M459.48043,154.38744c7.45084,0.27302 13.26962,6.53446 12.9966,13.9853c-0.27302,7.45084 -6.53446,13.26962 -13.9853,12.9966c-7.45084,-0.27302 -13.26962,-6.53446 -12.9966,-13.9853c0.27302,-7.45084 6.53446,-13.26962 13.9853,-12.9966z" stroke-width="0"/><path d="M432.34261,180.41115c4.96723,0.18201 8.84641,4.3563 8.6644,9.32353c-0.18201,4.96723 -4.3563,8.84641 -9.32353,8.6644c-4.96723,-0.18201 -8.84641,-4.3563 -8.6644,-9.32353c0.18201,-4.96723 4.3563,-8.84641 9.32353,-8.6644z" stroke-width="0"/><path d="M417.13217,199.53366c3.77141,0.1382 6.71672,3.30755 6.57852,7.07897c-0.1382,3.77141 -3.30755,6.71672 -7.07897,6.57852c-3.77141,-0.1382 -6.71672,-3.30755 -6.57852,-7.07897c0.1382,-3.77141 3.30755,-6.71672 7.07897,-6.57852z" stroke-width="0"/><path d="M432.8474,162.084c3.95539,0.14494 7.04437,3.46891 6.89943,7.4243c-0.14494,3.95539 -3.46891,7.04437 -7.4243,6.89943c-3.95539,-0.14494 -7.04437,-3.46891 -6.89943,-7.4243c0.14494,-3.95539 3.46891,-7.04437 7.4243,-6.89943z" stroke-width="0"/><path d="M485.18855,194.6892c6.16304,0.22583 10.97611,5.40504 10.75027,11.56809c-0.22583,6.16304 -5.40504,10.97611 -11.56809,10.75027c-6.16304,-0.22583 -10.97611,-5.40504 -10.75027,-11.56809c0.22583,-6.16304 5.40504,-10.97611 11.56809,-10.75027z" stroke-width="0"/><path d="M522.91539,193.73673c4.5073,0.16516 8.0273,3.95294 7.86214,8.46024c-0.16516,4.5073 -3.95294,8.0273 -8.46024,7.86214c-4.5073,-0.16516 -8.0273,-3.95294 -7.86214,-8.46024c0.16516,-4.5073 3.95294,-8.0273 8.46024,-7.86214z" stroke-width="0"/></g></g></svg>