<svg version="1.1" xmlns="http://www.w3.org/2000/svg" xmlns:xlink="http://www.w3.org/1999/xlink" width="64.79222" height="88.80982" viewBox="0,0,64.79222,88.80982"><g transform="translate(-207.5598,-137.40138)"><g data-paper-data="{&quot;isPaintingLayer&quot;:true}" fill-rule="nonzero" stroke-linejoin="miter" stroke-miterlimit="10" stroke-dasharray="" stroke-dashoffset="0" style="mix-blend-mode: normal"><path d="M208.55231,222.40698v-84.81396h62.89539v84.81396z" fill="#515151" stroke="none" stroke-width="0" stroke-linecap="butt"></path><g stroke="#000000" stroke-width="1.28786"><path d="M254.4511,178.21227c8.51158,3.12178 14.86111,7.42846 14.18208,9.61923c-0.67903,2.19077 -8.12949,1.43605 -16.64107,-1.68573c-8.51158,-3.12178 -14.86112,-7.42846 -14.18208,-9.61922c0.67903,-2.19077 8.12949,-1.43605 16.64108,1.68573z" fill="#ffff00" stroke-linecap="butt"></path><path d="M256.86818,183.51646c-2.86981,9.25891 -6.82888,16.16593 -8.84282,15.42728c-2.01395,-0.73865 -1.32014,-8.84327 1.54968,-18.10218c2.86981,-9.2589 6.82888,-16.16593 8.84282,-15.42727c2.01394,0.73865 1.32014,8.84326 -1.54967,18.10217z" fill="#ffff00" stroke-linecap="butt"></path><path d="M256.66951,180.31981c3.98933,8.75447 5.67964,16.68375 3.77542,17.71056c-1.90422,1.02681 -6.6819,-5.23771 -10.67123,-13.99216c-3.98933,-8.75447 -5.67964,-16.68375 -3.77542,-17.71055c1.90422,-1.02681 6.68191,5.23771 10.67123,13.99217z" fill="#ffff00" stroke-linecap="butt"></path><path d="M254.93075,185.92965c-8.04786,4.3396 -15.33715,6.17831 -16.28108,4.10691c-0.94394,-2.07142 4.81495,-7.26858 12.86281,-11.60818c8.04786,-4.3396 15.33715,-6.17832 16.28107,-4.10691c0.94394,2.07142 -4.81494,7.26858 -12.8628,11.60818z" fill="#ffff00" stroke-linecap="butt"></path><path d="M252.92608,178.00522c8.95583,-0.75036 16.34828,0.51002 16.51149,2.81513c0.16321,2.30512 -6.96461,4.78207 -15.92044,5.53243c-8.95584,0.75036 -16.34828,-0.51001 -16.51149,-2.81513c-0.16322,-2.30512 6.96461,-4.78208 15.92045,-5.53244z" fill="#ffff00" stroke-linecap="butt"></path><path d="M257.05851,181.85753c0.6898,9.74217 -0.46885,17.78367 -2.58792,17.96122c-2.11907,0.17755 -4.3961,-7.57611 -5.08589,-17.31828c-0.6898,-9.74216 0.46885,-17.78367 2.58792,-17.96122c2.11907,-0.17755 4.3961,7.57611 5.08589,17.31828z" fill="#ffff00" stroke-linecap="butt"></path><path d="M265.37078,193.94111c-1.41298,1.72701 -7.9978,-2.13903 -14.70761,-8.63505c-6.70981,-6.49603 -11.00373,-13.16213 -9.59074,-14.88915c1.41298,-1.72701 7.99779,2.13903 14.70761,8.63505c6.70981,6.49603 11.00373,13.16213 9.59075,14.88914z" data-paper-data="{&quot;index&quot;:null}" fill="#ffff00" stroke-linecap="butt"></path><path d="M264.03434,168.96313c1.58763,1.53704 -1.96638,8.70001 -7.93809,15.99895c-5.97171,7.29894 -12.09976,11.96986 -13.68738,10.43282c-1.58763,-1.53704 1.96638,-8.70001 7.93809,-15.99894c5.97171,-7.29893 12.09975,-11.96986 13.68738,-10.43283z" data-paper-data="{&quot;index&quot;:null}" fill="#ffff00" stroke-linecap="butt"></path><path d="M235.1303,204.61377l13.96003,-15.47375l3.83326,3.69064l-11.68304,13.2787z" data-paper-data="{&quot;index&quot;:null}" fill="#00ff50" stroke-linecap="butt"></path><path d="M243.02348,179.17118c1.5327,-4.94496 7.27299,-7.304 12.82129,-5.26906c5.54831,2.03494 8.80361,7.69329 7.27091,12.63825c-1.5327,4.94496 -7.27299,7.30399 -12.82129,5.26905c-5.54831,-2.03494 -8.80361,-7.69327 -7.27091,-12.63824z" data-paper-data="{&quot;index&quot;:null}" fill="#a90000" stroke-linecap="butt"></path><path d="M256.1103,185.64838c-0.49389,0.18114 -1.4704,-1.53084 -2.18111,-3.82381c-0.71071,-2.29298 -0.88649,-4.29865 -0.39261,-4.47979c0.49389,-0.18114 1.4704,1.53085 2.18111,3.82382c0.71071,2.29298 0.88649,4.29864 0.39261,4.47978z" data-paper-data="{&quot;index&quot;:null}" fill="#000000" stroke-linecap="butt"></path><path d="M251.84965,186.29661c-0.32041,0.11752 -1.15039,-1.62691 -1.85379,-3.8963c-0.7034,-2.26939 -1.01386,-4.20436 -0.69344,-4.32188c0.32041,-0.11752 1.15039,1.62691 1.85378,3.8963c0.7034,2.26939 1.01387,4.20436 0.69345,4.32188z" data-paper-data="{&quot;index&quot;:null}" fill="#000000" stroke-linecap="butt"></path><path d="M255.44873,188.39373c0,0 -1.78827,0.98832 -5.67578,-0.36208c-1.33175,-0.46261 -1.84798,-4.41387 -1.84798,-4.41387" data-paper-data="{&quot;index&quot;:null}" fill="none" stroke-linecap="round"></path><path d="M245.38627,176.61232c0,2.31195 -7.28164,4.18615 -16.264,4.18615c-8.98236,0 -16.264,-1.8742 -16.264,-4.18615c0,-2.31195 7.28164,-4.18615 16.264,-4.18615c8.98236,0 16.264,1.8742 16.264,4.18615z" fill="#ffff00" stroke-linecap="butt"></path><path d="M229.12227,158.92033c2.12534,0 3.84827,7.92097 3.84827,17.69199c0,9.77103 -1.72293,17.69199 -3.84827,17.69199c-2.12534,0 -3.84827,-7.92097 -3.84827,-17.69199c0,-9.77103 1.72293,-17.69199 3.84827,-17.69199z" fill="#ffff00" stroke-linecap="butt"></path><path d="M240.62266,164.10219c1.50284,1.63479 -2.42775,8.56102 -8.77925,15.47018c-6.35149,6.90915 -12.71869,11.18487 -14.22153,9.55007c-1.50284,-1.63479 2.42776,-8.56103 8.77925,-15.47018c6.35149,-6.90915 12.71868,-11.18487 14.22152,-9.55007z" fill="#ffff00" stroke-linecap="butt"></path><path d="M217.62188,164.10219c1.50284,-1.63479 7.87003,2.64092 14.22152,9.55007c6.35149,6.90915 10.28209,13.83539 8.77925,15.47018c-1.50284,1.63479 -7.87003,-2.64092 -14.22152,-9.55007c-6.35149,-6.90915 -10.28209,-13.83539 -8.77925,-15.47018z" fill="#ffff00" stroke-linecap="butt"></path><path d="M244.08929,183.53555c-0.83168,2.12758 -8.20686,0.75269 -16.47293,-3.07091c-8.26606,-3.8236 -14.2928,-8.64798 -13.46112,-10.77555c0.83168,-2.12758 8.20686,-0.75269 16.47292,3.07091c8.26606,3.8236 14.2928,8.64798 13.46112,10.77555z" fill="#ffff00" stroke-linecap="butt"></path><path d="M235.48671,160.33118c1.95585,0.90471 0.69193,8.92744 -2.82305,17.91926c-3.51497,8.99183 -7.94997,15.54772 -9.90582,14.64301c-1.95585,-0.90471 -0.69193,-8.92744 2.82305,-17.91926c3.51497,-8.99183 7.94997,-15.54772 9.90582,-14.64301z" fill="#ffff00" stroke-linecap="butt"></path><path d="M227.61637,172.76c8.26606,-3.8236 15.64124,-5.19849 16.47293,-3.07091c0.83168,2.12758 -5.19506,6.95196 -13.46112,10.77555c-8.26606,3.8236 -15.64124,5.19849 -16.47292,3.07091c-0.83168,-2.12758 5.19505,-6.95196 13.46112,-10.77555z" data-paper-data="{&quot;index&quot;:null}" fill="#ffff00" stroke-linecap="butt"></path><path d="M232.66365,174.9742c3.51497,8.99183 4.7789,17.01455 2.82305,17.91926c-1.95585,0.90471 -6.39084,-5.65119 -9.90581,-14.64301c-3.51497,-8.99183 -4.7789,-17.01455 -2.82305,-17.91926c1.95585,-0.90471 6.39084,5.65119 9.90582,14.64301z" data-paper-data="{&quot;index&quot;:null}" fill="#ffff00" stroke-linecap="butt"></path><path d="M233.30248,204.92153l-7.02626,-18.11225l4.71631,-2.16497l8.68363,19.51448z" fill="#00ff50" stroke-linecap="butt"></path><path d="M231.4206,208.77858c-3.55938,0 -6.44484,-1.64105 -6.44484,-3.66539c0,-2.02434 2.88546,-3.66538 6.44484,-3.66538c3.55938,0 6.44483,1.64104 6.44483,3.66538c0,2.02434 -2.88545,3.66539 -6.44483,3.66539z" fill="#00ff50" stroke-linecap="butt"></path><path d="M252.71618,204.79774c0,2.08794 -3.14927,3.78056 -7.03408,3.78056c-3.88481,0 -7.03408,-1.69262 -7.03408,-3.78056c0,-2.08794 3.14927,-3.78055 7.03408,-3.78055c3.88481,0 7.03408,1.69261 7.03408,3.78055z" fill="#00ff50" stroke-linecap="butt"></path><path d="M229.06756,186.75533c-5.85519,0 -10.60176,-4.23041 -10.60176,-9.44888c0,-5.21847 4.74657,-9.44888 10.60176,-9.44888c5.85519,0 10.60176,4.23041 10.60176,9.44888c0,5.21847 -4.74657,9.44888 -10.60176,9.44888z" fill="#a90000" stroke-linecap="butt"></path><path d="M230.64068,181.67609c-0.5212,0 -0.94371,-1.96165 -0.94371,-4.38144c0,-2.4198 0.42252,-4.38143 0.94371,-4.38143c0.5212,0 0.94371,1.96164 0.94371,4.38143c0,2.4198 -0.42252,4.38144 -0.94371,4.38144z" fill="#000000" stroke-linecap="butt"></path><path d="M233.90896,182.0368c-0.33814,0 -0.61226,-1.94145 -0.61226,-4.33637c0,-2.39491 0.27412,-4.33637 0.61226,-4.33637c0.33814,0 0.61226,1.94145 0.61226,4.33637c0,2.39491 -0.27412,4.33637 -0.61226,4.33637z" fill="#000000" stroke-linecap="butt"></path><path d="M229.56785,184.17981c0,0 -1.98482,0.31501 -5.27195,-2.3157c-1.12609,-0.90122 -0.45475,-4.82479 -0.45475,-4.82479" fill="none" stroke-linecap="round"></path></g><path d="M208.55233,222.38702v-12.81396h62.89539v12.81396z" fill="#969696" stroke="none" stroke-width="0" stroke-linecap="butt"></path><path d="M208.50229,222.35702v-84.81396h8.64539v84.81396z" fill="#969696" stroke="none" stroke-width="0" stroke-linecap="butt"></path><path d="M264.05233,222.40701v-84.81396h8.14539v84.81396z" fill="#969696" stroke="none" stroke-width="0" stroke-linecap="butt"></path><path d="M208.55233,147.90701v-10.31396h62.89539v10.31396z" fill="#969696" stroke="none" stroke-width="0" stroke-linecap="butt"></path><path d="M216.29734,211.48042v-21.00188l21.13534,21.00188z" fill="#969696" stroke="none" stroke-width="0" stroke-linecap="butt"></path><path d="M223.41181,215.22399v-12.15842h44.05785v12.15842z" fill="#969696" stroke="none" stroke-width="0" stroke-linecap="butt"></path><text transform="translate(238.31589,219.9612) scale(0.47116,0.5)" font-size="40" xml:space="preserve" fill="#000000" fill-rule="nonzero" stroke="none" stroke-width="1" stroke-linecap="butt" stroke-linejoin="miter" stroke-miterlimit="10" stroke-dasharray="" stroke-dashoffset="0" font-family="Sans Serif" font-weight="normal" text-anchor="start" style="mix-blend-mode: normal"><tspan x="0" dy="0">100</tspan></text><g stroke-linecap="butt"><path d="M223.936,213.69347l-2.65375,6.84999l-2.38631,-6.84999z" data-paper-data="{&quot;index&quot;:null}" fill="#ffff00" stroke="#ffff00" stroke-width="1"></path><path d="M218.96775,202.31762l2.38632,-6.84999l2.65375,6.84999z" fill="#ffff00" stroke="#ffff00" stroke-width="1"></path><path d="M214.78435,208.21682c0,-3.72115 3.01658,-6.73773 6.73773,-6.73773c3.72115,0 6.73772,3.01658 6.73772,6.73773c0,3.72115 -3.01658,6.73772 -6.73772,6.73772c-3.72115,0 -6.73773,-3.01658 -6.73773,-6.73772z" fill="#ffff00" stroke="none" stroke-width="0"></path><path d="M227.21236,205.68172l6.87114,2.59848l-6.83054,2.44142z" data-paper-data="{&quot;index&quot;:null}" fill="#ffff00" stroke="#ffff00" stroke-width="1"></path><path d="M215.87692,210.74146l-6.86899,-2.33105l6.82838,-2.70885z" fill="#ffff00" stroke="#ffff00" stroke-width="1"></path><path d="M227.52794,210.32821l3.04475,6.68537l-6.56714,-3.08051z" data-paper-data="{&quot;index&quot;:null}" fill="#ffff00" stroke="#ffff00" stroke-width="1"></path><path d="M215.91926,205.9314l-3.23165,-6.49409l6.75404,2.88922z" fill="#ffff00" stroke="#ffff00" stroke-width="1"></path><path d="M224.08737,202.38559l6.66063,-3.0985l-3.02751,6.59174z" data-paper-data="{&quot;index&quot;:null}" fill="#ffff00" stroke="#ffff00" stroke-width="1"></path><path d="M219.78422,214.02932l-6.46785,3.28387l2.83472,-6.7771z" fill="#ffff00" stroke="#ffff00" stroke-width="1"></path><path d="M216.80059,208.41738c0,-2.70702 2.19448,-4.90151 4.9015,-4.90151c2.70702,0 4.90151,2.19448 4.90151,4.90151c0,2.70702 -2.19448,4.9015 -4.90151,4.9015c-2.70702,0 -4.9015,-2.19448 -4.9015,-4.9015z" fill="#fffff7" stroke="none" stroke-width="0"></path></g><path d="M272.35202,137.40138v33.64619l-33.86,-33.64619z" fill="#f8ff00" stroke="none" stroke-width="0" stroke-linecap="butt"></path></g></g></svg>