<svg version="1.1" xmlns="http://www.w3.org/2000/svg" xmlns:xlink="http://www.w3.org/1999/xlink" width="96.1724" height="97.26078" viewBox="0,0,96.1724,97.26078"><g transform="translate(-191.9138,-131.2375)"><g data-paper-data="{&quot;isPaintingLayer&quot;:true}" fill-rule="nonzero" stroke-linejoin="miter" stroke-miterlimit="10" stroke-dasharray="" stroke-dashoffset="0" style="mix-blend-mode: normal"><path d="M192.4138,226.60087v-64.88824v-9.24098c0,0 2.20499,0 4.81102,0c11.2941,0 90.36138,0 90.36138,0v74.12922z" fill="#afafaf" stroke="#000000" stroke-width="1" stroke-linecap="butt"></path><path d="M192.4138,205.86672v-64.88824v-9.24098c0,0 2.20499,0 4.81102,0c11.2941,0 90.36138,0 90.36138,0v74.12922z" fill="#afafaf" stroke="#000000" stroke-width="1" stroke-linecap="butt"></path><text transform="translate(226.18157,222.60704) scale(0.4713,0.4713)" font-size="40" xml:space="preserve" fill="#000000" fill-rule="nonzero" stroke="none" stroke-width="1" stroke-linecap="butt" stroke-linejoin="miter" stroke-miterlimit="10" stroke-dasharray="" stroke-dashoffset="0" font-family="Sans Serif" font-weight="normal" text-anchor="start" style="mix-blend-mode: normal"><tspan x="0" dy="0">1-3</tspan></text><path d="M196.91902,199.90336v-60.82023h86.62275v60.82023z" fill="#939393" stroke="#000000" stroke-width="1" stroke-linecap="butt"></path><g stroke="#000000" stroke-width="0.5"><path d="M235.73848,196.93494v-44.90123h9.0973v44.90123z" fill="#0b8100" stroke-linecap="butt"></path><path d="M235.75151,196.99433v-26.00822h9.18062v26.00822z" fill="#740000" stroke-linecap="butt"></path><path d="M235.75151,182.9214v-11.93528h4.21229z" fill="#ffffff" stroke-linecap="butt"></path><path d="M235.68685,178.71758v-7.8381h2.76628z" fill="#ff0000" stroke-linecap="butt"></path><path d="M239.68966,160.4129c0,2.75311 -0.70467,4.98496 -1.57393,4.98496c-0.86926,0 -1.57393,-2.23184 -1.57393,-4.98496c0,-0.79445 0.05868,-1.5455 0.16306,-2.21205c0.25734,-1.64329 0.79245,-2.77292 1.41087,-2.77292c0.86926,0 1.57393,2.23184 1.57393,4.98496z" fill="#000000" stroke-linecap="butt"></path><path d="M235.10737,155.91267l1.84712,-13.91898l10.55231,1.40034l-1.84712,13.91897z" fill="#ababab" stroke-linecap="butt"></path><path d="M245.50938,157.36199c0,0 -0.7449,3.4605 -6.44802,2.7637c-3.67045,-0.44846 -3.04008,-4.2864 -3.04008,-4.2864" fill="none" stroke-linecap="round"></path></g><path d="M253.7116,131.95688h33.838v33.838z" fill="#ff0000" stroke="#000000" stroke-width="1" stroke-linecap="butt"></path></g></g></svg>