<svg version="1.1" xmlns="http://www.w3.org/2000/svg" xmlns:xlink="http://www.w3.org/1999/xlink" width="33.87524" height="57.01695" viewBox="0,0,33.87524,57.01695"><g transform="translate(-303.04637,-151.49153)"><g stroke="#000000" stroke-width="1.28786" stroke-miterlimit="10"><path d="M313.38968,162.09931l-4.70763,1.50171l-4.56211,-3.99584" fill="none" stroke-linecap="round"/><path d="M315.24882,161.94543l-2.69302,-4.22841l2.5141,-5.58156" fill="none" stroke-linecap="round"/><path d="M313.29757,161.15719l-4.46828,-2.13462l-0.74471,-6.0989" fill="none" stroke-linecap="round"/><path d="M332.95803,181.94426c0,13.4733 -5.76817,24.39557 -12.88356,24.39557c-7.11539,0 -12.88356,-10.92228 -12.88356,-24.39557c0,-13.4733 5.76817,-24.39557 12.88356,-24.39557c7.11539,0 12.88356,10.92228 12.88356,24.39557z" fill="#49574b" stroke-linecap="butt"/><path d="M319.92554,204.66263c-7.44443,0 -7.8195,-9.81859 -7.8195,-22.87085c0,-6.11031 2.00381,-16.17904 2.00381,-16.17904c0,0 -3.17369,-2.23774 -2.61877,-3.01917c2.30918,-3.25176 5.24223,-5.19736 8.43447,-5.19736c3.12144,0 5.99505,1.86025 8.2799,4.98292c0.62182,0.84985 -1.54897,3.2754 -1.54897,3.2754c0,0 2.43596,8.26457 2.57918,15.55971c0.12109,6.16816 -1.86569,23.44839 -9.31012,23.44839z" fill="#5d6f5f" stroke-linecap="butt"/><path d="M321.19155,158.15857v34.1538" fill="none" stroke-linecap="round"/><path d="M303.91418,207.86454l4.61722,-15.24723h23.53296l4.02146,15.24723z" fill="#a5a5a5" stroke-linecap="butt"/><path d="M318.21269,178.28491c0,-2.35783 1.86715,-4.26922 4.17039,-4.26922c2.30324,0 4.17039,1.91139 4.17039,4.26922c0,2.35783 -1.86715,4.26922 -4.17039,4.26922c-2.30324,0 -4.17039,-1.91139 -4.17039,-4.26922z" fill="#000000" stroke-linecap="butt"/><path d="M319.40422,178.43739c0,-2.18941 1.63376,-3.96428 3.6491,-3.96428c2.01534,0 3.6491,1.77487 3.6491,3.96428c0,2.18941 -1.63376,3.96428 -3.6491,3.96428c-2.01534,0 -3.6491,-1.77487 -3.6491,-3.96428z" fill="#ff0000" stroke-linecap="butt"/></g></g></svg>