<svg version="1.1" xmlns="http://www.w3.org/2000/svg" xmlns:xlink="http://www.w3.org/1999/xlink" width="64.79221" height="88.80982" viewBox="0,0,64.79221,88.80982"><defs><linearGradient x1="236.1945" y1="158.79739" x2="243.6852" y2="200.6403" gradientUnits="userSpaceOnUse" id="color-1"><stop offset="0" stop-color="#ffb400"></stop><stop offset="1" stop-color="#ff8ac5"></stop></linearGradient></defs><g transform="translate(-207.55981,-137.40138)"><g data-paper-data="{&quot;isPaintingLayer&quot;:true}" fill-rule="nonzero" stroke-linejoin="miter" stroke-miterlimit="10" stroke-dasharray="" stroke-dashoffset="0" style="mix-blend-mode: normal"><path d="M208.55231,222.40698v-84.81396h62.89539v84.81396z" fill="#515151" stroke="none" stroke-width="0" stroke-linecap="butt"></path><g stroke="#000000" stroke-width="1.28786"><path d="M219.01839,183.46419c-2.0685,-11.5546 5.62151,-22.59831 17.17611,-24.66681c11.5546,-2.0685 22.59831,5.62151 24.66681,17.17611c2.0685,11.5546 -5.62151,22.59831 -17.17611,24.66681c-11.5546,2.0685 -22.59831,-5.62151 -24.66681,-17.17611z" fill="url(#color-1)" stroke-linecap="butt"></path><path d="M240.42193,178.39824l-15.9409,1.47856" fill="#ffb400" stroke-linecap="round"></path><path d="M256.36291,172.07561l-13.09886,5.72712" fill="#ffb400" stroke-linecap="round"></path><path d="M240.43318,179.12262c0,0 -0.50773,7.21093 -4.43188,7.52511c-3.92416,0.31417 -7.66589,-6.55654 -7.66589,-6.55654z" fill="#ffffff" stroke-linecap="round"></path><path d="M254.5573,173.14831c0,0 0.22079,7.8204 -3.3291,9.52216c-3.54989,1.70175 -7.61485,-4.27583 -7.61485,-4.27583z" data-paper-data="{&quot;index&quot;:null}" fill="#ffffff" stroke-linecap="round"></path><path d="M222.06776,178.09222l-4.22871,-13.74811l8.13143,4.87204" fill="#ffa935" stroke-linecap="round"></path><path d="M252.15449,166.27649l5.93621,-7.39042l0.80342,14.3613" data-paper-data="{&quot;index&quot;:null}" fill="#ffa935" stroke-linecap="round"></path><path d="M255.72597,186.8004l9.35861,1.50774l-12.08747,7.79653" data-paper-data="{&quot;index&quot;:null}" fill="#ff939c" stroke-linecap="round"></path><path d="M256.66777,177.96765l8.78181,-3.56885l-6.28493,12.93801" data-paper-data="{&quot;index&quot;:null}" fill="#ff9d6b" stroke-linecap="round"></path><path d="M257.55488,167.78823l10.38307,9.95412l-9.47452,-0.30061" data-paper-data="{&quot;index&quot;:null}" fill="#ffa545" stroke-linecap="round"></path><path d="M244.14066,164.09643l7.53505,5.7515l-14.33703,1.15856" data-paper-data="{&quot;index&quot;:null}" fill="#ffa935" stroke-linecap="round"></path><path d="M227.70066,175.5968l5.09039,-13.1718l3.01951,8.9705" data-paper-data="{&quot;index&quot;:null}" fill="#ffa935" stroke-linecap="round"></path><path d="M251.88747,190.57182l2.29787,9.19656l-11.92514,-8.04261" data-paper-data="{&quot;index&quot;:null}" fill="#ff939c" stroke-linecap="round"></path><path d="M242.64913,197.12431l-13.50127,4.96067l4.42848,-8.38126" data-paper-data="{&quot;index&quot;:null}" fill="#ff91a4" stroke-linecap="round"></path><path d="M231.4737,193.41427l-11.45686,4.87308l3.79103,-8.35238" data-paper-data="{&quot;index&quot;:null}" fill="#ff958c" stroke-linecap="round"></path><path d="M227.64534,187.67238l-12.35568,-1.53093l7.46911,-5.32414" data-paper-data="{&quot;index&quot;:null}" fill="#ff9d6b" stroke-linecap="round"></path><path d="M237.33316,164.44609l9.04373,-11.18497l0.49888,9.46614" data-paper-data="{&quot;index&quot;:null}" fill="#ffb400" stroke-linecap="round"></path><path d="M228.59281,164.74534l-5.88979,-7.42746l14.18183,2.40174" data-paper-data="{&quot;index&quot;:null}" fill="#ffb307" stroke-linecap="round"></path></g><path d="M208.55233,222.38702v-12.81396h62.89539v12.81396z" fill="#969696" stroke="none" stroke-width="0" stroke-linecap="butt"></path><path d="M208.50229,222.35702v-84.81396h8.64539v84.81396z" fill="#969696" stroke="none" stroke-width="0" stroke-linecap="butt"></path><path d="M264.05233,222.40701v-84.81396h8.14539v84.81396z" fill="#969696" stroke="none" stroke-width="0" stroke-linecap="butt"></path><path d="M208.55233,147.90701v-10.31396h62.89539v10.31396z" fill="#969696" stroke="none" stroke-width="0" stroke-linecap="butt"></path><path d="M216.29734,211.48042v-21.00188l21.13534,21.00188z" fill="#969696" stroke="none" stroke-width="0" stroke-linecap="butt"></path><path d="M223.41181,215.22399v-12.15842h44.05785v12.15842z" fill="#969696" stroke="none" stroke-width="0" stroke-linecap="butt"></path><text transform="translate(247.9615,219.9612) scale(0.47116,0.5)" font-size="40" xml:space="preserve" fill="#000000" fill-rule="nonzero" stroke="none" stroke-width="1" stroke-linecap="butt" stroke-linejoin="miter" stroke-miterlimit="10" stroke-dasharray="" stroke-dashoffset="0" font-family="Sans Serif" font-weight="normal" text-anchor="start" style="mix-blend-mode: normal"><tspan x="0" dy="0">75</tspan></text><g stroke-linecap="butt"><path d="M223.936,213.69347l-2.65375,6.84999l-2.38631,-6.84999z" data-paper-data="{&quot;index&quot;:null}" fill="#ffff00" stroke="#ffff00" stroke-width="1"></path><path d="M218.96775,202.31762l2.38632,-6.84999l2.65375,6.84999z" fill="#ffff00" stroke="#ffff00" stroke-width="1"></path><path d="M214.78435,208.21682c0,-3.72115 3.01658,-6.73773 6.73773,-6.73773c3.72115,0 6.73772,3.01658 6.73772,6.73773c0,3.72115 -3.01658,6.73772 -6.73772,6.73772c-3.72115,0 -6.73773,-3.01658 -6.73773,-6.73772z" fill="#ffff00" stroke="none" stroke-width="0"></path><path d="M227.21236,205.68172l6.87114,2.59848l-6.83054,2.44142z" data-paper-data="{&quot;index&quot;:null}" fill="#ffff00" stroke="#ffff00" stroke-width="1"></path><path d="M215.87692,210.74146l-6.86899,-2.33105l6.82838,-2.70885z" fill="#ffff00" stroke="#ffff00" stroke-width="1"></path><path d="M227.52794,210.32821l3.04475,6.68537l-6.56714,-3.08051z" data-paper-data="{&quot;index&quot;:null}" fill="#ffff00" stroke="#ffff00" stroke-width="1"></path><path d="M215.91926,205.9314l-3.23165,-6.49409l6.75404,2.88922z" fill="#ffff00" stroke="#ffff00" stroke-width="1"></path><path d="M224.08737,202.38559l6.66063,-3.0985l-3.02751,6.59174z" data-paper-data="{&quot;index&quot;:null}" fill="#ffff00" stroke="#ffff00" stroke-width="1"></path><path d="M219.78422,214.02932l-6.46785,3.28387l2.83472,-6.7771z" fill="#ffff00" stroke="#ffff00" stroke-width="1"></path><path d="M216.80059,208.41738c0,-2.70702 2.19448,-4.90151 4.9015,-4.90151c2.70702,0 4.90151,2.19448 4.90151,4.90151c0,2.70702 -2.19448,4.9015 -4.90151,4.9015c-2.70702,0 -4.9015,-2.19448 -4.9015,-4.9015z" fill="#fffff7" stroke="none" stroke-width="0"></path></g><path d="M272.35202,137.40138v33.64619l-33.86,-33.64619z" fill="#00e2ff" stroke="none" stroke-width="0" stroke-linecap="butt"></path></g></g></svg>