<svg version="1.1" xmlns="http://www.w3.org/2000/svg" xmlns:xlink="http://www.w3.org/1999/xlink" width="235.55989" height="240.46738" viewBox="0,0,235.55989,240.46738"><g transform="translate(-211.55197,-69.77301)"><g stroke="none" stroke-miterlimit="10"><text transform="translate(338.57514,147.0224) rotate(90) scale(0.73662,-0.73662)" font-size="40" xml:space="preserve" fill="#830087" stroke-width="1" font-family="Sans Serif" font-weight="normal" text-anchor="start"><tspan x="0" dy="0">boom</tspan></text><path d="M311.01059,128.17224c0,26.83233 -21.7519,48.58423 -48.58423,48.58423c-26.83233,0 -48.58423,-21.7519 -48.58423,-48.58423c0,-26.83233 21.7519,-48.58423 48.58423,-48.58423c26.83233,0 48.58423,21.7519 48.58423,48.58423z" fill="#830087" stroke-width="0"/><path d="M347.32607,114.7584c0,24.84474 -20.14064,44.98539 -44.98539,44.98539c-24.84474,0 -44.98539,-20.14064 -44.98539,-44.98539c0,-24.84474 20.14064,-44.98539 44.98539,-44.98539c24.84474,0 44.98539,20.14064 44.98539,44.98539z" fill="#830087" stroke-width="0"/><path d="M380.04272,129.4809c0,24.66406 -19.99417,44.65823 -44.65823,44.65823c-24.66406,0 -44.65823,-19.99417 -44.65823,-44.65823c0,-24.66406 19.99417,-44.65823 44.65823,-44.65823c24.66406,0 44.65823,19.99417 44.65823,44.65823z" fill="#830087" stroke-width="0"/><path d="M403.27155,126.5364c0,24.12199 -19.55474,43.67673 -43.67673,43.67673c-24.12199,0 -43.67673,-19.55474 -43.67673,-43.67673c0,-24.12199 19.55474,-43.67673 43.67673,-43.67673c24.12199,0 43.67673,19.55474 43.67673,43.67673z" fill="#830087" stroke-width="0"/><path d="M420.28421,146.49356c0,31.53025 -25.56032,57.09056 -57.09056,57.09056c-31.53025,0 -57.09056,-25.56032 -57.09056,-57.09056c0,-31.53025 25.56032,-57.09056 57.09056,-57.09056c31.53025,0 57.09056,25.56032 57.09056,57.09056z" fill="#830087" stroke-width="0"/><path d="M429.1177,118.35724c0,21.59235 -17.50406,39.0964 -39.0964,39.0964c-21.59235,0 -39.0964,-17.50406 -39.0964,-39.0964c0,-21.59235 17.50406,-39.0964 39.0964,-39.0964c21.59235,0 39.0964,17.50406 39.0964,39.0964z" fill="#830087" stroke-width="0"/><path d="M316.57242,203.91128c0,27.46474 -22.26457,49.72931 -49.72931,49.72931c-27.46474,0 -49.72931,-22.26457 -49.72931,-49.72931c0,-27.46474 22.26457,-49.72931 49.72931,-49.72931c27.46474,0 49.72931,22.26457 49.72931,49.72931z" fill="#830087" stroke-width="0"/><path d="M372.19072,227.1401c0,29.27163 -23.72934,53.00097 -53.00097,53.00097c-29.27163,0 -53.00097,-23.72934 -53.00097,-53.00097c0,-29.27163 23.72934,-53.00097 53.00097,-53.00097c29.27163,0 53.00097,23.72934 53.00097,53.00097z" fill="#830087" stroke-width="0"/><path d="M323.44291,254.29492c0,30.89783 -25.04764,55.94547 -55.94547,55.94547c-30.89783,0 -55.94547,-25.04764 -55.94547,-55.94547c0,-30.89783 25.04764,-55.94547 55.94547,-55.94547c30.89783,0 55.94547,25.04764 55.94547,55.94547z" fill="#830087" stroke-width="0"/><path d="M259.31829,165.6328c0,11.5641 -9.37456,20.93866 -20.93866,20.93866c-11.5641,0 -20.93866,-9.37456 -20.93866,-20.93866c0,-11.5641 9.37456,-20.93866 20.93866,-20.93866c11.5641,0 20.93866,9.37456 20.93866,20.93866z" fill="#830087" stroke-width="0"/><path d="M447.11186,237.77302c0,32.43369 -26.2927,58.72639 -58.72639,58.72639c-32.43369,0 -58.72639,-26.2927 -58.72639,-58.72639c0,-32.43369 26.2927,-58.72639 58.72639,-58.72639c32.43369,0 58.72639,26.2927 58.72639,58.72639z" fill="#830087" stroke-width="0"/><path d="M435.2287,202.11186c0,20.32752 -16.47871,36.80623 -36.80623,36.80623c-20.32752,0 -36.80623,-16.47871 -36.80623,-36.80623c0,-20.32752 16.47871,-36.80623 36.80623,-36.80623c20.32752,0 36.80623,16.47871 36.80623,36.80623z" fill="#830087" stroke-width="0"/><path d="M338.38742,274.74283c0,11.29307 -9.15484,20.44791 -20.44791,20.44791c-11.29307,0 -20.44791,-9.15484 -20.44791,-20.44791c0,-11.29307 9.15484,-20.44791 20.44791,-20.44791c11.29307,0 20.44791,9.15484 20.44791,20.44791z" fill="#830087" stroke-width="0"/><path d="M329.10991,201.29395h-48.42064v-63.4703h48.42064z" fill="#830087" stroke-width="0"/><text transform="translate(239.88283,202.09551) scale(0.93068,0.93068)" font-size="40" xml:space="preserve" fill="#ffc300" stroke-width="1" font-family="Sans Serif" font-weight="normal" text-anchor="start"><tspan x="0" dy="0">SPROING!</tspan></text></g></g></svg>