<svg version="1.1" xmlns="http://www.w3.org/2000/svg" xmlns:xlink="http://www.w3.org/1999/xlink" width="93.28786" height="64.89031" viewBox="0,0,93.28786,64.89031"><g transform="translate(-265.89614,-153.8102)"><g stroke-miterlimit="10"><g stroke-width="1.28786"><path d="M315.32852,200.10007v-22.76405h6.08349v22.76405z" fill="#00ff28" stroke="#000000" stroke-linecap="butt"/><path d="M326.55161,195.02061c4.80641,-0.76545 9.66753,5.18356 9.66753,5.18356c0,0 -5.60615,0.11864 -10.41256,0.88409c-4.80641,0.76545 -7.04412,1.05511 -7.36917,-0.98597c-0.32506,-2.04108 3.30779,-4.31622 8.11421,-5.08168z" fill="#00ff28" stroke="#000000" stroke-linecap="butt"/><path d="M320.30334,200.6256c-0.32506,2.04108 -2.56276,1.75142 -7.36917,0.98597c-4.80641,-0.76545 -10.41257,-0.88409 -10.41257,-0.88409c0,0 4.86112,-5.94902 9.66753,-5.18356c4.80641,0.76545 8.43926,3.0406 8.11421,5.08168z" fill="#00ff28" stroke="#000000" stroke-linecap="butt"/><path d="M337.34258,177.72635c4.74464,1.08441 7.03313,8.41816 7.03313,8.41816c0,0 -5.24505,-1.98304 -9.98968,-3.06745c-4.74464,-1.08441 -6.92867,-1.65116 -6.46817,-3.666c0.4605,-2.01484 4.68009,-2.76912 9.42473,-1.68471z" fill="#00ff28" stroke="#000000" stroke-linecap="butt"/><path d="M320.09956,165.53342c3.50741,-3.37425 10.89587,-1.26903 10.89587,-1.26903c0,0 -4.53333,3.30031 -8.04073,6.67456c-3.50741,3.37425 -5.17846,4.89043 -6.61136,3.40098c-1.4329,-1.48945 0.24882,-5.43226 3.75623,-8.80651z" fill="#00ff28" stroke="#000000" stroke-linecap="butt"/><path d="M313.39955,178.73092c-0.39282,2.02912 -2.61964,1.66516 -7.3979,0.74013c-4.77827,-0.92502 -10.37736,-1.2302 -10.37736,-1.2302c0,0 5.05644,-5.78391 9.83471,-4.85889c4.77827,0.92502 8.33337,3.31983 7.94056,5.34896z" fill="#00ff28" stroke="#000000" stroke-linecap="butt"/><path d="M331.77861,188.59482l-2.89466,3.63198l-15.94152,-15.16002l2.76384,-2.7816z" fill="#9966ff" stroke="#000000" stroke-linecap="butt"/><path d="M316.8837,183.39592l-2.76384,-2.7816l15.94153,-15.16002l2.89466,3.63198z" fill="#00ff28" stroke="#000000" stroke-linecap="butt"/><path d="M301.5604,166.3389l2.89466,-3.63198l15.94153,15.16002l-2.76384,2.7816z" fill="#00ff28" stroke="#000000" stroke-linecap="butt"/><path d="M316.51024,167.06998c0,4.82839 -4.2173,8.74257 -9.4196,8.74257c-5.2023,0 -9.4196,-3.91418 -9.4196,-8.74257c0,-2.43808 0.33708,-8.87798 0.33708,-8.87798c0,0 1.2697,0.80524 3.43473,0.84172c1.82351,0.03073 4.47034,-0.70631 5.64779,-0.70631c0.84566,0 2.38616,0.58995 3.67021,0.51323c2.55438,-0.15262 4.96442,-1.02834 4.96442,-1.02834c0,0 0.78498,6.77555 0.78498,9.25768z" fill="#ce984d" stroke="#000000" stroke-linecap="butt"/><path d="M312.59902,169.36877l-2.52311,3.36414l-3.5744,-3.6585l-1.47181,3.32209l-3.95287,-2.52311" fill="none" stroke="#000000" stroke-linecap="round"/><path d="M302.12813,163.31331l0.50462,5.04622" fill="none" stroke="#000000" stroke-linecap="round"/><path d="M308.73026,168.37355l-0.46257,-5.85922" fill="none" stroke="#000000" stroke-linecap="round"/><path d="M320.81671,164.9635c0,0 2.5551,0.21588 5.06069,-0.30394c1.25952,-0.26131 2.59246,-1.23313 3.40877,-1.45399c1.13658,-0.30752 3.88405,-0.28736 5.63624,-0.79328c2.08035,-0.60068 3.09567,-1.70958 3.09567,-1.70958c0,0 2.00734,6.12834 2.64411,8.4818c1.26106,4.6608 -1.78756,9.54058 -6.8093,10.89931c-5.02174,1.35872 -10.11495,-1.31814 -11.37601,-5.97894c-0.64827,-2.39598 -1.66016,-9.14137 -1.66016,-9.14137z" fill="#000000" stroke="#000000" stroke-linecap="butt"/><path d="M338.10678,172.78013l-3.15669,3.46793l-2.28838,-2.82238l-2.49482,4.46507l-3.31416,-2.5884" fill="none" stroke="#fff9f9" stroke-linecap="round"/><path d="M324.02857,180.018c0,3.25144 -2.63581,5.88725 -5.88725,5.88725c-3.25144,0 -5.88725,-2.63582 -5.88725,-5.88725c0,-3.25144 2.63581,-5.88725 5.88725,-5.88725c3.25144,0 5.88725,2.63582 5.88725,5.88725z" fill="#00ff28" stroke="#000000" stroke-linecap="butt"/><path d="M335.37864,166.72231l0.83085,5.00286" fill="none" stroke="#fff9f9" stroke-linecap="round"/><path d="M330.32503,174.44998l-1.08152,-6.89541" fill="none" stroke="#fff9f9" stroke-linecap="round"/><path d="M315.58906,185.8178c0.88066,4.74739 -2.55198,9.36512 -7.66702,10.31398c-5.11504,0.94886 -9.97551,-2.13046 -10.85617,-6.87786c-0.44469,-2.39718 -1.28785,-8.79054 -1.28785,-8.79054c0,0 1.39527,0.56015 3.53064,0.20113c1.79852,-0.30238 4.26653,-1.50982 5.42423,-1.72458c0.83147,-0.15425 2.45374,0.14484 3.70225,-0.1648c2.4837,-0.61597 4.69358,-1.91657 4.69358,-1.91657c0,0 2.00762,6.51872 2.46034,8.95922z" fill="#000000" stroke="#000000" stroke-linecap="butt"/><path d="M312.22815,188.46433l-1.86719,3.76791l-4.18173,-2.94519l-0.8412,3.53482l-4.34676,-1.75981" fill="none" stroke="#fff9f9" stroke-linecap="round"/><path d="M302.24497,189.28979l-1.41654,-4.86954" fill="none" stroke="#fff9f9" stroke-linecap="round"/><path d="M306.71927,182.51487l2.00977,5.80101" fill="none" stroke="#fff9f9" stroke-linecap="round"/><path d="M326.75017,176.81329c0,0 1.43333,2.1262 3.40886,3.75268c0.99307,0.81761 2.58578,1.24708 3.26954,1.74469c0.95202,0.69284 2.65842,2.84626 4.1509,3.89442c1.772,1.24447 3.27244,1.34053 3.27244,1.34053c0,0 -3.51689,5.40532 -4.95153,7.37662c-2.84116,3.90398 -8.55428,4.5872 -12.76059,1.52601c-4.20631,-3.06119 -5.31298,-8.70758 -2.47182,-12.61157c1.46056,-2.00692 6.08219,-7.02338 6.08219,-7.02338z" fill="#642e25" stroke="#000000" stroke-linecap="butt"/><path d="M331.49702,195.18484l-4.68075,-0.28593l0.76479,-3.55213l-5.04286,0.85479l-0.06049,-4.20474" fill="none" stroke="#000000" stroke-linecap="round"/><path d="M331.1298,193.04526l3.37736,-3.78318" fill="none" stroke="#000000" stroke-linecap="round"/><path d="M330.01316,185.00337l-4.69487,5.16475" fill="none" stroke="#000000" stroke-linecap="round"/></g><path d="M292.81279,193.5032l-8.72727,5.18182" fill="none" stroke="#000000" stroke-width="1.28786" stroke-linecap="round"/><path d="M344.44916,167.32138l14.09091,-6.27273" fill="none" stroke="#000000" stroke-width="1.28786" stroke-linecap="round"/><path d="M284.24583,159.28072c-3.65949,-2.89682 -5.6021,2.23608 -8.50848,0.99049c-3.39992,-1.45711 1.45932,-13.74211 16.3347,-0.06041c1.06401,0.97863 3.42287,1.45425 3.23568,2.8877c0.12046,0.29293 0.18689,0.61379 0.18689,0.95016c0,1.38071 -1.11929,2.5 -2.5,2.5c-0.69241,0 -1.31908,-0.28149 -1.7718,-0.73628c-2.32107,-0.69879 -4.08854,-4.24519 -6.97698,-6.53165z" fill="#000000" stroke="none" stroke-width="0.5" stroke-linecap="butt"/><path d="M279.17643,161.36684c0,3.2384 -2.82875,5.86364 -6.31818,5.86364c-3.48944,0 -6.31818,-2.62524 -6.31818,-5.86364c0,-3.2384 2.82875,-5.86364 6.31818,-5.86364c3.48944,0 6.31818,2.62524 6.31818,5.86364z" fill="#ce984d" stroke="#000000" stroke-width="1.28786" stroke-linecap="butt"/><path d="M341.67716,217.80091c-2.17147,-0.73048 -5.36572,-0.75226 -6.24652,-2.86723c-3.92661,-9.42856 15.04747,6.53791 14.6455,-8.10685c-1.06346,-0.61849 -1.53354,-1.94272 -1.05181,-3.11205c0.1242,-0.30149 0.30057,-0.56571 0.51435,-0.78654c1.06857,-1.39528 2.13697,-1.35193 3.00651,-0.44948c0.8622,0.47509 1.35114,1.40691 1.28545,2.35993c1.88964,5.69719 0.28245,17.14567 -12.15348,12.96223z" fill="#9966ff" stroke="none" stroke-width="0.5" stroke-linecap="butt"/></g></g></svg>