<svg version="1.1" xmlns="http://www.w3.org/2000/svg" xmlns:xlink="http://www.w3.org/1999/xlink" width="90.07347" height="65.34472" viewBox="0,0,90.07347,65.34472"><defs><linearGradient x1="240.41705" y1="188.2812" x2="240.41705" y2="195.44089" gradientUnits="userSpaceOnUse" id="color-1"><stop offset="0" stop-color="#40f7b4"></stop><stop offset="1" stop-color="#33d6ff"></stop></linearGradient><linearGradient x1="242.21753" y1="186.09484" x2="250.84676" y2="186.09484" gradientUnits="userSpaceOnUse" id="color-2"><stop offset="0" stop-color="#40f7b4"></stop><stop offset="1" stop-color="#33d6ff"></stop></linearGradient><radialGradient cx="252.94856" cy="184.9072" r="5.47427" gradientUnits="userSpaceOnUse" id="color-3"><stop offset="0" stop-color="#fcfcfc"></stop><stop offset="1" stop-color="#63e0fc"></stop></radialGradient><linearGradient x1="241.76845" y1="188.48808" x2="252.18701" y2="188.48808" gradientUnits="userSpaceOnUse" id="color-4"><stop offset="0" stop-color="#40f7b4"></stop><stop offset="1" stop-color="#33d6ff"></stop></linearGradient></defs><g transform="translate(-194.96326,-147.49921)"><g data-paper-data="{&quot;isPaintingLayer&quot;:true}" fill-rule="nonzero" stroke-linejoin="miter" stroke-miterlimit="10" stroke-dasharray="" stroke-dashoffset="0" style="mix-blend-mode: normal"><path d="M195.46327,211.86585v-63.7317h89.07347v63.7317z" fill="#00fed9" stroke="#000000" stroke-width="1" stroke-linecap="butt"></path><text transform="translate(224.35156,154.60625) scale(0.16338,0.16338)" font-size="40" xml:space="preserve" data-paper-data="{&quot;index&quot;:null}" fill="#000000" fill-rule="nonzero" stroke="none" stroke-width="1" stroke-linecap="butt" stroke-linejoin="miter" stroke-miterlimit="10" stroke-dasharray="" stroke-dashoffset="0" font-family="Sans Serif" font-weight="normal" text-anchor="start" style="mix-blend-mode: normal"><tspan x="0" dy="0">Unlocked:</tspan></text><g><path d="M259.77131,156.10203v54.56665h-40.46493v-54.56665z" data-paper-data="{&quot;index&quot;:null}" fill="#515151" stroke="none" stroke-width="0" stroke-linecap="butt"></path><g stroke="#000000" stroke-width="1.28786"><path d="M238.95017,194.88923c0,0 0.6918,-2.24137 0.82411,-3.31579c0.11813,-0.95932 -0.06794,-2.82461 -0.06794,-2.82461l1.76806,-0.46761c0,0 0.44061,2.55953 0.40777,3.72554c-0.03432,1.21825 -0.60946,3.43413 -0.60946,3.43413z" fill="url(#color-1)" stroke-linecap="round"></path><path d="M242.21753,187.96602l8.5143,-6.76675c0,0 0.30704,2.65241 -0.0826,4.27495c-0.38965,1.62253 -0.51888,2.65291 -1.79117,3.52779c-1.27229,0.87488 -6.2307,1.98843 -6.2307,1.98843z" fill="url(#color-2)" stroke-linecap="round"></path><path d="M245.49546,181.7302c0,4.41973 -3.5246,8.00262 -7.8724,8.00262c-4.34779,0 -7.87238,-3.58289 -7.87238,-8.00262c0,-4.41973 3.52459,-8.00262 7.87238,-8.00262c4.34779,0 7.8724,3.58289 7.8724,8.00262z" fill="#40f7b4" stroke-linecap="butt"></path><g fill="#000000"><path d="M238.99911,183.79384c0.44216,1.53663 0.16256,2.96591 -0.62449,3.19238c-0.78705,0.22647 -1.78354,-0.83563 -2.22569,-2.37226c-0.44216,-1.53663 -0.16257,-2.96591 0.62449,-3.19238c0.78705,-0.22647 1.78354,0.83563 2.22569,2.37226z" stroke-linecap="butt"></path><path d="M236.33772,184.69039l-2.82773,-1.07511l1.30096,-0.5842l-1.48426,-1.1469l2.81172,-0.07454z" stroke-linecap="round"></path></g><g data-paper-data="{&quot;index&quot;:null}" fill="#000000"><path d="M241.51551,178.31431c0.7041,-0.4183 1.93696,0.357 2.75364,1.73168c0.81669,1.37468 0.90797,2.82819 0.20386,3.24649c-0.7041,0.4183 -1.93696,-0.35699 -2.75365,-1.73167c-0.81669,-1.37468 -0.90796,-2.8282 -0.20386,-3.2465z" stroke-linecap="butt"></path><path d="M242.23322,178.11747l1.98024,-1.99751l-0.18107,1.86699l1.31674,-0.54768l-1.15359,2.79664z" stroke-linecap="round"></path></g><path d="M238.54684,188.19428c0,0 -2.35998,0.00426 -3.7733,-0.84169c-0.65109,-0.38971 -0.40131,-1.17497 -0.40131,-1.17497" fill="none" stroke-linecap="round"></path><path d="M246.68288,185.83318c0,-3.02336 2.45091,-5.47427 5.47427,-5.47427c3.02336,0 5.47427,2.45091 5.47427,5.47427c0,3.02336 -2.45091,5.47427 -5.47427,5.47427c-3.02336,0 -5.47427,-2.45091 -5.47427,-5.47427z" fill="url(#color-3)" stroke-linecap="butt"></path><path d="M242.17854,189.07372l10.00847,-4.25593c0,0 -0.41015,2.63843 -1.21768,4.09869c-0.80752,1.46026 -1.2064,2.41904 -2.66568,2.92365c-1.45927,0.50461 -6.53521,0.25797 -6.53521,0.25797z" fill="url(#color-4)" stroke-linecap="round"></path><path d="M239.39426,192.33071c3.26189,0.3586 10.03251,5.52188 10.03251,5.52188c0,0 -0.256,2.02551 -2.81054,2.3333c-4.05769,0.48891 -11.32701,-0.67424 -12.97732,-0.85567c-0.65405,-0.0719 -1.51598,-0.42138 -1.79631,-0.80586c-0.4726,-0.64819 -0.09053,-1.43389 -0.09053,-1.43389c0,0 4.38031,-5.11836 7.6422,-4.75976z" fill="#d7ffff" stroke-linecap="round"></path><path d="M229.27312,188.19005l-1.88515,-7.91762l-4.65004,5.15274l2.20377,-10.95054l-3.99799,-2.61408l5.38191,-2.76783l5.28878,0.9311l4.70619,-0.77733l5.38191,5.07437l-3.69045,-1.07638l1.23015,7.07337l-5.38191,-3.07538l-3.84422,9.22613z" fill="#b7effc" stroke-linecap="round"></path><path d="M222.78895,178.31884c0,-1.35879 1.10151,-2.4603 2.4603,-2.4603c1.35879,0 2.4603,1.10151 2.4603,2.4603c0,1.35879 -1.10151,2.4603 -2.4603,2.4603c-1.35879,0 -2.4603,-1.10152 -2.4603,-2.4603z" fill="#fff6bf" stroke-linecap="butt"></path><path d="M228.17086,171.6299c0,-1.5711 1.27362,-2.84473 2.84472,-2.84473c1.5711,0 2.84472,1.27363 2.84472,2.84473c0,1.5711 -1.27362,2.84472 -2.84472,2.84472c-1.5711,0 -2.84472,-1.27362 -2.84472,-2.84472z" fill="#fff6bf" stroke-linecap="butt"></path><path d="M226.01809,175.62789c0,-1.74094 1.41131,-3.15226 3.15226,-3.15226c1.74094,0 3.15226,1.41132 3.15226,3.15226c0,1.74094 -1.41131,3.15226 -3.15226,3.15226c-1.74094,0 -3.15226,-1.41131 -3.15226,-3.15226z" fill="#fff6bf" stroke-linecap="butt"></path></g><path d="M219.30641,210.65583v-8.2441h40.46492v8.2441z" fill="#969696" stroke="none" stroke-width="0" stroke-linecap="butt"></path><path d="M219.27421,210.63654v-54.56665h5.56218v54.56665z" fill="#969696" stroke="none" stroke-width="0" stroke-linecap="butt"></path><path d="M255.21008,210.67148v-54.56665h5.2405v54.56665z" fill="#969696" stroke="none" stroke-width="0" stroke-linecap="butt"></path><path d="M219.30641,162.73773v-6.63568h40.46492v6.63568z" fill="#969696" stroke="none" stroke-width="0" stroke-linecap="butt"></path><path d="M224.28931,203.63887v-13.51195l13.59782,13.51195z" fill="#969696" stroke="none" stroke-width="0" stroke-linecap="butt"></path><path d="M228.86654,206.04737v-7.82235h28.34544v7.82235z" fill="#969696" stroke="none" stroke-width="0" stroke-linecap="butt"></path><text transform="translate(238.81212,208.82287) scale(0.30313,0.32169)" font-size="40" xml:space="preserve" fill="#000000" fill-rule="nonzero" stroke="none" stroke-width="1" stroke-linecap="butt" stroke-linejoin="miter" stroke-miterlimit="10" stroke-dasharray="" stroke-dashoffset="0" font-family="Sans Serif" font-weight="normal" text-anchor="start" style="mix-blend-mode: normal"><tspan x="0" dy="0">300</tspan></text><g stroke-linecap="butt"><path d="M229.20378,205.06267l-1.70734,4.40707l-1.53527,-4.40707z" data-paper-data="{&quot;index&quot;:null}" fill="#ffff00" stroke="#ffff00" stroke-width="1"></path><path d="M226.00736,197.74381l1.53528,-4.40707l1.70734,4.40707z" fill="#ffff00" stroke="#ffff00" stroke-width="1"></path><path d="M223.3159,201.53917c0,-2.39407 1.94077,-4.33484 4.33484,-4.33484c2.39407,0 4.33484,1.94077 4.33484,4.33484c0,2.39407 -1.94078,4.33484 -4.33484,4.33484c-2.39407,0 -4.33484,-1.94078 -4.33484,-4.33484z" fill="#ffff00" stroke="none" stroke-width="0"></path><path d="M231.31169,199.90817l4.42068,1.67178l-4.39456,1.57073z" data-paper-data="{&quot;index&quot;:null}" fill="#ffff00" stroke="#ffff00" stroke-width="1"></path><path d="M224.01882,203.16345l-4.41929,-1.49972l4.39317,-1.74279z" fill="#ffff00" stroke="#ffff00" stroke-width="1"></path><path d="M231.51472,202.89758l1.9589,4.30115l-4.22509,-1.9819z" data-paper-data="{&quot;index&quot;:null}" fill="#ffff00" stroke="#ffff00" stroke-width="1"></path><path d="M224.04606,200.0688l-2.07914,-4.17809l4.34533,1.85883z" fill="#ffff00" stroke="#ffff00" stroke-width="1"></path><path d="M229.30117,197.78754l4.28524,-1.99348l-1.9478,4.24092z" data-paper-data="{&quot;index&quot;:null}" fill="#ffff00" stroke="#ffff00" stroke-width="1"></path><path d="M226.53266,205.27875l-4.16122,2.11274l1.82378,-4.36018z" fill="#ffff00" stroke="#ffff00" stroke-width="1"></path><path d="M224.61309,201.66821c0,-1.74161 1.41186,-3.15348 3.15347,-3.15348c1.74161,0 3.15347,1.41186 3.15347,3.15348c0,1.74161 -1.41186,3.15347 -3.15347,3.15347c-1.74161,0 -3.15347,-1.41186 -3.15347,-3.15347z" fill="#fffff7" stroke="none" stroke-width="0"></path></g><path d="M260.35313,155.97873v21.64691l-21.78446,-21.64691z" fill="#3aff00" stroke="none" stroke-width="0" stroke-linecap="butt"></path></g></g></g></svg>