<svg version="1.1" xmlns="http://www.w3.org/2000/svg" xmlns:xlink="http://www.w3.org/1999/xlink" width="64.94367" height="88.38662" viewBox="0,0,64.94367,88.38662"><defs><linearGradient x1="321.36499" y1="187.60971" x2="321.36499" y2="198.73815" gradientUnits="userSpaceOnUse" id="color-1"><stop offset="0" stop-color="#40f7b4"/><stop offset="1" stop-color="#33d6ff"/></linearGradient><linearGradient x1="324.16352" y1="184.21141" x2="337.57609" y2="184.21141" gradientUnits="userSpaceOnUse" id="color-2"><stop offset="0" stop-color="#40f7b4"/><stop offset="1" stop-color="#33d6ff"/></linearGradient><radialGradient cx="340.84296" cy="182.36544" r="8.50877" gradientUnits="userSpaceOnUse" id="color-3"><stop offset="0" stop-color="#fcfcfc"/><stop offset="1" stop-color="#63e0fc"/></radialGradient><linearGradient x1="323.46549" y1="187.93126" x2="339.65927" y2="187.93126" gradientUnits="userSpaceOnUse" id="color-4"><stop offset="0" stop-color="#40f7b4"/><stop offset="1" stop-color="#33d6ff"/></linearGradient></defs><g transform="translate(-287.5598,-137.40138)"><g stroke-miterlimit="10"><path d="M351.44769,137.59302v84.81396h-62.89539v-84.81396z" fill="#515151" stroke="none" stroke-width="0" stroke-linecap="butt"/><g stroke="#000000" stroke-width="1.28786"><path d="M319.08499,197.88069c0,0 1.07528,-3.48381 1.28093,-5.1538c0.18362,-1.49108 -0.10559,-4.39035 -0.10559,-4.39035l2.74812,-0.72682c0,0 0.68486,3.97833 0.63381,5.79068c-0.05334,1.89356 -0.9473,5.33774 -0.9473,5.33774z" fill="url(#color-1)" stroke-linecap="round"/><path d="M324.16352,187.11982l13.23394,-10.51769c0,0 0.47724,4.12269 -0.12838,6.64463c-0.60563,2.52193 -0.80651,4.12347 -2.78405,5.48331c-1.97753,1.35984 -9.6845,3.09065 -9.6845,3.09065z" fill="url(#color-2)" stroke-linecap="round"/><path d="M329.25846,177.42736c0,6.86966 -5.47834,12.43862 -12.2362,12.43862c-6.75786,0 -12.23619,-5.56896 -12.23619,-12.43862c0,-6.86966 5.47833,-12.43863 12.23619,-12.43863c6.75786,0 12.2362,5.56896 12.2362,12.43863z" fill="#40f7b4" stroke-linecap="butt"/><g fill="#000000"><path d="M319.16106,180.63492c0.68725,2.38841 0.25267,4.60997 -0.97067,4.96197c-1.22333,0.35201 -2.77218,-1.29883 -3.45943,-3.68724c-0.68725,-2.38841 -0.25268,-4.60997 0.97066,-4.96197c1.22333,-0.35201 2.77218,1.29883 3.45943,3.68724z" stroke-linecap="butt"/><path d="M315.02441,182.02844l-4.3952,-1.67107l2.0221,-0.90803l-2.30702,-1.78264l4.37032,-0.11585z" stroke-linecap="round"/></g><g fill="#000000"><path d="M323.07235,172.11799c1.0944,-0.65018 3.01065,0.55489 4.28004,2.69157c1.2694,2.13669 1.41127,4.39591 0.31686,5.04609c-1.0944,0.65018 -3.01065,-0.55488 -4.28005,-2.69157c-1.2694,-2.13669 -1.41126,-4.39592 -0.31686,-5.0461z" stroke-linecap="butt"/><path d="M324.18789,171.81203l3.07792,-3.10476l-0.28143,2.90189l2.04664,-0.85128l-1.79304,4.34687z" stroke-linecap="round"/></g><path d="M318.45809,187.47461c0,0 -3.66816,0.00662 -5.86491,-1.30825c-1.01199,-0.60574 -0.62377,-1.82628 -0.62377,-1.82628" fill="none" stroke-linecap="round"/><path d="M331.10409,183.8047c0,-4.69926 3.80951,-8.50877 8.50877,-8.50877c4.69926,0 8.50877,3.80951 8.50877,8.50877c0,4.69926 -3.80951,8.50876 -8.50877,8.50876c-4.69926,0 -8.50877,-3.8095 -8.50877,-8.50876z" fill="url(#color-3)" stroke-linecap="butt"/><path d="M324.10292,188.84154l15.55635,-6.61508c0,0 -0.6375,4.10097 -1.89265,6.37067c-1.25514,2.26971 -1.87513,3.75996 -4.14332,4.54428c-2.26818,0.78432 -10.1578,0.40097 -10.1578,0.40097z" fill="url(#color-4)" stroke-linecap="round"/><path d="M319.77525,193.90393c5.07002,0.55738 15.59371,8.58277 15.59371,8.58277c0,0 -0.39791,3.14828 -4.36847,3.62669c-6.30694,0.75991 -17.60579,-1.04798 -20.17089,-1.32998c-1.0166,-0.11176 -2.35632,-0.65496 -2.79205,-1.25257c-0.73457,-1.00749 -0.14071,-2.22872 -0.14071,-2.22872c0,0 6.80841,-7.95557 11.87842,-7.39819z" fill="#d7ffff" stroke-linecap="round"/><path d="M304.04378,187.46802l-2.93012,-12.30651l-7.22764,8.009l3.42536,-17.02063l-6.21415,-4.0631l8.3652,-4.3021l8.22045,1.44722l7.31492,-1.20821l8.3652,7.88719l-5.73614,-1.67304l1.91205,10.99426l-8.3652,-4.78011l-5.97514,14.34034z" fill="#b7effc" stroke-linecap="round"/><path d="M293.96531,172.12503c0,-2.11199 1.7121,-3.82409 3.82409,-3.82409c2.11199,0 3.82409,1.7121 3.82409,3.82409c0,2.11199 -1.71211,3.82409 -3.82409,3.82409c-2.11199,0 -3.82409,-1.71211 -3.82409,-3.82409z" fill="#fff6bf" stroke-linecap="butt"/><path d="M302.33051,161.72828c0,-2.44199 1.97961,-4.42161 4.4216,-4.42161c2.44199,0 4.42161,1.97962 4.42161,4.42161c0,2.44199 -1.97962,4.4216 -4.42161,4.4216c-2.44199,0 -4.4216,-1.97961 -4.4216,-4.4216z" fill="#fff6bf" stroke-linecap="butt"/><path d="M298.98442,167.94242c0,-2.70598 2.19363,-4.89961 4.89962,-4.89961c2.70598,0 4.89962,2.19363 4.89962,4.89961c0,2.70598 -2.19363,4.89962 -4.89962,4.89962c-2.70598,0 -4.89962,-2.19363 -4.89962,-4.89962z" fill="#fff6bf" stroke-linecap="butt"/></g><path d="M288.55233,222.38702v-12.81396h62.89539v12.81396z" fill="#969696" stroke="none" stroke-width="0" stroke-linecap="butt"/><path d="M288.50229,222.35702v-84.81396h8.64539v84.81396z" fill="#969696" stroke="none" stroke-width="0" stroke-linecap="butt"/><path d="M344.35808,222.41133v-84.81396h8.14539v84.81396z" fill="#969696" stroke="none" stroke-width="0" stroke-linecap="butt"/><path d="M288.55233,147.90701v-10.31396h62.89539v10.31396z" fill="#969696" stroke="none" stroke-width="0" stroke-linecap="butt"/><path d="M296.29734,211.48042v-21.00188l21.13534,21.00188z" fill="#969696" stroke="none" stroke-width="0" stroke-linecap="butt"/><path d="M303.41181,215.22399v-12.15842h44.05785v12.15842z" fill="#969696" stroke="none" stroke-width="0" stroke-linecap="butt"/><text transform="translate(318.87042,219.538) scale(0.47116,0.5)" font-size="40" xml:space="preserve" fill="#000000" stroke="none" stroke-width="1" stroke-linecap="butt" font-family="Sans Serif" font-weight="normal" text-anchor="start"><tspan x="0" dy="0">200</tspan></text><g stroke-linecap="butt"><path d="M303.936,213.69347l-2.65375,6.84999l-2.38631,-6.84999z" fill="#ffff00" stroke="#ffff00" stroke-width="1"/><path d="M298.96775,202.31762l2.38632,-6.84999l2.65375,6.84999z" fill="#ffff00" stroke="#ffff00" stroke-width="1"/><path d="M294.78435,208.21682c0,-3.72115 3.01658,-6.73773 6.73773,-6.73773c3.72115,0 6.73772,3.01658 6.73772,6.73773c0,3.72115 -3.01658,6.73772 -6.73772,6.73772c-3.72115,0 -6.73773,-3.01658 -6.73773,-6.73772z" fill="#ffff00" stroke="none" stroke-width="0"/><path d="M307.21236,205.68172l6.87114,2.59848l-6.83054,2.44142z" fill="#ffff00" stroke="#ffff00" stroke-width="1"/><path d="M295.87692,210.74146l-6.86899,-2.33105l6.82838,-2.70885z" fill="#ffff00" stroke="#ffff00" stroke-width="1"/><path d="M307.52794,210.32821l3.04475,6.68537l-6.56714,-3.08051z" fill="#ffff00" stroke="#ffff00" stroke-width="1"/><path d="M295.91926,205.9314l-3.23165,-6.49409l6.75404,2.88922z" fill="#ffff00" stroke="#ffff00" stroke-width="1"/><path d="M304.08737,202.38559l6.66063,-3.0985l-3.02751,6.59174z" fill="#ffff00" stroke="#ffff00" stroke-width="1"/><path d="M299.78422,214.02932l-6.46785,3.28387l2.83472,-6.7771z" fill="#ffff00" stroke="#ffff00" stroke-width="1"/><path d="M296.80059,208.41738c0,-2.70702 2.19448,-4.90151 4.9015,-4.90151c2.70702,0 4.90151,2.19448 4.90151,4.90151c0,2.70702 -2.19448,4.9015 -4.90151,4.9015c-2.70702,0 -4.9015,-2.19448 -4.9015,-4.9015z" fill="#fffff7" stroke="none" stroke-width="0"/></g><path d="M352.35202,137.40138v33.64619l-33.86,-33.64619z" fill="#3aff00" stroke="none" stroke-width="0" stroke-linecap="butt"/></g></g></svg>