<svg version="1.1" xmlns="http://www.w3.org/2000/svg" xmlns:xlink="http://www.w3.org/1999/xlink" width="96.1724" height="97.4034" viewBox="0,0,96.1724,97.4034"><defs><linearGradient x1="360.2717" y1="166.50268" x2="360.2717" y2="197.91746" gradientUnits="userSpaceOnUse" id="color-1"><stop offset="0" stop-color="#1dffce"/><stop offset="1" stop-color="#30beff"/></linearGradient></defs><g transform="translate(-271.9138,-131.09494)"><g stroke-miterlimit="10"><path d="M272.4138,226.60092v-64.88824v-9.24098c0,0 2.20499,0 4.81102,0c11.2941,0 90.36138,0 90.36138,0v74.12922z" fill="#afafaf" stroke="#000000" stroke-width="1" stroke-linecap="butt"/><path d="M272.4138,205.86677v-64.88824v-9.24098c0,0 2.20499,0 4.81102,0c11.2941,0 90.36138,0 90.36138,0v74.12922z" fill="#afafaf" stroke="#000000" stroke-width="1" stroke-linecap="butt"/><text transform="translate(307.49782,222.60709) scale(0.4713,0.4713)" font-size="40" xml:space="preserve" fill="#000000" stroke="none" stroke-width="1" stroke-linecap="butt" font-family="Sans Serif" font-weight="normal" text-anchor="start"><tspan x="0" dy="0">2-7</tspan></text><path d="M276.91902,199.90347v-60.82023h86.62275v60.82023z" fill="#2e2e2e" stroke="#000000" stroke-width="1" stroke-linecap="butt"/><g><path d="M335.99008,178.94938v-34.45687h6.9812v34.45687z" fill="#0b8100" stroke="#000000" stroke-width="0.5" stroke-linecap="butt"/><path d="M336.00008,178.99495v-19.95851h7.04513v19.95851z" fill="#740000" stroke="#000000" stroke-width="0.5" stroke-linecap="butt"/><path d="M336.00008,168.19548v-9.15904h3.23248z" fill="#ffffff" stroke="#000000" stroke-width="0.5" stroke-linecap="butt"/><path d="M335.95046,164.9695v-6.01489h2.12282z" fill="#ff0000" stroke="#000000" stroke-width="0.5" stroke-linecap="butt"/><path d="M338.54423,150.29481c0,0 1.85874,0.25219 -0.36174,1.50922c-0.33207,0.18799 -1.66079,-1.04856 -1.66079,-1.04856" fill="none" stroke="#000000" stroke-width="0.5" stroke-linecap="round"/><text transform="translate(328.45846,148.07021) scale(0.10889,0.10889)" font-size="40" xml:space="preserve" fill="#000000" stroke="none" stroke-width="1" stroke-linecap="butt" font-family="Sans Serif" font-weight="normal" text-anchor="start"><tspan x="0" dy="0">Zzz</tspan></text></g><g stroke="#000000" stroke-width="0.5"><path d="M321.54047,198.13627v-35.38762h7.16978v35.38762z" fill="#ff0000" stroke-linecap="butt"/><path d="M327.80827,169.55075c0,2.64655 -1.85949,4.792 -4.1533,4.792c-2.29381,0 -2.17178,-1.59267 -2.17178,-4.23922c0,-2.64655 -0.12203,-5.34478 2.17178,-5.34478c2.2938,0 4.1533,2.14544 4.1533,4.792z" fill="#0b8100" stroke-linecap="butt"/><path d="M324.65449,169.35246c0,2.1698 -0.55535,3.92876 -1.24044,3.92876c-0.68508,0 -1.24046,-1.75896 -1.24046,-3.92876c0,-2.1698 0.38306,-2.87344 1.06815,-2.87344c0.68508,0 1.41274,0.70364 1.41274,2.87344z" fill="#000000" stroke-linecap="butt"/><path d="M321.75601,167.59745l3.30971,-3.53208" fill="none" stroke-linecap="round"/><path d="M322.36627,189.97105c-0.96825,0 -0.71874,-3.70235 -0.71874,-3.70235c0,0 -0.34312,-4.43866 0.71874,-4.43866c2.03013,0 3.67586,1.82243 3.67586,4.07051c0,2.24808 -1.64574,4.0705 -3.67586,4.0705z" fill="#ffffff" stroke-linecap="butt"/><path d="M330.69283,169.9737l-0.94092,-2.03809l-1.86027,3.36177l1.60684,-4.82294l1.01371,1.51778l1.46934,-2.62579z" fill="#e6ff00" stroke-linecap="round"/><path d="M321.76125,183.99115l1.60684,4.82294l-1.86026,-3.36177z" fill="#e6ff00" stroke-linecap="round"/></g><g stroke="#000000" stroke-width="0.5"><path d="M352.58398,179.3269l-0.06134,-7.11053l5.56926,-0.06376l0.12268,7.17429z" fill="#0b8100" stroke-linecap="butt"/><path d="M355.02948,174.96972c0,1.70399 -0.43615,3.08535 -0.97416,3.08535c-0.53801,0 -0.97416,-1.38135 -0.97416,-3.08535c0,-1.70399 0.43615,-3.08535 0.97416,-3.08535c0.53801,0 0.97416,1.38135 0.97416,3.08535z" fill="#000000" stroke-linecap="butt"/><path d="M361.08856,178.7495l-3.55612,2.39047c0,0 -1.62287,8.57724 0.84628,10.63537c1.03517,0.86285 5.43317,3.0308 5.43317,3.0308l-0.07543,3.0838c0,0 -11.03633,-0.23115 -11.17871,-0.23024c-0.41652,0.00267 -0.94782,-5.48523 -0.83835,-10.10313c0.08194,-3.45677 0.77355,-6.38429 0.77355,-6.38429l-2.26542,0.01453l-2.17767,-2.11364l1.53141,-1.05044l1.97108,0.97773l1.8774,-1.33598l2.24739,0.54912l1.77754,-2.12893l-0.09244,-0.33106l-1.84816,-3.05234l-2.00545,1.1609l-1.89806,-1.46703l-1.92967,1.67648l-1.65945,-1.69067l2.62583,-2.04962l1.04959,-0.012c0,0 0.48242,-3.44655 2.25052,-3.50908c0.60645,-0.02145 1.60914,1.17331 2.36463,1.70791c0.75404,0.53357 1.26147,0.40697 1.26147,0.40697l1.08295,0.62075l2.53176,3.79897z" fill="url(#color-1)" stroke-linecap="round"/><path d="M354.24962,170.29051c0,1.15179 -0.3982,2.0855 -0.88941,2.0855c-0.49121,0 -0.88941,-0.93371 -0.88941,-2.0855c0,-1.15179 0.3982,-2.0855 0.88941,-2.0855c0.49121,0 0.88941,0.93371 0.88941,2.0855z" fill="#001515" stroke-linecap="butt"/></g><path d="M276.68347,199.97841v-60.82023h86.62275v60.82023z" fill="none" stroke="#000000" stroke-width="1" stroke-linecap="butt"/><g stroke="#000000" stroke-width="0.5"><path d="M308.80559,180.73225v-31.64688h6.41187v31.64688z" fill="#0b8100" stroke-linecap="butt"/><path d="M308.81477,180.77411v-18.33088h6.4706v18.33088z" fill="#740000" stroke-linecap="butt"/><path d="M308.81477,170.85534v-8.41212h2.96887z" fill="#ffffff" stroke-linecap="butt"/><path d="M308.7692,167.89245v-5.52438h1.94971z" fill="#ff0000" stroke-linecap="butt"/><path d="M311.59042,154.99111c0,1.94043 -0.49666,3.51346 -1.10932,3.51346c-0.61266,0 -1.10932,-1.57302 -1.10932,-3.51346c0,-0.55994 0.04136,-1.08929 0.11493,-1.55908c0.18137,-1.15821 0.55853,-1.95438 0.9944,-1.95438c0.61266,0 1.10932,1.57302 1.10932,3.51346z" fill="#000000" stroke-linecap="butt"/><path d="M308.36078,151.8193l1.30187,-9.81025l7.43739,0.98698l-1.30187,9.81024z" fill="#ababab" stroke-linecap="butt"/><path d="M315.69222,152.8408c0,0 -0.52502,2.439 -4.54464,1.94788c-2.58698,-0.31608 -2.14268,-3.0211 -2.14268,-3.0211" fill="none" stroke-linecap="round"/></g><g stroke="#000000" stroke-width="0.5" stroke-linecap="butt"><path d="M296.95163,198.10329v-30.75994l6.60009,-0.15791v30.91785z" fill="#0b8100"/><path d="M296.96107,198.14637v-18.86898h6.66054v18.86898z" fill="#740000"/><path d="M296.96107,187.93645v-8.65905h3.05602z" fill="#ffffff"/><path d="M296.91417,184.88658v-5.68654h2.00693z" fill="#ff0000"/><path d="M299.81821,171.60653c0,1.99739 -0.51123,3.61659 -1.14189,3.61659c-0.63064,0 -1.14189,-1.6192 -1.14189,-3.61659c0,-1.99739 0.51124,-3.61659 1.14189,-3.61659c0.63064,0 1.14189,1.6192 1.14189,3.61659z" fill="#000000"/><path d="M296.25879,169.98935v-3.10246h7.86316v3.10246z" fill="#ff6e00"/><path d="M296.8509,166.78427l1.89487,-6.497h2.88919l1.97383,6.497z" fill="#ff6e00"/></g><g stroke="#000000" stroke-width="0.5" stroke-linecap="butt"><path d="M281.90481,178.85251v-34.91026h7.07305v34.91026z" fill="#0b8100"/><path d="M281.91493,178.89868v-20.22114h7.13784v20.22114z" fill="#740000"/><path d="M281.91493,167.95711v-9.27956h3.27501z" fill="#ffffff"/><path d="M281.86466,164.68869v-6.09404h2.15076z" fill="#ff0000"/><path d="M284.97681,150.45698c0,2.14052 -0.54788,3.87576 -1.22372,3.87576c-0.67584,0 -1.22371,-1.73523 -1.22371,-3.87576c0,-2.14052 0.54788,-3.87576 1.22371,-3.87576c0.67584,0 1.22372,1.73523 1.22372,3.87576z" fill="#000000"/></g><path d="M333.71156,131.59494h33.838v33.838z" fill="#ff0000" stroke="#000000" stroke-width="1" stroke-linecap="butt"/></g></g></svg>