<svg version="1.1" xmlns="http://www.w3.org/2000/svg" xmlns:xlink="http://www.w3.org/1999/xlink" width="96.1724" height="97.26079" viewBox="0,0,96.1724,97.26079"><g transform="translate(-191.9138,-131.23751)"><g data-paper-data="{&quot;isPaintingLayer&quot;:true}" fill-rule="nonzero" stroke-linejoin="miter" stroke-miterlimit="10" stroke-dasharray="" stroke-dashoffset="0" style="mix-blend-mode: normal"><path d="M192.4138,226.60088v-64.88824v-9.24098c0,0 2.20499,0 4.81102,0c11.2941,0 90.36138,0 90.36138,0v74.12922z" fill="#afafaf" stroke="#000000" stroke-width="1" stroke-linecap="butt"></path><path d="M192.4138,205.86673v-64.88824v-9.24098c0,0 2.20499,0 4.81102,0c11.2941,0 90.36138,0 90.36138,0v74.12922z" fill="#afafaf" stroke="#000000" stroke-width="1" stroke-linecap="butt"></path><text transform="translate(226.18157,222.60705) scale(0.4713,0.4713)" font-size="40" xml:space="preserve" fill="#000000" fill-rule="nonzero" stroke="none" stroke-width="1" stroke-linecap="butt" stroke-linejoin="miter" stroke-miterlimit="10" stroke-dasharray="" stroke-dashoffset="0" font-family="Sans Serif" font-weight="normal" text-anchor="start" style="mix-blend-mode: normal"><tspan x="0" dy="0">1-5</tspan></text><path d="M196.91902,199.90339v-60.82023h86.62275v60.82023z" fill="#939393" stroke="#000000" stroke-width="1" stroke-linecap="butt"></path><g stroke="#000000" stroke-width="0.5"><path d="M234.03901,198.25752v-47.89834h9.70453v47.89834z" fill="#ff0000" stroke-linecap="butt"></path><path d="M242.52269,159.56605c0,3.58219 -2.51689,6.48613 -5.62164,6.48613c-3.10475,0 -2.93958,-2.15573 -2.93958,-5.73793c0,-3.5822 -0.16517,-7.23434 2.93958,-7.23434c3.10474,0 5.62164,2.90393 5.62164,6.48613z" fill="#0b8100" stroke-linecap="butt"></path><path d="M238.25392,159.29767c0,2.93689 -0.7517,5.31771 -1.67899,5.31771c-0.92728,0 -1.679,-2.38081 -1.679,-5.31771c0,-2.93689 0.51849,-3.88929 1.44578,-3.88929c0.92728,0 1.9122,0.9524 1.9122,3.88929z" fill="#000000" stroke-linecap="butt"></path><path d="M234.33074,156.92221l4.47981,-4.78079" fill="none" stroke-linecap="round"></path><path d="M240.13215,181.69605c0,3.04285 -2.22756,5.50956 -4.9754,5.50956c-1.31056,0 -0.97284,-5.01125 -0.97284,-5.01125c0,0 -0.46443,-6.00787 0.97284,-6.00787c2.74785,0 4.9754,2.46672 4.9754,5.50957z" fill="#ffffff" stroke-linecap="butt"></path><path d="M246.42703,160.13852l-1.27356,-2.75862l-2.51794,4.55027l2.17491,-6.52801l1.37209,2.05437l1.9888,-3.55409z" data-paper-data="{&quot;index&quot;:null}" fill="#e6ff00" stroke-linecap="round"></path><path d="M234.33783,179.11163l2.17491,6.52801l-2.51793,-4.55027z" data-paper-data="{&quot;index&quot;:null}" fill="#e6ff00" stroke-linecap="round"></path></g><path d="M253.7116,131.95688h33.838v33.838z" fill="#ff0000" stroke="#000000" stroke-width="1" stroke-linecap="butt"></path></g></g></svg>