<svg version="1.1" xmlns="http://www.w3.org/2000/svg" xmlns:xlink="http://www.w3.org/1999/xlink" width="96.1724" height="97.26079" viewBox="0,0,96.1724,97.26079"><g transform="translate(-271.9138,-131.23755)"><g stroke-miterlimit="10"><path d="M272.4138,226.60092v-64.88824v-9.24098c0,0 2.20499,0 4.81102,0c11.2941,0 90.36138,0 90.36138,0v74.12922z" fill="#afafaf" stroke="#000000" stroke-width="1" stroke-linecap="butt"/><path d="M272.4138,205.86677v-64.88824v-9.24098c0,0 2.20499,0 4.81102,0c11.2941,0 90.36138,0 90.36138,0v74.12922z" fill="#afafaf" stroke="#000000" stroke-width="1" stroke-linecap="butt"/><text transform="translate(307.49782,222.60709) scale(0.4713,0.4713)" font-size="40" xml:space="preserve" fill="#000000" stroke="none" stroke-width="1" stroke-linecap="butt" font-family="Sans Serif" font-weight="normal" text-anchor="start"><tspan x="0" dy="0">2-9</tspan></text><path d="M276.91902,199.90347v-60.82023h86.62275v60.82023z" fill="#939393" stroke="#000000" stroke-width="1" stroke-linecap="butt"/><path d="M276.68347,199.97841v-60.82023h86.62275v60.82023z" fill="#2e2e2e" stroke="#000000" stroke-width="1" stroke-linecap="butt"/><g stroke="#000000" stroke-width="0.5"><path d="M339.59138,169.35194c0,2.25987 -1.76865,4.09187 -3.9504,4.09187c-2.18175,0 -3.95041,-1.83199 -3.95041,-4.09187c0,-2.25987 1.76865,-4.09186 3.95041,-4.09186c2.18175,0 3.9504,1.832 3.9504,4.09186z" fill="#bbbbbb" stroke-linecap="butt"/><path d="M318.12403,179.76875l5.40676,0.4984l-1.49303,16.19678z" fill="#636363" stroke-linecap="butt"/><path d="M325.56941,179.06074c0,2.35064 -1.88031,4.25623 -4.19979,4.25623c-2.31948,0 -4.19978,-1.90557 -4.19978,-4.25623c0,-2.35064 1.8803,-4.25622 4.19978,-4.25622c2.31948,0 4.19979,1.90557 4.19979,4.25622z" fill="#bbbbbb" stroke-linecap="butt"/><path d="M310.19565,169.16745c0,2.25987 -1.76865,4.09187 -3.9504,4.09187c-2.18175,0 -3.9504,-1.83199 -3.9504,-4.09187c0,-2.25987 1.76865,-4.09186 3.9504,-4.09186c2.18175,0 3.9504,1.83199 3.9504,4.09186z" fill="#bbbbbb" stroke-linecap="butt"/><path d="M304.52273,182.4886l5.09429,-1.87874l5.62808,15.26071z" fill="#636363" stroke-linecap="butt"/><path d="M328.46611,195.53365l5.62808,-15.26072l5.09429,1.87875z" fill="#636363" stroke-linecap="butt"/><path d="M316.11211,177.03535v-26.04266c0,0 0.82649,-7.82558 7.92263,-4.44837c6.4237,3.05718 -1.26287,9.93372 -1.26287,9.93372v20.55732z" fill="#0b8100" stroke-linecap="butt"/><path d="M316.09645,177.09498v-15.08473h6.72076v15.08473z" fill="#ffffff" stroke-linecap="butt"/><path d="M316.12165,168.90751v-6.92244h3.08364z" fill="#ff0000" stroke-linecap="butt"/><path d="M318.77948,156.21624c0,1.5968 -0.51586,2.89128 -1.15221,2.89128c-0.63635,0 -1.15221,-1.29448 -1.15221,-2.89128c0,-1.5968 0.52626,-2.71453 1.16261,-2.71453c0.63635,0 1.14181,1.11772 1.14181,2.71453z" fill="#000000" stroke-linecap="butt"/><path d="M319.44654,151.58749l-3.34798,3.12946" fill="none" stroke-linecap="round"/><path d="M316.34908,160.4416l3.72253,-0.46292" fill="none" stroke-linecap="round"/><path d="M319.89311,176.05889c-7.40917,0 -11.77181,-1.54856 -11.77181,-10.78838c0,-9.23981 4.36263,-22.67196 11.77181,-22.67196c7.40918,0 13.41551,7.49036 13.41551,16.73017c0,9.23981 -6.00633,16.73017 -13.41551,16.73017z" fill="none" stroke-linecap="butt"/><path d="M307.81593,170.80972v-4.64428l0.20328,-4.75847l6.64921,-0.03824l0.16352,3.53295l10.57985,-0.14339l-0.20764,-3.67729l8.49028,0.28743v9.44129z" fill="#9b9b9b" stroke-linecap="butt"/><path d="M306.23582,178.9515v-10.51221h30.12529v10.51221z" fill="#636363" stroke-linecap="butt"/><path d="M310.98912,179.73769c0,2.35064 -1.88031,4.25622 -4.19979,4.25622c-2.31948,0 -4.19979,-1.90557 -4.19979,-4.25622c0,-2.35064 1.88031,-4.25622 4.19979,-4.25622c2.31948,0 4.19979,1.90557 4.19979,4.25622z" fill="#bbbbbb" stroke-linecap="butt"/><path d="M336.6696,184.59465c-2.41965,0 -4.38117,-1.97407 -4.38117,-4.40924c0,-2.43516 1.96152,-4.40923 4.38117,-4.40923c2.41964,0 4.38115,1.97408 4.38115,4.40923c0,2.43516 -1.9615,4.40924 -4.38115,4.40924z" fill="#bbbbbb" stroke-linecap="butt"/></g><path d="M333.7116,131.95688h33.838v33.838z" fill="#ff0000" stroke="#000000" stroke-width="1" stroke-linecap="butt"/></g></g></svg>