<svg version="1.1" xmlns="http://www.w3.org/2000/svg" xmlns:xlink="http://www.w3.org/1999/xlink" width="64.75469" height="88.41618" viewBox="0,0,64.75469,88.41618"><defs><linearGradient x1="319.95334" y1="137.31685" x2="319.95334" y2="222.13082" gradientUnits="userSpaceOnUse" id="color-1"><stop offset="0" stop-color="#555555"/><stop offset="1" stop-color="#00ffe8"/></linearGradient><linearGradient x1="319.59164" y1="209.32887" x2="319.59164" y2="222.14281" gradientUnits="userSpaceOnUse" id="color-2"><stop offset="0" stop-color="#7c7c7c"/><stop offset="1" stop-color="#7a7a7a"/></linearGradient><linearGradient x1="292.41659" y1="137.29881" x2="292.41659" y2="222.11282" gradientUnits="userSpaceOnUse" id="color-3"><stop offset="0" stop-color="#969696"/><stop offset="1" stop-color="#7a7a7a"/></linearGradient><linearGradient x1="347.75416" y1="137.36757" x2="347.75416" y2="222.18158" gradientUnits="userSpaceOnUse" id="color-4"><stop offset="0" stop-color="#969696"/><stop offset="1" stop-color="#7a7a7a"/></linearGradient><linearGradient x1="306.45662" y1="190.23432" x2="306.45662" y2="211.2362" gradientUnits="userSpaceOnUse" id="color-5"><stop offset="0" stop-color="#858585"/><stop offset="1" stop-color="#818181"/></linearGradient><linearGradient x1="325.03235" y1="202.82136" x2="325.03235" y2="214.97976" gradientUnits="userSpaceOnUse" id="color-6"><stop offset="0" stop-color="#808080"/><stop offset="1" stop-color="#7d7d7d"/></linearGradient></defs><g transform="translate(-287.15141,-137.08963)"><g stroke-miterlimit="10"><path d="M351.40104,137.31686v84.81396h-62.89539v-84.81396z" fill="url(#color-1)" stroke="none" stroke-width="0" stroke-linecap="butt"/><g stroke="#000000" stroke-width="1.28786"><path d="M321.86866,198.41572c-1.14072,2.19853 -4.79988,2.56201 -8.17296,0.81186c-3.37309,-1.75015 -7.3067,-5.65986 -7.3067,-5.65986c0,0 8.06453,-4.05187 11.43761,-2.30172c3.37309,1.75015 5.18277,4.95119 4.04205,7.14971z" fill="#5cb000" stroke-linecap="butt"/><path d="M326.10035,190.96252c3.37309,-1.75015 11.43761,2.30172 11.43761,2.30172c0,0 -3.93361,3.9097 -7.3067,5.65986c-3.37309,1.75015 -7.03225,1.38667 -8.17296,-0.81186c-1.14072,-2.19853 0.66896,-5.39956 4.04205,-7.14971z" fill="#5cb000" stroke-linecap="butt"/><g stroke-linecap="butt"><path d="M318.98332,201.19675v-18.62164h5.92142v18.62164z" fill="#00e704"/><path d="M316.9391,188.12096l1.17946,-5.33584l7.56177,-0.96645l1.11393,6.30228z" fill="#00b403"/></g><g stroke-linecap="butt"><path d="M323.3775,200.9254l7.45935,-17.06235l5.42559,2.37197l-7.45935,17.06235z" fill="#00e704"/><path d="M326.74226,188.12564l3.77177,-4.4048l6.06491,2.27692l-0.80675,6.0756z" fill="#00b403"/></g><g stroke-linecap="butt"><path d="M317.61869,201.06774l-11.85232,-14.36274l4.56715,-3.76887l13.47407,17.44226z" fill="#00e704"/><path d="M308.01902,191.92303l-3.20397,-5.34601l7.9616,-4.37248l3.15484,3.9373z" fill="#00b403"/></g><g><path d="M335.4855,168.63555c0,0 0.49311,-2.44042 0.50342,-3.73847c0.0125,-1.57479 -0.43373,-5.0415 -0.43373,-5.0415c0,0 2.75887,1.81578 3.60239,3.16234c0.97197,1.5516 1.89889,5.61963 1.89889,5.61963z" fill="#f7df77" stroke-linecap="butt"/><path d="M332.54686,167.43992c0,0 -1.14677,-2.74944 -2.05104,-3.69173c-0.75685,-0.78868 -3.01142,-1.58359 -3.01142,-1.58359c0,0 2.13041,-4.33364 4.80142,-2.73952c2.67101,1.59411 2.98867,7.38883 2.98867,7.38883z" fill="#cb775b" stroke-linecap="butt"/><path d="M339.30473,169.42722c0,0 2.68389,-5.74237 6.04026,-6.26898c3.35635,-0.52661 3.74868,4.73312 3.74868,4.73312c0,0 -2.60861,-0.11349 -3.69701,0.37718c-1.30039,0.58624 -3.58314,2.90484 -3.58314,2.90484z" fill="#cb775b" stroke-linecap="butt"/><path d="M340.31256,180.55142c0,0 2.41906,0.59306 3.72131,0.64479c1.57987,0.06275 5.08703,-0.29492 5.08703,-0.29492c0,0 -1.99284,2.83016 -3.39649,3.67052c-1.61737,0.96832 -5.75776,1.81012 -5.75776,1.81012z" fill="#f7df77" stroke-linecap="butt"/><path d="M340.83649,172.64794c0,0 2.47576,-0.26354 3.71684,-0.64404c1.50566,-0.46162 4.67775,-1.92963 4.67775,-1.92963c0,0 -0.90216,3.17719 -1.93275,4.38658c-1.18753,1.39354 -4.78856,3.50082 -4.78856,3.50082z" fill="#f7df77" stroke-linecap="butt"/><path d="M327.30839,181.03312c0,0 -2.66958,-3.20646 -3.31231,-4.92083c-0.5578,-1.48783 -0.3255,-4.78243 -0.3255,-4.78243c0,0 2.48363,2.45941 3.74252,3.40563c1.03766,0.77994 3.27616,1.86986 3.27616,1.86986z" fill="#f7df77" stroke-linecap="butt"/><path d="M328.61294,174.31352c0,0 -1.25038,-3.98051 -1.19321,-5.81053c0.04962,-1.58818 1.51679,-4.54719 1.51679,-4.54719c0,0 1.36237,3.21888 2.16709,4.57259c0.66331,1.11582 2.3195,2.9748 2.3195,2.9748z" fill="#f7df77" stroke-linecap="butt"/><path d="M345.81099,176.38307c0.14957,6.13207 -4.01522,11.31867 -9.30231,11.58457c-5.28709,0.2659 -9.69436,-4.48956 -9.84393,-10.62163c-0.14957,-6.13207 4.01522,-11.31866 9.30231,-11.58457c5.28709,-0.2659 9.69437,4.48956 9.84393,10.62163z" fill="#f94696" stroke-linecap="butt"/><path d="M345.8403,177.71609c0,0 1.39484,-0.46564 1.14883,1.77281c-0.0874,0.79533 -3.92412,2.88334 -3.92412,2.88334l-4.27529,-3.39669l-3.97212,1.69616l-3.79542,-3.73516" fill="#f94696" stroke-linecap="round"/><path d="M336.54834,180.02477l-1.09022,2.8235l-0.65459,-1.99368z" fill="#ffffff" stroke-linecap="round"/><path d="M342.66657,182.55177l-1.16711,1.74387l-0.28991,-3.01275z" fill="#ffffff" stroke-linecap="round"/><path d="M335.94691,175.16637c0,0 0.34992,-3.20602 0.34172,-4.6866c-0.00716,-1.29602 -0.38821,-3.71713 -0.38821,-3.71713c0,0 3.15293,1.78181 4.16988,3.27921c0.94729,1.39484 1.73769,5.41933 1.73769,5.41933" fill="#f7df77" stroke-linecap="round"/></g><g><path d="M316.75696,163.6871c0,0 -0.4906,-2.87334 -1.02676,-4.29539c-0.65048,-1.72523 -2.59981,-5.32333 -2.59981,-5.32333c0,0 3.77895,0.8197 5.2681,1.93467c1.7159,1.28474 4.44384,5.33686 4.44384,5.33686z" fill="#f7df77" stroke-linecap="butt"/><path d="M313.04321,163.62052c0,0 -2.41199,-2.51929 -3.79699,-3.16708c-1.15922,-0.5422 -3.95686,-0.45959 -3.95686,-0.45959c0,0 0.49922,-5.63157 4.08873,-5.01692c3.5895,0.61465 6.3802,6.80959 6.3802,6.80959z" fill="#cb775b" stroke-linecap="butt"/><path d="M321.26214,162.94113c0,0 0.50964,-7.40358 3.95332,-9.39416c3.44368,-1.99058 6.0903,3.58855 6.0903,3.58855c0,0 -2.89695,0.97614 -3.87876,1.97104c-1.17303,1.18868 -2.68843,4.68371 -2.68843,4.68371z" fill="#cb775b" stroke-linecap="butt"/><path d="M327.05413,174.66578c0,0 2.89216,-0.37244 4.33627,-0.86512c1.75198,-0.59773 5.43159,-2.46741 5.43159,-2.46741c0,0 -0.98302,3.93147 -2.16166,5.44125c-1.35812,1.73967 -5.52516,4.40514 -5.52516,4.40514z" fill="#f7df77" stroke-linecap="butt"/><path d="M324.29333,165.81276c0,0 2.59285,-1.33191 3.78787,-2.27086c1.44978,-1.13914 4.29521,-4.0802 4.29521,-4.0802c0,0 0.35455,3.85053 -0.26102,5.60604c-0.70931,2.02282 -3.75363,5.84296 -3.75363,5.84296z" fill="#f7df77" stroke-linecap="butt"/><path d="M313.05437,180.67598c0,0 -4.2679,-2.37623 -5.69286,-3.9776c-1.23666,-1.38975 -2.37235,-5.08603 -2.37235,-5.08603c0,0 3.74978,1.63873 5.52374,2.14128c1.46223,0.41423 4.36672,0.6606 4.36672,0.6606z" fill="#f7df77" stroke-linecap="butt"/><path d="M311.64536,172.7868c0,0 -3.04432,-3.82015 -3.75363,-5.84296c-0.61558,-1.7555 -0.26103,-5.60604 -0.26103,-5.60604c0,0 2.84541,2.94107 4.29521,4.08021c1.19502,0.93896 3.78786,2.27086 3.78786,2.27086z" fill="#f7df77" stroke-linecap="butt"/><path d="M331.30158,167.79437c2.74936,6.63428 0.38793,14.05537 -5.2744,16.57546c-5.66234,2.52008 -12.48137,-0.81512 -15.23073,-7.44939c-2.74936,-6.63428 -0.38793,-14.05536 5.2744,-16.57545c5.66234,-2.52008 12.48137,0.81511 15.23073,7.44939z" fill="#f94696" stroke-linecap="butt"/><path d="M331.89576,169.23792c0,0 1.32705,-1.09679 2.00236,1.45174c0.23994,0.90551 -3.0699,4.80402 -3.0699,4.80402l-6.10185,-1.90683l-3.62297,3.52764l-5.72049,-2.47888" fill="#f94696" stroke-linecap="round"/><path d="M322.72085,175.67801v3.54354l-1.5557,-1.90141z" fill="#ffffff" stroke-linecap="round"/><path d="M330.46875,175.8578l-0.53928,2.39682l-1.58717,-3.16822z" fill="#ffffff" stroke-linecap="round"/><path d="M320.01509,170.62537c0,0 -0.96986,-3.64912 -1.60321,-5.26275c-0.55438,-1.41246 -1.99158,-3.89608 -1.99158,-3.89608c0,0 4.195,0.61642 5.93718,1.82298c1.62285,1.12392 4.18332,5.18608 4.18332,5.18608" fill="#f7df77" stroke-linecap="round"/></g><g><path d="M301.05926,170.43082c0,0 -0.3297,-2.46781 -0.74327,-3.69826c-0.50174,-1.49277 -2.05411,-4.62445 -2.05411,-4.62445c0,0 3.20018,0.81681 4.43674,1.81468c1.42483,1.14981 3.62771,4.69316 3.62771,4.69316z" fill="#f7df77" stroke-linecap="butt"/><path d="M297.89137,170.25888c0,0 -1.98071,-2.22516 -3.14283,-2.82104c-0.97267,-0.49874 -3.36322,-0.51495 -3.36322,-0.51495c0,0 0.60069,-4.79148 3.64554,-4.15557c3.04485,0.63592 5.23487,6.01025 5.23487,6.01025z" fill="#cb775b" stroke-linecap="butt"/><path d="M304.92787,169.93372c0,0 0.66452,-6.3037 3.66565,-7.89606c3.00113,-1.59236 5.08727,3.25187 5.08727,3.25187c0,0 -2.50301,0.74341 -3.3719,1.56219c-1.03813,0.97826 -2.43995,3.91454 -2.43995,3.91454z" fill="#cb775b" stroke-linecap="butt"/><path d="M309.50834,180.12111c0,0 2.48023,-0.22825 3.72814,-0.60402c1.51397,-0.45589 4.71274,-1.93775 4.71274,-1.93775c0,0 -0.96094,3.32532 -2.01381,4.57749c-1.21317,1.44283 -4.85268,3.58884 -4.85268,3.58884z" fill="#f7df77" stroke-linecap="butt"/><path d="M307.4262,172.47884c0,0 2.25447,-1.05652 3.3036,-1.82093c1.27281,-0.92739 3.79276,-3.3496 3.79276,-3.3496c0,0 0.18328,3.2977 -0.39659,4.77707c-0.66815,1.70463 -3.38511,4.87104 -3.38511,4.87104z" fill="#f7df77" stroke-linecap="butt"/><path d="M297.37221,184.81728c0,0 -3.5693,-2.16058 -4.73597,-3.57164c-1.0125,-1.22459 -1.86731,-4.41484 -1.86731,-4.41484c0,0 3.1499,1.51501 4.64853,1.99898c1.23528,0.3989 3.70684,0.69922 3.70684,0.69922z" fill="#f7df77" stroke-linecap="butt"/><path d="M296.41406,178.03962c0,0 -2.48013,-3.35513 -3.02287,-5.10375c-0.47102,-1.51754 -0.04902,-4.79325 -0.04902,-4.79325c0,0 2.3376,2.59862 3.5398,3.6159c0.99093,0.83851 3.16282,2.05576 3.16282,2.05576z" fill="#f7df77" stroke-linecap="butt"/><path d="M313.34683,174.38753c2.14113,5.74807 -0.10456,12.0093 -5.0159,13.98486c-4.91134,1.97556 -10.62848,-1.08266 -12.76962,-6.83074c-2.14113,-5.74807 0.10456,-12.0093 5.01589,-13.98485c4.91134,-1.97556 10.62849,1.08266 12.76962,6.83072z" fill="#f94696" stroke-linecap="butt"/><path d="M313.80924,175.63812c0,0 1.16673,-0.89506 1.66416,1.30123c0.17674,0.78036 -2.76929,4.00541 -2.76929,4.00541l-5.14927,-1.81677l-3.20183,2.89878l-4.80602,-2.29323" fill="#f94696" stroke-linecap="round"/><path d="M305.77817,180.85081l-0.10984,3.02466l-1.26896,-1.67122z" fill="#ffffff" stroke-linecap="round"/><path d="M312.38599,181.24444l-0.53461,2.02915l-1.25654,-2.7535z" fill="#ffffff" stroke-linecap="round"/><path d="M303.62523,176.45413c0,0 -0.71473,-3.14486 -1.20531,-4.54183c-0.42943,-1.22282 -1.57919,-3.38733 -1.57919,-3.38733c0,0 3.56164,0.65619 5.01131,1.74009c1.35039,1.00966 3.41001,4.55638 3.41001,4.55638" fill="#f7df77" stroke-linecap="round"/></g><path d="M324.06098,201.963c0,2.47684 -3.08059,4.48472 -6.88068,4.48472c-3.80009,0 -9.09232,-1.65873 -9.09232,-1.65873c0,0 5.29223,-7.31072 9.09232,-7.31072c3.80009,0 6.88068,2.00789 6.88068,4.48472z" fill="#5cb000" stroke-linecap="butt"/><path d="M328.08218,197.9128c3.80009,0 9.09232,7.31072 9.09232,7.31072c0,0 -5.29223,1.65873 -9.09232,1.65873c-3.80009,0 -6.88068,-2.00789 -6.88068,-4.48472c0,-2.47684 3.08059,-4.48472 6.88068,-4.48472z" fill="#5cb000" stroke-linecap="butt"/></g><path d="M288.14394,222.14281v-12.81396h62.89539v12.81396z" fill="url(#color-2)" stroke="none" stroke-width="0" stroke-linecap="butt"/><path d="M288.09389,222.11282v-84.81396h8.64539v84.81396z" fill="url(#color-3)" stroke="none" stroke-width="0" stroke-linecap="butt"/><path d="M343.68148,222.18158v-84.81396h8.14539v84.81396z" fill="url(#color-4)" stroke="none" stroke-width="0" stroke-linecap="butt"/><path d="M288.14394,147.40359v-10.31396h62.89539v10.31396z" fill="#969696" stroke="none" stroke-width="0" stroke-linecap="butt"/><path d="M295.88896,211.2362v-21.00188l21.13534,21.00188z" fill="url(#color-5)" stroke="none" stroke-width="0" stroke-linecap="butt"/><path d="M303.00343,214.97976v-12.15842h44.05785v12.15842z" fill="url(#color-6)" stroke="none" stroke-width="0" stroke-linecap="butt"/><text transform="translate(318.15564,219.25581) scale(0.47116,0.5)" font-size="40" xml:space="preserve" fill="#000000" stroke="none" stroke-width="1" stroke-linecap="butt" font-family="Sans Serif" font-weight="normal" text-anchor="start"><tspan x="0" dy="0">200</tspan></text><g stroke-linecap="butt"><path d="M303.52762,213.44923l-2.65375,6.84999l-2.38631,-6.84999z" fill="#ffff00" stroke="#ffff00" stroke-width="1"/><path d="M298.55937,202.07342l2.38632,-6.84999l2.65375,6.84999z" fill="#ffff00" stroke="#ffff00" stroke-width="1"/><path d="M294.37595,207.97259c0,-3.72115 3.01658,-6.73773 6.73773,-6.73773c3.72115,0 6.73772,3.01658 6.73772,6.73773c0,3.72115 -3.01658,6.73772 -6.73772,6.73772c-3.72115,0 -6.73773,-3.01658 -6.73773,-6.73772z" fill="#ffff00" stroke="none" stroke-width="0"/><path d="M306.80397,205.43749l6.87114,2.59848l-6.83054,2.44142z" fill="#ffff00" stroke="#ffff00" stroke-width="1"/><path d="M295.46853,210.49722l-6.86899,-2.33105l6.82838,-2.70885z" fill="#ffff00" stroke="#ffff00" stroke-width="1"/><path d="M307.11956,210.08398l3.04475,6.68537l-6.56714,-3.08051z" fill="#ffff00" stroke="#ffff00" stroke-width="1"/><path d="M295.51088,205.68721l-3.23165,-6.49409l6.75404,2.88922z" fill="#ffff00" stroke="#ffff00" stroke-width="1"/><path d="M303.67899,202.14138l6.66063,-3.0985l-3.02751,6.59174z" fill="#ffff00" stroke="#ffff00" stroke-width="1"/><path d="M299.37584,213.78509l-6.46785,3.28387l2.83472,-6.7771z" fill="#ffff00" stroke="#ffff00" stroke-width="1"/><path d="M296.39221,208.17317c0,-2.70702 2.19448,-4.90151 4.9015,-4.90151c2.70702,0 4.90151,2.19448 4.90151,4.90151c0,2.70702 -2.19448,4.9015 -4.90151,4.9015c-2.70702,0 -4.9015,-2.19448 -4.9015,-4.9015z" fill="#fffff7" stroke="none" stroke-width="0"/></g><path d="M351.9061,137.19467v33.64619l-33.86,-33.64619z" fill="#9500ea" stroke="none" stroke-width="0" stroke-linecap="butt"/></g></g></svg>