<svg version="1.1" xmlns="http://www.w3.org/2000/svg" xmlns:xlink="http://www.w3.org/1999/xlink" width="736" height="448.52097" viewBox="0,0,736,448.52097"><g transform="translate(53.4236,58.0208)"><g stroke-miterlimit="10"><path d="M-45.9236,273.9792c-4.14213,0 -7.5,-2.3923 -7.5,-5.34335v-321.3133c0,-2.95105 3.35787,-5.34335 7.5,-5.34335h721c4.14214,0 7.5,2.3923 7.5,5.34335v321.3133c0,2.95105 -3.35786,5.34335 -7.5,5.34335z" fill-opacity="0.50196" fill="#000000" stroke="none" stroke-width="0"/><path d="M53.50006,72.0001v-87h554v87z" fill="#adadad" stroke="#000000" stroke-width="1"/><path d="M124.68897,262.53342v-168h387.02222v168z" fill="#adadad" stroke="#000000" stroke-width="1"/><text transform="translate(267.60553,45.28072) scale(0.69512,0.69512)" font-size="40" xml:space="preserve" fill="#000000" stroke="none" stroke-width="1" font-family="Sans Serif" font-weight="normal" text-anchor="start"><tspan x="0" dy="0">Trophies</tspan></text><path d="M186.50008,390.00018v-116h79v116z" fill="#adadad" stroke="#000000" stroke-width="1"/><path d="M369.50009,390.00018v-116h93v116z" fill="#adadad" stroke="#000000" stroke-width="1"/><text transform="translate(280.08811,123.78266) scale(0.45585,0.5)" font-size="40" xml:space="preserve" fill="#000000" stroke="none" stroke-width="1" font-family="Sans Serif" font-weight="normal" text-anchor="start"><tspan x="0" dy="0">Pro badge:</tspan><tspan x="0" dy="46.150000000000006px">-Get diamond trophy</tspan><tspan x="0" dy="46.150000000000006px">-Beat the secret level </tspan></text><g stroke-width="1"><path d="M169.42176,176.48089c0,-20.74851 16.81998,-37.56849 37.56849,-37.56849c20.74851,0 37.56849,16.81998 37.56849,37.56849c0,20.74851 -16.81998,37.56849 -37.56849,37.56849c-20.74851,0 -37.56849,-16.81998 -37.56849,-37.56849z" fill="#ff5600" stroke="#000000"/><path d="M176.88373,177.10986c0,-16.33241 13.24002,-29.57243 29.57243,-29.57243c16.33241,0 29.57244,13.24002 29.57244,29.57243c0,16.33241 -13.24003,29.57244 -29.57244,29.57244c-16.33241,0 -29.57243,-13.24003 -29.57243,-29.57244z" fill="#ff9f00" stroke="#000000"/><text transform="translate(180.61606,174.43889) scale(0.32074,0.32074)" font-size="40" xml:space="preserve" fill="#000000" stroke="none" font-family="Sans Serif" font-weight="normal" text-anchor="start"><tspan x="0" dy="0">Certified</tspan><tspan x="0" dy="46.15px">Pro :)</tspan></text></g></g></g></svg>