<svg version="1.1" xmlns="http://www.w3.org/2000/svg" xmlns:xlink="http://www.w3.org/1999/xlink" width="163.42283" height="183.32138" viewBox="0,0,163.42283,183.32138"><defs><linearGradient x1="201.66548" y1="-147.78882" x2="201.66548" y2="-110.43531" gradientUnits="userSpaceOnUse" id="color-1"><stop offset="0" stop-color="#98edde"></stop><stop offset="1" stop-color="#d3fff7"></stop></linearGradient><linearGradient x1="239.95359" y1="-150.63518" x2="239.95359" y2="-60.10651" gradientUnits="userSpaceOnUse" id="color-2"><stop offset="0" stop-color="#98edde"></stop><stop offset="1" stop-color="#d3fff7"></stop></linearGradient><linearGradient x1="211.16243" y1="-112.59364" x2="211.16243" y2="-85.45292" gradientUnits="userSpaceOnUse" id="color-3"><stop offset="0" stop-color="#98edde"></stop><stop offset="1" stop-color="#d3fff7"></stop></linearGradient><linearGradient x1="269.95069" y1="-112.38611" x2="269.95069" y2="-85.24539" gradientUnits="userSpaceOnUse" id="color-4"><stop offset="0" stop-color="#98edde"></stop><stop offset="1" stop-color="#d3fff7"></stop></linearGradient><linearGradient x1="301.64874" y1="-163.91209" x2="301.64874" y2="-136.77137" gradientUnits="userSpaceOnUse" id="color-5"><stop offset="0" stop-color="#98edde"></stop><stop offset="1" stop-color="#d3fff7"></stop></linearGradient><linearGradient x1="175.49139" y1="-164.01101" x2="175.49139" y2="-136.87029" gradientUnits="userSpaceOnUse" id="color-6"><stop offset="0" stop-color="#98edde"></stop><stop offset="1" stop-color="#d3fff7"></stop></linearGradient><linearGradient x1="266.09296" y1="-185.36267" x2="266.09296" y2="-155.838" gradientUnits="userSpaceOnUse" id="color-7"><stop offset="0" stop-color="#98edde"></stop><stop offset="1" stop-color="#d3fff7"></stop></linearGradient><linearGradient x1="216.48975" y1="-184.68437" x2="216.48975" y2="-155.15971" gradientUnits="userSpaceOnUse" id="color-8"><stop offset="0" stop-color="#98edde"></stop><stop offset="1" stop-color="#d3fff7"></stop></linearGradient></defs><g transform="translate(-156.85864,186.40276)"><g data-paper-data="{&quot;isPaintingLayer&quot;:true}" fill-rule="nonzero" stroke="#000000" stroke-width="1" stroke-linejoin="miter" stroke-miterlimit="10" stroke-dasharray="" stroke-dashoffset="0" style="mix-blend-mode: normal"><g><path d="M171.78859,-3.58138v-12.73688l13.44994,-44.37322h110.08606l13.9488,43.66582v13.44428z" fill="#afafaf" stroke-linecap="butt"></path><path d="M268.66101,-147.15353c0,0 23.61394,6.22907 24.38152,19.55156c0.85368,14.81695 -33.39813,17.80195 -33.39813,17.80195l8.21494,-5.75915c0,0 18.40212,-2.6649 17.7225,-12.37412c-0.51421,-7.34613 -17.14294,-14.94717 -17.14294,-14.94717z" data-paper-data="{&quot;index&quot;:null}" fill="#98edde" stroke-linecap="butt"></path><path d="M209.57789,-143.51575c0,0 -16.62873,7.60104 -17.14294,14.94717c-0.67962,9.70922 17.7225,12.37412 17.7225,12.37412l8.21494,5.75915c0,0 -34.25181,-2.985 -33.39812,-17.80195c0.76758,-13.3225 24.38152,-19.55156 24.38152,-19.55156z" data-paper-data="{&quot;index&quot;:null}" fill="url(#color-1)" stroke-linecap="butt"></path><path d="M207.59531,-60.20784l7.80307,-7.80307h19.63355v-32.21915c0,0 -8.15873,-3.47403 -21.41144,-12.66164c-12.06468,-8.36399 -9.29744,-37.74348 -9.29744,-37.74348l71.26108,0.10133c0,0 2.76725,29.37949 -9.29743,37.74348c-13.25272,9.18761 -21.41145,12.66164 -21.41145,12.66164v32.21915h19.63355l7.80307,7.80307z" data-paper-data="{&quot;index&quot;:null}" fill="url(#color-2)" stroke-linecap="round"></path><path d="M229.03314,-94.14755l-23.18568,8.69463l2.89821,-9.93672l-9.93672,2.48418l-5.51723,-19.68818l30.84298,13.08164z" fill="url(#color-3)" stroke-linecap="round"></path><path d="M256.97842,-99.30447l30.84298,-13.08164l-5.51723,19.68818l-9.93672,-2.48418l2.89821,9.93672l-23.18568,-8.69463z" data-paper-data="{&quot;index&quot;:null}" fill="url(#color-4)" stroke-linecap="round"></path><path d="M288.67647,-150.83045l30.84298,-13.08164l-5.51723,19.68818l-9.93672,-2.48418l2.89821,9.93672l-23.18568,-8.69463z" data-paper-data="{&quot;index&quot;:null}" fill="url(#color-5)" stroke-linecap="round"></path><path d="M193.3621,-145.56492l-23.18568,8.69463l2.89821,-9.93672l-9.93672,2.48418l-5.51723,-19.68818l30.84298,13.08164z" data-paper-data="{&quot;index&quot;:null}" fill="url(#color-6)" stroke-linecap="round"></path><path d="M239.5457,-110.599l-21.79716,-21.79715l6.72249,-6.72249h22.00087l-13.32328,-0.12115h22.00086l6.72249,6.7225l-21.79715,21.79715z" data-paper-data="{&quot;index&quot;:null}" fill="#1affff" stroke-linecap="round"></path><path d="M254.64135,-164.42885l26.15711,-20.93381l0.01163,20.44661l-10.23829,0.29507l5.47699,8.78297l-24.67296,-2.10175z" data-paper-data="{&quot;index&quot;:null}" fill="url(#color-7)" stroke-linecap="round"></path><path d="M231.20688,-157.26146l-24.67296,2.10175l5.47698,-8.78297l-10.23828,-0.29507l0.01163,-20.44661l26.15711,20.93381z" data-paper-data="{&quot;index&quot;:null}" fill="url(#color-8)" stroke-linecap="round"></path></g></g></g></svg>