<svg version="1.1" xmlns="http://www.w3.org/2000/svg" xmlns:xlink="http://www.w3.org/1999/xlink" width="51.40827" height="61.87837" viewBox="0,0,51.40827,61.87837"><g transform="translate(-294.29586,-149.01738)"><g stroke="#000000" stroke-width="1.28786" stroke-miterlimit="10"><path d="M345.06019,189.31396c0,5.80078 -1.47379,12.90016 -5.02214,15.78988c-5.23907,4.26662 -8.36025,2.34733 -8.36025,2.34733c0,0 -2.45522,2.52268 -5.56633,2.80065c-4.64406,0.41493 -6.84854,-0.79143 -6.84854,-0.79143c0,0 -5.65125,0.94492 -7.44888,0.79361c-1.40821,-0.11854 -2.45671,-1.62745 -2.45671,-1.62745c0,0 -5.73327,-1.26543 -9.16227,-4.07871c-3.76412,-3.08823 -5.25527,-8.04165 -5.25527,-15.23389c0,-6.50759 3.56797,-10.76213 6.37477,-17.49003c4.2942,-10.29321 9.11432,-18.05287 17.62078,-18.05287c8.92363,0 12.81244,10.07939 17.45741,21.05414c2.67699,6.32499 8.66746,8.46943 8.66746,14.48877z" fill="#e4ff99" stroke-linecap="butt"/><path d="M311.46459,173.02573c0,-1.82931 -0.17318,-3.18486 1.65611,-3.18486c0.84564,0 1.46162,0.90816 2.42755,1.51752c1.12359,0.70881 2.54081,1.19324 2.54081,2.1769c0,1.82931 -1.48295,2.80267 -3.31224,2.80267c-1.82931,0 -3.31224,-1.48295 -3.31224,-3.31224z" fill="#ffffff" stroke-linecap="butt"/><path d="M325.21875,175.82839c-1.82931,0 -3.31224,-0.97337 -3.31224,-2.80267c0,-0.98365 1.41723,-1.46809 2.5408,-2.1769c0.96594,-0.60936 1.58191,-1.51752 2.42755,-1.51752c1.82931,0 1.65613,1.35555 1.65613,3.18486c0,1.82931 -1.48295,3.31224 -3.31224,3.31224z" fill="#ffffff" stroke-linecap="butt"/><path d="M300.7635,186.65688c0,0 2.25183,-5.52026 5.35055,-5.98753c3.09872,-0.46726 26.75272,1.14655 26.75272,1.14655" fill="none" stroke-linecap="round"/><path d="M320.13163,155.70876c-1.66155,-0.92086 -2.31533,-2.9181 -1.46024,-4.46096v0c0.85508,-1.54286 2.8952,-2.04709 4.55675,-1.12625l5.15742,2.85832c1.66155,0.92086 2.31531,2.9181 1.46024,4.46096v0c-0.85508,1.54286 -2.8952,2.0471 -4.55675,1.12625z" fill="#64bb2f" stroke-linecap="butt"/><path d="M310.00868,163.76235c0,0 0.88938,-3.2574 2.13152,-4.85838c1.2141,-1.56484 5.23912,-4.64157 5.23912,-4.64157c0,0 4.18065,2.06961 5.59999,3.57413c1.30003,1.37803 2.58961,5.10687 2.58961,5.10687" fill="none" stroke-linecap="round"/><path d="M309.51729,208.33205c0,0 -4.25429,-3.79217 -5.11848,-6.75137c-0.93235,-3.19258 -0.28666,-11.75716 -0.28666,-11.75716" fill="none" stroke-linecap="round"/><path d="M320.49137,209.15101c0,0 -4.22572,-5.5402 -5.05036,-8.81033c-0.75196,-2.98195 0.30038,-10.02577 0.30038,-10.02577" fill="none" stroke-linecap="round"/><path d="M335.88783,185.07355c0,0 1.59632,10.63896 1.15542,14.72459c-0.36271,3.36106 -6.06918,7.55116 -6.06918,7.55116" fill="none" stroke-linecap="round"/><path d="M329.93672,167.29299l-10.06412,7.00666l-10.95587,-7.64363" fill="none" stroke-linecap="round"/></g></g></svg>