<svg version="1.1" xmlns="http://www.w3.org/2000/svg" xmlns:xlink="http://www.w3.org/1999/xlink" width="74.64532" height="60.77396" viewBox="0,0,74.64532,60.77396"><g transform="translate(-323.2002,-149.61302)"><g stroke-miterlimit="10"><path d="M354.83955,203.30034c0,2.35232 -2.54037,4.25924 -5.6741,4.25924c-3.13371,0 -5.6741,-1.90693 -5.6741,-4.25924c0,-2.35232 2.54037,-4.25924 5.6741,-4.25924c3.13371,0 5.6741,1.90693 5.6741,4.25924z" fill="#3ce200" stroke="#000000" stroke-width="1.28786" stroke-linecap="butt"/><path d="M362.39432,197.36217c2.05122,1.59059 2.08077,4.98626 0.06603,7.58447c-2.01474,2.5982 -5.31084,3.41503 -7.36206,1.82444c-2.05122,-1.59059 -2.08077,-4.98626 -0.06603,-7.58447c2.01474,-2.5982 5.31085,-3.41503 7.36206,-1.82444z" fill="#2fb200" stroke="#000000" stroke-width="1.28786" stroke-linecap="butt"/><path d="M370.83863,203.54512c0,2.43342 -2.7486,4.40611 -6.13918,4.40611c-3.39058,0 -6.13918,-1.97269 -6.13918,-4.40611c0,-2.43342 2.7486,-4.40611 6.13918,-4.40611c3.39058,0 6.13918,1.97269 6.13918,4.40611z" fill="#3ce200" stroke="#000000" stroke-width="1.28786" stroke-linecap="butt"/><path d="M355.64743,204.98928c0,0 -6.78634,-12.2156 -8.5438,-18.02238c-1.58069,-5.2227 -1.52701,-15.25215 -1.52701,-15.25215l4.92037,0.92402c0,0 0.27794,9.49742 2.00176,13.89232c2.02003,5.15009 6.7668,15.47546 6.7668,15.47546z" fill="#42ff00" stroke="#000000" stroke-width="1.28786" stroke-linecap="butt"/><path d="M345.17299,197.50101l4.30792,-0.80182c0,0 1.39381,1.75391 2.59731,2.42706c1.41428,0.79103 5.1725,3.13904 5.1725,3.13904l-2.44757,3.59235c0,0 -4.665,-1.64039 -6.2633,-3.02732c-1.61165,-1.39852 -3.36687,-5.3293 -3.36687,-5.3293z" fill="#42ff00" stroke="#000000" stroke-width="1.28786" stroke-linecap="butt"/><path d="M357.97774,201.59354c0,0 5.38782,-4.72828 7.63713,-7.75492c2.06215,-2.77481 5.34612,-9.71512 5.34612,-9.71512l4.62882,3.44001c0,0 -2.88687,6.07499 -5.01341,8.93643c-1.05253,1.41628 -4.79542,5.35713 -7.38339,6.45077c-2.8184,1.19103 -4.53822,0.40053 -4.53822,0.40053z" fill="#42ff00" stroke="#000000" stroke-width="1.28786" stroke-linecap="butt"/><path d="M368.58672,180.51645c0,0 -1.15286,-0.35025 -1.90172,-0.31802c-1.26001,0.05421 -4.95931,0.61321 -4.95931,0.61321c0,0 1.67092,-2.17014 3.30845,-2.68282c1.63753,-0.51268 4.38831,0.27311 4.38831,0.27311z" fill="#279400" stroke="#000000" stroke-width="1.28786" stroke-linecap="round"/><path d="M368.30159,174.90889c0,0 -0.83091,-0.99954 -1.52473,-1.4148c-1.16741,-0.6987 -4.83204,-2.3898 -4.83204,-2.3898c0,0 2.79299,-0.96391 4.57252,-0.45431c1.77953,0.50961 3.79173,2.84958 3.79173,2.84958z" fill="#279400" stroke="#000000" stroke-width="1.28786" stroke-linecap="round"/><path d="M368.41687,177.93731c0.59363,-5.40871 5.45949,-9.3121 10.8682,-8.71847c5.40871,0.59363 9.3121,5.45949 8.71848,10.8682c-0.59363,5.40871 -5.45949,9.3121 -10.8682,8.71847c-5.40871,-0.59363 -9.3121,-5.45949 -8.71848,-10.8682z" fill="#42ff00" stroke="#000000" stroke-width="1.28786" stroke-linecap="butt"/><path d="M396.33825,184.09135c-1.92231,4.25791 -5.82796,4.98386 -8.23243,3.89833c-2.40447,-1.08554 -3.38645,-3.68007 -1.46414,-7.938c1.92231,-4.25791 5.25373,-7.04918 7.65819,-5.96364c2.40447,1.08554 3.96069,5.74539 2.03837,10.0033z" fill="#42ff00" stroke="#000000" stroke-width="1.28786" stroke-linecap="butt"/><path d="M395.18042,183.43607c-1.23725,2.7405 -3.75104,3.20775 -5.29862,2.50907c-1.54758,-0.69868 -2.17961,-2.3686 -0.94236,-5.1091c1.23725,-2.7405 3.38145,-4.53705 4.92901,-3.83836c1.54758,0.69868 2.5492,3.6979 1.31195,6.4384z" fill="#000000" stroke="#000000" stroke-width="1.28786" stroke-linecap="butt"/><path d="M378.3189,177.47678c0.18469,-1.68271 1.14047,-2.95835 2.13479,-2.84922c0.99433,0.10914 1.65067,1.56171 1.46599,3.24442c-0.18469,1.68271 -1.14047,2.95835 -2.13479,2.84922c-0.99433,-0.10914 -1.65067,-1.56171 -1.46599,-3.24442z" fill="#000000" stroke="#000000" stroke-width="1.28786" stroke-linecap="butt"/><path d="M384.06244,176.04481c0.18469,-1.68271 1.00759,-2.97293 1.83802,-2.88179c0.83043,0.09114 1.35391,1.52914 1.16923,3.21185c-0.18469,1.68271 -1.0076,2.97293 -1.83803,2.88179c-0.83043,-0.09114 -1.3539,-1.52914 -1.16921,-3.21185z" fill="#000000" stroke="#000000" stroke-width="1.28786" stroke-linecap="butt"/><path d="M368.04272,177.01622c0,0 -1.09381,-0.5053 -1.83999,-0.57627c-1.25552,-0.11942 -4.99652,-0.07395 -4.99652,-0.07395c0,0 1.95322,-1.92 3.64565,-2.20284c1.69244,-0.28284 4.30917,0.87341 4.30917,0.87341z" fill="#279400" stroke="#000000" stroke-width="1.28786" stroke-linecap="round"/><path d="M378.71309,176.48541c0.05596,-0.50991 0.5147,-0.8779 1.02461,-0.82194c0.50991,0.05596 0.8779,0.5147 0.82194,1.02461c-0.05596,0.50991 -0.5147,0.8779 -1.02461,0.82194c-0.50991,-0.05596 -0.87791,-0.5147 -0.82195,-1.02461z" fill="#ffffff" stroke="none" stroke-width="0" stroke-linecap="butt"/><path d="M384.33077,175.16644c0.05596,-0.50991 0.5147,-0.87791 1.02461,-0.82195c0.50991,0.05596 0.8779,0.5147 0.82194,1.02461c-0.05596,0.50991 -0.5147,0.8779 -1.02461,0.82194c-0.50991,-0.05596 -0.8779,-0.51469 -0.82194,-1.02461z" fill="#ffffff" stroke="none" stroke-width="0" stroke-linecap="butt"/><g><path d="M340.40729,158.26542c0,0 -1.09242,-1.05495 -1.95116,-1.44879c-1.44489,-0.66268 -5.91654,-2.15958 -5.91654,-2.15958c0,0 3.12089,-1.47551 5.2526,-1.11048c2.1317,0.36502 4.76694,2.82617 4.76694,2.82617z" fill="#279400" stroke="#000000" stroke-width="1.28786" stroke-linecap="round"/><path d="M340.9272,161.76791c0,-6.35733 5.15363,-11.51096 11.51096,-11.51096c6.35733,0 11.51096,5.15363 11.51096,11.51096c0,6.35733 -5.15363,11.51096 -11.51096,11.51096c-6.35733,0 -11.51096,-5.15363 -11.51096,-11.51096z" fill="#42ff00" stroke="#000000" stroke-width="1.28786" stroke-linecap="butt"/><path d="M374.13945,165.3561c-1.68982,5.19016 -6.1333,6.53113 -9.0642,5.57688c-2.93091,-0.95426 -4.40211,-3.84236 -2.71229,-9.03252c1.68982,-5.19016 5.20311,-8.85657 8.13402,-7.90233c2.93091,0.95426 5.33228,6.16782 3.64247,11.35797z" fill="#42ff00" stroke="#000000" stroke-width="1.28786" stroke-linecap="butt"/><path d="M372.71122,164.74264c-1.08761,3.34053 -3.94756,4.20361 -5.83397,3.58943c-1.88641,-0.61418 -2.83331,-2.47305 -1.7457,-5.81358c1.08761,-3.34053 3.34886,-5.70033 5.23527,-5.08615c1.88641,0.61418 3.43201,3.96978 2.3444,7.3103z" fill="#000000" stroke="#000000" stroke-width="1.28786" stroke-linecap="butt"/><path d="M352.36869,159.97087c0,-1.97784 0.94743,-3.58119 2.11615,-3.58119c1.16872,0 2.11615,1.60335 2.11615,3.58119c0,1.97784 -0.94743,3.58119 -2.11615,3.58119c-1.16872,0 -2.11615,-1.60335 -2.11615,-3.58119z" fill="#000000" stroke="#000000" stroke-width="1.28786" stroke-linecap="butt"/><path d="M358.85669,157.57566c0,-1.97784 0.79127,-3.58119 1.76734,-3.58119c0.97607,0 1.76734,1.60335 1.76734,3.58119c0,1.97784 -0.79127,3.58119 -1.76734,3.58119c-0.97607,0 -1.76734,-1.60335 -1.76734,-3.58119z" fill="#000000" stroke="#000000" stroke-width="1.28786" stroke-linecap="butt"/><path d="M340.37527,160.74588c0,0 -1.33476,-0.44744 -2.21042,-0.43475c-1.47337,0.02136 -5.81238,0.55102 -5.81238,0.55102c0,0 2.02374,-2.47886 3.95326,-3.02308c1.92953,-0.54423 5.11598,0.46509 5.11598,0.46509z" fill="#279400" stroke="#000000" stroke-width="1.28786" stroke-linecap="round"/><path d="M352.70014,158.76925c0,-0.59934 0.48587,-1.08521 1.08521,-1.08521c0.59934,0 1.08521,0.48587 1.08521,1.08521c0,0.59934 -0.48587,1.08521 -1.08521,1.08521c-0.59934,0 -1.08521,-0.48587 -1.08521,-1.08521z" fill="#ffffff" stroke="none" stroke-width="0" stroke-linecap="butt"/><path d="M359.05636,156.52132c0,-0.59934 0.48587,-1.08521 1.08521,-1.08521c0.59934,0 1.08521,0.48587 1.08521,1.08521c0,0.59934 -0.48587,1.08521 -1.08521,1.08521c-0.59934,0 -1.08521,-0.48587 -1.08521,-1.08521z" fill="#ffffff" stroke="none" stroke-width="0" stroke-linecap="butt"/></g><g><path d="M333.54926,185.07792c0.7699,-6.56923 6.71944,-11.27051 13.28867,-10.50061c6.56923,0.7699 11.27051,6.71944 10.50061,13.28867c-0.7699,6.56923 -6.71944,11.27051 -13.28867,10.50061c-6.56923,-0.7699 -11.27051,-6.71944 -10.50061,-13.28867z" fill="#42ff00" stroke="#000000" stroke-width="1.28786" stroke-linecap="butt"/><path d="M367.43398,192.80786c-2.37469,5.15851 -7.12868,6.00606 -10.04171,4.66504c-2.91304,-1.341 -4.08352,-4.50356 -1.70882,-9.66206c2.37469,-5.15851 6.44911,-8.52166 9.36214,-7.18065c2.91304,1.341 4.76307,7.01916 2.38837,12.17766z" fill="#42ff00" stroke="#000000" stroke-width="1.28786" stroke-linecap="butt"/><path d="M366.03243,192.00098c-1.52841,3.32015 -4.58821,3.86566 -6.46312,3.00256c-1.87491,-0.86311 -2.62825,-2.89861 -1.09984,-6.21876c1.52841,-3.32015 4.15082,-5.48478 6.02573,-4.62167c1.87491,0.86311 3.06563,4.51773 1.53722,7.83788z" fill="#000000" stroke="#000000" stroke-width="1.28786" stroke-linecap="butt"/><path d="M345.58974,184.60658c0.23952,-2.04376 1.41272,-3.58581 2.62039,-3.44428c1.20768,0.14153 1.99252,1.91307 1.753,3.95683c-0.23952,2.04376 -1.41271,3.58581 -2.62038,3.44428c-1.20768,-0.14153 -1.99252,-1.91307 -1.753,-3.95683z" fill="#000000" stroke="#000000" stroke-width="1.28786" stroke-linecap="butt"/><path d="M352.58407,182.91726c0.23952,-2.04376 1.25133,-3.60473 2.25994,-3.48651c1.00861,0.1182 1.63208,1.87084 1.39255,3.91459c-0.23952,2.04376 -1.25134,3.60473 -2.25995,3.48651c-1.00861,-0.1182 -1.63208,-1.87084 -1.39254,-3.91459z" fill="#000000" stroke="#000000" stroke-width="1.28786" stroke-linecap="butt"/><path d="M333.1027,183.95498c0,0 -1.32507,-0.62399 -2.23145,-0.71692c-1.52506,-0.15638 -6.07284,-0.13453 -6.07284,-0.13453c0,0 2.39138,-2.3164 4.45114,-2.64509c2.05976,-0.32869 5.23019,1.10016 5.23019,1.10016z" fill="#279400" stroke="#000000" stroke-width="1.28786" stroke-linecap="round"/><path d="M346.07775,183.40505c0.07259,-0.61932 0.63349,-1.06254 1.25281,-0.98996c0.61932,0.07259 1.06254,0.63348 0.98996,1.2528c-0.07259,0.61932 -0.63349,1.06254 -1.25281,0.98996c-0.61932,-0.07259 -1.06254,-0.63348 -0.98996,-1.2528z" fill="#ffffff" stroke="none" stroke-width="0" stroke-linecap="butt"/><path d="M352.91808,181.85197c0.07259,-0.61932 0.63349,-1.06255 1.25281,-0.98996c0.61932,0.07259 1.06254,0.63349 0.98996,1.25281c-0.07259,0.61932 -0.63349,1.06254 -1.25281,0.98995c-0.61932,-0.07259 -1.06254,-0.63348 -0.98996,-1.2528z" fill="#ffffff" stroke="none" stroke-width="0" stroke-linecap="butt"/></g><path d="M363.9553,205.8363c0,2.15764 -3.16506,3.90675 -7.06935,3.90675c-3.9043,0 -7.06935,-1.74911 -7.06935,-3.90675c0,-2.15764 3.16506,-3.90675 7.06935,-3.90675c3.9043,0 7.06935,1.74911 7.06935,3.90675z" fill="#42ff00" stroke="#000000" stroke-width="1.28786" stroke-linecap="butt"/></g></g></svg>