<svg version="1.1" xmlns="http://www.w3.org/2000/svg" xmlns:xlink="http://www.w3.org/1999/xlink" width="64.75469" height="88.41618" viewBox="0,0,64.75469,88.41618"><defs><linearGradient x1="360.95334" y1="137.31686" x2="360.95334" y2="222.1308" gradientUnits="userSpaceOnUse" id="color-1"><stop offset="0" stop-color="#555555"/><stop offset="1" stop-color="#00ff94"/></linearGradient><linearGradient x1="360.59164" y1="209.32887" x2="360.59164" y2="222.14281" gradientUnits="userSpaceOnUse" id="color-2"><stop offset="0" stop-color="#7c7c7c"/><stop offset="1" stop-color="#7a7a7a"/></linearGradient><linearGradient x1="333.4166" y1="137.29881" x2="333.4166" y2="222.11282" gradientUnits="userSpaceOnUse" id="color-3"><stop offset="0" stop-color="#969696"/><stop offset="1" stop-color="#7a7a7a"/></linearGradient><linearGradient x1="388.75416" y1="137.36757" x2="388.75416" y2="222.18158" gradientUnits="userSpaceOnUse" id="color-4"><stop offset="0" stop-color="#969696"/><stop offset="1" stop-color="#7a7a7a"/></linearGradient><linearGradient x1="347.45662" y1="190.23432" x2="347.45662" y2="211.2362" gradientUnits="userSpaceOnUse" id="color-5"><stop offset="0" stop-color="#858585"/><stop offset="1" stop-color="#818181"/></linearGradient><linearGradient x1="366.03235" y1="202.82136" x2="366.03235" y2="214.97976" gradientUnits="userSpaceOnUse" id="color-6"><stop offset="0" stop-color="#808080"/><stop offset="1" stop-color="#7d7d7d"/></linearGradient></defs><g transform="translate(-328.15141,-137.08963)"><g stroke-miterlimit="10"><path d="M392.40104,137.31686v84.81396h-62.89539v-84.81396z" fill="url(#color-1)" stroke="none" stroke-width="0" stroke-linecap="butt"/><g><path d="M354.85484,199.06742c0,1.86277 -2.01169,3.37285 -4.49325,3.37285c-2.48155,0 -4.49325,-1.51007 -4.49325,-3.37285c0,-1.86277 2.01169,-3.37285 4.49325,-3.37285c2.48155,0 4.49325,1.51007 4.49325,3.37285z" fill="#3ce200" stroke="#000000" stroke-width="1.28786" stroke-linecap="butt"/><path d="M360.83739,194.36504c1.62434,1.25957 1.64774,3.94857 0.05229,6.00606c-1.59545,2.05749 -4.2056,2.70433 -5.82994,1.44476c-1.62434,-1.25957 -1.64774,-3.94857 -0.05229,-6.00606c1.59545,-2.05749 4.20561,-2.70433 5.82994,-1.44476z" fill="#2fb200" stroke="#000000" stroke-width="1.28786" stroke-linecap="butt"/><path d="M367.52434,199.26125c0,1.927 -2.17659,3.48915 -4.86155,3.48915c-2.68496,0 -4.86155,-1.56215 -4.86155,-3.48915c0,-1.927 2.17659,-3.48915 4.86155,-3.48915c2.68496,0 4.86155,1.56215 4.86155,3.48915z" fill="#3ce200" stroke="#000000" stroke-width="1.28786" stroke-linecap="butt"/><path d="M355.4946,200.40487c0,0 -5.37403,-9.6734 -6.76574,-14.27172c-1.25174,-4.1358 -1.20922,-12.07801 -1.20922,-12.07801l3.89639,0.73172c0,0 0.2201,7.52091 1.58517,11.00118c1.59964,4.0783 5.35855,12.25485 5.35855,12.25485z" fill="#42ff00" stroke="#000000" stroke-width="1.28786" stroke-linecap="butt"/><path d="M347.2,194.47499l3.41139,-0.63495c0,0 1.10374,1.3889 2.05678,1.92196c1.11996,0.62641 4.09605,2.48577 4.09605,2.48577l-1.9382,2.84474c0,0 -3.69416,-1.29901 -4.95984,-2.39731c-1.27625,-1.10747 -2.66619,-4.22021 -2.66619,-4.22021z" fill="#42ff00" stroke="#000000" stroke-width="1.28786" stroke-linecap="butt"/><path d="M357.33995,197.71582c0,0 4.26655,-3.74428 6.04776,-6.14104c1.633,-2.19734 4.23353,-7.6933 4.23353,-7.6933l3.66551,2.7241c0,0 -2.28608,4.81072 -3.97007,7.07667c-0.83349,1.12154 -3.79744,4.24225 -5.84683,5.1083c-2.23186,0.94317 -3.59377,0.31718 -3.59377,0.31718z" fill="#42ff00" stroke="#000000" stroke-width="1.28786" stroke-linecap="butt"/><path d="M365.74108,181.0251c0,0 -0.91294,-0.27736 -1.50595,-0.25184c-0.99779,0.04293 -3.92722,0.48559 -3.92722,0.48559c0,0 1.32319,-1.71851 2.61993,-2.12449c1.29674,-0.40598 3.47505,0.21627 3.47505,0.21627z" fill="#279400" stroke="#000000" stroke-width="1.28786" stroke-linecap="round"/><path d="M365.51529,176.58454c0,0 -0.65799,-0.79153 -1.20742,-1.12036c-0.92446,-0.55329 -3.82644,-1.89246 -3.82644,-1.89246c0,0 2.21173,-0.76331 3.62093,-0.35976c1.40919,0.40355 3.00263,2.25655 3.00263,2.25655z" fill="#279400" stroke="#000000" stroke-width="1.28786" stroke-linecap="round"/><path d="M365.60658,178.98271c0.47009,-4.2831 4.32331,-7.37415 8.60641,-6.90406c4.2831,0.47009 7.37415,4.32331 6.90407,8.60641c-0.47009,4.2831 -4.32331,7.37415 -8.60641,6.90406c-4.2831,-0.47009 -7.37415,-4.32331 -6.90407,-8.60641z" fill="#42ff00" stroke="#000000" stroke-width="1.28786" stroke-linecap="butt"/><path d="M387.71722,183.85603c-1.52226,3.37179 -4.6151,3.94666 -6.51917,3.08704c-1.90407,-0.85963 -2.68169,-2.91421 -1.15944,-6.28601c1.52226,-3.37179 4.16037,-5.58217 6.06444,-4.72254c1.90407,0.85963 3.13643,4.54972 1.61417,7.92151z" fill="#42ff00" stroke="#000000" stroke-width="1.28786" stroke-linecap="butt"/><path d="M386.80035,183.33711c-0.97977,2.17017 -2.97041,2.54018 -4.19592,1.9869c-1.22551,-0.55328 -1.72601,-1.87567 -0.74624,-4.04584c0.97977,-2.17017 2.67773,-3.59284 3.90323,-3.03956c1.22551,0.55328 2.01869,2.92833 1.03892,5.0985z" fill="#000000" stroke="#000000" stroke-width="1.28786" stroke-linecap="butt"/><path d="M373.44789,178.61802c0.14625,-1.33252 0.90312,-2.34269 1.69052,-2.25626c0.7874,0.08642 1.30715,1.2367 1.1609,2.56922c-0.14625,1.33252 -0.90312,2.34269 -1.69052,2.25626c-0.7874,-0.08642 -1.30715,-1.2367 -1.1609,-2.56922z" fill="#000000" stroke="#000000" stroke-width="1.28786" stroke-linecap="butt"/><path d="M377.99614,177.48406c0.14625,-1.33252 0.7979,-2.35423 1.45551,-2.28206c0.65761,0.07217 1.07215,1.21091 0.9259,2.54343c-0.14625,1.33252 -0.79791,2.35423 -1.45552,2.28206c-0.65761,-0.07217 -1.07214,-1.21091 -0.92589,-2.54343z" fill="#000000" stroke="#000000" stroke-width="1.28786" stroke-linecap="butt"/><path d="M365.3103,178.25331c0,0 -0.86617,-0.40014 -1.45707,-0.45634c-0.99423,-0.09457 -3.95669,-0.05856 -3.95669,-0.05856c0,0 1.54673,-1.52042 2.88695,-1.74441c1.34022,-0.22398 3.41239,0.69164 3.41239,0.69164z" fill="#279400" stroke="#000000" stroke-width="1.28786" stroke-linecap="round"/><path d="M373.76005,177.83297c0.04432,-0.40379 0.40759,-0.6952 0.81138,-0.65089c0.40379,0.04432 0.6952,0.40759 0.65089,0.81138c-0.04432,0.40379 -0.40759,0.6952 -0.81138,0.65089c-0.40379,-0.04432 -0.69521,-0.40759 -0.65089,-0.81138z" fill="#ffffff" stroke="none" stroke-width="0" stroke-linecap="butt"/><path d="M378.20863,176.78849c0.04432,-0.40379 0.40759,-0.69521 0.81138,-0.65089c0.40379,0.04432 0.6952,0.40759 0.65089,0.81138c-0.04432,0.40379 -0.40759,0.6952 -0.81138,0.65089c-0.40379,-0.04432 -0.6952,-0.40758 -0.65089,-0.81138z" fill="#ffffff" stroke="none" stroke-width="0" stroke-linecap="butt"/><g><path d="M343.4261,163.40475c0,0 -0.86508,-0.8354 -1.5451,-1.14728c-1.14419,-0.52477 -4.68524,-1.71015 -4.68524,-1.71015c0,0 2.4714,-1.16844 4.15948,-0.87938c1.68807,0.28906 3.77489,2.23801 3.77489,2.23801z" fill="#279400" stroke="#000000" stroke-width="1.28786" stroke-linecap="round"/><path d="M343.83781,166.17834c0,-5.0343 4.0811,-9.11541 9.11541,-9.11541c5.0343,0 9.11541,4.0811 9.11541,9.11541c0,5.0343 -4.0811,9.11541 -9.11541,9.11541c-5.0343,0 -9.11541,-4.0811 -9.11541,-9.11541z" fill="#42ff00" stroke="#000000" stroke-width="1.28786" stroke-linecap="butt"/><path d="M370.13823,169.01978c-1.33815,4.11003 -4.85689,5.17193 -7.17784,4.41627c-2.32096,-0.75567 -3.48598,-3.04273 -2.14783,-7.15276c1.33815,-4.11003 4.12029,-7.01342 6.44125,-6.25777c2.32096,0.75567 4.22258,4.88423 2.88443,8.99425z" fill="#42ff00" stroke="#000000" stroke-width="1.28786" stroke-linecap="butt"/><path d="M369.00723,168.53399c-0.86127,2.64533 -3.12603,3.32879 -4.61986,2.84243c-1.49383,-0.48636 -2.24367,-1.95838 -1.3824,-4.60371c0.86127,-2.64533 2.65193,-4.51403 4.14576,-4.02767c1.49383,0.48636 2.71777,3.14362 1.8565,5.78895z" fill="#000000" stroke="#000000" stroke-width="1.28786" stroke-linecap="butt"/><path d="M352.8982,164.75528c0,-1.56623 0.75026,-2.8359 1.67576,-2.8359c0.9255,0 1.67576,1.26967 1.67576,2.8359c0,1.56623 -0.75026,2.8359 -1.67576,2.8359c-0.9255,0 -1.67576,-1.26967 -1.67576,-2.8359z" fill="#000000" stroke="#000000" stroke-width="1.28786" stroke-linecap="butt"/><path d="M358.03598,162.85853c0,-1.56623 0.6266,-2.8359 1.39954,-2.8359c0.77294,0 1.39954,1.26967 1.39954,2.8359c0,1.56623 -0.6266,2.8359 -1.39954,2.8359c-0.77294,0 -1.39954,-1.26967 -1.39954,-2.8359z" fill="#000000" stroke="#000000" stroke-width="1.28786" stroke-linecap="butt"/><path d="M343.40074,165.369c0,0 -1.05698,-0.35432 -1.7504,-0.34427c-1.16675,0.01691 -4.60276,0.43635 -4.60276,0.43635c0,0 1.60257,-1.96298 3.13054,-2.39395c1.52797,-0.43097 4.05129,0.3683 4.05129,0.3683z" fill="#279400" stroke="#000000" stroke-width="1.28786" stroke-linecap="round"/><path d="M353.16067,163.80372c0,-0.47461 0.38475,-0.85937 0.85937,-0.85937c0.47461,0 0.85937,0.38475 0.85937,0.85937c0,0.47461 -0.38475,0.85937 -0.85937,0.85937c-0.47461,0 -0.85937,-0.38475 -0.85937,-0.85937z" fill="#ffffff" stroke="none" stroke-width="0" stroke-linecap="butt"/><path d="M358.19409,162.02362c0,-0.47461 0.38475,-0.85937 0.85937,-0.85937c0.47461,0 0.85937,0.38475 0.85937,0.85937c0,0.47461 -0.38475,0.85937 -0.85937,0.85937c-0.47461,0 -0.85937,-0.38475 -0.85937,-0.85937z" fill="#ffffff" stroke="none" stroke-width="0" stroke-linecap="butt"/></g><g><path d="M337.9953,184.63728c0.60968,-5.20211 5.32105,-8.92499 10.52316,-8.31532c5.20211,0.60968 8.92499,5.32105 8.31532,10.52316c-0.60968,5.20211 -5.32105,8.92499 -10.52316,8.31532c-5.20211,-0.60968 -8.92499,-5.32105 -8.31532,-10.52316z" fill="#42ff00" stroke="#000000" stroke-width="1.28786" stroke-linecap="butt"/><path d="M364.82824,190.75853c-1.88049,4.08497 -5.64512,4.75613 -7.95192,3.6942c-2.3068,-1.06192 -3.23369,-3.56632 -1.35319,-7.65128c1.88049,-4.08497 5.10698,-6.74821 7.41378,-5.68628c2.3068,1.06192 3.77183,5.5584 1.89133,9.64336z" fill="#42ff00" stroke="#000000" stroke-width="1.28786" stroke-linecap="butt"/><path d="M363.71837,190.11958c-1.21033,2.62919 -3.63335,3.06118 -5.11808,2.37769c-1.48472,-0.68348 -2.08128,-2.29538 -0.87095,-4.92457c1.21033,-2.62919 3.28699,-4.34334 4.77171,-3.65985c1.48472,0.68348 2.42764,3.57754 1.21731,6.20674z" fill="#000000" stroke="#000000" stroke-width="1.28786" stroke-linecap="butt"/><path d="M347.53002,184.26403c0.18967,-1.61843 1.11872,-2.83957 2.07506,-2.72749c0.95635,0.11208 1.57785,1.51494 1.38818,3.13337c-0.18967,1.61843 -1.11871,2.83957 -2.07505,2.72749c-0.95635,-0.11208 -1.57785,-1.51494 -1.38818,-3.13337z" fill="#000000" stroke="#000000" stroke-width="1.28786" stroke-linecap="butt"/><path d="M353.06876,182.92628c0.18967,-1.61843 0.99092,-2.85455 1.78962,-2.76093c0.79871,0.09361 1.29242,1.48149 1.10275,3.09992c-0.18967,1.61843 -0.99092,2.85455 -1.78963,2.76093c-0.79871,-0.09361 -1.29242,-1.48149 -1.10274,-3.09992z" fill="#000000" stroke="#000000" stroke-width="1.28786" stroke-linecap="butt"/><path d="M337.64167,183.74803c0,0 -1.0493,-0.49413 -1.76706,-0.56772c-1.20768,-0.12383 -4.80901,-0.10653 -4.80901,-0.10653c0,0 1.89371,-1.83433 3.52481,-2.09462c1.6311,-0.26028 4.14173,0.8712 4.14173,0.8712z" fill="#279400" stroke="#000000" stroke-width="1.28786" stroke-linecap="round"/><path d="M347.91647,183.31256c0.05748,-0.49044 0.50165,-0.84141 0.99209,-0.78394c0.49044,0.05748 0.84141,0.50164 0.78394,0.99208c-0.05748,0.49044 -0.50165,0.84141 -0.99209,0.78394c-0.49044,-0.05748 -0.84141,-0.50164 -0.78394,-0.99208z" fill="#ffffff" stroke="none" stroke-width="0" stroke-linecap="butt"/><path d="M353.33326,182.08269c0.05748,-0.49044 0.50165,-0.84142 0.99209,-0.78394c0.49044,0.05748 0.84141,0.50165 0.78394,0.99209c-0.05748,0.49044 -0.50165,0.84141 -0.99209,0.78393c-0.49044,-0.05748 -0.84141,-0.50164 -0.78394,-0.99208z" fill="#ffffff" stroke="none" stroke-width="0" stroke-linecap="butt"/></g><path d="M362.07351,201.07562c0,1.70861 -2.50638,3.09371 -5.59814,3.09371c-3.09178,0 -5.59814,-1.3851 -5.59814,-3.09371c0,-1.70861 2.50638,-3.09371 5.59814,-3.09371c3.09178,0 5.59814,1.3851 5.59814,3.09371z" fill="#42ff00" stroke="#000000" stroke-width="1.28786" stroke-linecap="butt"/></g><path d="M329.14394,222.14281v-12.81396h62.89539v12.81396z" fill="url(#color-2)" stroke="none" stroke-width="0" stroke-linecap="butt"/><path d="M329.0939,222.11282v-84.81396h8.64539v84.81396z" fill="url(#color-3)" stroke="none" stroke-width="0" stroke-linecap="butt"/><path d="M384.68148,222.18158v-84.81396h8.14539v84.81396z" fill="url(#color-4)" stroke="none" stroke-width="0" stroke-linecap="butt"/><path d="M329.14394,147.40359v-10.31396h62.89539v10.31396z" fill="#969696" stroke="none" stroke-width="0" stroke-linecap="butt"/><path d="M336.88896,211.2362v-21.00188l21.13534,21.00188z" fill="url(#color-5)" stroke="none" stroke-width="0" stroke-linecap="butt"/><path d="M344.00343,214.97976v-12.15842h44.05785v12.15842z" fill="url(#color-6)" stroke="none" stroke-width="0" stroke-linecap="butt"/><text transform="translate(359.15564,219.25581) scale(0.47116,0.5)" font-size="40" xml:space="preserve" fill="#000000" stroke="none" stroke-width="1" stroke-linecap="butt" font-family="Sans Serif" font-weight="normal" text-anchor="start"><tspan x="0" dy="0">300</tspan></text><g stroke-linecap="butt"><path d="M344.52762,213.44923l-2.65375,6.84999l-2.38631,-6.84999z" fill="#ffff00" stroke="#ffff00" stroke-width="1"/><path d="M339.55937,202.07342l2.38632,-6.84999l2.65375,6.84999z" fill="#ffff00" stroke="#ffff00" stroke-width="1"/><path d="M335.37596,207.97259c0,-3.72115 3.01658,-6.73773 6.73773,-6.73773c3.72115,0 6.73772,3.01658 6.73772,6.73773c0,3.72115 -3.01658,6.73772 -6.73772,6.73772c-3.72115,0 -6.73773,-3.01658 -6.73773,-6.73772z" fill="#ffff00" stroke="none" stroke-width="0"/><path d="M347.80397,205.43749l6.87114,2.59848l-6.83054,2.44142z" fill="#ffff00" stroke="#ffff00" stroke-width="1"/><path d="M336.46853,210.49722l-6.86899,-2.33105l6.82838,-2.70885z" fill="#ffff00" stroke="#ffff00" stroke-width="1"/><path d="M348.11956,210.08398l3.04475,6.68537l-6.56714,-3.08051z" fill="#ffff00" stroke="#ffff00" stroke-width="1"/><path d="M336.51088,205.68721l-3.23165,-6.49409l6.75404,2.88922z" fill="#ffff00" stroke="#ffff00" stroke-width="1"/><path d="M344.67899,202.14138l6.66063,-3.0985l-3.02751,6.59174z" fill="#ffff00" stroke="#ffff00" stroke-width="1"/><path d="M340.37584,213.78509l-6.46785,3.28387l2.83472,-6.7771z" fill="#ffff00" stroke="#ffff00" stroke-width="1"/><path d="M337.39221,208.17317c0,-2.70702 2.19448,-4.90151 4.9015,-4.90151c2.70702,0 4.90151,2.19448 4.90151,4.90151c0,2.70702 -2.19448,4.9015 -4.90151,4.9015c-2.70702,0 -4.9015,-2.19448 -4.9015,-4.9015z" fill="#fffff7" stroke="none" stroke-width="0"/></g><path d="M392.9061,137.19467v33.64619l-33.86,-33.64619z" fill="#3aff00" stroke="none" stroke-width="0" stroke-linecap="butt"/></g></g></svg>