<svg version="1.1" xmlns="http://www.w3.org/2000/svg" xmlns:xlink="http://www.w3.org/1999/xlink" width="51.03855" height="53.54762" viewBox="0,0,51.03855,53.54762"><g transform="translate(-216.00561,-160.01172)"><g data-paper-data="{&quot;isPaintingLayer&quot;:true}" fill-rule="nonzero" stroke-linejoin="miter" stroke-miterlimit="10" stroke-dasharray="" stroke-dashoffset="0" style="mix-blend-mode: normal"><path d="M217.30156,172.91067l6.64231,3.22953c0,0 -4.77399,4.79523 -1.11187,9.81027c5.80368,7.94779 14.37828,11.70621 14.37828,11.70621l-3.96432,5.33298c0,0 -12.50015,-9.06627 -15.29305,-14.33504c-2.48613,-4.69007 -0.65136,-15.74396 -0.65136,-15.74396z" fill="#7a7a7a" stroke="#000000" stroke-width="1.28786" stroke-linecap="butt"></path><path d="M228.00343,170.21699c-2.08198,5.44292 -5.92142,9.28897 -8.57561,8.5904c-2.65419,-0.69858 -3.11806,-5.67723 -1.03608,-11.12015c0.76352,-1.99608 2.45688,-5.8258 3.20734,-6.43796c1.2959,-1.05709 1.85967,1.7341 3.36843,2.59694c2.80801,1.60587 4.93328,-1.26624 5.28686,0.27301c0.20019,0.8715 -1.52075,4.18886 -2.25093,6.09777z" fill="#a3a3a3" stroke="#000000" stroke-width="1.28786" stroke-linecap="butt"></path><path d="M246.85174,198.12858c1.09009,3.98929 -3.59851,8.74588 -10.47227,10.62416c-6.87377,1.87829 -13.32973,0.16698 -14.41982,-3.82231c-1.09009,-3.98928 3.59851,-8.74588 10.47227,-10.62416c6.87377,-1.87828 13.32973,-0.16697 14.41982,3.82232z" fill="#00ff07" stroke="#000000" stroke-width="1.28786" stroke-linecap="butt"></path><path d="M262.84705,208.49688c0,-0.44277 0.09992,-0.80171 0.22316,-0.80171c0.12325,0 0.22317,0.35893 0.22317,0.80171c0,0.44277 -0.09992,0.80171 -0.22317,0.80171c-0.12325,0 -0.22316,-0.35893 -0.22316,-0.80171z" fill="#ba0000" stroke="#000000" stroke-width="1.28786" stroke-linecap="butt"></path><path d="M261.42255,197.38414c4.79317,4.01648 6.40424,9.98689 3.59842,13.3353c-2.80582,3.34841 -8.96603,2.80684 -13.7592,-1.20962c-4.79317,-4.01648 -6.40424,-9.98688 -3.59842,-13.3353c2.80582,-3.34841 8.96603,-2.80685 13.7592,1.20961z" fill="#00ff07" stroke="#000000" stroke-width="1.28786" stroke-linecap="butt"></path><path d="M260.87988,185.97485c0,8.17066 -7.31231,14.79429 -16.3325,14.79429c-9.02019,0 -16.3325,-6.62362 -16.3325,-14.79429c0,-8.17066 7.31231,-14.79429 16.3325,-14.79429c6.1242,0 7.08045,4.62359 9.8761,9.14129c1.32199,2.13631 6.45641,3.02975 6.45641,5.65299z" fill="#ffffff" stroke="#000000" stroke-width="1.28786" stroke-linecap="butt"></path><path d="M252.58213,177.07673c1.75178,4.97743 -1.39072,0.79217 -12.26053,7.58335c-5.2042,3.25146 -7.31125,8.05671 -9.86447,6.74994c-1.00212,-0.51289 -2.30553,-4.84016 -1.02073,-9.41651c1.16641,-4.15467 4.71307,-8.55824 7.88902,-9.676c6.67426,-2.34898 13.50492,-0.2182 15.25671,4.75922z" fill="#c06fc9" stroke="#000000" stroke-width="1.28786" stroke-linecap="butt"></path><path d="M230.83754,183.44134l-4.8948,-12.63938l11.10974,7.24063z" fill="#c06fc9" stroke="#000000" stroke-width="1.28786" stroke-linecap="butt"></path><path d="M243.35165,173.39565l7.36077,-11.03051l0.47799,13.54564z" data-paper-data="{&quot;index&quot;:null}" fill="#c06fc9" stroke="#000000" stroke-width="1.28786" stroke-linecap="butt"></path><path d="M243.7718,182.31404l1.7688,10.0006" fill="none" stroke="#000000" stroke-width="1.28786" stroke-linecap="round"></path><path d="M251.85197,190.00402l-1.53202,-6.65274l5.61891,-1.80005" fill="none" stroke="#000000" stroke-width="1.28786" stroke-linecap="round"></path><path d="M230.5012,164.34662c0.42368,-1.03622 -1.22002,-2.68872 -3.67131,-3.69097c-2.45129,-1.00225 -4.7819,-0.97472 -5.20557,0.0615c-0.42368,1.03622 1.22002,2.68873 3.67131,3.69098c2.45129,1.00225 4.7819,0.97472 5.20557,-0.0615z" fill="#606060" stroke="#000000" stroke-width="1.28786" stroke-linecap="butt"></path><path d="M227.57011,163.09683c-0.24504,0.53656 -1.12671,0.65959 -1.96927,0.2748c-0.84256,-0.38478 -1.32694,-1.13168 -1.0819,-1.66824c0.24504,-0.53656 1.12671,-0.65959 1.96927,-0.2748c0.84256,0.38478 1.32694,1.13168 1.0819,1.66824z" fill="#00fff9" stroke="#000000" stroke-width="1.28786" stroke-linecap="butt"></path><path d="M219.27606,165.97114l1.1035,-2.03834l5.51584,2.9861l-1.10349,2.03835z" fill="#00fff9" stroke="#000000" stroke-width="1.28786" stroke-linecap="butt"></path><path d="M217.59473,170.23488l1.10349,-2.03834l4.20686,2.37708l-1.03078,2.13834z" fill="#00fff9" stroke="#000000" stroke-width="1.28786" stroke-linecap="butt"></path><path d="M217.06786,175.08035l0.85806,-2.13833l2.6797,1.68626l-0.86715,1.54751z" fill="#00fff9" stroke="#000000" stroke-width="1.28786" stroke-linecap="butt"></path><path d="M237.21953,194.19769l-2.60374,-9.40026l11.91518,-3.19249l1.95833,9.58207z" fill="#00fff9" stroke="#000000" stroke-width="1.28786" stroke-linecap="butt"></path><path d="M232.47943,196.04139c0,0 -2.32144,-3.00675 -3.03938,-4.69754c-0.68653,-1.61683 -1.17826,-5.23525 -1.17826,-5.23525l5.84689,-1.38434l2.85411,9.69646z" fill="#adadad" stroke="#000000" stroke-width="1.28786" stroke-linecap="butt"></path><path d="M244.88115,187.89796c0.54876,1.58437 1.19067,2.6913 0.30118,2.99938c-0.88949,0.30808 -0.89186,-0.57204 -1.44062,-2.15642c-0.54876,-1.58437 -1.4361,-3.27304 -0.54662,-3.58112c0.88949,-0.30808 1.13729,1.15378 1.68605,2.73816z" fill="#00c8c8" stroke="none" stroke-width="0" stroke-linecap="butt"></path><path d="M239.02272,187.21935l4.27401,-1.16922" fill="none" stroke="#00c8c8" stroke-width="1.5" stroke-linecap="round"></path><path d="M241.50718,194.47602c0,0 -2.44327,2.34565 -1.32768,2.88851c1.11559,0.54286 7.14948,-0.05555 7.14948,-0.05555" fill="#f9ffff" stroke="#000000" stroke-width="1.28786" stroke-linecap="round"></path><path d="M241.53897,194.53454c0,0 0.64158,1.3156 2.21882,1.8173c4.42495,1.40754 8.64039,0.24244 8.64039,0.24244" fill="none" stroke="#000000" stroke-width="1.28786" stroke-linecap="round"></path></g></g></svg>