<svg version="1.1" xmlns="http://www.w3.org/2000/svg" xmlns:xlink="http://www.w3.org/1999/xlink" width="96.1724" height="97.26079" viewBox="0,0,96.1724,97.26079"><g transform="translate(-191.9138,-131.23755)"><g data-paper-data="{&quot;isPaintingLayer&quot;:true}" fill-rule="nonzero" stroke-linecap="butt" stroke-linejoin="miter" stroke-miterlimit="10" stroke-dasharray="" stroke-dashoffset="0" style="mix-blend-mode: normal"><path d="M192.4138,226.60092v-64.88824v-9.24098c0,0 2.20499,0 4.81102,0c11.2941,0 90.36138,0 90.36138,0v74.12922z" fill="#afafaf" stroke="#000000" stroke-width="1"></path><path d="M192.4138,205.86677v-64.88824v-9.24098c0,0 2.20499,0 4.81102,0c11.2941,0 90.36138,0 90.36138,0v74.12922z" fill="#afafaf" stroke="#000000" stroke-width="1"></path><text transform="translate(227.49782,222.60709) scale(0.4713,0.4713)" font-size="40" xml:space="preserve" fill="#000000" fill-rule="nonzero" stroke="none" stroke-width="1" stroke-linecap="butt" stroke-linejoin="miter" stroke-miterlimit="10" stroke-dasharray="" stroke-dashoffset="0" font-family="Sans Serif" font-weight="normal" text-anchor="start" style="mix-blend-mode: normal"><tspan x="0" dy="0">3-1</tspan></text><path d="M196.91902,199.90347v-60.82023h86.62275v60.82023z" fill="#939393" stroke="#000000" stroke-width="1"></path><path d="M196.68347,199.97841v-60.82023h86.62275v60.82023z" fill="none" stroke="#000000" stroke-width="1"></path><path d="M253.7116,131.95688h33.838v33.838z" fill="#ff0000" stroke="#000000" stroke-width="1"></path><g stroke="#000000" stroke-width="0.5"><path d="M235.44545,194.99409v-44.97785h9.11281v44.97785z" fill="#0b8100"></path><path d="M235.45849,195.05357v-26.05261h9.19628v26.05261z" fill="#740000"></path><path d="M235.45849,180.95662v-11.95564h4.21947z" fill="#ffffff"></path><path d="M235.39373,176.74563v-7.85147h2.77101z" fill="#ff0000"></path><path d="M239.40337,158.40971c0,2.75781 -0.70588,4.99347 -1.57662,4.99347c-0.87074,0 -1.57661,-2.23564 -1.57661,-4.99347c0,-2.75781 0.70588,-4.99347 1.57661,-4.99347c0.87074,0 1.57662,2.23564 1.57662,4.99347z" fill="#000000"></path></g></g></g></svg>