<svg version="1.1" xmlns="http://www.w3.org/2000/svg" xmlns:xlink="http://www.w3.org/1999/xlink" width="96.1724" height="97.26079" viewBox="0,0,96.1724,97.26079"><defs><linearGradient x1="227.09756" y1="144.11955" x2="227.09756" y2="196.15404" gradientUnits="userSpaceOnUse" id="color-1"><stop offset="0" stop-color="#1dffce"></stop><stop offset="1" stop-color="#30beff"></stop></linearGradient></defs><g transform="translate(-191.9138,-131.23755)"><g data-paper-data="{&quot;isPaintingLayer&quot;:true}" fill-rule="nonzero" stroke-linejoin="miter" stroke-miterlimit="10" stroke-dasharray="" stroke-dashoffset="0" style="mix-blend-mode: normal"><path d="M192.4138,226.60092v-64.88824v-9.24098c0,0 2.20499,0 4.81102,0c11.2941,0 90.36138,0 90.36138,0v74.12922z" fill="#afafaf" stroke="#000000" stroke-width="1" stroke-linecap="butt"></path><path d="M192.4138,205.86677v-64.88824v-9.24098c0,0 2.20499,0 4.81102,0c11.2941,0 90.36138,0 90.36138,0v74.12922z" fill="#afafaf" stroke="#000000" stroke-width="1" stroke-linecap="butt"></path><text transform="translate(227.49782,222.60709) scale(0.4713,0.4713)" font-size="40" xml:space="preserve" fill="#000000" fill-rule="nonzero" stroke="none" stroke-width="1" stroke-linecap="butt" stroke-linejoin="miter" stroke-miterlimit="10" stroke-dasharray="" stroke-dashoffset="0" font-family="Sans Serif" font-weight="normal" text-anchor="start" style="mix-blend-mode: normal"><tspan x="0" dy="0">3-4</tspan></text><path d="M196.91902,199.90347v-60.82023h86.62275v60.82023z" fill="#939393" stroke="#000000" stroke-width="1" stroke-linecap="butt"></path><path d="M196.68347,199.97841v-60.82023h86.62275v60.82023z" fill="none" stroke="#000000" stroke-width="1" stroke-linecap="butt"></path><g stroke-linecap="butt"><text transform="translate(242.10621,173.5706) scale(0.25918,0.36956)" font-size="40" xml:space="preserve" data-paper-data="{&quot;index&quot;:null}" fill="#000000" fill-rule="nonzero" stroke="none" stroke-width="1" stroke-linecap="butt" stroke-linejoin="miter" stroke-miterlimit="10" stroke-dasharray="" stroke-dashoffset="0" font-family="Sans Serif" font-weight="normal" text-anchor="start" style="mix-blend-mode: normal"><tspan x="0" dy="0">💪</tspan></text><path d="M251.26112,196.56614v-50.42839h10.21713v50.42839z" fill="#0b8100" stroke="#000000" stroke-width="0.5"></path><path d="M251.27574,196.63283v-29.20972h10.31072v29.20972z" fill="#ff0000" stroke="#000000" stroke-width="0.5"></path><path d="M251.27574,180.82757v-13.40446h4.73081z" fill="#0b8100" stroke="#000000" stroke-width="0.5"></path><path d="M255.69866,155.54838c0,3.09201 -0.79142,5.59859 -1.76767,5.59859c-0.97626,0 -1.76767,-2.50656 -1.76767,-5.59859c0,-3.09201 0.79142,-5.5986 1.76767,-5.5986c0.97626,0 1.76767,2.50657 1.76767,5.5986z" fill="#000000" stroke="#000000" stroke-width="0.5"></path><text transform="translate(275.95731,175.95626) rotate(-180) scale(0.46613,-0.50062)" font-size="40" xml:space="preserve" data-paper-data="{&quot;index&quot;:null}" fill="#000000" fill-rule="nonzero" stroke="none" stroke-width="1" stroke-linecap="butt" stroke-linejoin="miter" stroke-miterlimit="10" stroke-dasharray="" stroke-dashoffset="0" font-family="Sans Serif" font-weight="normal" text-anchor="start" style="mix-blend-mode: normal"><tspan x="0" dy="0">💪</tspan></text></g><g stroke="#000000" stroke-width="0.5"><path d="M214.36385,165.36121l-0.10159,-11.77767l9.22475,-0.10561l0.2032,11.88327z" fill="#0b8100" stroke-linecap="butt"></path><path d="M218.41451,158.14411c0,2.82243 -0.72242,5.11048 -1.61356,5.11048c-0.89114,0 -1.61356,-2.28803 -1.61356,-5.11048c0,-2.82243 0.72242,-5.11048 1.61356,-5.11048c0.89114,0 1.61356,2.28803 1.61356,5.11048z" fill="#000000" stroke-linecap="butt"></path><path d="M228.45059,164.40481l-5.89025,3.95951c0,0 -2.68807,14.20708 1.40174,17.6161c3.20375,2.67044 13.37036,8.13126 16.62069,5.51977c2.3961,-1.92515 1.29297,-5.56802 1.29297,-5.56802c0,0 9.95711,6.34604 3.10778,8.81284c-6.74495,2.42921 -30.29506,0.97973 -30.66311,0.98209c-0.6899,0.00443 -1.56994,-9.08556 -1.38861,-16.73452c0.13573,-5.7257 1.28128,-10.57474 1.28128,-10.57474l-3.75237,0.02406l-3.60702,-3.50098l2.53658,-1.73993l3.26483,1.61949l3.10968,-2.21287l3.72251,0.90954l2.94427,-3.52629l-0.15312,-0.54836l-3.06123,-5.0558l-3.32177,1.92288l-3.14389,-2.42994l-3.19625,2.77688l-2.74867,-2.80038l4.34934,-3.39493l1.73852,-0.01989c0,0 0.79905,-5.70876 3.72769,-5.81234c1.0045,-0.03553 2.66533,1.94344 3.91669,2.82893c1.24897,0.88379 2.08946,0.6741 2.08946,0.6741l1.79377,1.02819l4.19353,6.2925z" data-paper-data="{&quot;index&quot;:null}" fill="url(#color-1)" stroke-linecap="round"></path><path d="M217.12277,150.39359c0,1.90779 -0.65956,3.45437 -1.47318,3.45437c-0.81362,0 -1.47318,-1.54658 -1.47318,-3.45437c0,-1.90779 0.65956,-3.45437 1.47318,-3.45437c0.81362,0 1.47318,1.54658 1.47318,3.45437z" fill="#001515" stroke-linecap="butt"></path></g></g></g></svg>