<svg version="1.1" xmlns="http://www.w3.org/2000/svg" xmlns:xlink="http://www.w3.org/1999/xlink" width="736" height="448.52084" viewBox="0,0,736,448.52084"><defs><linearGradient x1="373.25456" y1="145.25528" x2="373.25456" y2="234.86002" gradientUnits="userSpaceOnUse" id="color-1"><stop offset="0" stop-color="#1dffce"/><stop offset="1" stop-color="#30beff"/></linearGradient></defs><g transform="translate(53.42366,58.02081)"><g stroke-miterlimit="10"><path d="M-45.92366,273.9792c-4.14213,0 -7.5,-2.3923 -7.5,-5.34335v-321.3133c0,-2.95105 3.35787,-5.34335 7.5,-5.34335h721c4.14214,0 7.5,2.3923 7.5,5.34335v321.3133c0,2.95105 -3.35786,5.34335 -7.5,5.34335z" fill-opacity="0.50196" fill="#000000" stroke="none" stroke-width="0" stroke-linecap="butt"/><path d="M53.50001,72.00003v-87h554v87z" fill="#adadad" stroke="#000000" stroke-width="1" stroke-linecap="butt"/><path d="M124.4889,262.33335v-168h387.02222v168z" fill="#adadad" stroke="#000000" stroke-width="1" stroke-linecap="butt"/><text transform="translate(216.56647,53.01879) scale(0.86836,0.86836)" font-size="40" xml:space="preserve" fill="#000000" stroke="none" stroke-width="1" stroke-linecap="butt" font-family="Sans Serif" font-weight="normal" text-anchor="start"><tspan x="0" dy="0">Zombie Guide</tspan></text><path d="M186.50003,390.00004v-116h79v116z" fill="#adadad" stroke="#000000" stroke-width="1" stroke-linecap="butt"/><path d="M369.50003,390.00004v-116h93v116z" fill="#adadad" stroke="#000000" stroke-width="1" stroke-linecap="butt"/><path d="M317.59979,261.57559v-169" fill="none" stroke="#000000" stroke-width="2" stroke-linecap="round"/><path d="M134.58807,254.28261v-124.5h85.56371v124.5z" fill="#adadad" stroke="#000000" stroke-width="1" stroke-linecap="butt"/><path d="M330.08806,254.28261v-124.5h85.56371v124.5z" fill="#adadad" stroke="#000000" stroke-width="1" stroke-linecap="butt"/><text transform="translate(134.58807,118.78259) scale(0.5,0.5)" font-size="40" xml:space="preserve" fill="#000000" stroke="none" stroke-width="1" stroke-linecap="butt" font-family="Sans Serif" font-weight="normal" text-anchor="start"><tspan x="0" dy="0">Zombot-1000</tspan></text><text transform="translate(329.58806,119.28259) scale(0.5,0.5)" font-size="40" xml:space="preserve" fill="#000000" stroke="none" stroke-width="1" stroke-linecap="butt" font-family="Sans Serif" font-weight="normal" text-anchor="start"><tspan x="0" dy="0">Snake Zombie</tspan></text><text transform="translate(226.08807,144.53259) scale(0.2758,0.31943)" font-size="40" xml:space="preserve" fill="#000000" stroke="none" stroke-width="1" stroke-linecap="butt" font-family="Sans Serif" font-weight="normal" text-anchor="start"><tspan x="0" dy="0">HP: 1000</tspan><tspan x="0" dy="46.150000000000006px">Speed: Fast</tspan><tspan x="0" dy="46.150000000000006px">Damage: Mortal</tspan><tspan x="0" dy="46.150000000000006px">Special: Can use</tspan><tspan x="0" dy="46.150000000000006px">special habili-</tspan><tspan x="0" dy="46.150000000000006px">ties in battle</tspan></text><text transform="translate(421.08808,143.03259) scale(0.27742,0.31943)" font-size="40" xml:space="preserve" fill="#000000" stroke="none" stroke-width="1" stroke-linecap="butt" font-family="Sans Serif" font-weight="normal" text-anchor="start"><tspan x="0" dy="0">HP: 60</tspan><tspan x="0" dy="46.150000000000006px">Speed: Fast</tspan><tspan x="0" dy="46.150000000000006px">Damage: Mortal</tspan><tspan x="0" dy="46.150000000000006px">Special: None</tspan></text><g stroke="#000000"><path d="M191.36719,202.69632l15.95854,0.22647" fill="none" stroke-width="1" stroke-linecap="round"/><path d="M142.51672,199.46872v-4.27466h14.80028v4.27466z" fill="#d3b131" stroke-width="0.5" stroke-linecap="butt"/><path d="M156.88915,200.78964l-7.6398,-4.01236" fill="none" stroke-width="1" stroke-linecap="round"/><path d="M164.00744,212.50087v-8.85699h22.249v8.85699z" fill="#d4d4d4" stroke-width="0.5" stroke-linecap="butt"/><path d="M167.78347,204.95877v-36.04584c0,0 1.14396,-10.83145 10.96577,-6.15702c8.89109,4.23146 -1.74795,13.74933 -1.74795,13.74933v28.45353z" fill="#0b8100" stroke-width="0.5" stroke-linecap="butt"/><path d="M167.7618,205.04132v-20.87889h9.30225v20.87889z" fill="#ffffff" stroke-width="0.5" stroke-linecap="butt"/><path d="M167.79668,193.70897v-9.5814h4.2681z" fill="#ff0000" stroke-width="0.5" stroke-linecap="butt"/><path d="M171.4754,176.14291c0,2.21015 -0.71401,4.00184 -1.59478,4.00184c-0.88077,0 -1.59478,-1.79169 -1.59478,-4.00184c0,-2.21015 0.7284,-3.75719 1.60917,-3.75719c0.88077,0 1.58039,1.54704 1.58039,3.75719z" fill="#000000" stroke-width="0.5" stroke-linecap="butt"/><path d="M167.76471,174.06771l4.63396,-4.3315" fill="none" stroke-width="0.5" stroke-linecap="round"/><path d="M174.51428,178.62951c0,0 -0.11661,2.10276 -0.94185,2.53245c-1.11668,0.58145 -5.15239,0.64075 -5.15239,0.64075" fill="none" stroke-width="0.5" stroke-linecap="round"/><path d="M156.33203,196.35752v-6.42819l24.04074,-0.06477l0.02642,-6.97264l11.75145,0.39784v13.06776z" fill="#9b9b9b" stroke-width="0.5" stroke-linecap="butt"/><path d="M154.11362,207.61092v-11.31817h41.69662v11.31817z" fill="#636363" stroke-width="0.5" stroke-linecap="butt"/><path d="M149.55477,207.89584l9.41976,-6.09744" fill="none" stroke-width="1" stroke-linecap="round"/><path d="M141.82467,209.36288v-5.09074h17.62579v5.09074z" fill="#d3b131" stroke-width="0.5" stroke-linecap="butt"/><path d="M198.66096,205.97189v-5.09074h17.62579v5.09074z" fill="#d3b131" stroke-width="0.5" stroke-linecap="butt"/><path d="M191.5658,204.14642l15.95854,-0.22647" fill="none" stroke-width="1" stroke-linecap="round"/></g><g stroke="#000000" stroke-width="0.5"><path d="M351.32678,181.83397l-0.17495,-20.28144l15.88526,-0.18186l0.34992,20.4633z" fill="#0b8100" stroke-linecap="butt"/><path d="M358.30211,169.40595c0,4.8603 -1.24402,8.80037 -2.77859,8.80037c-1.53457,0 -2.77859,-3.94005 -2.77859,-8.80037c0,-4.8603 1.24402,-8.80037 2.77859,-8.80037c1.53457,0 2.77859,3.94005 2.77859,8.80037z" fill="#000000" stroke-linecap="butt"/><path d="M375.58449,180.18702l-10.14316,6.81837c0,0 -4.62892,24.46495 2.41384,30.33537c5.51694,4.59857 23.0241,14.00223 28.62125,9.50518c4.12614,-3.31517 2.22652,-9.58827 2.22652,-9.58827c0,0 17.1464,10.92804 5.35167,15.17594c-11.61498,4.18316 -52.16887,1.68712 -52.80266,1.69119c-1.18803,0.00762 -2.70348,-15.64556 -2.39122,-28.81727c0.23373,-9.8598 2.2064,-18.20998 2.2064,-18.20998l-6.46168,0.04144l-6.21139,-6.02877l4.36806,-2.9962l5.62211,2.7888l5.35495,-3.81062l6.41025,1.56625l5.07011,-6.07236l-0.26367,-0.94429l-5.27152,-8.70622l-5.72017,3.31126l-5.41386,-4.18442l-5.50402,4.78185l-4.73328,-4.82232l7.48967,-5.84616l2.99377,-0.03425c0,0 1.37599,-9.83063 6.41918,-10.00899c1.72978,-0.06119 4.58976,3.34665 6.74465,4.8715c2.15076,1.52191 3.59811,1.16081 3.59811,1.16081l3.08892,1.77057l7.22136,10.83585z" fill="url(#color-1)" stroke-linecap="round"/><path d="M356.0777,156.05934c0,3.28526 -1.13579,5.94851 -2.53686,5.94851c-1.40107,0 -2.53686,-2.66324 -2.53686,-5.94851c0,-3.28526 1.13579,-5.94851 2.53686,-5.94851c1.40107,0 2.53686,2.66324 2.53686,5.94851z" fill="#001515" stroke-linecap="butt"/></g><text transform="translate(226.58808,251.49774) scale(0.2439,0.2439)" font-size="40" xml:space="preserve" fill="#ff0000" stroke="none" stroke-width="1" stroke-linecap="butt" font-family="Sans Serif" font-weight="normal" text-anchor="start"><tspan x="0" dy="0">Boss zombie</tspan></text><text transform="translate(226.58808,242.49772) scale(0.22412,0.2439)" font-size="40" xml:space="preserve" fill="#ff0000" stroke="none" stroke-width="1" stroke-linecap="butt" font-family="Sans Serif" font-weight="normal" text-anchor="start"><tspan x="0" dy="0">Poision resistant</tspan></text></g></g></svg>