<svg version="1.1" xmlns="http://www.w3.org/2000/svg" xmlns:xlink="http://www.w3.org/1999/xlink" width="24.76811" height="56.58038" viewBox="0,0,24.76811,56.58038"><g transform="translate(-227.44676,-151.96947)"><g data-paper-data="{&quot;isPaintingLayer&quot;:true}" fill-rule="nonzero" stroke="#000000" stroke-width="1.28786" stroke-linejoin="miter" stroke-miterlimit="10" stroke-dasharray="" stroke-dashoffset="0" style="mix-blend-mode: normal"><g><path d="M229.88052,187.85127c-4.56041,-10.08091 1.03287,-23.96273 1.03287,-23.96273h19.62466c0,0 -3.51178,12.56969 -3.51178,18.59177c0,7.91456 3.51178,24.78904 3.51178,24.78904c0,0 -16.09713,-9.33716 -20.65753,-19.41808z" fill="#ff0000" stroke-linecap="butt"></path><path d="M230.70683,162.85566c0,0 -0.12958,-3.10427 1.6526,-4.4127c1.78217,-1.30842 5.20946,-1.00334 6.80207,-1.79448c0.82355,-0.40911 0.42806,-2.61822 0.42806,-2.61822l3.87784,-1.29961c0,0 1.78352,2.47179 2.70013,2.99656c0.31945,0.1829 4.37353,1.05128 5.40341,2.58597c1.02989,1.53469 -0.61972,4.54247 -0.61972,4.54247z" fill="#2fff00" stroke-linecap="butt"></path><path d="M238.46631,175.27599c0,3.63657 -0.92487,6.58458 -2.06575,6.58458c-1.14089,0 -2.06576,-2.94801 -2.06576,-6.58458c0,-3.63657 0.92487,-6.58458 2.06576,-6.58458c1.14089,0 2.06575,2.94801 2.06575,6.58458z" fill="#000000" stroke-linecap="butt"></path><path d="M244.27624,175.40511c0,0.62138 -0.05613,1.79569 -0.05613,1.79569l-3.12979,-0.2416c0,0 -0.04181,-1.01953 -0.04181,-1.5541c0,-3.77918 0.72256,-6.84281 1.61386,-6.84281c0.89132,0 1.61386,3.06363 1.61386,6.84281z" fill="#000000" stroke-linecap="butt"></path><path d="M240.14473,187.40371l-7.16128,2.46169l-0.22379,-5.03528l12.42035,4.14011" fill="#ffffff" stroke-linecap="round"></path></g></g></g></svg>