<svg version="1.1" xmlns="http://www.w3.org/2000/svg" xmlns:xlink="http://www.w3.org/1999/xlink" width="96.1724" height="97.26078" viewBox="0,0,96.1724,97.26078"><g transform="translate(-191.9138,-131.23746)"><g data-paper-data="{&quot;isPaintingLayer&quot;:true}" fill-rule="nonzero" stroke-linecap="butt" stroke-linejoin="miter" stroke-miterlimit="10" stroke-dasharray="" stroke-dashoffset="0" style="mix-blend-mode: normal"><path d="M192.4138,226.60084v-64.88824v-9.24098c0,0 2.20499,0 4.81102,0c11.2941,0 90.36138,0 90.36138,0v74.12922z" fill="#afafaf" stroke="#000000" stroke-width="1"></path><path d="M192.4138,205.86668v-64.88824v-9.24098c0,0 2.20499,0 4.81102,0c11.2941,0 90.36138,0 90.36138,0v74.12922z" fill="#afafaf" stroke="#000000" stroke-width="1"></path><text transform="translate(204.57871,222.60699) scale(0.41607,0.4713)" font-size="40" xml:space="preserve" fill="#000000" fill-rule="nonzero" stroke="none" stroke-width="1" stroke-linecap="butt" stroke-linejoin="miter" stroke-miterlimit="10" stroke-dasharray="" stroke-dashoffset="0" font-family="Sans Serif" font-weight="normal" text-anchor="start" style="mix-blend-mode: normal"><tspan x="0" dy="0">Sandbox</tspan></text><path d="M196.91902,199.90332v-60.82023h86.62275v60.82023z" fill="#939393" stroke="#000000" stroke-width="1"></path><g><path d="M242.88307,186.86057l-3.20085,8.2622l-2.87828,-8.2622z" data-paper-data="{&quot;index&quot;:null}" fill="#ffff00" stroke="#ffff00" stroke-width="1"></path><path d="M236.89056,173.13944l2.87829,-8.2622l3.20086,8.2622z" fill="#ffff00" stroke="#ffff00" stroke-width="1"></path><path d="M231.8447,180.25483c0,-4.48831 3.63849,-8.12679 8.1268,-8.12679c4.48831,0 8.12678,3.63848 8.12678,8.12679c0,4.48831 -3.63848,8.12679 -8.12678,8.12679c-4.48831,0 -8.1268,-3.63849 -8.1268,-8.12679z" fill="#ffff00" stroke="none" stroke-width="0"></path><path d="M246.8349,177.19709l8.28771,3.1342l-8.23874,2.94474z" data-paper-data="{&quot;index&quot;:null}" fill="#ffff00" stroke="#ffff00" stroke-width="1"></path><path d="M233.16251,183.29996l-8.28511,-2.81162l8.23613,-3.26731z" fill="#ffff00" stroke="#ffff00" stroke-width="1"></path><path d="M247.21554,182.80151l3.67246,8.06364l-7.92104,-3.71559z" data-paper-data="{&quot;index&quot;:null}" fill="#ffff00" stroke="#ffff00" stroke-width="1"></path><path d="M233.21358,177.49825l-3.8979,-7.83293l8.14647,3.48487z" fill="#ffff00" stroke="#ffff00" stroke-width="1"></path><path d="M243.06565,173.22142l8.0338,-3.73729l-3.65167,7.95072z" data-paper-data="{&quot;index&quot;:null}" fill="#ffff00" stroke="#ffff00" stroke-width="1"></path><path d="M237.87535,187.26566l-7.80128,3.96088l3.41913,-8.17429z" fill="#ffff00" stroke="#ffff00" stroke-width="1"></path><path d="M234.27661,180.49674c0,-3.26511 2.64691,-5.91201 5.91201,-5.91201c3.26511,0 5.91201,2.6469 5.91201,5.91201c0,3.26511 -2.6469,5.91201 -5.91201,5.91201c-3.26511,0 -5.91201,-2.64691 -5.91201,-5.91201z" fill="#fffff7" stroke="none" stroke-width="0"></path></g><text transform="translate(212.02004,156.76422) scale(0.32626,0.32626)" font-size="40" xml:space="preserve" fill="#000000" fill-rule="nonzero" stroke="none" stroke-width="1" stroke-linecap="butt" stroke-linejoin="miter" stroke-miterlimit="10" stroke-dasharray="" stroke-dashoffset="0" font-family="Sans Serif" font-weight="normal" text-anchor="start" style="mix-blend-mode: normal"><tspan x="0" dy="0">INFINITY</tspan></text></g></g></svg>