<svg viewBox="0,0,112.32941,102.64445" height="102.64445" width="112.32941" xmlns:xlink="http://www.w3.org/1999/xlink" xmlns="http://www.w3.org/2000/svg" version="1.1"><g transform="translate(-183.90866,-128.67778)"><g style="mix-blend-mode: normal" stroke-dashoffset="0" stroke-dasharray="" stroke-miterlimit="10" stroke-linejoin="miter" stroke-width="1.28786" stroke="#000000" fill-rule="nonzero" data-paper-data="{&quot;isPaintingLayer&quot;:true}"><g><path stroke-linecap="butt" fill="#5cb000" data-paper-data="{&quot;index&quot;:null}" d="M243.52279,214.71724c-2.15048,4.14465 -9.04872,4.82988 -15.40764,1.53052c-6.35893,-3.29937 -13.77455,-10.66993 -13.77455,-10.66993c0,0 15.20321,-7.63856 21.56213,-4.33919c6.35893,3.29937 9.77053,9.33395 7.62005,13.47861z"></path><path stroke-linecap="butt" fill="#5cb000" data-paper-data="{&quot;index&quot;:null}" d="M251.50037,200.66651c6.35893,-3.29937 21.56213,4.33919 21.56213,4.33919c0,0 -7.41562,7.37056 -13.77455,10.66993c-6.35893,3.29937 -13.25716,2.61415 -15.40764,-1.53052c-2.15048,-4.14465 1.26112,-10.17923 7.62005,-13.47861z"></path><g stroke-linecap="butt"><path fill="#00e704" d="M238.08336,219.96003v-35.10543h11.16304v35.10543z"></path><path fill="#00b403" d="M234.2296,195.30962l2.22351,-10.05909l14.25541,-1.82195l2.09998,11.88104z"></path></g><g stroke-linecap="butt"><path fill="#00e704" d="M246.36724,219.44847l14.06232,-32.16586l10.22829,4.47162l-14.06232,32.16586z"></path><path fill="#00b403" d="M252.71048,195.31844l7.11053,-8.30391l11.43354,4.29243l-1.52088,11.45369z"></path></g><g stroke-linecap="butt" data-paper-data="{&quot;index&quot;:null}"><path fill="#00e704" d="M235.51077,219.71682l-22.34394,-27.07657l8.60997,-7.10506l25.40124,32.88207z"></path><path fill="#00b403" d="M217.41353,202.47725l-6.04011,-10.07828l15.00917,-8.24299l5.94748,7.42257z"></path></g><g><path stroke-linecap="butt" fill="#f7df77" data-paper-data="{&quot;index&quot;:null}" d="M269.1932,158.5758c0,0 0.92961,-4.60066 0.94903,-7.04774c0.02356,-2.96879 -0.81768,-9.50421 -0.81768,-9.50421c0,0 5.201,3.42311 6.79121,5.96164c1.83235,2.92508 3.57979,10.59409 3.57979,10.59409z"></path><path stroke-linecap="butt" fill="#cb775b" data-paper-data="{&quot;index&quot;:null}" d="M263.6533,156.3218c0,0 -2.16189,-5.18323 -3.86661,-6.95963c-1.42682,-1.48681 -5.67713,-2.98538 -5.67713,-2.98538c0,0 4.01624,-8.16976 9.05161,-5.16453c5.03538,3.00521 5.63424,13.92939 5.63424,13.92939z"></path><path stroke-linecap="butt" fill="#cb775b" data-paper-data="{&quot;index&quot;:null}" d="M276.39319,160.06826c0,0 5.05967,-10.82549 11.38706,-11.81824c6.32737,-0.99275 7.067,8.92286 7.067,8.92286c0,0 -4.91774,-0.21395 -6.96959,0.71105c-2.45149,1.10517 -6.75492,5.47619 -6.75492,5.47619z"></path><path stroke-linecap="butt" fill="#f7df77" data-paper-data="{&quot;index&quot;:null}" d="M278.29314,181.03955c0,0 4.5604,1.11803 7.01539,1.21555c2.97837,0.11829 9.59003,-0.55599 9.59003,-0.55599c0,0 -3.7569,5.3354 -6.40304,6.91964c-3.04906,1.82548 -10.8545,3.41243 -10.8545,3.41243z"></path><path stroke-linecap="butt" fill="#f7df77" data-paper-data="{&quot;index&quot;:null}" d="M279.28085,166.13994c0,0 4.66729,-0.49683 7.00696,-1.21414c2.83848,-0.87024 8.81847,-3.63772 8.81847,-3.63772c0,0 -1.70075,5.98962 -3.64362,8.26955c-2.23873,2.6271 -9.02737,6.59973 -9.02737,6.59973z"></path><path stroke-linecap="butt" fill="#f7df77" data-paper-data="{&quot;index&quot;:null}" d="M253.77776,181.94765c0,0 -5.03267,-6.0448 -6.24434,-9.27674c-1.05156,-2.80485 -0.61362,-9.01582 -0.61362,-9.01582c0,0 4.68214,4.63648 7.05538,6.42028c1.95619,1.47033 6.1762,3.52505 6.1762,3.52505z"></path><path stroke-linecap="butt" fill="#f7df77" data-paper-data="{&quot;index&quot;:null}" d="M256.23707,169.27989c0,0 -2.35722,-7.50405 -2.24945,-10.95397c0.09353,-2.99403 2.85945,-8.57235 2.85945,-8.57235c0,0 2.56833,6.06822 4.08538,8.62022c1.25047,2.10354 4.37271,5.60808 4.37271,5.60808z"></path><path stroke-linecap="butt" fill="#f94696" d="M288.65875,173.18139c0.28197,11.56015 -7.56948,21.3379 -17.53667,21.83918c-9.9672,0.50128 -18.27576,-8.4637 -18.55773,-20.02386c-0.28197,-11.56015 7.56947,-21.33789 17.53667,-21.83918c9.9672,-0.50128 18.27577,8.4637 18.55774,20.02385z"></path><path stroke-linecap="round" fill="#f94696" d="M288.71401,175.69441c0,0 2.62955,-0.87782 2.16578,3.34208c-0.16477,1.49935 -7.39772,5.43566 -7.39772,5.43566l-8.05977,-6.40342l-7.48821,3.1976l-7.15511,-7.0415"></path><path stroke-linecap="round" fill="#ffffff" d="M271.19685,180.0467l-2.05527,5.32284l-1.23403,-3.75846z"></path><path stroke-linecap="round" fill="#ffffff" data-paper-data="{&quot;index&quot;:null}" d="M282.73091,184.81061l-2.20023,3.28754l-0.54653,-5.67962z"></path><path stroke-linecap="round" fill="#f7df77" d="M270.06305,170.88767c0,0 0.65967,-6.04397 0.64422,-8.83516c-0.0135,-2.44324 -0.73184,-7.00753 -0.73184,-7.00753c0,0 5.94389,3.35907 7.86104,6.18195c1.78584,2.62955 3.27589,10.21649 3.27589,10.21649"></path></g><g><path stroke-linecap="butt" fill="#f7df77" data-paper-data="{&quot;index&quot;:null}" d="M233.88624,149.24701c0,0 -0.92488,-5.41681 -1.93565,-8.09765c-1.22627,-3.2524 -4.90115,-10.03552 -4.90115,-10.03552c0,0 7.12405,1.54529 9.93139,3.64723c3.23482,2.42199 8.37751,10.06103 8.37751,10.06103z"></path><path stroke-linecap="butt" fill="#cb775b" data-paper-data="{&quot;index&quot;:null}" d="M226.8851,149.12152c0,0 -4.54707,-4.74934 -7.15806,-5.97057c-2.18536,-1.02215 -7.45945,-0.86642 -7.45945,-0.86642c0,0 0.94114,-10.61661 7.70805,-9.45788c6.76691,1.15874 12.02791,12.8374 12.02791,12.8374z"></path><path stroke-linecap="butt" fill="#cb775b" data-paper-data="{&quot;index&quot;:null}" d="M242.37938,147.8407c0,0 0.96078,-13.95719 7.45278,-17.70983c6.492,-3.75264 11.4814,6.76512 11.4814,6.76512c0,0 -5.46131,1.84021 -7.31221,3.7158c-2.2114,2.24089 -5.06821,8.8297 -5.06821,8.8297z"></path><path stroke-linecap="butt" fill="#f7df77" data-paper-data="{&quot;index&quot;:null}" d="M253.29844,169.94396c0,0 5.4523,-0.70211 8.17471,-1.63092c3.30282,-1.12684 10.23962,-4.65155 10.23962,-4.65155c0,0 -1.85319,7.41158 -4.07516,10.25781c-2.56031,3.27961 -10.41601,8.30456 -10.41601,8.30456z"></path><path stroke-linecap="butt" fill="#f7df77" data-paper-data="{&quot;index&quot;:null}" d="M248.09377,153.2543c0,0 4.88802,-2.51091 7.14086,-4.28102c2.73313,-2.1475 8.09731,-7.69198 8.09731,-7.69198c0,0 0.6684,7.259 -0.49208,10.56847c-1.33718,3.81341 -7.07632,11.01513 -7.07632,11.01513z"></path><path stroke-linecap="butt" fill="#f7df77" data-paper-data="{&quot;index&quot;:null}" d="M226.90613,181.27437c0,0 -8.04582,-4.47966 -10.73215,-7.49855c-2.33135,-2.61995 -4.47235,-9.58817 -4.47235,-9.58817c0,0 7.06906,3.08933 10.41333,4.03674c2.75658,0.78091 8.23213,1.24536 8.23213,1.24536z"></path><path stroke-linecap="butt" fill="#f7df77" data-paper-data="{&quot;index&quot;:null}" d="M224.24988,166.40172c0,0 -5.73913,-7.20173 -7.07632,-11.01512c-1.16049,-3.30947 -0.49209,-10.56848 -0.49209,-10.56848c0,0 5.36417,5.54449 8.09731,7.69199c2.25284,1.77011 7.14085,4.28102 7.14085,4.28102z"></path><path stroke-linecap="butt" fill="#f94696" d="M261.30568,156.99002c5.18309,12.50691 0.73133,26.49711 -9.94328,31.24797c-10.67461,4.75085 -23.52981,-1.53667 -28.7129,-14.04357c-5.18309,-12.50691 -0.73133,-26.4971 9.94328,-31.24795c10.67461,-4.75085 23.52981,1.53665 28.7129,14.04356z"></path><path stroke-linecap="round" fill="#f94696" d="M262.42583,159.71139c0,0 2.50174,-2.06766 3.77484,2.73681c0.45234,1.70706 -5.78736,9.05651 -5.78736,9.05651l-11.50319,-3.59475l-6.83001,6.65028l-10.78424,-4.67317"></path><path stroke-linecap="round" fill="#ffffff" d="M245.12933,171.85222v6.68026l-2.9328,-3.58453z"></path><path stroke-linecap="round" fill="#ffffff" data-paper-data="{&quot;index&quot;:null}" d="M259.73565,172.19116l-1.01664,4.51848l-2.99212,-5.9727z"></path><path stroke-linecap="round" fill="#f7df77" d="M240.02844,162.32702c0,0 -1.82838,-6.87931 -3.02235,-9.9213c-1.04512,-2.66277 -3.75452,-7.34488 -3.75452,-7.34488c0,0 7.9084,1.16207 11.19274,3.43666c3.0594,2.11882 7.88637,9.77679 7.88637,9.77679"></path></g><g><path stroke-linecap="butt" fill="#f7df77" data-paper-data="{&quot;index&quot;:null}" d="M204.29302,161.96024c0,0 -0.62155,-4.65231 -1.40122,-6.97195c-0.94589,-2.81416 -3.87241,-8.71798 -3.87241,-8.71798c0,0 6.03298,1.53985 8.36411,3.42102c2.68608,2.16761 6.83895,8.84751 6.83895,8.84751z"></path><path stroke-linecap="butt" fill="#cb775b" data-paper-data="{&quot;index&quot;:null}" d="M198.32092,161.63609c0,0 -3.73401,-4.19486 -5.92485,-5.31821c-1.83367,-0.94022 -6.34033,-0.97078 -6.34033,-0.97078c0,0 1.13242,-9.03288 6.87255,-7.83405c5.74014,1.19884 9.86876,11.3305 9.86876,11.3305z"></path><path stroke-linecap="butt" fill="#cb775b" data-paper-data="{&quot;index&quot;:null}" d="M211.5861,161.02312c0,0 1.25274,-11.8837 6.91046,-14.88561c5.65772,-3.00191 9.5905,6.13042 9.5905,6.13042c0,0 -4.71866,1.40147 -6.35669,2.94504c-1.95707,1.84421 -4.59978,7.37967 -4.59978,7.37967z"></path><path stroke-linecap="butt" fill="#f7df77" data-paper-data="{&quot;index&quot;:null}" d="M220.22117,180.22832c0,0 4.67571,-0.43029 7.02826,-1.1387c2.85413,-0.85945 8.88445,-3.65303 8.88445,-3.65303c0,0 -1.81157,6.26888 -3.79642,8.62945c-2.28707,2.72001 -9.14825,6.76567 -9.14825,6.76567z"></path><path stroke-linecap="butt" fill="#f7df77" data-paper-data="{&quot;index&quot;:null}" d="M216.29595,165.82115c0,0 4.2501,-1.99174 6.22793,-3.43281c2.3995,-1.74832 7.15009,-6.31466 7.15009,-6.31466c0,0 0.34551,6.21681 -0.74765,9.0057c-1.25959,3.21356 -6.3816,9.18286 -6.3816,9.18286z"></path><path stroke-linecap="butt" fill="#f7df77" data-paper-data="{&quot;index&quot;:null}" d="M197.34219,189.08153c0,0 -6.72882,-4.07312 -8.92823,-6.73324c-1.90876,-2.30858 -3.52025,-8.32283 -3.52025,-8.32283c0,0 5.93818,2.8561 8.7634,3.76846c2.32873,0.75201 6.98812,1.31818 6.98812,1.31818z"></path><path stroke-linecap="butt" fill="#f7df77" data-paper-data="{&quot;index&quot;:null}" d="M195.5359,176.30431c0,0 -4.67552,-6.32509 -5.6987,-9.62156c-0.88797,-2.86085 -0.09242,-9.03621 -0.09242,-9.03621c0,0 4.40683,4.8989 6.6732,6.81667c1.8681,1.58076 5.96253,3.87551 5.96253,3.87551z"></path><path stroke-linecap="butt" fill="#f94696" d="M227.45748,169.41941c4.03645,10.83623 -0.19712,22.63988 -9.45595,26.36419c-9.25883,3.72431 -20.03677,-2.04104 -24.07322,-12.87727c-4.03645,-10.83623 0.19711,-22.63987 9.45594,-26.36416c9.25883,-3.72431 20.03678,2.04103 24.07323,12.87725z"></path><path stroke-linecap="round" fill="#f94696" d="M228.32923,171.77703c0,0 2.19951,-1.68736 3.13726,2.45307c0.33319,1.47112 -5.22065,7.55099 -5.22065,7.55099l-9.70738,-3.42496l-6.03606,5.46478l-9.06027,-4.32319"></path><path stroke-linecap="round" fill="#ffffff" d="M213.18907,181.60395l-0.20708,5.70208l-2.39224,-3.15056z"></path><path stroke-linecap="round" fill="#ffffff" data-paper-data="{&quot;index&quot;:null}" d="M225.64613,182.34602l-1.00784,3.82533l-2.36884,-5.19088z"></path><path stroke-linecap="round" fill="#f7df77" d="M209.13037,173.31536c0,0 -1.34741,-5.92867 -2.27225,-8.56224c-0.80955,-2.30526 -2.97708,-6.38578 -2.97708,-6.38578c0,0 6.71439,1.23705 9.4473,3.2804c2.54574,1.9034 6.42853,8.58967 6.42853,8.58967"></path></g><path stroke-linecap="butt" fill="#5cb000" d="M247.65575,221.40456c0,4.66934 -5.80751,8.45458 -12.97142,8.45458c-7.16392,0 -17.1408,-3.12703 -17.1408,-3.12703c0,0 9.97688,-13.78213 17.1408,-13.78213c7.16392,0 12.97142,3.78525 12.97142,8.45458z"></path><path stroke-linecap="butt" fill="#5cb000" data-paper-data="{&quot;index&quot;:null}" d="M255.23649,213.76913c7.16392,0 17.1408,13.78213 17.1408,13.78213c0,0 -9.97688,3.12703 -17.1408,3.12703c-7.16392,0 -12.97142,-3.78525 -12.97142,-8.45458c0,-4.66934 5.80751,-8.45458 12.97142,-8.45458z"></path></g></g></g></svg>