<svg version="1.1" xmlns="http://www.w3.org/2000/svg" xmlns:xlink="http://www.w3.org/1999/xlink" width="49.0918" height="56.35913" viewBox="0,0,49.0918,56.35913"><g transform="translate(-218.70018,-150.57178)"><g data-paper-data="{&quot;isPaintingLayer&quot;:true}" fill-rule="nonzero" stroke="#000000" stroke-width="1.28786" stroke-linejoin="miter" stroke-miterlimit="10" stroke-dasharray="" stroke-dashoffset="0" style="mix-blend-mode: normal"><path d="M231.82203,186.08378c-7.66995,4.3863 -8.10772,12.7178 -8.18655,12.57997c-2.17661,-3.80607 -8.2798,-19.99892 -0.32167,-24.55001c7.95813,-4.55109 16.17396,-5.15506 18.35057,-1.34899c2.17661,3.80607 -1.88424,8.76795 -9.84238,13.31904z" fill="#07d200" stroke-linecap="butt"></path><path d="M233.15953,164.76083c0.25654,-8.83187 -6.62441,-13.54971 -6.4657,-13.54511c4.38265,0.12731 21.38229,3.36294 21.1161,12.52664c-0.26619,9.16371 -4.0348,16.48915 -8.41745,16.36184c-4.38265,-0.12731 -6.49914,-6.17969 -6.23295,-15.34339z" fill="#07d200" stroke-linecap="butt"></path><path d="M239.29713,203.62033c0,0 -3.16667,-7.95022 -3.66667,-14.33334c-0.33585,-4.28754 3.66667,-12.83333 3.66667,-12.83333h5.33333c0,0 -3.51533,8.51429 -3.16666,12.83333c0.5,6.19362 3.16666,14.33334 3.16666,14.33334z" fill="#09ff00" stroke-linecap="butt"></path><path d="M252.17331,175.09041c8.11654,3.49134 15.03704,-1.16829 14.97431,-1.02244c-1.73252,4.02768 -11.00176,18.64062 -19.42326,15.0181c-8.4215,-3.62252 -13.844,-9.82423 -12.11148,-13.85191c1.73252,-4.02768 8.13895,-3.76626 16.56045,-0.14373z" fill="#07d200" stroke-linecap="butt"></path><path d="M229.41319,175.78146c0,-5.25163 4.25729,-9.50892 9.50892,-9.50892c5.25163,0 9.50892,4.25729 9.50892,9.50892c0,5.25163 -4.25729,9.50892 -9.50892,9.50892c-5.25163,0 -9.50892,-4.25729 -9.50892,-9.50892z" fill="#09ff00" stroke-linecap="butt"></path><path d="M238.8804,173.57106c0,1.91178 -0.5415,3.46158 -1.20947,3.46158c-0.66797,0 -1.20947,-1.5498 -1.20947,-3.46158c0,-1.91178 0.5415,-3.46158 1.20947,-3.46158c0.66797,0 1.20947,1.5498 1.20947,3.46158z" fill="#000000" stroke-linecap="butt"></path><path d="M243.55144,173.73788c0,2.04998 -0.57884,3.71181 -1.29288,3.71181c-0.71404,0 -1.29288,-1.66184 -1.29288,-3.71181c0,-2.04998 0.57884,-3.71181 1.29288,-3.71181c0.71404,0 1.29288,1.66184 1.29288,3.71181z" fill="#000000" stroke-linecap="butt"></path><path d="M234.96198,205.78699c-3.82097,0 -6.91848,-1.24987 -6.91848,-2.79166c0,-1.54179 3.09751,-2.79166 6.91848,-2.79166c3.82097,0 6.91848,1.24987 6.91848,2.79166c0,1.54179 -3.09751,2.79166 -6.91848,2.79166z" fill="#09ff00" stroke-linecap="butt"></path><path d="M248.46198,206.28699c-3.82097,0 -6.91848,-1.24986 -6.91848,-2.79166c0,-1.54179 3.0975,-2.79166 6.91848,-2.79166c3.82098,0 6.91848,1.24986 6.91848,2.79166c0,1.54179 -3.0975,2.79166 -6.91848,2.79166z" fill="#09ff00" stroke-linecap="butt"></path><path d="M239.07143,181.28572c0,0 -3.42896,-0.41714 -5.05698,-1.52935c-1.23614,-0.84449 -1.94302,-2.61351 -1.94302,-2.61351" fill="none" stroke-linecap="round"></path></g></g></svg>