<svg version="1.1" xmlns="http://www.w3.org/2000/svg" xmlns:xlink="http://www.w3.org/1999/xlink" width="116.88217" height="88.80982" viewBox="0,0,116.88217,88.80982"><defs><linearGradient x1="254.09305" y1="177.21942" x2="263.90948" y2="194.20355" gradientUnits="userSpaceOnUse" id="color-1"><stop offset="0" stop-color="#ffffff"></stop><stop offset="1" stop-color="#ff5498"></stop></linearGradient><linearGradient x1="247.74092" y1="189.46956" x2="235.07054" y2="204.4457" gradientUnits="userSpaceOnUse" id="color-2"><stop offset="0" stop-color="#ffffff"></stop><stop offset="1" stop-color="#ff5498"></stop></linearGradient><linearGradient x1="235.84852" y1="174.05407" x2="226.59726" y2="156.75558" gradientUnits="userSpaceOnUse" id="color-3"><stop offset="0" stop-color="#ffffff"></stop><stop offset="1" stop-color="#ff5498"></stop></linearGradient><linearGradient x1="237.94763" y1="169.9124" x2="256.3847" y2="163.21184" gradientUnits="userSpaceOnUse" id="color-4"><stop offset="0" stop-color="#ffffff"></stop><stop offset="1" stop-color="#ff5498"></stop></linearGradient><linearGradient x1="243.96532" y1="170.54007" x2="262.00184" y2="178.25412" gradientUnits="userSpaceOnUse" id="color-5"><stop offset="0" stop-color="#ffffff"></stop><stop offset="1" stop-color="#ff5498"></stop></linearGradient><linearGradient x1="245.18692" y1="181.57271" x2="226.74986" y2="188.27329" gradientUnits="userSpaceOnUse" id="color-6"><stop offset="0" stop-color="#ffffff"></stop><stop offset="1" stop-color="#ff5498"></stop></linearGradient><linearGradient x1="239.74489" y1="181.08048" x2="221.70836" y2="173.36643" gradientUnits="userSpaceOnUse" id="color-7"><stop offset="0" stop-color="#ffffff"></stop><stop offset="1" stop-color="#ff5498"></stop></linearGradient><linearGradient x1="245.20841" y1="173.54097" x2="245.20841" y2="193.15787" gradientUnits="userSpaceOnUse" id="color-8"><stop offset="0" stop-color="#ffffff"></stop><stop offset="1" stop-color="#ff5498"></stop></linearGradient></defs><g transform="translate(-207.13265,-135.72009)"><g data-paper-data="{&quot;isPaintingLayer&quot;:true}" fill-rule="nonzero" stroke-linecap="butt" stroke-linejoin="miter" stroke-miterlimit="10" stroke-dasharray="" stroke-dashoffset="0" style="mix-blend-mode: normal"><text transform="translate(277.24295,188.00196) scale(0.66683,0.66683)" font-size="40" xml:space="preserve" fill="#000000" fill-rule="nonzero" stroke="none" stroke-width="1" stroke-linecap="butt" stroke-linejoin="miter" stroke-miterlimit="10" stroke-dasharray="" stroke-dashoffset="0" font-family="Sans Serif" font-weight="normal" text-anchor="start" style="mix-blend-mode: normal"><tspan x="0" dy="0">+15</tspan></text><path d="M208.50959,220.96745v-84.81396h62.89539v84.81396z" fill="#515151" stroke="none" stroke-width="0"></path><g stroke="#000000" stroke-width="1.28786"><g data-paper-data="{&quot;index&quot;:null}"><path d="M268.40998,194.26229l-11.22178,-3.80207l4.21836,-5.0448z" fill="#ffe288"></path><path d="M261.10851,193.19496c-0.20487,1.21115 -1.20422,3.32348 -1.20422,3.32348c0,0 -5.83221,-3.4907 -7.28208,-4.93201c-3.86784,-3.84505 -4.62571,-9.35383 -1.69272,-12.3042c2.93299,-2.95037 8.44615,-2.2251 12.31399,1.61996c1.92217,1.91084 5.96026,4.65791 5.96026,4.65791c0,0 -2.7449,1.74986 -4.10476,2.25021c-1.28225,0.47178 -3.71733,1.06625 -3.71733,1.06625c0,0 -0.03109,2.8874 -0.27313,4.31839z" fill="url(#color-1)"></path><path d="M250.19763,183.47636c-1.54629,-1.53716 -1.03155,-2.93708 0.6223,-4.60073c0.63764,-0.6414 2.71299,-1.55048 3.44095,-0.66894c1.16017,1.40498 0.1323,4.48162 0.1323,4.48162c0,0 -4.0837,0.89923 -4.19552,0.78807z" fill="#8901d0"></path><path d="M260.63349,183.51896c1.52872,1.40091 2.46429,2.86798 2.08963,3.27681c-0.37464,0.40884 -1.91766,-0.3954 -3.44637,-1.7963c-1.52872,-1.40091 -2.46428,-2.86798 -2.08961,-3.27682c0,0 2.35101,0.79253 3.44636,1.7963z" fill="#000000"></path><path d="M253.95706,186.09497c0.37464,-0.40884 1.91766,0.3954 3.44637,1.7963c1.52872,1.40091 2.46428,2.868 2.08963,3.27681c-0.37464,0.40884 -1.91765,-0.3954 -3.44637,-1.7963c-1.52872,-1.40091 -2.4643,-2.86798 -2.08963,-3.27681z" fill="#000000"></path></g><g data-paper-data="{&quot;index&quot;:null}"><path d="M236.53537,208.70156l-0.21167,-11.84649l6.17313,2.26651z" fill="#ffe288"></path><path d="M235.07379,201.46868c-1.20917,0.21626 -3.53491,-0.01088 -3.53491,-0.01088c0,0 1.31565,-6.66849 2.18254,-8.51998c2.31266,-4.93925 7.24173,-7.51324 11.00936,-5.74915c3.76764,1.7641 4.94713,7.19824 2.63448,12.13749c-1.1493,2.45463 -2.37104,7.18325 -2.37104,7.18325c0,0 -2.57415,-1.99254 -3.5044,-3.10348c-0.87716,-1.04755 -2.25917,-3.13873 -2.25917,-3.13873c0,0 -2.72822,0.946 -4.15685,1.20153z" fill="url(#color-2)"></path><path d="M240.53597,187.91642c0.92453,-1.97461 2.41606,-1.96297 4.54055,-0.96825c0.81908,0.38352 2.37571,2.02987 1.79186,3.01279c-0.93054,1.56654 -4.17355,1.63825 -4.17355,1.63825c0,0 -2.2257,-3.53998 -2.15884,-3.68278z" fill="#8901d0"></path><path d="M244.02071,197.75337c-0.80222,1.91206 -1.86708,3.28816 -2.37844,3.07361c-0.51135,-0.21454 -0.27556,-1.9385 0.52667,-3.85056c0.80222,-1.91206 1.8671,-3.28816 2.37844,-3.0736c0,0 0.04813,2.48052 -0.52669,3.85054z" fill="#000000"></path><path d="M239.34102,192.33938c0.51135,0.21454 0.27557,1.93851 -0.52667,3.85055c-0.80222,1.91206 -1.8671,3.28818 -2.37843,3.07361c-0.51135,-0.21454 -0.27557,-1.93848 0.52667,-3.85055c0.80222,-1.91206 1.86708,-3.28816 2.37844,-3.07362z" fill="#000000"></path></g><g fill="#03b000"><path d="M226.3872,185.68309c-3.32185,-8.5509 0.65729,-18.07473 8.88766,-21.27206c8.23037,-3.19733 17.59529,1.1426 20.91714,9.69351c1.68491,4.33721 1.49148,8.92472 -0.18234,12.80999c-1.62615,3.77466 9.99374,5.69635 5.93798,7.27195c-0.37437,0.14543 -6.70104,-1.56848 -7.11148,0.34709c-0.39989,1.86633 5.13973,7.36223 3.05429,7.58443c-0.92329,0.09837 -4.78954,-6.49136 -7.40073,-5.37929c-2.4674,1.05085 -3.67413,9.82552 -4.89863,9.307c-4.02006,-1.70229 -2.51075,-9.67028 -3.02222,-9.64171c-6.81618,0.38078 -13.4871,-3.78466 -16.18169,-10.72089z"></path><path d="M255.25564,175.64048c0,7.13191 -8.33895,-0.34677 -14.41376,2.00713c-1.73896,0.67382 -1.38635,9.64247 -3.35138,9.64247c-8.8296,0 -14.20968,-2.47614 -14.20968,-11.64961c0,-4.65298 1.84151,-8.8591 4.80864,-11.87459c2.88265,-2.92963 -7.25276,-8.92864 -2.90172,-8.92864c0.40162,0 5.67827,3.88858 6.75452,2.25165c1.04858,-1.59486 -2.12493,-8.72376 -0.10057,-8.17573c0.89624,0.24262 2.11388,7.78519 4.95055,7.69413c2.68048,-0.08605 6.98275,-7.82824 7.93638,-6.90152c3.13081,3.04249 -1.16138,9.92317 -0.67429,10.08175c6.49149,2.11331 11.2013,8.41168 11.2013,15.85293z"></path><path d="M253.52971,166.65549c0.35601,0.36833 4.65966,-6.5052 8.7665,-5.02443c1.25091,0.45104 -3.82271,7.71117 -2.72533,10.15822c1.16133,2.58965 8.47461,0.3786 9.08548,1.07786c1.37979,1.57944 -6.41883,1.85116 -7.39284,3.49262c-0.9997,1.68477 4.80806,4.72355 4.98406,5.08455c1.90685,3.91094 -7.92723,-2.57022 -9.29722,1.30476c-1.41013,3.98856 -4.57001,-9.20564 -8.75236,-7.16647c-0.25282,0.12328 -5.56943,-1.01304 -5.825,-0.90324c-8.07958,3.47152 -12.17431,18.1982 -15.92523,10.50502c-3.86957,-7.93651 -0.32209,-17.6294 7.92351,-21.64968c6.68861,-3.26112 14.41399,-1.78796 19.15844,3.12078z" data-paper-data="{&quot;index&quot;:null}"></path><path d="M246.55042,161.8172c8.24561,4.02027 11.79308,13.71317 7.92351,21.64969c-1.71723,3.52205 -12.20849,-7.5391 -15.6121,-6.10525c-4.26601,1.79714 -1.73798,15.43241 -6.32437,13.19624c-4.18234,-2.03917 -7.15598,-5.53775 -8.56613,-9.52631c-1.36998,-3.87498 -11.20406,2.60619 -9.29721,-1.30476c0.17601,-0.36101 5.98377,-3.39978 4.98406,-5.08455c-0.97401,-1.64146 -8.77263,-1.91318 -7.39284,-3.49262c0.61087,-0.69926 7.92415,1.5118 9.08547,-1.07786c1.09738,-2.44706 -3.97624,-9.70718 -2.72533,-10.15822c4.10682,-1.48078 8.41049,5.39275 8.7665,5.02442c4.74444,-4.90873 12.46984,-6.3819 19.15843,-3.12078z"></path><path d="M229.90402,164.43176c7.08478,-5.82741 17.37507,-5.0234 22.98403,1.79579c5.60896,6.8192 -7.74371,7.7599 -14.82848,13.58731c-2.60031,2.13881 -2.09479,4.72147 -1.65023,7.79925c0.16981,1.17562 2.74563,5.44556 1.58098,5.34164c-4.09377,-0.36527 -2.2884,11.27327 -5.05238,7.9129c-0.25513,-0.31018 -0.60392,-6.85559 -2.55182,-6.64693c-1.89782,0.2033 -5.38759,7.18283 -6.25032,5.27126c-0.38196,-0.8463 4.66975,-6.57807 2.79745,-8.71102c-1.76921,-2.0155 -10.48159,-0.41999 -10.37164,-1.74519c0.36092,-4.3507 8.40154,-5.4067 8.21458,-5.88363c-2.49155,-6.35592 -0.61913,-13.99438 5.12782,-18.72139z"></path></g><g data-paper-data="{&quot;index&quot;:null}"><path d="M222.10113,156.54853l11.09036,4.16989l-4.38235,4.90302z" fill="#ffe288"></path><path d="M229.36346,157.85594c0.24467,-1.20373 1.3131,-3.28199 1.3131,-3.28199c0,0 5.71398,3.68106 7.11556,5.16937c3.73901,3.97047 4.31487,9.50123 1.28623,12.35332c-3.02866,2.85209 -8.51491,1.94548 -12.25391,-2.02496c-1.85816,-1.97316 -5.80348,-4.85185 -5.80348,-4.85185c0,0 2.80107,-1.65845 4.17668,-2.11369c1.2971,-0.42926 3.75045,-0.94315 3.75045,-0.94315c0,0 0.12625,-2.8848 0.41532,-4.30704z" fill="url(#color-3)"></path><path d="M239.94806,167.92892c1.49478,1.58729 0.93417,2.9695 -0.77359,4.57774c-0.65842,0.62003 -2.76264,1.46022 -3.46114,0.55515c-1.11324,-1.44246 0.0155,-4.48355 0.0155,-4.48355c0,0 4.11112,-0.76414 4.21923,-0.64935z" fill="#8901d0"></path><path d="M229.51929,167.54236c-1.48173,-1.45053 -2.36842,-2.94766 -1.98048,-3.34392c0.38792,-0.39626 1.90358,0.45839 3.38529,1.90892c1.48173,1.45053 2.36841,2.94766 1.98046,3.34391c0,0 -2.32358,-0.8696 -3.38527,-1.90894z" fill="#000000"></path><path d="M236.27701,165.18781c-0.38792,0.39626 -1.90359,-0.45838 -3.38528,-1.90892c-1.48173,-1.45053 -2.36842,-2.94767 -1.98048,-3.34391c0.38792,-0.39626 1.90357,0.45838 3.38528,1.90892c1.48173,1.45053 2.36843,2.94766 1.98049,3.34392z" fill="#000000"></path></g><g><path d="M257.22823,158.79069l-5.70278,10.38568l-4.23088,-5.03431z" fill="#ffe288"></path><path d="M254.9026,165.7937c1.15678,0.41315 3.06221,1.76594 3.06221,1.76594c0,0 -4.45528,5.13325 -6.12757,6.30922c-4.46126,3.13718 -10.01774,2.92166 -12.41077,-0.48135c-2.39302,-3.40303 -0.71639,-8.7049 3.74486,-11.84209c2.21707,-1.55906 5.62694,-5.05553 5.62694,-5.05553c0,0 1.24379,3.00823 1.49904,4.43456c0.24069,1.34493 0.40091,3.84639 0.40091,3.84639c0,0 2.83763,0.5347 4.20439,1.02284z" fill="url(#color-4)"></path><path d="M243.42841,174.84034c-1.7835,1.25417 -3.07208,0.50294 -4.42144,-1.41594c-0.52024,-0.73981 -1.05304,-2.94201 -0.05795,-3.5049c1.58595,-0.89707 4.43589,0.65213 4.43589,0.65213c0,0 0.17249,4.17797 0.04351,4.26868z" fill="#8901d0"></path><path d="M245.29225,164.57218c1.64627,-1.26068 3.25416,-1.92575 3.5913,-1.48547c0.33715,0.44027 -0.7241,1.81918 -2.37039,3.07985c-1.64627,1.26068 -3.25416,1.92574 -3.5913,1.48546c0,0 1.1908,-2.17653 2.37039,-3.07983z" fill="#000000"></path><path d="M246.66314,171.59581c-0.33715,-0.44027 0.7241,-1.81918 2.37039,-3.07985c1.64627,-1.26068 3.25416,-1.92575 3.5913,-1.48547c0.33715,0.44027 -0.72411,1.81917 -2.37039,3.07985c-1.64627,1.26068 -3.25416,1.92577 -3.5913,1.48547z" fill="#000000"></path></g><g><path d="M265.63993,175.60416l-11.26206,3.68106l0.35387,-6.56654z" fill="#ffe288"></path><path d="M259.15511,179.12521c0.56179,1.09235 1.0276,3.38226 1.0276,3.38226c0,0 -6.76083,0.70055 -8.78526,0.41557c-5.40061,-0.76031 -9.30853,-4.71621 -8.72858,-8.83576c0.57996,-4.11956 5.42816,-6.84278 10.82877,-6.08247c2.68392,0.37784 7.56282,0.15714 7.56282,0.15714c0,0 -1.14881,3.04577 -1.93761,4.26123c-0.74379,1.14609 -2.33694,3.08126 -2.33694,3.08126c0,0 1.70543,2.33015 2.3692,3.62077z" fill="url(#color-5)"></path><path d="M244.59639,177.88347c-2.15905,-0.30394 -2.58591,-1.73313 -2.25889,-4.05605c0.12607,-0.89558 1.24274,-2.86705 2.35379,-2.59756c1.77072,0.42951 2.79158,3.50848 2.79158,3.50848c0,0 -2.73033,3.16709 -2.88647,3.14512z" fill="#8901d0"></path><path d="M252.97634,171.66373c2.06334,0.20539 3.69148,0.8192 3.63653,1.37101c-0.05492,0.5518 -1.77212,0.83265 -3.83545,0.62725c-2.06334,-0.20539 -3.69147,-0.81923 -3.63653,-1.37104c0,0 2.35703,-0.7744 3.83545,-0.62724z" fill="#000000"></path><path d="M249.17524,177.72691c0.05492,-0.5518 1.77212,-0.83265 3.83545,-0.62725c2.06334,0.20539 3.69147,0.81921 3.63653,1.37101c-0.05492,0.5518 -1.77211,0.83264 -3.83545,0.62725c-2.06334,-0.20539 -3.69148,-0.8192 -3.63653,-1.37101z" fill="#000000"></path></g><g data-paper-data="{&quot;index&quot;:null}"><path d="M225.90632,192.69442l5.70278,-10.38568l4.23088,5.03431z" fill="#ffe288"></path><path d="M228.23195,185.69142c-1.15678,-0.41316 -3.06221,-1.76594 -3.06221,-1.76594c0,0 4.45528,-5.13324 6.12757,-6.30922c4.46126,-3.13718 10.01774,-2.92168 12.41077,0.48134c2.39302,3.40303 0.71639,8.7049 -3.74486,11.84208c-2.21707,1.55906 -5.62693,5.05555 -5.62693,5.05555c0,0 -1.24379,-3.00823 -1.49904,-4.43456c-0.24069,-1.34493 -0.40091,-3.84639 -0.40091,-3.84639c0,0 -2.83763,-0.5347 -4.20439,-1.02284z" fill="url(#color-6)"></path><path d="M239.70613,176.64477c1.7835,-1.25419 3.07207,-0.50294 4.42144,1.41594c0.52024,0.73981 1.05304,2.94201 0.05795,3.5049c-1.58595,0.89707 -4.43589,-0.65214 -4.43589,-0.65214c0,0 -0.17249,-4.17797 -0.04351,-4.26868z" fill="#8901d0"></path><path d="M237.84229,186.91293c-1.64627,1.26068 -3.25416,1.92575 -3.5913,1.48547c-0.33715,-0.44027 0.72411,-1.81918 2.37039,-3.07985c1.64627,-1.26068 3.25416,-1.92574 3.5913,-1.48546c0,0 -1.1908,2.17654 -2.37039,3.07983z" fill="#000000"></path><path d="M236.47141,179.8893c0.33715,0.44027 -0.72411,1.81918 -2.37039,3.07985c-1.64627,1.26068 -3.25417,1.92574 -3.5913,1.48547c-0.33715,-0.44027 0.72411,-1.81917 2.37039,-3.07985c1.64627,-1.26068 3.25416,-1.92577 3.5913,-1.48547z" fill="#000000"></path></g><g data-paper-data="{&quot;index&quot;:null}"><path d="M218.07026,176.0164l11.26206,-3.68106l-0.35385,6.56654z" fill="#ffe288"></path><path d="M224.55508,172.49533c-0.56179,-1.09235 -1.02761,-3.38226 -1.02761,-3.38226c0,0 6.76085,-0.70055 8.78526,-0.41557c5.40062,0.76031 9.30853,4.71621 8.72858,8.83576c-0.57996,4.11956 -5.42816,6.84278 -10.82877,6.08249c-2.6839,-0.37783 -7.56282,-0.15715 -7.56282,-0.15715c0,0 1.14879,-3.04577 1.93759,-4.26123c0.74379,-1.14609 2.33694,-3.08126 2.33694,-3.08126c0,0 -1.70543,-2.33015 -2.36921,-3.62077z" fill="url(#color-7)"></path><path d="M239.11382,173.73709c2.15905,0.30394 2.5859,1.73313 2.25889,4.05605c-0.12609,0.89559 -1.24275,2.86705 -2.35379,2.59756c-1.77074,-0.42951 -2.79158,-3.50849 -2.79158,-3.50849c0,0 2.73033,-3.16709 2.88647,-3.14512z" fill="#8901d0"></path><path d="M230.73385,179.95681c-2.06334,-0.20538 -3.69148,-0.8192 -3.63653,-1.37103c0.05492,-0.5518 1.77212,-0.83264 3.83546,-0.62725c2.06334,0.20538 3.69147,0.81921 3.63652,1.37103c0,0 -2.35703,0.7744 -3.83545,0.62724z" fill="#000000"></path><path d="M234.53497,173.89363c-0.05492,0.5518 -1.77212,0.83265 -3.83545,0.62725c-2.06334,-0.20538 -3.69148,-0.81921 -3.63653,-1.37101c0.05492,-0.5518 1.77211,-0.83264 3.83545,-0.62725c2.06334,0.20538 3.69148,0.8192 3.63654,1.37101z" fill="#000000"></path></g><g><path d="M249.04166,195.56239l-7.81314,-8.90724l6.17667,-2.25684z" fill="#ffe288"></path><path d="M243.28806,190.88303c-0.78343,0.94608 -2.70569,2.27484 -2.70569,2.27484c0,0 -3.30272,-5.94068 -3.83675,-7.91408c-1.42466,-5.2645 0.67582,-10.4132 4.69155,-11.49992c4.01575,-1.08672 8.42605,2.30004 9.85071,7.56455c0.70801,2.61626 2.82948,7.01534 2.82948,7.01534c0,0 -3.25214,0.14145 -4.67988,-0.10584c-1.34624,-0.23318 -3.75198,-0.93702 -3.75198,-0.93702c0,0 -1.47178,2.48433 -2.39742,3.60215z" fill="url(#color-8)"></path><path d="M238.67092,177.11046c-0.56956,-2.10462 0.57663,-3.05912 2.84101,-3.67189c0.87301,-0.23625 3.12475,0.01519 3.31388,1.14271c0.30141,1.79697 -2.12809,3.94634 -2.12809,3.94634c0,0 -3.98561,-1.26495 -4.02679,-1.41716z" fill="#8901d0"></path><path d="M247.68487,182.3695c0.62254,1.97788 0.6984,3.71621 0.16944,3.88269c-0.52895,0.16649 -1.46243,-1.30193 -2.08496,-3.27981c-0.62254,-1.97788 -0.69839,-3.71621 -0.16943,-3.88269c0,0 1.63888,1.86262 2.08494,3.27981z" fill="#000000"></path><path d="M240.61542,181.25887c0.52895,-0.16649 1.46243,1.30193 2.08496,3.27981c0.62254,1.97788 0.69839,3.71621 0.16944,3.88269c-0.52895,0.16649 -1.46242,-1.30193 -2.08496,-3.27981c-0.62254,-1.97788 -0.6984,-3.71621 -0.16944,-3.88269z" fill="#000000"></path></g></g><path d="M208.12518,220.56662v-12.81396h62.89539v12.81396z" fill="#969696" stroke="none" stroke-width="0"></path><path d="M208.07514,220.67573v-84.81396h8.64539v84.81396z" fill="#969696" stroke="none" stroke-width="0"></path><path d="M263.62516,220.72572v-84.81396h8.14539v84.81396z" fill="#969696" stroke="none" stroke-width="0"></path><path d="M208.12518,146.22572v-10.31396h62.89539v10.31396z" fill="#969696" stroke="none" stroke-width="0"></path><path d="M215.87019,209.79913v-21.00188l21.13534,21.00188z" fill="#969696" stroke="none" stroke-width="0"></path><path d="M222.98466,213.5427v-12.15842h44.05785v12.15842z" fill="#969696" stroke="none" stroke-width="0"></path><text transform="translate(238.98711,218.27991) scale(0.47116,0.5)" font-size="40" xml:space="preserve" fill="#000000" fill-rule="nonzero" stroke="none" stroke-width="1" stroke-linecap="butt" stroke-linejoin="miter" stroke-miterlimit="10" stroke-dasharray="" stroke-dashoffset="0" font-family="Sans Serif" font-weight="normal" text-anchor="start" style="mix-blend-mode: normal"><tspan x="0" dy="0">125</tspan></text><g><path d="M223.50885,212.01218l-2.65375,6.84999l-2.38631,-6.84999z" data-paper-data="{&quot;index&quot;:null}" fill="#ffff00" stroke="#ffff00" stroke-width="1"></path><path d="M218.5406,200.63633l2.38632,-6.84999l2.65375,6.84999z" fill="#ffff00" stroke="#ffff00" stroke-width="1"></path><path d="M214.3572,206.53553c0,-3.72115 3.01658,-6.73773 6.73773,-6.73773c3.72115,0 6.73772,3.01658 6.73772,6.73773c0,3.72115 -3.01658,6.73772 -6.73772,6.73772c-3.72115,0 -6.73773,-3.01658 -6.73773,-6.73772z" fill="#ffff00" stroke="none" stroke-width="0"></path><path d="M226.78521,204.00043l6.87114,2.59848l-6.83054,2.44142z" data-paper-data="{&quot;index&quot;:null}" fill="#ffff00" stroke="#ffff00" stroke-width="1"></path><path d="M215.44977,209.06017l-6.86899,-2.33105l6.82838,-2.70885z" fill="#ffff00" stroke="#ffff00" stroke-width="1"></path><path d="M227.10079,208.64692l3.04475,6.68537l-6.56714,-3.08051z" data-paper-data="{&quot;index&quot;:null}" fill="#ffff00" stroke="#ffff00" stroke-width="1"></path><path d="M215.49211,204.25011l-3.23165,-6.49409l6.75404,2.88922z" fill="#ffff00" stroke="#ffff00" stroke-width="1"></path><path d="M223.66022,200.7043l6.66063,-3.0985l-3.02751,6.59174z" data-paper-data="{&quot;index&quot;:null}" fill="#ffff00" stroke="#ffff00" stroke-width="1"></path><path d="M219.35707,212.34803l-6.46785,3.28387l2.83472,-6.7771z" fill="#ffff00" stroke="#ffff00" stroke-width="1"></path><path d="M216.37344,206.73609c0,-2.70702 2.19448,-4.90151 4.9015,-4.90151c2.70702,0 4.90151,2.19448 4.90151,4.90151c0,2.70702 -2.19448,4.9015 -4.90151,4.9015c-2.70702,0 -4.9015,-2.19448 -4.9015,-4.9015z" fill="#fffff7" stroke="none" stroke-width="0"></path></g><path d="M271.92486,135.72009v33.64619l-33.86,-33.64619z" fill="#3aff00" stroke="none" stroke-width="0"></path></g></g></svg>