<svg version="1.1" xmlns="http://www.w3.org/2000/svg" xmlns:xlink="http://www.w3.org/1999/xlink" width="72.0268" height="98.64036" viewBox="0,0,72.0268,98.64036"><g transform="translate(-203.9866,-130.66734)"><g data-paper-data="{&quot;isPaintingLayer&quot;:true}" fill-rule="nonzero" stroke="#000000" stroke-width="1.28786" stroke-linejoin="miter" stroke-miterlimit="10" stroke-dasharray="" stroke-dashoffset="0" style="mix-blend-mode: normal"><path d="M216.83167,200.08703l17.46987,-54.37837l12.2741,3.94324l-17.46987,54.37838z" fill="#ba0000" stroke-linecap="butt"></path><path d="M251.51138,204.3396l-20.71381,-54.23504l13.82874,-5.28156l20.71381,54.23504z" fill="#ba0000" stroke-linecap="butt"></path><path d="M221.13225,228.66377c-9.11364,0 -16.50172,-8.27715 -16.50172,-18.48753c0,-10.21038 7.38808,-18.48753 16.50172,-18.48753c9.11364,0 16.5017,8.27715 16.5017,18.48753c0,10.21038 -7.38806,18.48753 -16.5017,18.48753z" fill="#ff0000" stroke-linecap="butt"></path><path d="M260.26312,228.60311c-8.343,0 -15.10635,-7.50308 -15.10635,-16.75859c0,-9.25552 6.76334,-16.75859 15.10635,-16.75859c8.343,0 15.10635,7.50308 15.10635,16.75859c0,9.25552 -6.76334,16.75859 -15.10635,16.75859z" fill="#ff0000" stroke-linecap="butt"></path><path d="M243.93513,138.72562c4.96881,7.30742 5.15033,15.84676 0.40543,19.07314c-4.7449,3.22638 -12.61942,-0.08197 -17.58823,-7.38939c-4.96881,-7.30742 -0.40541,-19.07314 -0.40541,-19.07314c0,0 13.05707,0.72561 17.58823,7.38938z" fill="#00ff12" stroke-linecap="butt"></path><path d="M229.64852,204.59637c0,4.75279 -0.97783,8.60571 -2.18405,8.60571c-1.20622,0 -2.18405,-3.85291 -2.18405,-8.60571c0,-4.75279 0.97783,-8.6057 2.18405,-8.6057c1.20622,0 2.18405,3.85291 2.18405,8.6057z" fill="#000000" stroke-linecap="butt"></path><path d="M215.15752,216.56462c0,0 3.02724,-1.45364 5.77276,-0.76571c2.11475,0.52988 9.3076,4.54425 9.3076,4.54425" fill="none" stroke-linecap="round"></path><path d="M254.12374,222.71774c0,0 1.45347,-2.81897 3.57443,-2.60107c2.09662,0.21539 9.07918,3.90102 9.07918,3.90102" fill="none" stroke-linecap="round"></path><path d="M221.98745,205.18647c0,4.75279 -0.97783,8.60571 -2.18405,8.60571c-1.20622,0 -2.18405,-3.85291 -2.18405,-8.60571c0,-4.75279 0.97783,-8.60571 2.18405,-8.60571c1.20622,0 2.18405,3.85291 2.18405,8.60571z" fill="#000000" stroke-linecap="butt"></path><path d="M260.19098,210.23029c0,4.75279 -0.97783,8.60571 -2.18405,8.60571c-1.20622,0 -2.18405,-3.85291 -2.18405,-8.60571c0,-4.75279 0.97783,-8.6057 2.18405,-8.6057c1.20622,0 2.18405,3.85291 2.18405,8.6057z" fill="#000000" stroke-linecap="butt"></path><path d="M268.28628,211.18438c0,4.75279 -0.97783,8.60571 -2.18405,8.60571c-1.20622,0 -2.18405,-3.85291 -2.18405,-8.60571c0,-4.75279 0.97783,-8.60571 2.18405,-8.60571c1.20622,0 2.18405,3.85291 2.18405,8.60571z" fill="#000000" stroke-linecap="butt"></path><path d="M231.7704,195.70393l-9.26339,3.47595l-9.08287,-7.22774" fill="none" stroke-linecap="round"></path><path d="M271.46509,200.92187l-9.26339,3.47595l-9.08287,-7.22774" fill="none" stroke-linecap="round"></path></g></g></svg>