<svg version="1.1" xmlns="http://www.w3.org/2000/svg" xmlns:xlink="http://www.w3.org/1999/xlink" width="147.14431" height="48.73837" viewBox="0,0,147.14431,48.73837"><g transform="translate(-209.67465,-156.21151)"><g data-paper-data="{&quot;isPaintingLayer&quot;:true}" fill-rule="nonzero" stroke="#000000" stroke-width="1.28786" stroke-linejoin="miter" stroke-miterlimit="10" stroke-dasharray="" stroke-dashoffset="0" style="mix-blend-mode: normal"><path d="M231.95081,202.90535v-15.23136h124.22423v15.23136z" fill="#beff9a" stroke-linecap="butt"></path><path d="M262.6184,200.33347c-3.01097,1.07572 -6.55647,-0.4301 -7.14575,-2.07952c-0.5493,-1.53752 1.5504,-4.72679 4.22659,-5.68291c2.67619,-0.95611 6.08779,0.13797 6.67708,1.78739c0.58929,1.64943 -0.74695,4.89933 -3.75792,5.97505z" data-paper-data="{&quot;index&quot;:null}" fill="#f6fab0" stroke-linecap="butt"></path><path d="M258.96811,195.93404l-2.07719,2.8685" fill="none" stroke-linecap="round"></path><path d="M260.41072,199.96761l1.08805,-2.96741" fill="none" stroke-linecap="round"></path><path d="M264.77935,198.71126l-0.6924,-2.76958" fill="none" stroke-linecap="round"></path><path d="M239.38658,199.37292c-1.26137,-1.29426 -0.78606,-3.80323 1.06161,-5.60396c1.20152,-1.17099 3.16603,-2.78642 4.49113,-1.74433c0.7126,0.56041 4.45301,0.35145 2.70905,4.19233c-1.74396,3.84088 -7.00041,4.45021 -8.26179,3.15595z" data-paper-data="{&quot;index&quot;:null}" fill="#000000" stroke-linecap="butt"></path><path d="" fill="none" stroke-linecap="butt"></path><path d="" fill="#00a735" stroke-linecap="butt"></path><path d="" fill="#ccf280" stroke-linecap="butt"></path><path d="" fill="#000000" stroke-linecap="butt"></path><path d="" fill="#000000" stroke-linecap="butt"></path><path d="" fill="#000000" stroke-linecap="round"></path><path d="" fill="none" stroke-linecap="butt"></path><path d="" fill="#00a735" stroke-linecap="butt"></path><path d="" fill="#ccf280" stroke-linecap="butt"></path><path d="" fill="#000000" stroke-linecap="butt"></path><path d="" fill="#000000" stroke-linecap="butt"></path><path d="" fill="#000000" stroke-linecap="round"></path><path d="M258.99017,191.19414c0,0.74669 4.63279,6.11894 4.63279,6.11894c0,0 -5.26343,-3.14542 -6.54454,-2.68738c-2.62098,0.93706 -4.47416,-1.64274 -5.55604,-1.02087c-2.73596,1.57266 -2.85124,-1.01606 -2.85124,-1.01606c0,0 -1.01927,-1.99202 -2.99988,-1.99202c-3.18546,0 -9.59009,7.69161 -9.59009,7.69161c0,0 -5.30258,2.1111 -6.96916,0.59163c-0.60792,-0.55426 -2.00295,-1.81068 -3.44955,-2.04868c-4.22916,-0.69579 -10.39213,0.59438 -10.39213,0.59438l5.16098,-4.54305c0,0 -1.36719,0.0251 -2.27551,0.32645c-1.52014,0.50431 -5.99738,2.41813 -5.99738,2.41813c0,0 2.92781,-3.20181 4.66449,-4.47823c1.53376,-1.12728 5.22269,-2.7886 5.22269,-2.7886c0,0 -1.60581,-0.09079 -2.84295,0.28108c-1.66011,0.49901 -6.22738,2.44533 -6.22738,2.44533c0,0 2.16267,-3.15925 6.92863,-5.2482c0.49168,-0.21551 -0.35853,-0.95737 -1.71459,-0.95944c-1.05305,-0.00161 -2.64673,0.71776 -2.64673,0.71776c0,0 3.59464,-3.20765 9.29942,-4.6465c6.74087,-1.70018 10.16281,-3.75258 10.70563,-3.75258c1.49175,0 6.82243,-1.28126 11.55558,0.0243c4.11187,1.13418 7.60294,4.80297 9.85719,5.68168c2.10384,0.82007 3.8295,2.7928 3.8295,2.7928c0,0 -1.73781,-0.25939 -2.56616,-0.17529c-1.10914,0.11261 -4.1881,-0.29731 -4.1881,-0.29731c0,0 7.33156,3.35973 7.95319,3.84171c1.80105,1.39646 2.82318,3.24459 2.82318,3.24459c0,0 -5.82181,-2.09501 -5.82181,-1.11618z" fill="#acff26" stroke-linecap="butt"></path><path d="M257.56566,182.22593c-1.24833,3.09314 -4.60335,2.47413 -8.02424,1.09353c-3.42089,-1.38061 -5.61223,-3 -4.3639,-6.09314c1.24833,-3.09314 5.03349,-4.48143 8.45438,-3.10083c3.4209,1.38061 5.1821,5.0073 3.93377,8.10044z" fill="#4e3605" stroke-linecap="butt"></path><path d="M240.65874,175.35489c0.74117,0 -0.12772,-3.1249 1.22478,-4.30901c1.75735,-1.53854 5.69918,-1.23016 5.69918,-1.23016c0,0 -3.56089,1.99467 -3.56089,3.36307c0,0.50926 -0.51633,4.03148 -1.36617,4.82819c-1.89743,1.7788 -5.06322,1.00772 -5.06322,1.00772c0,0 -1.58262,-3.07682 -1.58262,-4.64894c0,-1.48976 1.58262,-4.55003 1.58262,-4.55003c0,0 1.4445,5.53917 3.06633,5.53917z" data-paper-data="{&quot;index&quot;:null}" fill="#acff26" stroke-linecap="butt"></path><path d="M241.77065,181.29251l8.88945,-3.01094l-1.57716,3.15433l3.58446,0.71689l1.86392,4.13118" fill="#acff26" stroke-linecap="round"></path><path d="M223.87042,173.6545c0,0 -1.50858,-5.44785 -0.59314,-8.49494c0.96856,-3.22391 4.77045,-5.99582 4.77045,-5.99582c0,0 3.04355,-3.20875 5.19485,-2.05987c2.52857,1.35036 -1.02989,4.87746 -1.02989,4.87746c0,0 -0.93427,0.18458 -2.14467,4.01598c-1.05258,3.33185 1.49542,7.93728 1.01741,7.59392c-0.30336,-0.2179 -7.215,0.06327 -7.215,0.06327z" fill="#acff26" stroke-linecap="butt"></path><path d="M230.26728,198.85231l3.40865,-12.55003l6.36418,-3.12068l4.64517,2.93657l5.46813,-2.54776l4.07664,4.28851l1.17308,4.82428c0,0 -2.99975,5.00324 -4.96129,5.39099c-1.96153,0.38775 -5.95942,-4.96484 -5.95942,-4.96484c0,0 -4.92247,4.86412 -4.95493,4.86709c-0.01082,0.00099 -3.2369,1.00539 -4.71901,1.03662c-2.96542,0.0625 -4.5412,-0.16076 -4.5412,-0.16076z" fill="#f6fab0" stroke-linecap="round"></path><path d="M236.01471,178.75031c0,2.76527 -2.98359,4.17379 -5.49478,5.45138c-1.21231,0.61678 -1.32485,1.97277 -2.81997,1.97277c-4.5921,0 -8.31473,-3.3239 -8.31473,-7.42415c0,-4.10024 3.72264,-7.42415 8.31474,-7.42415c4.5921,0 8.31474,3.32391 8.31474,7.42415z" fill="#4e3605" stroke-linecap="butt"></path><path d="M226.01473,188.31805l-2.43743,-4.87486l8.02919,-1.00365l-0.28675,-3.2977l6.88216,3.2977" fill="#acff26" stroke-linecap="round"></path><path d="M225.04492,161.89087l2.80139,-2.6418c0,0 3.04355,-3.20875 5.19485,-2.05987c2.52857,1.35036 -1.02989,4.87746 -1.02989,4.87746l-1.40738,2.01282z" fill="#4e3605" stroke-linecap="butt"></path><path d="M225.95015,203.3237c-3.45703,-1.58211 -5.50404,-4.51547 -4.5721,-6.55183c0.93194,-2.03637 4.48991,-2.40461 7.94695,-0.8225c3.45703,1.58211 5.50404,4.51547 4.5721,6.55183c-0.93194,2.03637 -4.48991,2.40461 -7.94695,0.8225z" fill="#f6fab0" stroke-linecap="butt"></path><path d="M224.00603,196.95177l-1.68153,4.15438" fill="none" stroke-linecap="round"></path><path d="M225.9233,199.06583l1.08805,4.05546" fill="none" stroke-linecap="round"></path><path d="M231.72285,203.56605l-2.07719,-2.1761" fill="none" stroke-linecap="round"></path><path d="M243.0642,192.4286l2.67067,-0.19783l-0.89022,2.37393z" fill="#000000" stroke-linecap="round"></path><path d="M234.75622,189.10686l6.93434,0.47133l-5.55653,4.4776" fill="none" stroke-linecap="round"></path><path d="M251.39401,190.44798l-6.93434,-0.47133l5.55654,-4.4776" data-paper-data="{&quot;index&quot;:null}" fill="none" stroke-linecap="round"></path></g></g></svg>