<svg version="1.1" xmlns="http://www.w3.org/2000/svg" xmlns:xlink="http://www.w3.org/1999/xlink" width="51.79518" height="50.74635" viewBox="0,0,51.79518,50.74635"><g transform="translate(-293.051,-153.50591)"><g stroke-miterlimit="10"><path d="M322.15733,182.58582c-3.55206,-1.59086 -4.15065,-9.05053 -4.15065,-9.05053c0,0 14.91693,-5.68364 20.58785,-3.14379c5.67092,2.53985 5.6077,14.87606 5.6077,14.87606c0,0 -18.49282,-1.09084 -22.04488,-2.68172z" fill="#00db28" stroke="#000000" stroke-width="1.28786" stroke-linecap="round"/><path d="M310.7993,176.00449c0,0 3.24083,-17.09628 8.45691,-20.80926c5.21608,-3.71298 15.63761,3.65797 15.63761,3.65797c0,0 -10.9143,16.37111 -14.18148,18.6968c-3.26718,2.32569 -9.91304,-1.54549 -9.91304,-1.54549z" fill="#00db28" stroke="#000000" stroke-width="1.28786" stroke-linecap="round"/><path d="M315.70597,179.86277c-3.88121,0.45529 -21.85506,-4.67739 -21.85506,-4.67739c0,0 3.76943,-12.8917 9.96584,-13.61855c6.1964,-0.72686 18.65708,10.26102 18.65708,10.26102c0,0 -2.88665,7.57965 -6.76786,8.0349z" fill="#00db28" stroke="#000000" stroke-width="1.28786" stroke-linecap="round"/><path d="M322.13409,183.8265c-2.1559,3.55364 -17.21663,15.34293 -17.21663,15.34293c0,0 -6.63478,-11.47627 -3.19287,-17.14972c3.44191,-5.67345 19.09203,-9.05745 19.09203,-9.05745c0,0 3.47337,7.31058 1.31747,10.86423z" fill="#00db28" stroke="#000000" stroke-width="1.28786" stroke-linecap="round"/><path d="M309.75117,184.36928c-1.60231,-3.93373 2.91194,-10.39071 2.91194,-10.39071c0,0 14.95456,6.55803 17.51267,12.83829c2.55811,6.28026 -2.39336,16.38341 -2.39336,16.38341c0,0 -16.42894,-14.89728 -18.03124,-18.83101z" fill="#00db28" stroke="#000000" stroke-width="1.28786" stroke-linecap="round"/><path d="M310.62759,186.14516c0,0 -13.96392,-1.83794 -14.26808,-5.66509c-0.31225,-3.82718 13.17286,-7.88087 13.17286,-7.88087c0,0 -2.5686,-13.84739 0.97976,-15.32527c3.54417,-1.4739 11.56669,10.09826 11.56669,10.09826c0,0 12.37327,-6.72133 14.87347,-3.80617c2.49938,2.91259 -6.0259,14.12129 -6.0259,14.12129c0,0 10.21687,9.69244 8.21644,12.9706c-1.998,3.27748 -15.29314,-1.36871 -15.29314,-1.36871c0,0 -6.05987,12.70687 -9.79246,11.82038c-3.74002,-0.88411 -3.42966,-14.96441 -3.42966,-14.96441z" fill="#ffff00" stroke="#000000" stroke-width="1.28786" stroke-linecap="butt"/><g><path d="M326.05764,178.57764c-1.24812,0.71805 -2.65444,0.61438 -3.14111,-0.23155c-0.48666,-0.84593 0.13061,-2.11378 1.37872,-2.83184c1.24812,-0.71805 2.65444,-0.61438 3.14111,0.23155c0.48666,0.84593 -0.13061,2.11378 -1.37872,2.83184z" fill="#fab6ff" stroke="none" stroke-width="0" stroke-linecap="butt"/><path d="M314.93352,185.20208c-1.24812,0.71805 -2.65444,0.61438 -3.14111,-0.23155c-0.48666,-0.84593 0.13061,-2.11378 1.37872,-2.83184c1.24812,-0.71805 2.65444,-0.61438 3.14111,0.23155c0.48666,0.84593 -0.13061,2.11378 -1.37872,2.83184z" fill="#fab6ff" stroke="none" stroke-width="0" stroke-linecap="butt"/><path d="M316.42589,176.26435c1.34249,2.33352 1.71969,4.63434 0.84247,5.13901c-0.87721,0.50466 -2.67663,-0.97792 -4.01913,-3.31146c-1.34249,-2.33352 -1.71968,-4.63433 -0.84248,-5.139c0.87721,-0.50466 2.67664,0.97792 4.01913,3.31145z" fill="#000000" stroke="#000000" stroke-width="1.28786" stroke-linecap="butt"/><path d="M321.783,173.59367c1.36854,2.37881 1.81324,4.68966 0.99324,5.16141c-0.82,0.47174 -2.59417,-1.07423 -3.96271,-3.45305c-1.36854,-2.37881 -1.81323,-4.68966 -0.99323,-5.16141c0.82,-0.47174 2.59417,1.07423 3.96271,3.45305z" fill="#000000" stroke="#000000" stroke-width="1.28786" stroke-linecap="butt"/><path d="M325.54784,177.18705c0,0 1.36591,3.21661 -0.16739,4.29784c-1.53329,1.08124 -4.73315,-0.84211 -4.73315,-0.84211c0,0 0.66368,2.96257 -0.77857,3.86678c-1.44225,0.9042 -5.02561,-1.23801 -5.02561,-1.23801" fill="none" stroke="#000000" stroke-width="1.28786" stroke-linecap="round"/><path d="M323.75726,185.33317l-2.6139,-4.34377c0,0 3.059,1.06627 3.92348,0.56893c0.8027,-0.46181 0.86303,-3.55243 0.86303,-3.55243l2.84273,4.44194z" fill="#ffffff" stroke="#000000" stroke-width="1.28786" stroke-linecap="butt"/></g></g></g></svg>