<svg version="1.1" xmlns="http://www.w3.org/2000/svg" xmlns:xlink="http://www.w3.org/1999/xlink" width="61.76491" height="88.09171" viewBox="0,0,61.76491,88.09171"><g transform="translate(-211.29404,-122.51541)"><g data-paper-data="{&quot;isPaintingLayer&quot;:true}" fill-rule="nonzero" stroke="#000000" stroke-width="1.28786" stroke-linejoin="miter" stroke-miterlimit="10" stroke-dasharray="" stroke-dashoffset="0" style="mix-blend-mode: normal"><path d="M235.92237,168.22197l7.77963,-41.54188l5.22019,41.47288z" data-paper-data="{&quot;index&quot;:null}" fill="#00a7a7" stroke-linecap="butt"></path><path d="M233.38772,173.29502l18.77999,-37.34384l-6.55066,41.75331z" data-paper-data="{&quot;index&quot;:null}" fill="#00a7a7" stroke-linecap="butt"></path><path d="M239.23595,178.03783l-6.55066,-41.75331l18.77999,37.34384z" data-paper-data="{&quot;index&quot;:null}" fill="#00a7a7" stroke-linecap="butt"></path><path d="M230.73595,177.20449l-6.55066,-41.75331l18.77999,37.34384z" data-paper-data="{&quot;index&quot;:null}" fill="#00a7a7" stroke-linecap="butt"></path><path d="M224.77591,176.85519l-11.72153,-40.60611l23.30331,34.70167z" data-paper-data="{&quot;index&quot;:null}" fill="#00a7a7" stroke-linecap="butt"></path><path d="M241.38772,171.62835l18.77999,-37.34384l-6.55066,41.75331z" data-paper-data="{&quot;index&quot;:null}" fill="#00a7a7" stroke-linecap="butt"></path><path d="M247.99531,169.78409l23.30331,-34.70167l-11.72153,40.60611z" data-paper-data="{&quot;index&quot;:null}" fill="#00a7a7" stroke-linecap="butt"></path><path d="M225.56312,166.67239c0.03809,-0.05235 -5.59352,2.06779 -5.68276,1.54485c-0.54805,-3.21119 2.47376,-16.27404 2.47376,-16.27404l7.36523,6.11006l2.11926,-7.10267l6.54701,7.7233l-1.0948,1.29814l0.59407,-0.6973l5.05734,-8.89994l6.6722,10.35199l-1.02648,0.1502l4.23114,-10.27685l5.58312,9.6635l5.10744,-10.2268c0,0 -2.13828,18.35872 -2.23665,20.39824c-0.01812,0.37555 1.25563,-0.05873 1.25563,-0.05873" data-paper-data="{&quot;index&quot;:null}" fill="#00ffec" stroke-linecap="round"></path><path d="M219.26383,168.31874l4.1936,-12.36729l5.10744,10.2268l5.58313,-9.66352l4.23114,10.27687l-1.02648,-0.15022l6.67222,-10.35198l5.05735,8.89994l0.59406,0.69731l-1.09479,-1.29814l6.54702,-7.7233l4.18108,9.90136l1.48944,2.04713" fill="#00ffec" stroke-linecap="round"></path><path d="M219.7767,209.96319l3.79303,-38.51636l34.32495,0.20028l5.67075,38.31608z" fill="#87ffd6" stroke-linecap="butt"></path><path d="M265.0559,172.09147c0,1.004 -0.79572,2.77381 -7.7137,3.48456c-8.26516,0.84916 -23.43408,0.52907 -31.358,0.26228c-9.25967,-0.31173 -11.03873,-2.34513 -11.03873,-3.74685c0,-1.78374 -0.38938,-3.77398 12.00565,-3.79266c6.51012,-0.00982 20.94778,-0.2141 29.02216,0.54282c7.62438,0.71474 9.08261,2.36519 9.08261,3.24984z" fill="#549e9e" stroke-linecap="butt"></path><path d="M220.19179,173.29684l4.1936,-12.36729l5.10744,10.2268l5.58311,-9.6635l4.23114,10.27686l-1.02648,-0.15022l6.6722,-10.35195l5.05735,8.89994l0.59406,0.69729l-1.09479,-1.29814l6.54701,-7.72331l4.18108,9.90135l1.48943,2.04713" fill="#00ffec" stroke-linecap="round"></path><path d="M254.92481,178.05063l-10.90452,10.85619" fill="none" stroke-linecap="round"></path><path d="M251.86362,186.17306c0,2.95146 -2.06254,5.34409 -4.60681,5.34409c-0.61882,0 -2.71549,-2.55817 -2.71549,-2.55817l6.40598,-6.3527c0,0 0.91631,2.64374 0.91631,3.56679z" data-paper-data="{&quot;index&quot;:null}" fill="#00ebff" stroke-linecap="butt"></path><path d="M225.41667,201.5c0,0 2.8538,-4.70454 7.66305,-4.23101c14.9277,1.46983 26.00362,4.06434 26.00362,4.06434" fill="none" stroke-linecap="round"></path><path d="M232.1243,182.9396l6.40598,6.3527c0,0 -2.09667,2.55817 -2.71549,2.55817c-2.54427,0 -4.60681,-2.39263 -4.60681,-5.34408c0,-0.92305 0.91631,-3.56679 0.91631,-3.56679z" data-paper-data="{&quot;index&quot;:null}" fill="#00ebff" stroke-linecap="butt"></path><path d="M240.42481,189.90681l-10.90452,-10.85619" data-paper-data="{&quot;index&quot;:null}" fill="none" stroke-linecap="round"></path></g></g></svg>