<svg version="1.1" xmlns="http://www.w3.org/2000/svg" xmlns:xlink="http://www.w3.org/1999/xlink" width="56.48567" height="55.24464" viewBox="0,0,56.48567,55.24464"><g transform="translate(-211.59962,-155.26296)"><g data-paper-data="{&quot;isPaintingLayer&quot;:true}" fill-rule="nonzero" stroke="#000000" stroke-width="1.28786" stroke-linejoin="miter" stroke-miterlimit="10" stroke-dasharray="" stroke-dashoffset="0" style="mix-blend-mode: normal"><path d="M253.24988,196.49417c0,0 -8.48166,-1.621 -12.61383,-1.68267c-4.24005,-0.06328 -12.51117,1.30767 -12.51117,1.30767l-4.2987,-4.71659l-8,-6.66666l6.66667,0.33334l-5.66667,-5.16667l6.33334,-0.83333l2.5,-3.66667l4.22222,0.11112l-2.72222,-3.77778v-6.66666l3.16666,2.83333l4.33334,-4.66666l2.19531,2.40463l-0.43179,-4.16564l4.71686,-5.1919l3.52176,4.86749l-0.44994,4.52183l3.11282,-2.90237l2,4.66667l5.5,-2.66667v6.66667l-3.05555,3.55555l4.55555,0.11111l2.5,3.66666l6.33334,0.83334l-5.66667,5.16666l6.66667,-0.33333l-8,6.66666z" fill="#27ffb8" stroke-linecap="round"></path><path d="M241.18244,195.09056l-13.23762,7.13975l-2.7547,-2.53409l-0.15734,3.3256l-6.07109,0.51815l-4.56167,-1.39911l3.94243,-4.10679l3.13377,0.41466l-0.15928,-2.72133l9.16721,-3.56536" fill="#27ffb8" stroke-linecap="round"></path><path d="M250.81206,192.33906l9.16722,3.56536l-0.15928,2.72133l3.13377,-0.41466l3.94243,4.1068l-4.56166,1.39911l-6.07109,-0.51815l-0.15734,-3.3256l-2.7547,2.53409l-13.23762,-7.13975" data-paper-data="{&quot;index&quot;:null}" fill="#27ffb8" stroke-linecap="round"></path><path d="M236.86359,180.60014l-4.22361,-2.3827l3.6464,0.03333z" data-paper-data="{&quot;index&quot;:null}" fill="#000000" stroke-linecap="round"></path><path d="M244.416,178.09681l3.6464,-0.03333l-4.22362,2.3827z" fill="#000000" stroke-linecap="round"></path><path d="M238.06793,179.13398c0,2.86537 -0.85831,3.18822 -1.69282,3.18822c-0.83451,0 -1.32918,-0.32285 -1.32918,-3.18822c0,-2.86537 0.40377,-2.46094 1.23827,-2.46094c0.83451,0 1.78373,-0.40443 1.78373,2.46094z" fill="#ffffff" stroke-linecap="butt"></path><path d="M244.67855,179.58393c0,2.96048 -0.55823,2.63314 -1.35898,2.63314c-0.80076,0 -1.5408,0.32734 -1.5408,-2.63314c0,-2.96048 0.46732,-2.90586 1.26807,-2.90586c0.80076,0 1.63171,-0.05461 1.63171,2.90586z" fill="#ffffff" stroke-linecap="butt"></path><path d="M225.46518,196.35372l-2.51638,-2.33269l5.38993,-1.37311l-2.40017,-4.2488l14.47238,5.48644l-25.38242,12.52627z" fill="#27ffb8" stroke-linecap="round"></path><path d="M235.43655,189.21541l8.83946,-2.35974l1.17787,3.65057l-6.91516,-2.06667z" fill="#ffffff" stroke-linecap="round"></path><path d="M263.47637,207.8852l-22.6188,-14.14993l14.4367,-4.32669l-2.80143,3.99459l4.96001,1.74173l-2.67832,2.10549z" data-paper-data="{&quot;index&quot;:null}" fill="#27ffb8" stroke-linecap="round"></path></g></g></svg>