<svg version="1.1" xmlns="http://www.w3.org/2000/svg" xmlns:xlink="http://www.w3.org/1999/xlink" width="77.08175" height="77.62725" viewBox="0,0,77.08175,77.62725"><g transform="translate(-281.51091,-141.13459)"><g stroke="#000000" stroke-miterlimit="10"><path d="M332.45779,172.7897l6.88511,-0.40006l10.00755,-8.08315l3.98342,3.68835l-13.57328,9.88444l-13.05661,0.81177z" fill="#646464" stroke-width="0.5" stroke-linecap="butt"/><path d="M321.4665,172.75267l0.81178,-13.05662l9.88444,-13.57328l3.68835,3.98342l-8.08314,10.00755l-0.40006,6.8851z" fill="#646464" stroke-width="0.5" stroke-linecap="butt"/><path d="M312.39315,183.30135l11.43389,-11.43388l4.20472,4.20472l-11.43389,11.43388z" fill="#ff0000" stroke-width="0.5" stroke-linecap="butt"/><path d="M301.90378,192.78698l11.01937,-11.01937l5.12394,5.12394l-11.01937,11.01937l-4.73588,-0.21137z" fill="#7b7b7b" stroke-width="0.5" stroke-linecap="butt"/><path d="M331.91263,146.25872l4.77057,-4.77057l21.5559,21.55589l-4.77057,4.77057z" fill="#7b7b7b" stroke-width="0.5" stroke-linecap="butt"/><path d="M281.77264,203.95293c-0.19255,-3.55716 2.01858,-4.97368 4.13065,-7.4912c5.34948,-6.37641 14.43446,-11.0739 14.43446,-11.0739l3.71563,3.71563l1.01099,5.89744l6.06594,1.17949l3.73664,3.73664c0,0 -4.88608,9.42098 -11.05231,14.75309c-2.45717,2.12479 -4.60837,4.10954 -7.51279,3.81202c-10.19302,-1.04416 -14.25568,-9.47593 -14.52921,-14.52921z" fill="#5c5c5c" stroke-width="0.5" stroke-linecap="butt"/><path d="M304.0714,189.40236c0,0 1.85492,2.68485 2.99014,3.7944c1.02963,1.00635 3.53538,2.58358 3.53538,2.58358l-8.81126,2.40903z" fill="#353535" stroke-width="0.5" stroke-linecap="butt"/><path d="M301.69694,197.98099l4.94239,-4.79486" fill="none" stroke-width="0.5" stroke-linecap="round"/><path d="M320.43377,173.04773l7.45047,-7.45047l6.49149,6.4915l-7.45047,7.45047z" fill="#7b7b7b" stroke-width="0.5" stroke-linecap="butt"/><path d="M309.6162,159.08889c-4.39628,6.83865 -5.20157,12.80858 -5.22301,20.83802c-0.00534,1.99999 -0.01068,3.99999 -0.01602,5.99998c-0.00089,0.33333 -0.33553,0.98222 -0.00267,1c0.33286,0.01778 0.01819,-0.67246 0.10388,-0.99459c0.24351,-0.91542 0.82883,-1.8765 1.21209,-2.74424" fill="none" stroke-width="1.28786" stroke-linecap="round"/><path d="M320.71665,163.40573c0.36839,9.39384 0.24194,18.58993 1.74585,27.87827" fill="none" stroke-width="1.28786" stroke-linecap="round"/><path d="M294.66144,189.76928c0,2.1336 1.7641,4.44876 2.73239,6.34173c6.6711,13.04176 25.8541,15.47006 38.82146,10.472c2.8868,-1.11267 6.72646,-2.04955 8.90672,-4.40641c2.15705,-2.33177 2.06449,-6.5778 2.23601,-9.56323" fill="none" stroke-width="1.28786" stroke-linecap="round"/></g></g></svg>