<svg version="1.1" xmlns="http://www.w3.org/2000/svg" xmlns:xlink="http://www.w3.org/1999/xlink" width="578.70499" height="527.89647" viewBox="0,0,578.70499,527.89647"><g transform="translate(45.61221,42.89647)"><g data-paper-data="{&quot;isPaintingLayer&quot;:true}" fill="#000000" fill-rule="nonzero" stroke="none" stroke-width="0" stroke-linecap="butt" stroke-linejoin="miter" stroke-miterlimit="10" stroke-dasharray="" stroke-dashoffset="0" style="mix-blend-mode: normal"><path d="M4.27557,180.71489v-6.45026h428.77246v6.45026z"></path><path d="M8.52558,271.96489v-4.70026h428.77246v4.70026z"></path><path d="M83.35669,385.87599h-4.38976v-428.77246h4.38976z"></path><path d="M153.35669,390.87599h-4.38976v-428.77246h4.38976z"></path><path d="M223.35669,395.87599h-4.38976v-428.77246h4.38976z"></path><path d="M293.35668,400.87599h-4.38976v-428.77246h4.38976z"></path><path d="M363.02217,405.87599h-2.72074v-428.77246h2.72074z"></path><path d="M478.79776,412.87599h-48.27191v-428.77246h48.27191z"></path><path d="M-23.61221,82v-119h493v119z"></path><path d="M400.38779,34v-29h31v29z"></path><path d="M371.38779,11v-6h29v6z"></path><path d="M-45.61221,400v-337h54v337z"></path><path d="M-23.90723,485v-476h557v476z"></path></g></g></svg>