<svg version="1.1" xmlns="http://www.w3.org/2000/svg" xmlns:xlink="http://www.w3.org/1999/xlink" width="64.79223" height="87.81177" viewBox="0,0,64.79223,87.81177"><g transform="translate(-287.55979,-137.40138)"><g stroke-miterlimit="10"><path d="M288.55231,222.40698v-84.81396h62.89539v84.81396z" fill="#515151" stroke="none" stroke-width="0" stroke-linecap="butt"/><g><path d="M323.84155,186.15538c-4.07487,-1.94765 -4.55474,-10.61855 -4.55474,-10.61855c0,0 17.46802,-6.16439 23.9736,-3.05491c6.50557,3.10948 6.07747,17.41844 6.07747,17.41844c0,0 -21.42145,-1.79727 -25.49633,-3.74495z" fill="#00db28" stroke="#000000" stroke-width="1.28786" stroke-linecap="round"/><path d="M310.85481,178.19399c0,0 4.25123,-19.73956 10.409,-23.89683c6.15777,-4.15729 18.03541,4.6932 18.03541,4.6932c0,0 -13.13209,18.67762 -16.98911,21.2816c-3.85701,2.60398 -11.45529,-2.07796 -11.45529,-2.07796z" fill="#00db28" stroke="#000000" stroke-width="1.28786" stroke-linecap="round"/><path d="M316.43589,182.81095c-4.51555,0.41655 -25.21873,-6.0546 -25.21873,-6.0546c0,0 4.74352,-14.84676 11.95264,-15.51176c7.20911,-0.66501 21.34828,12.43998 21.34828,12.43998c0,0 -3.56667,8.70985 -8.08221,9.12636z" fill="#00db28" stroke="#000000" stroke-width="1.28786" stroke-linecap="round"/><path d="M323.77893,187.59398c-2.60317,4.06045 -20.41362,17.30363 -20.41362,17.30363c0,0 -7.36673,-13.50401 -3.21073,-19.98657c4.15599,-6.48256 22.40843,-9.95815 22.40843,-9.95815c0,0 3.81908,8.58062 1.2159,12.64108z" fill="#00db28" stroke="#000000" stroke-width="1.28786" stroke-linecap="round"/><path d="M309.39835,187.86753c-1.74565,-4.60945 3.67684,-11.97013 3.67684,-11.97013c0,0 17.15964,8.03781 19.94658,15.39687c2.78696,7.35906 -3.24761,18.93694 -3.24761,18.93694c0,0 -18.63017,-17.75424 -20.37582,-22.36371z" fill="#00db28" stroke="#000000" stroke-width="1.28786" stroke-linecap="round"/><path d="M310.36398,189.95286c0,0 -16.14616,-2.53373 -16.38895,-6.9822c-0.25217,-4.44875 15.50797,-8.76345 15.50797,-8.76345c0,0 -2.58149,-16.13772 1.57733,-17.7501c4.15385,-1.60789 13.12769,12.04727 13.12769,12.04727c0,0 14.54706,-7.44134 17.36361,-3.98766c2.81567,3.45066 -7.39653,16.20828 -7.39653,16.20828c0,0 11.57346,11.53767 9.15857,15.283c-2.41208,3.74462 -17.70163,-2.0276 -17.70163,-2.0276c0,0 -7.39526,14.56649 -11.69981,13.43075c-4.31323,-1.13319 -3.54827,-17.45827 -3.54827,-17.45827z" fill="#ffff00" stroke="#000000" stroke-width="1.28786" stroke-linecap="butt"/><g><path d="M328.48144,181.61782c-1.46855,0.7971 -3.09699,0.63638 -3.63723,-0.35896c-0.54023,-0.99533 0.2123,-2.44836 1.68085,-3.24546c1.46855,-0.7971 3.09699,-0.63638 3.63723,0.35895c0.54023,0.99533 -0.2123,2.44837 -1.68085,3.24547z" fill="#fab6ff" stroke="none" stroke-width="0" stroke-linecap="butt"/><path d="M315.38624,188.98266c-1.46855,0.7971 -3.09698,0.63638 -3.63722,-0.35895c-0.54023,-0.99533 0.21229,-2.44836 1.68085,-3.24546c1.46855,-0.7971 3.09699,-0.63639 3.63723,0.35895c0.54023,0.99533 -0.2123,2.44836 -1.68085,3.24546z" fill="#fab6ff" stroke="none" stroke-width="0" stroke-linecap="butt"/><path d="M317.37452,178.65725c1.49027,2.74565 1.86166,5.42559 0.82953,5.9858c-1.03214,0.56022 -3.07692,-1.21143 -4.56719,-3.95709c-1.49027,-2.74565 -1.86166,-5.42557 -0.82954,-5.98578c1.03214,-0.56022 3.07695,1.21143 4.56721,3.95707z" fill="#000000" stroke="#000000" stroke-width="1.28786" stroke-linecap="butt"/><path d="M323.66591,175.71317c1.51918,2.79894 1.9686,5.49245 1.00378,6.01612c-0.96481,0.52367 -2.97851,-1.32078 -4.49769,-4.11972c-1.51918,-2.79893 -1.96858,-5.49245 -1.00377,-6.01612c0.96481,-0.52367 2.97851,1.32078 4.49769,4.11972z" fill="#000000" stroke="#000000" stroke-width="1.28786" stroke-linecap="butt"/><path d="M327.93003,179.98998c0,0 1.49203,3.77075 -0.31778,4.98095c-1.80981,1.21022 -5.46653,-1.11302 -5.46653,-1.11302c0,0 0.68472,3.45586 -1.01439,4.46331c-1.69911,1.00745 -5.79442,-1.5807 -5.79442,-1.5807" fill="none" stroke="#000000" stroke-width="1.28786" stroke-linecap="round"/><path d="M325.61857,189.3885l-2.90736,-5.11422c0,0 3.51796,1.32491 4.53512,0.77283c0.94446,-0.51264 1.10333,-4.09622 1.10333,-4.09622l3.17,5.23468z" fill="#ffffff" stroke="#000000" stroke-width="1.28786" stroke-linecap="butt"/></g></g><path d="M288.55232,222.38702v-12.81396h62.89539v12.81396z" fill="#969696" stroke="none" stroke-width="0" stroke-linecap="butt"/><path d="M288.50228,222.35702v-84.81396h8.64539v84.81396z" fill="#969696" stroke="none" stroke-width="0" stroke-linecap="butt"/><path d="M344.05232,222.40701v-84.81396h8.14539v84.81396z" fill="#969696" stroke="none" stroke-width="0" stroke-linecap="butt"/><path d="M288.55232,147.90701v-10.31396h62.89539v10.31396z" fill="#969696" stroke="none" stroke-width="0" stroke-linecap="butt"/><path d="M296.29733,211.48042v-21.00188l21.13534,21.00188z" fill="#969696" stroke="none" stroke-width="0" stroke-linecap="butt"/><path d="M303.4118,215.22399v-12.15842h44.05785v12.15842z" fill="#969696" stroke="none" stroke-width="0" stroke-linecap="butt"/><text transform="translate(318.03173,218.96315) scale(0.47116,0.5)" font-size="40" xml:space="preserve" fill="#000000" stroke="none" stroke-width="1" stroke-linecap="butt" font-family="Sans Serif" font-weight="normal" text-anchor="start"><tspan x="0" dy="0">175</tspan></text><g stroke-linecap="butt"><path d="M303.93599,213.69347l-2.65375,6.84999l-2.38631,-6.84999z" fill="#ffff00" stroke="#ffff00" stroke-width="1"/><path d="M298.96774,202.31762l2.38632,-6.84999l2.65375,6.84999z" fill="#ffff00" stroke="#ffff00" stroke-width="1"/><path d="M294.78434,208.21682c0,-3.72115 3.01658,-6.73773 6.73773,-6.73773c3.72115,0 6.73772,3.01658 6.73772,6.73773c0,3.72115 -3.01658,6.73772 -6.73772,6.73772c-3.72115,0 -6.73773,-3.01658 -6.73773,-6.73772z" fill="#ffff00" stroke="none" stroke-width="0"/><path d="M307.21235,205.68172l6.87114,2.59848l-6.83054,2.44142z" fill="#ffff00" stroke="#ffff00" stroke-width="1"/><path d="M295.87691,210.74146l-6.86899,-2.33105l6.82838,-2.70885z" fill="#ffff00" stroke="#ffff00" stroke-width="1"/><path d="M307.52793,210.32821l3.04475,6.68537l-6.56714,-3.08051z" fill="#ffff00" stroke="#ffff00" stroke-width="1"/><path d="M295.91925,205.9314l-3.23165,-6.49409l6.75404,2.88922z" fill="#ffff00" stroke="#ffff00" stroke-width="1"/><path d="M304.08736,202.38559l6.66063,-3.0985l-3.02751,6.59174z" fill="#ffff00" stroke="#ffff00" stroke-width="1"/><path d="M299.78421,214.02932l-6.46785,3.28387l2.83472,-6.7771z" fill="#ffff00" stroke="#ffff00" stroke-width="1"/><path d="M296.80058,208.41738c0,-2.70702 2.19448,-4.90151 4.9015,-4.90151c2.70702,0 4.90151,2.19448 4.90151,4.90151c0,2.70702 -2.19448,4.9015 -4.90151,4.9015c-2.70702,0 -4.9015,-2.19448 -4.9015,-4.9015z" fill="#fffff7" stroke="none" stroke-width="0"/></g><path d="M352.35202,137.40138v33.64619l-33.86,-33.64619z" fill="#3aff00" stroke="none" stroke-width="0" stroke-linecap="butt"/></g></g></svg>