<svg version="1.1" xmlns="http://www.w3.org/2000/svg" xmlns:xlink="http://www.w3.org/1999/xlink" width="64.7547" height="88.41618" viewBox="0,0,64.7547,88.41618"><defs><linearGradient x1="319.95336" y1="137.31685" x2="319.95336" y2="222.13082" gradientUnits="userSpaceOnUse" id="color-1"><stop offset="0" stop-color="#878787"/><stop offset="1" stop-color="#8459e0"/></linearGradient><linearGradient x1="320.24847" y1="165.00304" x2="320.24847" y2="201.37073" gradientUnits="userSpaceOnUse" id="color-2"><stop offset="0" stop-color="#ef3cff"/><stop offset="1" stop-color="#da90ff"/></linearGradient><radialGradient cx="320.68664" cy="155.50949" r="17.23448" gradientUnits="userSpaceOnUse" id="color-3"><stop offset="0" stop-color="#69ff6c"/><stop offset="1" stop-color="#00ff05"/></radialGradient><linearGradient x1="319.59165" y1="209.32887" x2="319.59165" y2="222.14281" gradientUnits="userSpaceOnUse" id="color-4"><stop offset="0" stop-color="#7c7c7c"/><stop offset="1" stop-color="#7a7a7a"/></linearGradient><linearGradient x1="292.41661" y1="137.2988" x2="292.41661" y2="222.11282" gradientUnits="userSpaceOnUse" id="color-5"><stop offset="0" stop-color="#969696"/><stop offset="1" stop-color="#7a7a7a"/></linearGradient><linearGradient x1="347.75417" y1="137.36757" x2="347.75417" y2="222.18158" gradientUnits="userSpaceOnUse" id="color-6"><stop offset="0" stop-color="#969696"/><stop offset="1" stop-color="#7a7a7a"/></linearGradient><linearGradient x1="306.45662" y1="190.23432" x2="306.45662" y2="211.2362" gradientUnits="userSpaceOnUse" id="color-7"><stop offset="0" stop-color="#858585"/><stop offset="1" stop-color="#818181"/></linearGradient><linearGradient x1="325.03236" y1="202.82136" x2="325.03236" y2="214.97976" gradientUnits="userSpaceOnUse" id="color-8"><stop offset="0" stop-color="#808080"/><stop offset="1" stop-color="#7d7d7d"/></linearGradient></defs><g transform="translate(-287.15141,-137.08963)"><g stroke-miterlimit="10"><path d="M351.40105,137.31686v84.81396h-62.89539v-84.81396z" fill="url(#color-1)" stroke="none" stroke-width="0" stroke-linecap="butt" stroke-linejoin="miter"/><g><path d="M319.64794,205.37228c-1.83794,-1.80941 -2.23112,-7.24856 -2.23112,-7.24856l4.76456,-2.08202c0,0 -0.09466,3.93156 0.56335,5.71001c0.65585,1.77255 3.37827,4.94304 3.37827,4.94304c0,0 -4.63713,0.48694 -6.47507,-1.32247z" fill="#f2ffd0" stroke="#000000" stroke-width="1.28786" stroke-linecap="butt" stroke-linejoin="miter"/><path d="M302.06464,183.18689c0,-10.04265 8.14118,-18.18384 18.18384,-18.18384c10.04265,0 18.18383,8.14118 18.18383,18.18384c0,10.04265 -8.14118,18.18384 -18.18383,18.18384c-10.04265,0 -18.18384,-8.14118 -18.18384,-18.18384z" fill="url(#color-2)" stroke="#000000" stroke-width="1.28786" stroke-linecap="butt" stroke-linejoin="miter"/><path d="M303.90359,174.43671c-1.67354,-1.67354 -1.04423,-5.01618 1.4056,-7.46601c2.44983,-2.44983 5.79248,-3.07913 7.46601,-1.4056c1.67354,1.67354 1.04424,5.0162 -1.4056,7.46601c-2.44983,2.44983 -5.79247,3.07913 -7.46601,1.40559z" fill="#f2ffd0" stroke="#000000" stroke-width="1.28786" stroke-linecap="butt" stroke-linejoin="miter"/><path d="M330.40068,173.68836c-2.44983,-2.44983 -3.07913,-5.79248 -1.4056,-7.46601c1.67354,-1.67354 5.01619,-1.04424 7.46601,1.4056c2.44983,2.44983 3.07913,5.79249 1.4056,7.46601c-1.67354,1.67354 -5.01619,1.04422 -7.46601,-1.4056z" fill="#f2ffd0" stroke="#000000" stroke-width="1.28786" stroke-linecap="butt" stroke-linejoin="miter"/><path d="M316.37802,188.22579c0,3.06523 -0.67026,5.55009 -1.49707,5.55009c-0.8268,0 -1.49706,-2.48486 -1.49706,-5.55009c0,-3.06523 0.67025,-5.55008 1.49706,-5.55008c0.8268,0 1.49707,2.48485 1.49707,5.55008z" fill="#000000" stroke="#000000" stroke-width="1.28786" stroke-linecap="butt" stroke-linejoin="miter"/><path d="M326.67489,188.37184c0,3.06523 -0.67026,5.55009 -1.49707,5.55009c-0.8268,0 -1.49706,-2.48486 -1.49706,-5.55009c0,-3.06523 0.67025,-5.55009 1.49706,-5.55009c0.8268,0 1.49707,2.48485 1.49707,5.55009z" fill="#000000" stroke="#000000" stroke-width="1.28786" stroke-linecap="butt" stroke-linejoin="miter"/><path d="M322.58536,195.01735c0,0 -0.06128,2.26134 -2.71869,2.20528c-2.98483,-0.06296 -2.39322,-2.57042 -2.39322,-2.57042" fill="none" stroke="#000000" stroke-width="1.28786" stroke-linecap="round" stroke-linejoin="miter"/><path d="M314.11418,188.15275l-1.60661,-3.57835l1.53357,1.09542" fill="none" stroke="#000000" stroke-width="1.28786" stroke-linecap="round" stroke-linejoin="miter"/><path d="M326.74792,185.0856l0.87632,-0.58422l-0.87632,2.84807" fill="none" stroke="#000000" stroke-width="1.28786" stroke-linecap="round" stroke-linejoin="miter"/><path d="M312.56423,166.68275c1.17733,-0.5594 3.26375,-0.92139 4.37585,-2.44955c1.2023,-1.65212 -0.24123,-4.31622 2.95692,-4.45556c4.48034,-0.1952 2.45065,3.24774 4.18118,5.03139c1.37508,1.41731 3.7059,1.37085 4.79479,1.89114c5.99015,2.8622 10.10247,8.77263 10.10247,15.59942c0,6.40637 -5.11388,-6.75619 -10.66168,-8.87775c-10.21768,-3.9074 -14.6009,5.30587 -20.03724,5.54213c-11.35552,0.4935 -1.72226,-9.42564 4.28774,-12.28123z" fill="#f2ffd0" stroke="#000000" stroke-width="1.28786" stroke-linecap="butt" stroke-linejoin="bevel"/><path d="M337.8481,158.97829c0,3.16605 -7.71614,5.73266 -17.23447,5.73266c-9.51833,0 -17.23448,-2.5666 -17.23448,-5.73266c0,-3.16605 7.71615,-5.73266 17.23448,-5.73266c9.51833,0 17.23447,2.5666 17.23447,5.73266z" fill="url(#color-3)" stroke="#000000" stroke-width="1.28786" stroke-linecap="butt" stroke-linejoin="miter"/><path d="M302.39366,199.94272c-2.83278,-2.83278 -3.56045,-6.69794 -1.62532,-8.63309c1.93514,-1.93514 5.80031,-1.20746 8.63309,1.62532c2.83278,2.83278 3.56045,6.69795 1.62532,8.63309c-1.93514,1.93514 -5.80031,1.20745 -8.63309,-1.62532z" fill="#f2ffd0" stroke="#000000" stroke-width="1.28786" stroke-linecap="butt" stroke-linejoin="miter"/><path d="M303.59581,198.90086c-1.72622,-1.72622 -2.16965,-4.08155 -0.99042,-5.26078c1.17922,-1.17922 3.53456,-0.73579 5.26078,0.99043c1.72622,1.72622 2.16965,4.08155 0.99043,5.26079c-1.17922,1.17922 -3.53456,0.73579 -5.26079,-0.99043z" fill="#000000" stroke="#000000" stroke-width="1.28786" stroke-linecap="butt" stroke-linejoin="miter"/><path d="M329.95598,200.74901c-1.83278,-1.83278 -1.14358,-5.49349 1.53934,-8.1764c2.68293,-2.68292 6.34363,-3.37211 8.1764,-1.53934c1.83278,1.83278 1.14358,5.49349 -1.53935,8.17641c-2.68293,2.68292 -6.34362,3.37211 -8.1764,1.53933z" fill="#f2ffd0" stroke="#000000" stroke-width="1.28786" stroke-linecap="butt" stroke-linejoin="miter"/><path d="M332.01133,199.16095c-1.11684,-1.11684 -0.69688,-3.34759 0.93804,-4.9825c1.6349,-1.6349 3.86566,-2.05487 4.9825,-0.93804c1.11684,1.11684 0.69688,3.34758 -0.93804,4.9825c-1.6349,1.6349 -3.86566,2.05487 -4.9825,0.93803z" fill="#000000" stroke="#000000" stroke-width="1.28786" stroke-linecap="butt" stroke-linejoin="miter"/><path d="M317.47343,158.68618c0,-1.31078 1.37321,-2.37339 3.06715,-2.37339c1.69394,0 3.06715,1.0626 3.06715,2.37339c0,1.31078 -1.37321,2.37339 -3.06715,2.37339c-1.69394,0 -3.06715,-1.0626 -3.06715,-2.37339z" fill="#8dff8f" stroke="none" stroke-width="0" stroke-linecap="butt" stroke-linejoin="miter"/></g><path d="M288.14394,222.14281v-12.81396h62.89539v12.81396z" fill="url(#color-4)" stroke="none" stroke-width="0" stroke-linecap="butt" stroke-linejoin="miter"/><path d="M288.09391,222.11282v-84.81396h8.64539v84.81396z" fill="url(#color-5)" stroke="none" stroke-width="0" stroke-linecap="butt" stroke-linejoin="miter"/><path d="M343.68149,222.18158v-84.81396h8.14539v84.81396z" fill="url(#color-6)" stroke="none" stroke-width="0" stroke-linecap="butt" stroke-linejoin="miter"/><path d="M288.14394,147.40359v-10.31396h62.89539v10.31396z" fill="#969696" stroke="none" stroke-width="0" stroke-linecap="butt" stroke-linejoin="miter"/><path d="M295.88897,211.2362v-21.00188l21.13534,21.00188z" fill="url(#color-7)" stroke="none" stroke-width="0" stroke-linecap="butt" stroke-linejoin="miter"/><path d="M303.00344,214.97976v-12.15842h44.05785v12.15842z" fill="url(#color-8)" stroke="none" stroke-width="0" stroke-linecap="butt" stroke-linejoin="miter"/><text transform="translate(318.75526,219.25581) scale(0.47116,0.5)" font-size="40" xml:space="preserve" fill="#000000" stroke="none" stroke-width="1" stroke-linecap="butt" stroke-linejoin="miter" font-family="Sans Serif" font-weight="normal" text-anchor="start"><tspan x="0" dy="0">125</tspan></text><g stroke-linecap="butt" stroke-linejoin="miter"><path d="M303.52763,213.44923l-2.65375,6.84999l-2.38631,-6.84999z" fill="#ffff00" stroke="#ffff00" stroke-width="1"/><path d="M298.55938,202.07342l2.38632,-6.84999l2.65375,6.84999z" fill="#ffff00" stroke="#ffff00" stroke-width="1"/><path d="M294.37597,207.97259c0,-3.72115 3.01658,-6.73773 6.73773,-6.73773c3.72115,0 6.73772,3.01658 6.73772,6.73773c0,3.72115 -3.01658,6.73772 -6.73772,6.73772c-3.72115,0 -6.73773,-3.01658 -6.73773,-6.73772z" fill="#ffff00" stroke="none" stroke-width="0"/><path d="M306.80397,205.43749l6.87114,2.59848l-6.83054,2.44142z" fill="#ffff00" stroke="#ffff00" stroke-width="1"/><path d="M295.46853,210.49722l-6.86899,-2.33105l6.82838,-2.70885z" fill="#ffff00" stroke="#ffff00" stroke-width="1"/><path d="M307.11957,210.08398l3.04475,6.68537l-6.56714,-3.08051z" fill="#ffff00" stroke="#ffff00" stroke-width="1"/><path d="M295.51088,205.68721l-3.23165,-6.49409l6.75404,2.88922z" fill="#ffff00" stroke="#ffff00" stroke-width="1"/><path d="M303.679,202.14138l6.66063,-3.0985l-3.02751,6.59174z" fill="#ffff00" stroke="#ffff00" stroke-width="1"/><path d="M299.37585,213.78509l-6.46785,3.28387l2.83472,-6.7771z" fill="#ffff00" stroke="#ffff00" stroke-width="1"/><path d="M296.39222,208.17317c0,-2.70702 2.19448,-4.90151 4.9015,-4.90151c2.70702,0 4.90151,2.19448 4.90151,4.90151c0,2.70702 -2.19448,4.9015 -4.90151,4.9015c-2.70702,0 -4.9015,-2.19448 -4.9015,-4.9015z" fill="#fffff7" stroke="none" stroke-width="0"/></g><path d="M351.90611,137.19466v33.64619l-33.86,-33.64619z" fill="#9500ea" stroke="none" stroke-width="0" stroke-linecap="butt" stroke-linejoin="miter"/></g></g></svg>