<svg version="1.1" xmlns="http://www.w3.org/2000/svg" xmlns:xlink="http://www.w3.org/1999/xlink" width="65.14223" height="88.47086" viewBox="0,0,65.14223,88.47086"><g transform="translate(-207.20979,-137.40138)"><g data-paper-data="{&quot;isPaintingLayer&quot;:true}" fill-rule="nonzero" stroke-linejoin="miter" stroke-miterlimit="10" stroke-dasharray="" stroke-dashoffset="0" style="mix-blend-mode: normal"><path d="M208.20231,222.8277v-84.81396h62.89539v84.81396z" fill="#515151" stroke="none" stroke-width="0" stroke-linecap="butt"></path><g stroke="#000000" stroke-width="1.28786"><path d="M228.43921,204.05431v-23.68375h23.68375v23.68375z" fill="#fff9c9" stroke-linecap="butt"></path><path d="M220.42317,181.82802c0,0 0.88504,-21.30036 20.40446,-21.31538c19.73489,-0.01519 19.12918,21.31538 19.12918,21.31538z" fill="#fff300" stroke-linecap="butt"></path><path d="M237.36616,187.93114c0,3.57189 -0.85645,6.46749 -1.91292,6.46749c-1.05647,0 -1.91292,-2.8956 -1.91292,-6.46749c0,-3.57189 0.85645,-6.46749 1.91292,-6.46749c1.05647,0 1.91292,2.8956 1.91292,6.46749z" fill="#000000" stroke-linecap="butt"></path><path d="M242.46728,198.40664c0,0 -3.85114,3.34466 -8.42892,0.73431c-1.62893,-0.92885 -2.68422,-2.19177 -2.68422,-2.19177" fill="none" stroke-linecap="round"></path><path d="M245.74657,188.47769c0,3.57189 -0.85645,6.46749 -1.91292,6.46749c-1.05647,0 -1.91292,-2.8956 -1.91292,-6.46749c0,-3.57189 0.85645,-6.46749 1.91292,-6.46749c1.05647,0 1.91292,2.8956 1.91292,6.46749z" fill="#000000" stroke-linecap="butt"></path></g><path d="M208.20232,222.80774v-12.81396h62.89539v12.81396z" fill="#969696" stroke="none" stroke-width="0" stroke-linecap="butt"></path><path d="M208.15228,222.77774v-84.81396h8.64539v84.81396z" fill="#969696" stroke="none" stroke-width="0" stroke-linecap="butt"></path><path d="M263.70232,222.82773v-84.81396h8.14539v84.81396z" fill="#969696" stroke="none" stroke-width="0" stroke-linecap="butt"></path><path d="M208.20232,148.32773v-10.31396h62.89539v10.31396z" fill="#969696" stroke="none" stroke-width="0" stroke-linecap="butt"></path><path d="M215.94733,211.90114v-21.00188l21.13534,21.00188z" fill="#969696" stroke="none" stroke-width="0" stroke-linecap="butt"></path><path d="M223.0618,215.64471v-12.15842h44.05785v12.15842z" fill="#969696" stroke="none" stroke-width="0" stroke-linecap="butt"></path><text transform="translate(247.60516,219.62224) scale(0.47116,0.5)" font-size="40" xml:space="preserve" fill="#000000" fill-rule="nonzero" stroke="none" stroke-width="1" stroke-linecap="butt" stroke-linejoin="miter" stroke-miterlimit="10" stroke-dasharray="" stroke-dashoffset="0" font-family="Sans Serif" font-weight="normal" text-anchor="start" style="mix-blend-mode: normal"><tspan x="0" dy="0">25</tspan></text><g stroke-linecap="butt"><path d="M223.58599,214.11419l-2.65375,6.84999l-2.38631,-6.84999z" data-paper-data="{&quot;index&quot;:null}" fill="#ffff00" stroke="#ffff00" stroke-width="1"></path><path d="M218.61774,202.73834l2.38632,-6.84999l2.65375,6.84999z" fill="#ffff00" stroke="#ffff00" stroke-width="1"></path><path d="M214.43434,208.63754c0,-3.72115 3.01658,-6.73773 6.73773,-6.73773c3.72115,0 6.73772,3.01658 6.73772,6.73773c0,3.72115 -3.01658,6.73772 -6.73772,6.73772c-3.72115,0 -6.73773,-3.01658 -6.73773,-6.73772z" fill="#ffff00" stroke="none" stroke-width="0"></path><path d="M226.86235,206.10244l6.87114,2.59848l-6.83054,2.44142z" data-paper-data="{&quot;index&quot;:null}" fill="#ffff00" stroke="#ffff00" stroke-width="1"></path><path d="M215.52691,211.16218l-6.86899,-2.33105l6.82838,-2.70885z" fill="#ffff00" stroke="#ffff00" stroke-width="1"></path><path d="M227.17793,210.74893l3.04475,6.68537l-6.56714,-3.08051z" data-paper-data="{&quot;index&quot;:null}" fill="#ffff00" stroke="#ffff00" stroke-width="1"></path><path d="M215.56925,206.35212l-3.23165,-6.49409l6.75404,2.88922z" fill="#ffff00" stroke="#ffff00" stroke-width="1"></path><path d="M223.73736,202.80631l6.66063,-3.0985l-3.02751,6.59174z" data-paper-data="{&quot;index&quot;:null}" fill="#ffff00" stroke="#ffff00" stroke-width="1"></path><path d="M219.43421,214.45004l-6.46785,3.28387l2.83472,-6.7771z" fill="#ffff00" stroke="#ffff00" stroke-width="1"></path><path d="M216.45058,208.8381c0,-2.70702 2.19448,-4.90151 4.9015,-4.90151c2.70702,0 4.90151,2.19448 4.90151,4.90151c0,2.70702 -2.19448,4.9015 -4.90151,4.9015c-2.70702,0 -4.9015,-2.19448 -4.9015,-4.9015z" fill="#fffff7" stroke="none" stroke-width="0"></path></g><path d="M272.35202,137.40138v33.64619l-33.86,-33.64619z" fill="#f8ff00" stroke="none" stroke-width="0" stroke-linecap="butt"></path></g></g></svg>