<svg version="1.1" xmlns="http://www.w3.org/2000/svg" xmlns:xlink="http://www.w3.org/1999/xlink" width="558.54349" height="419.47216" viewBox="0,0,558.54349,419.47216"><defs><linearGradient x1="309.02346" y1="37.10736" x2="309.02346" y2="388.10736" gradientUnits="userSpaceOnUse" id="color-1"><stop offset="0" stop-color="#00f7dc"/><stop offset="1" stop-color="#c2f7f1"/></linearGradient></defs><g transform="translate(-23.05286,5.71466)"><g stroke-miterlimit="10"><path d="M54.02346,388.10736v-351h510v351z" fill="url(#color-1)" stroke="#000000" stroke-width="2.5"/><path d="M237.82678,335.38644v-244.58921h144.3465v244.58921z" fill="#fff89b" stroke="#000000" stroke-width="2.5"/><path d="M24.05286,332.75091v-228.69782h79.74696v228.69782z" fill="#fff89b" stroke="#000000" stroke-width="2"/><path d="M530.84939,334.91441v-228.69782h49.74696v228.69782z" fill="#fff89b" stroke="#000000" stroke-width="2"/><path d="M67.21922,412.75749v-80.62549h493.324v80.6255z" fill="#aa5b1a" stroke="#000000" stroke-width="2"/><path d="M72.58315,105.82111v-80.62549h493.324v80.6255z" fill="#aa5b1a" stroke="#000000" stroke-width="2"/><path d="M74.42857,32.0843v-36.79896h490.53802v36.79896z" fill="#aa5b1a" stroke="#000000" stroke-width="2"/><g><path d="M99.19707,20.22787l-2.63083,6.79081l-2.3657,-6.79081z" fill="#ffff00" stroke="#ffff00" stroke-width="1"/><path d="M94.27174,8.95029l2.3657,-6.79081l2.63083,6.79081z" fill="#ffff00" stroke="#ffff00" stroke-width="1"/><path d="M90.12448,14.79854c0,-3.689 2.99052,-6.67952 6.67952,-6.67952c3.689,0 6.67951,2.99052 6.67951,6.67952c0,3.689 -2.99051,6.67951 -6.67951,6.67951c-3.689,0 -6.67952,-2.99051 -6.67952,-6.67951z" fill="#ffff00" stroke="none" stroke-width="0"/><path d="M102.44512,12.28534l6.81177,2.57604l-6.77153,2.42033z" fill="#ffff00" stroke="#ffff00" stroke-width="1"/><path d="M91.20762,17.30137l-6.80965,-2.31092l6.76939,-2.68544z" fill="#ffff00" stroke="#ffff00" stroke-width="1"/><path d="M102.75798,16.89168l3.01845,6.62761l-6.51041,-3.0539z" fill="#ffff00" stroke="#ffff00" stroke-width="1"/><path d="M91.24959,12.53286l-3.20373,-6.43799l6.69569,2.86425z" fill="#ffff00" stroke="#ffff00" stroke-width="1"/><path d="M99.34712,9.01769l6.60308,-3.07173l-3.00136,6.53479z" fill="#ffff00" stroke="#ffff00" stroke-width="1"/><path d="M95.08115,20.56081l-6.41197,3.2555l2.81022,-6.71855z" fill="#ffff00" stroke="#ffff00" stroke-width="1"/><path d="M92.1233,14.99736c0,-2.68363 2.17552,-4.85917 4.85915,-4.85917c2.68363,0 4.85917,2.17552 4.85917,4.85917c0,2.68363 -2.17552,4.85915 -4.85917,4.85915c-2.68363,0 -4.85915,-2.17552 -4.85915,-4.85915z" fill="#fffff7" stroke="none" stroke-width="0"/></g><path d="M182.17358,17.92667v-7.15135h304.26937v7.15135z" fill="#ff0000" stroke="#000000" stroke-width="3"/><text transform="translate(282.51829,8.08918) scale(0.24039,0.24039)" font-size="40" xml:space="preserve" fill="#000000" stroke="none" stroke-width="1" font-family="Sans Serif" font-weight="normal" text-anchor="start"><tspan x="0" dy="0">LEVEL PROGRESS</tspan></text></g></g></svg>