<svg version="1.1" xmlns="http://www.w3.org/2000/svg" xmlns:xlink="http://www.w3.org/1999/xlink" width="58.91598" height="62.65312" viewBox="0,0,58.91598,62.65312"><defs><linearGradient x1="253.44007" y1="178.42704" x2="263.2565" y2="195.41117" gradientUnits="userSpaceOnUse" id="color-1"><stop offset="0" stop-color="#ffffff"></stop><stop offset="1" stop-color="#ff5498"></stop></linearGradient><linearGradient x1="247.08794" y1="190.67718" x2="234.41756" y2="205.65332" gradientUnits="userSpaceOnUse" id="color-2"><stop offset="0" stop-color="#ffffff"></stop><stop offset="1" stop-color="#ff5498"></stop></linearGradient><linearGradient x1="235.19554" y1="175.26169" x2="225.94428" y2="157.9632" gradientUnits="userSpaceOnUse" id="color-3"><stop offset="0" stop-color="#ffffff"></stop><stop offset="1" stop-color="#ff5498"></stop></linearGradient><linearGradient x1="237.29465" y1="171.12002" x2="255.73172" y2="164.41946" gradientUnits="userSpaceOnUse" id="color-4"><stop offset="0" stop-color="#ffffff"></stop><stop offset="1" stop-color="#ff5498"></stop></linearGradient><linearGradient x1="243.31234" y1="171.74769" x2="261.34886" y2="179.46174" gradientUnits="userSpaceOnUse" id="color-5"><stop offset="0" stop-color="#ffffff"></stop><stop offset="1" stop-color="#ff5498"></stop></linearGradient><linearGradient x1="244.53394" y1="182.78033" x2="226.09688" y2="189.48091" gradientUnits="userSpaceOnUse" id="color-6"><stop offset="0" stop-color="#ffffff"></stop><stop offset="1" stop-color="#ff5498"></stop></linearGradient><linearGradient x1="239.09191" y1="182.2881" x2="221.05538" y2="174.57405" gradientUnits="userSpaceOnUse" id="color-7"><stop offset="0" stop-color="#ffffff"></stop><stop offset="1" stop-color="#ff5498"></stop></linearGradient><linearGradient x1="244.55543" y1="174.74859" x2="244.55543" y2="194.3655" gradientUnits="userSpaceOnUse" id="color-8"><stop offset="0" stop-color="#ffffff"></stop><stop offset="1" stop-color="#ff5498"></stop></linearGradient></defs><g transform="translate(-210.80529,-149.44689)"><g data-paper-data="{&quot;isPaintingLayer&quot;:true}" fill-rule="nonzero" stroke="#000000" stroke-width="1.28786" stroke-linecap="butt" stroke-linejoin="miter" stroke-miterlimit="10" stroke-dasharray="" stroke-dashoffset="0" style="mix-blend-mode: normal"><g data-paper-data="{&quot;index&quot;:null}"><path d="M267.757,195.46991l-11.22179,-3.80207l4.21837,-5.0448z" fill="#ffe288"></path><path d="M260.45554,194.40258c-0.20487,1.21115 -1.20421,3.32349 -1.20421,3.32349c0,0 -5.83221,-3.4907 -7.28208,-4.93201c-3.86784,-3.84505 -4.62571,-9.35384 -1.69272,-12.3042c2.933,-2.95037 8.44615,-2.22509 12.31399,1.61997c1.92217,1.91084 5.96026,4.65791 5.96026,4.65791c0,0 -2.7449,1.74986 -4.10476,2.25021c-1.28225,0.47179 -3.71733,1.06625 -3.71733,1.06625c0,0 -0.03109,2.88739 -0.27312,4.31839z" fill="url(#color-1)"></path><path d="M249.54465,184.68398c-1.54629,-1.53716 -1.03155,-2.93708 0.6223,-4.60073c0.63763,-0.6414 2.71299,-1.55048 3.44096,-0.66894c1.16017,1.40499 0.13229,4.48162 0.13229,4.48162c0,0 -4.0837,0.89923 -4.19553,0.78806z" fill="#8901d0"></path><path d="M259.98051,184.72658c1.52873,1.4009 2.46429,2.86799 2.08963,3.27681c-0.37464,0.40884 -1.91766,-0.3954 -3.44637,-1.7963c-1.52873,-1.4009 -2.46428,-2.86799 -2.08961,-3.27683c0,0 2.35101,0.79253 3.44636,1.7963z" fill="#000000"></path><path d="M253.30408,187.30259c0.37464,-0.40884 1.91766,0.3954 3.44637,1.7963c1.52873,1.4009 2.46428,2.86799 2.08963,3.27681c-0.37464,0.40884 -1.91765,-0.3954 -3.44637,-1.7963c-1.52873,-1.4009 -2.4643,-2.86798 -2.08962,-3.27681z" fill="#000000"></path></g><g data-paper-data="{&quot;index&quot;:null}"><path d="M235.88239,209.90918l-0.21167,-11.84649l6.17313,2.26651z" fill="#ffe288"></path><path d="M234.42081,202.6763c-1.20917,0.21626 -3.53491,-0.01088 -3.53491,-0.01088c0,0 1.31565,-6.6685 2.18254,-8.51998c2.31267,-4.93925 7.24174,-7.51324 11.00937,-5.74915c3.76764,1.7641 4.94713,7.19824 2.63448,12.13749c-1.1493,2.45463 -2.37104,7.18325 -2.37104,7.18325c0,0 -2.57415,-1.99254 -3.5044,-3.10348c-0.87716,-1.04755 -2.25917,-3.13872 -2.25917,-3.13872c0,0 -2.72822,0.946 -4.15685,1.20153z" fill="url(#color-2)"></path><path d="M239.88299,189.12404c0.92453,-1.97461 2.41607,-1.96297 4.54055,-0.96824c0.81909,0.38352 2.37571,2.02986 1.79186,3.01278c-0.93054,1.56654 -4.17355,1.63825 -4.17355,1.63825c0,0 -2.2257,-3.53997 -2.15884,-3.68277z" fill="#8901d0"></path><path d="M243.36774,198.96099c-0.80222,1.91207 -1.86709,3.28816 -2.37844,3.07361c-0.51135,-0.21454 -0.27556,-1.93849 0.52667,-3.85056c0.80222,-1.91207 1.8671,-3.28816 2.37844,-3.0736c0,0 0.04813,2.48051 -0.52669,3.85053z" fill="#000000"></path><path d="M238.68804,193.547c0.51135,0.21454 0.27557,1.93851 -0.52668,3.85055c-0.80222,1.91207 -1.86709,3.28817 -2.37843,3.07361c-0.51135,-0.21454 -0.27557,-1.93848 0.52667,-3.85055c0.80222,-1.91207 1.86709,-3.28816 2.37844,-3.07362z" fill="#000000"></path></g><g fill="#03b000"><path d="M225.73422,186.89071c-3.32185,-8.5509 0.65729,-18.07474 8.88766,-21.27206c8.23037,-3.19733 17.59529,1.1426 20.91714,9.69351c1.68492,4.33721 1.49148,8.92471 -0.18234,12.80999c-1.62615,3.77466 9.99374,5.69635 5.93798,7.27195c-0.37437,0.14543 -6.70104,-1.56848 -7.11148,0.34708c-0.39989,1.86632 5.13974,7.36223 3.05429,7.58444c-0.92329,0.09838 -4.78955,-6.49136 -7.40073,-5.3793c-2.4674,1.05085 -3.67413,9.82552 -4.89863,9.30701c-4.02006,-1.70229 -2.51076,-9.67028 -3.02222,-9.64172c-6.81618,0.38078 -13.4871,-3.78466 -16.18169,-10.72089z"></path><path d="M254.60266,176.8481c0,7.13191 -8.33895,-0.34677 -14.41376,2.00714c-1.73896,0.67382 -1.38635,9.64247 -3.35138,9.64247c-8.8296,0 -14.20968,-2.47615 -14.20968,-11.64961c0,-4.65298 1.84151,-8.85909 4.80864,-11.87458c2.88264,-2.92963 -7.25276,-8.92864 -2.90172,-8.92864c0.40162,0 5.67828,3.88858 6.75452,2.25164c1.04858,-1.59486 -2.12493,-8.72376 -0.10057,-8.17572c0.89624,0.24262 2.11388,7.78519 4.95055,7.69413c2.68048,-0.08605 6.98275,-7.82824 7.93638,-6.90152c3.13081,3.04248 -1.16138,9.92317 -0.6743,10.08175c6.49149,2.1133 11.2013,8.41168 11.2013,15.85293z"></path><path d="M252.87673,167.86311c0.35601,0.36832 4.65966,-6.50521 8.76649,-5.02444c1.25092,0.45104 -3.8227,7.71117 -2.72532,10.15822c1.16134,2.58965 8.4746,0.37861 9.08548,1.07786c1.37979,1.57944 -6.41884,1.85115 -7.39284,3.49262c-0.99971,1.68477 4.80805,4.72355 4.98406,5.08455c1.90685,3.91093 -7.92723,-2.57021 -9.29723,1.30476c-1.41012,3.98856 -4.57001,-9.20564 -8.75235,-7.16647c-0.25283,0.12328 -5.56943,-1.01304 -5.82501,-0.90323c-8.07958,3.47152 -12.17432,18.19819 -15.92523,10.50501c-3.86957,-7.93651 -0.32209,-17.6294 7.92351,-21.64967c6.6886,-3.26111 14.41399,-1.78796 19.15845,3.12079z" data-paper-data="{&quot;index&quot;:null}"></path><path d="M245.89744,163.02482c8.24561,4.02027 11.79308,13.71317 7.92351,21.64969c-1.71723,3.52204 -12.20849,-7.5391 -15.6121,-6.10525c-4.26601,1.79715 -1.73797,15.4324 -6.32437,13.19624c-4.18234,-2.03917 -7.15598,-5.53775 -8.56613,-9.52631c-1.36999,-3.87498 -11.20406,2.60619 -9.29721,-1.30476c0.17601,-0.36101 5.98377,-3.39978 4.98406,-5.08455c-0.97401,-1.64147 -8.77262,-1.91318 -7.39284,-3.49262c0.61087,-0.69925 7.92415,1.5118 9.08547,-1.07785c1.09738,-2.44706 -3.97624,-9.70718 -2.72533,-10.15822c4.10682,-1.48078 8.41049,5.39275 8.7665,5.02442c4.74445,-4.90873 12.46984,-6.3819 19.15843,-3.12078z"></path><path d="M229.25104,165.63938c7.08479,-5.82741 17.37507,-5.0234 22.98403,1.79579c5.60896,6.8192 -7.74371,7.7599 -14.82847,13.5873c-2.60031,2.13881 -2.0948,4.72148 -1.65024,7.79925c0.16981,1.17561 2.74563,5.44556 1.58098,5.34164c-4.09377,-0.36526 -2.2884,11.27327 -5.05238,7.9129c-0.25513,-0.31017 -0.60392,-6.85559 -2.55183,-6.64693c-1.89782,0.20331 -5.38759,7.18283 -6.25031,5.27126c-0.38196,-0.84629 4.66975,-6.57807 2.79745,-8.71102c-1.76921,-2.0155 -10.48159,-0.41999 -10.37165,-1.74519c0.36092,-4.3507 8.40154,-5.4067 8.21458,-5.88363c-2.49155,-6.35592 -0.61913,-13.99437 5.12782,-18.72138z"></path></g><g data-paper-data="{&quot;index&quot;:null}"><path d="M221.44816,157.75616l11.09036,4.16988l-4.38235,4.90302z" fill="#ffe288"></path><path d="M228.71048,159.06357c0.24467,-1.20373 1.31311,-3.28199 1.31311,-3.28199c0,0 5.71399,3.68106 7.11557,5.16936c3.739,3.97047 4.31486,9.50123 1.28623,12.35332c-3.02865,2.85209 -8.51491,1.94548 -12.25391,-2.02496c-1.85816,-1.97316 -5.80348,-4.85185 -5.80348,-4.85185c0,0 2.80106,-1.65845 4.17668,-2.11369c1.2971,-0.42926 3.75045,-0.94316 3.75045,-0.94316c0,0 0.12625,-2.8848 0.41532,-4.30704z" fill="url(#color-3)"></path><path d="M239.29509,169.13655c1.49478,1.58729 0.93417,2.9695 -0.7736,4.57774c-0.65842,0.62004 -2.76264,1.46022 -3.46114,0.55516c-1.11324,-1.44246 0.0155,-4.48355 0.0155,-4.48355c0,0 4.11113,-0.76413 4.21923,-0.64934z" fill="#8901d0"></path><path d="M228.86631,168.74998c-1.48173,-1.45053 -2.36841,-2.94766 -1.98048,-3.34392c0.38791,-0.39626 1.90358,0.4584 3.3853,1.90893c1.48173,1.45053 2.3684,2.94765 1.98047,3.34391c0,0 -2.32359,-0.8696 -3.38528,-1.90894z" fill="#000000"></path><path d="M235.62403,166.39543c-0.38791,0.39626 -1.9036,-0.45838 -3.38529,-1.90893c-1.48173,-1.45053 -2.36841,-2.94767 -1.98047,-3.34391c0.38791,-0.39626 1.90356,0.45838 3.38528,1.90893c1.48173,1.45053 2.36843,2.94765 1.98049,3.34392z" fill="#000000"></path></g><g><path d="M256.57526,159.99831l-5.70279,10.38567l-4.23088,-5.0343z" fill="#ffe288"></path><path d="M254.24963,167.00133c1.15678,0.41315 3.06221,1.76593 3.06221,1.76593c0,0 -4.45528,5.13325 -6.12757,6.30922c-4.46125,3.13718 -10.01774,2.92167 -12.41076,-0.48135c-2.39302,-3.40303 -0.71639,-8.7049 3.74486,-11.84209c2.21707,-1.55907 5.62694,-5.05553 5.62694,-5.05553c0,0 1.24379,3.00823 1.49904,4.43456c0.24069,1.34492 0.4009,3.84639 0.4009,3.84639c0,0 2.83763,0.5347 4.20439,1.02284z" fill="url(#color-4)"></path><path d="M242.77544,176.04797c-1.7835,1.25418 -3.07208,0.50294 -4.42144,-1.41594c-0.52024,-0.73981 -1.05304,-2.94202 -0.05795,-3.5049c1.58595,-0.89708 4.43589,0.65214 4.43589,0.65214c0,0 0.17249,4.17797 0.04351,4.26868z" fill="#8901d0"></path><path d="M244.63927,165.77982c1.64628,-1.26068 3.25416,-1.92576 3.5913,-1.48548c0.33715,0.44027 -0.7241,1.81918 -2.37038,3.07985c-1.64628,1.26068 -3.25416,1.92574 -3.5913,1.48546c0,0 1.1908,-2.17653 2.37038,-3.07983z" fill="#000000"></path><path d="M246.01016,172.80343c-0.33715,-0.44027 0.7241,-1.81918 2.37038,-3.07985c1.64628,-1.26068 3.25416,-1.92575 3.5913,-1.48547c0.33715,0.44027 -0.72411,1.81916 -2.37038,3.07985c-1.64628,1.26068 -3.25416,1.92577 -3.5913,1.48547z" fill="#000000"></path></g><g><path d="M264.98695,176.81178l-11.26205,3.68106l0.35386,-6.56654z" fill="#ffe288"></path><path d="M258.50214,180.33283c0.56179,1.09235 1.0276,3.38226 1.0276,3.38226c0,0 -6.76083,0.70055 -8.78526,0.41557c-5.40061,-0.76031 -9.30854,-4.71621 -8.72859,-8.83576c0.57996,-4.11956 5.42816,-6.84279 10.82877,-6.08248c2.68392,0.37785 7.56282,0.15714 7.56282,0.15714c0,0 -1.14881,3.04577 -1.93761,4.26123c-0.74379,1.14609 -2.33694,3.08126 -2.33694,3.08126c0,0 1.70543,2.33015 2.3692,3.62077z" fill="url(#color-5)"></path><path d="M243.94341,179.09109c-2.15904,-0.30394 -2.58591,-1.73313 -2.25889,-4.05605c0.12607,-0.89558 1.24274,-2.86705 2.35379,-2.59756c1.77072,0.42951 2.79158,3.50848 2.79158,3.50848c0,0 -2.73033,3.16709 -2.88648,3.14512z" fill="#8901d0"></path><path d="M252.32336,172.87136c2.06333,0.20539 3.69148,0.81921 3.63653,1.37102c-0.05492,0.5518 -1.77213,0.83265 -3.83545,0.62725c-2.06333,-0.20539 -3.69146,-0.81923 -3.63653,-1.37104c0,0 2.35703,-0.7744 3.83545,-0.62724z" fill="#000000"></path><path d="M248.52226,178.93454c0.05492,-0.5518 1.77213,-0.83266 3.83545,-0.62726c2.06333,0.20539 3.69146,0.81922 3.63653,1.37102c-0.05492,0.5518 -1.77211,0.83265 -3.83545,0.62726c-2.06333,-0.20539 -3.69148,-0.81921 -3.63653,-1.37101z" fill="#000000"></path></g><g data-paper-data="{&quot;index&quot;:null}"><path d="M225.25335,193.90204l5.70278,-10.38567l4.23088,5.0343z" fill="#ffe288"></path><path d="M227.57898,186.89904c-1.15678,-0.41316 -3.06221,-1.76594 -3.06221,-1.76594c0,0 4.45528,-5.13324 6.12757,-6.30922c4.46125,-3.13718 10.01774,-2.92168 12.41077,0.48134c2.39302,3.40303 0.7164,8.7049 -3.74486,11.84208c-2.21707,1.55907 -5.62693,5.05554 -5.62693,5.05554c0,0 -1.24379,-3.00824 -1.49904,-4.43457c-0.24069,-1.34492 -0.4009,-3.84638 -0.4009,-3.84638c0,0 -2.83763,-0.5347 -4.20439,-1.02284z" fill="url(#color-6)"></path><path d="M239.05315,177.85239c1.7835,-1.25419 3.07208,-0.50295 4.42145,1.41593c0.52024,0.73981 1.05304,2.94201 0.05795,3.5049c-1.58595,0.89708 -4.43589,-0.65214 -4.43589,-0.65214c0,0 -0.17249,-4.17797 -0.04351,-4.26868z" fill="#8901d0"></path><path d="M237.18932,188.12055c-1.64628,1.26068 -3.25416,1.92576 -3.5913,1.48548c-0.33715,-0.44027 0.72411,-1.81918 2.37038,-3.07985c1.64628,-1.26068 3.25416,-1.92575 3.5913,-1.48547c0,0 -1.1908,2.17654 -2.37038,3.07984z" fill="#000000"></path><path d="M235.81843,181.09692c0.33715,0.44027 -0.72411,1.81917 -2.37038,3.07984c-1.64628,1.26068 -3.25417,1.92575 -3.5913,1.48548c-0.33715,-0.44027 0.72411,-1.81916 2.37038,-3.07985c1.64628,-1.26068 3.25416,-1.92577 3.5913,-1.48547z" fill="#000000"></path></g><g data-paper-data="{&quot;index&quot;:null}"><path d="M217.41729,177.22402l11.26206,-3.68106l-0.35386,6.56654z" fill="#ffe288"></path><path d="M223.9021,173.70296c-0.56179,-1.09235 -1.02761,-3.38226 -1.02761,-3.38226c0,0 6.76084,-0.70055 8.78526,-0.41557c5.40061,0.76031 9.30853,4.71622 8.72858,8.83577c-0.57996,4.11956 -5.42817,6.84278 -10.82877,6.08248c-2.68391,-0.37783 -7.56281,-0.15715 -7.56281,-0.15715c0,0 1.1488,-3.04577 1.9376,-4.26123c0.74379,-1.14609 2.33694,-3.08125 2.33694,-3.08125c0,0 -1.70543,-2.33015 -2.36921,-3.62077z" fill="url(#color-7)"></path><path d="M238.46084,174.94471c2.15904,0.30394 2.5859,1.73313 2.25889,4.05605c-0.12608,0.89559 -1.24275,2.86705 -2.35379,2.59757c-1.77074,-0.42951 -2.79158,-3.50849 -2.79158,-3.50849c0,0 2.73033,-3.16709 2.88647,-3.14512z" fill="#8901d0"></path><path d="M230.08088,181.16443c-2.06333,-0.20538 -3.69148,-0.8192 -3.63653,-1.37103c0.05492,-0.5518 1.77213,-0.83264 3.83546,-0.62725c2.06333,0.20538 3.69146,0.81922 3.63652,1.37103c0,0 -2.35703,0.7744 -3.83545,0.62724z" fill="#000000"></path><path d="M233.88199,175.10126c-0.05492,0.5518 -1.77212,0.83265 -3.83545,0.62725c-2.06333,-0.20538 -3.69148,-0.81922 -3.63653,-1.37101c0.05492,-0.5518 1.77211,-0.83264 3.83545,-0.62725c2.06333,0.20538 3.69147,0.81921 3.63654,1.37102z" fill="#000000"></path></g><g><path d="M248.38869,196.77002l-7.81314,-8.90724l6.17666,-2.25684z" fill="#ffe288"></path><path d="M242.63508,192.09065c-0.78343,0.94608 -2.70569,2.27484 -2.70569,2.27484c0,0 -3.30272,-5.94069 -3.83676,-7.91408c-1.42466,-5.2645 0.67583,-10.4132 4.69155,-11.49993c4.01575,-1.08673 8.42605,2.30004 9.85071,7.56455c0.70801,2.61626 2.82947,7.01534 2.82947,7.01534c0,0 -3.25214,0.14145 -4.67988,-0.10584c-1.34625,-0.23318 -3.75198,-0.93702 -3.75198,-0.93702c0,0 -1.47179,2.48434 -2.39742,3.60215z" fill="url(#color-8)"></path><path d="M238.01794,178.31808c-0.56956,-2.10462 0.57663,-3.05912 2.84101,-3.67189c0.87301,-0.23625 3.12475,0.0152 3.31388,1.14272c0.3014,1.79697 -2.12808,3.94634 -2.12808,3.94634c0,0 -3.98561,-1.26494 -4.02679,-1.41715z" fill="#8901d0"></path><path d="M247.03189,183.57712c0.62253,1.97788 0.69841,3.71621 0.16944,3.88269c-0.52895,0.16649 -1.46243,-1.30193 -2.08496,-3.27981c-0.62253,-1.97788 -0.69839,-3.71621 -0.16943,-3.88269c0,0 1.63888,1.86262 2.08494,3.27981z" fill="#000000"></path><path d="M239.96245,182.46649c0.52895,-0.16649 1.46243,1.30193 2.08496,3.27981c0.62253,1.97788 0.69839,3.71621 0.16944,3.88269c-0.52895,0.16649 -1.46242,-1.30193 -2.08495,-3.27981c-0.62253,-1.97788 -0.6984,-3.71621 -0.16944,-3.88269z" fill="#000000"></path></g></g></g></svg>