<svg version="1.1" xmlns="http://www.w3.org/2000/svg" xmlns:xlink="http://www.w3.org/1999/xlink" width="51.80727" height="50.73989" viewBox="0,0,51.80727,50.73989"><g transform="translate(-293.07965,-153.49045)"><g stroke-miterlimit="10"><g><path d="M322.19473,182.57127c-3.55408,-1.58639 -4.16208,-9.04529 -4.16208,-9.04529c0,0 14.90975,-5.70246 20.58386,-3.16974c5.67412,2.53269 5.62646,14.86898 5.62646,14.86898c0,0 -18.49418,-1.06752 -22.04826,-2.65391z" fill="#00db28" stroke="#000000" stroke-width="1.28786" stroke-linecap="round"/><path d="M310.82841,176.00429c0,0 3.21926,-17.10036 8.43066,-20.81991c5.21139,-3.71955 15.64221,3.63824 15.64221,3.63824c0,0 -10.89364,16.38486 -14.15788,18.71468c-3.26424,2.3298 -9.91498,-1.53299 -9.91498,-1.53299z" fill="#00db28" stroke="#000000" stroke-width="1.28786" stroke-linecap="round"/><path d="M315.73995,179.85639c-3.88063,0.46019 -21.86094,-4.64982 -21.86094,-4.64982c0,0 3.75316,-12.89645 9.94864,-13.63111c6.19547,-0.73468 18.67,10.23749 18.67,10.23749c0,0 -2.87708,7.58328 -6.75772,8.04343z" fill="#00db28" stroke="#000000" stroke-width="1.28786" stroke-linecap="round"/><path d="M322.17305,183.81198c-2.1514,3.55635 -17.19727,15.36463 -17.19727,15.36463c0,0 -6.64925,-11.4679 -3.21451,-17.14568c3.43476,-5.67777 19.08059,-9.08152 19.08059,-9.08152c0,0 3.48259,7.3062 1.33117,10.86256z" fill="#00db28" stroke="#000000" stroke-width="1.28786" stroke-linecap="round"/><path d="M309.79082,184.37039c-1.60727,-3.9317 2.89882,-10.39438 2.89882,-10.39438c0,0 14.96282,6.53917 17.52885,12.81619c2.56603,6.27702 -2.3727,16.3864 -2.3727,16.3864c0,0 -16.44771,-14.87654 -18.05498,-18.80825z" fill="#00db28" stroke="#000000" stroke-width="1.28786" stroke-linecap="round"/><path d="M310.66949,186.14516c0,0 -13.96623,-1.82033 -14.27522,-5.64708c-0.31708,-3.82677 13.1629,-7.89747 13.1629,-7.89747c0,0 -2.58607,-13.84414 0.96043,-15.32648c3.54232,-1.47838 11.57942,10.08366 11.57942,10.08366c0,0 12.36478,-6.73694 14.86866,-3.82493c2.50306,2.90944 -6.00808,14.12888 -6.00808,14.12888c0,0 10.2291,9.67956 8.2328,12.96022c-1.99388,3.28001 -15.29485,-1.34943 -15.29485,-1.34943c0,0 -6.04382,12.71451 -9.77755,11.83271c-3.74114,-0.87939 -3.44854,-14.96008 -3.44854,-14.96008z" fill="#ffff00" stroke="#000000" stroke-width="1.28786" stroke-linecap="butt"/><path d="M326.08999,178.55819c-1.24722,0.71963 -2.65367,0.61774 -3.14141,-0.22759c-0.48774,-0.84531 0.12794,-2.11395 1.37514,-2.83357c1.24722,-0.71963 2.65366,-0.61773 3.14141,0.22759c0.48774,0.84531 -0.12793,2.11395 -1.37514,2.83357z" fill="#fab6ff" stroke="none" stroke-width="0" stroke-linecap="butt"/><path d="M314.97422,185.19665c-1.24722,0.71963 -2.65366,0.61773 -3.14141,-0.22759c-0.48774,-0.84531 0.12792,-2.11394 1.37514,-2.83357c1.24722,-0.71963 2.65367,-0.61774 3.14141,0.22759c0.48774,0.84531 -0.12794,2.11395 -1.37514,2.83357z" fill="#fab6ff" stroke="none" stroke-width="0" stroke-linecap="butt"/><path d="M306.54572,177.62679l9.26124,-0.10367l-5.4837,4.77863" fill="none" stroke="#000000" stroke-width="1.28786" stroke-linecap="round"/><path d="M327.2873,174.90439l-7.264,0.37487l6.73133,-6.36163" fill="none" stroke="#000000" stroke-width="1.28786" stroke-linecap="round"/><path d="M326.65014,181.04528c-0.49533,0.81573 -3.62458,0.67329 -3.62458,0.67329c0,0 0.0329,4.38666 -1.0026,5.90717c-0.78671,1.15518 -5.88121,1.75504 -5.88121,1.75504l-0.19793,-5.32409c0,0 3.78688,1.75756 5.12718,0.70814c1.3403,-1.04943 0.37183,-3.92682 0.37183,-3.92682c0,0 3.38268,1.57981 4.7951,0.34483c1.41242,-1.23497 -0.2809,-4.29191 -0.2809,-4.29191c0,0 1.17456,3.3615 0.69312,4.15433z" fill="#000000" stroke="#000000" stroke-width="1.28786" stroke-linecap="round"/></g></g></g></svg>