<svg version="1.1" xmlns="http://www.w3.org/2000/svg" xmlns:xlink="http://www.w3.org/1999/xlink" width="96.1724" height="95.86338" viewBox="0,0,96.1724,95.86338"><g transform="translate(-191.9138,-131.23746)"><g data-paper-data="{&quot;isPaintingLayer&quot;:true}" fill-rule="nonzero" stroke-linejoin="miter" stroke-miterlimit="10" stroke-dasharray="" stroke-dashoffset="0" style="mix-blend-mode: normal"><path d="M192.4138,226.60084v-64.88824v-9.24098c0,0 2.20499,0 4.81102,0c11.2941,0 90.36138,0 90.36138,0v74.12922z" fill="#afafaf" stroke="#000000" stroke-width="1" stroke-linecap="butt"></path><path d="M192.4138,205.86668v-64.88824v-9.24098c0,0 2.20499,0 4.81102,0c11.2941,0 90.36138,0 90.36138,0v74.12922z" fill="#afafaf" stroke="#000000" stroke-width="1" stroke-linecap="butt"></path><path d="M196.91902,199.90332v-60.82023h86.62275v60.82023z" fill="#939393" stroke="#000000" stroke-width="1" stroke-linecap="butt"></path><path d="M253.7116,131.95689h33.838v33.838z" fill="#ff0000" stroke="#000000" stroke-width="1" stroke-linecap="butt"></path><text transform="translate(202.4787,219.27473) scale(0.26375,0.29876)" font-size="40" xml:space="preserve" fill="#000000" fill-rule="nonzero" stroke="none" stroke-width="1" stroke-linecap="butt" stroke-linejoin="miter" stroke-miterlimit="10" stroke-dasharray="" stroke-dashoffset="0" font-family="Sans Serif" font-weight="normal" text-anchor="start" style="mix-blend-mode: normal"><tspan x="0" dy="0">IM NOT BASIC!!</tspan></text><g stroke="#000000" stroke-width="0.5" stroke-linecap="butt"><path d="M233.85396,198.32043v-55.30429h11.20503v55.30429z" fill="#0b8100"></path><path d="M233.87,198.39357v-32.034h11.30766v32.034z" fill="#740000"></path><path d="M233.87,181.0601v-14.70054h5.18823z" fill="#ffffff"></path><path d="M233.79036,175.88232v-9.65409h3.4072z" fill="#ff0000"></path><path d="M238.72057,153.33668c0,3.39098 -0.86794,6.13992 -1.93859,6.13992c-1.07065,0 -1.93859,-2.74893 -1.93859,-6.13992c0,-3.39098 0.86794,-6.13992 1.93859,-6.13992c1.07065,0 1.93859,2.74893 1.93859,6.13992z" fill="#000000"></path></g><path d="M233.59649,150.03253l7.8574,-7.78375" fill="none" stroke="#000000" stroke-width="1" stroke-linecap="round"></path></g></g></svg>