<svg version="1.1" xmlns="http://www.w3.org/2000/svg" xmlns:xlink="http://www.w3.org/1999/xlink" width="19.69962" height="43.11366" viewBox="0,0,19.69962,43.11366"><g transform="translate(-291.84443,-157.75039)"><g stroke="#000000" stroke-width="0.5" stroke-miterlimit="10"><path d="M297.97352,200.48955l0.17647,-38.37007l7.66099,-0.05882l0.29412,38.4289z" fill="#0b8100" stroke-linecap="butt"/><path d="M297.91373,200.61405v-23.24734h8.20606v23.24734z" fill="#ffffff" stroke-linecap="butt"/><path d="M301.36423,168.12816c0,2.46086 -0.62987,4.45579 -1.40685,4.45579c-0.77698,0 -1.40685,-1.99492 -1.40685,-4.45579c0,-2.46086 0.62987,-4.45579 1.40685,-4.45579c0.77698,0 1.40685,1.99492 1.40685,4.45579z" fill="#000000" stroke-linecap="butt"/><path d="M296.40486,200.36828c0,0 -4.97569,-3.04703 -4.23529,-6.95611c1.29412,-6.83256 4.23529,-19.04063 4.23529,-19.04063h11.16667c0,0 4.01181,12.70277 3.70588,19.98181c-0.15558,3.7019 -3.70588,6.01493 -3.70588,6.01493z" fill="#ffffff" stroke-linecap="butt"/><path d="M296.27363,165.52981c0,0 0.14076,-2.36564 1.35616,-4.5469c0.77443,-1.38986 1.53094,-2.94945 4.43619,-2.98252c3.16561,-0.03602 3.82128,1.22263 4.44854,2.62661c0.97854,2.19023 0.70729,4.9028 0.70729,4.9028z" fill="#ffa661" stroke-linecap="butt"/><path d="M300.73206,163.82392c0,0 -0.66826,0.47195 -1.14421,0.55671c-0.78969,0.14063 -3.1499,0.208 -3.1499,0.208" fill="none" stroke-linecap="round"/><g><path d="M296.7742,161.48806c0,0 0.15539,-0.46704 1.0952,-0.16895c0.58128,0.18437 2.15679,0.81079 2.15679,0.81079c0,0 -1.82459,1.18701 -2.42036,1.33455c-1.40593,0.34819 -0.87442,-0.30761 -0.87442,-0.30761z" fill="#ffffff" stroke-linecap="round"/><path d="M297.50162,162.34384c0,0.42537 -0.3161,0.77021 -0.70602,0.77021c-0.38993,0 -0.14976,-0.25926 -0.14976,-0.68463c0,-0.42537 -0.24016,-0.85579 0.14976,-0.85579c0.38993,0 0.70602,0.34483 0.70602,0.77021z" fill="#000000" stroke-linecap="butt"/></g><path d="M295.49678,178.41217l0.41177,-1.70588h12.17647l0.41177,1.70588z" fill="#ff0000" stroke-linecap="butt"/><path d="M294.43974,183.5316l0.48816,-1.70588c0,0 0.95696,-1.45454 2.20101,-1.45454c0.81834,0 2.95329,1.02013 2.95329,1.02013c0,0 0.92128,-0.99672 2.17481,-0.93805c0.60156,0.02815 2.36692,1.156 2.36692,1.156c0,0 1.49915,-1.36531 2.34722,-1.32658c0.70526,0.03222 2.3922,1.54305 2.3922,1.54305l0.48816,1.70588c0,0 -1.94357,-0.72727 -2.8438,-0.72727c-0.88586,0 -2.51515,0.72727 -2.51515,0.72727c0,0 -1.64409,-0.75758 -2.42424,-0.75758c-0.765,0 -2.21213,0.75758 -2.21213,0.75758c0,0 -1.85877,-0.63636 -2.69697,-0.63636c-0.9526,0 -2.71947,0.63636 -2.71947,0.63636z" fill="#52ff67" stroke-linecap="butt"/><path d="M292.34882,192.41039l0.58894,-1.70588c0,0 1.15453,-1.45454 2.65542,-1.45454c0.98729,0 3.563,1.02013 3.563,1.02013c0,0 1.11148,-0.99672 2.62381,-0.93805c0.72575,0.02815 2.85558,1.15599 2.85558,1.15599c0,0 1.80867,-1.36531 2.83182,-1.32657c0.85087,0.03222 3.34062,1.45214 3.34062,1.45214l0.1344,1.79679c0,0 -2.34483,-0.72727 -3.43092,-0.72727c-1.06875,0 -3.03442,0.72727 -3.03442,0.72727c0,0 -1.98351,-0.75758 -2.92473,-0.75758c-0.92295,0 -2.66883,0.75758 -2.66883,0.75758c0,0 -2.24251,-0.63637 -3.25377,-0.63637c-1.14927,0 -3.28092,0.63637 -3.28092,0.63637z" fill="#52ff67" stroke-linecap="butt"/><path d="M293.52708,187.29096l0.54422,-1.70588h16.09337l0.54422,1.70588z" fill="#ff0000" stroke-linecap="butt"/><path d="M310.55738,195.94872l-0.56342,1.70588h-16.66105l-0.56342,-1.70588z" fill="#ff0000" stroke-linecap="butt"/></g></g></svg>