<svg version="1.1" xmlns="http://www.w3.org/2000/svg" xmlns:xlink="http://www.w3.org/1999/xlink" width="64.79221" height="88.38662" viewBox="0,0,64.79221,88.38662"><g transform="translate(-207.55981,-137.40138)"><g data-paper-data="{&quot;isPaintingLayer&quot;:true}" fill-rule="nonzero" stroke-linejoin="miter" stroke-miterlimit="10" stroke-dasharray="" stroke-dashoffset="0" style="mix-blend-mode: normal"><path d="M271.4477,137.59302v84.81396h-62.89539v-84.81396z" data-paper-data="{&quot;index&quot;:null}" fill="#515151" stroke="none" stroke-width="0" stroke-linecap="butt"></path><g stroke="#000000" stroke-width="1.28786"><path d="M229.15636,186.5842l10.92854,-34.01721l7.67825,2.46675l-10.92854,34.01722z" fill="#ba0000" stroke-linecap="butt"></path><path d="M250.85078,189.24446l-12.95783,-33.92755l8.65078,-3.30396l12.95783,33.92755z" fill="#ba0000" stroke-linecap="butt"></path><path d="M231.84665,204.46082c-5.70117,0 -10.3229,-5.17789 -10.3229,-11.56515c0,-6.38726 4.62172,-11.56515 10.3229,-11.56515c5.70117,0 10.32289,5.17789 10.32289,11.56515c0,6.38726 -4.62172,11.56515 -10.32289,11.56515z" fill="#ff0000" stroke-linecap="butt"></path><path d="M256.32556,204.42287c-5.21909,0 -9.45,-4.69366 -9.45,-10.48359c0,-5.78993 4.23091,-10.48359 9.45,-10.48359c5.21909,0 9.45,4.69366 9.45,10.48359c0,5.78993 -4.23091,10.48359 -9.45,10.48359z" fill="#ff0000" stroke-linecap="butt"></path><path d="M246.11133,148.19864c3.10831,4.57127 3.22187,9.91318 0.25362,11.93149c-2.96825,2.01831 -7.89427,-0.05128 -11.00258,-4.62254c-3.10831,-4.57127 -0.25361,-11.93149 -0.25361,-11.93149c0,0 8.16805,0.45391 11.00258,4.62254z" fill="#00ff12" stroke-linecap="butt"></path><path d="M237.17413,189.40509c0,2.97318 -0.6117,5.38343 -1.36627,5.38343c-0.75457,0 -1.36627,-2.41025 -1.36627,-5.38343c0,-2.97318 0.6117,-5.38343 1.36627,-5.38343c0.75457,0 1.36627,2.41025 1.36627,5.38343z" fill="#000000" stroke-linecap="butt"></path><path d="M228.10907,196.89201c0,0 1.89374,-0.90935 3.61124,-0.479c1.32291,0.33147 5.82251,2.84272 5.82251,2.84272" fill="none" stroke-linecap="round"></path><path d="M252.48497,200.74119c0,0 0.90924,-1.76345 2.23604,-1.62714c1.31157,0.13474 5.67962,2.44034 5.67962,2.44034" fill="none" stroke-linecap="round"></path><path d="M232.38163,189.77423c0,2.97318 -0.6117,5.38343 -1.36627,5.38343c-0.75457,0 -1.36627,-2.41025 -1.36627,-5.38343c0,-2.97318 0.6117,-5.38343 1.36627,-5.38343c0.75457,0 1.36627,2.41025 1.36627,5.38343z" fill="#000000" stroke-linecap="butt"></path><path d="M256.28042,192.92948c0,2.97318 -0.6117,5.38343 -1.36627,5.38343c-0.75457,0 -1.36627,-2.41025 -1.36627,-5.38343c0,-2.97318 0.6117,-5.38343 1.36627,-5.38343c0.75457,0 1.36627,2.41025 1.36627,5.38343z" fill="#000000" stroke-linecap="butt"></path><path d="M261.34457,193.52632c0,2.97318 -0.6117,5.38343 -1.36627,5.38343c-0.75457,0 -1.36627,-2.41025 -1.36627,-5.38343c0,-2.97318 0.6117,-5.38343 1.36627,-5.38343c0.75457,0 1.36627,2.41025 1.36627,5.38343z" fill="#000000" stroke-linecap="butt"></path><path d="M238.50151,183.84229l-5.79485,2.17443l-5.68192,-4.52142" fill="none" stroke-linecap="round"></path><path d="M263.33312,187.10645l-5.79485,2.17443l-5.68192,-4.52142" fill="none" stroke-linecap="round"></path></g><path d="M208.55234,222.38702v-12.81396h62.89539v12.81396z" fill="#969696" stroke="none" stroke-width="0" stroke-linecap="butt"></path><path d="M208.5023,222.35702v-84.81396h8.64539v84.81396z" fill="#969696" stroke="none" stroke-width="0" stroke-linecap="butt"></path><path d="M264.05811,222.41133v-84.81396h8.14539v84.81396z" fill="#969696" stroke="none" stroke-width="0" stroke-linecap="butt"></path><path d="M208.55234,147.90701v-10.31396h62.89539v10.31396z" fill="#969696" stroke="none" stroke-width="0" stroke-linecap="butt"></path><path d="M216.29735,211.48042v-21.00188l21.13534,21.00188z" fill="#969696" stroke="none" stroke-width="0" stroke-linecap="butt"></path><path d="M223.41182,215.22399v-12.15842h44.05785v12.15842z" fill="#969696" stroke="none" stroke-width="0" stroke-linecap="butt"></path><text transform="translate(238.87043,219.538) scale(0.47116,0.5)" font-size="40" xml:space="preserve" fill="#000000" fill-rule="nonzero" stroke="none" stroke-width="1" stroke-linecap="butt" stroke-linejoin="miter" stroke-miterlimit="10" stroke-dasharray="" stroke-dashoffset="0" font-family="Sans Serif" font-weight="normal" text-anchor="start" style="mix-blend-mode: normal"><tspan x="0" dy="0">125</tspan></text><g stroke-linecap="butt"><path d="M223.93601,213.69347l-2.65375,6.84999l-2.38631,-6.84999z" data-paper-data="{&quot;index&quot;:null}" fill="#ffff00" stroke="#ffff00" stroke-width="1"></path><path d="M218.96776,202.31762l2.38632,-6.84999l2.65375,6.84999z" fill="#ffff00" stroke="#ffff00" stroke-width="1"></path><path d="M214.78436,208.21682c0,-3.72115 3.01658,-6.73773 6.73773,-6.73773c3.72115,0 6.73772,3.01658 6.73772,6.73773c0,3.72115 -3.01658,6.73772 -6.73772,6.73772c-3.72115,0 -6.73773,-3.01658 -6.73773,-6.73772z" fill="#ffff00" stroke="none" stroke-width="0"></path><path d="M227.21237,205.68172l6.87114,2.59848l-6.83054,2.44142z" data-paper-data="{&quot;index&quot;:null}" fill="#ffff00" stroke="#ffff00" stroke-width="1"></path><path d="M215.87693,210.74146l-6.86899,-2.33105l6.82838,-2.70885z" fill="#ffff00" stroke="#ffff00" stroke-width="1"></path><path d="M227.52795,210.32821l3.04475,6.68537l-6.56714,-3.08051z" data-paper-data="{&quot;index&quot;:null}" fill="#ffff00" stroke="#ffff00" stroke-width="1"></path><path d="M215.91927,205.9314l-3.23165,-6.49409l6.75404,2.88922z" fill="#ffff00" stroke="#ffff00" stroke-width="1"></path><path d="M224.08738,202.38559l6.66063,-3.0985l-3.02751,6.59174z" data-paper-data="{&quot;index&quot;:null}" fill="#ffff00" stroke="#ffff00" stroke-width="1"></path><path d="M219.78423,214.02932l-6.46785,3.28387l2.83472,-6.7771z" fill="#ffff00" stroke="#ffff00" stroke-width="1"></path><path d="M216.8006,208.41738c0,-2.70702 2.19448,-4.90151 4.9015,-4.90151c2.70702,0 4.90151,2.19448 4.90151,4.90151c0,2.70702 -2.19448,4.9015 -4.90151,4.9015c-2.70702,0 -4.9015,-2.19448 -4.9015,-4.9015z" fill="#fffff7" stroke="none" stroke-width="0"></path></g><path d="M272.35202,137.40138v33.64619l-33.86,-33.64619z" fill="#ff0000" stroke="none" stroke-width="0" stroke-linecap="butt"></path></g></g></svg>