<svg version="1.1" xmlns="http://www.w3.org/2000/svg" xmlns:xlink="http://www.w3.org/1999/xlink" width="31.57859" height="53.03859" viewBox="0,0,31.57859,53.03859"><g transform="translate(-304.1947,-153.48071)"><g stroke="#000000" stroke-width="1.28786" stroke-miterlimit="10"><path d="M313.86157,163.3772l-4.37156,1.39451l-4.23643,-3.71059" fill="none" stroke-linecap="round"/><path d="M315.58799,163.2343l-2.50077,-3.92655l2.33462,-5.18311" fill="none" stroke-linecap="round"/><path d="M313.77604,162.50233l-4.1493,-1.98223l-0.69155,-5.66351" fill="none" stroke-linecap="round"/><path d="M332.03298,181.80546c0,12.51147 -5.35639,22.65403 -11.96383,22.65403c-6.60744,0 -11.96383,-10.14256 -11.96383,-22.65403c0,-12.51147 5.35639,-22.65403 11.96383,-22.65403c6.60744,0 11.96383,10.14256 11.96383,22.65403z" fill="#49574b" stroke-linecap="butt"/><path d="M319.93085,202.90202c-6.91299,0 -7.26128,-9.11766 -7.26128,-21.23815c0,-5.67411 1.86076,-15.02406 1.86076,-15.02406c0,0 -2.94713,-2.07799 -2.43182,-2.80364c2.14433,-3.01962 4.868,-4.82633 7.83235,-4.82633c2.89861,0 5.56708,1.72745 7.68882,4.6272c0.57743,0.78918 -1.43839,3.04158 -1.43839,3.04158c0,0 2.26206,7.67458 2.39506,14.44894c0.11245,5.72783 -1.7325,21.77446 -8.64549,21.77446z" fill="#5d6f5f" stroke-linecap="butt"/><path d="M321.10648,159.71778v31.71564" fill="none" stroke-linecap="round"/><path d="M305.0625,205.87536l4.28761,-14.15877h21.853l3.73438,14.15877z" fill="#a5a5a5" stroke-linecap="butt"/><path d="M318.34028,178.40735c0,-2.18951 1.73386,-3.96445 3.87268,-3.96445c2.13882,0 3.87268,1.77494 3.87268,3.96445c0,2.18951 -1.73386,3.96445 -3.87268,3.96445c-2.13882,0 -3.87268,-1.77494 -3.87268,-3.96445z" fill="#000000" stroke-linecap="butt"/><path d="M319.44675,178.54894c0,-2.03311 1.51713,-3.68128 3.3886,-3.68128c1.87147,0 3.3886,1.64817 3.3886,3.68128c0,2.03311 -1.51713,3.68128 -3.3886,3.68128c-1.87147,0 -3.3886,-1.64817 -3.3886,-3.68128z" fill="#ff0000" stroke-linecap="butt"/></g></g></svg>