<svg version="1.1" xmlns="http://www.w3.org/2000/svg" xmlns:xlink="http://www.w3.org/1999/xlink" width="86.13411" height="401.1081" viewBox="0,0,86.13411,401.1081"><defs><linearGradient x1="337.53753" y1="-0.93092" x2="337.53753" y2="194.93096" gradientUnits="userSpaceOnUse" id="color-1"><stop offset="0" stop-color="#550068"/><stop offset="1" stop-color="#1d1693"/></linearGradient><linearGradient x1="337.53753" y1="52.06908" x2="337.53753" y2="195.93096" gradientUnits="userSpaceOnUse" id="color-2"><stop offset="0" stop-color="#0f0c4f" stop-opacity="0"/><stop offset="1" stop-color="#0f0c4f"/></linearGradient><linearGradient x1="337.99606" y1="218.25457" x2="337.99606" y2="362.11645" gradientUnits="userSpaceOnUse" id="color-3"><stop offset="0" stop-color="#000000" stop-opacity="0"/><stop offset="1" stop-color="#000000"/></linearGradient></defs><g transform="translate(-294.56549,0.93092)"><g stroke="none" stroke-miterlimit="10"><path d="M294.83398,194.93094v-195.86186h85.4071v195.86187z" fill="url(#color-1)" stroke-width="NaN"/><path d="M294.56549,400.17719v-208.17563h85.664v208.17563z" fill="#636363" stroke-width="0"/><path d="M310.97537,347.83859v-38.67653h54.12824v38.67653z" fill="#dadada" stroke-width="0"/><path d="M310.54542,293.74562v-38.67653h54.12824v38.67653z" fill="#dadada" stroke-width="0"/><path d="M310.5456,241.95407v-38.67653h54.12824v38.67653z" fill="#dadada" stroke-width="0"/><path d="M306.93965,20.99903c0,-1.38071 0.80251,-2.5 1.79246,-2.5c0.98995,0 1.79246,1.11929 1.79246,2.5c0,1.38071 -0.80251,2.5 -1.79246,2.5c-0.98995,0 -1.79246,-1.11929 -1.79246,-2.5z" fill="#ffffff" stroke-width="0.5"/><path d="M340.56369,30.29783c0,-1.38071 0.80251,-2.5 1.79246,-2.5c0.98995,0 1.79246,1.11929 1.79246,2.5c0,1.38071 -0.80251,2.5 -1.79246,2.5c-0.98995,0 -1.79246,-1.11929 -1.79246,-2.5z" fill="#ffffff" stroke-width="0.5"/><path d="M319.30668,67.09304c0,-1.38071 0.80251,-2.5 1.79246,-2.5c0.98995,0 1.79246,1.11929 1.79246,2.5c0,1.38071 -0.80251,2.5 -1.79246,2.5c-0.98995,0 -1.79246,-1.11929 -1.79246,-2.5z" fill="#ffffff" stroke-width="0.5"/><path d="M314.07311,43.64608c0,-1.38071 0.80251,-2.5 1.79246,-2.5c0.98995,0 1.79246,1.11929 1.79246,2.5c0,1.38071 -0.80251,2.5 -1.79246,2.5c-0.98995,0 -1.79246,-1.11929 -1.79246,-2.5z" fill="#ffffff" stroke-width="0.5"/><path d="M343.03709,58.39418c0,-1.38071 0.80251,-2.5 1.79246,-2.5c0.98995,0 1.79246,1.11929 1.79246,2.5c0,1.38071 -0.80251,2.5 -1.79246,2.5c-0.98995,0 -1.79246,-1.11929 -1.79246,-2.5z" fill="#ffffff" stroke-width="0.5"/><path d="M331.60206,97.48907c0,-1.38071 0.80251,-2.5 1.79246,-2.5c0.98995,0 1.79246,1.11929 1.79246,2.5c0,1.38071 -0.80251,2.5 -1.79246,2.5c-0.98995,0 -1.79246,-1.11929 -1.79246,-2.5z" fill="#ffffff" stroke-width="0.5"/><path d="M307.87164,106.5379c0,-1.38071 0.80251,-2.5 1.79246,-2.5c0.98995,0 1.79246,1.11929 1.79246,2.5c0,1.38071 -0.80251,2.5 -1.79246,2.5c-0.98995,0 -1.79246,-1.11929 -1.79246,-2.5z" fill="#ffffff" stroke-width="0.5"/><path d="M325.36476,143.38311c0,-1.38071 0.80251,-2.5 1.79246,-2.5c0.98995,0 1.79246,1.11929 1.79246,2.5c0,1.38071 -0.80251,2.5 -1.79246,2.5c-0.98995,0 -1.79246,-1.11929 -1.79246,-2.5z" fill="#ffffff" stroke-width="0.5"/><path d="M350.38562,147.88249c0,-1.38071 0.80251,-2.5 1.79246,-2.5c0.98995,0 1.79246,1.11929 1.79246,2.5c0,1.38071 -0.80251,2.5 -1.79246,2.5c-0.98995,0 -1.79246,-1.11929 -1.79246,-2.5z" fill="#ffffff" stroke-width="0.5"/><path d="M307.51319,179.27843c0,-1.38071 0.80251,-2.5 1.79246,-2.5c0.98995,0 1.79246,1.11929 1.79246,2.5c0,1.38071 -0.80251,2.5 -1.79246,2.5c-0.98995,0 -1.79246,-1.11929 -1.79246,-2.5z" fill="#ffffff" stroke-width="0.5"/><path d="M348.37823,169.07976c0,-1.38071 0.80251,-2.5 1.79246,-2.5c0.98995,0 1.79246,1.11929 1.79246,2.5c0,1.38071 -0.80251,2.5 -1.79246,2.5c-0.98995,0 -1.79246,-1.11929 -1.79246,-2.5z" fill="#ffffff" stroke-width="0.5"/><path d="M369.92198,169.6297c0,-1.38071 0.80251,-2.5 1.79246,-2.5c0.98995,0 1.79246,1.11929 1.79246,2.5c0,1.38071 -0.80251,2.5 -1.79246,2.5c-0.98995,0 -1.79246,-1.11929 -1.79246,-2.5z" fill="#ffffff" stroke-width="0.5"/><path d="M364.47331,117.18652c0,-1.38071 0.80251,-2.5 1.79246,-2.5c0.98995,0 1.79246,1.11929 1.79246,2.5c0,1.38071 -0.80251,2.5 -1.79246,2.5c-0.98995,0 -1.79246,-1.11929 -1.79246,-2.5z" fill="#ffffff" stroke-width="0.5"/><path d="M341.89001,126.33532c0,-1.38071 0.80251,-2.5 1.79246,-2.5c0.98995,0 1.79246,1.11929 1.79246,2.5c0,1.38071 -0.80251,2.5 -1.79246,2.5c-0.98995,0 -1.79246,-1.11929 -1.79246,-2.5z" fill="#ffffff" stroke-width="0.5"/><path d="M310.20167,134.7842c0,-1.38071 0.80251,-2.5 1.79246,-2.5c0.98995,0 1.79246,1.11929 1.79246,2.5c0,1.38071 -0.80251,2.5 -1.79246,2.5c-0.98995,0 -1.79246,-1.11929 -1.79246,-2.5z" fill="#ffffff" stroke-width="0.5"/><path d="M320.8481,162.38063c0,-1.38071 0.80251,-2.5 1.79246,-2.5c0.98995,0 1.79246,1.11929 1.79246,2.5c0,1.38071 -0.80251,2.5 -1.79246,2.5c-0.98995,0 -1.79246,-1.11929 -1.79246,-2.5z" fill="#ffffff" stroke-width="0.5"/><path d="M342.67862,179.4284c0,-1.38071 0.80251,-2.5 1.79246,-2.5c0.98995,0 1.79246,1.11929 1.79246,2.5c0,1.38071 -0.80251,2.5 -1.79246,2.5c-0.98995,0 -1.79246,-1.11929 -1.79246,-2.5z" fill="#ffffff" stroke-width="0.5"/><path d="M354.2212,75.24197c0,-1.38071 0.80251,-2.5 1.79246,-2.5c0.98995,0 1.79246,1.11929 1.79246,2.5c0,1.38071 -0.80251,2.5 -1.79246,2.5c-0.98995,0 -1.79246,-1.11929 -1.79246,-2.5z" fill="#ffffff" stroke-width="0.5"/><path d="M364.04314,39.14668c0,-1.38071 0.80251,-2.5 1.79246,-2.5c0.98995,0 1.79246,1.11929 1.79246,2.5c0,1.38071 -0.80251,2.5 -1.79246,2.5c-0.98995,0 -1.79246,-1.11929 -1.79246,-2.5z" fill="#ffffff" stroke-width="0.5"/><path d="M358.45108,18.89929c0,-1.38071 0.80251,-2.5 1.79246,-2.5c0.98995,0 1.79246,1.11929 1.79246,2.5c0,1.38071 -0.80251,2.5 -1.79246,2.5c-0.98995,0 -1.79246,-1.11929 -1.79246,-2.5z" fill="#ffffff" stroke-width="0.5"/><path d="M337.01488,9.55052c0,-1.38071 0.80251,-2.5 1.79246,-2.5c0.98995,0 1.79246,1.11929 1.79246,2.5c0,1.38071 -0.80251,2.5 -1.79246,2.5c-0.98995,0 -1.79246,-1.11929 -1.79246,-2.5z" fill="#ffffff" stroke-width="0.5"/><path d="M325.65152,19.79918c0,-1.38071 0.80251,-2.5 1.79246,-2.5c0.98995,0 1.79246,1.11929 1.79246,2.5c0,1.38071 -0.80251,2.5 -1.79246,2.5c-0.98995,0 -1.79246,-1.11929 -1.79246,-2.5z" fill="#ffffff" stroke-width="0.5"/><path d="M371.67847,73.09225c0,-1.38071 0.80251,-2.5 1.79246,-2.5c0.98995,0 1.79246,1.11929 1.79246,2.5c0,1.38071 -0.80251,2.5 -1.79246,2.5c-0.98995,0 -1.79246,-1.11929 -1.79246,-2.5z" fill="#ffffff" stroke-width="0.5"/><path d="M347.26698,102.23846c0,-1.38071 0.80251,-2.5 1.79246,-2.5c0.98995,0 1.79246,1.11929 1.79246,2.5c0,1.38071 -0.80251,2.5 -1.79246,2.5c-0.98995,0 -1.79246,-1.11929 -1.79246,-2.5z" fill="#ffffff" stroke-width="0.5"/><path d="M333.07175,77.24171c0,-1.38071 0.80251,-2.5 1.79246,-2.5c0.98995,0 1.79246,1.11929 1.79246,2.5c0,1.38071 -0.80251,2.5 -1.79246,2.5c-0.98995,0 -1.79246,-1.11929 -1.79246,-2.5z" fill="#ffffff" stroke-width="0.5"/><path d="M314.21649,90.83995c0,-1.38071 0.80251,-2.5 1.79246,-2.5c0.98995,0 1.79246,1.11929 1.79246,2.5c0,1.38071 -0.80251,2.5 -1.79246,2.5c-0.98995,0 -1.79246,-1.11929 -1.79246,-2.5z" fill="#ffffff" stroke-width="0.5"/><path d="M300.34388,69.04278c0,-1.38071 0.80251,-2.5 1.79246,-2.5c0.98995,0 1.79246,1.11929 1.79246,2.5c0,1.38071 -0.80251,2.5 -1.79246,2.5c-0.98995,0 -1.79246,-1.11929 -1.79246,-2.5z" fill="#ffffff" stroke-width="0.5"/><path d="M303.7493,39.74658c0,-1.38071 0.80251,-2.5 1.79246,-2.5c0.98995,0 1.79246,1.11929 1.79246,2.5c0,1.38071 -0.80251,2.5 -1.79246,2.5c-0.98995,0 -1.79246,-1.11929 -1.79246,-2.5z" fill="#ffffff" stroke-width="0.5"/><path d="M331.78128,50.09525c0,-1.38071 0.80251,-2.5 1.79246,-2.5c0.98995,0 1.79246,1.11929 1.79246,2.5c0,1.38071 -0.80251,2.5 -1.79246,2.5c-0.98995,0 -1.79246,-1.11929 -1.79246,-2.5z" fill="#ffffff" stroke-width="0.5"/><path d="M355.11736,50.99513c0,-1.38071 0.80251,-2.5 1.79246,-2.5c0.98995,0 1.79246,1.11929 1.79246,2.5c0,1.38071 -0.80251,2.5 -1.79246,2.5c-0.98995,0 -1.79246,-1.11929 -1.79246,-2.5z" fill="#ffffff" stroke-width="0.5"/><path d="M368.52397,21.24899c0,-1.38071 0.80251,-2.5 1.79246,-2.5c0.98995,0 1.79246,1.11929 1.79246,2.5c0,1.38071 -0.80251,2.5 -1.79246,2.5c-0.98995,0 -1.79246,-1.11929 -1.79246,-2.5z" fill="#ffffff" stroke-width="0.5"/><path d="M332.74913,173.87912c0,-1.38071 0.80251,-2.5 1.79246,-2.5c0.98995,0 1.79246,1.11929 1.79246,2.5c0,1.38071 -0.80251,2.5 -1.79246,2.5c-0.98995,0 -1.79246,-1.11929 -1.79246,-2.5z" fill="#ffffff" stroke-width="0.5"/><path d="M338.91475,147.03259c0,-1.38071 0.80251,-2.5 1.79246,-2.5c0.98995,0 1.79246,1.11929 1.79246,2.5c0,1.38071 -0.80251,2.5 -1.79246,2.5c-0.98995,0 -1.79246,-1.11929 -1.79246,-2.5z" fill="#ffffff" stroke-width="0.5"/><path d="M323.57243,123.13574c0,-1.38071 0.80251,-2.5 1.79246,-2.5c0.98995,0 1.79246,1.11929 1.79246,2.5c0,1.38071 -0.80251,2.5 -1.79246,2.5c-0.98995,0 -1.79246,-1.11929 -1.79246,-2.5z" fill="#ffffff" stroke-width="0.5"/><path d="M362.75268,134.08431c0,-1.38071 0.80251,-2.5 1.79246,-2.5c0.98995,0 1.79246,1.11929 1.79246,2.5c0,1.38071 -0.80251,2.5 -1.79246,2.5c-0.98995,0 -1.79246,-1.11929 -1.79246,-2.5z" fill="#ffffff" stroke-width="0.5"/><path d="M367.09011,175.37892c0,-1.38071 0.80251,-2.5 1.79246,-2.5c0.98995,0 1.79246,1.11929 1.79246,2.5c0,1.38071 -0.80251,2.5 -1.79246,2.5c-0.98995,0 -1.79246,-1.11929 -1.79246,-2.5z" fill="#ffffff" stroke-width="0.5"/><path d="M304.8247,156.23143c0,-1.38071 0.80251,-2.5 1.79246,-2.5c0.98995,0 1.79246,1.11929 1.79246,2.5c0,1.38071 -0.80251,2.5 -1.79246,2.5c-0.98995,0 -1.79246,-1.11929 -1.79246,-2.5z" fill="#ffffff" stroke-width="0.5"/><path d="M371.14075,100.18873c0,-1.38071 0.80251,-2.5 1.79246,-2.5c0.98995,0 1.79246,1.11929 1.79246,2.5c0,1.38071 -0.80251,2.5 -1.79246,2.5c-0.98995,0 -1.79246,-1.11929 -1.79246,-2.5z" fill="#ffffff" stroke-width="0.5"/><path d="M360.42265,94.58946c0,-1.38071 0.80251,-2.5 1.79246,-2.5c0.98995,0 1.79246,1.11929 1.79246,2.5c0,1.38071 -0.80251,2.5 -1.79246,2.5c-0.98995,0 -1.79246,-1.11929 -1.79246,-2.5z" fill="#ffffff" stroke-width="0.5"/><path d="M370.28045,56.44441c0,-1.38071 0.80251,-2.5 1.79246,-2.5c0.98995,0 1.79246,1.11929 1.79246,2.5c0,1.38071 -0.80251,2.5 -1.79246,2.5c-0.98995,0 -1.79246,-1.11929 -1.79246,-2.5z" fill="#ffffff" stroke-width="0.5"/><path d="M355.47583,35.44714c0,-1.38071 0.80251,-2.5 1.79246,-2.5c0.98995,0 1.79246,1.11929 1.79246,2.5c0,1.38071 -0.80251,2.5 -1.79246,2.5c-0.98995,0 -1.79246,-1.11929 -1.79246,-2.5z" fill="#ffffff" stroke-width="0.5"/><path d="M372.89724,10.65038c0,-1.38071 0.80251,-2.5 1.79246,-2.5c0.98995,0 1.79246,1.11929 1.79246,2.5c0,1.38071 -0.80251,2.5 -1.79246,2.5c-0.98995,0 -1.79246,-1.11929 -1.79246,-2.5z" fill="#ffffff" stroke-width="0.5"/><path d="M294.83398,195.93094v-143.86186h85.4071v143.86187z" fill="url(#color-2)" stroke-width="NaN"/><path d="M295.29251,362.11644v-143.86186h85.4071v143.86187z" fill="url(#color-3)" stroke-width="NaN"/></g></g></svg>