<svg version="1.1" xmlns="http://www.w3.org/2000/svg" xmlns:xlink="http://www.w3.org/1999/xlink" width="71.76359" height="73.11159" viewBox="0,0,71.76359,73.11159"><defs><linearGradient x1="239.4935" y1="146.15429" x2="239.4935" y2="201.52002" gradientUnits="userSpaceOnUse" id="color-1"><stop offset="0" stop-color="#edcf21"></stop><stop offset="1" stop-color="#edda70"></stop></linearGradient></defs><g transform="translate(-204.11821,-142.20189)"><g data-paper-data="{&quot;isPaintingLayer&quot;:true}" fill-rule="nonzero" stroke="#000000" stroke-width="1.28786" stroke-linejoin="miter" stroke-miterlimit="10" stroke-dasharray="" stroke-dashoffset="0" style="mix-blend-mode: normal"><path d="M219.60892,192.93132l-11.15435,-10.80578l10.63149,2.44001z" fill="#2ba21c" stroke-linecap="round"></path><path d="M264.42908,184.73743l6.42015,-1.74046l-12.54864,12.72293l-0.17429,-1.04572l-4.18288,-4.70574l10.4572,-7.49433z" fill="#2ba21c" stroke-linecap="round"></path><path d="M239.82093,201.52002l-24.81366,-7.10808v-2.714l2.19705,-0.12923l-1.55086,-2.06781l2.84323,-0.12924l-1.16314,-1.93857l2.19705,-0.12924l-3.87714,-4.39409l5.16951,1.68009l-1.0339,-1.93857l2.58475,0.25848l-5.8157,-9.30513l8.14199,3.7479l-3.10171,-4.91103l6.59113,3.7479l0.25848,-2.71399l1.80933,0.12924l-3.48942,-6.8496l5.89037,3.53674v-5.29875l3.10171,3.61866l0.90466,-0.77543l4.7818,-1.16314l-3.87713,-0.25848l4.13561,-4.65256l-4.29932,-5.78572l9.43436,-9.82207l-5.81571,10.5975l4.91104,4.39409l-1.42161,1.55085l2.19704,1.16314l-1.55085,5.94494l4.3452,-3.43759l-2.84323,5.68646l5.42799,-0.64619l-1.55085,5.55722l6.8496,-4.91103l-4.00638,6.33265l8.78817,-3.48942l-5.04027,7.10808l1.42162,0.51695l-2.45552,6.33266l7.88351,0.77542l-6.8496,9.04665z" fill="url(#color-1)" stroke-linecap="round"></path><path d="M253.66138,200.12803l5.05432,2.96287l-2.09144,0.34857l3.83431,4.53145l-2.26573,-0.34857l3.83431,5.75146l-12.37436,-5.40289l0.17429,1.91716l-2.78859,-1.56858l-2.96287,0.17428l-4.35717,-8.54005z" data-paper-data="{&quot;index&quot;:null}" fill="#2ba21c" stroke-linecap="round"></path><path d="M234.66739,196.79693l8.9667,-2.75899l1.14958,3.21882c0,0 -2.64682,1.73991 -4.01096,1.67791c-1.85481,-0.08431 -6.10532,-2.13774 -6.10532,-2.13774z" fill="#ffffff" stroke-linecap="round"></path><path d="M237.44907,191.7962c0,2.31736 -0.98229,2.01176 -2.31557,2.01176c-1.33328,0 -2.51265,0.3056 -2.51265,-2.01176c0,-2.31736 1.08084,-4.19596 2.41412,-4.19596c1.33328,0 2.41411,1.87859 2.41411,4.19596z" fill="#ffffff" stroke-linecap="butt"></path><path d="M248.97917,190.69214c0,2.31736 -0.98229,2.01176 -2.31557,2.01176c-1.33328,0 -2.51265,0.3056 -2.51265,-2.01176c0,-2.31736 1.08084,-4.19596 2.41412,-4.19596c1.33328,0 2.41411,1.87859 2.41411,4.19596z" fill="#ffffff" stroke-linecap="butt"></path><path d="M242.82938,198.17643l-1.49445,-3.21882" fill="none" stroke-linecap="round"></path><path d="M238.69091,196.22214l1.14957,2.1842" fill="none" stroke-linecap="round"></path><path d="M231.46044,182.29983l1.39429,-1.74287l3.48573,0.87143" fill="none" stroke-linecap="round"></path><path d="M225.18611,190.83986l-2.09144,-2.44001l1.74287,-0.17429l-0.52286,-1.91715l1.91715,-0.87143l0.34857,-3.66002l4.00859,1.56858" fill="none" stroke-linecap="round"></path><path d="M242.78907,180.90553l4.53145,0.34857l2.78859,2.96287" fill="none" stroke-linecap="round"></path><path d="M244.8805,175.32835l1.91715,0.87143l0.52286,2.78859l3.66002,0.17429l-0.69715,2.44001l3.66002,0.34857l-0.52286,4.18288" fill="none" stroke-linecap="round"></path><path d="M231.11186,178.6398l1.56858,-3.48573v-2.78859l2.44001,0.52286l3.48573,0.52286" fill="none" stroke-linecap="round"></path><path d="M241.39475,200.42563l-4.35717,8.54005l-2.96287,-0.17429l-2.78859,1.56858l0.17429,-1.91715l-12.37436,5.40289l3.83431,-5.75146l-2.26573,0.34857l3.83431,-4.53145l-2.09144,-0.34857l5.05432,-2.96287z" fill="#2ba21c" stroke-linecap="round"></path><path d="M243.80087,197.76968l-0.2,2l9.6,-4.8l-0.8,3.6l2.56471,-1.50588l-0.96471,2.49412l0.95294,-2.49412l-2.6,1.41176l0.68235,-2.21176l22.56471,-6.09412l-26.4,12.8l3.2,2l-11.39793,-1.60036l-13.4038,1.6l3.2,-2l-26.4,-12.8l22.56471,6.09412l0.68235,2.21176l-2.6,-1.41176l0.95294,2.49412l-0.96471,-2.49412l2.56471,1.50588l-0.8,-3.6l9.6,4.8l-0.2,-2l3.8,3z" data-paper-data="{&quot;index&quot;:null}" fill="#2ba21c" stroke-linecap="round"></path></g></g></svg>