<svg version="1.1" xmlns="http://www.w3.org/2000/svg" xmlns:xlink="http://www.w3.org/1999/xlink" width="77.60298" height="74.26179" viewBox="0,0,77.60298,74.26179"><defs><linearGradient x1="217.33169" y1="178.78486" x2="224.68657" y2="187.07459" gradientUnits="userSpaceOnUse" id="color-1"><stop offset="0" stop-color="#bce6a7"></stop><stop offset="1" stop-color="#b8fc9f"></stop></linearGradient><linearGradient x1="258.35404" y1="162.23737" x2="252.52739" y2="153.15204" gradientUnits="userSpaceOnUse" id="color-2"><stop offset="0" stop-color="#bce6a7"></stop><stop offset="1" stop-color="#b8fc9f"></stop></linearGradient><linearGradient x1="248.49553" y1="170.354" x2="243.82636" y2="180.08499" gradientUnits="userSpaceOnUse" id="color-3"><stop offset="0" stop-color="#bce6a7"></stop><stop offset="1" stop-color="#b8fc9f"></stop></linearGradient><linearGradient x1="244.18188" y1="147.43992" x2="244.18188" y2="198.02241" gradientUnits="userSpaceOnUse" id="color-4"><stop offset="0" stop-color="#bce6a8"></stop><stop offset="1" stop-color="#b8ff9e"></stop></linearGradient><linearGradient x1="226.21537" y1="159.7545" x2="226.21537" y2="170.54769" gradientUnits="userSpaceOnUse" id="color-5"><stop offset="0" stop-color="#bce6a7"></stop><stop offset="1" stop-color="#b8fc9f"></stop></linearGradient><linearGradient x1="240.80185" y1="146.83524" x2="234.9752" y2="155.92058" gradientUnits="userSpaceOnUse" id="color-6"><stop offset="0" stop-color="#bce6a7"></stop><stop offset="1" stop-color="#b8fc9f"></stop></linearGradient><linearGradient x1="268.51782" y1="158.19492" x2="258.46203" y2="154.34507" gradientUnits="userSpaceOnUse" id="color-7"><stop offset="0" stop-color="#bce6a7"></stop><stop offset="1" stop-color="#b8fc9f"></stop></linearGradient></defs><g transform="translate(-193.64175,-142.99471)"><g data-paper-data="{&quot;isPaintingLayer&quot;:true}" fill-rule="nonzero" stroke="#000000" stroke-width="1.28786" stroke-linejoin="miter" stroke-miterlimit="10" stroke-dasharray="" stroke-dashoffset="0" style="mix-blend-mode: normal"><path d="" fill="none" stroke-linecap="butt"></path><path d="" fill="#00a735" stroke-linecap="butt"></path><path d="" fill="#ccf280" stroke-linecap="butt"></path><path d="" fill="#000000" stroke-linecap="butt"></path><path d="" fill="#000000" stroke-linecap="butt"></path><path d="" fill="#000000" stroke-linecap="round"></path><path d="M226.99415,206.1631c-2.67933,-0.21471 -7.97454,-2.56657 -7.97454,-2.56657c0,0 -0.93965,-13.43904 -2.15606,-20.02227c-1.18373,-6.4064 -5.69016,-18.322 -5.69016,-18.322c0,0 7.188,4.74633 9.42464,6.93181c1.03827,1.01452 3.43801,5.63659 3.43801,5.63659l1.41489,-3.19536l0.77176,5.96466c0,0 3.07759,5.38268 4.19153,7.7378c0.77813,1.64515 1.85391,5.04362 1.85391,5.04362l0.90039,-2.13023l-0.51451,5.96466l2.31527,7.66885c0,0 -5.33859,1.49971 -7.97514,1.28843z" data-paper-data="{&quot;index&quot;:null}" fill="#55b54c" stroke-linecap="round"></path><path d="M223.99017,187.62026l-10.37263,-5.92515l9.36378,-3.63899" fill="url(#color-1)" stroke-linecap="round"></path><path d="M260.64612,157.39318l-6.11748,7.29752l-2.71851,-11.07866" data-paper-data="{&quot;index&quot;:null}" fill="url(#color-2)" stroke-linecap="round"></path><path d="M243.16955,170.94882l9.42324,1.37115l-7.99818,8.13363" data-paper-data="{&quot;index&quot;:null}" fill="url(#color-3)" stroke-linecap="round"></path><path d="M220.18121,185.54641c0,0 2.14067,-17.14392 10.23173,-28.44094c3.1195,-4.35555 8.45347,-7.11654 12.91685,-8.7672c16.04005,-5.93198 24.85276,19.45616 24.85276,19.45616c0,0 -13.39859,-18.09621 -19.45616,-11.64529c-6.05757,6.45091 -2.41428,34.93589 -2.41428,34.93589c0,0 1.36809,6.88985 0.40921,7.5687c-1.77389,1.25585 -10.2083,-0.63131 -10.2083,-0.63131c0,0 -9.30436,1.34382 -11.59888,-0.40899c-2.97213,-2.27043 -4.73293,-12.06702 -4.73293,-12.06702z" fill="url(#color-4)" stroke-linecap="round"></path><path d="M230.37342,201.41629l7.45583,-6.39071l7.02979,4.89954l-5.96466,14.48561z" fill="#55b54c" stroke-linecap="round"></path><path d="M225.36328,170.54769l-3.69241,-10.7932l9.08901,2.84032" fill="url(#color-5)" stroke-linecap="round"></path><path d="M234.25794,155.46058l2.7185,-11.07866l6.11748,7.29753" fill="url(#color-6)" stroke-linecap="round"></path><path d="M258.735,153.58153l11.23861,0.54113l-5.55785,7.13143" fill="url(#color-7)" stroke-linecap="round"></path><path d="M222.68377,192.17411l4.16983,-5.09315l9.88678,6.06171z" fill="#ffffff" stroke-linecap="round"></path><path d="M243.90164,210.95829c0,0 -8.1446,3.75315 -12.41514,4.6877c-4.33983,0.94971 -13.41934,0.9658 -13.41934,0.9658c0,0 -5.00647,-12.5684 -8.66783,-18.39865c-3.56302,-5.67363 -13.875,-15.23108 -13.875,-15.23108c0,0 12.73011,1.47822 16.87602,2.62226c1.92457,0.53108 6.96656,3.957 6.96656,3.957l1.42905,-3.69581l2.78916,5.42508c0,0 6.32411,3.86752 8.7192,5.66014c1.67308,1.25223 4.2792,4.06861 4.2792,4.06861l0.88415,-2.44536l0.7326,5.98052z" fill="#55b54c" stroke-linecap="round"></path><path d="M233.72692,212.97602l3.71633,-7.09653l0.61652,-5.95499l0.48366,2.26157c0,0 1.69577,-3.13549 2.76944,-4.60493c1.53702,-2.10357 5.57207,-6.81135 5.57207,-6.81135l1.87984,-5.71306l0.78865,3.40445c0,0 3.22624,-4.08823 4.43679,-4.88936c2.60779,-1.72581 10.56018,-5.0355 10.56018,-5.0355c0,0 -6.6671,10.85537 -9.03463,16.9248c-2.43289,6.23696 -5.88342,19.25942 -5.88342,19.25942c0,0 -5.64305,1.31396 -8.31494,1.0209c-2.62923,-0.28839 -7.59048,-2.76542 -7.59048,-2.76542z" data-paper-data="{&quot;index&quot;:null}" fill="#55b54c" stroke-linecap="round"></path><path d="M225.88944,178.55873l8.91602,4.64939l-5.22585,2.74222" fill="none" stroke-linecap="round"></path><path d="M243.21476,185.75102l-5.22585,-2.74222l8.91602,-4.64939" data-paper-data="{&quot;index&quot;:null}" fill="none" stroke-linecap="round"></path></g></g></svg>