<svg version="1.1" xmlns="http://www.w3.org/2000/svg" xmlns:xlink="http://www.w3.org/1999/xlink" width="64.79222" height="88.99064" viewBox="0,0,64.79222,88.99064"><g transform="translate(-287.55981,-137.40139)"><g stroke-miterlimit="10"><path d="M288.55231,222.407v-84.81396h62.89539v84.81396z" fill="#515151" stroke="none" stroke-width="0" stroke-linecap="butt"/><g stroke="#000000" stroke-width="1.28786"><path d="M324.04954,183.3982c0,0 2.45091,-9.26203 4.77888,-12.30042c2.5845,-3.37319 10.03911,-7.03951 10.03911,-7.03951c0,0 2.00762,6.65417 -1.38913,12.7468c-3.39675,6.09263 -13.42888,6.59314 -13.42888,6.59314z" fill="#45d1aa" stroke-linecap="butt"/><path d="M322.35059,183.35917c0,0 -10.02112,-0.68636 -13.30437,-6.8409c-3.28325,-6.15454 -1.15265,-12.77035 -1.15265,-12.77035c0,0 7.38538,3.80385 9.90691,7.22437c2.27126,3.08102 4.55009,12.38688 4.55009,12.38688z" fill="#45d1aa" stroke-linecap="butt"/><path d="M316.42918,205.99118c0,0 2.5602,-10.23968 3.02006,-14.91936c0.40862,-4.1582 0.09795,-10.68962 0.09795,-10.68962l3.5866,-2.41161l3.02239,1.32166c0,0 1.30402,7.82923 0.86656,12.28111c-0.43706,4.44775 -3.28834,14.4178 -3.28834,14.4178z" fill="#e3ac21" stroke-linecap="butt"/><path d="M333.87116,163.7449c3.98159,14.2513 -3.78843,21.81255 -11.23741,21.81255c-7.44897,0 -9.34375,-5.67408 -9.34375,-13.39333c0,-3.49711 -2.25285,-13.99738 -2.25285,-13.99738l4.43455,-3.23155c0,0 3.76607,1.34328 8.29453,3.18779c3.23987,1.31964 9.34916,2.91676 10.10494,5.62191z" fill="#45d1aa" stroke-linecap="butt"/><path d="M323.36406,186.81597c0,0 -7.17504,5.16089 -12.34602,1.98472c-5.17098,-3.17619 -6.86145,-9.82347 -6.86145,-9.82347c0,0 6.85644,-1.09646 10.20652,0.27074c3.01758,1.23151 9.00094,7.56802 9.00094,7.56802z" fill="#45d1aa" stroke-linecap="butt"/><path d="M323.07926,186.71923c0,0 5.98335,-6.33653 9.00093,-7.56803c3.35008,-1.3672 10.20652,-0.27073 10.20652,-0.27073c0,0 -1.69046,6.64728 -6.86146,9.82347c-5.17098,3.17619 -12.34602,-1.98472 -12.34602,-1.98472z" fill="#45d1aa" stroke-linecap="butt"/><path d="M320.31993,205.93268c0,0 3.79837,-4.02257 5.71401,-4.80436c2.12671,-0.86794 6.47933,-0.17187 6.47933,-0.17187c0,0 -1.07315,4.21985 -4.35581,6.23616c-3.28266,2.01632 -7.83754,-1.25994 -7.83754,-1.25994z" fill="#45d1aa" stroke-linecap="butt"/><path d="M321.96625,206.0411c0,0 -4.55488,3.27626 -7.83754,1.25994c-3.28266,-2.01632 -4.35581,-6.23616 -4.35581,-6.23616c0,0 4.35261,-0.69606 6.47933,0.17187c1.91563,0.78178 5.71401,4.80436 5.71401,4.80436z" fill="#45d1aa" stroke-linecap="butt"/><path d="M328.58959,168.05779c0,3.05789 -0.7923,5.5368 -1.76964,5.5368c-0.97734,0 -1.76964,-2.47891 -1.76964,-5.5368c0,-3.05789 0.7923,-5.5368 1.76964,-5.5368c0.97734,0 1.76964,2.47891 1.76964,5.5368z" fill="#000000" stroke-linecap="butt"/><path d="M323.00169,168.01201c0,3.05789 -0.7923,5.5368 -1.76964,5.5368c-0.97734,0 -1.76964,-2.47891 -1.76964,-5.5368c0,-3.05789 0.7923,-5.5368 1.76964,-5.5368c0.97734,0 1.76964,2.47891 1.76964,5.5368z" fill="#000000" stroke-linecap="butt"/><path d="M317.46862,178.60187c-1.00963,-0.49806 1.40488,-3.46512 1.40488,-3.46512l7.32747,1.81585c0,0 -3.23174,4.3628 -8.73234,1.64927z" fill="#000000" stroke-linecap="round"/></g><path d="M288.55233,222.38704v-12.81396h62.89539v12.81396z" fill="#969696" stroke="none" stroke-width="0" stroke-linecap="butt"/><path d="M288.50229,222.35704v-84.81396h8.64539v84.81396z" fill="#969696" stroke="none" stroke-width="0" stroke-linecap="butt"/><path d="M344.04987,222.40517v-84.81396h8.14539v84.81396z" fill="#969696" stroke="none" stroke-width="0" stroke-linecap="butt"/><path d="M288.55233,147.90703v-10.31396h62.89539v10.31396z" fill="#969696" stroke="none" stroke-width="0" stroke-linecap="butt"/><path d="M296.29734,211.48044v-21.00188l21.13534,21.00188z" fill="#969696" stroke="none" stroke-width="0" stroke-linecap="butt"/><path d="M303.41181,215.22401v-12.15842h44.05785v12.15842z" fill="#969696" stroke="none" stroke-width="0" stroke-linecap="butt"/><text transform="translate(328.32979,220.14204) scale(0.47116,0.5)" font-size="40" xml:space="preserve" fill="#000000" stroke="none" stroke-width="1" stroke-linecap="butt" font-family="Sans Serif" font-weight="normal" text-anchor="start"><tspan x="0" dy="0">50</tspan></text><g stroke-linecap="butt"><path d="M303.936,213.69349l-2.65375,6.84999l-2.38631,-6.84999z" fill="#ffff00" stroke="#ffff00" stroke-width="1"/><path d="M298.96775,202.31764l2.38632,-6.84999l2.65375,6.84999z" fill="#ffff00" stroke="#ffff00" stroke-width="1"/><path d="M294.78435,208.21684c0,-3.72115 3.01658,-6.73773 6.73773,-6.73773c3.72115,0 6.73772,3.01658 6.73772,6.73773c0,3.72115 -3.01658,6.73772 -6.73772,6.73772c-3.72115,0 -6.73773,-3.01658 -6.73773,-6.73772z" fill="#ffff00" stroke="none" stroke-width="0"/><path d="M307.21236,205.68174l6.87114,2.59848l-6.83054,2.44142z" fill="#ffff00" stroke="#ffff00" stroke-width="1"/><path d="M295.87692,210.74148l-6.86899,-2.33105l6.82838,-2.70885z" fill="#ffff00" stroke="#ffff00" stroke-width="1"/><path d="M307.52794,210.32823l3.04475,6.68537l-6.56714,-3.08051z" fill="#ffff00" stroke="#ffff00" stroke-width="1"/><path d="M295.91926,205.93142l-3.23165,-6.49409l6.75404,2.88922z" fill="#ffff00" stroke="#ffff00" stroke-width="1"/><path d="M304.08737,202.38561l6.66063,-3.0985l-3.02751,6.59174z" fill="#ffff00" stroke="#ffff00" stroke-width="1"/><path d="M299.78422,214.02934l-6.46785,3.28387l2.83472,-6.7771z" fill="#ffff00" stroke="#ffff00" stroke-width="1"/><path d="M296.80059,208.4174c0,-2.70702 2.19448,-4.90151 4.9015,-4.90151c2.70702,0 4.90151,2.19448 4.90151,4.90151c0,2.70702 -2.19448,4.9015 -4.90151,4.9015c-2.70702,0 -4.9015,-2.19448 -4.9015,-4.9015z" fill="#fffff7" stroke="none" stroke-width="0"/></g><path d="M352.35202,137.4014v33.64619l-33.86,-33.64619z" fill="#00e2ff" stroke="none" stroke-width="0" stroke-linecap="butt"/></g></g></svg>