<svg version="1.1" xmlns="http://www.w3.org/2000/svg" xmlns:xlink="http://www.w3.org/1999/xlink" width="80.99719" height="71.5285" viewBox="0,0,80.99719,71.5285"><g transform="translate(-199.49947,-144.23575)"><g data-paper-data="{&quot;isPaintingLayer&quot;:true}" fill-rule="nonzero" stroke="#000000" stroke-width="1.28786" stroke-linejoin="miter" stroke-miterlimit="10" stroke-dasharray="" stroke-dashoffset="0" style="mix-blend-mode: normal"><g data-paper-data="{&quot;index&quot;:null}" fill="#ffff00" stroke-linecap="butt"><path d="M258.73968,172.05829c11.99117,4.39798 20.93644,10.46526 19.97982,13.55163c-0.95662,3.08637 -11.4529,2.0231 -23.44407,-2.37488c-11.99117,-4.39798 -20.93644,-10.46526 -19.97981,-13.55163c0.95662,-3.08637 11.45289,-2.0231 23.44406,2.37488z"></path><path d="M262.14488,179.53088c-4.04301,13.04401 -9.62057,22.77467 -12.45784,21.73405c-2.83726,-1.04062 -1.85981,-12.45846 2.1832,-25.50247c4.043,-13.044 9.62057,-22.77467 12.45782,-21.73405c2.83726,1.04062 1.85983,12.45846 -2.18319,25.50247z"></path><path d="M261.86499,175.02741c5.6202,12.33336 8.00152,23.50418 5.31884,24.95074c-2.68268,1.44658 -9.41351,-7.37891 -15.03371,-19.71226c-5.6202,-12.33336 -8.00152,-23.50418 -5.31884,-24.95074c2.68268,-1.44658 9.41351,7.37891 15.03371,19.71226z"></path><path d="M259.4154,182.93059c-11.33788,6.11366 -21.60708,8.70406 -22.93689,5.78583c-1.32982,-2.91823 6.78333,-10.24002 18.1212,-16.35368c11.33788,-6.11366 21.60708,-8.70406 22.93689,-5.78583c1.32982,2.91823 -6.78333,10.24002 -18.1212,16.35368z"></path><path d="M256.59122,171.76661c12.61705,-1.05711 23.03157,0.71851 23.26151,3.96598c0.22994,3.24747 -9.81179,6.73702 -22.42884,7.79414c-12.61705,1.05711 -23.03157,-0.71851 -23.26151,-3.96598c-0.22994,-3.24747 9.81179,-6.73702 22.42884,-7.79414z"></path><path d="M262.41302,177.19377c0.97179,13.72482 -0.66052,25.05376 -3.64587,25.30389c-2.98535,0.25013 -6.19326,-10.67328 -7.16504,-24.3981c-0.97179,-13.72482 0.66052,-25.05376 3.64587,-25.30389c2.98535,-0.25013 6.19326,10.67328 7.16504,24.3981z"></path><path d="M274.1234,194.21719c-1.99061,2.43303 -11.26735,-3.01348 -20.72017,-12.16512c-9.45282,-9.15165 -15.50213,-18.54289 -13.51152,-20.97593c1.99061,-2.43303 11.26735,3.01347 20.72017,12.16511c9.45282,9.15165 15.50213,18.5429 13.51152,20.97594z" data-paper-data="{&quot;index&quot;:null}"></path><path d="M272.24062,159.02804c2.23666,2.16539 -2.77024,12.25663 -11.18323,22.53942c-8.41298,10.28279 -17.04623,16.86322 -19.28288,14.69782c-2.23666,-2.16539 2.77024,-12.25663 11.18323,-22.53942c8.41298,-10.28279 17.04623,-16.86323 19.28288,-14.69784z" data-paper-data="{&quot;index&quot;:null}"></path></g><path d="M231.5204,209.25291l19.66698,-21.79951l5.40032,5.19939l-16.45915,18.70712z" data-paper-data="{&quot;index&quot;:null}" fill="#00ff50" stroke-linecap="butt"></path><path d="M242.64038,173.40921c2.15928,-6.9665 10.24624,-10.28992 18.06274,-7.42308c7.8165,2.86684 12.40258,10.83835 10.2433,17.80485c-2.15928,6.9665 -10.24623,10.28992 -18.06272,7.42307c-7.8165,-2.86684 -12.40258,-10.83834 -10.2433,-17.80484z" data-paper-data="{&quot;index&quot;:null}" fill="#a90000" stroke-linecap="butt"></path><path d="M261.07717,182.53435c-0.69579,0.2552 -2.07151,-2.15667 -3.07275,-5.38702c-1.00126,-3.23036 -1.24888,-6.05596 -0.5531,-6.31114c0.69579,-0.2552 2.07151,2.15667 3.07275,5.38702c1.00126,3.23036 1.24888,6.05597 0.5531,6.31115z" data-paper-data="{&quot;index&quot;:null}" fill="#000000" stroke-linecap="butt"></path><path d="M255.07473,183.44757c-0.4514,0.16557 -1.62068,-2.29201 -2.61163,-5.48914c-0.99095,-3.19713 -1.42835,-5.92312 -0.97694,-6.08869c0.4514,-0.16557 1.62068,2.29201 2.61163,5.48914c0.99095,3.19713 1.42835,5.92312 0.97694,6.08869z" data-paper-data="{&quot;index&quot;:null}" fill="#000000" stroke-linecap="butt"></path><path d="M260.14514,186.402c0,0 -2.51932,1.39235 -7.99607,-0.51012c-1.87619,-0.65174 -2.60345,-6.21828 -2.60345,-6.21828" data-paper-data="{&quot;index&quot;:null}" fill="none" stroke-linecap="round"></path><g fill="#ffff00" stroke-linecap="butt"><path d="M245.96908,169.80428c0,3.25708 -10.25843,5.89748 -22.91284,5.89748c-12.6544,0 -22.91284,-2.64039 -22.91284,-5.89748c0,-3.25708 10.25843,-5.89748 22.91284,-5.89748c12.6544,0 22.91284,2.64039 22.91284,5.89748z"></path><path d="M223.05625,144.87968c2.9942,0 5.42146,11.15913 5.42146,24.9246c0,13.76548 -2.42728,24.9246 -5.42146,24.9246c-2.9942,0 -5.42146,-11.15912 -5.42146,-24.9246c0,-13.76548 2.42728,-24.9246 5.42146,-24.9246z"></path><path d="M239.25808,152.17992c2.11722,2.3031 -3.42025,12.06083 -12.36826,21.7945c-8.94801,9.73366 -17.91818,15.75732 -20.03538,13.4542c-2.11722,-2.3031 3.42025,-12.06083 12.36826,-21.7945c8.94801,-9.73366 17.91818,-15.75732 20.03538,-13.4542z"></path><path d="M206.85443,152.17992c2.11722,-2.3031 11.08735,3.72054 20.03538,13.4542c8.94801,9.73366 14.48549,19.4914 12.36826,21.7945c-2.11722,2.3031 -11.08735,-3.72054 -20.03538,-13.4542c-8.94801,-9.73366 -14.48549,-19.4914 -12.36826,-21.7945z"></path><path d="M244.14189,179.55777c-1.17169,2.99735 -11.56189,1.06039 -23.20717,-4.32632c-11.64528,-5.3867 -20.1358,-12.18333 -18.96411,-15.18068c1.17169,-2.99735 11.56189,-1.06039 23.20717,4.32632c11.64528,5.3867 20.1358,12.18333 18.96411,15.18068z"></path><path d="M232.02251,146.86729c2.75542,1.27456 0.9748,12.57703 -3.97712,25.24478c-4.95193,12.66775 -11.19997,21.90374 -13.95539,20.62918c-2.75542,-1.27456 -0.9748,-12.57703 3.97712,-25.24478c4.95193,-12.66775 11.19997,-21.90374 13.95539,-20.62918z"></path><path d="M220.93473,164.37709c11.64528,-5.3867 22.03549,-7.32367 23.20717,-4.32632c1.17169,2.99735 -7.31883,9.79397 -18.96411,15.18068c-11.64528,5.3867 -22.03549,7.32367 -23.20717,4.32632c-1.17169,-2.99735 7.31883,-9.79397 18.96411,-15.18068z" data-paper-data="{&quot;index&quot;:null}"></path><path d="M228.04538,167.49648c4.95193,12.66775 6.73254,23.97021 3.97712,25.24478c-2.75542,1.27456 -9.00346,-7.96143 -13.95539,-20.62918c-4.95193,-12.66775 -6.73254,-23.97021 -3.97712,-25.24478c2.75542,-1.27456 9.00346,7.96143 13.95539,20.62918z" data-paper-data="{&quot;index&quot;:null}"></path></g><path d="M228.94535,209.68647l-9.89864,-25.51666l6.64437,-3.05003l12.23354,27.49214z" fill="#00ff50" stroke-linecap="butt"></path><path d="M226.29416,215.12032c-5.01449,0 -9.07952,-2.31192 -9.07952,-5.16381c0,-2.85189 4.06505,-5.16381 9.07952,-5.16381c5.01449,0 9.07952,2.31192 9.07952,5.16381c0,2.85189 -4.06505,5.16381 -9.07952,5.16381z" fill="#00ff50" stroke-linecap="butt"></path><path d="M256.2955,209.51208c0,2.9415 -4.43671,5.32607 -9.90966,5.32607c-5.47295,0 -9.90966,-2.38457 -9.90966,-5.32607c0,-2.9415 4.43671,-5.32606 9.90966,-5.32606c5.47295,0 9.90966,2.38456 9.90966,5.32606z" fill="#00ff50" stroke-linecap="butt"></path><path d="M222.97917,184.09381c-8.24884,0 -14.93583,-5.95982 -14.93583,-13.31164c0,-7.35182 6.68699,-13.31165 14.93583,-13.31165c8.24884,0 14.93583,5.95983 14.93583,13.31165c0,7.35182 -6.68699,13.31164 -14.93583,13.31164z" fill="#a90000" stroke-linecap="butt"></path><path d="M225.1954,176.93815c-0.73427,0 -1.3295,-2.76357 -1.3295,-6.1726c0,-3.40904 0.59524,-6.1726 1.3295,-6.1726c0.73427,0 1.3295,2.76357 1.3295,6.1726c0,3.40904 -0.59524,6.1726 -1.3295,6.1726z" fill="#000000" stroke-linecap="butt"></path><path d="M229.79977,177.44631c-0.47637,0 -0.86255,-2.73514 -0.86255,-6.1091c0,-3.37396 0.38618,-6.1091 0.86255,-6.1091c0.47637,0 0.86255,2.73514 0.86255,6.1091c0,3.37396 -0.38618,6.1091 -0.86255,6.1091z" fill="#000000" stroke-linecap="butt"></path><path d="M223.68399,180.4654c0,0 -2.79622,0.44378 -7.42716,-3.26238c-1.58644,-1.26964 -0.64065,-6.79719 -0.64065,-6.79719" fill="none" stroke-linecap="round"></path></g></g></svg>