<svg version="1.1" xmlns="http://www.w3.org/2000/svg" xmlns:xlink="http://www.w3.org/1999/xlink" width="19.83333" height="40.30142" viewBox="0,0,19.83333,40.30142"><g transform="translate(-292.16792,-160.17617)"><g stroke="#000000" stroke-width="0.5" stroke-miterlimit="10"><path d="M299.8975,187.0744l5.81168,-3.58946l2.6736,3.11805l-4.47834,4.47834z" fill="#a7a7a7" stroke-linecap="butt"/><path d="M300.37585,191.1369l-4.47834,-4.47834l2.67361,-3.11805l5.81168,3.58945z" fill="#a7a7a7" stroke-linecap="butt"/><path d="M300.52903,200.22759v-4.11111h3.11111v4.11111z" fill="#a7a7a7" stroke-linecap="butt"/><path d="M297.90209,185.17206v-24.74589h8.13158v24.74589z" fill="#0b8100" stroke-linecap="butt"/><path d="M297.91373,185.16958v-7.8029h8.20606v7.8029z" fill="#444444" stroke-linecap="butt"/><path d="M301.43383,167.91587c0,2.46086 -0.62987,4.45579 -1.40685,4.45579c-0.77698,0 -1.40685,-1.99492 -1.40685,-4.45579c0,-2.46086 0.62987,-4.45579 1.40685,-4.45579c0.77698,0 1.40685,1.99492 1.40685,4.45579z" fill="#000000" stroke-linecap="butt"/><path d="M292.41792,186.67203v-4.05556h19.33333v4.05556z" fill="#ff0000" stroke-linecap="butt"/><path d="M299.58459,197.3387v-15.33333h4.88889v15.33333z" fill="#ff0000" stroke-linecap="butt"/><path d="M304.58459,171.17205l-1.11111,-0.05556l-1.5,2.44444l-3.88889,-0.05556" fill="none" stroke-linecap="round"/></g></g></svg>