<svg version="1.1" xmlns="http://www.w3.org/2000/svg" xmlns:xlink="http://www.w3.org/1999/xlink" width="180.32727" height="182.16247" viewBox="0,0,180.32727,182.16247"><defs><radialGradient cx="240" cy="180" r="80.75" gradientUnits="userSpaceOnUse" id="color-1"><stop offset="0" stop-color="#ffd206"></stop><stop offset="1" stop-color="#ffd206" stop-opacity="0"></stop></radialGradient></defs><g transform="translate(-153.7475,-94.9975)"><g data-paper-data="{&quot;isPaintingLayer&quot;:true}" fill-rule="nonzero" stroke-linejoin="miter" stroke-miterlimit="10" stroke-dasharray="" stroke-dashoffset="0" style="mix-blend-mode: normal"><path d="M159.25,260.75v-161.5h161.5v161.5z" fill="url(#color-1)" stroke="none" stroke-width="0" stroke-linecap="butt"></path><g fill="none" stroke="#000000" stroke-width="0.005" stroke-linecap="round"><path d="M294.25,217.5h30"></path><path d="M295.25,173.5h27"></path><path d="M294.75,144h29"></path><path d="M295.75,197h32.5"></path><path d="M290.25,154.5h32.5"></path><path d="M330.25,95v172.5"></path><g><path d="M160.75,109.5h154"></path><path d="M168.75,252.5h150.5"></path><path d="M159.25,142h27"></path><path d="M159.25,163.5h24.5"></path><path d="M158.75,184h27.5"></path><path d="M185.75,204.5h-22.5"></path><path d="M178.25,222.5h-14"></path><path d="M164.25,237.5h167"></path><path d="M163.25,119.5h155.5"></path><path d="M154.75,98h170"></path><path d="M328.25,261.5h-166.5"></path><path d="M158.25,126.5h164.5"></path><path d="M329.25,228h-175.5"></path><path d="M154.75,135h32"></path></g></g><path d="M234.44882,211.1613v-18.97812h10.68516v18.97812z" fill="#7a5654" stroke="#000000" stroke-width="1.28786" stroke-linecap="butt"></path><path d="M241.62541,193.27175l-0.63792,-24.40043l14.83164,-7.49556l-4.46543,24.08148z" fill="#ffd206" stroke="#000000" stroke-width="1.28786" stroke-linecap="butt"></path><path d="M228.12574,186.15127l-5.58179,-21.68928l15.31007,4.94388l0.7974,24.08147z" data-paper-data="{&quot;index&quot;:null}" fill="#ffd206" stroke="#000000" stroke-width="1.28786" stroke-linecap="butt"></path><path d="M238.11684,194.86655v-26.95211h3.1896v26.95211z" fill="#7a5654" stroke="#000000" stroke-width="1.28786" stroke-linecap="butt"></path><path d="M226.02477,187.82695l-7.02949,-25.36585l2.02883,0.53194l7.50794,24.88741z" fill="#7a5654" stroke="#000000" stroke-width="1.28786" stroke-linecap="butt"></path><path d="M251.15721,187.35035l5.06223,-25.49757l2.14113,0.1343l-5.3812,25.17861z" data-paper-data="{&quot;index&quot;:null}" fill="#7a5654" stroke="#000000" stroke-width="1.28786" stroke-linecap="butt"></path><path d="M238.91425,170.94456l-19.93499,-7.65504l19.45655,-11.1636l20.57291,10.04724z" fill="#7a5654" stroke="#000000" stroke-width="1.28786" stroke-linecap="butt"></path><path d="M240.62076,196.34633l-1.58929,-2.94796l13.91758,-8.83024l1.74876,2.46953z" data-paper-data="{&quot;index&quot;:null}" fill="#7a5654" stroke="#000000" stroke-width="1.28786" stroke-linecap="butt"></path><path d="M220.65243,163.71581c0,2.37812 -2.64421,1.5948 -6.29946,1.5948c-3.65525,0 -5.66153,1.91376 -5.66153,1.91376c0,0 1.68733,-7.81452 5.34258,-7.81452c3.65525,0 6.61842,1.92784 6.61842,4.30596z" fill="#60af6e" stroke="#000000" stroke-width="1.28786" stroke-linecap="butt"></path><path d="M246.93515,179.52442c0,2.33408 -0.92822,4.22622 -2.07324,4.22622c-1.14502,0 -2.07324,-1.89214 -2.07324,-4.22622c0,-2.33408 0.92822,-4.22621 2.07324,-4.22621c1.14502,0 2.07324,1.89214 2.07324,4.22621z" fill="#fe942e" stroke="#000000" stroke-width="1.28786" stroke-linecap="butt"></path><path d="M252.9954,176.33482c0,2.246 -0.82112,4.06674 -1.83402,4.06674c-1.0129,0 -1.83401,-1.82074 -1.83401,-4.06674c0,-2.246 0.82111,-4.06673 1.83401,-4.06673c1.0129,0 1.83402,1.82073 1.83402,4.06673z" fill="#fe942e" stroke="#000000" stroke-width="1.28786" stroke-linecap="butt"></path><path d="M222.25974,161.95163c1.45185,1.8835 -1.1206,2.87741 -4.0156,5.10897c-2.895,2.23155 -3.31563,4.97213 -3.31563,4.97213c0,0 -3.43445,-7.21931 -0.53945,-9.45087c2.895,-2.23155 6.41882,-2.51372 7.87068,-0.63022z" fill="#60af6e" stroke="#000000" stroke-width="1.28786" stroke-linecap="butt"></path><path d="M223.43153,163.0977c-1.67679,1.68636 -2.99954,-0.73351 -5.59154,-3.3108c-2.592,-2.57728 -5.36406,-2.63481 -5.36406,-2.63481c0,0 6.70645,-4.3517 9.29845,-1.77442c2.592,2.57728 3.33394,6.03366 1.65715,7.72002z" fill="#60af6e" stroke="#000000" stroke-width="1.28786" stroke-linecap="butt"></path><path d="M265.96603,158.83676c3.65525,0 5.34257,7.81452 5.34257,7.81452c0,0 -2.00628,-1.91376 -5.66153,-1.91376c-3.65525,0 -6.29946,0.78332 -6.29946,-1.5948c0,-2.37812 2.96317,-4.30596 6.61842,-4.30596z" data-paper-data="{&quot;index&quot;:null}" fill="#60af6e" stroke="#000000" stroke-width="1.28786" stroke-linecap="butt"></path><path d="M265.61097,162.00876c2.895,2.23156 -0.53945,9.45086 -0.53945,9.45086c0,0 -0.42063,-2.74057 -3.31563,-4.97212c-2.895,-2.23156 -5.46746,-3.22547 -4.0156,-5.10897c1.45186,-1.8835 4.97568,-1.60133 7.87068,0.63022z" data-paper-data="{&quot;index&quot;:null}" fill="#60af6e" stroke="#000000" stroke-width="1.28786" stroke-linecap="butt"></path><path d="M258.22566,154.80459c2.592,-2.57728 9.29846,1.77442 9.29846,1.77442c0,0 -2.77207,0.05752 -5.36407,2.63481c-2.592,2.57728 -3.91474,4.99716 -5.59153,3.3108c-1.67679,-1.68636 -0.93486,-5.14274 1.65714,-7.72002z" data-paper-data="{&quot;index&quot;:null}" fill="#60af6e" stroke="#000000" stroke-width="1.28786" stroke-linecap="butt"></path><g data-paper-data="{&quot;index&quot;:null}" fill="#60af6e" stroke="#000000" stroke-width="1.28786" stroke-linecap="butt"><path d="M239.3118,171.09442c1.14563,2.08398 -1.54887,2.67137 -4.75202,4.43225c-3.20315,1.76089 -4.03934,4.40444 -4.03934,4.40444c0,0 -2.28595,-7.66082 0.9172,-9.42171c3.20315,-1.76089 6.72853,-1.49896 7.87417,0.58501z" data-paper-data="{&quot;index&quot;:null}"></path><path d="M239.87045,168.77413c2.17963,0.95111 0.40417,3.06135 -1.05773,6.41153c-1.46189,3.35018 -0.51026,5.95442 -0.51026,5.95442c0,0 -6.48748,-4.67187 -5.02559,-8.02205c1.46189,-3.35018 4.41395,-5.29501 6.59358,-4.3439z" data-paper-data="{&quot;index&quot;:null}"></path><path d="M241.44938,169.21396c-0.657,2.28556 -2.98189,0.80221 -6.49488,-0.20762c-3.51299,-1.00984 -5.9699,0.27517 -5.9699,0.27517c0,0 3.78056,-7.04423 7.29355,-6.03439c3.51299,1.00984 5.82823,3.68128 5.17123,5.96684z" data-paper-data="{&quot;index&quot;:null}"></path></g><path d="M244.0579,153.46701c0,2.55614 -2.17938,4.6283 -4.86777,4.6283c-2.68839,0 -4.86777,-2.07216 -4.86777,-4.6283c0,-2.55614 2.17938,-4.62831 4.86777,-4.62831c2.68839,0 4.86777,2.07217 4.86777,4.62831z" fill="#7a5654" stroke="#000000" stroke-width="1.28786" stroke-linecap="butt"></path><path d="M223.02735,187.3005l1.58929,-2.94797l15.45296,8.70411l0.22441,3.55253z" fill="#7a5654" stroke="#000000" stroke-width="1.28786" stroke-linecap="butt"></path><path d="M194.03252,218.96503l98.54277,10.94858" fill="none" stroke="#000000" stroke-width="0.005" stroke-linecap="round"></path><path d="M334.07227,174.12088l-148.43913,18.69755l6.49952,-74.19033" fill="none" stroke="#000000" stroke-width="0.005" stroke-linecap="round"></path><path d="M203.93179,235.46289l-23.79826,-49.34358" fill="none" stroke="#000000" stroke-width="0.005" stroke-linecap="round"></path><path d="M253.97812,242.06204l44.29675,-69.49096" fill="none" stroke="#000000" stroke-width="0.005" stroke-linecap="round"></path><path d="M294.32517,141.32515l-53.04611,-29.09621" fill="none" stroke="#000000" stroke-width="0.005" stroke-linecap="round"></path><path d="M208.38147,133.37617l-13.89899,78.53978l3.74973,-83.73909" fill="none" stroke="#000000" stroke-width="0.005" stroke-linecap="round"></path><path d="M180.5835,212.61588l15.64885,-11.04857l135.29012,-17.54771" fill="none" stroke="#000000" stroke-width="0.005" stroke-linecap="round"></path><path d="M302.92453,214.51562l-114.49161,-74.5903" fill="none" stroke="#000000" stroke-width="0.005" stroke-linecap="round"></path><path d="M304.27445,153.72353l-8.99936,56.24269" fill="none" stroke="#000000" stroke-width="0.005" stroke-linecap="round"></path><path d="M284.72586,109.87924l-96.49292,89.88829" fill="none" stroke="#000000" stroke-width="0.005" stroke-linecap="round"></path><path d="M203.88179,215.96543l-23.1483,-50.29345" fill="none" stroke="#000000" stroke-width="0.005" stroke-linecap="round"></path><path d="M242.77893,226.61405l-17.19873,-9.54877" fill="none" stroke="#000000" stroke-width="0.005" stroke-linecap="round"></path><path d="M268.67707,234.26303l-17.14878,-23.19696" fill="none" stroke="#000000" stroke-width="0.005" stroke-linecap="round"></path><path d="M289.37552,197.91777l16.49881,-7.34903" fill="none" stroke="#000000" stroke-width="0.005" stroke-linecap="round"></path><path d="M285.32584,198.91766l-89.34346,-4.39943l7.94942,-79.18969l91.2933,11.59848l-5.09961,99.68703" fill="none" stroke="#000000" stroke-width="0.005" stroke-linecap="round"></path><path d="M195.08245,127.9269l91.74327,65.09152" fill="none" stroke="#000000" stroke-width="0.005" stroke-linecap="round"></path><path d="M183.98325,117.37827l13.89899,103.93647" fill="none" stroke="#000000" stroke-width="0.005" stroke-linecap="round"></path><path d="M251.52829,225.11423l-42.94684,-30.84598" fill="none" stroke="#000000" stroke-width="0.005" stroke-linecap="round"></path><path d="M264.67734,224.41434l31.94766,-65.84143" fill="none" stroke="#000000" stroke-width="0.005" stroke-linecap="round"></path><path d="M290.67545,161.02259l-68.79498,-22.84704" fill="none" stroke="#000000" stroke-width="0.005" stroke-linecap="round"></path><path d="M203.68181,147.1744l2.99978,63.64171" fill="none" stroke="#000000" stroke-width="0.005" stroke-linecap="round"></path><path d="M274.12665,215.21552l-50.74628,-2.79962" fill="none" stroke="#000000" stroke-width="0.005" stroke-linecap="round"></path><path d="M311.67389,111.07909l15.49887,124.48378" fill="none" stroke="#000000" stroke-width="0.005" stroke-linecap="round"></path><path d="M296.42502,242.06204l-3.89972,-113.13528" fill="none" stroke="#000000" stroke-width="0.005" stroke-linecap="round"></path><path d="M294.57516,149.52408l-1.6499,111.3855" fill="none" stroke="#000000" stroke-width="0.005" stroke-linecap="round"></path><path d="M294.67514,131.67641l3.94971,112.93529" fill="none" stroke="#000000" stroke-width="0.005" stroke-linecap="round"></path><path d="M281.67609,123.07753l11.19919,154.07994" fill="none" stroke="#000000" stroke-width="0.005" stroke-linecap="round"></path><path d="M270.67691,123.47748l4.29968,135.88229" fill="none" stroke="#000000" stroke-width="0.005" stroke-linecap="round"></path><path d="M263.9274,120.57785l-7.84943,153.33002" fill="none" stroke="#000000" stroke-width="0.005" stroke-linecap="round"></path><path d="M234.57956,254.01047l4.04968,-129.68311" fill="none" stroke="#000000" stroke-width="0.005" stroke-linecap="round"></path><path d="M231.82974,131.92638l-4.0997,125.08369" fill="none" stroke="#000000" stroke-width="0.005" stroke-linecap="round"></path><path d="M213.03113,125.17725l-8.79936,126.8335" fill="none" stroke="#000000" stroke-width="0.005" stroke-linecap="round"></path><path d="M207.28154,123.37749l-19.79855,134.13252" fill="none" stroke="#000000" stroke-width="0.005" stroke-linecap="round"></path><path d="M179.0836,240.36224l-4.14969,-106.48613l10.8492,116.93477" fill="none" stroke="#000000" stroke-width="0.005" stroke-linecap="round"></path><path d="M176.23381,136.22581l93.14317,1.69977" fill="none" stroke="#000000" stroke-width="0.005" stroke-linecap="round"></path><path d="M320.67325,125.72717l-117.34142,-2.39969" fill="none" stroke="#000000" stroke-width="0.005" stroke-linecap="round"></path><path d="M187.53299,163.9722l114.59161,-14.84807" fill="none" stroke="#000000" stroke-width="0.005" stroke-linecap="round"></path><path d="M180.53351,170.1214l148.03915,-13.29826" fill="none" stroke="#000000" stroke-width="0.005" stroke-linecap="round"></path><path d="M310.02401,212.91583l-112.54176,19.19748" fill="none" stroke="#000000" stroke-width="0.005" stroke-linecap="round"></path><path d="M240.92908,241.66208l89.54346,-17.5477" fill="none" stroke="#000000" stroke-width="0.005" stroke-linecap="round"></path></g></g></svg>