<svg version="1.1" xmlns="http://www.w3.org/2000/svg" xmlns:xlink="http://www.w3.org/1999/xlink" width="46.04348" height="56.81417" viewBox="0,0,46.04348,56.81417"><defs><linearGradient x1="320.08832" y1="164.41924" x2="320.08832" y2="202.20265" gradientUnits="userSpaceOnUse" id="color-1"><stop offset="0" stop-color="#ef3cff"/><stop offset="1" stop-color="#da90ff"/></linearGradient><radialGradient cx="320.54354" cy="154.55611" r="17.9054" gradientUnits="userSpaceOnUse" id="color-2"><stop offset="0" stop-color="#69ff6c"/><stop offset="1" stop-color="#00ff05"/></radialGradient></defs><g transform="translate(-296.97826,-151.56019)"><g stroke-miterlimit="10"><path d="M319.4644,206.35999c-1.90949,-1.87985 -2.31798,-7.53074 -2.31798,-7.53074l4.95003,-2.16307c0,0 -0.09835,4.08462 0.58528,5.93228c0.68137,1.84155 3.50978,5.13548 3.50978,5.13548c0,0 -4.81763,0.50589 -6.72712,-1.37396z" fill="#f2ffd0" stroke="#000000" stroke-width="1.28786" stroke-linecap="butt" stroke-linejoin="miter"/><path d="M301.19662,183.31094c0,-10.43359 8.45811,-18.8917 18.8917,-18.8917c10.43359,0 18.89169,8.45811 18.89169,18.8917c0,10.43359 -8.45811,18.8917 -18.89169,18.8917c-10.43359,0 -18.8917,-8.45811 -18.8917,-18.8917z" fill="url(#color-1)" stroke="#000000" stroke-width="1.28786" stroke-linecap="butt" stroke-linejoin="miter"/><path d="M301.94202,174.10885c-1.93748,-1.93748 -1.20894,-5.80734 1.62728,-8.64355c2.83621,-2.83621 6.70606,-3.56477 8.64355,-1.62729c1.93748,1.93748 1.20892,5.80734 -1.62729,8.64355c-2.83621,2.83621 -6.70605,3.56477 -8.64354,1.62729z" fill="#f2ffd0" stroke="#000000" stroke-width="1.28786" stroke-linecap="butt" stroke-linejoin="miter"/><path d="M330.7875,173.29087c-2.70392,-2.70392 -3.3985,-6.39328 -1.55139,-8.2404c1.84712,-1.84712 5.53648,-1.15255 8.24041,1.55139c2.70392,2.70392 3.39851,6.39329 1.5514,8.24041c-1.84712,1.84712 -5.53649,1.15254 -8.24041,-1.5514z" fill="#f2ffd0" stroke="#000000" stroke-width="1.28786" stroke-linecap="butt" stroke-linejoin="miter"/><path d="M322.51616,195.60193c0,0 -0.06366,2.34937 -2.82453,2.29113c-3.10103,-0.06542 -2.48638,-2.67049 -2.48638,-2.67049" fill="none" stroke="#000000" stroke-width="1.28786" stroke-linecap="round" stroke-linejoin="miter"/><path d="M310.64987,185.75577l6.31813,5.8462l-4.03788,-0.89482" fill="none" stroke="#000000" stroke-width="1.28786" stroke-linecap="round" stroke-linejoin="miter"/><path d="M312.10495,166.16434c1.22317,-0.58118 3.3908,-0.95725 4.54618,-2.5449c1.2491,-1.71644 -0.25062,-4.48423 3.07202,-4.629c4.65476,-0.2028 2.54605,3.37417 4.34394,5.22726c1.42861,1.47248 3.85017,1.42421 4.98145,1.96477c6.22334,2.97363 10.49573,9.11413 10.49573,16.20668c0,6.65576 -5.31295,-7.01919 -11.07672,-9.22335c-10.61544,-4.05951 -15.16929,5.51242 -20.81726,5.75788c-11.79758,0.5127 -1.78931,-9.79257 4.45466,-12.75932z" fill="#f2ffd0" stroke="#000000" stroke-width="1.28786" stroke-linecap="butt" stroke-linejoin="bevel"/><path d="M338.37306,158.15994c0,3.28931 -8.01652,5.95582 -17.90538,5.95582c-9.88887,0 -17.9054,-2.66652 -17.9054,-5.95582c0,-3.28931 8.01653,-5.95582 17.9054,-5.95582c9.88887,0 17.90538,2.66652 17.90538,5.95582z" fill="url(#color-2)" stroke="#000000" stroke-width="1.28786" stroke-linecap="butt" stroke-linejoin="miter"/><path d="M300.67639,201.58111c-3.19438,-3.19438 -4.01494,-7.55294 -1.83279,-9.7351c2.18216,-2.18216 6.5407,-1.36159 9.73509,1.83279c3.19438,3.19438 4.01494,7.55294 1.83279,9.7351c-2.18216,2.18216 -6.5407,1.36159 -9.73509,-1.83279z" fill="#f2ffd0" stroke="#000000" stroke-width="1.28786" stroke-linecap="butt" stroke-linejoin="miter"/><path d="M302.03201,200.40623c-1.94658,-1.94658 -2.44661,-4.60256 -1.11685,-5.93232c1.32976,-1.32976 3.98575,-0.82972 5.93232,1.11684c1.94658,1.94658 2.44661,4.60256 1.11685,5.93233c-1.32976,1.32976 -3.98575,0.82972 -5.93232,-1.11685z" fill="#000000" stroke="#000000" stroke-width="1.28786" stroke-linecap="butt" stroke-linejoin="miter"/><path d="M330.26477,202.51001c-2.06677,-2.06677 -1.28961,-6.19487 1.73588,-9.22033c3.02548,-3.02546 7.15356,-3.80264 9.22033,-1.73588c2.06677,2.06677 1.2896,6.19486 -1.73588,9.22033c-3.02548,3.02546 -7.15355,3.80265 -9.22033,1.73588z" fill="#f2ffd0" stroke="#000000" stroke-width="1.28786" stroke-linecap="butt" stroke-linejoin="miter"/><path d="M332.58253,200.7192c-1.25944,-1.25944 -0.78585,-3.77499 1.05779,-5.61863c1.84364,-1.84364 4.3592,-2.31723 5.61864,-1.05779c1.25944,1.25944 0.78585,3.77499 -1.05779,5.61863c-1.84364,1.84364 -4.3592,2.31723 -5.61864,1.05779z" fill="#000000" stroke="#000000" stroke-width="1.28786" stroke-linecap="butt" stroke-linejoin="miter"/><path d="M317.20525,157.85644c0,-1.36181 1.42666,-2.46578 3.18655,-2.46578c1.75989,0 3.18655,1.10397 3.18655,2.46578c0,1.36181 -1.42666,2.46578 -3.18655,2.46578c-1.75989,0 -3.18655,-1.10397 -3.18655,-2.46578z" fill="#8dff8f" stroke="none" stroke-width="0" stroke-linecap="butt" stroke-linejoin="miter"/><path d="M327.97398,190.35903l-4.03788,0.89482l6.31813,-5.84619" fill="none" stroke="#000000" stroke-width="1.28786" stroke-linecap="round" stroke-linejoin="miter"/></g></g></svg>