<svg version="1.1" xmlns="http://www.w3.org/2000/svg" xmlns:xlink="http://www.w3.org/1999/xlink" width="33.84099" height="33.84099" viewBox="0,0,33.84099,33.84099"><g transform="translate(-443.80023,-12.92935)"><g data-paper-data="{&quot;isPaintingLayer&quot;:true}" fill-rule="nonzero" stroke-linejoin="miter" stroke-miterlimit="10" stroke-dasharray="" stroke-dashoffset="0" style="mix-blend-mode: normal"><g><path d="M444.30023,29.84985c0,-9.06879 7.3517,-16.4205 16.4205,-16.4205c9.06879,0 16.4205,7.3517 16.4205,16.4205c0,9.06879 -7.3517,16.4205 -16.4205,16.4205c-9.06879,0 -16.4205,-7.3517 -16.4205,-16.4205z" fill="#7b7b7b" stroke="#000000" stroke-width="1" stroke-linecap="butt"></path><g fill="#2c2c2c" stroke="#5d5d5d" stroke-width="2" stroke-linecap="round"><path d="M449.28681,41.28376l22.53995,-22.53995" data-paper-data="{&quot;index&quot;:null}"></path><path d="M472.15463,40.9559l-22.53995,-22.53995" data-paper-data="{&quot;index&quot;:null}"></path></g><path d="M444.30023,29.84985c0,-9.06879 7.3517,-16.4205 16.4205,-16.4205c9.06879,0 16.4205,7.3517 16.4205,16.4205c0,9.06879 -7.3517,16.4205 -16.4205,16.4205c-9.06879,0 -16.4205,-7.3517 -16.4205,-16.4205z" fill="none" stroke="#000000" stroke-width="1" stroke-linecap="butt"></path></g></g></g></svg>