<svg version="1.1" xmlns="http://www.w3.org/2000/svg" xmlns:xlink="http://www.w3.org/1999/xlink" width="25.4825" height="21.90321" viewBox="0,0,25.4825,21.90321"><defs><linearGradient x1="320.99085" y1="174.45295" x2="318.74249" y2="185.54705" gradientUnits="userSpaceOnUse" id="color-1"><stop offset="0" stop-color="#fade53"/><stop offset="1" stop-color="#faf1c6"/></linearGradient><linearGradient x1="320.99085" y1="174.45295" x2="318.74249" y2="185.54705" gradientUnits="userSpaceOnUse" id="color-2"><stop offset="0" stop-color="#fade53"/><stop offset="1" stop-color="#faf1c6"/></linearGradient></defs><g transform="translate(-306.16477,-168.70838)"><g stroke-miterlimit="10"><path d="M317.5946,178.23417c1.7126,-1.74925 2.25208,-4.01309 2.25208,-4.01309c0,0 0.60465,1.84481 2.43363,3.73841c1.89071,1.77998 3.3653,2.02053 3.3653,2.02053c0,0 -1.48767,0.52864 -3.35811,2.25005c-1.81571,1.77683 -2.40083,3.54887 -2.40083,3.54887c0,0 -0.56313,-1.7443 -2.17918,-3.37423c-1.8591,-1.94897 -3.15307,-2.18471 -3.15307,-2.18471c0,0 1.07486,-0.19483 3.04019,-1.98583z" fill="url(#color-1)" stroke="#ffffff" stroke-width="3"/><path d="M317.5946,178.23417c1.7126,-1.74925 2.25208,-4.01309 2.25208,-4.01309c0,0 0.60465,1.84481 2.43363,3.73841c1.89071,1.77998 3.3653,2.02053 3.3653,2.02053c0,0 -1.48767,0.52864 -3.35811,2.25005c-1.81571,1.77683 -2.40083,3.54887 -2.40083,3.54887c0,0 -0.56313,-1.7443 -2.17918,-3.37423c-1.8591,-1.94897 -3.35307,-2.18471 -3.35307,-2.18471c0,0 1.27486,-0.19483 3.24019,-1.98583z" fill="url(#color-2)" stroke="#000000" stroke-width="1.5"/></g></g></svg>