<svg version="1.1" xmlns="http://www.w3.org/2000/svg" xmlns:xlink="http://www.w3.org/1999/xlink" width="45.66304" height="59.3383" viewBox="0,0,45.66304,59.3383"><g transform="translate(-216.85742,-157.16909)"><g data-paper-data="{&quot;isPaintingLayer&quot;:true}" fill-rule="nonzero" stroke-width="1.28786" stroke-linejoin="miter" stroke-miterlimit="10" stroke-dasharray="" stroke-dashoffset="0" style="mix-blend-mode: normal"><path d="M227.95855,170.09327l-4.51961,-7.31045l8.58987,2.07353l-0.07516,-4.69935l2.9281,3.27451l2.13562,-4.15849l0.7549,5.41013" fill="#f7006f" stroke="#000000" stroke-linecap="round"></path><path d="M225.7914,202.19948c-5.07416,-1.50526 -8.48727,-5.08626 -7.62339,-7.99839c0.86389,-2.91213 5.67764,-4.05263 10.7518,-2.54737c5.07416,1.50526 8.48727,5.08626 7.62339,7.99839c-0.86389,2.91213 -5.67764,4.05263 -10.7518,2.54737z" data-paper-data="{&quot;index&quot;:null}" fill="#00ff1b" stroke="#000000" stroke-linecap="butt"></path><path d="M243.50135,199.31878c-0.86389,-2.91213 2.54922,-6.49313 7.62339,-7.99839c5.07416,-1.50526 9.88792,-0.36475 10.7518,2.54738c0.86388,2.91213 -2.54922,6.49313 -7.62339,7.99838c-5.07416,1.50526 -9.88791,0.36476 -10.7518,-2.54737z" data-paper-data="{&quot;index&quot;:null}" fill="#00ff1b" stroke="#000000" stroke-linecap="butt"></path><path d="M224.5,180c0,-8.56042 6.93958,-15.5 15.5,-15.5c8.56042,0 15.5,6.93958 15.5,15.5c0,8.56042 -6.93958,15.5 -15.5,15.5c-8.56042,0 -15.5,-6.93958 -15.5,-15.5z" fill="#f7006f" stroke="#000000" stroke-linecap="butt"></path><path d="M235.87654,206.86776c0.86389,2.91213 -2.54922,6.49313 -7.62338,7.99839c-5.07416,1.50526 -9.88791,0.36476 -10.7518,-2.54737c-0.86389,-2.91213 2.54922,-6.49313 7.62338,-7.99839c5.07416,-1.50526 9.88791,-0.36476 10.7518,2.54737z" data-paper-data="{&quot;index&quot;:null}" fill="#00ff1b" stroke="#000000" stroke-linecap="butt"></path><path d="M253.58648,204.65372c5.07416,1.50526 8.48727,5.08626 7.62339,7.99839c-0.86388,2.91213 -5.67763,4.05263 -10.7518,2.54737c-5.07416,-1.50526 -8.48727,-5.08626 -7.62339,-7.99839c0.86389,-2.91213 5.67763,-4.05263 10.7518,-2.54737z" data-paper-data="{&quot;index&quot;:null}" fill="#00ff1b" stroke="#000000" stroke-linecap="butt"></path><path d="M245.93894,202.34327c0,-2.34721 -2.61167,-4.25 -5.83333,-4.25c-3.22166,0 -5.83334,1.90279 -5.83334,4.25c0,2.34721 2.61168,4.25 5.83334,4.25c3.22166,0 5.83333,-1.90279 5.83333,-4.25z" fill="#b2b2b2" stroke="#000000" stroke-linecap="butt"></path><path d="M226.93894,175.30675l14.51654,-0.21348" fill="none" stroke="#000000" stroke-linecap="round"></path><path d="M230.28156,175.54081c0,0 2.21189,6.65545 4.98305,6.38377c2.77115,-0.27168 6.40435,-6.61783 6.40435,-6.61783z" fill="#ffffff" stroke="#000000" stroke-linecap="round"></path><path d="M259.00229,175.30675l-14.51654,-0.21348" data-paper-data="{&quot;index&quot;:null}" fill="none" stroke="#000000" stroke-linecap="round"></path><path d="M256.15968,175.70747c0,0 -2.71189,6.48879 -5.48305,6.21711c-2.77115,-0.27168 -6.40435,-6.61783 -6.40435,-6.61783z" data-paper-data="{&quot;index&quot;:null}" fill="#ffffff" stroke="#000000" stroke-linecap="round"></path><path d="M245.27228,192.09327c0,0 -6.7198,-0.97466 -10.90287,-3.6547c-1.80302,-1.15517 -1.43047,-3.01197 -1.43047,-3.01197l-2.5,4.33333l7,0.5" fill="#ffffff" stroke="#000000" stroke-linecap="round"></path><path d="M240.57643,197.40648l-6.98812,3.35978l10.10679,0.62219l-6.23011,2.65275" fill="none" stroke="#00d3e3" stroke-linecap="round"></path></g></g></svg>