<svg version="1.1" xmlns="http://www.w3.org/2000/svg" xmlns:xlink="http://www.w3.org/1999/xlink" width="41.28786" height="35.28786" viewBox="0,0,41.28786,35.28786"><g transform="translate(-219.33763,-174.2978)"><g data-paper-data="{&quot;isPaintingLayer&quot;:true}" fill-rule="nonzero" stroke="#000000" stroke-width="1.28786" stroke-linecap="butt" stroke-linejoin="miter" stroke-miterlimit="10" stroke-dasharray="" stroke-dashoffset="0" style="mix-blend-mode: normal"><path d="M237.35656,197.44174v-14h6v14z" fill="#c9c9c9"></path><path d="M246.02322,181.02507c0,3.35973 -2.61167,6.08333 -5.83333,6.08333c-3.22166,0 -5.83333,-2.7236 -5.83333,-6.08333c0,-3.35973 2.61167,-6.08333 5.83333,-6.08333c3.22166,0 5.83333,2.7236 5.83333,6.08333z" fill="#e8e8e8"></path><path d="M241.14823,205.52507c-6.20504,0 -10.58864,-2.91642 -13.68051,-2.58728c-1.51764,0.16156 -2.40283,1.79205 -2.40283,-0.66272c0,-7.45584 5.9159,-10.5 15.16666,-10.5c9.25077,0 16.33333,3.54416 16.33333,11c0,0.47791 0.30526,-1.94391 0.25028,-1.59225c-0.8028,5.13445 -7.00914,4.34225 -15.66694,4.34225z" fill="#ffe49d"></path><path d="M227.23156,200.44174c0,2.20914 -1.62297,4 -3.625,4c-2.00203,0 -3.625,-1.79086 -3.625,-4c0,-2.20914 1.62297,-4 3.625,-4c2.00203,0 3.625,1.79086 3.625,4z" fill="#960000"></path><path d="M230.60656,208.19174c-2.1401,0 -3.875,-1.84683 -3.875,-4.125c0,-2.27817 1.7349,-4.125 3.875,-4.125c2.1401,0 3.875,1.84683 3.875,4.125c0,2.27817 -1.7349,4.125 -3.875,4.125z" fill="#960000"></path><path d="M234.98156,204.94174c0,-2.20914 1.79086,-4 4,-4c2.20914,0 4,1.79086 4,4c0,2.20914 -1.79086,4 -4,4c-2.20914,0 -4,-1.79086 -4,-4z" fill="#960000"></path><path d="M251.98156,204.44174c0,2.20914 -1.90279,4 -4.25,4c-2.34721,0 -4.25,-1.79086 -4.25,-4c0,-2.20914 1.90279,-4 4.25,-4c2.34721,0 4.25,1.79086 4.25,4z" fill="#960000"></path><path d="M259.98156,201.94174c0,1.933 -1.67893,3.5 -3.75,3.5c-2.07107,0 -3.75,-1.567 -3.75,-3.5c0,-1.933 1.67893,-3.5 3.75,-3.5c2.07107,0 3.75,1.567 3.75,3.5z" fill="#960000"></path></g></g></svg>