<svg version="1.1" xmlns="http://www.w3.org/2000/svg" xmlns:xlink="http://www.w3.org/1999/xlink" width="29.82274" height="29.82274" viewBox="0,0,29.82274,29.82274"><g transform="translate(-278.1468,-191.47838)"><g stroke="none" stroke-width="0" stroke-miterlimit="10"><path d="M279.65673,212.53237c-1.39517,-0.75073 -1.91761,-2.49032 -1.16688,-3.88551l8.42569,-15.65855c0.75073,-1.39517 2.49032,-1.91761 3.88551,-1.16688l15.65855,8.42569c1.39517,0.75073 1.91761,2.49032 1.16688,3.88551l-8.42569,15.65855c-0.75073,1.39517 -2.49032,1.91761 -3.88551,1.16688z" fill="#ff0000"/><path d="M283.22142,210.89847c-1.02407,-0.55104 -1.40754,-1.82791 -0.8565,-2.85199l6.18452,-11.49349c0.55104,-1.02407 1.82791,-1.40754 2.85199,-0.8565l11.49349,6.18452c1.02407,0.55104 1.40754,1.82791 0.8565,2.85199l-6.18452,11.49349c-0.55104,1.02407 -1.82791,1.40754 -2.85199,0.8565z" fill="#ffffff"/><path d="M286.47025,209.40935c-0.68584,-0.36904 -0.94267,-1.2242 -0.57362,-1.91005l4.14192,-7.69747c0.36904,-0.68584 1.2242,-0.94267 1.91005,-0.57362l7.69747,4.14192c0.68584,0.36904 0.94267,1.2242 0.57362,1.91005l-4.14192,7.69747c-0.36904,0.68584 -1.2242,0.94267 -1.91005,0.57362z" fill="#ff0000"/><path d="M289.35811,208.08569c-0.3852,-0.20727 -0.52944,-0.68757 -0.32217,-1.07277l2.32629,-4.32324c0.20727,-0.3852 0.68757,-0.52944 1.07277,-0.32217l4.32324,2.32629c0.3852,0.20727 0.52944,0.68757 0.32217,1.07277l-2.32629,4.32324c-0.20727,0.3852 -0.68757,0.52944 -1.07277,0.32217z" fill="#ffffff"/></g></g></svg>