<svg version="1.1" xmlns="http://www.w3.org/2000/svg" xmlns:xlink="http://www.w3.org/1999/xlink" width="101.56936" height="401.19642" viewBox="0,0,101.56936,401.19642"><defs><linearGradient x1="340.32812" y1="-1.50989" x2="340.32812" y2="194.35198" gradientUnits="userSpaceOnUse" id="color-1"><stop offset="0" stop-color="#550068"/><stop offset="1" stop-color="#1d1693"/></linearGradient><linearGradient x1="340.32812" y1="51.4901" x2="340.32812" y2="195.35198" gradientUnits="userSpaceOnUse" id="color-2"><stop offset="0" stop-color="#0f0c4f" stop-opacity="0"/><stop offset="1" stop-color="#0f0c4f"/></linearGradient><linearGradient x1="340.74778" y1="217.67559" x2="340.74778" y2="361.53747" gradientUnits="userSpaceOnUse" id="color-3"><stop offset="0" stop-color="#000000" stop-opacity="0"/><stop offset="1" stop-color="#000000"/></linearGradient><linearGradient x1="340" y1="-1.50992" x2="340" y2="360.35196" gradientUnits="userSpaceOnUse" id="color-4"><stop offset="0" stop-color="#000000"/><stop offset="1" stop-color="#00deff"/></linearGradient><radialGradient cx="340.08474" cy="179.42102" r="120.49766" gradientUnits="userSpaceOnUse" id="color-5"><stop offset="0" stop-color="#000000" stop-opacity="0"/><stop offset="1" stop-color="#000000"/></radialGradient></defs><g transform="translate(-278.5146,1.59821)"><g stroke-miterlimit="10"><path d="M278.5146,20.42005c0,-1.38071 1.10097,-2.5 2.45907,-2.5c1.35811,0 2.45907,1.11929 2.45907,2.5c0,1.38071 -1.10097,2.5 -2.45907,2.5c-1.35811,0 -2.45907,-1.11929 -2.45907,-2.5z" fill="#ffffff" stroke="none" stroke-width="0.5"/><path d="M349.18313,18.32031c0,-1.38071 1.10097,-2.5 2.45907,-2.5c1.35811,0 2.45907,1.11929 2.45907,2.5c0,1.38071 -1.10097,2.5 -2.45907,2.5c-1.35811,0 -2.45907,-1.11929 -2.45907,-2.5z" fill="#ffffff" stroke="none" stroke-width="0.5"/><path d="M319.77482,8.97155c0,-1.38071 1.10097,-2.5 2.45907,-2.5c1.35811,0 2.45907,1.11929 2.45907,2.5c0,1.38071 -1.10097,2.5 -2.45907,2.5c-1.35811,0 -2.45907,-1.11929 -2.45907,-2.5z" fill="#ffffff" stroke="none" stroke-width="0.5"/><path d="M304.18543,19.22021c0,-1.38071 1.10097,-2.5 2.45907,-2.5c1.35811,0 2.45907,1.11929 2.45907,2.5c0,1.38071 -1.10097,2.5 -2.45907,2.5c-1.35811,0 -2.45907,-1.11929 -2.45907,-2.5z" fill="#ffffff" stroke="none" stroke-width="0.5"/><path d="M363.00213,20.67002c0,-1.38071 1.10097,-2.5 2.45907,-2.5c1.35811,0 2.45907,1.11929 2.45907,2.5c0,1.38071 -1.10097,2.5 -2.45907,2.5c-1.35811,0 -2.45907,-1.11929 -2.45907,-2.5z" fill="#ffffff" stroke="none" stroke-width="0.5"/><path d="M369.00183,10.07141c0,-1.38071 1.10097,-2.5 2.45907,-2.5c1.35811,0 2.45907,1.11929 2.45907,2.5c0,1.38071 -1.10097,2.5 -2.45907,2.5c-1.35811,0 -2.45907,-1.11929 -2.45907,-2.5z" fill="#ffffff" stroke="none" stroke-width="0.5"/><path d="M301.24417,194.35197v-195.86186h78.16792v195.86187z" fill="url(#color-1)" stroke="none" stroke-width="NaN"/><path d="M300.99843,399.59821v-208.17563h78.40305v208.17563z" fill="#636363" stroke="none" stroke-width="0"/><path d="M316.0174,347.25961v-38.67653h49.54029v38.67653z" fill="#dadada" stroke="none" stroke-width="0"/><path d="M315.62388,293.16665v-38.67653h49.54029v38.67653z" fill="#dadada" stroke="none" stroke-width="0"/><path d="M315.62405,241.37509v-38.67653h49.54029v38.67653z" fill="#dadada" stroke="none" stroke-width="0"/><path d="M343.09779,29.71885c0,-1.38071 0.73449,-2.5 1.64053,-2.5c0.90604,0 1.64052,1.11929 1.64052,2.5c0,1.38071 -0.73449,2.5 -1.64052,2.5c-0.90604,0 -1.64053,-1.11929 -1.64053,-2.5z" fill="#ffffff" stroke="none" stroke-width="0.5"/><path d="M323.64254,66.51406c0,-1.38071 0.73449,-2.5 1.64052,-2.5c0.90604,0 1.64053,1.11929 1.64053,2.5c0,1.38071 -0.73449,2.5 -1.64053,2.5c-0.90604,0 -1.64052,-1.11929 -1.64052,-2.5z" fill="#ffffff" stroke="none" stroke-width="0.5"/><path d="M318.85257,43.0671c0,-1.38071 0.73449,-2.5 1.64052,-2.5c0.90604,0 1.64053,1.11929 1.64053,2.5c0,1.38071 -0.73449,2.5 -1.64053,2.5c-0.90604,0 -1.64052,-1.11929 -1.64052,-2.5z" fill="#ffffff" stroke="none" stroke-width="0.5"/><path d="M345.36154,57.8152c0,-1.38071 0.73449,-2.5 1.64052,-2.5c0.90604,0 1.64053,1.11929 1.64053,2.5c0,1.38071 -0.7345,2.5 -1.64053,2.5c-0.90604,0 -1.64052,-1.11929 -1.64052,-2.5z" fill="#ffffff" stroke="none" stroke-width="0.5"/><path d="M334.89575,96.91009c0,-1.38071 0.73449,-2.5 1.64052,-2.5c0.90604,0 1.64053,1.11929 1.64053,2.5c0,1.38071 -0.73449,2.5 -1.64053,2.5c-0.90604,0 -1.64052,-1.11929 -1.64052,-2.5z" fill="#ffffff" stroke="none" stroke-width="0.5"/><path d="M313.17675,105.95892c0,-1.38071 0.73449,-2.5 1.64053,-2.5c0.90604,0 1.64052,1.11929 1.64052,2.5c0,1.38071 -0.73449,2.5 -1.64052,2.5c-0.90604,0 -1.64053,-1.11929 -1.64053,-2.5z" fill="#ffffff" stroke="none" stroke-width="0.5"/><path d="M329.18713,142.80413c0,-1.38071 0.73449,-2.5 1.64052,-2.5c0.90604,0 1.64053,1.11929 1.64053,2.5c0,1.38071 -0.73449,2.5 -1.64053,2.5c-0.90604,0 -1.64052,-1.11929 -1.64052,-2.5z" fill="#ffffff" stroke="none" stroke-width="0.5"/><path d="M352.0872,147.30352c0,-1.38071 0.73449,-2.5 1.64053,-2.5c0.90604,0 1.64052,1.11929 1.64052,2.5c0,1.38071 -0.73449,2.5 -1.64052,2.5c-0.90604,0 -1.64053,-1.11929 -1.64053,-2.5z" fill="#ffffff" stroke="none" stroke-width="0.5"/><path d="M312.84867,178.69946c0,-1.38071 0.73449,-2.5 1.64052,-2.5c0.90604,0 1.64053,1.11929 1.64053,2.5c0,1.38071 -0.73449,2.5 -1.64053,2.5c-0.90604,0 -1.64052,-1.11929 -1.64052,-2.5z" fill="#ffffff" stroke="none" stroke-width="0.5"/><path d="M350.24996,168.50079c0,-1.38071 0.73449,-2.5 1.64053,-2.5c0.90604,0 1.64052,1.11929 1.64052,2.5c0,1.38071 -0.73449,2.5 -1.64052,2.5c-0.90604,0 -1.64053,-1.11929 -1.64053,-2.5z" fill="#ffffff" stroke="none" stroke-width="0.5"/><path d="M369.96764,169.05072c0,-1.38071 0.73449,-2.5 1.64053,-2.5c0.90604,0 1.64053,1.11929 1.64053,2.5c0,1.38071 -0.7345,2.5 -1.64053,2.5c-0.90604,0 -1.64053,-1.11929 -1.64053,-2.5z" fill="#ffffff" stroke="none" stroke-width="0.5"/><path d="M364.9808,116.60754c0,-1.38071 0.73449,-2.5 1.64053,-2.5c0.90604,0 1.64052,1.11929 1.64052,2.5c0,1.38071 -0.73449,2.5 -1.64052,2.5c-0.90604,0 -1.64053,-1.11929 -1.64053,-2.5z" fill="#ffffff" stroke="none" stroke-width="0.5"/><path d="M344.31168,125.75634c0,-1.38071 0.7345,-2.5 1.64053,-2.5c0.90604,0 1.64053,1.11929 1.64053,2.5c0,1.38071 -0.73449,2.5 -1.64053,2.5c-0.90604,0 -1.64053,-1.11929 -1.64053,-2.5z" fill="#ffffff" stroke="none" stroke-width="0.5"/><path d="M315.30928,134.20522c0,-1.38071 0.73449,-2.5 1.64053,-2.5c0.90604,0 1.64052,1.11929 1.64052,2.5c0,1.38071 -0.73449,2.5 -1.64052,2.5c-0.90604,0 -1.64053,-1.11929 -1.64053,-2.5z" fill="#ffffff" stroke="none" stroke-width="0.5"/><path d="M325.05331,161.80166c0,-1.38071 0.73449,-2.5 1.64052,-2.5c0.90604,0 1.64053,1.11929 1.64053,2.5c0,1.38071 -0.73449,2.5 -1.64053,2.5c-0.90604,0 -1.64052,-1.11929 -1.64052,-2.5z" fill="#ffffff" stroke="none" stroke-width="0.5"/><path d="M345.03346,178.84942c0,-1.38071 0.73449,-2.5 1.64052,-2.5c0.90604,0 1.64053,1.11929 1.64053,2.5c0,1.38071 -0.73449,2.5 -1.64053,2.5c-0.90604,0 -1.64052,-1.11929 -1.64052,-2.5z" fill="#ffffff" stroke="none" stroke-width="0.5"/><path d="M355.59767,74.66298c0,-1.38071 0.73449,-2.5 1.64053,-2.5c0.90604,0 1.64052,1.11929 1.64052,2.5c0,1.38071 -0.73449,2.5 -1.64052,2.5c-0.90604,0 -1.64053,-1.11929 -1.64053,-2.5z" fill="#ffffff" stroke="none" stroke-width="0.5"/><path d="M364.5871,38.5677c0,-1.38071 0.73449,-2.5 1.64053,-2.5c0.90604,0 1.64053,1.11929 1.64053,2.5c0,1.38071 -0.73449,2.5 -1.64053,2.5c-0.90604,0 -1.64053,-1.11929 -1.64053,-2.5z" fill="#ffffff" stroke="none" stroke-width="0.5"/><path d="M371.57525,72.51327c0,-1.38071 0.73449,-2.5 1.64053,-2.5c0.90604,0 1.64052,1.11929 1.64052,2.5c0,1.38071 -0.73449,2.5 -1.64052,2.5c-0.90604,0 -1.64053,-1.11929 -1.64053,-2.5z" fill="#ffffff" stroke="none" stroke-width="0.5"/><path d="M349.2329,101.65948c0,-1.38071 0.73449,-2.5 1.64053,-2.5c0.90604,0 1.64053,1.11929 1.64053,2.5c0,1.38071 -0.73449,2.5 -1.64053,2.5c-0.90604,0 -1.64053,-1.11929 -1.64053,-2.5z" fill="#ffffff" stroke="none" stroke-width="0.5"/><path d="M336.24087,76.66273c0,-1.38071 0.73449,-2.5 1.64053,-2.5c0.90604,0 1.64053,1.11929 1.64053,2.5c0,1.38071 -0.73449,2.5 -1.64053,2.5c-0.90604,0 -1.64053,-1.11929 -1.64053,-2.5z" fill="#ffffff" stroke="none" stroke-width="0.5"/><path d="M318.9838,90.26097c0,-1.38071 0.73449,-2.5 1.64053,-2.5c0.90604,0 1.64052,1.11929 1.64052,2.5c0,1.38071 -0.73449,2.5 -1.64052,2.5c-0.90604,0 -1.64053,-1.11929 -1.64053,-2.5z" fill="#ffffff" stroke="none" stroke-width="0.5"/><path d="M306.28704,68.4638c0,-1.38071 0.73449,-2.5 1.64053,-2.5c0.90604,0 1.64052,1.11929 1.64052,2.5c0,1.38071 -0.73449,2.5 -1.64052,2.5c-0.90604,0 -1.64053,-1.11929 -1.64053,-2.5z" fill="#ffffff" stroke="none" stroke-width="0.5"/><path d="M309.40381,39.16761c0,-1.38071 0.73449,-2.5 1.64052,-2.5c0.90604,0 1.64053,1.11929 1.64053,2.5c0,1.38071 -0.73449,2.5 -1.64053,2.5c-0.90604,0 -1.64052,-1.11929 -1.64052,-2.5z" fill="#ffffff" stroke="none" stroke-width="0.5"/><path d="M335.05978,49.51628c0,-1.38071 0.73449,-2.5 1.64053,-2.5c0.90604,0 1.64053,1.11929 1.64053,2.5c0,1.38071 -0.73449,2.5 -1.64053,2.5c-0.90604,0 -1.64053,-1.11929 -1.64053,-2.5z" fill="#ffffff" stroke="none" stroke-width="0.5"/><path d="M356.41787,50.41615c0,-1.38071 0.73449,-2.5 1.64053,-2.5c0.90604,0 1.64052,1.11929 1.64052,2.5c0,1.38071 -0.73449,2.5 -1.64052,2.5c-0.90604,0 -1.64053,-1.11929 -1.64053,-2.5z" fill="#ffffff" stroke="none" stroke-width="0.5"/><path d="M335.94559,173.30014c0,-1.38071 0.73449,-2.5 1.64053,-2.5c0.90604,0 1.64052,1.11929 1.64052,2.5c0,1.38071 -0.73449,2.5 -1.64052,2.5c-0.90604,0 -1.64053,-1.11929 -1.64053,-2.5z" fill="#ffffff" stroke="none" stroke-width="0.5"/><path d="M341.58861,146.45361c0,-1.38071 0.73449,-2.5 1.64052,-2.5c0.90604,0 1.64053,1.11929 1.64053,2.5c0,1.38071 -0.73449,2.5 -1.64053,2.5c-0.90604,0 -1.64052,-1.11929 -1.64052,-2.5z" fill="#ffffff" stroke="none" stroke-width="0.5"/><path d="M327.54672,122.55676c0,-1.38071 0.73449,-2.5 1.64053,-2.5c0.90604,0 1.64052,1.11929 1.64052,2.5c0,1.38071 -0.73449,2.5 -1.64052,2.5c-0.90604,0 -1.64053,-1.11929 -1.64053,-2.5z" fill="#ffffff" stroke="none" stroke-width="0.5"/><path d="M363.40602,133.50534c0,-1.38071 0.7345,-2.5 1.64053,-2.5c0.90604,0 1.64052,1.11929 1.64052,2.5c0,1.38071 -0.73449,2.5 -1.64052,2.5c-0.90604,0 -1.64053,-1.11929 -1.64053,-2.5z" fill="#ffffff" stroke="none" stroke-width="0.5"/><path d="M367.3758,174.79995c0,-1.38071 0.73449,-2.5 1.64052,-2.5c0.90604,0 1.64053,1.11929 1.64053,2.5c0,1.38071 -0.73449,2.5 -1.64053,2.5c-0.90604,0 -1.64052,-1.11929 -1.64052,-2.5z" fill="#ffffff" stroke="none" stroke-width="0.5"/><path d="M310.38806,155.65246c0,-1.38071 0.73449,-2.5 1.64053,-2.5c0.90604,0 1.64052,1.11929 1.64052,2.5c0,1.38071 -0.73449,2.5 -1.64052,2.5c-0.90604,0 -1.64053,-1.11929 -1.64053,-2.5z" fill="#ffffff" stroke="none" stroke-width="0.5"/><path d="M371.08311,99.60975c0,-1.38071 0.73449,-2.5 1.64053,-2.5c0.90604,0 1.64053,1.11929 1.64053,2.5c0,1.38071 -0.73449,2.5 -1.64053,2.5c-0.90604,0 -1.64053,-1.11929 -1.64053,-2.5z" fill="#ffffff" stroke="none" stroke-width="0.5"/><path d="M361.27348,94.01048c0,-1.38071 0.73449,-2.5 1.64052,-2.5c0.90604,0 1.64053,1.11929 1.64053,2.5c0,1.38071 -0.73449,2.5 -1.64053,2.5c-0.90604,0 -1.64052,-1.11929 -1.64052,-2.5z" fill="#ffffff" stroke="none" stroke-width="0.5"/><path d="M370.29573,55.86544c0,-1.38071 0.73449,-2.5 1.64052,-2.5c0.90604,0 1.64053,1.11929 1.64053,2.5c0,1.38071 -0.73449,2.5 -1.64053,2.5c-0.90604,0 -1.64052,-1.11929 -1.64052,-2.5z" fill="#ffffff" stroke="none" stroke-width="0.5"/><path d="M356.74596,34.86817c0,-1.38071 0.73449,-2.5 1.64052,-2.5c0.90604,0 1.64053,1.11929 1.64053,2.5c0,1.38071 -0.73449,2.5 -1.64053,2.5c-0.90604,0 -1.64052,-1.11929 -1.64052,-2.5z" fill="#ffffff" stroke="none" stroke-width="0.5"/><path d="M301.24417,195.35197v-143.86186h78.16792v143.86187z" fill="url(#color-2)" stroke="none" stroke-width="NaN"/><path d="M301.66382,361.53746v-143.86186h78.16793v143.86187z" fill="url(#color-3)" stroke="none" stroke-width="NaN"/><path d="M300.58794,360.35195v-361.86186h78.82413v361.86187z" fill="url(#color-4)" stroke="none" stroke-width="NaN"/><g><path d="M299.91604,360.13946v-181.86186h40.03844v181.86187z" fill="#4bff00" stroke="#000000" stroke-width="0"/><path d="M339.46403,360.44024v-181.86186h40.03845v181.86187z" fill="#ff0000" stroke="#000000" stroke-width="0"/><path d="M299.98396,180.26365v-181.86186h40.03844v181.86187z" fill="#f2ff00" stroke="#000000" stroke-width="0"/><path d="M339.53195,180.56443v-181.86187h40.03844v181.86187z" fill="#00deff" stroke="#000000" stroke-width="0"/><path d="M300.08551,360.35195v-361.86186h79.99845v361.86187z" fill="url(#color-5)" stroke="none" stroke-width="NaN"/></g><path d="M325.45399,179.42102c0,-12.24231 6.51247,-22.16667 14.54601,-22.16667c8.03354,0 14.54601,9.92435 14.54601,22.16667c0,12.24231 -6.51247,22.16667 -14.54601,22.16667c-8.03354,0 -14.54601,-9.92435 -14.54601,-22.16667z" fill="#ffffff" stroke="none" stroke-width="0"/></g></g></svg>