<svg version="1.1" xmlns="http://www.w3.org/2000/svg" xmlns:xlink="http://www.w3.org/1999/xlink" width="75.40245" height="101.46495" viewBox="0,0,75.40245,101.46495"><g transform="translate(-282.29884,83.87229)"><g stroke-miterlimit="10"><path d="M304.4402,-56.06108c2.90629,-2.25827 5.33612,-3.66487 5.32305,-7.647c-0.00246,-0.75036 0.73123,-2.1228 -0.00809,-2.25108c-0.77389,-0.13428 -0.56214,1.54586 -1.16677,2.04723c-0.77182,0.64001 -1.74432,0.97329 -2.67345,1.37286c-0.19652,0.37355 -0.53304,0.7346 -1.08097,1.03347c-2.19474,1.19713 -3.39187,-0.99761 -3.39187,-0.99761c-0.99838,-2.07653 -0.62403,-2.46529 -2.85318,-3.11625c-0.42283,-0.12348 -1.3376,-0.45904 -1.32134,-0.01885c0.04163,1.12708 1.0767,1.99492 1.43385,3.06473c0.4236,1.26886 0.24302,2.74404 0.89525,3.91196c0.04148,0.07428 2.16729,2.23874 3.66547,3.76064zM305.95973,-68.16519c1.69518,-0.86534 3.29813,-3.32803 5.06846,-2.6292c2.19075,0.8648 2.82444,3.84903 3.62913,6.06256c2.01385,5.53969 -3.50526,9.78213 -7.14742,12.6175l-1.32589,1.35319c0,0 -0.0351,0.0351 -0.10035,0.09046c0.16184,0.74711 0.1507,1.97631 -1.32879,2.71606c-2.23607,1.11803 -3.3541,-1.11803 -3.3541,-1.11803l-0.32476,-0.92283c-3.73085,-3.78964 -6.13778,-5.93139 -7.2253,-11.36543c-0.43894,-2.19329 -2.04848,-4.6654 -0.99151,-6.6367c2.43177,-4.53535 8.32087,-2.50865 10.92644,-0.38649c0.31586,0.25726 0.56539,0.5714 0.77868,0.91663c0.46647,-0.22992 0.93221,-0.46128 1.39539,-0.69772z" fill="#ff0000" stroke="none" stroke-width="0.5"/><path d="M357.05736,-83.22836v90.47813h-26.44642l-9.59928,9.45877l-10.51924,-9.45877h-27.54965v-90.47813z" fill="#ffe8a2" stroke="#000000" stroke-width="1.28786"/><text transform="translate(292.2616,-66.94326) scale(0.21332,0.30032)" font-size="40" xml:space="preserve" fill="#000000" stroke="none" stroke-width="1" font-family="Sans Serif" font-weight="normal" text-anchor="start"><tspan x="0" dy="0">TIGER GRASS</tspan></text><text transform="translate(284.73596,-51.24097) scale(0.16539,0.29191)" font-size="40" xml:space="preserve" fill="#000000" stroke="none" stroke-width="1" font-family="Sans Serif" font-weight="normal" text-anchor="start"><tspan x="0" dy="0">She hits zombies,</tspan><tspan x="0" dy="46.150000000000006px">and knockback them</tspan><tspan x="0" dy="46.150000000000006px">with a powerful ROAR!</tspan></text><text transform="translate(293.25424,-10.34422) scale(0.21746,0.23708)" font-size="40" xml:space="preserve" fill="#000000" stroke="none" stroke-width="1" font-family="Sans Serif" font-weight="normal" text-anchor="start"><tspan x="0" dy="0">Damage: 5</tspan><tspan x="0" dy="46.150000000000006px">Recharge: 4s</tspan></text></g></g></svg>