<svg version="1.1" xmlns="http://www.w3.org/2000/svg" xmlns:xlink="http://www.w3.org/1999/xlink" width="65.07497" height="88.99064" viewBox="0,0,65.07497,88.99064"><g transform="translate(-287.43518,-136.83978)"><g stroke-miterlimit="10"><path d="M288.42769,221.84538v-84.81396h62.89539v84.81396z" fill="#515151" stroke="none" stroke-width="0" stroke-linecap="butt"/><g stroke="#000000" stroke-width="1.28786"><path d="M305.43851,166.1108c0.03809,-0.05234 -5.59352,2.06779 -5.68276,1.54484c-0.54805,-3.21119 2.47376,-16.27405 2.47376,-16.27405l7.36522,6.11007l2.11926,-7.10266l6.54702,7.72329l-1.0948,1.29814l0.59406,-0.69731l5.05735,-8.89994l6.6722,10.35199l-1.02648,0.1502l4.23115,-10.27685l5.58312,9.6635l5.10744,-10.2268c0,0 -2.13828,18.35873 -2.23665,20.39824c-0.01812,0.37555 1.25564,-0.05873 1.25564,-0.05873" fill="#00ffec" stroke-linecap="round"/><path d="M299.13922,167.75714l4.1936,-12.36729l5.10744,10.2268l5.58313,-9.66352l4.23115,10.27687l-1.02648,-0.15022l6.67222,-10.35197l5.05735,8.89994l0.59406,0.69731l-1.09479,-1.29814l6.54702,-7.72329l4.18108,9.90136l1.48944,2.04713" fill="#00ffec" stroke-linecap="round"/><path d="M299.65209,209.4016l3.79303,-38.51636l34.32495,0.20028l5.67076,38.31608z" fill="#87ffd6" stroke-linecap="butt"/><path d="M344.93128,171.52988c0,1.00399 -0.79572,2.7738 -7.7137,3.48455c-8.26517,0.84917 -23.43407,0.52906 -31.358,0.26228c-9.25967,-0.31174 -11.03874,-2.34513 -11.03874,-3.74685c0,-1.78374 -0.38937,-3.77398 12.00565,-3.79266c6.51012,-0.00981 20.94778,-0.2141 29.02215,0.54282c7.62438,0.71474 9.08261,2.36519 9.08261,3.24984z" fill="#549e9e" stroke-linecap="butt"/><path d="M300.06718,172.73525l4.1936,-12.36729l5.10744,10.2268l5.58312,-9.6635l4.23115,10.27687l-1.02648,-0.15022l6.6722,-10.35196l5.05735,8.89994l0.59406,0.69729l-1.09479,-1.29814l6.54702,-7.72331l4.18108,9.90136l1.48942,2.04713" fill="#00ffec" stroke-linecap="round"/><path d="M334.8002,177.48903l-10.90452,10.85619" fill="none" stroke-linecap="round"/><path d="M331.73901,185.61147c0,2.95146 -2.06254,5.34408 -4.60681,5.34408c-0.61882,0 -2.71549,-2.55817 -2.71549,-2.55817l6.40598,-6.3527c0,0 0.91631,2.64374 0.91631,3.56679z" fill="#00ebff" stroke-linecap="butt"/><path d="M305.29206,200.93841c0,0 2.85381,-4.70454 7.66305,-4.23101c14.9277,1.46983 26.00362,4.06434 26.00362,4.06434" fill="none" stroke-linecap="round"/><path d="M311.99969,182.37801l6.40598,6.3527c0,0 -2.09667,2.55817 -2.71548,2.55817c-2.54427,0 -4.60681,-2.39263 -4.60681,-5.34409c0,-0.92305 0.91631,-3.56679 0.91631,-3.56679z" fill="#00ebff" stroke-linecap="butt"/><path d="M320.3002,189.34522l-10.90452,-10.85619" fill="none" stroke-linecap="round"/></g><path d="M288.42771,221.82542v-12.81396h62.89539v12.81396z" fill="#969696" stroke="none" stroke-width="0" stroke-linecap="butt"/><path d="M288.37767,221.79542v-84.81396h8.64539v84.81396z" fill="#969696" stroke="none" stroke-width="0" stroke-linecap="butt"/><path d="M343.92524,221.84355v-84.81396h8.14539v84.81396z" fill="#969696" stroke="none" stroke-width="0" stroke-linecap="butt"/><path d="M288.42771,147.34541v-10.31396h62.89539v10.31396z" fill="#969696" stroke="none" stroke-width="0" stroke-linecap="butt"/><path d="M296.17272,210.91882v-21.00188l21.13534,21.00188z" fill="#969696" stroke="none" stroke-width="0" stroke-linecap="butt"/><path d="M303.28719,214.66239v-12.15842h44.05785v12.15842z" fill="#969696" stroke="none" stroke-width="0" stroke-linecap="butt"/><text transform="translate(319.47006,219.58042) scale(0.47116,0.5)" font-size="40" xml:space="preserve" fill="#000000" stroke="none" stroke-width="1" stroke-linecap="butt" font-family="Sans Serif" font-weight="normal" text-anchor="start"><tspan x="0" dy="0">175</tspan></text><g stroke-linecap="butt"><path d="M303.81138,213.13187l-2.65375,6.84999l-2.38631,-6.84999z" fill="#ffff00" stroke="#ffff00" stroke-width="1"/><path d="M298.84313,201.75602l2.38632,-6.84999l2.65375,6.84999z" fill="#ffff00" stroke="#ffff00" stroke-width="1"/><path d="M294.65973,207.65522c0,-3.72115 3.01658,-6.73773 6.73773,-6.73773c3.72115,0 6.73772,3.01658 6.73772,6.73773c0,3.72115 -3.01658,6.73772 -6.73772,6.73772c-3.72115,0 -6.73773,-3.01658 -6.73773,-6.73772z" fill="#ffff00" stroke="none" stroke-width="0"/><path d="M307.08774,205.12012l6.87114,2.59848l-6.83054,2.44142z" fill="#ffff00" stroke="#ffff00" stroke-width="1"/><path d="M295.7523,210.17986l-6.86899,-2.33105l6.82838,-2.70885z" fill="#ffff00" stroke="#ffff00" stroke-width="1"/><path d="M307.40332,209.76661l3.04475,6.68537l-6.56714,-3.08051z" fill="#ffff00" stroke="#ffff00" stroke-width="1"/><path d="M295.79464,205.3698l-3.23165,-6.49409l6.75404,2.88922z" fill="#ffff00" stroke="#ffff00" stroke-width="1"/><path d="M303.96275,201.82399l6.66063,-3.0985l-3.02751,6.59174z" fill="#ffff00" stroke="#ffff00" stroke-width="1"/><path d="M299.6596,213.46772l-6.46785,3.28387l2.83472,-6.7771z" fill="#ffff00" stroke="#ffff00" stroke-width="1"/><path d="M296.67597,207.85578c0,-2.70702 2.19448,-4.90151 4.9015,-4.90151c2.70702,0 4.90151,2.19448 4.90151,4.90151c0,2.70702 -2.19448,4.9015 -4.90151,4.9015c-2.70702,0 -4.9015,-2.19448 -4.9015,-4.9015z" fill="#fffff7" stroke="none" stroke-width="0"/></g><path d="M352.22739,136.83978v33.64619l-33.86,-33.64619z" fill="#00e2ff" stroke="none" stroke-width="0" stroke-linecap="butt"/></g></g></svg>