<svg version="1.1" xmlns="http://www.w3.org/2000/svg" xmlns:xlink="http://www.w3.org/1999/xlink" width="48.61469" height="53.97295" viewBox="0,0,48.61469,53.97295"><g transform="translate(-227.69265,-157.95797)"><g data-paper-data="{&quot;isPaintingLayer&quot;:true}" fill-rule="nonzero" stroke="#000000" stroke-width="1.28786" stroke-linejoin="miter" stroke-miterlimit="10" stroke-dasharray="" stroke-dashoffset="0" style="mix-blend-mode: normal"><path d="M239.39455,207.25594c0,0 5.33142,-6.70388 7.95456,-12.33683c1.82921,-3.92806 1.49496,-13.13344 1.49496,-13.13344l5.00029,1.85512c0,0 0.78006,9.40437 -1.02617,13.30736c-2.68905,5.81061 -8.42334,12.16291 -8.42334,12.16291z" data-paper-data="{&quot;index&quot;:null}" fill="#09ff00" stroke-linecap="butt"></path><path d="M255.11867,188.80157c0.65058,2.99608 4.15995,5.80627 4.15995,5.80627c0,0 -6.07456,0.89232 -7.04713,0.57435c-1.88774,-0.61716 -4.13397,-1.48683 -4.56333,-3.46417c-0.65058,-2.99608 0.3431,-5.75517 2.21943,-6.16259c1.87633,-0.40743 4.58051,0.25006 5.23109,3.24614z" fill="#007cc5" stroke-linecap="butt"></path><path d="M250.38776,194.79617c-1.27179,5.3426 2.31994,9.08306 2.22393,9.0602c-2.65116,-0.6311 -12.58829,-4.7477 -11.26871,-10.29104c1.31957,-5.54334 4.53849,-9.52549 7.18966,-8.89439c2.65116,0.6311 3.1747,4.58189 1.85512,10.12523z" fill="#09ff00" stroke-linecap="butt"></path><path d="M253.74522,170.40749c1.973,-2.3467 0.82589,-6.29297 0.82589,-6.29297c0,0 6.23,2.20013 6.57306,3.16413c0.66587,1.87111 1.35113,4.18029 0.04899,5.72906c-1.973,2.3467 -4.76382,3.24741 -6.23347,2.01179c-1.46965,-1.23562 -3.18747,-2.26531 -1.21447,-4.61201z" fill="#007cc5" stroke-linecap="butt"></path><path d="M261.96601,168.97362c5.00519,-2.26028 5.7689,-7.38944 5.80952,-7.2995c1.12162,2.48373 3.94006,12.86396 -1.25319,15.20917c-5.19325,2.34521 -10.31247,2.23291 -11.43409,-0.25082c-1.12162,-2.48373 1.68451,-5.31364 6.87776,-7.65885z" fill="#09ff00" stroke-linecap="butt"></path><path d="M242.76344,172.71961c-2.21177,-2.12317 -5.81932,-0.98113 -5.81932,-0.98113c0,0 3.22384,-4.63784 4.20834,-4.91671c1.91087,-0.54129 4.26015,-1.07308 5.71986,0.32816c2.21177,2.12317 2.92685,4.96721 1.59719,6.35236c-1.32966,1.38514 -3.4943,1.3405 -5.70607,-0.78267z" fill="#007cc5" stroke-linecap="butt"></path><path d="M242.89784,166.11325c-1.92598,-5.14309 -6.99376,-6.2427 -6.90134,-6.27731c2.55216,-0.95573 13.09538,-3.08491 15.09372,2.25142c1.99834,5.33634 1.54939,10.43706 -1.00277,11.39279c-2.55216,0.95573 -5.19127,-2.03056 -7.18961,-7.3669z" fill="#09ff00" stroke-linecap="butt"></path><path d="M241.95856,183.16904c-0.08196,0.08935 1.42406,1.6857 1.3483,1.78566c-1.83994,2.42759 -3.47204,6.31035 -3.47204,6.31035c0,0 -2.9176,-4.63467 -3.21872,-5.6126c-0.58446,-1.89811 -1.16937,-4.23474 0.19842,-5.72583c2.07249,-2.25932 4.89959,-3.03868 6.31452,-1.74076c1.41493,1.29792 0.90201,2.72385 -1.17048,4.98318z" fill="#007cc5" stroke-linecap="butt"></path><path d="M235.8682,183.92359c-5.09811,2.04206 -6.08258,7.13347 -6.11927,7.04185c-1.01333,-2.52984 -3.38095,-13.02209 1.90872,-15.14088c5.28967,-2.11879 10.39926,-1.78557 11.4126,0.74428c1.01333,2.52984 -1.91237,5.23596 -7.20204,7.35474z" fill="#09ff00" stroke-linecap="butt"></path><path d="M261.60583,179.9722c3.06329,-0.12657 6.25431,-2.25085 6.25431,-2.25085c0,0 -0.24403,3.37896 -0.72424,4.28251c-0.93207,1.75376 -2.17445,3.81735 -4.19614,3.90088c-3.06329,0.12657 -5.61082,-1.32602 -5.69009,-3.24444c-0.07926,-1.91842 1.29288,-2.56153 4.35617,-2.6881z" fill="#007cc5" stroke-linecap="butt"></path><path d="M266.35565,183.92077c5.04495,2.17009 9.34648,-0.72617 9.30749,-0.63551c-1.07687,2.50346 -6.8383,11.58634 -12.0728,9.33471c-5.2345,-2.25163 -8.60493,-6.10639 -7.52806,-8.60985c1.07687,-2.50346 5.05888,-2.34097 10.29338,-0.08934z" fill="#09ff00" stroke-linecap="butt"></path><path d="M241.41319,180.67035c0,-5.25163 4.25729,-9.50892 9.50892,-9.50892c5.25163,0 9.50892,4.25729 9.50892,9.50892c0,5.25163 -4.25729,9.50892 -9.50892,9.50892c-5.25163,0 -9.50892,-4.25729 -9.50892,-9.50892z" fill="#67ffed" stroke-linecap="butt"></path><path d="M259.13815,185.38311c0,2.51065 -3.45438,4.54593 -7.71557,4.54593c-4.26119,0 -8.29945,-2.03528 -8.29945,-4.54593c0,-0.96161 -0.9659,-2.50182 -0.91234,-2.83382c0.08627,-0.53482 2.20451,0.60215 5.7085,1.37411c4.1614,0.91679 11.21885,-1.05095 11.21885,1.4597z" fill="#67ffed" stroke-linecap="butt"></path><path d="M239.96198,210.78699c-3.82097,0 -6.91848,-1.24987 -6.91848,-2.79166c0,-1.54179 3.09751,-2.79166 6.91848,-2.79166c3.82097,0 6.91848,1.24987 6.91848,2.79166c0,1.54179 -3.09751,2.79166 -6.91848,2.79166z" fill="#09ff00" stroke-linecap="butt"></path><path d="M253.46198,211.28699c-3.82097,0 -6.91848,-1.24986 -6.91848,-2.79166c0,-1.54179 3.0975,-2.79166 6.91848,-2.79166c3.82098,0 6.91848,1.24986 6.91848,2.79166c0,1.54179 -3.0975,2.79166 -6.91848,2.79166z" fill="#09ff00" stroke-linecap="butt"></path><path d="M245.2445,175.87104l5.88889,5.11111l-5,1.44444" fill="none" stroke-linecap="round"></path><path d="M259.68894,182.4266l-5,-1.44445l5.88888,-5.11111" data-paper-data="{&quot;index&quot;:null}" fill="none" stroke-linecap="round"></path></g></g></svg>