<svg version="1.1" xmlns="http://www.w3.org/2000/svg" xmlns:xlink="http://www.w3.org/1999/xlink" width="45.59982" height="58.22892" viewBox="0,0,45.59982,58.22892"><defs><linearGradient x1="322.51307" y1="153.85935" x2="322.51307" y2="161.67216" gradientUnits="userSpaceOnUse" id="color-1"><stop offset="0" stop-color="#ffea2b"/><stop offset="1" stop-color="#e6d759"/></linearGradient></defs><g transform="translate(-300.73922,-153.21542)"><g stroke="#000000" stroke-width="1.28786" stroke-miterlimit="10"><path d="M318.58403,182.6302c0,0 -7.60674,2.79179 -13.7142,-2.16518c-3.02239,-2.45305 -5.28117,-14.58606 -1.51103,-15.06584c6.13914,-0.78124 3.98837,6.27335 5.84959,9.20423c2.69659,4.24634 6.32072,6.7736 6.32072,6.7736z" fill="#27c121" stroke-linecap="butt"/><path d="M314.36279,180.59883c0,0 -6.63455,-2.13571 -8.44628,-4.22314c-1.81173,-2.08743 -1.26694,-6.96818 -1.26694,-6.96818" fill="none" stroke-linecap="round"/><path d="M328.79186,197.38582c0,3.40138 -2.67858,6.15875 -5.98278,6.15875c-3.3042,0 -5.98278,-2.75736 -5.98278,-6.15875c0,-3.40138 2.67858,-6.15875 5.98278,-6.15875c3.3042,0 5.98278,2.75736 5.98278,6.15875z" fill="#146812" stroke-linecap="butt"/><path d="M322.81037,201.91963c0.22892,-3.24978 3.46104,-5.66965 7.21917,-5.40492c3.75812,0.26473 6.44387,8.41558 6.44387,8.41558c0,0 -3.23222,-0.39285 -6.99034,-0.65758c-3.75812,-0.26473 -6.90161,0.8967 -6.6727,-2.35308z" fill="#27c121" stroke-linecap="butt"/><path d="M315.96871,204.95462c-3.88355,0.27356 -7.22365,0.67953 -7.22365,0.67953c0,0 2.77539,-8.4229 6.65894,-8.69646c3.88355,-0.27356 7.22356,2.22708 7.46012,5.58532c0.23655,3.35824 -3.01185,2.15806 -6.89541,2.43162z" fill="#27c121" stroke-linecap="butt"/><path d="M320.34558,203.47418v-22.5938h4.64545v22.5938z" fill="#27c121" stroke-linecap="butt"/><path d="M328.29916,183.80138c0,2.0797 -2.61556,3.76563 -5.84201,3.76563c-3.22645,0 -5.84201,-1.68593 -5.84201,-3.76563c0,-2.0797 2.61556,-3.76563 5.84201,-3.76563c3.22645,0 5.84201,1.68593 5.84201,3.76563z" fill="#1c9a1a" stroke-linecap="butt"/><path d="M335.06897,170.91739c0,7.32512 -5.61321,13.2633 -12.53745,13.2633c-6.92424,0 -12.53745,-5.93818 -12.53745,-13.2633c0,-2.7046 -0.34589,-6.88679 0.96801,-8.98416c2.24465,-3.58312 7.20179,-4.27914 11.56944,-4.27914c3.74196,0 9.10103,1.06756 11.39822,3.81771c1.95361,2.33882 1.13923,6.07906 1.13923,9.44559z" fill="#ffea2b" stroke-linecap="butt"/><path d="M332.46716,172.76626c0,2.52988 -0.77882,4.58076 -1.73953,4.58076c-0.96072,0 -1.73952,-2.05087 -1.73952,-4.58076c0,-2.52988 0.77881,-4.58076 1.73952,-4.58076c0.96072,0 1.73953,2.05087 1.73953,4.58076z" fill="#000000" stroke-linecap="butt"/><path d="M326.70833,172.28636c0,2.52988 -0.77882,4.58076 -1.73953,4.58076c-0.96072,0 -1.73952,-2.05087 -1.73952,-4.58076c0,-2.52988 0.77881,-4.58076 1.73952,-4.58076c0.96072,0 1.73953,2.05087 1.73953,4.58076z" fill="#000000" stroke-linecap="butt"/><path d="M322.86745,177.88799c0,0 -5.02243,2.31952 -6.33471,1.34372c-1.31228,-0.9758 1.43971,-3.9352 1.43971,-3.9352l10.65383,5.08696z" fill="#ffffff" stroke-linecap="round"/><path d="M328.29916,205.23382c0,3.26533 -2.32273,5.49008 -2.32273,5.49008c0,0 -7.81281,-2.22476 -7.81281,-5.49008c0,-3.26533 2.26892,-5.9124 5.06777,-5.9124c2.79885,0 5.06777,2.64707 5.06777,5.9124z" fill="#27c121" stroke-linecap="butt"/><g stroke-linecap="butt"><path d="M312.36234,161.67216v-7.81281h20.30147v7.81281z" fill="url(#color-1)"/><path d="M301.80449,165.12106v-5.20854c0,0 13.61615,0.96639 20.7584,1.13836c7.46062,0.17963 22.81034,-0.50488 22.81034,-0.50488l0.28154,4.99738c0,0 -15.83575,-1.2083 -23.36859,-1.28084c-7.05221,-0.06792 -20.48169,0.85853 -20.48169,0.85853z" fill="#ffea2b"/></g><path d="M322.78913,170.36704h-2.66667l3.33333,3" fill="#000000" stroke-linecap="round"/><path d="M332.90024,170.81148h1.77778l-2.44445,3" fill="#000000" stroke-linecap="round"/></g></g></svg>