<svg version="1.1" xmlns="http://www.w3.org/2000/svg" xmlns:xlink="http://www.w3.org/1999/xlink" width="501.5015" height="495.4955" viewBox="0,0,501.5015,495.4955"><g transform="translate(-65.97163,30.60298)"><g stroke-miterlimit="10"><path d="M73.58561,464.89252c-4.20509,0 -7.61398,-3.35786 -7.61398,-7.5v-480.4955c0,-4.14214 3.4089,-7.5 7.61398,-7.5h486.27354c4.20509,0 7.61398,3.35786 7.61398,7.5v480.4955c0,4.14214 -3.4089,7.5 -7.61398,7.5z" fill-opacity="0.50196" fill="#000000" stroke="none" stroke-width="0"/><path d="M227.90961,243.26868c-3.45618,0 -6.25796,-2.80178 -6.25796,-6.25796v-114.02144c0,-3.45618 2.80178,-6.25796 6.25796,-6.25796h184.18077c3.45618,0 6.25796,2.80178 6.25796,6.25796v114.02144c0,3.45618 -2.80178,6.25796 -6.25796,6.25796z" fill="#909090" stroke="#000000" stroke-width="1.5"/><text transform="translate(319.5,181.10663) scale(0.46016,0.46746)" font-size="40" xml:space="preserve" fill="#000000" stroke="none" stroke-width="1" font-family="Sans Serif" font-weight="normal" text-anchor="middle"><tspan x="0" dy="0">Complete all past</tspan><tspan x="0" dy="46.150000000000006px">levels to unlock!</tspan></text><text transform="translate(239.47522,153.01875) scale(0.73835,0.73835)" font-size="40" xml:space="preserve" fill="#000000" stroke="none" stroke-width="1" font-family="Sans Serif" font-weight="normal" text-anchor="start"><tspan x="0" dy="0">Not so fast!</tspan></text><text transform="translate(281.34501,231.99735) scale(0.30313,0.30313)" font-size="40" xml:space="preserve" fill="#000000" stroke="none" stroke-width="1" font-family="Sans Serif" font-weight="normal" text-anchor="start"><tspan x="0" dy="0">(CLick to exit)</tspan></text></g></g></svg>