<svg version="1.1" xmlns="http://www.w3.org/2000/svg" xmlns:xlink="http://www.w3.org/1999/xlink" width="59.60951" height="66.47904" viewBox="0,0,59.60951,66.47904"><g transform="translate(-210.19524,-145.81721)"><g data-paper-data="{&quot;isPaintingLayer&quot;:true}" fill-rule="nonzero" stroke="#000000" stroke-width="1.28786" stroke-linejoin="miter" stroke-miterlimit="10" stroke-dasharray="" stroke-dashoffset="0" style="mix-blend-mode: normal"><g><g><path d="M213.02848,161.69616l-0.80317,-8.37056l4.34389,-5.62186v13.99241z" fill="#3fff7c" stroke-linecap="butt"></path><path d="M217.53715,178.01652c0,0 -4.50669,-5.05378 -5.85272,-9.03271c-1.34603,-3.97892 -0.92096,-5.73393 0.13527,-7.86825c1.11311,-2.24923 3.08598,-4.83623 6.27989,-5.21565c3.19392,-0.37942 6.32947,1.51672 6.94415,3.64469c0.6799,2.35375 -5.26132,7.79087 -5.25947,7.93869c0.01244,0.99912 -1.59593,-4.45666 -1.59593,-4.45666l2.93418,11.59477z" fill="#3fff7c" stroke-linecap="butt"></path><path d="M218.30882,163.11573c0,0 0.06936,-1.30906 0.77025,-2.06891c0.4714,-0.51105 1.61368,-0.51519 1.76306,-0.67826c0.1768,-0.193 -0.41381,0.43343 -0.41381,0.43343" fill="none" stroke-linecap="round"></path></g><path d="M254.56936,212.29625z" fill="none" stroke-linecap="butt"></path><path d="M254.12548,173.45699c3.80544,4.11886 13.33218,11.11623 13.96825,16.096c0.24944,1.95283 -5.63896,3.50454 -11.00656,2.25821c-7.3103,-1.69739 -8.69686,1.48187 -8.70262,1.4872c-2.06315,1.90615 -6.92726,0.14394 -5.37337,5.64c0.78756,2.78554 -1.36444,3.72564 0.77038,6.44571c0.73162,0.93218 0.93627,3.66155 0.9179,3.69382c-2.69019,4.72537 -16.89294,-1.71755 -21.55026,-6.75846c-9.31452,-10.08166 -9.34639,-25.92248 -1.86086,-32.8384c7.48553,-6.91593 23.52263,-6.10571 32.83715,3.97596z" fill="#00a735" stroke-linecap="butt"></path><path d="M268.82681,193.63675c1.80774,7.24384 -3.90322,14.6934 -12.75576,16.63906c-8.85253,1.94564 -14.01591,0.43327 -15.82364,-6.81057c-1.36853,-5.48392 1.07166,-8.67623 5.45351,-12.69359c0.71584,-0.6563 6.50551,-6.06798 11.82316,-6.18624c5.12864,-0.11406 10.41524,5.49495 11.30276,9.05134z" fill="#ccf280" stroke-linecap="butt"></path><path d="M251.87366,197.21538c-1.11653,0 -2.02165,-1.83293 -2.02165,-4.09398c0,-2.26104 0.90513,-4.09397 2.02165,-4.09397c1.11652,0 2.02165,1.83293 2.02165,4.09397c0,2.26104 -0.90512,4.09398 -2.02165,4.09398z" fill="#000000" stroke-linecap="butt"></path><path d="M260.94202,196.31369c-1.36152,0 -2.46525,-1.73202 -2.46525,-3.86856c0,-2.13654 1.10374,-3.86855 2.46525,-3.86855c1.36152,0 2.46525,1.732 2.46525,3.86855c0,2.13654 -1.10374,3.86856 -2.46525,3.86856z" fill="#000000" stroke-linecap="butt"></path><path d="M260.27513,201.60619c0,0 -8.15259,4.46206 -10.31674,4.15135c-2.16415,-0.31071 1.33485,-5.44087 1.33485,-5.44087l13.03166,1.83247" fill="#000000" stroke-linecap="round"></path></g></g></g></svg>