<svg version="1.1" xmlns="http://www.w3.org/2000/svg" xmlns:xlink="http://www.w3.org/1999/xlink" width="69.04911" height="73.2684" viewBox="0,0,69.04911,73.2684"><defs><linearGradient x1="255.82513" y1="178.14791" x2="267.38356" y2="198.14602" gradientUnits="userSpaceOnUse" id="color-1"><stop offset="0" stop-color="#ffffff"></stop><stop offset="1" stop-color="#ff5498"></stop></linearGradient><linearGradient x1="248.34576" y1="192.57194" x2="233.42691" y2="210.20572" gradientUnits="userSpaceOnUse" id="color-2"><stop offset="0" stop-color="#ffffff"></stop><stop offset="1" stop-color="#ff5498"></stop></linearGradient><linearGradient x1="234.34295" y1="174.42084" x2="223.44998" y2="154.05259" gradientUnits="userSpaceOnUse" id="color-3"><stop offset="0" stop-color="#ffffff"></stop><stop offset="1" stop-color="#ff5498"></stop></linearGradient><linearGradient x1="236.81457" y1="169.5442" x2="258.52345" y2="161.65457" gradientUnits="userSpaceOnUse" id="color-4"><stop offset="0" stop-color="#ffffff"></stop><stop offset="1" stop-color="#ff5498"></stop></linearGradient><linearGradient x1="243.90015" y1="170.28326" x2="265.1374" y2="179.36623" gradientUnits="userSpaceOnUse" id="color-5"><stop offset="0" stop-color="#ffffff"></stop><stop offset="1" stop-color="#ff5498"></stop></linearGradient><linearGradient x1="245.33853" y1="183.27373" x2="223.62966" y2="191.16338" gradientUnits="userSpaceOnUse" id="color-6"><stop offset="0" stop-color="#ffffff"></stop><stop offset="1" stop-color="#ff5498"></stop></linearGradient><linearGradient x1="238.93077" y1="182.69415" x2="217.6935" y2="173.61118" gradientUnits="userSpaceOnUse" id="color-7"><stop offset="0" stop-color="#ffffff"></stop><stop offset="1" stop-color="#ff5498"></stop></linearGradient><linearGradient x1="245.36383" y1="173.81669" x2="245.36383" y2="196.91477" gradientUnits="userSpaceOnUse" id="color-8"><stop offset="0" stop-color="#ffffff"></stop><stop offset="1" stop-color="#ff5498"></stop></linearGradient></defs><g transform="translate(-205.73872,-144.13925)"><g data-paper-data="{&quot;isPaintingLayer&quot;:true}" fill-rule="nonzero" stroke="#000000" stroke-width="1.28786" stroke-linecap="butt" stroke-linejoin="miter" stroke-miterlimit="10" stroke-dasharray="" stroke-dashoffset="0" style="mix-blend-mode: normal"><g><g data-paper-data="{&quot;index&quot;:null}"><path d="M272.68271,198.21518l-13.21318,-4.47678l4.96694,-5.94004z" fill="#ffe288"></path><path d="M264.08555,196.95844c-0.24123,1.42608 -1.41792,3.91326 -1.41792,3.91326c0,0 -6.86718,-4.11015 -8.57435,-5.80724c-4.55422,-4.52739 -5.44658,-11.01375 -1.99311,-14.48768c3.45347,-3.47394 9.94499,-2.61996 14.49921,1.90744c2.26328,2.24993 7.01796,5.48449 7.01796,5.48449c0,0 -3.23201,2.06039 -4.83318,2.64953c-1.5098,0.5555 -4.377,1.25546 -4.377,1.25546c0,0 -0.03661,3.39979 -0.3216,5.08472z" fill="url(#color-1)"></path><path d="M251.23843,185.5152c-1.82069,-1.80994 -1.21461,-3.45829 0.73273,-5.41717c0.75079,-0.75522 3.19443,-1.82563 4.05158,-0.78765c1.36605,1.65431 0.15578,5.27692 0.15578,5.27692c0,0 -4.80839,1.05881 -4.94005,0.92792z" fill="#8901d0"></path><path d="M263.52622,185.56536c1.8,1.64951 2.9016,3.37693 2.46045,3.85831c-0.44112,0.48139 -2.25796,-0.46557 -4.05796,-2.11507c-1.8,-1.64951 -2.90159,-3.37693 -2.46043,-3.85832c0,0 2.76822,0.93317 4.05795,2.11507z" fill="#000000"></path><path d="M255.665,188.5985c0.44112,-0.48139 2.25796,0.46557 4.05796,2.11507c1.8,1.64951 2.90159,3.37695 2.46045,3.85831c-0.44112,0.48139 -2.25795,-0.46557 -4.05796,-2.11507c-1.8,-1.64951 -2.90161,-3.37693 -2.46045,-3.85831z" fill="#000000"></path></g><g data-paper-data="{&quot;index&quot;:null}"><path d="M235.15169,215.21682l-0.24923,-13.94875l7.2686,2.66872z" fill="#ffe288"></path><path d="M233.43074,206.70041c-1.42375,0.25464 -4.16221,-0.01281 -4.16221,-0.01281c0,0 1.54912,-7.85187 2.56985,-10.03192c2.72306,-5.81576 8.52684,-8.84653 12.96306,-6.76938c4.43624,2.07715 5.82504,8.47563 3.10199,14.29139c-1.35325,2.89022 -2.7918,8.45798 -2.7918,8.45798c0,0 -3.03095,-2.34613 -4.12628,-3.65422c-1.03282,-1.23345 -2.66008,-3.69572 -2.66008,-3.69572c0,0 -3.21237,1.11388 -4.89452,1.41475z" fill="url(#color-2)"></path><path d="M239.86223,190.74318c1.0886,-2.32502 2.84481,-2.31132 5.34631,-1.14007c0.96443,0.45158 2.7973,2.39009 2.10984,3.54743c-1.09567,1.84454 -4.91418,1.92897 -4.91418,1.92897c0,0 -2.62067,-4.16818 -2.54194,-4.33632z" fill="#8901d0"></path><path d="M243.96536,202.32578c-0.94458,2.25137 -2.19841,3.87167 -2.80051,3.61905c-0.60209,-0.25261 -0.32446,-2.2825 0.62013,-4.53387c0.94458,-2.25137 2.19843,-3.87167 2.80051,-3.61904c0,0 0.05667,2.92071 -0.62016,4.53385z" fill="#000000"></path><path d="M238.45522,195.95103c0.60209,0.25261 0.32447,2.28251 -0.62013,4.53386c-0.94458,2.25137 -2.19843,3.87169 -2.8005,3.61905c-0.60209,-0.25261 -0.32447,-2.28248 0.62013,-4.53386c0.94458,-2.25137 2.19841,-3.87167 2.80051,-3.61906z" fill="#000000"></path></g><g fill="#03b000"><path d="M223.20264,188.11353c-3.91134,-10.06833 0.77393,-21.28224 10.46485,-25.04696c9.69092,-3.76472 20.71772,1.34536 24.62906,11.4137c1.98391,5.10688 1.75616,10.50849 -0.2147,15.08323c-1.91472,4.4445 11.76721,6.70721 6.99172,8.56242c-0.44081,0.17124 -7.8902,-1.84682 -8.37347,0.40868c-0.47085,2.19753 6.05182,8.66872 3.5963,8.93035c-1.08714,0.11583 -5.63948,-7.64331 -8.71405,-6.33389c-2.90526,1.23733 -4.32613,11.56914 -5.76793,10.9586c-4.73345,-2.00438 -2.9563,-11.38635 -3.55854,-11.35271c-8.02577,0.44835 -15.8805,-4.45628 -19.05327,-12.6234z"></path><path d="M257.19403,176.28878c0,8.39753 -9.81877,-0.40831 -16.9716,2.36331c-2.04755,0.79339 -1.63237,11.35361 -3.94611,11.35361c-10.39649,0 -16.73131,-2.91555 -16.73131,-13.71693c0,-5.47869 2.1683,-10.43122 5.66197,-13.98183c3.3942,-3.44952 -8.53982,-10.5131 -3.41665,-10.5131c0.47289,0 6.68593,4.57864 7.95317,2.65122c1.23466,-1.87788 -2.50202,-10.27186 -0.11842,-9.62658c1.05529,0.28567 2.48901,9.16674 5.82907,9.05952c3.15615,-0.10132 8.2219,-9.21743 9.34476,-8.12625c3.6864,3.58241 -1.36748,11.68412 -0.79395,11.87084c7.64346,2.48833 13.18906,9.9044 13.18906,18.66616z"></path><path d="M255.16182,165.70932c0.41919,0.43369 5.48656,-7.6596 10.32219,-5.91606c1.47289,0.53108 -4.50108,9.07958 -3.20896,11.96088c1.36742,3.0492 9.9785,0.44579 10.69777,1.26914c1.62465,1.85972 -7.5579,2.17966 -8.70476,4.11241c-1.17711,1.98375 5.66129,5.56178 5.86852,5.98685c2.24524,4.60497 -9.33398,-3.02633 -10.94709,1.5363c-1.66037,4.69636 -5.381,-10.83926 -10.30554,-8.43822c-0.29769,0.14516 -6.55777,-1.19281 -6.85869,-1.06353c-9.51337,4.08757 -14.33474,21.42762 -18.75129,12.36922c-4.55626,-9.34491 -0.37925,-20.75788 9.3296,-25.4916c7.87556,-3.83983 16.97187,-2.10525 22.55826,3.67459z" data-paper-data="{&quot;index&quot;:null}"></path><path d="M246.94399,160.01244c9.70886,4.7337 13.88586,16.14669 9.3296,25.49161c-2.02197,4.14707 -14.37499,-8.87698 -18.3826,-7.18868c-5.02305,2.11606 -2.0464,18.17102 -7.44668,15.53802c-4.92453,-2.40104 -8.42587,-6.52047 -10.08626,-11.21683c-1.61309,-4.56263 -13.19231,3.06868 -10.94708,-1.5363c0.20724,-0.42507 7.04564,-4.0031 5.86852,-5.98685c-1.14686,-1.93275 -10.32941,-2.25269 -8.70476,-4.11241c0.71927,-0.82335 9.33036,1.78008 10.69776,-1.26914c1.29212,-2.88131 -4.68186,-11.4298 -3.20896,-11.96088c4.83561,-1.74356 9.903,6.34974 10.32219,5.91605c5.58638,-5.77983 14.68272,-7.51442 22.55825,-3.67459z"></path><path d="M227.34355,163.09098c8.34203,-6.86153 20.45842,-5.91484 27.06274,2.11447c6.60432,8.02932 -9.1179,9.13696 -17.45992,15.99849c-3.06176,2.51836 -2.46653,5.55933 -1.94308,9.18329c0.19994,1.38424 3.23286,6.41192 1.86154,6.28956c-4.82024,-0.43009 -2.6945,13.27381 -5.94897,9.31711c-0.3004,-0.36522 -0.71109,-8.07217 -3.00466,-7.82648c-2.2346,0.23938 -6.34366,8.45748 -7.35949,6.20669c-0.44974,-0.99648 5.49844,-7.7454 3.29388,-10.25686c-2.08317,-2.37317 -12.34164,-0.49452 -12.21217,-2.05489c0.42497,-5.12277 9.89246,-6.36616 9.67233,-6.92773c-2.9337,-7.48383 -0.729,-16.4778 6.03779,-22.04366z"></path></g><g data-paper-data="{&quot;index&quot;:null}"><path d="M218.15597,153.8088l13.05844,4.90987l-5.16003,5.7731z" fill="#ffe288"></path><path d="M226.70706,155.34823c0.28809,-1.41734 1.54612,-3.86441 1.54612,-3.86441c0,0 6.72797,4.33429 8.37828,6.08672c4.40253,4.67506 5.08058,11.1873 1.51448,14.54552c-3.56612,3.35822 -10.02595,2.29072 -14.42847,-2.38431c-2.18791,-2.32331 -6.83336,-5.71285 -6.83336,-5.71285c0,0 3.29814,-1.95276 4.91787,-2.48878c1.52728,-0.50544 4.416,-1.11052 4.416,-1.11052c0,0 0.14865,-3.39673 0.48902,-5.07136z" fill="url(#color-3)"></path><path d="M239.16999,167.20874c1.76004,1.86897 1.09995,3.49646 -0.91087,5.3901c-0.77526,0.73006 -3.25289,1.71935 -4.07535,0.65367c-1.31079,-1.69844 0.01825,-5.27919 0.01825,-5.27919c0,0 4.84067,-0.89974 4.96797,-0.76458z" fill="#8901d0"></path><path d="M226.89055,166.75358c-1.74468,-1.70794 -2.78872,-3.47075 -2.33193,-3.93733c0.45676,-0.46658 2.24139,0.53974 3.98604,2.24767c1.74468,1.70794 2.7887,3.47075 2.33191,3.93731c0,0 -2.73592,-1.02392 -3.98601,-2.2477z" fill="#000000"></path><path d="M234.84748,163.98119c-0.45676,0.46658 -2.2414,-0.53972 -3.98603,-2.24767c-1.74468,-1.70794 -2.78872,-3.47076 -2.33193,-3.93731c0.45676,-0.46658 2.24137,0.53972 3.98603,2.24767c1.74468,1.70794 2.78873,3.47075 2.33194,3.93733z" fill="#000000"></path></g><g><path d="M259.51667,156.44885l-6.71479,12.22871l-4.98168,-5.92769z" fill="#ffe288"></path><path d="M256.77834,164.6946c1.36206,0.48647 3.60562,2.07932 3.60562,2.07932c0,0 -5.24591,6.04419 -7.21496,7.42884c-5.25295,3.6939 -11.79547,3.44013 -14.61316,-0.56677c-2.81768,-4.00693 -0.84352,-10.24966 4.40942,-13.94357c2.61051,-1.83573 6.62549,-5.95268 6.62549,-5.95268c0,0 1.46451,3.54207 1.76506,5.22151c0.2834,1.5836 0.47205,4.52896 0.47205,4.52896c0,0 3.34119,0.62959 4.95049,1.20435z" fill="url(#color-4)"></path><path d="M243.26796,175.34664c-2.1,1.47673 -3.61725,0.59219 -5.20606,-1.66721c-0.61256,-0.8711 -1.23991,-3.46409 -0.06823,-4.12687c1.86739,-1.05626 5.22308,0.76786 5.22308,0.76786c0,0 0.2031,4.91939 0.05123,5.02619z" fill="#8901d0"></path><path d="M245.46255,163.25633c1.93841,-1.4844 3.83164,-2.26749 4.22861,-1.74908c0.39698,0.5184 -0.8526,2.14201 -2.79104,3.6264c-1.93841,1.4844 -3.83164,2.26748 -4.22861,1.74907c0,0 1.40212,-2.56277 2.79104,-3.62637z" fill="#000000"></path><path d="M247.07672,171.52635c-0.39698,-0.5184 0.8526,-2.14201 2.79104,-3.6264c1.93841,-1.4844 3.83164,-2.26749 4.22861,-1.74908c0.39698,0.5184 -0.85261,2.142 -2.79104,3.6264c-1.93841,1.4844 -3.83164,2.26751 -4.22861,1.74908z" fill="#000000"></path></g><g><path d="M269.4211,176.24601l-13.26061,4.33429l0.41667,-7.73183z" fill="#ffe288"></path><path d="M261.78549,180.3919c0.66148,1.2862 1.20996,3.98247 1.20996,3.98247c0,0 -7.9606,0.82487 -10.34428,0.48932c-6.35899,-0.89523 -10.96041,-5.55314 -10.27754,-10.40374c0.68288,-4.85061 6.39143,-8.05709 12.75043,-7.16185c3.1602,0.44489 8.90491,0.18503 8.90491,0.18503c0,0 -1.35268,3.58627 -2.28146,5.01742c-0.87578,1.34947 -2.75165,3.62806 -2.75165,3.62806c0,0 2.00807,2.74365 2.78963,4.26331z" fill="url(#color-5)"></path><path d="M244.6432,178.9298c-2.54219,-0.35788 -3.0448,-2.04069 -2.65975,-4.77583c0.14844,-1.05451 1.46327,-3.37583 2.77149,-3.05852c2.08495,0.50573 3.28697,4.13109 3.28697,4.13109c0,0 -3.21485,3.72912 -3.3987,3.70325z" fill="#8901d0"></path><path d="M254.51025,171.60632c2.4295,0.24184 4.34656,0.96457 4.28186,1.61431c-0.06467,0.64972 -2.0866,0.98041 -4.51608,0.73856c-2.4295,-0.24184 -4.34655,-0.96461 -4.28186,-1.61434c0,0 2.7753,-0.91182 4.51608,-0.73855z" fill="#000000"></path><path d="M250.03461,178.74546c0.06467,-0.64972 2.0866,-0.98041 4.51608,-0.73856c2.4295,0.24184 4.34655,0.96459 4.28186,1.61431c-0.06467,0.64972 -2.08659,0.9804 -4.51608,0.73856c-2.4295,-0.24184 -4.34656,-0.96457 -4.28186,-1.61431z" fill="#000000"></path></g><g data-paper-data="{&quot;index&quot;:null}"><path d="M222.63643,196.36908l6.71479,-12.22871l4.98168,5.92769z" fill="#ffe288"></path><path d="M225.37476,188.12334c-1.36206,-0.48648 -3.60562,-2.07932 -3.60562,-2.07932c0,0 5.24591,-6.04418 7.21496,-7.42884c5.25295,-3.6939 11.79547,-3.44016 14.61316,0.56676c2.81768,4.00693 0.84352,10.24966 -4.40942,13.94356c-2.61051,1.83573 -6.62548,5.9527 -6.62548,5.9527c0,0 -1.46451,-3.54207 -1.76506,-5.22151c-0.2834,-1.5836 -0.47205,-4.52896 -0.47205,-4.52896c0,0 -3.34119,-0.62959 -4.95049,-1.20435z" fill="url(#color-6)"></path><path d="M238.88513,177.47129c2.1,-1.47676 3.61723,-0.59219 5.20606,1.66721c0.61256,0.8711 1.23991,3.46409 0.06823,4.12687c-1.86739,1.05626 -5.22308,-0.76787 -5.22308,-0.76787c0,0 -0.2031,-4.91939 -0.05123,-5.02619z" fill="#8901d0"></path><path d="M236.69053,189.56162c-1.93841,1.4844 -3.83164,2.26749 -4.22861,1.74908c-0.39698,-0.5184 0.85261,-2.14201 2.79104,-3.6264c1.93841,-1.4844 3.83164,-2.26748 4.22861,-1.74907c0,0 -1.40212,2.56279 -2.79104,3.62637z" fill="#000000"></path><path d="M235.07638,181.29158c0.39698,0.5184 -0.85261,2.14201 -2.79104,3.6264c-1.93841,1.4844 -3.83165,2.26748 -4.22861,1.74908c-0.39698,-0.5184 0.85261,-2.142 2.79104,-3.6264c1.93841,-1.4844 3.83164,-2.26751 4.22861,-1.74908z" fill="#000000"></path></g><g data-paper-data="{&quot;index&quot;:null}"><path d="M213.40979,176.73141l13.26061,-4.33429l-0.41664,7.73183z" fill="#ffe288"></path><path d="M221.0454,172.58549c-0.66148,-1.2862 -1.20997,-3.98247 -1.20997,-3.98247c0,0 7.96062,-0.82487 10.34428,-0.48932c6.35901,0.89523 10.96041,5.55314 10.27754,10.40374c-0.68288,4.85061 -6.39143,8.05709 -12.75043,7.16188c-3.16018,-0.44488 -8.90491,-0.18504 -8.90491,-0.18504c0,0 1.35265,-3.58627 2.28143,-5.01742c0.87578,-1.34947 2.75165,-3.62806 2.75165,-3.62806c0,0 -2.00807,-2.74365 -2.78965,-4.26331z" fill="url(#color-7)"></path><path d="M238.18771,174.04761c2.54219,0.35788 3.04479,2.04069 2.65975,4.77583c-0.14847,1.05452 -1.46329,3.37583 -2.77149,3.05852c-2.08497,-0.50573 -3.28697,-4.1311 -3.28697,-4.1311c0,0 3.21485,-3.72912 3.3987,-3.70325z" fill="#8901d0"></path><path d="M228.32064,181.37107c-2.4295,-0.24183 -4.34656,-0.96457 -4.28186,-1.61433c0.06467,-0.64972 2.0866,-0.9804 4.51609,-0.73856c2.4295,0.24183 4.34655,0.96459 4.28185,1.61433c0,0 -2.7753,0.91182 -4.51608,0.73855z" fill="#000000"></path><path d="M232.7963,174.23193c-0.06467,0.64972 -2.0866,0.98041 -4.51608,0.73856c-2.4295,-0.24183 -4.34656,-0.96459 -4.28186,-1.61431c0.06467,-0.64972 2.08659,-0.9804 4.51608,-0.73856c2.4295,0.24183 4.34656,0.96457 4.28187,1.61431z" fill="#000000"></path></g><g><path d="M249.87732,199.74599l-9.19965,-10.4879l7.27277,-2.65734z" fill="#ffe288"></path><path d="M243.1027,194.23624c-0.92246,1.11397 -3.18584,2.67853 -3.18584,2.67853c0,0 -3.88882,-6.9949 -4.51761,-9.3185c-1.67748,-6.19873 0.79575,-12.26111 5.5241,-13.54068c4.72838,-1.27957 9.92132,2.7082 11.5988,8.90694c0.83365,3.08054 3.33159,8.26027 3.33159,8.26027c0,0 -3.82926,0.16655 -5.51036,-0.12462c-1.58514,-0.27456 -4.4178,-1.1033 -4.4178,-1.1033c0,0 -1.73296,2.9252 -2.82286,4.24138z" fill="url(#color-8)"></path><path d="M237.66621,178.01962c-0.67063,-2.4781 0.67896,-3.60199 3.34517,-4.3235c1.02793,-0.27817 3.67926,0.01789 3.90196,1.34549c0.3549,2.11586 -2.50574,4.64665 -2.50574,4.64665c0,0 -4.69289,-1.48943 -4.74138,-1.66865z" fill="#8901d0"></path><path d="M248.27976,184.21192c0.73301,2.32887 0.82234,4.37568 0.19951,4.57171c-0.62282,0.19604 -1.72195,-1.53297 -2.45495,-3.86184c-0.73301,-2.32887 -0.82233,-4.37568 -0.1995,-4.57171c0,0 1.92971,2.19316 2.45493,3.86184z" fill="#000000"></path><path d="M239.95578,182.9042c0.62282,-0.19604 1.72195,1.53297 2.45495,3.86184c0.73301,2.32887 0.82233,4.37568 0.19951,4.57171c-0.62282,0.19604 -1.72194,-1.53297 -2.45495,-3.86184c-0.73301,-2.32887 -0.82234,-4.37568 -0.19951,-4.57171z" fill="#000000"></path></g></g></g></g></svg>