<svg version="1.1" xmlns="http://www.w3.org/2000/svg" xmlns:xlink="http://www.w3.org/1999/xlink" width="72.31658" height="61.53765" viewBox="0,0,72.31658,61.53765"><defs><linearGradient x1="242.16715" y1="187.16868" x2="242.16715" y2="200.90626" gradientUnits="userSpaceOnUse" id="color-1"><stop offset="0" stop-color="#40f7b4"></stop><stop offset="1" stop-color="#33d6ff"></stop></linearGradient><linearGradient x1="245.62182" y1="182.97363" x2="262.17906" y2="182.97363" gradientUnits="userSpaceOnUse" id="color-2"><stop offset="0" stop-color="#40f7b4"></stop><stop offset="1" stop-color="#33d6ff"></stop></linearGradient><radialGradient cx="266.21186" cy="180.69485" r="10.50371" gradientUnits="userSpaceOnUse" id="color-3"><stop offset="0" stop-color="#fcfcfc"></stop><stop offset="1" stop-color="#63e0fc"></stop></radialGradient><linearGradient x1="244.76014" y1="187.56562" x2="264.75065" y2="187.56562" gradientUnits="userSpaceOnUse" id="color-4"><stop offset="0" stop-color="#40f7b4"></stop><stop offset="1" stop-color="#33d6ff"></stop></linearGradient></defs><g transform="translate(-203.52443,-149.11696)"><g data-paper-data="{&quot;isPaintingLayer&quot;:true}" fill-rule="nonzero" stroke="#000000" stroke-width="1.28786" stroke-linejoin="miter" stroke-miterlimit="10" stroke-dasharray="" stroke-dashoffset="0" style="mix-blend-mode: normal"><path d="M239.35259,199.84776c0,0 1.32738,-4.30061 1.58125,-6.36214c0.22667,-1.84067 -0.13035,-5.4197 -0.13035,-5.4197l3.39244,-0.89723c0,0 0.84543,4.91107 0.78241,7.14834c-0.06584,2.33752 -1.1694,6.58921 -1.1694,6.58921z" fill="url(#color-1)" stroke-linecap="round"></path><path d="M245.62182,186.56393l16.33673,-12.98364c0,0 0.58914,5.08928 -0.15848,8.20251c-0.74762,3.11322 -0.99561,5.09025 -3.43679,6.76891c-2.44118,1.67866 -11.9551,3.81527 -11.9551,3.81527z" fill="url(#color-2)" stroke-linecap="round"></path><path d="M251.9113,174.59901c0,8.48029 -6.76277,15.35493 -15.10506,15.35493c-8.34229,0 -15.10505,-6.87464 -15.10505,-15.35493c0,-8.48029 6.76276,-15.35495 15.10505,-15.35495c8.34229,0 15.10506,6.87464 15.10506,15.35495z" fill="#40f7b4" stroke-linecap="butt"></path><g fill="#000000"><path d="M239.4465,178.55861c0.84838,2.94839 0.31191,5.69081 -1.19825,6.12534c-1.51015,0.43454 -3.42213,-1.60335 -4.27051,-4.55174c-0.84838,-2.94839 -0.31192,-5.69081 1.19824,-6.12534c1.51015,-0.43454 3.42213,1.60335 4.27051,4.55174z" stroke-linecap="butt"></path><path d="M234.33999,180.27884l-5.42568,-2.06287l2.49619,-1.12093l-2.84792,-2.20059l5.39497,-0.14301z" stroke-linecap="round"></path></g><g data-paper-data="{&quot;index&quot;:null}" fill="#000000"><path d="M244.27482,168.04483c1.35099,-0.80262 3.71651,0.68498 5.28353,3.32263c1.56702,2.63765 1.74215,5.42656 0.39115,6.22918c-1.35099,0.80262 -3.71651,-0.68497 -5.28354,-3.32262c-1.56702,-2.63765 -1.74214,-5.42657 -0.39115,-6.22919z" stroke-linecap="butt"></path><path d="M245.6519,167.66713l3.79955,-3.83269l-0.34742,3.58226l2.52649,-1.05087l-2.21344,5.36602z" stroke-linecap="round"></path></g><path d="M238.57871,187.0019c0,0 -4.52818,0.00817 -7.23997,-1.61498c-1.24926,-0.74776 -0.77001,-2.25446 -0.77001,-2.25446" fill="none" stroke-linecap="round"></path><path d="M254.18965,182.47155c0,-5.80103 4.70268,-10.50371 10.50371,-10.50371c5.80103,0 10.50371,4.70268 10.50371,10.50371c0,5.80103 -4.70268,10.5037 -10.50371,10.5037c-5.80103,0 -10.50371,-4.70267 -10.50371,-10.5037z" fill="url(#color-3)" stroke-linecap="butt"></path><path d="M245.54701,188.68932l19.20364,-8.16603c0,0 -0.78697,5.06247 -2.3364,7.86432c-1.54942,2.80186 -2.31477,4.64151 -5.11474,5.60972c-2.79997,0.96821 -12.53937,0.49498 -12.53937,0.49498z" fill="url(#color-4)" stroke-linecap="round"></path><path d="M240.2047,194.93862c6.25872,0.68806 19.24976,10.59506 19.24976,10.59506c0,0 -0.4912,3.88642 -5.39269,4.47699c-7.78565,0.93808 -21.73359,-1.29369 -24.9001,-1.6418c-1.25494,-0.13797 -2.90878,-0.80851 -3.44666,-1.54624c-0.9068,-1.24371 -0.1737,-2.75126 -0.1737,-2.75126c0,0 8.40469,-9.82081 14.6634,-9.13275z" fill="#d7ffff" stroke-linecap="round"></path><path d="M220.78487,186.99377l-3.61711,-15.19185l-8.9222,9.88676l4.22846,-21.01124l-7.6711,-5.01572l10.32648,-5.31076l10.14779,1.78653l9.02996,-1.49149l10.32648,9.73639l-7.08101,-2.0653l2.36034,13.57194l-10.32648,-5.90084l-7.37606,17.70253z" fill="#b7effc" stroke-linecap="round"></path><path d="M208.34344,168.05351c0,-2.60716 2.11351,-4.72068 4.72068,-4.72068c2.60716,0 4.72068,2.11351 4.72068,4.72068c0,2.60716 -2.11352,4.72068 -4.72068,4.72068c-2.60716,0 -4.72068,-2.11352 -4.72068,-4.72068z" fill="#fff6bf" stroke-linecap="butt"></path><path d="M218.66992,155.21918c0,-3.01453 2.44375,-5.45829 5.45828,-5.45829c3.01453,0 5.45829,2.44376 5.45829,5.45829c0,3.01453 -2.44376,5.45828 -5.45829,5.45828c-3.01453,0 -5.45828,-2.44375 -5.45828,-5.45828z" fill="#fff6bf" stroke-linecap="butt"></path><path d="M214.53932,162.89026c0,-3.34042 2.70794,-6.04836 6.04837,-6.04836c3.34042,0 6.04837,2.70794 6.04837,6.04836c0,3.34042 -2.70794,6.04837 -6.04837,6.04837c-3.34042,0 -6.04837,-2.70794 -6.04837,-6.04837z" fill="#fff6bf" stroke-linecap="butt"></path></g></g></svg>