<svg version="1.1" xmlns="http://www.w3.org/2000/svg" xmlns:xlink="http://www.w3.org/1999/xlink" width="240.46738" height="235.55989" viewBox="0,0,240.46738,235.55989"><g transform="translate(-209.09822,-72.22675)"><g stroke="none" stroke-miterlimit="10"><text transform="translate(286.34761,180.76347) scale(0.73662,-0.73662)" font-size="40" xml:space="preserve" fill="#830087" stroke-width="1" font-family="Sans Serif" font-weight="normal" text-anchor="start"><tspan x="0" dy="0">boom</tspan></text><path d="M267.49745,208.32802c26.83233,0 48.58423,21.7519 48.58423,48.58423c0,26.83233 -21.7519,48.58423 -48.58423,48.58423c-26.83233,0 -48.58423,-21.7519 -48.58423,-48.58423c0,-26.83233 21.7519,-48.58423 48.58423,-48.58423z" fill="#830087" stroke-width="0"/><path d="M254.08361,172.01254c24.84474,0 44.98539,20.14064 44.98539,44.98539c0,24.84474 -20.14064,44.98539 -44.98539,44.98539c-24.84474,0 -44.98539,-20.14064 -44.98539,-44.98539c0,-24.84474 20.14064,-44.98539 44.98539,-44.98539z" fill="#830087" stroke-width="0"/><path d="M268.80611,139.29589c24.66406,0 44.65823,19.99417 44.65823,44.65823c0,24.66406 -19.99417,44.65823 -44.65823,44.65823c-24.66406,0 -44.65823,-19.99417 -44.65823,-44.65823c0,-24.66406 19.99417,-44.65823 44.65823,-44.65823z" fill="#830087" stroke-width="0"/><path d="M265.86161,116.06706c24.12199,0 43.67673,19.55474 43.67673,43.67673c0,24.12199 -19.55474,43.67673 -43.67673,43.67673c-24.12199,0 -43.67673,-19.55474 -43.67673,-43.67673c0,-24.12199 19.55474,-43.67673 43.67673,-43.67673z" fill="#830087" stroke-width="0"/><path d="M285.81877,99.0544c31.53025,0 57.09056,25.56032 57.09056,57.09056c0,31.53025 -25.56032,57.09056 -57.09056,57.09056c-31.53025,0 -57.09056,-25.56032 -57.09056,-57.09056c0,-31.53025 25.56032,-57.09056 57.09056,-57.09056z" fill="#830087" stroke-width="0"/><path d="M257.68245,90.22091c21.59235,0 39.0964,17.50406 39.0964,39.0964c0,21.59235 -17.50406,39.0964 -39.0964,39.0964c-21.59235,0 -39.0964,-17.50406 -39.0964,-39.0964c0,-21.59235 17.50406,-39.0964 39.0964,-39.0964z" fill="#830087" stroke-width="0"/><path d="M343.23649,202.76619c27.46474,0 49.72931,22.26457 49.72931,49.72931c0,27.46474 -22.26457,49.72931 -49.72931,49.72931c-27.46474,0 -49.72931,-22.26457 -49.72931,-49.72931c0,-27.46474 22.26457,-49.72931 49.72931,-49.72931z" fill="#830087" stroke-width="0"/><path d="M366.46531,147.14789c29.27163,0 53.00097,23.72934 53.00097,53.00097c0,29.27163 -23.72934,53.00097 -53.00097,53.00097c-29.27163,0 -53.00097,-23.72934 -53.00097,-53.00097c0,-29.27163 23.72934,-53.00097 53.00097,-53.00097z" fill="#830087" stroke-width="0"/><path d="M393.62013,195.8957c30.89783,0 55.94547,25.04764 55.94547,55.94547c0,30.89783 -25.04764,55.94547 -55.94547,55.94547c-30.89783,0 -55.94547,-25.04764 -55.94547,-55.94547c0,-30.89783 25.04764,-55.94547 55.94547,-55.94547z" fill="#830087" stroke-width="0"/><path d="M304.95801,260.02032c11.5641,0 20.93866,9.37456 20.93866,20.93866c0,11.5641 -9.37456,20.93866 -20.93866,20.93866c-11.5641,0 -20.93866,-9.37456 -20.93866,-20.93866c0,-11.5641 9.37456,-20.93866 20.93866,-20.93866z" fill="#830087" stroke-width="0"/><path d="M377.09823,72.22675c32.43369,0 58.72639,26.2927 58.72639,58.72639c0,32.43369 -26.2927,58.72639 -58.72639,58.72639c-32.43369,0 -58.72639,-26.2927 -58.72639,-58.72639c0,-32.43369 26.2927,-58.72639 58.72639,-58.72639z" fill="#830087" stroke-width="0"/><path d="M341.43707,84.10991c20.32752,0 36.80623,16.47871 36.80623,36.80623c0,20.32752 -16.47871,36.80623 -36.80623,36.80623c-20.32752,0 -36.80623,-16.47871 -36.80623,-36.80623c0,-20.32752 16.47871,-36.80623 36.80623,-36.80623z" fill="#830087" stroke-width="0"/><path d="M414.06804,180.95119c11.29307,0 20.44791,9.15484 20.44791,20.44791c0,11.29307 -9.15484,20.44791 -20.44791,20.44791c-11.29307,0 -20.44791,-9.15484 -20.44791,-20.44791c0,-11.29307 9.15484,-20.44791 20.44791,-20.44791z" fill="#830087" stroke-width="0"/><path d="M340.61916,190.2287v48.42064h-63.4703v-48.42064z" fill="#830087" stroke-width="0"/><text transform="translate(234.20396,211.5603) scale(0.93068,0.93068)" font-size="40" xml:space="preserve" fill="#ffc300" stroke-width="1" font-family="Sans Serif" font-weight="normal" text-anchor="start"><tspan x="0" dy="0">SPROING!</tspan></text></g></g></svg>