<svg version="1.1" xmlns="http://www.w3.org/2000/svg" xmlns:xlink="http://www.w3.org/1999/xlink" width="64.79223" height="88.4087" viewBox="0,0,64.79223,88.4087"><g transform="translate(-207.55979,-137.40138)"><g data-paper-data="{&quot;isPaintingLayer&quot;:true}" fill-rule="nonzero" stroke-linejoin="miter" stroke-miterlimit="10" stroke-dasharray="" stroke-dashoffset="0" style="mix-blend-mode: normal"><path d="M208.55231,222.40698v-84.81396h62.89539v84.81396z" fill="#515151" stroke="none" stroke-width="0" stroke-linecap="butt"></path><path d="M233.89085,206.37019c-4.55744,0 -8.25197,-1.9316 -8.25197,-4.31435c0,-2.38274 3.69453,-4.31435 8.25197,-4.31435c4.55744,0 8.25196,1.9316 8.25196,4.31435c0,2.38275 -3.69452,4.31435 -8.25196,4.31435z" fill="#00ff50" stroke="#000000" stroke-width="1.28786" stroke-linecap="butt"></path><path d="M258.92124,202.412c0,2.45762 -4.03232,4.44992 -9.00642,4.44992c-4.97411,0 -9.00643,-1.9923 -9.00643,-4.44992c0,-2.45762 4.03232,-4.4499 9.00643,-4.4499c4.97411,0 9.00642,1.99229 9.00642,4.4499z" fill="#00ff50" stroke="#000000" stroke-width="1.28786" stroke-linecap="butt"></path><path d="M253.77671,190.68334c0,6.69997 -5.64283,12.13138 -12.60361,12.13138c-6.96078,0 -12.60361,-5.43141 -12.60361,-12.13138c0,-3.39915 3.41156,-5.03065 5.59787,-13.14053c2.12307,-7.87533 2.62861,-16.01141 2.94813,-15.6986c2.62038,2.56532 7.59392,8.66796 9.77998,16.09669c2.29521,7.79963 6.88124,9.50353 6.88124,12.74245z" fill="#00ff50" stroke="#000000" stroke-width="1.28786" stroke-linecap="butt"></path><path d="M234.5008,174.26554c2.3231,5.28974 1.40908,10.80641 -2.04154,12.32182c-3.45062,1.51541 -8.13114,-1.54428 -10.45424,-6.83401c-2.3231,-5.28974 -1.40908,-10.80641 2.04154,-12.32182c3.45062,-1.51541 8.13114,1.54428 10.45424,6.83401z" fill="#ffff00" stroke="#000000" stroke-width="1.28786" stroke-linecap="butt"></path><path d="M254.93188,163.02686c3.45062,1.51541 4.36465,7.03208 2.04155,12.32182c-2.32311,5.28974 -7.00364,8.34943 -10.45426,6.83401c-3.45061,-1.51541 -4.36463,-7.03208 -2.04153,-12.32182c2.3231,-5.28974 7.00363,-8.34943 10.45424,-6.83402z" data-paper-data="{&quot;index&quot;:null}" fill="#ffff00" stroke="#000000" stroke-width="1.28786" stroke-linecap="butt"></path><path d="M241.98964,158.07485c1.52315,5.57298 -0.18915,10.89624 -3.82454,11.88983c-3.63539,0.99358 -7.8172,-2.71875 -9.34035,-8.29173c-1.52315,-5.57298 0.18915,-10.89623 3.82454,-11.88981c3.63539,-0.99358 7.8172,2.71874 9.34035,8.29172z" fill="#ffff00" stroke="#000000" stroke-width="1.28786" stroke-linecap="butt"></path><path d="M239.5901,189.27552c0,3.70526 -0.98319,6.70897 -2.19603,6.70897c-1.21284,0 -2.19603,-3.00371 -2.19603,-6.70897c0,-3.70526 0.98319,-6.70897 2.19603,-6.70897c1.21284,0 2.19603,3.00371 2.19603,6.70897z" fill="#000000" stroke="#000000" stroke-width="1.28786" stroke-linecap="butt"></path><path d="M245.86867,189.4378c0,3.70526 -0.98319,6.70896 -2.19603,6.70896c-1.21284,0 -2.19604,-3.00371 -2.19604,-6.70896c0,-3.70526 0.9832,-6.70896 2.19604,-6.70896c1.21284,0 2.19603,3.00371 2.19603,6.70896z" fill="#000000" stroke="#000000" stroke-width="1.28786" stroke-linecap="butt"></path><path d="M244.96559,197.92444c0,0 0.20929,2.25731 -7.44612,1.87426c-1.78173,-0.08915 -4.46364,-3.26186 -4.46364,-3.26186" fill="none" stroke="#000000" stroke-width="1.28786" stroke-linecap="round"></path><path d="M208.55232,222.38702v-12.81396h62.89539v12.81396z" fill="#969696" stroke="none" stroke-width="0" stroke-linecap="butt"></path><path d="M208.50228,222.35702v-84.81396h8.64539v84.81396z" fill="#969696" stroke="none" stroke-width="0" stroke-linecap="butt"></path><path d="M264.05232,222.40701v-84.81396h8.14539v84.81396z" fill="#969696" stroke="none" stroke-width="0" stroke-linecap="butt"></path><path d="M208.55232,147.90701v-10.31396h62.89539v10.31396z" fill="#969696" stroke="none" stroke-width="0" stroke-linecap="butt"></path><path d="M216.29733,211.48042v-21.00188l21.13534,21.00188z" fill="#969696" stroke="none" stroke-width="0" stroke-linecap="butt"></path><path d="M223.4118,215.22399v-12.15842h44.05785v12.15842z" fill="#969696" stroke="none" stroke-width="0" stroke-linecap="butt"></path><text transform="translate(256.44146,219.56008) scale(0.47116,0.5)" font-size="40" xml:space="preserve" fill="#000000" fill-rule="nonzero" stroke="none" stroke-width="1" stroke-linecap="butt" stroke-linejoin="miter" stroke-miterlimit="10" stroke-dasharray="" stroke-dashoffset="0" font-family="Sans Serif" font-weight="normal" text-anchor="start" style="mix-blend-mode: normal"><tspan x="0" dy="0">0</tspan></text><g stroke-linecap="butt"><path d="M223.93599,213.69347l-2.65375,6.84999l-2.38631,-6.84999z" data-paper-data="{&quot;index&quot;:null}" fill="#ffff00" stroke="#ffff00" stroke-width="1"></path><path d="M218.96774,202.31762l2.38632,-6.84999l2.65375,6.84999z" fill="#ffff00" stroke="#ffff00" stroke-width="1"></path><path d="M214.78434,208.21682c0,-3.72115 3.01658,-6.73773 6.73773,-6.73773c3.72115,0 6.73772,3.01658 6.73772,6.73773c0,3.72115 -3.01658,6.73772 -6.73772,6.73772c-3.72115,0 -6.73773,-3.01658 -6.73773,-6.73772z" fill="#ffff00" stroke="none" stroke-width="0"></path><path d="M227.21235,205.68172l6.87114,2.59848l-6.83054,2.44142z" data-paper-data="{&quot;index&quot;:null}" fill="#ffff00" stroke="#ffff00" stroke-width="1"></path><path d="M215.87691,210.74146l-6.86899,-2.33105l6.82838,-2.70885z" fill="#ffff00" stroke="#ffff00" stroke-width="1"></path><path d="M227.52793,210.32821l3.04475,6.68537l-6.56714,-3.08051z" data-paper-data="{&quot;index&quot;:null}" fill="#ffff00" stroke="#ffff00" stroke-width="1"></path><path d="M215.91925,205.9314l-3.23165,-6.49409l6.75404,2.88922z" fill="#ffff00" stroke="#ffff00" stroke-width="1"></path><path d="M224.08736,202.38559l6.66063,-3.0985l-3.02751,6.59174z" data-paper-data="{&quot;index&quot;:null}" fill="#ffff00" stroke="#ffff00" stroke-width="1"></path><path d="M219.78421,214.02932l-6.46785,3.28387l2.83472,-6.7771z" fill="#ffff00" stroke="#ffff00" stroke-width="1"></path><path d="M216.80058,208.41738c0,-2.70702 2.19448,-4.90151 4.9015,-4.90151c2.70702,0 4.90151,2.19448 4.90151,4.90151c0,2.70702 -2.19448,4.9015 -4.90151,4.9015c-2.70702,0 -4.9015,-2.19448 -4.9015,-4.9015z" fill="#fffff7" stroke="none" stroke-width="0"></path></g><path d="M272.35202,137.40138v33.64619l-33.86,-33.64619z" fill="#f8ff00" stroke="none" stroke-width="0" stroke-linecap="butt"></path></g></g></svg>