<svg version="1.1" xmlns="http://www.w3.org/2000/svg" xmlns:xlink="http://www.w3.org/1999/xlink" width="67.15686" height="44.78348" viewBox="0,0,67.15686,44.78348"><defs><linearGradient x1="298.604" y1="177.50123" x2="298.604" y2="197.23826" gradientUnits="userSpaceOnUse" id="color-1"><stop offset="0" stop-color="#fde600"/><stop offset="1" stop-color="#fcf6b2"/></linearGradient><linearGradient x1="341.00201" y1="176.3385" x2="341.00201" y2="196.62879" gradientUnits="userSpaceOnUse" id="color-2"><stop offset="0" stop-color="#fde600"/><stop offset="1" stop-color="#fcf6b2"/></linearGradient><radialGradient cx="305.85162" cy="197.52356" r="17.60144" gradientUnits="userSpaceOnUse" id="color-3"><stop offset="0" stop-color="#7df9ff"/><stop offset="1" stop-color="#00dbff"/></radialGradient><radialGradient cx="335.14754" cy="180.18753" r="17.60145" gradientUnits="userSpaceOnUse" id="color-4"><stop offset="0" stop-color="#00b4b4"/><stop offset="1" stop-color="#00b4b4" stop-opacity="0"/></radialGradient><radialGradient cx="303.34353" cy="182.05698" r="22.68875" gradientUnits="userSpaceOnUse" id="color-5"><stop offset="0" stop-color="#005866"/><stop offset="1" stop-color="#00a3bc"/></radialGradient><radialGradient cx="334.38118" cy="159.91377" r="22.68875" gradientUnits="userSpaceOnUse" id="color-6"><stop offset="0" stop-color="#6eecff"/><stop offset="1" stop-color="#6eecff" stop-opacity="0"/></radialGradient></defs><g transform="translate(-282.45603,-157.60827)"><g stroke="#000000" stroke-width="1.28786" stroke-miterlimit="10"><path d="M297.55204,181.70801l3.37968,-2.21052l5.626,17.74077l-8.61944,-10.78595l-4.16043,2.16035l-3.12758,-11.11143z" fill="url(#color-1)" stroke-linecap="round"/><path d="M348.59973,176.3385l-2.73043,11.21563l-4.23463,-2.01102l-8.23039,11.08567l4.99149,-17.92963l3.45616,2.08892z" fill="url(#color-2)" stroke-linecap="round"/><path d="M305.7622,201.22529c-1.41176,0 -2.55623,-1.0909 -2.55623,-2.43661v-28.68233c0,-1.3457 1.14447,-2.43661 2.55623,-2.43661h30.09044c1.41176,0 2.55622,1.0909 2.55622,2.43661v28.68233c0,1.3457 -1.14446,2.43661 -2.55622,2.43661c0,0 -10.34588,0.52253 -15.38208,0.52253c-4.99358,0 -14.70835,-0.52253 -14.70835,-0.52253z" fill="url(#color-3)" stroke-linecap="butt"/><path d="M305.44869,200.91178c-1.41176,0 -2.55623,-1.0909 -2.55623,-2.43661v-28.68233c0,-1.3457 1.14447,-2.43661 2.55623,-2.43661h30.09043c1.41176,0 2.55622,1.0909 2.55622,2.43661v28.68233c0,1.3457 -1.14446,2.43661 -2.55622,2.43661c0,0 -10.34587,0.52252 -15.38207,0.52252c-4.99358,0 -14.70835,-0.52252 -14.70835,-0.52252z" fill="url(#color-4)" stroke-linecap="butt"/><path d="M310.21218,193.50119c0,0 1.68588,-0.34816 3.04588,0.18451c1.69903,0.66546 6.35947,3.49926 6.35947,3.49926" fill="none" stroke-linecap="round"/><path d="M282.45603,193.93982v0v0z" fill="#ffffff" stroke-linecap="butt"/><path d="M337.17826,184.12501c0,3.32394 -1.4302,6.01852 -3.19444,6.01852c-1.76424,0 -3.19444,-2.69458 -3.19444,-6.01852c0,-1.8249 1.51442,-2.87676 2.19521,-3.9805c0.55922,-0.90665 0.28692,-0.70469 1.08257,-0.70469c1.76424,0 3.11111,1.36125 3.11111,4.68519z" fill="#ffffff" stroke-linecap="butt"/><path d="M300.02517,184.03875l-1.50354,-6.57918c-0.91888,-4.02077 0.65096,-11.32737 4.44887,-12.1953l29.85008,-6.82165c3.79791,-0.86794 8.38572,5.03145 9.30458,9.05222l1.50354,6.57918c0.91888,4.02077 -42.68465,13.9855 -43.60352,9.96473z" fill="url(#color-5)" stroke-linecap="butt"/><path d="M300.12967,183.93425l-1.50353,-6.57918c-0.91888,-4.02077 0.65096,-11.32737 4.44887,-12.1953l29.85008,-6.82165c3.79791,-0.86794 8.38572,5.03145 9.30458,9.05222l1.50354,6.57918c0.91888,4.02077 -42.68466,13.9855 -43.60353,9.96473z" fill="url(#color-6)" stroke-linecap="butt"/><path d="M329.85948,182.22155l8.16667,-5.5" fill="none" stroke-linecap="round"/><path d="M325.23381,186.43982c0,3.32394 -1.4302,6.01852 -3.19444,6.01852c-1.76424,0 -3.19444,-2.69458 -3.19444,-6.01852c0,-1.83727 0.43696,-3.31559 1.12575,-4.41954c0.39039,-0.62569 2.02912,0.00736 2.02912,0.00736c0,0 1.84663,0.57671 2.01642,0.8664c0.64546,1.10123 1.21759,1.77596 1.21759,3.54579z" fill="#ffffff" stroke-linecap="butt"/><path d="M326.55552,183.64323l-8.9754,-3.01001" fill="none" stroke-linecap="round"/></g></g></svg>