<svg version="1.1" xmlns="http://www.w3.org/2000/svg" xmlns:xlink="http://www.w3.org/1999/xlink" width="64.75469" height="88.34211" viewBox="0,0,64.75469,88.34211"><defs><linearGradient x1="320" y1="137.24223" x2="320" y2="222.05617" gradientUnits="userSpaceOnUse" id="color-1"><stop offset="0" stop-color="#555555"/><stop offset="1" stop-color="#00ff94"/></linearGradient><linearGradient x1="319.59164" y1="209.32887" x2="319.59164" y2="222.14281" gradientUnits="userSpaceOnUse" id="color-2"><stop offset="0" stop-color="#7c7c7c"/><stop offset="1" stop-color="#7a7a7a"/></linearGradient><linearGradient x1="292.4166" y1="137.29881" x2="292.4166" y2="222.11282" gradientUnits="userSpaceOnUse" id="color-3"><stop offset="0" stop-color="#969696"/><stop offset="1" stop-color="#7a7a7a"/></linearGradient><linearGradient x1="347.75416" y1="137.36757" x2="347.75416" y2="222.18158" gradientUnits="userSpaceOnUse" id="color-4"><stop offset="0" stop-color="#969696"/><stop offset="1" stop-color="#7a7a7a"/></linearGradient><linearGradient x1="306.45662" y1="190.23432" x2="306.45662" y2="211.2362" gradientUnits="userSpaceOnUse" id="color-5"><stop offset="0" stop-color="#858585"/><stop offset="1" stop-color="#818181"/></linearGradient><linearGradient x1="325.03235" y1="202.82136" x2="325.03235" y2="214.97976" gradientUnits="userSpaceOnUse" id="color-6"><stop offset="0" stop-color="#808080"/><stop offset="1" stop-color="#7d7d7d"/></linearGradient></defs><g transform="translate(-287.15142,-137.08963)"><g stroke-miterlimit="10"><path d="M351.4477,137.24223v84.81396h-62.89539v-84.81396z" fill="url(#color-1)" stroke="none" stroke-width="0" stroke-linecap="butt"/><g stroke="#000000" stroke-width="1.28786"><path d="M344.45016,189.73654c0,5.72487 -1.45451,12.73133 -4.95642,15.58322c-5.17051,4.21079 -8.25084,2.31661 -8.25084,2.31661c0,0 -2.42309,2.48967 -5.49348,2.764c-4.58327,0.4095 -6.75892,-0.78107 -6.75892,-0.78107c0,0 -5.57729,0.93256 -7.35138,0.78322c-1.38979,-0.11699 -2.42456,-1.60614 -2.42456,-1.60614c0,0 -5.65822,-1.24886 -9.04235,-4.02533c-3.71486,-3.04781 -5.1865,-7.9364 -5.1865,-15.03451c0,-6.42242 3.52127,-10.62128 6.29133,-17.26113c4.238,-10.15849 8.99503,-17.8166 17.39016,-17.8166c8.80684,0 12.64475,9.94747 17.22893,20.7786c2.64196,6.24222 8.55402,8.35859 8.55402,14.29914z" fill="#e4ff99" stroke-linecap="butt"/><path d="M311.29424,173.66149c0,-1.80536 -0.17092,-3.14317 1.63444,-3.14317c0.83458,0 1.44249,0.89627 2.39578,1.49766c1.10889,0.69953 2.50756,1.17762 2.50756,2.14841c0,1.80536 -1.46353,2.76599 -3.26889,2.76599c-1.80536,0 -3.26889,-1.46353 -3.26889,-3.26889z" fill="#ffffff" stroke-linecap="butt"/><path d="M324.86841,176.42747c-1.80536,0 -3.26889,-0.96062 -3.26889,-2.76599c0,-0.97078 1.39867,-1.44888 2.50755,-2.14841c0.9533,-0.60139 1.56121,-1.49766 2.39578,-1.49766c1.80536,0 1.63445,1.33781 1.63445,3.14317c0,1.80536 -1.46353,3.26889 -3.26889,3.26889z" fill="#ffffff" stroke-linecap="butt"/><path d="M300.73321,187.11424c0,0 2.22236,-5.44801 5.28053,-5.90916c3.05817,-0.46114 26.4026,1.13154 26.4026,1.13154" fill="none" stroke-linecap="round"/><path d="M319.84785,156.57115c-1.6398,-0.90881 -2.28503,-2.8799 -1.44113,-4.40257v0c0.84389,-1.52267 2.85731,-2.0203 4.49712,-1.1115l5.08991,2.82091c1.6398,0.90881 2.285,2.8799 1.44113,4.40257v0c-0.84389,1.52267 -2.85731,2.02031 -4.49712,1.1115z" fill="#64bb2f" stroke-linecap="butt"/><path d="M309.85738,164.51935c0,0 0.87773,-3.21477 2.10363,-4.7948c1.19821,-1.54436 5.17056,-4.58082 5.17056,-4.58082c0,0 4.12593,2.04253 5.5267,3.52735c1.28302,1.35999 2.55572,5.04004 2.55572,5.04004" fill="none" stroke-linecap="round"/><path d="M309.37243,208.50574c0,0 -4.19861,-3.74254 -5.05149,-6.66301c-0.92015,-3.15079 -0.28291,-11.60329 -0.28291,-11.60329" fill="none" stroke-linecap="round"/><path d="M320.20288,209.31397c0,0 -4.17041,-5.46769 -4.98427,-8.69502c-0.74212,-2.94292 0.29645,-9.89456 0.29645,-9.89456" fill="none" stroke-linecap="round"/><path d="M335.39784,185.55163c0,0 1.57542,10.49972 1.1403,14.53188c-0.35797,3.31708 -5.98974,7.45234 -5.98974,7.45234" fill="none" stroke-linecap="round"/><path d="M329.5246,168.00378l-9.93241,6.91497l-10.81248,-7.54359" fill="none" stroke-linecap="round"/></g><path d="M288.14394,222.14281v-12.81396h62.89539v12.81396z" fill="url(#color-2)" stroke="none" stroke-width="0" stroke-linecap="butt"/><path d="M288.0939,222.11282v-84.81396h8.64539v84.81396z" fill="url(#color-3)" stroke="none" stroke-width="0" stroke-linecap="butt"/><path d="M343.68148,222.18158v-84.81396h8.14539v84.81396z" fill="url(#color-4)" stroke="none" stroke-width="0" stroke-linecap="butt"/><path d="M288.14394,147.40359v-10.31396h62.89539v10.31396z" fill="#969696" stroke="none" stroke-width="0" stroke-linecap="butt"/><path d="M295.88896,211.2362v-21.00188l21.13534,21.00188z" fill="url(#color-5)" stroke="none" stroke-width="0" stroke-linecap="butt"/><path d="M303.00343,214.97976v-12.15842h44.05785v12.15842z" fill="url(#color-6)" stroke="none" stroke-width="0" stroke-linecap="butt"/><text transform="translate(328.70745,219.25581) scale(0.47116,0.5)" font-size="40" xml:space="preserve" fill="#000000" stroke="none" stroke-width="1" stroke-linecap="butt" font-family="Sans Serif" font-weight="normal" text-anchor="start"><tspan x="0" dy="0">50</tspan></text><g stroke-linecap="butt"><path d="M303.52762,213.44923l-2.65375,6.84999l-2.38631,-6.84999z" fill="#ffff00" stroke="#ffff00" stroke-width="1"/><path d="M298.55937,202.07342l2.38632,-6.84999l2.65375,6.84999z" fill="#ffff00" stroke="#ffff00" stroke-width="1"/><path d="M294.37596,207.97259c0,-3.72115 3.01658,-6.73773 6.73773,-6.73773c3.72115,0 6.73772,3.01658 6.73772,6.73773c0,3.72115 -3.01658,6.73772 -6.73772,6.73772c-3.72115,0 -6.73773,-3.01658 -6.73773,-6.73772z" fill="#ffff00" stroke="none" stroke-width="0"/><path d="M306.80397,205.43749l6.87114,2.59848l-6.83054,2.44142z" fill="#ffff00" stroke="#ffff00" stroke-width="1"/><path d="M295.46853,210.49722l-6.86899,-2.33105l6.82838,-2.70885z" fill="#ffff00" stroke="#ffff00" stroke-width="1"/><path d="M307.11956,210.08398l3.04475,6.68537l-6.56714,-3.08051z" fill="#ffff00" stroke="#ffff00" stroke-width="1"/><path d="M295.51088,205.68721l-3.23165,-6.49409l6.75404,2.88922z" fill="#ffff00" stroke="#ffff00" stroke-width="1"/><path d="M303.67899,202.14138l6.66063,-3.0985l-3.02751,6.59174z" fill="#ffff00" stroke="#ffff00" stroke-width="1"/><path d="M299.37584,213.78509l-6.46785,3.28387l2.83472,-6.7771z" fill="#ffff00" stroke="#ffff00" stroke-width="1"/><path d="M296.39221,208.17317c0,-2.70702 2.19448,-4.90151 4.9015,-4.90151c2.70702,0 4.90151,2.19448 4.90151,4.90151c0,2.70702 -2.19448,4.9015 -4.90151,4.9015c-2.70702,0 -4.9015,-2.19448 -4.9015,-4.9015z" fill="#fffff7" stroke="none" stroke-width="0"/></g><path d="M351.9061,137.19467v33.64619l-33.86,-33.64619z" fill="#ff0000" stroke="none" stroke-width="0" stroke-linecap="butt"/></g></g></svg>