<svg version="1.1" xmlns="http://www.w3.org/2000/svg" xmlns:xlink="http://www.w3.org/1999/xlink" width="96.1724" height="97.26078" viewBox="0,0,96.1724,97.26078"><g transform="translate(-191.9138,-131.23746)"><g data-paper-data="{&quot;isPaintingLayer&quot;:true}" fill-rule="nonzero" stroke-linecap="butt" stroke-linejoin="miter" stroke-miterlimit="10" stroke-dasharray="" stroke-dashoffset="0" style="mix-blend-mode: normal"><path d="M192.4138,226.60084v-64.88824v-9.24098c0,0 2.20499,0 4.81102,0c11.2941,0 90.36138,0 90.36138,0v74.12922z" fill="#afafaf" stroke="#000000" stroke-width="1"></path><path d="M192.4138,205.86668v-64.88824v-9.24098c0,0 2.20499,0 4.81102,0c11.2941,0 90.36138,0 90.36138,0v74.12922z" fill="#afafaf" stroke="#000000" stroke-width="1"></path><text transform="translate(205.89496,222.60699) scale(0.41607,0.4713)" font-size="40" xml:space="preserve" fill="#000000" fill-rule="nonzero" stroke="none" stroke-width="1" stroke-linecap="butt" stroke-linejoin="miter" stroke-miterlimit="10" stroke-dasharray="" stroke-dashoffset="0" font-family="Sans Serif" font-weight="normal" text-anchor="start" style="mix-blend-mode: normal"><tspan x="0" dy="0">Fail-la-la</tspan></text><path d="M196.91902,199.90332v-60.82023h86.62275v60.82023z" fill="#939393" stroke="#000000" stroke-width="1"></path><g stroke="#000000" stroke-width="0.5"><path d="M237.56519,170.09519c-1.84965,0.08923 -3.2697,0.2434 -3.32284,-0.85808c-0.05314,-1.10148 1.28076,-3.04149 3.13041,-3.13073c1.84965,-0.08923 3.39216,0.73136 3.4453,1.83283c0.05314,1.10148 -1.40322,2.06673 -3.25287,2.15597z" data-paper-data="{&quot;index&quot;:null}" fill="#f6ff30"></path><path d="M228.407,167.52904c0.05314,-1.10148 1.59565,-1.92206 3.4453,-1.83283c1.84965,0.08923 3.18355,2.02925 3.13042,3.13073c-0.05314,1.10148 -1.47319,0.94731 -3.32284,0.85808c-1.84965,-0.08923 -3.30601,-1.05449 -3.25287,-2.15597z" data-paper-data="{&quot;index&quot;:null}" fill="#f6ff30"></path><path d="M241.34623,194.14497v-40.18619h8.142v40.18619z" fill="#0b8100"></path><path d="M241.35788,194.19812v-23.27712h8.21657v23.27712z" fill="#ff0000"></path><path d="M244.88249,161.45807c0,2.46401 -0.63068,4.4615 -1.40865,4.4615c-0.77798,0 -1.40865,-1.99748 -1.40865,-4.4615c0,-2.46401 0.63068,-4.4615 1.40865,-4.4615c0.77798,0 1.40865,1.99748 1.40865,4.4615z" fill="#000000"></path><path d="M241.40024,166.52158h8.1747v4.3793l-2.82143,1.69917c0,0 0.2078,1.97801 -0.15531,2.27944c-0.67815,0.56296 -2.05657,0.19975 -2.05657,0.19975c0,0 0.34414,2.14895 -0.18907,2.66977c-1.1323,1.10596 -3.14695,1.32657 -3.14695,1.32657z" fill="#ffffff"></path><path d="M240.78306,155.26644c0,0 -1.2879,-7.79483 0.72855,-10.19529c3.82978,-4.55911 10.79967,-0.27806 10.79967,-0.27806c0,0 -2.95373,1.76952 -3.61201,4.08894c-0.49911,1.75856 0.97484,6.38442 0.97484,6.38442c0,0 -0.91031,0 -1.65765,0c-1.56115,0 -7.23339,0 -7.23339,0z" fill="#ff0000"></path><path d="M240.40632,156.24597v-2.33579h9.79522v2.33579z" fill="#ffffff"></path><path d="M254.11963,145.2075c0,0.93631 -0.74216,1.69533 -1.65765,1.69533c-0.9155,0 -1.65765,-0.75902 -1.65765,-1.69533c0,-0.93631 0.74216,-1.69533 1.65765,-1.69533c0.9155,0 1.65765,0.75902 1.65765,1.69533z" fill="#ffffff"></path><path d="M228.50136,181.26146v-11.67892h12.65845v11.67892z" fill="#31ffe6"></path><path d="M233.62501,181.18611v-11.60358h1.95905v11.60358z" fill="#f6ff30"></path><path d="M228.65205,176.2885v-1.8837h12.2817v1.8837z" fill="#f6ff30"></path></g><path d="M253.7116,131.95689h33.838v33.838z" fill="#ff0000" stroke="#000000" stroke-width="1"></path></g></g></svg>