<svg version="1.1" xmlns="http://www.w3.org/2000/svg" xmlns:xlink="http://www.w3.org/1999/xlink" width="52.45737" height="77.95927" viewBox="0,0,52.45737,77.95927"><g transform="translate(-213.77131,-141.02037)"><g data-paper-data="{&quot;isPaintingLayer&quot;:true}" fill-rule="nonzero" stroke="#000000" stroke-width="1.28786" stroke-linejoin="miter" stroke-miterlimit="10" stroke-dasharray="" stroke-dashoffset="0" style="mix-blend-mode: normal"><path d="M232.05703,217.67706c-6.10459,0 -11.05335,-2.58734 -11.05335,-5.77899c0,-3.19164 4.94875,-5.77898 11.05335,-5.77898c6.10459,0 11.05335,2.58734 11.05335,5.77898c0,3.19164 -4.94875,5.77899 -11.05335,5.77899z" fill="#00ff50" stroke-linecap="butt"></path><path d="M265.58475,212.37513c0,3.29192 -5.40121,5.96057 -12.06393,5.96057c-6.66272,0 -12.06393,-2.66865 -12.06393,-5.96057c0,-3.29192 5.40121,-5.96057 12.06393,-5.96057c6.66272,0 12.06393,2.66864 12.06393,5.96057z" fill="#00ff50" stroke-linecap="butt"></path><path d="M258.69376,196.66482c0,8.97448 -7.55847,16.24974 -16.88229,16.24974c-9.32383,0 -16.88229,-7.27526 -16.88229,-16.24974c0,-4.55309 4.56973,-6.73848 7.49824,-17.6015c2.84381,-10.54884 3.52097,-21.44698 3.94896,-21.02797c3.50995,3.4362 10.1719,11.61056 13.10009,21.56121c3.07438,10.44746 9.2173,12.7298 9.2173,17.06826z" fill="#00ff50" stroke-linecap="butt"></path><path d="M232.87404,174.67348c3.11175,7.0855 1.88743,14.47496 -2.7346,16.50483c-4.62204,2.02987 -10.89151,-2.06852 -14.00326,-9.15402c-3.11175,-7.0855 -1.88743,-14.47497 2.7346,-16.50484c4.62204,-2.02987 10.89151,2.06853 14.00327,9.15403z" fill="#ffff00" stroke-linecap="butt"></path><path d="M260.24109,159.61949c4.62204,2.02987 5.84636,9.41933 2.73461,16.50483c-3.11176,7.0855 -9.38124,11.1839 -14.00328,9.15403c-4.62203,-2.02987 -5.84634,-9.41934 -2.73459,-16.50484c3.11175,-7.0855 9.38122,-11.18389 14.00326,-9.15402z" data-paper-data="{&quot;index&quot;:null}" fill="#ffff00" stroke-linecap="butt"></path><path d="M242.9052,152.98637c2.04023,7.4649 -0.25337,14.5953 -5.1229,15.9262c-4.86953,1.33089 -10.47098,-3.64172 -12.51121,-11.10662c-2.04023,-7.4649 0.25337,-14.5953 5.1229,-15.92618c4.86953,-1.33089 10.47098,3.64171 12.51121,11.10661z" fill="#ffff00" stroke-linecap="butt"></path><path d="M239.69107,194.77907c0,4.96312 -1.31697,8.98654 -2.94154,8.98654c-1.62457,0 -2.94155,-4.02341 -2.94155,-8.98654c0,-4.96312 1.31698,-8.98654 2.94155,-8.98654c1.62457,0 2.94154,4.02341 2.94154,8.98654z" fill="#000000" stroke-linecap="butt"></path><path d="M248.10109,194.99643c0,4.96312 -1.31697,8.98654 -2.94154,8.98654c-1.62457,0 -2.94155,-4.02341 -2.94155,-8.98654c0,-4.96312 1.31697,-8.98652 2.94155,-8.98652c1.62457,0 2.94154,4.0234 2.94154,8.98652z" fill="#000000" stroke-linecap="butt"></path><path d="M246.89143,206.36412c0,0 0.28035,3.02362 -9.97393,2.51054c-2.3866,-0.11941 -5.97897,-4.36921 -5.97897,-4.36921" fill="none" stroke-linecap="round"></path></g></g></svg>