<svg version="1.1" xmlns="http://www.w3.org/2000/svg" xmlns:xlink="http://www.w3.org/1999/xlink" width="12.96331" height="40.63478" viewBox="0,0,12.96331,40.63478"><g transform="translate(-297.58586,-160.17617)"><g stroke="#000000" stroke-width="0.5" stroke-miterlimit="10"><g><path d="M297.90211,200.56095v-40.13478h8.13158v40.13478z" fill="#ff0000" stroke-linecap="butt"/><path d="M305.01072,168.14076c0,3.00157 -2.10894,5.43483 -4.71046,5.43483c-2.60152,0 -2.46312,-1.80632 -2.46312,-4.8079c0,-3.00158 -0.1384,-6.06177 2.46312,-6.06177c2.60151,0 4.71046,2.43325 4.71046,5.43483z" fill="#0b8100" stroke-linecap="butt"/><path d="M301.43385,167.91588c0,2.46087 -0.62986,4.45579 -1.40685,4.45579c-0.77698,0 -1.40686,-1.99492 -1.40686,-4.45579c0,-2.46087 0.43445,-3.2589 1.21144,-3.2589c0.77698,0 1.60226,0.79803 1.60226,3.2589z" fill="#000000" stroke-linecap="butt"/><path d="M298.14656,165.92544l3.7537,-4.0059" fill="none" stroke-linecap="round"/><path d="M303.00765,186.68384c0,2.54965 -1.86651,4.61655 -4.16897,4.61655c-1.09814,0 -0.81516,-4.19901 -0.81516,-4.19901c0,0 -0.38915,-5.03409 0.81516,-5.03409c2.30247,0 4.16897,2.0669 4.16897,4.61656z" fill="#ffffff" stroke-linecap="butt"/><path d="M308.28223,168.62045l-1.06714,-2.31149l-2.10982,3.81274l1.82239,-5.46992l1.1497,1.72139l1.66645,-2.97803z" fill="#e6ff00" stroke-linecap="round"/><path d="M298.1525,184.51832l1.82239,5.46992l-2.10981,-3.81274z" fill="#e6ff00" stroke-linecap="round"/></g></g></g></svg>