<svg version="1.1" xmlns="http://www.w3.org/2000/svg" xmlns:xlink="http://www.w3.org/1999/xlink" width="71.95467" height="64.79504" viewBox="0,0,71.95467,64.79504"><g transform="translate(-285.78428,-143.65853)"><g stroke="#000000" stroke-width="1.28786" stroke-miterlimit="10"><path d="M317.86988,204.16795c-9.59101,-5.3329 -8.06193,-8.48234 -8.06193,-12.59624c0,-7.08118 0,-28.90484 0,-28.90484h20.96566c0,0 0,21.07844 0,28.19474c0,4.33572 7.50594,16.54121 7.50594,16.54121c0,0 -10.81866,2.09803 -20.40967,-3.23487z" fill="#ff7c00" stroke-linecap="butt"/><g><path d="M321.05003,176.98174c0,4.00429 -0.85051,7.2504 -1.89965,7.2504c-1.04914,0 -1.89965,-3.24611 -1.89965,-7.2504c0,-4.00429 0.85051,-7.2504 1.89965,-7.2504c1.04914,0 1.89965,3.24611 1.89965,7.2504z" fill="#000000" stroke-linecap="butt"/><path d="M329.76062,176.67964c0,3.98046 -1.05795,7.20725 -2.36298,7.20725c-1.30503,0 -2.36298,-3.22679 -2.36298,-7.20725c0,-3.98046 1.05794,-7.20725 2.36298,-7.20725c1.30503,0 2.36298,3.22679 2.36298,7.20725z" fill="#000000" stroke-linecap="butt"/><path d="M320.5867,188.89312c0,0 -6.73771,1.55533 -8.4326,0.51789c-1.69489,-1.03744 1.94598,-4.48835 1.94598,-4.48835l11.67591,6.30095z" fill="#ffffff" stroke-linecap="round"/><path d="M315.49007,185.95844l-2.97622,3.15301" fill="none" stroke-linecap="round"/><path d="M315.3865,189.52271l1.86422,-2.5285" fill="none" stroke-linecap="round"/></g><path d="M310.1995,196.29424c0,0 -0.44169,-1.41346 -0.49476,-2.06056c-0.03975,-0.48471 0.2046,-1.4776 0.2046,-1.4776l20.6205,-0.21529c0,0 -0.0065,0.68108 0.10424,1.19783c0.13654,0.63721 0.96282,2.1344 0.96282,2.1344z" fill="#2700ff" stroke-linecap="butt"/><path d="M331.76538,199.87451c0,1.46556 -1.18806,2.65362 -2.65361,2.65362c-1.46556,0 -2.65362,-1.18806 -2.65362,-2.65362c0,-1.46556 1.18807,-2.65362 2.65362,-2.65362c1.46556,0 2.65361,1.18806 2.65361,2.65362z" fill="#ffffff" stroke-linecap="butt"/><g stroke-linecap="round"><path d="M310.94752,177.03061h-8.27851l3.54794,-2.2947c0,0 -3.58595,-0.96142 -5.47952,-1.1127c-2.03796,-0.16282 -6.34693,0.16783 -6.34693,0.16783l4.58275,-3.9145c0,0 -1.46927,-1.16205 -3.01506,-1.57018c-2.26366,-0.59767 -9.25487,-1.6694 -9.25487,-1.6694c0,0 1.90501,-4.44983 10.48237,-6.465c2.01339,-0.47302 6.37032,0.66075 6.37032,0.66075c0,0 0.07138,-3.91381 -0.78795,-5.31496c-1.13343,-1.84808 -5.42093,-4.80873 -5.42093,-4.80873c0,0 5.54675,-2.49827 8.64744,-1.94585c2.95316,0.52615 9.5357,5.18542 9.5357,5.18542l-3.99143,-9.3138c0,0 7.58096,2.08894 9.67251,3.71122c2.43792,1.89093 4.07572,6.95239 4.07572,6.95239c0,0 4.0842,0.42152 5.55856,1.29763c1.61691,0.96083 3.75477,4.23666 3.75477,4.23666c0,0 5.95729,-0.6362 8.84118,-0.39238c2.30924,0.19524 7.12452,1.7422 7.12452,1.7422c0,0 -3.84277,0.85605 -5.2907,1.53989c-1.40906,0.66548 -3.28347,2.50959 -3.28347,2.50959c0,0 3.37515,-0.07783 5.02528,0.40767c2.45589,0.72257 8.27947,3.50682 8.27947,3.50682c0,0 -7.8924,0.62049 -11.19821,1.435c-2.82826,0.69686 -7.42843,3.1544 -7.42843,3.1544l3.99142,2.2947c0,0 -4.67955,-0.80989 -6.20888,-0.80989c-1.35747,0 -2.51313,0.80989 -2.51313,0.80989l-0.59132,-6.74913l-2.66095,0.26997l0.88698,-4.31945l-3.8436,3.64453c0,0 -1.06602,-3.62643 -1.12014,-4.95351c-0.14369,-3.52343 -2.57562,-1.9306 -2.57562,-1.9306c0,0 -2.11936,-1.61852 -2.52791,2.33521c-0.1272,1.23105 0.01478,4.5489 0.01478,4.5489c0,0 -1.22304,-1.41804 -1.687,-2.34234c-0.58969,-1.17477 -1.56526,-4.13681 -1.56526,-4.13681l-1.33048,7.694l-3.54794,-5.26432z" fill="#000000"/><path d="M292.32087,153.67866c0,0 3.76315,1.07588 5.32191,2.02473c2.2044,1.34188 6.65237,5.26431 6.65237,5.26431" fill="none"/><path d="M334.45257,160.56274c0,0 0.36099,-1.91897 1.69734,-2.62295c1.21434,-0.6397 5.98984,-1.42653 5.98984,-1.42653" fill="none"/></g></g></g></svg>