<svg version="1.1" xmlns="http://www.w3.org/2000/svg" xmlns:xlink="http://www.w3.org/1999/xlink" width="64.75471" height="88.41618" viewBox="0,0,64.75471,88.41618"><defs><linearGradient x1="319.95336" y1="137.31686" x2="319.95336" y2="222.1308" gradientUnits="userSpaceOnUse" id="color-1"><stop offset="0" stop-color="#555555"/><stop offset="1" stop-color="#00ff94"/></linearGradient><linearGradient x1="319.59166" y1="209.32887" x2="319.59166" y2="222.14281" gradientUnits="userSpaceOnUse" id="color-2"><stop offset="0" stop-color="#7c7c7c"/><stop offset="1" stop-color="#7a7a7a"/></linearGradient><linearGradient x1="292.41661" y1="137.2988" x2="292.41661" y2="222.11282" gradientUnits="userSpaceOnUse" id="color-3"><stop offset="0" stop-color="#969696"/><stop offset="1" stop-color="#7a7a7a"/></linearGradient><linearGradient x1="347.75418" y1="137.36757" x2="347.75418" y2="222.18158" gradientUnits="userSpaceOnUse" id="color-4"><stop offset="0" stop-color="#969696"/><stop offset="1" stop-color="#7a7a7a"/></linearGradient><linearGradient x1="306.45662" y1="190.23432" x2="306.45662" y2="211.2362" gradientUnits="userSpaceOnUse" id="color-5"><stop offset="0" stop-color="#858585"/><stop offset="1" stop-color="#818181"/></linearGradient><linearGradient x1="325.03237" y1="202.82136" x2="325.03237" y2="214.97976" gradientUnits="userSpaceOnUse" id="color-6"><stop offset="0" stop-color="#808080"/><stop offset="1" stop-color="#7d7d7d"/></linearGradient></defs><g transform="translate(-287.15141,-137.08963)"><g stroke-miterlimit="10"><path d="M351.40106,137.31686v84.81396h-62.89539v-84.81396z" fill="url(#color-1)" stroke="none" stroke-width="0" stroke-linecap="butt"/><g><path d="M297.05858,172.93815c0,-13.73808 8.61852,-24.875 19.25,-24.875c10.63148,0 19.25,11.13692 19.25,24.875c0,13.73808 -8.61852,24.875 -19.25,24.875c-10.63148,0 -19.25,-11.13692 -19.25,-24.875z" fill="#00ffe4" stroke="#00ffe4" stroke-width="1.28786" stroke-linecap="butt"/><path d="" fill="#520000" stroke="none" stroke-width="0.5" stroke-linecap="butt"/><path d="M293.57835,198.97966c-0.01845,-0.00002 -0.0367,-0.00014 -0.05474,-0.00036c0.01339,-0.02452 0.02766,-0.05019 0.04272,-0.07691c0.00393,0.02631 0.00794,0.05207 0.01203,0.07728z" fill="#520000" stroke="none" stroke-width="0.5" stroke-linecap="butt"/><path d="M342.83379,167.85466c-0.30872,16.25126 -8.25,27.125 -8.25,27.125l3.125,8c0,0 -19.28348,2.55699 -26.8676,2.12112c-6.83859,-0.39303 -16.1324,-2.37112 -16.1324,-2.37112l2.625,-9.25c0,0 -7.46232,-14.35846 -7.72691,-22.00944c-0.23078,-6.67325 2.22513,-13.8508 5.10191,-17.24056c2.87678,-3.38976 11.5,-4.75 11.5,-4.75c0,0 -6.37182,7.44236 -6.97507,18.59365c-0.52626,14.70792 4.97507,20.40635 4.97507,20.40635c0,0 7.10054,4.08612 11.70731,5.00125c10.15349,2.01697 14.04269,-0.62625 14.04269,-0.62625c0,0 6.02966,-7.09679 5.71664,-21.74352c-1.13568,-13.99295 -8.59164,-20.63148 -8.59164,-20.63148c0,0 16.11996,-2.09966 15.75,17.375z" fill="#520000" stroke="#000000" stroke-width="1.28786" stroke-linecap="round"/><path d="M316.58379,197.47966c0,2.62336 -0.92341,4.75 -2.0625,4.75c-1.13909,0 -2.0625,-2.12664 -2.0625,-4.75c0,-2.62336 0.92341,-4.75 2.0625,-4.75c1.13909,0 2.0625,2.12664 2.0625,4.75z" fill="#ffffff" stroke="#000000" stroke-width="1.28786" stroke-linecap="butt"/><path d="M323.08379,196.85466c0,2.62336 -0.92341,4.75 -2.0625,4.75c-1.13909,0 -2.0625,-2.12664 -2.0625,-4.75c0,-2.62336 0.92341,-4.75 2.0625,-4.75c1.13909,0 2.0625,2.12664 2.0625,4.75z" fill="#ffffff" stroke="#000000" stroke-width="1.28786" stroke-linecap="butt"/><path d="M297.70879,200.22966c0,0 -0.02595,-4.57759 1.875,-4.5c1.90095,0.07759 10.375,5 10.375,5" fill="none" stroke="#000000" stroke-width="1.28786" stroke-linecap="round"/><path d="M328.20879,188.22966l-10.375,6.375l-11.25,-8.625" fill="none" stroke="#000000" stroke-width="1.28786" stroke-linecap="round"/></g><path d="M288.14394,222.14281v-12.81396h62.89539v12.81396z" fill="url(#color-2)" stroke="none" stroke-width="0" stroke-linecap="butt"/><path d="M288.09391,222.11282v-84.81396h8.64539v84.81396z" fill="url(#color-3)" stroke="none" stroke-width="0" stroke-linecap="butt"/><path d="M343.6815,222.18158v-84.81396h8.14539v84.81396z" fill="url(#color-4)" stroke="none" stroke-width="0" stroke-linecap="butt"/><path d="M288.14394,147.40359v-10.31396h62.89539v10.31396z" fill="#969696" stroke="none" stroke-width="0" stroke-linecap="butt"/><path d="M295.88898,211.2362v-21.00188l21.13534,21.00188z" fill="url(#color-5)" stroke="none" stroke-width="0" stroke-linecap="butt"/><path d="M303.00345,214.97976v-12.15842h44.05785v12.15842z" fill="url(#color-6)" stroke="none" stroke-width="0" stroke-linecap="butt"/><text transform="translate(318.15566,219.25581) scale(0.47116,0.5)" font-size="40" xml:space="preserve" fill="#000000" stroke="none" stroke-width="1" stroke-linecap="butt" font-family="Sans Serif" font-weight="normal" text-anchor="start"><tspan x="0" dy="0">225</tspan></text><g stroke-linecap="butt"><path d="M303.52763,213.44923l-2.65375,6.84999l-2.38631,-6.84999z" fill="#ffff00" stroke="#ffff00" stroke-width="1"/><path d="M298.55939,202.07342l2.38632,-6.84999l2.65375,6.84999z" fill="#ffff00" stroke="#ffff00" stroke-width="1"/><path d="M294.37598,207.97259c0,-3.72115 3.01658,-6.73773 6.73773,-6.73773c3.72115,0 6.73772,3.01658 6.73772,6.73773c0,3.72115 -3.01658,6.73772 -6.73772,6.73772c-3.72115,0 -6.73773,-3.01658 -6.73773,-6.73772z" fill="#ffff00" stroke="none" stroke-width="0"/><path d="M306.80397,205.43749l6.87114,2.59848l-6.83054,2.44142z" fill="#ffff00" stroke="#ffff00" stroke-width="1"/><path d="M295.46853,210.49722l-6.86899,-2.33105l6.82838,-2.70885z" fill="#ffff00" stroke="#ffff00" stroke-width="1"/><path d="M307.11958,210.08398l3.04475,6.68537l-6.56714,-3.08051z" fill="#ffff00" stroke="#ffff00" stroke-width="1"/><path d="M295.51088,205.68721l-3.23165,-6.49409l6.75404,2.88922z" fill="#ffff00" stroke="#ffff00" stroke-width="1"/><path d="M303.67901,202.14138l6.66063,-3.0985l-3.02751,6.59174z" fill="#ffff00" stroke="#ffff00" stroke-width="1"/><path d="M299.37586,213.78509l-6.46785,3.28387l2.83472,-6.7771z" fill="#ffff00" stroke="#ffff00" stroke-width="1"/><path d="M296.39223,208.17317c0,-2.70702 2.19448,-4.90151 4.9015,-4.90151c2.70702,0 4.90151,2.19448 4.90151,4.90151c0,2.70702 -2.19448,4.9015 -4.90151,4.9015c-2.70702,0 -4.9015,-2.19448 -4.9015,-4.9015z" fill="#fffff7" stroke="none" stroke-width="0"/></g><path d="M351.90612,137.19466v33.64619l-33.86,-33.64619z" fill="#00e2ff" stroke="none" stroke-width="0" stroke-linecap="butt"/></g></g></svg>