<svg version="1.1" xmlns="http://www.w3.org/2000/svg" xmlns:xlink="http://www.w3.org/1999/xlink" width="90.07347" height="64.86664" viewBox="0,0,90.07347,64.86664"><defs><linearGradient x1="360.41141" y1="156.18221" x2="360.41141" y2="209.70388" gradientUnits="userSpaceOnUse" id="color-1"><stop offset="0" stop-color="#555555"/><stop offset="1" stop-color="#00ff94"/></linearGradient><linearGradient x1="360.29227" y1="159.4271" x2="360.29227" y2="194.36553" gradientUnits="userSpaceOnUse" id="color-2"><stop offset="0" stop-color="#edcf21"/><stop offset="1" stop-color="#edda70"/></linearGradient><linearGradient x1="360.15372" y1="201.74483" x2="360.15372" y2="209.83104" gradientUnits="userSpaceOnUse" id="color-3"><stop offset="0" stop-color="#7c7c7c"/><stop offset="1" stop-color="#7a7a7a"/></linearGradient><linearGradient x1="343.00497" y1="156.29042" x2="343.00497" y2="209.81211" gradientUnits="userSpaceOnUse" id="color-4"><stop offset="0" stop-color="#969696"/><stop offset="1" stop-color="#7a7a7a"/></linearGradient><linearGradient x1="377.92562" y1="156.18687" x2="377.92562" y2="209.70857" gradientUnits="userSpaceOnUse" id="color-5"><stop offset="0" stop-color="#969696"/><stop offset="1" stop-color="#7a7a7a"/></linearGradient><linearGradient x1="351.86489" y1="189.69525" x2="351.86489" y2="202.94845" gradientUnits="userSpaceOnUse" id="color-6"><stop offset="0" stop-color="#858585"/><stop offset="1" stop-color="#818181"/></linearGradient><linearGradient x1="363.58707" y1="197.63828" x2="363.58707" y2="205.31081" gradientUnits="userSpaceOnUse" id="color-7"><stop offset="0" stop-color="#808080"/><stop offset="1" stop-color="#7d7d7d"/></linearGradient></defs><g transform="translate(-315.96331,-147.49923)"><g stroke-miterlimit="10"><path d="M316.46331,211.86588v-63.7317h89.07347v63.7317z" fill="#00fed9" stroke="#000000" stroke-width="1" stroke-linecap="butt"/><text transform="translate(345.3516,154.60626) scale(0.16338,0.16338)" font-size="40" xml:space="preserve" fill="#000000" stroke="none" stroke-width="1" stroke-linecap="butt" font-family="Sans Serif" font-weight="normal" text-anchor="start"><tspan x="0" dy="0">Unlocked:</tspan></text><g><path d="M380.25642,156.18221v53.52167h-39.69v-53.52167z" fill="url(#color-1)" stroke="none" stroke-width="0" stroke-linecap="butt"/><g stroke="#000000" stroke-width="1.28786"><path d="M347.74415,188.94565l-6.26982,-5.85757l5.93987,0.57837z" fill="#2ba21c" stroke-linecap="round"/><path d="M376.02781,183.77492l2.32092,0.05536l-6.18829,6.87511l-0.10998,-0.6599l-2.63959,-2.96954l6.599,-4.72929z" fill="#2ba21c" stroke-linecap="round"/><path d="M360.49889,194.36553l-15.65861,-4.48553v-1.71267l1.38645,-0.08155l-0.97867,-1.30489l1.79422,-0.08156l-0.73399,-1.22333l1.38644,-0.08156l-1.86983,-2.38833l2.68537,0.67566l-0.65244,-1.22333l1.6311,0.16311l-3.66998,-5.87198l5.13799,2.3651l-1.95732,-3.0991l4.15931,2.3651l0.16312,-1.71266l1.14177,0.08156l-2.20199,-4.32243l3.71711,2.23185v-3.34377l1.95733,2.28355l0.57088,-0.48934l3.01754,-0.734l-2.44665,-0.16311l2.60977,-2.93599l-2.71308,-3.65106l5.95353,-6.19819l-3.66999,6.68753l3.09911,2.77288l-0.89711,0.97866l1.38644,0.73399l-0.97866,3.75155l2.74203,-2.16929l-1.79422,3.58843l3.42532,-0.40778l-0.97866,3.50688l4.32242,-3.0991l-2.52821,3.99621l5.54575,-2.202l-3.18065,4.48554l0.89711,0.32622l-1.54955,3.99621l4.97487,0.48933l-4.32243,5.70887z" fill="url(#color-2)" stroke-linecap="round"/><path d="M369.23288,193.48712l3.18951,1.86971l-1.3198,0.21996l2.41964,2.85957l-1.42979,-0.21997l2.41964,3.62945l-7.80882,-3.40948l0.10998,1.20982l-1.75973,-0.98985l-1.86971,0.10998l-2.74959,-5.38918z" fill="#2ba21c" stroke-linecap="round"/><path d="M357.24676,191.38504l5.65842,-1.74106l0.72544,2.03123c0,0 -1.67027,1.09797 -2.53111,1.05885c-1.17048,-0.0532 -3.85275,-1.34902 -3.85275,-1.34902z" fill="#ffffff" stroke-linecap="round"/><path d="M359.00213,188.22934c0,1.46237 -0.61987,1.26952 -1.46123,1.26952c-0.84136,0 -1.5856,0.19285 -1.5856,-1.26952c0,-1.46237 0.68206,-2.64785 1.52342,-2.64785c0.84136,0 1.52342,1.18548 1.52342,2.64785z" fill="#ffffff" stroke-linecap="butt"/><path d="M366.27818,187.53262c0,1.46237 -0.61987,1.26952 -1.46123,1.26952c-0.84136,0 -1.58561,0.19285 -1.58561,-1.26952c0,-1.46237 0.68206,-2.64785 1.52343,-2.64785c0.84136,0 1.52342,1.18548 1.52342,2.64785z" fill="#ffffff" stroke-linecap="butt"/><path d="M361.4543,190.22434l0.94307,2.03122" fill="none" stroke-linecap="round"/><path d="M359.78579,191.02232l0.72544,1.37834" fill="none" stroke-linecap="round"/><path d="M355.22302,182.23668l0.87986,-1.09983l2.19966,0.54991" fill="none" stroke-linecap="round"/><path d="M351.26362,187.62584l-1.31979,-1.53977l1.09983,-0.10998l-0.32994,-1.20981l1.20981,-0.54991l0.21997,-2.30965l2.52961,0.98985" fill="none" stroke-linecap="round"/><path d="M362.37193,181.3568l2.85956,0.21996l1.75973,1.86972" fill="none" stroke-linecap="round"/><path d="M363.69173,177.83734l1.20981,0.54991l0.32995,1.75974l2.30965,0.10998l-0.43993,1.53976l2.30965,0.21997l-0.32995,2.6396" fill="none" stroke-linecap="round"/><path d="M355.00305,179.92702l0.98985,-2.19966v-1.75974l1.53976,0.32995l2.19966,0.32995" fill="none" stroke-linecap="round"/><path d="M361.49205,193.67492l-2.74958,5.38918l-1.86971,-0.10998l-1.75974,0.98985l0.10998,-1.20981l-7.80881,3.40948l2.41964,-3.62945l-1.42979,0.21997l2.41964,-2.85956l-1.3198,-0.21997l3.18952,-1.86972z" fill="#2ba21c" stroke-linecap="round"/><path d="M363.01042,191.99889l-0.12621,1.26209l6.05806,-3.02903l-0.50484,2.27177l1.61846,-0.95028l-0.60878,1.57391l0.60135,-1.57391l-1.64073,0.89088l0.4306,-1.39572l9.24018,-2.88429l-11.66043,7.11602l2.01935,1.2621l-7.19264,-1.00991l-8.45844,1.00967l2.01935,-1.26209l-10.89132,-6.34691l8.47107,2.11518l0.43059,1.39572l-1.64073,-0.89089l0.60135,1.57391l-0.60878,-1.57391l1.61846,0.95029l-0.50484,-2.27177l6.05806,3.02903l-0.12621,-1.26209l2.39798,1.89315z" fill="#2ba21c" stroke-linecap="round"/></g><path d="M340.30872,209.83104v-8.08622h39.69v8.08622z" fill="url(#color-3)" stroke="none" stroke-width="0" stroke-linecap="butt"/><path d="M340.27714,209.81211v-53.52167h5.45565v53.52167z" fill="url(#color-4)" stroke="none" stroke-width="0" stroke-linecap="butt"/><path d="M375.35556,209.70857c0,0 0,-14.51817 0,-22.65194c0,-9.49523 0,-30.86973 0,-30.86973h5.14013v53.52167z" fill="url(#color-5)" stroke="none" stroke-width="0" stroke-linecap="butt"/><path d="M340.30872,162.667v-6.5086h39.69v6.5086z" fill="#969696" stroke="none" stroke-width="0" stroke-linecap="butt"/><path d="M345.19619,202.94845v-13.25319l13.33741,13.25319z" fill="url(#color-6)" stroke="none" stroke-width="0" stroke-linecap="butt"/><path d="M349.68576,205.31081v-7.67255h27.80262v7.67255z" fill="url(#color-7)" stroke="none" stroke-width="0" stroke-linecap="butt"/><text transform="translate(369.9152,208.0092) scale(0.29733,0.31553)" font-size="40" xml:space="preserve" fill="#000000" stroke="none" stroke-width="1" stroke-linecap="butt" font-family="Sans Serif" font-weight="normal" text-anchor="start"><tspan x="0" dy="0">0</tspan></text><g stroke-linecap="butt"><path d="M350.01655,204.34497l-1.67464,4.32267l-1.50588,-4.32267z" fill="#ffff00" stroke="#ffff00" stroke-width="1"/><path d="M346.88135,197.1663l1.50588,-4.32267l1.67464,4.32267z" fill="#ffff00" stroke="#ffff00" stroke-width="1"/><path d="M344.24142,200.88894c0,-2.34823 1.9036,-4.25183 4.25183,-4.25183c2.34823,0 4.25182,1.9036 4.25182,4.25183c0,2.34823 -1.90361,4.25182 -4.25182,4.25182c-2.34823,0 -4.25183,-1.90361 -4.25183,-4.25182z" fill="#ffff00" stroke="none" stroke-width="0"/><path d="M352.08409,199.28918l4.33602,1.63976l-4.3104,1.54066z" fill="#ffff00" stroke="#ffff00" stroke-width="1"/><path d="M344.93088,202.48212l-4.33466,-1.471l4.30903,-1.70942z" fill="#ffff00" stroke="#ffff00" stroke-width="1"/><path d="M352.28324,202.22134l1.92138,4.21879l-4.14418,-1.94395z" fill="#ffff00" stroke="#ffff00" stroke-width="1"/><path d="M344.95761,199.44677l-2.03932,-4.09808l4.26212,1.82324z" fill="#ffff00" stroke="#ffff00" stroke-width="1"/><path d="M350.11208,197.20918l4.20318,-1.95531l-1.91051,4.15971z" fill="#ffff00" stroke="#ffff00" stroke-width="1"/><path d="M347.39658,204.55691l-4.08152,2.07228l1.78884,-4.27668z" fill="#ffff00" stroke="#ffff00" stroke-width="1"/><path d="M345.51377,201.01553c0,-1.70826 1.38482,-3.09309 3.09308,-3.09309c1.70826,0 3.09309,1.38482 3.09309,3.09309c0,1.70826 -1.38483,3.09309 -3.09309,3.09309c-1.70826,0 -3.09308,-1.38483 -3.09308,-3.09309z" fill="#fffff7" stroke="none" stroke-width="0"/></g><path d="M380.54569,156.22471v21.23236l-21.36728,-21.23236z" fill="#ff0000" stroke="none" stroke-width="0" stroke-linecap="butt"/></g></g></g></svg>