<svg version="1.1" xmlns="http://www.w3.org/2000/svg" xmlns:xlink="http://www.w3.org/1999/xlink" width="51.03855" height="60.53582" viewBox="0,0,51.03855,60.53582"><g transform="translate(-216.00561,-153.02352)"><g data-paper-data="{&quot;isPaintingLayer&quot;:true}" fill-rule="nonzero" stroke="#000000" stroke-width="1.28786" stroke-linejoin="miter" stroke-miterlimit="10" stroke-dasharray="" stroke-dashoffset="0" style="mix-blend-mode: normal"><path d="M217.30156,172.91067l6.64231,3.22953c0,0 -4.77399,4.79523 -1.11187,9.81027c5.80368,7.94779 14.37828,11.70621 14.37828,11.70621l-3.96432,5.33298c0,0 -12.50015,-9.06627 -15.29305,-14.33504c-2.48613,-4.69007 -0.65136,-15.74396 -0.65136,-15.74396z" fill="#ffffff" stroke-linecap="butt"></path><path d="M223.01169,160.85212l9.86168,-6.21852l-4.27828,10.57373z" fill="#ff0000" stroke-linecap="butt"></path><path d="M228.00343,170.21699c-2.08198,5.44292 -5.92142,9.28897 -8.57561,8.5904c-2.65419,-0.69858 -3.11806,-5.67723 -1.03608,-11.12015c2.08198,-5.44292 5.92142,-9.28897 8.57561,-8.5904c2.65419,0.69858 3.11806,5.67723 1.03608,11.12015z" fill="#ba0000" stroke-linecap="butt"></path><path d="M246.85174,198.12858c1.09009,3.98929 -3.59851,8.74588 -10.47227,10.62416c-6.87377,1.87829 -13.32973,0.16698 -14.41982,-3.82231c-1.09009,-3.98928 3.59851,-8.74588 10.47227,-10.62416c6.87377,-1.87828 13.32973,-0.16697 14.41982,3.82232z" fill="#00ff07" stroke-linecap="butt"></path><path d="M262.84705,208.49688c0,-0.44277 0.09992,-0.80171 0.22316,-0.80171c0.12325,0 0.22317,0.35893 0.22317,0.80171c0,0.44277 -0.09992,0.80171 -0.22317,0.80171c-0.12325,0 -0.22316,-0.35893 -0.22316,-0.80171z" fill="#ba0000" stroke-linecap="butt"></path><path d="M261.42255,197.38414c4.79317,4.01648 6.40424,9.98689 3.59842,13.3353c-2.80582,3.34841 -8.96603,2.80684 -13.7592,-1.20962c-4.79317,-4.01648 -6.40424,-9.98688 -3.59842,-13.3353c2.80582,-3.34841 8.96603,-2.80685 13.7592,1.20961z" fill="#00ff07" stroke-linecap="butt"></path><path d="M260.87988,185.97485c0,8.17066 -7.31231,14.79429 -16.3325,14.79429c-9.02019,0 -16.3325,-6.62362 -16.3325,-14.79429c0,-8.17066 7.31231,-14.79429 16.3325,-14.79429c6.1242,0 7.08045,4.62359 9.8761,9.14129c1.32199,2.13631 6.45641,3.02975 6.45641,5.65299z" fill="#ffffff" stroke-linecap="butt"></path><path d="M252.58213,177.07673c1.75178,4.97743 -1.39072,0.79217 -12.26053,7.58335c-5.2042,3.25146 -7.31125,8.05671 -9.86447,6.74994c-1.00212,-0.51289 -2.30553,-4.84016 -1.02073,-9.41651c1.16641,-4.15467 4.71307,-8.55824 7.88902,-9.676c6.67426,-2.34898 13.50492,-0.2182 15.25671,4.75922z" fill="#f38dff" stroke-linecap="butt"></path><path d="M230.83754,183.44134l-4.8948,-12.63938l11.10974,7.24063z" fill="#f38dff" stroke-linecap="butt"></path><path d="M243.35165,173.39565l7.36077,-11.03051l0.47799,13.54564z" data-paper-data="{&quot;index&quot;:null}" fill="#f38dff" stroke-linecap="butt"></path><path d="M243.7718,182.31404l1.7688,10.0006" fill="none" stroke-linecap="round"></path><path d="M251.85197,191.80402l-1.78533,-10.61222" fill="none" stroke-linecap="round"></path><path d="M254.23843,192.62196c0,0 1.41673,3.94066 -2.71949,3.72679c-1.07005,-0.05533 -3.08978,-3.58893 -3.08978,-3.58893c0,0 -1.58811,3.59628 -2.78672,3.48426c-4.80889,-0.44943 -5.37956,-3.86437 -5.37956,-3.86437" fill="none" stroke-linecap="round"></path></g></g></svg>