<svg version="1.1" xmlns="http://www.w3.org/2000/svg" xmlns:xlink="http://www.w3.org/1999/xlink" width="67.85807" height="36.38204" viewBox="0,0,67.85807,36.38204"><defs><linearGradient x1="318.32694" y1="185.04209" x2="339.97213" y2="185.04209" gradientUnits="userSpaceOnUse" id="color-1"><stop offset="0" stop-color="#b2b2b2"/><stop offset="1" stop-color="#000000"/></linearGradient><linearGradient x1="323.25194" y1="185.43001" x2="335.34078" y2="185.43001" gradientTransform="translate(-1192.59064,-696.11664) scale(3.68936,3.68936)" gradientUnits="userSpaceOnUse" id="color-2"><stop offset="0" stop-color="#000000"/><stop offset="1" stop-color="#ff0000"/></linearGradient></defs><g transform="translate(-286.18157,-161.11121)"><g stroke-miterlimit="10"><path d="M353.53964,185.03506c0,4.04793 -1.58213,9.10268 -9.88928,11.31419c-2.75719,0.73402 -12.78762,0.67081 -22.72265,0.64401c-9.81559,-0.02648 -19.53807,-0.00867 -22.06138,-0.58095c-9.45609,-2.14463 -11.78946,-7.00567 -11.78946,-11.37725c0,-3.2602 1.15336,-7.94004 6.85672,-10.23105c3.06736,-1.23214 15.18643,-1.35869 27.1798,-1.2272c11.66409,0.12789 23.20929,0.48001 26.19352,1.68248c5.68176,2.2894 6.23272,6.52253 6.23272,9.77576z" fill="#6f6f6f" stroke="#000000"/><text transform="translate(286.29909,171.10083) scale(0.23505,0.23505)" font-size="40" xml:space="preserve" fill="#000000" stroke="none" font-family="Sans Serif" font-weight="normal" text-anchor="start"><tspan x="0" dy="0">ZOMBIE SPEED</tspan></text><path d="M318.32694,185.04209c0,-5.97716 4.84544,-10.8226 10.8226,-10.8226c5.97715,0 10.82259,4.84544 10.82259,10.8226c0,5.97716 -4.84544,10.8226 -10.82259,10.8226c-5.97716,0 -10.8226,-4.84544 -10.8226,-10.8226z" fill="url(#color-1)" stroke="#000000"/><text transform="translate(323.25169,188.68241) scale(0.27105,0.27105)" font-size="40" xml:space="preserve" fill="url(#color-2)" stroke="none" font-family="Sans Serif" font-weight="normal" text-anchor="start"><tspan x="0" dy="0">x4</tspan></text></g></g></svg>