<svg version="1.1" xmlns="http://www.w3.org/2000/svg" xmlns:xlink="http://www.w3.org/1999/xlink" width="54.95423" height="51.80689" viewBox="0,0,54.95423,51.80689"><g transform="translate(-292.52289,-154.63562)"><g stroke="#000000" stroke-width="1.28786" stroke-miterlimit="10"><path d="M335.57273,175.11081l8.11657,-1.35924c0,0 3.81483,12.83166 -1.49794,13.72136c-5.31276,0.8897 -6.61862,-12.36212 -6.61862,-12.36212z" fill="#5b068a" stroke-linecap="butt"/><path d="M305.50978,204.72048c-1.64561,0 -2.97963,-1.25202 -2.97963,-2.79646v-26.88342c0,-1.54444 1.33402,-2.79646 2.97963,-2.79646h28.64435c1.64561,0 2.97964,1.25202 2.97964,2.79646v26.88342c0,1.54444 -1.33404,2.79646 -2.97964,2.79646z" fill="#e1ff37" stroke-linecap="butt"/><path d="M294.72265,178.76983c0,0 -2.14391,-4.37933 -0.44743,-6.00623c1.69649,-1.6269 2.26568,-2.64319 9.38873,-7.10337c5.57473,-3.49068 9.20778,-10.21296 17.00988,-10.38067c5.50378,-0.11831 10.4867,7.01176 13.99625,9.63476c6.27326,4.68858 6.52991,2.68755 10.50076,7.59903c3.97085,4.91148 -0.78301,6.25649 -0.78301,6.25649z" fill="#bc246d" stroke-linecap="butt"/><path d="M325.29276,190.74892l5.03146,-5.31098" fill="none" stroke-linecap="round"/><path d="M325.85181,190.97254l4.64012,1.50944" fill="none" stroke-linecap="round"/><path d="M331.68719,197.89763c0,0 -7.21298,-0.04888 -6.48779,-3.46761c0.72518,-3.41873 8.05381,-3.91505 8.05381,-3.91505" fill="#e1ff37" stroke-linecap="round"/><path d="M316.96298,204.52711c-3.17349,-1.82453 -2.29753,-8.79466 -2.29753,-8.79466c0,0 3.56229,0.4155 5.25852,0.23294c1.89409,-0.20384 5.57804,-1.39918 5.57804,-1.39918c0,0 5.04637,5.70977 2.41177,8.78306c-2.6346,3.07329 -7.77732,3.00237 -10.95081,1.17785z" fill="#d5297c" stroke-linecap="butt"/><path d="M321.66383,200.2193l-1.11859,-4.6255" fill="none" stroke-linecap="round"/><path d="M294.80255,178.53014c0,0 -2.14392,-4.37933 -0.44743,-6.00623c1.56146,-1.49741 -1.87531,0.61279 3.23613,-2.48132c0.44203,-0.26758 1.6617,-0.33617 2.22866,-0.69117c5.57473,-3.49068 3.34818,5.31014 6.9515,5.10388c1.40777,-0.08057 2.30449,-5.24238 6.23181,-5.61403c3.43783,-0.32532 3.31803,5.17254 6.44124,4.66896c3.74421,-0.60371 5.17738,0.29945 6.04156,-0.17509c3.38444,-1.85846 0.43856,-3.38891 1.03512,-4.32221c1.00521,-1.57263 1.88489,4.14909 6.61329,3.16916c4.62653,-0.95882 10.49093,-1.91887 12.11633,0.09157c3.97085,4.91148 -0.78301,6.25649 -0.78301,6.25649c0,0 -22.87132,0.15228 -37.79891,2.37689c-2.54873,0.37983 -1.60137,5.06548 -3.23326,5.81968c-1.67227,0.77286 -2.90929,-5.32661 -4.71418,-5.69891c-0.62489,-0.12889 -1.24339,2.94584 -1.91854,3.76946c-1.22181,1.49047 -2.44744,1.24337 -2.94384,1.24337c-1.99001,0 0.94356,-7.5105 0.94356,-7.5105z" fill="#5b068a" stroke-linecap="butt"/><path d="M309.75115,188.06548l6.14956,3.18659l-5.14327,2.68344" fill="none" stroke-linecap="round"/><path d="M307.92196,191.29799c0,0 7.32862,0.49632 8.05381,3.91505c0.72518,3.41873 -6.48779,3.46761 -6.48779,3.46761" fill="#e1ff37" stroke-linecap="round"/></g></g></svg>