<svg version="1.1" xmlns="http://www.w3.org/2000/svg" xmlns:xlink="http://www.w3.org/1999/xlink" width="58.08068" height="68.62668" viewBox="0,0,58.08068,68.62668"><g transform="translate(-210.9064,-145.25211)"><g data-paper-data="{&quot;isPaintingLayer&quot;:true}" fill-rule="nonzero" stroke-width="1.28786" stroke-linejoin="miter" stroke-miterlimit="10" stroke-dasharray="" stroke-dashoffset="0" style="mix-blend-mode: normal"><g><path d="M238.22381,210.1791c-1.06059,0.66716 -2.33747,0.82569 -3.65811,0.5498c-2.24993,-0.47 -4.62691,-2.20083 -6.27789,-4.82538c-2.62006,-4.1651 -4.21456,-8.12372 -4.21456,-8.12372c0,0 4.17541,2.22624 8.14536,2.35492c2.73459,0.08865 5.38454,-2.46206 6.45319,-0.76323c2.62004,4.1651 2.41948,9.00384 -0.44797,10.80761z" data-paper-data="{&quot;index&quot;:null}" fill="#2c8e53" stroke="#000000" stroke-linecap="butt"></path><path d="M244.08337,198.91984c1.06865,-1.69884 3.7186,0.85187 6.45319,0.76323c3.96994,-0.12869 8.14534,-2.35492 8.14534,-2.35492c0,0 -1.5945,3.9586 -4.21456,8.12371c-1.65097,2.62456 -4.02796,4.35539 -6.27789,4.82539c-1.32066,0.27589 -2.59753,0.11736 -3.65813,-0.5498c-2.86746,-1.80376 -3.06802,-6.64249 -0.44796,-10.80761z" data-paper-data="{&quot;index&quot;:null}" fill="#2c8e53" stroke="#000000" stroke-linecap="butt"></path><g data-paper-data="{&quot;index&quot;:null}" fill="#fae951" stroke="#000000" stroke-linecap="butt"><path d="M259.04321,179.58466c-2.79144,1.18328 -8.25578,1.13062 -8.25578,1.13062l-10.53297,-5.91586l-10.19203,7.2634c0,0 -5.4726,0.40254 -7.1811,-0.07191c-3.24588,-0.9014 -10.86801,-4.94044 -10.86801,-4.94044c0,0 6.0858,-5.58803 9.21584,-6.88742c2.74814,-1.14083 8.56818,-0.49527 8.56818,-0.49527l10.72021,4.82636l8.12885,-6.14849c0,0 6.90842,-1.84629 9.80311,-1.08613c3.45308,0.90678 9.53716,6.16501 9.53716,6.16501c0,0 -6.00899,4.91618 -8.94346,6.1601z" data-paper-data="{&quot;index&quot;:null}"></path><g><path d="M260.23183,163.73491c-1.29038,3.02872 -5.60169,7.10562 -5.60169,7.10562l-12.69223,3.31341l-2.49345,13.35898c0,0 -3.9747,4.439 -5.66782,5.3557c-3.21671,1.74154 -12.21906,4.3284 -12.21906,4.3284c0,0 0.54611,-8.95474 2.01369,-12.32939c1.28854,-2.96288 6.32471,-6.84441 6.32471,-6.84441l12.01754,-4.30618l1.72081,-10.93259c0,0 4.00906,-6.64966 6.84479,-8.23696c3.38274,-1.89347 12.10156,-2.36816 12.10156,-2.36816c0,0 -0.99238,8.37165 -2.34889,11.55557z" data-paper-data="{&quot;index&quot;:null}"></path><path d="M216.70704,155.54385c0,0 8.52835,-0.32762 11.99199,1.20879c2.90355,1.28798 7.40746,7.39653 7.40746,7.39653l2.66479,10.48402l12.08573,3.10255c0,0 5.25287,3.3215 6.77519,6.08837c1.7339,3.15139 3.07634,11.8169 3.07634,11.8169c0,0 -8.99556,-1.7023 -12.28386,-3.10592c-1.7308,-0.73881 -6.00107,-4.699 -6.00107,-4.699l-3.63649,-12.77549l-12.65244,-2.07523c0,0 -4.56507,-3.5773 -6.09518,-6.40807c-0.41634,-0.77025 1.67629,-2.00549 0.86351,-4.52897c-0.46812,-1.45341 -3.16028,-2.20713 -3.16028,-2.20713l-1.03571,-4.29732z"></path><path d="M237.94842,145.89604c0,0 5.96127,5.52019 7.25854,8.8859c1.0875,2.82147 0.00735,9.96507 0.00735,9.96507l-5.26337,8.85092l6.04689,10.22375c0,0 0.59578,-4.59002 -0.24195,-1.70282c-0.95417,3.28844 -5.24906,-2.40748 -5.24906,-2.40748c0,0 0.87683,-0.76398 -0.94589,2.88495c-0.87943,1.76055 -1.84325,-2.37468 -2.25613,-3.40257c-0.66776,-1.66239 -3.78263,5.75001 -3.78263,5.75001l6.15177,-11.04747l-7.11986,-9.91372c0,0 -0.6649,-5.4809 0.2106,-8.41635c0.92039,-3.08586 5.18376,-9.67018 5.18376,-9.67018z"></path></g></g><path d="M236.98571,205.36019v-27.86621h7.89329v27.86621z" fill="#2c8e53" stroke="#000000" stroke-linecap="butt"></path><path d="M241.11546,188.684c-9.02838,0 -16.34732,-5.99655 -16.34732,-13.39367c0,-7.39712 7.31894,-13.39368 16.34732,-13.39368c9.02838,0 16.34732,5.99656 16.34732,13.39368c0,7.39712 -7.31894,13.39367 -16.34732,13.39367z" fill="#f9ae4d" stroke="#000000" stroke-linecap="butt"></path><path d="M236.5969,179.79721c-0.80366,0 -1.45515,-2.7806 -1.45515,-6.21063c0,-3.43004 0.6515,-6.21063 1.45515,-6.21063c0.80366,0 1.45515,2.7806 1.45515,6.21063c0,3.43004 -0.6515,6.21063 -1.45515,6.21063z" fill="#000000" stroke="#000000" stroke-linecap="butt"></path><path d="M243.68096,177.84495c-0.52139,0 -0.94407,-2.75199 -0.94407,-6.14675c0,-3.39475 0.42268,-6.14675 0.94407,-6.14675c0.52139,0 0.94407,2.75199 0.94407,6.14675c0,3.39475 -0.42268,6.14675 -0.94407,6.14675z" fill="#000000" stroke="#000000" stroke-linecap="butt"></path><g stroke-linecap="round"><path d="M238.0784,184.83973l15.73904,-7.85732c0,0 3.5017,6.98897 0.53892,8.46806c-2.96277,1.47909 -16.27797,-0.61075 -16.27797,-0.61075z" fill="#000000" stroke="#000000"></path><path d="M253.59653,180.82593l1.47591,0.45129c0,0 -0.0471,0.72952 -0.11652,0.97489c-0.08345,0.29499 0.34155,0.74292 0.34155,0.74292z" data-paper-data="{&quot;index&quot;:null}" fill="#ffffff" stroke="#ffffff"></path><path d="M252.36034,185.55422l0.21236,-2.24988l1.46521,1.45576c0,0 -0.58578,0.5733 -0.90867,0.69583c-0.36854,0.13986 -1.18375,0.09828 -1.18375,0.09828z" data-paper-data="{&quot;index&quot;:null}" fill="#ffffff" stroke="#ffffff"></path><path d="M247.59795,185.615l-1.93188,-0.11457l0.53402,-2.04887z" data-paper-data="{&quot;index&quot;:null}" fill="#ffffff" stroke="#ffffff"></path><path d="M250.23866,185.68628l-1.62714,-0.05463l1.54667,-2.08385z" data-paper-data="{&quot;index&quot;:null}" fill="#ffffff" stroke="#ffffff"></path><path d="M238.10835,184.72144l15.73904,-7.85732c0,0 3.5017,6.98897 0.53892,8.46806c-2.96277,1.47909 -16.27797,-0.61075 -16.27797,-0.61075z" fill="none" stroke="#000000"></path></g><path d="M240.80323,210.50935c-0.40622,1.1853 -1.30023,2.11067 -2.50114,2.72551c-2.04594,1.04749 -4.98268,1.1937 -7.91585,0.18845c-4.65488,-1.5953 -8.38204,-3.67405 -8.38204,-3.67405c0,0 4.6473,-0.89032 7.81724,-3.28375c2.18353,-1.64866 2.6434,-5.29787 4.54199,-4.6472c4.65488,1.5953 7.53807,5.4864 6.43979,8.69103z" fill="#2c8e53" stroke="#000000" stroke-linecap="butt"></path><path d="M247.77707,200.69604c1.89859,-0.65068 2.35846,2.99855 4.54199,4.6472c3.16994,2.39343 7.81724,3.28375 7.81724,3.28375c0,0 -3.72716,2.07875 -8.38204,3.67405c-2.93317,1.00523 -5.86992,0.85903 -7.91585,-0.18845c-1.20091,-0.61485 -2.09492,-1.54021 -2.50114,-2.72551c-1.09828,-3.20463 1.78493,-7.09573 6.43979,-8.69103z" data-paper-data="{&quot;index&quot;:null}" fill="#2c8e53" stroke="#000000" stroke-linecap="butt"></path><path d="M244.59368,191.12576c0.64609,-1.0271 2.24823,0.51503 3.90155,0.46144c2.4002,-0.0778 4.92462,-1.42377 4.92462,-1.42377c0,0 -0.96403,2.39334 -2.54809,4.91153c-0.99817,1.58679 -2.43527,2.63323 -3.79556,2.9174c-0.79846,0.16679 -1.57046,0.07095 -2.21168,-0.33241c-1.73364,-1.09054 -1.8549,-4.01601 -0.27083,-6.53419z" data-paper-data="{&quot;index&quot;:null}" fill="#2c8e53" stroke="#000000" stroke-linecap="butt"></path><path d="M237.19753,197.94292c-0.64123,0.40336 -1.41322,0.4992 -2.21168,0.33241c-1.36029,-0.28416 -2.7974,-1.33061 -3.79556,-2.9174c-1.58406,-2.5182 -2.54808,-4.91152 -2.54808,-4.91152c0,0 2.52441,1.34596 4.92461,1.42377c1.65331,0.0536 3.25545,-1.48854 3.90155,-0.46144c1.58406,2.5182 1.46281,5.44366 -0.27083,6.5342z" data-paper-data="{&quot;index&quot;:null}" fill="#2c8e53" stroke="#000000" stroke-linecap="butt"></path><path d="M237.27906,198.56357v-7.6733h7.01559v7.6733z" fill="#9fd743" stroke="#000000" stroke-linecap="butt"></path></g></g></g></svg>