<svg version="1.1" xmlns="http://www.w3.org/2000/svg" xmlns:xlink="http://www.w3.org/1999/xlink" width="52.85392" height="68.50862" viewBox="0,0,52.85392,68.50862"><g transform="translate(-213.57304,-145.01569)"><g data-paper-data="{&quot;isPaintingLayer&quot;:true}" fill-rule="nonzero" stroke-width="1.28786" stroke-linejoin="miter" stroke-miterlimit="10" stroke-dasharray="" stroke-dashoffset="0" style="mix-blend-mode: normal"><path d="M226.36872,159.69325l-5.252,-8.49509l9.98184,2.40954l-0.08734,-5.46087l3.40259,3.80514l2.48169,-4.83236l0.87723,6.28683" fill="#f7006f" stroke="#000000" stroke-linecap="round"></path><path d="M223.85039,197.00219c-5.89641,-1.74918 -9.86261,-5.91048 -8.85874,-9.29451c1.00388,-3.38403 6.59769,-4.70935 12.4941,-2.96016c5.89641,1.74918 9.86261,5.91048 8.85874,9.29451c-1.00388,3.38403 -6.59769,4.70935 -12.4941,2.96016z" data-paper-data="{&quot;index&quot;:null}" fill="#00ff1b" stroke="#000000" stroke-linecap="butt"></path><path d="M244.43019,193.65468c-1.00388,-3.38403 2.96231,-7.54532 8.85874,-9.29451c5.89641,-1.74918 11.49023,-0.42386 12.4941,2.96018c1.00387,3.38403 -2.96231,7.54532 -8.85874,9.2945c-5.89641,1.74918 -11.49022,0.42387 -12.4941,-2.96016z" data-paper-data="{&quot;index&quot;:null}" fill="#00ff1b" stroke="#000000" stroke-linecap="butt"></path><path d="M222.34972,171.20534c0,-9.94761 8.06412,-18.01173 18.01173,-18.01173c9.94761,0 18.01173,8.06412 18.01173,18.01173c0,9.94761 -8.06412,18.01173 -18.01173,18.01173c-9.94761,0 -18.01173,-8.06412 -18.01173,-18.01173z" fill="#f7006f" stroke="#000000" stroke-linecap="butt"></path><path d="M235.5698,202.42695c1.00388,3.38403 -2.96231,7.54532 -8.85873,9.29451c-5.89641,1.74918 -11.49022,0.42387 -12.4941,-2.96016c-1.00388,-3.38403 2.96231,-7.54532 8.85873,-9.29451c5.89641,-1.74918 11.49022,-0.42387 12.4941,2.96016z" data-paper-data="{&quot;index&quot;:null}" fill="#00ff1b" stroke="#000000" stroke-linecap="butt"></path><path d="M256.14959,199.85413c5.89641,1.74918 9.86261,5.91048 8.85874,9.29451c-1.00387,3.38403 -6.59768,4.70935 -12.4941,2.96016c-5.89641,-1.74918 -9.86261,-5.91048 -8.85874,-9.29451c1.00388,-3.38403 6.59768,-4.70935 12.4941,-2.96016z" data-paper-data="{&quot;index&quot;:null}" fill="#00ff1b" stroke="#000000" stroke-linecap="butt"></path><path d="M240.48418,202.10798c-3.74372,0 -6.77862,-2.21113 -6.77862,-4.9387c0,-2.72757 3.0349,-4.9387 6.77862,-4.9387c3.74372,0 6.77861,2.21113 6.77861,4.9387c0,2.72757 -3.03488,4.9387 -6.77861,4.9387z" fill="#b2b2b2" stroke="#000000" stroke-linecap="butt"></path><path d="M225.18389,165.75157l16.86891,-0.24807" fill="none" stroke="#000000" stroke-linecap="round"></path><path d="M242.30087,165.75157c0,0 -4.22195,7.37453 -7.44216,7.69023c-3.22022,0.31571 -5.79054,-7.41824 -5.79054,-7.41824z" fill="#ffffff" stroke="#000000" stroke-linecap="round"></path><path d="M262.44302,165.75157l-16.86891,-0.24807" data-paper-data="{&quot;index&quot;:null}" fill="none" stroke="#000000" stroke-linecap="round"></path><path d="M259.13977,166.21722c0,0 -3.15134,7.54028 -6.37156,7.22458c-3.22021,-0.31571 -7.44216,-7.69023 -7.44216,-7.69023z" data-paper-data="{&quot;index&quot;:null}" fill="#ffffff" stroke="#000000" stroke-linecap="round"></path><path d="M237.38538,183.12787l-8.13433,-0.58102l2.90512,-5.03553c0,0 -0.43292,2.15769 1.66227,3.50005c4.86093,3.11433 12.66965,4.24693 12.66965,4.24693" fill="#ffffff" stroke="#000000" stroke-linecap="round"></path><path d="M237.41565,199.14236l7.23968,-3.08262l-11.74457,-0.72301l8.12053,-3.90422" fill="none" stroke="#00d3e3" stroke-linecap="round"></path></g></g></svg>