<svg version="1.1" xmlns="http://www.w3.org/2000/svg" xmlns:xlink="http://www.w3.org/1999/xlink" width="33.55936" height="42.80943" viewBox="0,0,33.55936,42.80943"><g transform="translate(-223.22075,-157.13103)"><g data-paper-data="{&quot;isPaintingLayer&quot;:true}" fill-rule="nonzero" stroke="#000000" stroke-width="1.28786" stroke-linejoin="miter" stroke-miterlimit="10" stroke-dasharray="" stroke-dashoffset="0" style="mix-blend-mode: normal"><path d="M230.70253,171.41692c0.02453,-0.03371 -3.60227,1.33167 -3.65974,0.99489c-0.35295,-2.06803 1.59312,-10.48061 1.59312,-10.48061l4.74326,3.93493l1.36482,-4.57417l4.21633,4.97386l-0.70506,0.83601l0.38258,-0.44907l3.25697,-5.73163l4.29695,6.66676l-0.66106,0.09673l2.72489,-6.61837l3.59557,6.22337l3.28923,-6.58614c0,0 -1.37707,11.82316 -1.44042,13.13662c-0.01167,0.24186 0.80864,-0.03782 0.80864,-0.03782" data-paper-data="{&quot;index&quot;:null}" fill="#00ffff" stroke-linecap="round"></path><path d="M226.64574,172.47718l2.70071,-7.96463l3.28923,6.58614l3.59558,-6.22338l2.72489,6.61838l-0.66106,-0.09674l4.29696,-6.66675l3.25697,5.73163l0.38258,0.44907l-0.70505,-0.83601l4.21633,-4.97386l2.69265,6.37655l0.95921,1.31837" fill="#00ffff" stroke-linecap="round"></path><path d="M226.97603,199.29653l2.44274,-24.80483l22.10553,0.12898l3.65201,24.67585z" fill="#87ffff" stroke-linecap="butt"></path><path d="M256.13618,174.90685c0,0.64658 -0.51245,1.78635 -4.96768,2.24408c-5.32283,0.54687 -15.09172,0.34072 -20.19479,0.16891c-5.9633,-0.20076 -7.10903,-1.51028 -7.10903,-2.413c0,-1.14874 -0.25076,-2.43047 7.73173,-2.4425c4.19257,-0.00632 13.49053,-0.13788 18.69049,0.34958c4.91016,0.4603 5.84927,1.5232 5.84927,2.09292z" fill="#549e9e" stroke-linecap="butt"></path><path d="M227.24335,175.68312l2.70071,-7.96463l3.28923,6.58614l3.59557,-6.22337l2.72489,6.61838l-0.66106,-0.09674l4.29695,-6.66674l3.25697,5.73163l0.38258,0.44906l-0.70505,-0.83601l4.21633,-4.97387l2.69265,6.37655l0.9592,1.31837" fill="#00ffff" stroke-linecap="round"></path><path d="M229.83142,180.12856l8.36895,2.66133" fill="none" stroke-linecap="round"></path><path d="M239.79875,182.2923l9.5979,-2.46531" fill="none" stroke-linecap="round"></path><path d="M238.70553,184.1884c0,1.90076 -1.3283,3.44162 -2.96683,3.44162c-1.63854,0 -2.96683,-1.54086 -2.96683,-3.44162c0,-1.90076 0.0918,-2.34091 1.73033,-2.34091c1.63853,0 4.20333,0.44015 4.20333,2.34091z" fill="#ffffff" stroke-linecap="butt"></path><path d="M240.20392,183.9755c0,-1.90076 2.56479,-2.34091 4.20332,-2.34091c1.63853,0 1.73033,0.44015 1.73033,2.34091c0,1.90076 -1.32829,3.44163 -2.96682,3.44163c-1.63853,0 -2.96683,-1.54087 -2.96683,-3.44163z" data-paper-data="{&quot;index&quot;:null}" fill="#ffffff" stroke-linecap="butt"></path><path d="M238.86385,193.95539c0,0 2.55861,-1.98135 4.40302,-2.66011c1.52075,-0.55966 5.88098,-1.12454 5.88098,-1.12454" fill="none" stroke-linecap="round"></path></g></g></svg>