<svg version="1.1" xmlns="http://www.w3.org/2000/svg" xmlns:xlink="http://www.w3.org/1999/xlink" width="23.54058" height="40.75929" viewBox="0,0,23.54058,40.75929"><g transform="translate(-284.51624,-160.10476)"><g stroke="#000000" stroke-miterlimit="10"><path d="M286.86588,176.4569l-0.03312,-5.05849l7.22173,-0.15072l0.03312,5.0585z" fill="#00f5ff" stroke-width="0.5" stroke-linecap="butt"/><path d="M289.67959,169.96192l3.19488,-3.18848l-0.19934,4.10665c0,0 -0.04442,-0.11462 -1.18005,-0.61946c-0.52056,-0.23141 -1.8155,-0.29871 -1.8155,-0.29871z" fill="#ff0000" stroke-width="0.5" stroke-linecap="round"/><path d="M288.07957,173.01724l-2.95141,-3.4151l4.08182,0.49303c0,0 -0.11751,0.03609 -0.70241,1.13264c-0.26812,0.50265 -0.428,1.78943 -0.428,1.78943z" fill="#00ff2d" stroke-width="0.5" stroke-linecap="round"/><path d="M288.31078,171.28003l-0.62842,-4.06318l3.51131,2.83627c0,0 -1.03954,0.23151 -1.55673,0.40629c-0.96688,0.32673 -1.32615,0.82063 -1.32615,0.82063z" fill="#1b00ff" stroke-width="0.5" stroke-linecap="round"/><path d="M289.58855,183.03933l-3.53735,0.50519l5.11408,-6.26971l11.71983,0.31896l-0.0429,5.54804l-11.37744,-2.10731z" fill="#ffffff" stroke-width="0.5" stroke-linecap="butt"/><path d="M292.24825,182.68643l-1.06878,-5.45179l1.90813,-0.37407l1.06878,5.45179z" fill="#ffa661" stroke-width="0.5" stroke-linecap="butt"/><path d="M286.05173,185.81408l-0.10909,-9.3327l8.99939,-0.10519l0.10909,9.3327z" fill="#ff0000" stroke-width="0.5" stroke-linecap="butt"/><path d="M286.86588,179.41524l-0.03312,-2.83313l7.22173,-0.08442l0.03312,2.83314z" fill="#000000" stroke-width="0.5" stroke-linecap="butt"/><path d="M297.97352,200.48954v-40.13478h8.13158v40.13478z" fill="#0b8100" stroke-width="0.5" stroke-linecap="butt"/><path d="M297.91373,200.61405v-23.24734h8.20606v23.24734z" fill="#ffffff" stroke-width="0.5" stroke-linecap="butt"/><path d="M301.36423,168.12815c0,2.46086 -0.62987,4.45579 -1.40685,4.45579c-0.77698,0 -1.40685,-1.99492 -1.40685,-4.45579c0,-2.46086 0.62987,-4.45579 1.40685,-4.45579c0.77698,0 1.40685,1.99492 1.40685,4.45579z" fill="#000000" stroke-width="0.5" stroke-linecap="butt"/><path d="M295.97191,190.26391l-3.47188,0.61601l0.18961,-5.08919l10.07482,-7.34098l0.72671,5.13985l-6.45627,3.28285z" fill="#ffffff" stroke-width="0.5" stroke-linecap="butt"/><path d="M298.57562,187.54651l-3.70784,-4.13717l1.44801,-1.29774l3.70784,4.13717z" fill="#ffa661" stroke-width="0.5" stroke-linecap="butt"/><path d="M301.47348,184.71795v-6.77778h2.66667v6.77778z" fill="#ffa661" stroke-width="0.5" stroke-linecap="butt"/><path d="M297.75126,191.21795v-2.38889h8.66667v2.38889z" fill="#ffa661" stroke-width="0.5" stroke-linecap="butt"/><path d="M296.64015,177.66239v-3.05556h11.16667v3.05556z" fill="#ffa661" stroke-width="0.5" stroke-linecap="butt"/><path d="M303.7721,170.01675c0.70225,-0.47037 1.28571,1.74286 1.28571,1.74286c0,0 -1.08353,0.17693 -1.61155,0.5306c-0.47613,0.31892 -1.41702,1.49797 -1.41702,1.49797c0,0 1.04061,-3.30106 1.74286,-3.77143z" fill="#000000" stroke-width="0.5" stroke-linecap="round"/><path d="M299.41314,161.62271l2.94118,2.11765" fill="none" stroke-width="0.5" stroke-linecap="round"/><g stroke-width="0.5" stroke-linecap="butt"><path d="M289.41445,179.23932l-0.07736,-5.54232l2.05694,-0.02871l0.07736,5.54232z" fill="#6e9c9a"/><path d="M288.78486,175.07627l-0.01196,-0.85706l3.17112,-0.04426l0.01196,0.85706z" fill="#3d5654"/><path d="M288.92625,177.01735l-0.01196,-0.85706l3.17112,-0.04426l0.01196,0.85706z" fill="#3d5654"/><path d="M288.9244,178.93185l-0.01196,-0.85706l3.17112,-0.04426l0.01196,0.85706z" fill="#3d5654"/></g><path d="M288.05933,172.22898c-0.01565,-1.12117 0.53846,-2.12397 1.58736,-2.3688c0.1615,-0.0377 0.54993,-0.00412 0.72257,-0.00653c1.2938,-0.01806 2.35727,1.01613 2.37533,2.30993c0.01806,1.2938 -1.01613,2.35727 -2.30993,2.37533c-1.04098,0.01453 -1.93284,-0.65212 -2.25106,-1.58711c-0.07729,-0.22708 -0.12074,-0.46999 -0.12427,-0.72281z" fill="#ffffff" stroke-width="0.5" stroke-linecap="butt"/><path d="M289.33796,172.3463c0,-0.45595 0.36962,-0.82558 0.82558,-0.82558c0.45596,0 0.82558,0.36963 0.82558,0.82558c0,0.45595 -0.36962,0.82558 -0.82558,0.82558c-0.45596,0 -0.82558,-0.36963 -0.82558,-0.82558z" fill="#000000" stroke-width="0.5" stroke-linecap="butt"/><path d="M289.72363,173.39213l1.73061,0.44052c0,0 -1.15246,0.31555 -1.85647,0.13635c-0.70402,-0.1792 0.12586,-0.57687 0.12586,-0.57687z" fill="#000000" stroke-width="0" stroke-linecap="round"/><path d="M291.4775,171.60211c0,-0.45595 0.36962,-0.82558 0.82558,-0.82558c0.45596,0 0.82558,0.36963 0.82558,0.82558c0,0.45595 -0.36962,0.82558 -0.82558,0.82558c-0.45596,0 -0.82558,-0.36962 -0.82558,-0.82558z" fill="#000000" stroke-width="0.5" stroke-linecap="butt"/><path d="M292.24774,172.66303c0,0.34818 -0.29199,0.63044 -0.65217,0.63044c-0.36019,0 -0.65217,-0.28225 -0.65217,-0.63044c0,-0.34818 0.29199,-0.63044 0.65217,-0.63044c0.36019,0 0.65217,0.28225 0.65217,0.63044z" fill="#ff0000" stroke-width="0.125" stroke-linecap="butt"/></g></g></svg>