<svg version="1.1" xmlns="http://www.w3.org/2000/svg" xmlns:xlink="http://www.w3.org/1999/xlink" width="144" height="117.75" viewBox="0,0,144,117.75"><g transform="translate(-168,-139)"><g data-paper-data="{&quot;isPaintingLayer&quot;:true}" fill-rule="nonzero" stroke="none" stroke-linecap="butt" stroke-linejoin="miter" stroke-miterlimit="10" stroke-dasharray="" stroke-dashoffset="0" style="mix-blend-mode: normal"><text transform="translate(177,250.5) scale(0.5,0.5)" font-size="40" xml:space="preserve" fill="#000000" fill-rule="nonzero" stroke="none" stroke-width="1" stroke-linecap="butt" stroke-linejoin="miter" stroke-miterlimit="10" stroke-dasharray="" stroke-dashoffset="0" font-family="Sans Serif" font-weight="normal" text-anchor="start" style="mix-blend-mode: normal"><tspan x="0" dy="0">Infinite Mode</tspan></text><path d="M312,180c0,22.64367 -32.2355,41 -72,41c-39.7645,0 -72,-18.35633 -72,-41c0,-22.64367 32.2355,-41 72,-41c39.7645,0 72,18.35633 72,41z" fill="#00d1cc" stroke-width="0"></path><path d="M235.26644,180.9676c-2.54219,2.52966 -5.16044,4.96153 -7.69867,7.50017c-2.63869,2.63911 -4.69445,5.87867 -9.00964,5.52051c-2.85049,-0.2366 -5.08531,-2.48335 -7.02878,-4.22845c-4.51857,-4.05738 -9.08719,-8.63929 -7.34455,-15.30543c0.66797,-2.55522 2.13592,-4.72222 4.06468,-6.47738c-0.08893,-1.40883 1.26428,-2.22075 1.26428,-2.22075l3.14756,-1.55242c0.61703,-0.03186 1.24271,-0.04145 1.87432,-0.02913c3.0625,-1.1931 6.34581,-1.731 9.2203,-1.56985c0,0 2.49513,0.15595 2.33919,2.65108c-0.03532,0.56518 -0.19066,0.99433 -0.40984,1.32009c2.19557,0.93068 4.25865,2.12216 6.05951,3.55836c0.99159,0.79081 1.62911,1.94599 2.49491,2.87283c0.30614,0.32773 0.61367,0.65597 0.92242,0.98457c4.02899,-4.28295 8.31671,-9.34904 13.48919,-11.2048c1.30436,-0.46797 2.75049,-1.06952 4.09325,-0.72696c1.80468,0.4604 4.38011,3.23081 5.8232,4.6722c3.71276,3.70838 11.63739,9.24397 10.6936,15.20555c-0.37225,2.35136 -3.18011,5.29314 -4.63171,6.86584c-3.33135,3.60927 -7.72805,9.10546 -13.45717,7.25544c-1.11963,-0.36155 -1.89319,-1.3975 -2.83979,-2.09625c-1.80066,-1.79907 -3.89262,-3.28987 -5.69381,-5.08842c-2.48893,-2.48528 -4.88864,-5.25132 -7.37245,-7.9068zM231.76062,177.4038c-4.58379,-4.35829 -9.67804,-7.81095 -16.23444,-8.20914c-3.84666,1.74577 -7.03693,4.84295 -6.64123,9.03146c0.31193,3.30175 3.78139,5.80921 5.98569,7.81406c0.83412,0.75865 2.7082,2.72186 4.17122,2.97155c1.70705,0.29134 4.19946,-3.28872 4.99036,-4.07949c2.54836,-2.54795 5.17579,-4.99017 7.72839,-7.52843zM238.64783,177.66259c2.48781,2.59289 5.01692,5.17239 7.51328,7.66301c1.74112,1.73712 3.76785,3.17168 5.50619,4.91158c3.35082,3.18774 7.10969,-2.49469 9.30304,-4.84081c0.22899,-0.24494 3.09035,-3.24616 3.36829,-4.33416c0.59071,-2.31233 -5.21321,-6.65101 -6.54138,-8.03013c-1.14773,-1.19176 -4.38848,-5.36552 -6.14181,-6.09211c-1.15667,-0.47933 -2.23445,1.1436 -3.27296,1.84299c-3.59358,2.42014 -6.63722,5.72826 -9.73465,8.87962z" fill="#000000" stroke-width="0.5"></path></g></g></svg>