<svg version="1.1" xmlns="http://www.w3.org/2000/svg" xmlns:xlink="http://www.w3.org/1999/xlink" width="240.01366" height="66.63865" viewBox="0,0,240.01366,66.63865"><g transform="translate(-326.89406,-146.8203)"><g fill="#b200ff" stroke="none" stroke-miterlimit="10"><path d="M558.6054,164.05984c4.92169,0.35058 8.62858,4.60672 8.27957,9.50634c-0.34901,4.89964 -4.62176,8.58735 -9.54345,8.23677c-4.92169,-0.35058 -8.62858,-4.60672 -8.27957,-9.50634c0.34901,-4.89964 4.62176,-8.58735 9.54345,-8.23677z" stroke-width="NaN"/><path d="M546.86106,205.47021c-4.13166,-0.29431 -7.24246,-3.88227 -6.94815,-8.01394c0.29431,-4.13166 3.88227,-7.24246 8.01394,-6.94815c4.13166,0.29431 7.24246,3.88227 6.94815,8.01394c-0.29431,4.13166 -3.88227,7.24246 -8.01394,6.94815z" stroke-width="0"/><path d="M515.13049,195.85806c-3.21352,-0.22891 -5.63302,-3.01954 -5.40412,-6.23306c0.22891,-3.21352 3.01954,-5.63303 6.23306,-5.40413c3.21352,0.22891 5.63302,3.01955 5.40412,6.23307c-0.22891,3.21352 -3.01954,5.63302 -6.23306,5.40412z" stroke-width="0"/><path d="M527.41216,213.44181c-3.67259,-0.26161 -6.43775,-3.45091 -6.17614,-7.1235c0.26161,-3.67259 3.45091,-6.43774 7.1235,-6.17613c3.67259,0.26161 6.43775,3.4509 6.17614,7.12349c-0.26161,3.67259 -3.45091,6.43775 -7.1235,6.17614z" stroke-width="0"/><path d="M528.87784,178.7917c-4.59075,-0.32701 -8.04718,-4.31363 -7.72017,-8.90437c0.32701,-4.59075 4.31363,-8.04719 8.90437,-7.72018c4.59074,0.32701 8.04718,4.31364 7.72017,8.90438c-0.32701,4.59075 -4.31363,8.04718 -8.90437,7.72017z" stroke-width="0"/><path d="M502.99091,176.27936c-6.61066,-0.47089 -11.58794,-6.21163 -11.11705,-12.8223c0.47089,-6.61067 6.21164,-11.58794 12.8223,-11.11705c6.61066,0.47089 11.58794,6.21163 11.11705,12.8223c-0.47089,6.61067 -6.21164,11.58794 -12.8223,11.11705z" stroke-width="0"/><path d="M492.35806,210.61066c-3.7644,-0.26815 -6.59868,-3.53719 -6.33054,-7.30159c0.26815,-3.76441 3.53717,-6.59868 7.30158,-6.33054c3.76441,0.26815 6.59869,3.53718 6.33055,7.30158c-0.26815,3.76441 -3.53718,6.59869 -7.30159,6.33055z" stroke-width="0"/><path d="M483.47235,192.26628c-4.22349,-0.30085 -7.40341,-3.96855 -7.10256,-8.19203c0.30085,-4.22348 3.96854,-7.4034 8.19203,-7.10255c4.22348,0.30085 7.4034,3.96854 7.10255,8.19202c-0.30085,4.22348 -3.96853,7.40341 -8.19202,7.10256z" stroke-width="0"/><path d="M338.22669,209.32271c-6.42704,-0.45781 -11.26604,-6.03908 -10.80823,-12.46612c0.45781,-6.42705 6.03907,-11.26606 12.46611,-10.80824c6.42705,0.45781 11.26605,6.03908 10.80824,12.46612c-0.45781,6.42705 -6.03908,11.26605 -12.46612,10.80824z" stroke-width="0"/><path d="M353.70709,189.03802c-5.50888,-0.39241 -9.65661,-5.17637 -9.26421,-10.68525c0.39241,-5.50888 5.17637,-9.65661 10.68525,-9.26421c5.50888,0.39241 9.65661,5.17637 9.26421,10.68525c-0.39241,5.50888 -5.17637,9.65661 -10.68525,9.26421z" stroke-width="0"/><path d="M334.01633,174.60247c-4.22349,-0.30085 -7.40341,-3.96855 -7.10256,-8.19203c0.30085,-4.22349 3.96855,-7.40341 8.19203,-7.10256c4.22349,0.30085 7.40341,3.96855 7.10256,8.19203c-0.30085,4.22349 -3.96855,7.40341 -8.19203,7.10256z" stroke-width="0"/><path d="M387.49907,174.40202c-3.67259,-0.26161 -6.43775,-3.45091 -6.17614,-7.1235c0.26161,-3.67259 3.45091,-6.43775 7.1235,-6.17614c3.67259,0.26161 6.43775,3.45091 6.17614,7.1235c-0.26161,3.67259 -3.45091,6.43775 -7.1235,6.17614z" stroke-width="0"/><path d="M379.57398,210.59707c-8.26333,-0.58861 -14.48492,-7.76454 -13.89631,-16.02787c0.58861,-8.26333 7.76454,-14.48492 16.02787,-13.89631c8.26333,0.58861 14.48492,7.76454 13.89631,16.02787c-0.58861,8.26333 -7.76454,14.48492 -16.02787,13.89631z" stroke-width="0"/><path d="M407.83159,191.55671c-4.13167,-0.29431 -7.24246,-3.88226 -6.94815,-8.01394c0.29431,-4.13167 3.88226,-7.24246 8.01394,-6.94815c4.13167,0.29431 7.24246,3.88226 6.94815,8.01394c-0.29431,4.13167 -3.88226,7.24246 -8.01394,6.94815z" stroke-width="0"/><path d="M432.26692,179.26182c-5.87615,-0.41857 -10.30039,-5.52145 -9.88182,-11.3976c0.41857,-5.87615 5.52145,-10.30039 11.3976,-9.88182c5.87615,0.41857 10.30039,5.52145 9.88182,11.3976c-0.41857,5.87615 -5.52145,10.30039 -11.3976,9.88182z" stroke-width="0"/><path d="M406.55266,209.51122c-3.21352,-0.22891 -5.63302,-3.01954 -5.40412,-6.23306c0.22891,-3.21352 3.01954,-5.63302 6.23306,-5.40412c3.21352,0.22891 5.63302,3.01954 5.40412,6.23306c-0.22891,3.21352 -3.01954,5.63302 -6.23306,5.40412z" stroke-width="0"/><path d="M431.56052,210.29004c-7.437,-0.52975 -13.03643,-6.98809 -12.50668,-14.42508c0.52975,-7.437 6.98809,-13.03643 14.42508,-12.50668c7.437,0.52975 13.03643,6.98809 12.50668,14.42508c-0.52975,7.437 -6.98809,13.03643 -14.42508,12.50668z" stroke-width="0"/><path d="M459.57946,185.21748c-4.958,-0.35317 -8.69095,-4.65872 -8.33778,-9.61672c0.35317,-4.958 4.65872,-8.69095 9.61672,-8.33778c4.958,0.35317 8.69095,4.65872 8.33778,9.61672c-0.35317,4.958 -4.65872,8.69095 -9.61672,8.33778z" stroke-width="0"/><path d="M475.44017,166.63077c-3.7644,-0.26815 -6.59868,-3.53717 -6.33054,-7.30158c0.26815,-3.7644 3.53717,-6.59868 7.30158,-6.33054c3.7644,0.26815 6.59868,3.53717 6.33054,7.30158c-0.26815,3.7644 -3.53717,6.59868 -7.30158,6.33054z" stroke-width="0"/><path d="M458.44308,203.51633c-3.94804,-0.28123 -6.92058,-3.70973 -6.63935,-7.65776c0.28123,-3.94804 3.70973,-6.92058 7.65776,-6.63935c3.94804,0.28123 6.92058,3.70973 6.63935,7.65776c-0.28123,3.94804 -3.70973,6.92058 -7.65776,6.63935z" stroke-width="0"/><path d="M407.25722,169.12588c-6.15159,-0.43819 -10.78322,-5.78027 -10.34503,-11.93186c0.43819,-6.15159 5.78027,-10.78322 11.93186,-10.34503c6.15159,0.43819 10.78322,5.78027 10.34503,11.93186c-0.43819,6.15159 -5.78027,10.78322 -11.93186,10.34503z" stroke-width="0"/><path d="M369.51997,168.77702c-4.49893,-0.32047 -7.88624,-4.22736 -7.56577,-8.72629c0.32047,-4.49893 4.22736,-7.88624 8.72629,-7.56577c4.49893,0.32047 7.88624,4.22736 7.56577,8.72629c-0.32047,4.49893 -4.22736,7.88624 -8.72629,7.56577z" stroke-width="0"/></g></g></svg>