<svg version="1.1" xmlns="http://www.w3.org/2000/svg" xmlns:xlink="http://www.w3.org/1999/xlink" width="240.46738" height="235.55989" viewBox="0,0,240.46738,235.55989"><g transform="translate(-209.09822,-72.22675)"><g stroke="none" stroke-miterlimit="10"><text transform="translate(286.34761,199.24992) scale(0.73662,0.73662)" font-size="40" xml:space="preserve" fill="#830087" stroke-width="1" font-family="Sans Serif" font-weight="normal" text-anchor="start"><tspan x="0" dy="0">boom</tspan></text><path d="M218.91322,123.10114c0,-26.83233 21.7519,-48.58423 48.58423,-48.58423c26.83233,0 48.58423,21.7519 48.58423,48.58423c0,26.83233 -21.7519,48.58423 -48.58423,48.58423c-26.83233,0 -48.58423,-21.7519 -48.58423,-48.58423z" fill="#830087" stroke-width="0"/><path d="M209.09822,163.01546c0,-24.84475 20.14065,-44.98539 44.98539,-44.98539c24.84475,0 44.98539,20.14065 44.98539,44.98539c0,24.84475 -20.14065,44.98539 -44.98539,44.98539c-24.84475,0 -44.98539,-20.14065 -44.98539,-44.98539z" fill="#830087" stroke-width="0"/><path d="M224.14788,196.05927c0,-24.66406 19.99417,-44.65823 44.65823,-44.65823c24.66406,0 44.65823,19.99417 44.65823,44.65823c0,24.66406 -19.99417,44.65823 -44.65823,44.65823c-24.66406,0 -44.65823,-19.99417 -44.65823,-44.65823z" fill="#830087" stroke-width="0"/><path d="M222.18488,220.2696c0,-24.12199 19.55474,-43.67673 43.67673,-43.67673c24.12199,0 43.67673,19.55474 43.67673,43.67673c0,24.12199 -19.55474,43.67673 -43.67673,43.67673c-24.12199,0 -43.67673,-19.55474 -43.67673,-43.67673z" fill="#830087" stroke-width="0"/><path d="M228.72821,223.86843c0,-31.53024 25.56031,-57.09056 57.09056,-57.09056c31.53024,0 57.09056,25.56031 57.09056,57.09056c0,31.53024 -25.56031,57.09056 -57.09056,57.09056c-31.53024,0 -57.09056,-25.56031 -57.09056,-57.09056z" fill="#830087" stroke-width="0"/><path d="M218.58605,250.69608c0,-21.59234 17.50405,-39.0964 39.0964,-39.0964c21.59234,0 39.0964,17.50405 39.0964,39.0964c0,21.59234 -17.50405,39.0964 -39.0964,39.0964c-21.59234,0 -39.0964,-17.50405 -39.0964,-39.0964z" fill="#830087" stroke-width="0"/><path d="M293.50718,127.51789c0,-27.46474 22.26457,-49.72931 49.72931,-49.72931c27.46474,0 49.72931,22.26457 49.72931,49.72931c0,27.46474 -22.26457,49.72931 -49.72931,49.72931c-27.46474,0 -49.72931,-22.26457 -49.72931,-49.72931z" fill="#830087" stroke-width="0"/><path d="M313.46434,179.86453c0,-29.27163 23.72934,-53.00097 53.00097,-53.00097c29.27163,0 53.00097,23.72934 53.00097,53.00097c0,29.27163 -23.72934,53.00097 -53.00097,53.00097c-29.27163,0 -53.00097,-23.72934 -53.00097,-53.00097z" fill="#830087" stroke-width="0"/><path d="M337.67466,128.17222c0,-30.89783 25.04764,-55.94547 55.94547,-55.94547c30.89783,0 55.94547,25.04764 55.94547,55.94547c0,30.89783 -25.04764,55.94547 -55.94547,55.94547c-30.89783,0 -55.94547,-25.04764 -55.94547,-55.94547z" fill="#830087" stroke-width="0"/><path d="M284.01935,99.05441c0,-11.5641 9.37456,-20.93866 20.93866,-20.93866c11.5641,0 20.93866,9.37456 20.93866,20.93866c0,11.5641 -9.37456,20.93866 -20.93866,20.93866c-11.5641,0 -20.93866,-9.37456 -20.93866,-20.93866z" fill="#830087" stroke-width="0"/><path d="M318.37184,249.06025c0,-32.43369 26.2927,-58.72639 58.72639,-58.72639c32.43369,0 58.72639,26.2927 58.72639,58.72639c0,32.43369 -26.2927,58.72639 -58.72639,58.72639c-32.43369,0 -58.72639,-26.2927 -58.72639,-58.72639z" fill="#830087" stroke-width="0"/><path d="M304.63084,259.09725c0,-20.32752 16.47871,-36.80623 36.80623,-36.80623c20.32752,0 36.80623,16.47871 36.80623,36.80623c0,20.32752 -16.47871,36.80623 -36.80623,36.80623c-20.32752,0 -36.80623,-16.47871 -36.80623,-36.80623z" fill="#830087" stroke-width="0"/><path d="M393.62013,178.61429c0,-11.29307 9.15484,-20.44791 20.44791,-20.44791c11.29307,0 20.44791,9.15484 20.44791,20.44791c0,11.29307 -9.15484,20.44791 -20.44791,20.44791c-11.29307,0 -20.44791,-9.15484 -20.44791,-20.44791z" fill="#830087" stroke-width="0"/><path d="M277.14886,189.78469v-48.42064h63.4703v48.42064z" fill="#830087" stroke-width="0"/><text transform="translate(237.0434,197.36312) scale(0.93068,0.93068)" font-size="40" xml:space="preserve" fill="#ffc300" stroke-width="1" font-family="Sans Serif" font-weight="normal" text-anchor="start"><tspan x="0" dy="0">SPROING!</tspan></text></g></g></svg>