<svg version="1.1" xmlns="http://www.w3.org/2000/svg" xmlns:xlink="http://www.w3.org/1999/xlink" width="96.23957" height="97.26079" viewBox="0,0,96.23957,97.26079"><g transform="translate(-191.84666,-131.23755)"><g data-paper-data="{&quot;isPaintingLayer&quot;:true}" fill-rule="nonzero" stroke-linecap="butt" stroke-linejoin="miter" stroke-miterlimit="10" stroke-dasharray="" stroke-dashoffset="0" style="mix-blend-mode: normal"><path d="M192.34667,226.43531v-17.88593v-2.5472c0,0 2.20499,0 4.81102,0c11.2941,0 90.36138,0 90.36138,0v20.43313z" fill="#afafaf" stroke="#000000" stroke-width="1"></path><path d="M192.41384,226.60092v-64.88824v-9.24098c0,0 2.20499,0 4.81102,0c11.2941,0 90.36138,0 90.36138,0v74.12922z" fill="#afafaf" stroke="#000000" stroke-width="1"></path><path d="M192.41384,205.86677v-64.88824v-9.24098c0,0 2.20499,0 4.81102,0c11.2941,0 90.36138,0 90.36138,0v74.12922z" fill="#afafaf" stroke="#000000" stroke-width="1"></path><text transform="translate(227.49788,222.60709) scale(0.4713,0.4713)" font-size="40" xml:space="preserve" fill="#000000" fill-rule="nonzero" stroke="none" stroke-width="1" stroke-linecap="butt" stroke-linejoin="miter" stroke-miterlimit="10" stroke-dasharray="" stroke-dashoffset="0" font-family="Sans Serif" font-weight="normal" text-anchor="start" style="mix-blend-mode: normal"><tspan x="0" dy="0">3-6</tspan></text><path d="M196.91908,199.87057v-60.82023h86.62275v60.82023z" fill="#939393" stroke="#000000" stroke-width="1"></path><path d="M196.68353,199.97841v-60.82023h86.62275v60.82023z" fill="none" stroke="#000000" stroke-width="1"></path><g stroke="#000000" stroke-width="0.5"><path d="M209.53697,170.53334c-1.93722,0.09346 -3.42451,0.25492 -3.48016,-0.89871c-0.05566,-1.15363 1.3414,-3.18549 3.27862,-3.27895c1.93722,-0.09346 3.55276,0.76598 3.60842,1.91961c0.05566,1.15363 -1.46965,2.16458 -3.40688,2.25804z" data-paper-data="{&quot;index&quot;:null}" fill="#f6ff30"></path><path d="M199.94518,167.84569c0.05566,-1.15363 1.6712,-2.01306 3.60842,-1.91961c1.93722,0.09346 3.33428,2.12532 3.27862,3.27895c-0.05566,1.15363 -1.54294,0.99217 -3.48016,0.89871c-1.93722,-0.09346 -3.46254,-1.10442 -3.40688,-2.25805z" data-paper-data="{&quot;index&quot;:null}" fill="#f6ff30"></path><path d="M213.49702,195.72176v-42.08882h8.52748v42.08882z" fill="#0b8100"></path><path d="M213.50923,195.77742v-24.37919h8.60559v24.37919z" fill="#ff0000"></path><path d="M217.20071,161.48729c0,2.58067 -0.66053,4.67273 -1.47534,4.67273c-0.81481,0 -1.47535,-2.09205 -1.47535,-4.67273c0,-2.58067 0.66054,-4.67273 1.47535,-4.67273c0.81481,0 1.47534,2.09205 1.47534,4.67273z" fill="#000000"></path><path d="M213.55359,166.79054h8.56173v4.58664l-2.95502,1.77962c0,0 0.21764,2.07166 -0.16266,2.38736c-0.71025,0.58962 -2.15394,0.2092 -2.15394,0.2092c0,0 0.36043,2.25069 -0.19803,2.79617c-1.18591,1.15832 -3.29593,1.38938 -3.29593,1.38938z" fill="#ffffff"></path><path d="M212.90719,155.00251c0,0 -1.34887,-8.16388 0.76305,-10.67799c4.0111,-4.77497 11.31098,-0.29122 11.31098,-0.29122c0,0 -3.09357,1.8533 -3.78302,4.28253c-0.52274,1.84182 1.02099,6.68669 1.02099,6.68669c0,0 -0.95341,0 -1.73613,0c-1.63506,0 -7.57586,0 -7.57586,0z" fill="#ff0000"></path><path d="M212.51261,156.02841v-2.44638h10.25897v2.44638z" fill="#ffffff"></path><path d="M226.87518,144.46733c0,0.98064 -0.7773,1.7756 -1.73613,1.7756c-0.95884,0 -1.73613,-0.79496 -1.73613,-1.7756c0,-0.98064 0.7773,-1.7756 1.73613,-1.7756c0.95884,0 1.73613,0.79496 1.73613,1.7756z" fill="#ffffff"></path><path d="M200.04401,182.22827v-12.23186h13.25776v12.23187z" fill="#31ffe6"></path><path d="M205.41024,182.14936v-12.15295h2.05179v12.15295z" fill="#f6ff30"></path><path d="M200.20183,177.01986v-1.97288h12.86318v1.97288z" fill="#f6ff30"></path></g><g stroke="#000000" stroke-width="0.5"><path d="M233.98317,170.53223c-1.93722,0.09346 -3.42451,0.25492 -3.48016,-0.89871c-0.05566,-1.15363 1.3414,-3.18549 3.27862,-3.27895c1.93722,-0.09346 3.55276,0.76598 3.60842,1.91961c0.05566,1.15363 -1.46965,2.16459 -3.40688,2.25805z" data-paper-data="{&quot;index&quot;:null}" fill="#f6ff30"></path><path d="M224.39138,167.84458c0.05566,-1.15363 1.67119,-2.01306 3.60841,-1.91961c1.93722,0.09346 3.33428,2.12532 3.27863,3.27895c-0.05566,1.15363 -1.54294,0.99217 -3.48016,0.89871c-1.93722,-0.09346 -3.46254,-1.10442 -3.40688,-2.25805z" data-paper-data="{&quot;index&quot;:null}" fill="#f6ff30"></path><path d="M237.94322,195.72065v-42.08882h8.52748v42.08882z" fill="#0b8100"></path><path d="M237.95543,195.77631v-24.37919h8.60559v24.37919z" fill="#ff0000"></path><path d="M241.64691,161.48618c0,2.58067 -0.66054,4.67273 -1.47535,4.67273c-0.81481,0 -1.47534,-2.09205 -1.47534,-4.67273c0,-2.58067 0.66053,-4.67273 1.47534,-4.67273c0.81481,0 1.47535,2.09205 1.47535,4.67273z" fill="#000000"></path><path d="M237.99979,166.78943h8.56173v4.58664l-2.95501,1.77962c0,0 0.21764,2.07166 -0.16266,2.38736c-0.71025,0.58962 -2.15394,0.2092 -2.15394,0.2092c0,0 0.36043,2.25069 -0.19803,2.79617c-1.18591,1.15832 -3.29594,1.38938 -3.29594,1.38938z" fill="#ffffff"></path><path d="M237.35339,155.0014c0,0 -1.34887,-8.16388 0.76305,-10.67799c4.0111,-4.77497 11.31098,-0.29122 11.31098,-0.29122c0,0 -3.09358,1.8533 -3.78303,4.28253c-0.52274,1.84182 1.02099,6.68669 1.02099,6.68669c0,0 -0.95341,0 -1.73613,0c-1.63506,0 -7.57586,0 -7.57586,0z" fill="#ff0000"></path><path d="M236.95881,156.0273v-2.44637h10.25898v2.44637z" fill="#ffffff"></path><path d="M251.32138,144.46622c0,0.98064 -0.7773,1.7756 -1.73613,1.7756c-0.95884,0 -1.73613,-0.79496 -1.73613,-1.7756c0,-0.98064 0.7773,-1.77559 1.73613,-1.77559c0.95884,0 1.73613,0.79495 1.73613,1.77559z" fill="#ffffff"></path><path d="M224.4902,182.22716v-12.23186h13.25777v12.23187z" fill="#31ffe6"></path><path d="M229.85644,182.14825v-12.15295h2.05179v12.15295z" fill="#f6ff30"></path><path d="M224.64803,177.01875v-1.97289h12.86318v1.97289z" fill="#f6ff30"></path></g><g stroke="#000000" stroke-width="0.5"><path d="M258.06742,170.69564c-1.93722,0.09346 -3.42451,0.25492 -3.48016,-0.89871c-0.05566,-1.15363 1.34139,-3.18549 3.27861,-3.27895c1.93722,-0.09346 3.55276,0.76598 3.60842,1.91961c0.05566,1.15363 -1.46965,2.16459 -3.40688,2.25805z" data-paper-data="{&quot;index&quot;:null}" fill="#f6ff30"></path><path d="M248.47562,168.00799c0.05566,-1.15363 1.6712,-2.01306 3.60842,-1.91961c1.93722,0.09346 3.33428,2.12532 3.27863,3.27895c-0.05566,1.15363 -1.54294,0.99216 -3.48016,0.8987c-1.93722,-0.09346 -3.46254,-1.10441 -3.40688,-2.25804z" data-paper-data="{&quot;index&quot;:null}" fill="#f6ff30"></path><path d="M262.02747,195.88406v-42.08882h8.52748v42.08882z" fill="#0b8100"></path><path d="M262.03967,195.93973v-24.37919h8.60559v24.37919z" fill="#ff0000"></path><path d="M265.73116,161.64959c0,2.58067 -0.66053,4.67273 -1.47535,4.67273c-0.81481,0 -1.47535,-2.09205 -1.47535,-4.67273c0,-2.58067 0.66053,-4.67272 1.47535,-4.67272c0.81481,0 1.47535,2.09204 1.47535,4.67272z" fill="#000000"></path><path d="M262.08403,166.95285h8.56173v4.58664l-2.95501,1.77962c0,0 0.21764,2.07166 -0.16266,2.38736c-0.71026,0.58962 -2.15394,0.2092 -2.15394,0.2092c0,0 0.36043,2.25069 -0.19802,2.79617c-1.18591,1.15832 -3.29594,1.38938 -3.29594,1.38938z" fill="#ffffff"></path><path d="M261.43763,155.16482c0,0 -1.34888,-8.16388 0.76304,-10.67799c4.0111,-4.77497 11.31098,-0.29122 11.31098,-0.29122c0,0 -3.09357,1.8533 -3.78303,4.28253c-0.52274,1.84182 1.02099,6.68669 1.02099,6.68669c0,0 -0.95342,0 -1.73613,0c-1.63506,0 -7.57586,0 -7.57586,0z" fill="#ff0000"></path><path d="M261.04305,156.19072v-2.44638h10.25898v2.44638z" fill="#ffffff"></path><path d="M275.40563,144.62964c0,0.98064 -0.77729,1.77559 -1.73613,1.77559c-0.95884,0 -1.73613,-0.79495 -1.73613,-1.77559c0,-0.98064 0.7773,-1.7756 1.73613,-1.7756c0.95884,0 1.73613,0.79496 1.73613,1.7756z" fill="#ffffff"></path><path d="M248.57445,182.39058v-12.23186h13.25776v12.23187z" fill="#31ffe6"></path><path d="M253.94069,182.31166v-12.15295h2.05179v12.15295z" fill="#f6ff30"></path><path d="M248.73228,177.18217v-1.97288h12.86318v1.97288z" fill="#f6ff30"></path></g></g></g></svg>