<svg version="1.1" xmlns="http://www.w3.org/2000/svg" xmlns:xlink="http://www.w3.org/1999/xlink" width="235.2059" height="235.2059" viewBox="0,0,235.2059,235.2059"><defs><linearGradient x1="334.84954" y1="175.99997" x2="334.84954" y2="198.95429" gradientUnits="userSpaceOnUse" id="color-1"><stop offset="0" stop-color="#88db6d"/><stop offset="1" stop-color="#a2db8e"/></linearGradient><linearGradient x1="312.4876" y1="180.82017" x2="312.4876" y2="202.14685" gradientUnits="userSpaceOnUse" id="color-2"><stop offset="0" stop-color="#88db6d"/><stop offset="1" stop-color="#a2db8e"/></linearGradient><linearGradient x1="331.11913" y1="159.67412" x2="331.11913" y2="178.36651" gradientUnits="userSpaceOnUse" id="color-3"><stop offset="0" stop-color="#5bdb31"/><stop offset="1" stop-color="#88db6d"/></linearGradient><linearGradient x1="307.07894" y1="165.47022" x2="307.07894" y2="184.15079" gradientUnits="userSpaceOnUse" id="color-4"><stop offset="0" stop-color="#5bdb31"/><stop offset="1" stop-color="#88db6d"/></linearGradient><linearGradient x1="321.6835" y1="158.17646" x2="321.6835" y2="201.45736" gradientUnits="userSpaceOnUse" id="color-5"><stop offset="0" stop-color="#fade53"/><stop offset="1" stop-color="#faf1c6"/></linearGradient><linearGradient x1="316.18964" y1="180.2734" x2="316.18964" y2="182.16668" gradientUnits="userSpaceOnUse" id="color-6"><stop offset="0" stop-color="#f75aff"/><stop offset="1" stop-color="#fa95ff"/></linearGradient><linearGradient x1="326.98357" y1="177.68815" x2="326.98357" y2="179.58143" gradientUnits="userSpaceOnUse" id="color-7"><stop offset="0" stop-color="#f75aff"/><stop offset="1" stop-color="#fa95ff"/></linearGradient><linearGradient x1="334.68789" y1="175.67666" x2="334.68789" y2="198.631" gradientUnits="userSpaceOnUse" id="color-8"><stop offset="0" stop-color="#88db6d"/><stop offset="1" stop-color="#a2db8e"/></linearGradient><linearGradient x1="312.32597" y1="180.49687" x2="312.32597" y2="201.82354" gradientUnits="userSpaceOnUse" id="color-9"><stop offset="0" stop-color="#88db6d"/><stop offset="1" stop-color="#a2db8e"/></linearGradient><linearGradient x1="330.95748" y1="159.35083" x2="330.95748" y2="178.04321" gradientUnits="userSpaceOnUse" id="color-10"><stop offset="0" stop-color="#5bdb31"/><stop offset="1" stop-color="#88db6d"/></linearGradient><linearGradient x1="306.91729" y1="165.14692" x2="306.91729" y2="183.82749" gradientUnits="userSpaceOnUse" id="color-11"><stop offset="0" stop-color="#5bdb31"/><stop offset="1" stop-color="#88db6d"/></linearGradient><linearGradient x1="321.52185" y1="157.85316" x2="321.52185" y2="201.13406" gradientUnits="userSpaceOnUse" id="color-12"><stop offset="0" stop-color="#fade53"/><stop offset="1" stop-color="#faf1c6"/></linearGradient><linearGradient x1="316.02799" y1="179.9501" x2="316.02799" y2="181.84337" gradientUnits="userSpaceOnUse" id="color-13"><stop offset="0" stop-color="#f75aff"/><stop offset="1" stop-color="#fa95ff"/></linearGradient><linearGradient x1="326.82192" y1="177.36485" x2="326.82192" y2="179.25812" gradientUnits="userSpaceOnUse" id="color-14"><stop offset="0" stop-color="#f75aff"/><stop offset="1" stop-color="#fa95ff"/></linearGradient></defs><g transform="translate(-202.39705,-62.39705)"><g stroke-miterlimit="10"><path d="M236.29206,262.60775v-165.21549h167.41588v165.21549z" fill-opacity="0.00784" fill="#00990a" stroke="none" stroke-width="0" stroke-linecap="butt"/><path d="M336.35201,175.99997c0,0 4.6965,6.1535 6.8425,11.09277c2.35988,6.04232 -4.15424,11.06943 -4.15424,11.06943c0,0 1.56813,-4.66964 -0.7505,-6.79062c-3.40834,-2.03111 -4.89908,-1.11387 -4.89908,-1.11387c0,0 2.89656,0.92407 3.62398,4.85802c-0.26433,2.91223 -3.64507,3.83857 -3.64507,3.83857c0,0 0.41175,-2.13187 -2.11474,-3.22143c-1.79353,-0.64127 -5.01555,-0.78929 -5.01555,-0.78929" fill="url(#color-1)" stroke="#ffffff" stroke-width="3.5" stroke-linecap="round"/><path d="M323.01721,196.56997c0,0 -4.44608,1.21889 -6.04159,2.25923c-1.59413,1.03946 -2.23663,3.31764 -2.23663,3.31764c0,0 -3.01556,-0.02299 -2.92817,-3.36096c0.29822,-2.84827 1.81552,-4.78591 1.81552,-4.78591c0,0 -3.16294,0.90314 -4.50632,2.22143c-1.39049,1.36451 -0.15634,3.35929 -0.15634,3.35929c0,0 -6.28432,-2.56714 -5.60819,-6.3817c0.9399,-5.30266 4.0785,-12.37883 4.0785,-12.37883" fill="url(#color-2)" stroke="#ffffff" stroke-width="3.5" stroke-linecap="round"/><path d="M320.2367,163.45236c0,0 7.12364,-3.23582 12.4618,-3.94703c3.8401,-0.51164 7.43706,0.37454 7.43706,0.37454c0,0 -3.889,1.05252 -6.97429,5.58898c-2.20594,3.06655 -0.02296,4.73639 -0.02296,4.73639c0,0 0.97698,-2.02757 4.54762,-2.33721c2.69844,-0.18586 4.31563,0.21751 4.31563,0.21751c0,0 -0.65308,0.5176 -3.88951,3.07343c-0.77339,1.04642 0.16434,1.96058 -0.29286,2.59992c-1.10793,1.54934 -2.13272,4.60763 -2.13272,4.60763" fill="url(#color-3)" stroke="#ffffff" stroke-width="3.5" stroke-linecap="round"/><path d="M304.40738,184.15079c0,0 -0.35903,-1.82361 -2.73432,-4.2781c-2.84911,-2.80949 -5.10227,-4.03343 -5.10227,-4.03343c0,0 1.67823,-1.22563 3.20057,-1.24515c2.75106,-0.02005 6.06086,1.12641 6.06086,1.12641c0,0 -0.61828,-2.12163 -2.98495,-4.04125c-3.60787,-2.314 -6.39522,-2.60798 -6.39522,-2.60798c0,0 4.31242,-3.99443 8.18643,-4.00509c8.59118,-0.01481 13.06736,2.22405 13.06736,2.22405" fill="url(#color-4)" stroke="#ffffff" stroke-width="3.5" stroke-linecap="round"/><path d="M301.49789,183.95731c0,0 4.32574,-0.82803 10.33033,-9.03207c5.08925,-7.85568 5.39158,-16.74877 5.39158,-16.74877c0,0 3.66688,6.45394 11.95875,12.1609c8.43691,5.2343 14.30704,4.8542 14.30704,4.8542c0,0 -5.33499,3.27244 -11.03686,11.14366c-5.45468,8.03732 -6.30155,15.12213 -6.30155,15.12213c0,0 -3.43491,-6.1088 -10.72867,-10.98942c-8.44682,-5.89159 -13.92063,-6.51063 -13.92063,-6.51063z" fill="url(#color-5)" stroke="#ffffff" stroke-width="4" stroke-linecap="butt"/><path d="M319.6291,181.22003c0,0.52282 -1.5399,0.94664 -3.43946,0.94664c-1.89956,0 -3.43946,-0.42382 -3.43946,-0.94664c0,-0.52282 1.5399,-0.94664 3.43946,-0.94664c1.89956,0 3.43946,0.42382 3.43946,0.94664z" fill="url(#color-6)" stroke="#ffffff" stroke-width="3.5" stroke-linecap="butt"/><path d="M320.26018,177.24415c0,2.54437 -0.64987,4.60698 -1.45152,4.60698c-0.80165,0 -1.45151,-2.06261 -1.45151,-4.60698c0,-2.54437 0.64987,-4.60698 1.45151,-4.60698c0.80165,0 1.45152,2.06261 1.45152,4.60698z" fill="#fafafa" stroke="#ffffff" stroke-width="3.5" stroke-linecap="butt"/><path d="M330.42303,178.63478c0,0.52282 -1.5399,0.94665 -3.43946,0.94665c-1.89956,0 -3.43946,-0.42383 -3.43946,-0.94665c0,-0.52282 1.5399,-0.94663 3.43946,-0.94663c1.89956,0 3.43946,0.42382 3.43946,0.94663z" fill="url(#color-7)" stroke="#ffffff" stroke-width="3.5" stroke-linecap="butt"/><path d="M325.87692,175.47709c0,2.23068 -0.66399,4.03901 -1.48307,4.03901c-0.81907,0 -1.48307,-1.80832 -1.48307,-4.03901c0,-2.23068 0.66399,-4.03901 1.48307,-4.03901c0.81907,0 1.48307,1.80832 1.48307,4.03901z" fill="#fafafa" stroke="#ffffff" stroke-width="3.5" stroke-linecap="butt"/><path d="M319.6291,184.2493l0.37866,2.14572l-2.08261,-0.06311l-0.06311,-1.83017" fill="#ffffff" stroke="#ffffff" stroke-width="3.5" stroke-linecap="round"/><path d="M325.18271,182.86089c0,0 -1.94613,1.30063 -2.87305,1.40251c-0.801,0.08803 -2.36602,-0.82668 -2.36602,-0.82668c0,0 -1.72857,0.88195 -2.58567,0.87143c-1.65293,-0.02029 -3.09319,-1.06861 -3.09319,-1.06861" fill="none" stroke="#ffffff" stroke-width="3.5" stroke-linecap="round"/><path d="M336.19036,175.67666c0,0 4.6965,6.1535 6.8425,11.09277c2.35988,6.04231 -4.15424,11.06943 -4.15424,11.06943c0,0 1.56813,-4.66965 -0.75049,-6.79062c-3.40834,-2.03111 -4.89907,-1.11386 -4.89907,-1.11386c0,0 2.73491,1.16655 3.46233,5.1005c-0.26433,2.91223 -3.48342,3.5961 -3.48342,3.5961c0,0 0.41174,-2.13188 -2.11475,-3.22144c-1.79353,-0.64127 -5.01554,-0.78929 -5.01554,-0.78929" fill="url(#color-8)" stroke="#000000" stroke-width="1.28786" stroke-linecap="round"/><path d="M322.85555,196.24667c0,0 -4.44608,1.21889 -6.04158,2.25923c-1.59413,1.03946 -2.23663,3.31763 -2.23663,3.31763c0,0 -3.01557,-0.02299 -2.92818,-3.36095c0.29822,-2.84827 1.81552,-4.78591 1.81552,-4.78591c0,0 -3.16294,0.90315 -4.50631,2.22144c-1.39049,1.36451 -0.15634,3.35929 -0.15634,3.35929c0,0 -6.28432,-2.56714 -5.60819,-6.3817c0.9399,-5.30266 4.07849,-12.37883 4.07849,-12.37883" fill="url(#color-9)" stroke="#000000" stroke-width="1.28786" stroke-linecap="round"/><path d="M320.07505,163.12907c0,0 7.20446,-2.83169 12.54262,-3.54291c3.8401,-0.51164 7.35623,-0.02959 7.35623,-0.02959c0,0 -3.889,1.05252 -6.97429,5.58899c-2.20594,3.06655 -0.02296,4.73637 -0.02296,4.73637c0,0 0.97698,-1.62344 4.54762,-1.93308c2.69844,-0.18586 4.31563,-0.18661 4.31563,-0.18661c0,0 -0.65308,0.51761 -3.88951,3.07343c-0.77339,1.04642 0.16434,1.96057 -0.29286,2.59992c-1.10793,1.54934 -2.13272,4.60763 -2.13272,4.60763" fill="url(#color-10)" stroke="#000000" stroke-width="1.28786" stroke-linecap="round"/><path d="M304.24573,183.82749c0,0 -0.35903,-1.82361 -2.73432,-4.2781c-2.84911,-2.80949 -5.10227,-4.03343 -5.10227,-4.03343c0,0 1.67823,-1.22563 3.20057,-1.24515c2.75106,-0.02005 6.06086,1.12641 6.06086,1.12641c0,0 -0.61829,-2.12163 -2.98496,-4.04125c-3.60787,-2.314 -6.39521,-2.60798 -6.39521,-2.60798c0,0 4.47406,-3.59031 8.34807,-3.60097c8.59118,-0.01481 12.90571,1.81993 12.90571,1.81993" fill="url(#color-11)" stroke="#000000" stroke-width="1.28786" stroke-linecap="round"/><path d="M301.06321,183.53307c0,0 4.59877,-0.72709 10.60336,-8.93113c5.08925,-7.85568 5.39158,-16.74877 5.39158,-16.74877c0,0 3.66688,6.45394 11.95875,12.1609c8.43691,5.2343 14.1454,5.01585 14.1454,5.01585c0,0 -5.17334,3.11079 -10.8752,10.98202c-5.45468,8.03732 -6.30155,15.12213 -6.30155,15.12213c0,0 -3.43491,-6.1088 -10.72868,-10.98942c-8.44682,-5.89159 -15.37547,-6.18733 -15.37547,-6.18733z" fill="url(#color-12)" stroke="#000000" stroke-width="1.28786" stroke-linecap="butt"/><path d="M319.46745,180.89674c0,0.52282 -1.5399,0.94664 -3.43946,0.94664c-1.89956,0 -3.43946,-0.42383 -3.43946,-0.94664c0,-0.52282 1.5399,-0.94664 3.43946,-0.94664c1.89956,0 3.43946,0.42382 3.43946,0.94664z" fill="url(#color-13)" stroke="none" stroke-width="0" stroke-linecap="butt"/><path d="M320.09853,176.92085c0,2.54437 -0.64987,4.60699 -1.45152,4.60699c-0.80165,0 -1.45151,-2.06262 -1.45151,-4.60699c0,-2.54437 0.64987,-4.60699 1.45151,-4.60699c0.80165,0 1.45152,2.06262 1.45152,4.60699z" fill="#fafafa" stroke="#000000" stroke-width="1.28786" stroke-linecap="butt"/><path d="M330.26138,178.31149c0,0.52282 -1.5399,0.94664 -3.43946,0.94664c-1.89956,0 -3.43946,-0.42383 -3.43946,-0.94664c0,-0.52282 1.5399,-0.94664 3.43946,-0.94664c1.89956,0 3.43946,0.42382 3.43946,0.94664z" fill="url(#color-14)" stroke="none" stroke-width="0" stroke-linecap="butt"/><path d="M325.71527,175.15378c0,2.23068 -0.66399,4.03901 -1.48307,4.03901c-0.81907,0 -1.48307,-1.80832 -1.48307,-4.03901c0,-2.23068 0.66399,-4.039 1.48307,-4.039c0.81907,0 1.48307,1.80832 1.48307,4.039z" fill="#fafafa" stroke="#000000" stroke-width="1.28786" stroke-linecap="butt"/><path d="M319.46743,183.926l0.37866,2.14571l-2.08261,-0.0631l-0.06311,-1.83018" fill="#ffffff" stroke="#000000" stroke-width="1.28786" stroke-linecap="round"/><path d="M325.02108,182.53759c0,0 -1.94614,1.30063 -2.87306,1.40251c-0.801,0.08803 -2.36602,-0.82668 -2.36602,-0.82668c0,0 -1.72857,0.88195 -2.58567,0.87144c-1.65293,-0.02029 -3.09319,-1.06862 -3.09319,-1.06862" fill="none" stroke="#000000" stroke-width="1.28786" stroke-linecap="round"/><path d="M319.22204,297.60295l-116.82499,-116.82499l118.3809,-118.3809l116.82499,116.82499z" fill-opacity="0.00784" fill="#00990a" stroke="none" stroke-width="0" stroke-linecap="butt"/></g></g></svg>