<svg version="1.1" xmlns="http://www.w3.org/2000/svg" xmlns:xlink="http://www.w3.org/1999/xlink" width="105.32445" height="27.57027" viewBox="0,0,105.32445,27.57027"><defs><linearGradient x1="188.47361" y1="179.10033" x2="257.85127" y2="179.10033" gradientUnits="userSpaceOnUse" id="color-1"><stop offset="0" stop-color="#ff82b4" stop-opacity="0"></stop><stop offset="1" stop-color="#ff82b4"></stop></linearGradient><linearGradient x1="253.80131" y1="171.52949" x2="285.21213" y2="184.85447" gradientUnits="userSpaceOnUse" id="color-2"><stop offset="0" stop-color="#ffffff"></stop><stop offset="1" stop-color="#ff5498"></stop></linearGradient></defs><g transform="translate(-188.4736,-166.21487)"><g data-paper-data="{&quot;isPaintingLayer&quot;:true}" fill-rule="nonzero" stroke-linecap="butt" stroke-linejoin="miter" stroke-miterlimit="10" stroke-dasharray="" stroke-dashoffset="0" style="mix-blend-mode: normal"><path d="M188.47361,181.63841l69.37766,-9.60113v14.12609z" fill="url(#color-1)" stroke="none" stroke-width="0"></path><path d="M291.52639,180.22672l-19.56952,6.46015l0.58187,-11.42314z" fill="#ffe288" stroke="#000000" stroke-width="1.28786"></path><path d="M280.26522,186.38415c0.98273,1.8971 1.80463,5.8776 1.80463,5.8776c0,0 -11.75571,1.25307 -15.27828,0.76774c-9.39729,-1.29478 -16.21467,-8.1554 -15.22701,-15.32361c0.98766,-7.16822 9.40633,-11.92955 18.80362,-10.63477c4.67012,0.64345 13.15498,0.23463 13.15498,0.23463c0,0 -1.98256,5.30347 -3.34833,7.42158c-1.28782,1.99722 -4.04893,5.37126 -4.04893,5.37126c0,0 2.97821,4.04414 4.13933,6.28556z" fill="url(#color-2)" stroke="#000000" stroke-width="1.28786"></path><path d="M254.93651,184.29881c-3.75682,-0.51762 -4.50659,-3.00126 -3.94969,-7.04322c0.21471,-1.55835 2.14687,-4.99307 4.08071,-4.53004c3.08205,0.73798 4.87341,6.08811 4.87341,6.08811c0,0 -4.73272,5.52257 -5.00442,5.48514z" fill="#8901d0" stroke="#000000" stroke-width="1.28786"></path></g></g></svg>