<svg version="1.1" xmlns="http://www.w3.org/2000/svg" xmlns:xlink="http://www.w3.org/1999/xlink" width="736" height="448.52086" viewBox="0,0,736,448.52086"><g transform="translate(53.42366,58.0208)"><g stroke-miterlimit="10"><path d="M-45.92366,273.9792c-4.14213,0 -7.5,-2.3923 -7.5,-5.34335v-321.3133c0,-2.95105 3.35787,-5.34335 7.5,-5.34335h721c4.14214,0 7.5,2.3923 7.5,5.34335v321.3133c0,2.95105 -3.35786,5.34335 -7.5,5.34335z" fill-opacity="0.50196" fill="#000000" stroke="none" stroke-width="0" stroke-linecap="butt"/><path d="M53.50001,72.00003v-87h554v87z" fill="#adadad" stroke="#000000" stroke-width="1" stroke-linecap="butt"/><path d="M124.4889,262.33336v-168h387.02222v168z" fill="#adadad" stroke="#000000" stroke-width="1" stroke-linecap="butt"/><text transform="translate(216.56647,53.01878) scale(0.86836,0.86836)" font-size="40" xml:space="preserve" fill="#000000" stroke="none" stroke-width="1" stroke-linecap="butt" font-family="Sans Serif" font-weight="normal" text-anchor="start"><tspan x="0" dy="0">Zombie Guide</tspan></text><path d="M186.50001,390.00006v-116h79v116z" fill="#adadad" stroke="#000000" stroke-width="1" stroke-linecap="butt"/><path d="M369.50001,390.00006v-116h93v116z" fill="#adadad" stroke="#000000" stroke-width="1" stroke-linecap="butt"/><path d="M317.59979,261.57557v-169" fill="none" stroke="#000000" stroke-width="2" stroke-linecap="round"/><path d="M134.58806,254.2826v-124.5h85.56371v124.5z" fill="#adadad" stroke="#000000" stroke-width="1" stroke-linecap="butt"/><path d="M330.08806,254.2826v-124.5h85.56371v124.5z" fill="#adadad" stroke="#000000" stroke-width="1" stroke-linecap="butt"/><text transform="translate(134.58806,118.78259) scale(0.5,0.5)" font-size="40" xml:space="preserve" fill="#000000" stroke="none" stroke-width="1" stroke-linecap="butt" font-family="Sans Serif" font-weight="normal" text-anchor="start"><tspan x="0" dy="0">Roaring Knight</tspan></text><text transform="translate(329.58806,119.28259) scale(0.5,0.5)" font-size="40" xml:space="preserve" fill="#000000" stroke="none" stroke-width="1" stroke-linecap="butt" font-family="Sans Serif" font-weight="normal" text-anchor="start"><tspan x="0" dy="0">Digger Zombie</tspan></text><text transform="translate(226.08806,141.92322) scale(0.26529,0.24404)" font-size="40" xml:space="preserve" fill="#000000" stroke="none" stroke-width="1" stroke-linecap="butt" font-family="Sans Serif" font-weight="normal" text-anchor="start"><tspan x="0" dy="0">HP: 122</tspan><tspan x="0" dy="46.150000000000006px">Speed: Fast</tspan><tspan x="0" dy="46.150000000000006px">Damage: None</tspan><tspan x="0" dy="46.150000000000006px">Special: Invul-</tspan><tspan x="0" dy="46.150000000000006px">nerable to knock-</tspan><tspan x="0" dy="46.150000000000006px">back, ignore</tspan><tspan x="0" dy="46.150000000000006px">plants blocking</tspan><tspan x="0" dy="46.150000000000006px">its path</tspan></text><text transform="translate(420.08807,143.03259) scale(0.20857,0.31943)" font-size="40" xml:space="preserve" fill="#000000" stroke="none" stroke-width="1" stroke-linecap="butt" font-family="Sans Serif" font-weight="normal" text-anchor="start"><tspan x="0" dy="0">HP: 18</tspan><tspan x="0" dy="46.150000000000006px">Speed: Avg</tspan><tspan x="0" dy="46.150000000000006px">Damage: Avg</tspan><tspan x="0" dy="46.150000000000006px">Special: Appears from</tspan><tspan x="0" dy="46.150000000000006px">the back of the lawn</tspan></text><path d="M170.01453,158.27431l-4.23345,-6.33868l-3.26417,1.05977l-2.15941,-2.27381l2.64833,-2.9413l-2.25783,-3.38063l4.43707,-2.96341l2.11672,3.16933l3.26367,-1.67049l2.44885,2.48603l-3.07838,3.12852l4.51567,6.76126z" fill="#000000" stroke="#ffffff" stroke-width="0.5" stroke-linecap="round"/><path d="M165.3485,190.85084c-4.46619,-3.3428 -12.08546,-6.1304 -12.08546,-6.1304h17.84383v13.35551c0,0 -1.29218,-3.88231 -5.75837,-7.22511z" fill="#000000" stroke="#ffffff" stroke-width="0.5" stroke-linecap="butt"/><path d="M167.88626,238.2515v-87.87218h17.8035v87.87218z" fill="#000000" stroke="#ffffff" stroke-width="0.5" stroke-linecap="butt"/><path d="M167.82424,183.91156h17.96657l-0.35639,15.57635c0,0 -8.27687,-1.35484 -10.44405,-0.01914c-2.16718,1.3357 -7.26233,12.18795 -7.26233,12.18795l0.14973,-10.56407z" fill="#000000" stroke="#ffffff" stroke-width="0.5" stroke-linecap="round"/><path d="M188.94978,192.9628c0,0 -0.69832,16.93741 -10.52219,27.2913c-9.82387,10.35389 -17.40492,9.2306 -17.40492,9.2306l29.09344,-45.19604l5.12302,4.39035l-3.81052,5.45844z" fill="#000000" stroke="#ffffff" stroke-width="0.5" stroke-linecap="butt"/><path d="M175.48572,197.20017v-13.35551h27.47731c0,0 -11.73275,2.7876 -18.61013,6.1304c-6.87739,3.3428 -8.86718,7.22511 -8.86718,7.22511z" fill="#000000" stroke="#ffffff" stroke-width="0.5" stroke-linecap="butt"/><path d="M170.19154,163.97626l-0.76363,-7.2735l3.24425,-1.24931l2.34409,6.84855z" fill="#000000" stroke="none" stroke-width="0" stroke-linecap="butt"/><path d="M178.3497,166.12541l-1.42381,8.43932l-6.05096,4.23409l-2.36379,-7.03765z" fill="#000000" stroke="none" stroke-width="0" stroke-linecap="butt"/><path d="M167.84648,171.38794l0.21178,-6.9451l12.87725,-4.37653l-4.05832,6.40414z" fill="#ffffff" stroke="#ffffff" stroke-width="0.5" stroke-linecap="round"/><path d="M177.90937,158.27539l5.83679,-8.73934l-3.979,-4.04383l3.1653,-3.21336l4.2185,2.15921l2.736,-4.09657l5.7352,3.8304l-2.9184,4.36968l3.42315,3.80181l-2.79119,2.93907l-4.21916,-1.36982l-5.47199,8.19314z" fill="#000000" stroke="#ffffff" stroke-width="0.5" stroke-linecap="round"/><g stroke="#000000" stroke-width="0.5"><g><path d="M366.32999,208.32164l-11.77597,-25.31855l7.70565,-3.58398l11.77597,25.31855z" fill="#960000" stroke-linecap="butt"/><path d="M350.0313,195.66944c0,0 -0.86863,-6.96269 1.62681,-12.48914c1.04855,-2.32213 4.44694,-3.71966 6.20001,-4.54066c2.2372,-1.04773 5.59734,-2.52248 8.64609,-1.3851c5.21683,1.94626 9.53594,6.31785 9.53594,6.31785c0,0 -9.23559,-3.61234 -15.7487,0.65585c-6.88959,4.51491 -10.26014,11.44119 -10.26014,11.44119z" fill="#969696" stroke-linecap="round"/></g><path d="M357.28571,214.15224v-21.71801h19.82949v21.71801z" fill="#696969" stroke-linecap="butt"/><path d="M370.77516,160.46422v-7.68899h30.35126v7.68899z" fill="#969696" stroke-linecap="butt"/><path d="M368.35384,241.21817v-86.62337h17.55049v86.62337z" fill="#0b8100" stroke-linecap="butt"/><path d="M368.16796,241.33276v-50.17501h17.71124v50.17501z" fill="#fa0000" stroke-linecap="butt"/><path d="M381.31815,161.1429c1.67697,0 3.03642,4.30568 3.03642,9.61698c0,5.31132 -1.35946,9.61698 -3.03642,9.61698c-1.67697,0 -3.03642,-4.30568 -3.03642,-9.61698c0,-5.31132 1.35946,-9.61698 3.03642,-9.61698z" fill="#000000" stroke-linecap="butt"/><path d="M368.34706,160.59911v-14.7035h21.44822v14.7035z" fill="#969696" stroke-linecap="butt"/><path d="M368.07727,241.13114v-32.91426h10.92645l-0.26979,-16.86181l7.12923,-0.14685l0.02018,49.92292z" fill="#005ffb" stroke-linecap="round"/></g><text transform="translate(226.58806,251.49771) scale(0.2439,0.2439)" font-size="40" xml:space="preserve" fill="#ff0000" stroke="none" stroke-width="1" stroke-linecap="butt" font-family="Sans Serif" font-weight="normal" text-anchor="start"><tspan x="0" dy="0">Pos-Adv exclusive</tspan></text><text transform="translate(421.42139,251.49772) scale(0.2439,0.2439)" font-size="40" xml:space="preserve" fill="#ff0000" stroke="none" stroke-width="1" stroke-linecap="butt" font-family="Sans Serif" font-weight="normal" text-anchor="start"><tspan x="0" dy="0">Pos-Adv exclusive</tspan></text><text transform="translate(226.58807,242.49771) scale(0.22412,0.2439)" font-size="40" xml:space="preserve" fill="#ff0000" stroke="none" stroke-width="1" stroke-linecap="butt" font-family="Sans Serif" font-weight="normal" text-anchor="start"><tspan x="0" dy="0">Special zombie</tspan></text></g></g></svg>