<svg version="1.1" xmlns="http://www.w3.org/2000/svg" xmlns:xlink="http://www.w3.org/1999/xlink" width="64.75469" height="88.41618" viewBox="0,0,64.75469,88.41618"><defs><linearGradient x1="319.95335" y1="137.31685" x2="319.95335" y2="222.13082" gradientUnits="userSpaceOnUse" id="color-1"><stop offset="0" stop-color="#878787"/><stop offset="1" stop-color="#8459e0"/></linearGradient><linearGradient x1="319.59164" y1="209.32887" x2="319.59164" y2="222.14281" gradientUnits="userSpaceOnUse" id="color-2"><stop offset="0" stop-color="#7c7c7c"/><stop offset="1" stop-color="#7a7a7a"/></linearGradient><linearGradient x1="292.4166" y1="137.29881" x2="292.4166" y2="222.11282" gradientUnits="userSpaceOnUse" id="color-3"><stop offset="0" stop-color="#969696"/><stop offset="1" stop-color="#7a7a7a"/></linearGradient><linearGradient x1="347.75416" y1="137.36757" x2="347.75416" y2="222.18158" gradientUnits="userSpaceOnUse" id="color-4"><stop offset="0" stop-color="#969696"/><stop offset="1" stop-color="#7a7a7a"/></linearGradient><linearGradient x1="306.45662" y1="190.23432" x2="306.45662" y2="211.2362" gradientUnits="userSpaceOnUse" id="color-5"><stop offset="0" stop-color="#858585"/><stop offset="1" stop-color="#818181"/></linearGradient><linearGradient x1="325.03235" y1="202.82136" x2="325.03235" y2="214.97976" gradientUnits="userSpaceOnUse" id="color-6"><stop offset="0" stop-color="#808080"/><stop offset="1" stop-color="#7d7d7d"/></linearGradient></defs><g transform="translate(-287.15141,-137.08963)"><g stroke-miterlimit="10"><path d="M351.40104,137.31686v84.81396h-62.89539v-84.81396z" fill="url(#color-1)" stroke="none" stroke-width="0" stroke-linecap="butt"/><g stroke="#000000" stroke-width="1.28786"><path d="M303.16474,204.02321c-3.27061,0 -5.92197,-2.65136 -5.92197,-5.92197v-13.5522c0,-3.27061 2.65136,-5.92197 5.92197,-5.92197h27.78771c3.27061,0 5.92197,2.65136 5.92197,5.92197v13.5522c0,3.27061 -2.65136,5.92197 -5.92197,5.92197z" fill="#fffab9" stroke-linecap="butt"/><path d="M315.96117,188.96521c-13.35692,0 -24.18483,-7.38471 -24.18483,-16.49421v0c0,-9.1095 10.82791,-16.49421 24.18483,-16.49421h1.51155c13.35692,0 24.18483,7.38471 24.18483,16.49421v0c0,9.1095 -10.82791,16.49421 -24.18483,16.49421z" fill="#b100ff" stroke-linecap="butt"/><path d="M326.4548,195.17628c0.52957,1.94177 0.27021,3.7037 -0.57932,3.93539c-0.84952,0.23169 -1.9675,-1.1546 -2.49708,-3.09637c-0.52957,-1.94177 -0.27021,-3.7037 0.57932,-3.93539c0.84952,-0.23169 1.9675,1.1546 2.49708,3.09637z" fill="#000000" stroke-linecap="butt"/><path d="M334.9384,192.29316c0,1.88689 -0.63735,3.41652 -1.42355,3.41652c-0.7862,0 -1.42355,-1.52963 -1.42355,-3.41652c0,-1.88689 0.63735,-3.41652 1.42355,-3.41652c0.7862,0 1.42355,1.52963 1.42355,3.41652z" fill="#000000" stroke-linecap="butt"/><path d="M319.9057,199.8095c0,0 0.67586,-1.20198 1.93098,-0.77685c1.06821,0.36181 5.12983,3.16842 5.12983,3.16842" fill="none" stroke-linecap="round"/><path d="M327.0804,192.7487l-8.65519,-1.02496" fill="none" stroke-linecap="round"/><path d="M331.18022,191.38208l3.18875,-3.75817" fill="none" stroke-linecap="round"/><path d="M348.22366,175.25478c0,4.6861 -3.4159,8.48495 -7.62962,8.48495c-4.21372,0 -7.62962,-3.79884 -7.62962,-8.48495c0,-4.6861 3.4159,-8.48495 7.62962,-8.48495c4.21372,0 7.62962,3.79884 7.62962,8.48495z" fill="#b100ff" stroke-linecap="butt"/><path d="M345.84721,175.86448c0,2.44126 -1.23196,4.4203 -2.75167,4.4203c-1.51971,0 -2.75167,-1.97903 -2.75167,-4.4203c0,-2.44126 1.23196,-4.4203 2.75167,-4.4203c1.51971,0 2.75167,1.97903 2.75167,4.4203z" fill="#000000" stroke-linecap="butt"/></g><path d="M288.14394,222.14281v-12.81396h62.89539v12.81396z" fill="url(#color-2)" stroke="none" stroke-width="0" stroke-linecap="butt"/><path d="M288.0939,222.11282v-84.81396h8.64539v84.81396z" fill="url(#color-3)" stroke="none" stroke-width="0" stroke-linecap="butt"/><path d="M343.68148,222.18158v-84.81396h8.14539v84.81396z" fill="url(#color-4)" stroke="none" stroke-width="0" stroke-linecap="butt"/><path d="M288.14394,147.40359v-10.31396h62.89539v10.31396z" fill="#969696" stroke="none" stroke-width="0" stroke-linecap="butt"/><path d="M295.88896,211.2362v-21.00188l21.13534,21.00188z" fill="url(#color-5)" stroke="none" stroke-width="0" stroke-linecap="butt"/><path d="M303.00343,214.97976v-12.15842h44.05785v12.15842z" fill="url(#color-6)" stroke="none" stroke-width="0" stroke-linecap="butt"/><text transform="translate(328.70745,219.25581) scale(0.47116,0.5)" font-size="40" xml:space="preserve" fill="#000000" stroke="none" stroke-width="1" stroke-linecap="butt" font-family="Sans Serif" font-weight="normal" text-anchor="start"><tspan x="0" dy="0">75</tspan></text><g stroke-linecap="butt"><path d="M303.52762,213.44923l-2.65375,6.84999l-2.38631,-6.84999z" fill="#ffff00" stroke="#ffff00" stroke-width="1"/><path d="M298.55937,202.07342l2.38632,-6.84999l2.65375,6.84999z" fill="#ffff00" stroke="#ffff00" stroke-width="1"/><path d="M294.37596,207.97259c0,-3.72115 3.01658,-6.73773 6.73773,-6.73773c3.72115,0 6.73772,3.01658 6.73772,6.73773c0,3.72115 -3.01658,6.73772 -6.73772,6.73772c-3.72115,0 -6.73773,-3.01658 -6.73773,-6.73772z" fill="#ffff00" stroke="none" stroke-width="0"/><path d="M306.80397,205.43749l6.87114,2.59848l-6.83054,2.44142z" fill="#ffff00" stroke="#ffff00" stroke-width="1"/><path d="M295.46853,210.49722l-6.86899,-2.33105l6.82838,-2.70885z" fill="#ffff00" stroke="#ffff00" stroke-width="1"/><path d="M307.11956,210.08398l3.04475,6.68537l-6.56714,-3.08051z" fill="#ffff00" stroke="#ffff00" stroke-width="1"/><path d="M295.51088,205.68721l-3.23165,-6.49409l6.75404,2.88922z" fill="#ffff00" stroke="#ffff00" stroke-width="1"/><path d="M303.67899,202.14138l6.66063,-3.0985l-3.02751,6.59174z" fill="#ffff00" stroke="#ffff00" stroke-width="1"/><path d="M299.37584,213.78509l-6.46785,3.28387l2.83472,-6.7771z" fill="#ffff00" stroke="#ffff00" stroke-width="1"/><path d="M296.39221,208.17317c0,-2.70702 2.19448,-4.90151 4.9015,-4.90151c2.70702,0 4.90151,2.19448 4.90151,4.90151c0,2.70702 -2.19448,4.9015 -4.90151,4.9015c-2.70702,0 -4.9015,-2.19448 -4.9015,-4.9015z" fill="#fffff7" stroke="none" stroke-width="0"/></g><path d="M351.9061,137.19467v33.64619l-33.86,-33.64619z" fill="#3aff00" stroke="none" stroke-width="0" stroke-linecap="butt"/></g></g></svg>