<svg version="1.1" xmlns="http://www.w3.org/2000/svg" xmlns:xlink="http://www.w3.org/1999/xlink" width="32.78728" height="53.03859" viewBox="0,0,32.78728,53.03859"><g transform="translate(-303.64658,-153.4807)"><g stroke="#000000" stroke-width="1.28786" stroke-miterlimit="10"><g stroke-linecap="butt"><path d="M327.7649,164.42524l3.19729,-1.23949c0,0 4.82774,9.34818 4.82774,17.70649c0,5.74104 -2.57673,12.97171 -2.57673,12.97171l-6.16981,-2.78333c0,0 -1.51248,12.0143 -2.97893,12.0143c-6.4758,0 -11.72547,-9.94049 -11.72547,-22.20269c0,-12.2622 15.42592,-16.467 15.42592,-16.467z" fill="#49574b"/><path d="M330.58329,171.19323c1.12403,0 2.03525,0.99405 2.03525,2.22027c0,1.22622 -0.91122,2.22027 -2.03525,2.22027c-1.12403,0 -2.03524,-0.99405 -2.03524,-2.22027c0,-1.22622 0.91121,-2.22027 2.03524,-2.22027z" fill="#000000"/><path d="M331.50841,181.92452c1.12403,0 2.03524,0.99405 2.03524,2.22027c0,1.22622 -0.91121,2.22027 -2.03524,2.22027c-1.12403,0 -2.03524,-0.99405 -2.03524,-2.22027c0,-1.22622 0.91121,-2.22027 2.03524,-2.22027z" fill="#000000"/><path d="M327.74146,181.63232c0,12.2622 -5.24967,22.20269 -11.72547,22.20269c-1.46645,0 -2.97893,-12.0143 -2.97893,-12.0143l-6.16981,2.78333c0,0 -2.57673,-7.23067 -2.57673,-12.97172c0,-8.35831 4.82774,-17.70648 4.82774,-17.70648l3.19728,1.23949c0,0 15.42592,4.20479 15.42592,16.46699z" fill="#49574b"/><path d="M311.5324,174.15359c0,1.22622 -0.91121,2.22027 -2.03524,2.22027c-1.12403,0 -2.03524,-0.99405 -2.03524,-2.22027c0,-1.22622 0.91121,-2.22027 2.03524,-2.22027c1.12403,0 2.03524,0.99405 2.03524,2.22027z" fill="#000000"/><path d="M310.60729,184.88488c0,1.22622 -0.91121,2.22027 -2.03524,2.22027c-1.12403,0 -2.03525,-0.99405 -2.03525,-2.22027c0,-1.22622 0.91122,-2.22027 2.03525,-2.22027c1.12403,0 2.03524,0.99405 2.03524,2.22027z" fill="#000000"/></g><path d="M313.86158,163.3772l-4.37156,1.39452l-4.23643,-3.7106" fill="none" stroke-linecap="round"/><path d="M315.58799,163.2343l-2.50077,-3.92656l2.33462,-5.1831" fill="none" stroke-linecap="round"/><path d="M313.77605,162.50233l-4.1493,-1.98223l-0.69155,-5.66351" fill="none" stroke-linecap="round"/><path d="M319.93085,202.90202c-6.91299,0 -7.26129,-9.11765 -7.26129,-21.23815c0,-5.67411 1.86076,-15.02406 1.86076,-15.02406c0,0 -2.94713,-2.07799 -2.43182,-2.80364c2.14433,-3.01962 4.868,-4.82633 7.83235,-4.82633c2.8986,0 5.56708,1.72745 7.68882,4.6272c0.57743,0.78918 -1.43839,3.04157 -1.43839,3.04157c0,0 2.26207,7.67458 2.39506,14.44894c0.11246,5.72783 -1.7325,21.77446 -8.64549,21.77446z" fill="#5d6f5f" stroke-linecap="butt"/><path d="M321.10648,159.71778v31.71564" fill="none" stroke-linecap="round"/><path d="M305.0625,205.87537l4.28762,-14.15877h21.853l3.73438,14.15877z" fill="#a5a5a5" stroke-linecap="butt"/><path d="M318.34028,178.40736c0,-2.18951 1.73386,-3.96445 3.87268,-3.96445c2.13882,0 3.87268,1.77494 3.87268,3.96445c0,2.18951 -1.73386,3.96446 -3.87268,3.96446c-2.13882,0 -3.87268,-1.77495 -3.87268,-3.96446z" fill="#000000" stroke-linecap="butt"/><path d="M322.20824,178.29894c0,-1.20468 0.89895,-2.18128 2.00786,-2.18128c1.10891,0 2.00786,0.9766 2.00786,2.18128c0,1.20468 -0.89895,2.18128 -2.00786,2.18128c-1.10891,0 -2.00786,-0.9766 -2.00786,-2.18128z" fill="#ff0000" stroke-linecap="butt"/></g></g></svg>