<svg version="1.1" xmlns="http://www.w3.org/2000/svg" xmlns:xlink="http://www.w3.org/1999/xlink" width="68.05091" height="63.26238" viewBox="0,0,68.05091,63.26238"><defs><linearGradient x1="220.51539" y1="178.95552" x2="226.83729" y2="186.08097" gradientUnits="userSpaceOnUse" id="color-1"><stop offset="0" stop-color="#bce6a7"></stop><stop offset="1" stop-color="#b8fc9f"></stop></linearGradient><linearGradient x1="255.77626" y1="164.73209" x2="250.76794" y2="156.92276" gradientUnits="userSpaceOnUse" id="color-2"><stop offset="0" stop-color="#bce6a7"></stop><stop offset="1" stop-color="#b8fc9f"></stop></linearGradient><linearGradient x1="247.30236" y1="171.70874" x2="243.28895" y2="180.07305" gradientUnits="userSpaceOnUse" id="color-3"><stop offset="0" stop-color="#bce6a7"></stop><stop offset="1" stop-color="#b8fc9f"></stop></linearGradient><linearGradient x1="243.59454" y1="152.01291" x2="243.59454" y2="195.4912" gradientUnits="userSpaceOnUse" id="color-4"><stop offset="0" stop-color="#bce6a8"></stop><stop offset="1" stop-color="#b8ff9e"></stop></linearGradient><linearGradient x1="228.15138" y1="162.59792" x2="228.15138" y2="171.87524" gradientUnits="userSpaceOnUse" id="color-5"><stop offset="0" stop-color="#bce6a7"></stop><stop offset="1" stop-color="#b8fc9f"></stop></linearGradient><linearGradient x1="240.68923" y1="151.49314" x2="235.68092" y2="159.30246" gradientUnits="userSpaceOnUse" id="color-6"><stop offset="0" stop-color="#bce6a7"></stop><stop offset="1" stop-color="#b8fc9f"></stop></linearGradient><linearGradient x1="264.51257" y1="161.25738" x2="255.86908" y2="157.94823" gradientUnits="userSpaceOnUse" id="color-7"><stop offset="0" stop-color="#bce6a7"></stop><stop offset="1" stop-color="#b8fc9f"></stop></linearGradient></defs><g transform="translate(-205.50079,-147.99717)"><g data-paper-data="{&quot;isPaintingLayer&quot;:true}" fill-rule="nonzero" stroke="#000000" stroke-width="1.28786" stroke-linejoin="miter" stroke-miterlimit="10" stroke-dasharray="" stroke-dashoffset="0" style="mix-blend-mode: normal"><g><path d="" fill="none" stroke-linecap="butt"></path><path d="" fill="#00a735" stroke-linecap="butt"></path><path d="" fill="#ccf280" stroke-linecap="butt"></path><path d="" fill="#000000" stroke-linecap="butt"></path><path d="" fill="#000000" stroke-linecap="butt"></path><path d="" fill="#000000" stroke-linecap="round"></path><path d="M228.82078,202.48855c-2.30302,-0.18455 -6.85452,-2.2061 -6.85452,-2.2061c0,0 -0.80769,-11.55156 -1.85325,-17.21019c-1.01748,-5.50663 -4.89099,-15.74873 -4.89099,-15.74873c0,0 6.17846,4.07971 8.10097,5.95825c0.89245,0.87203 2.95515,4.84494 2.95515,4.84494l1.21617,-2.74658l0.66336,5.12694c0,0 2.64535,4.62669 3.60284,6.65104c0.66884,1.4141 1.59353,4.33526 1.59353,4.33526l0.77392,-1.83106l-0.44223,5.12694l1.9901,6.59178c0,0 -4.5888,1.28907 -6.85505,1.10747z" data-paper-data="{&quot;index&quot;:null}" fill="#55b54c" stroke-linecap="round"></path><path d="M226.23871,186.55001l-8.91582,-5.09298l8.04866,-3.1279" fill="url(#color-1)" stroke-linecap="round"></path><path d="M257.74642,160.56823l-5.25829,6.27261l-2.3367,-9.5227" data-paper-data="{&quot;index&quot;:null}" fill="url(#color-2)" stroke-linecap="round"></path><path d="M242.72439,172.22003l8.09977,1.17857l-6.87486,6.99129" data-paper-data="{&quot;index&quot;:null}" fill="url(#color-3)" stroke-linecap="round"></path><path d="M222.9647,184.76741c0,0 1.84002,-14.7361 8.79471,-24.44649c2.68137,-3.74382 7.2662,-6.11705 11.10271,-7.53587c13.78727,-5.09885 21.36225,16.72359 21.36225,16.72359c0,0 -11.5168,-15.55465 -16.72359,-10.00974c-5.2068,5.5449 -2.07519,30.02923 -2.07519,30.02923l-8.42283,5.96305z" fill="url(#color-4)" stroke-linecap="round"></path><path d="M256.36729,188.07002c0.84527,-8.0879 8.728,-17.95068 8.728,-17.95068c0,0 7.81248,13.32722 7.81248,17.0898c0,5.15214 -0.62761,10.58534 -7.81248,10.98631c-4.4464,0.24814 -9.30678,-4.5874 -8.728,-10.12544z" fill="#65ffb7" stroke-linecap="round"></path><path d="M235.92069,182.99762c0,2.86523 -0.90177,5.18797 -2.01416,5.18797c-1.11238,0 -2.01416,-2.32274 -2.01416,-5.18797c0,-2.86523 0.90177,-5.18799 2.01416,-5.18799c1.11238,0 2.01416,2.32274 2.01416,5.18799z" fill="#000000" stroke-linecap="butt"></path><path d="M243.61112,182.69245c0,3.03379 -1.0384,5.49315 -2.31933,5.49315c-1.28093,0 -2.31933,-2.45937 -2.31933,-5.49315c0,-3.03379 1.0384,-5.49315 2.31933,-5.49315c1.28093,0 2.31933,2.45937 2.31933,5.49315z" fill="#000000" stroke-linecap="butt"></path><path d="M231.8114,194.6591l6.40868,-5.49315l6.04246,4.21142l-5.12694,12.45114z" fill="#55b54c" stroke-linecap="round"></path><path d="M240.96667,209.49062c0,0 -7.5997,1.28907 -11.35294,1.10747c-3.81413,-0.18455 -11.35209,-2.2061 -11.35209,-2.2061c0,0 -1.33765,-11.55156 -3.06924,-17.21019c-1.68509,-5.50663 -8.10016,-15.74873 -8.10016,-15.74873c0,0 10.2324,4.07972 13.41636,5.95826c1.47803,0.87203 4.89414,4.84494 4.89414,4.84494l2.01416,-2.74658l1.09862,5.12694c0,0 4.38108,4.6267 5.96682,6.65104c1.1077,1.4141 2.63911,4.33526 2.63911,4.33526l1.28174,-1.83106l-0.73241,5.12694l3.29589,6.59178z" fill="#55b54c" stroke-linecap="round"></path><path d="M234.84916,208.08136l1.9901,-6.59178l-0.44223,-5.12694l0.77392,1.83106c0,0 0.92469,-2.92117 1.59353,-4.33526c0.95749,-2.02434 3.60284,-6.65104 3.60284,-6.65104l0.66336,-5.12694l1.21617,2.74658c0,0 2.06271,-3.97291 2.95515,-4.84494c1.92253,-1.87854 8.10097,-5.95825 8.10097,-5.95825c0,0 -3.8735,10.24208 -4.89099,15.74873c-1.04557,5.65863 -1.85325,17.21019 -1.85325,17.21019c0,0 -4.55152,2.02154 -6.85452,2.2061c-2.26625,0.1816 -6.85505,-1.10747 -6.85505,-1.10747z" data-paper-data="{&quot;index&quot;:null}" fill="#55b54c" stroke-linecap="round"></path><path d="M227.41896,171.87524l-3.17382,-9.27732l7.81248,2.44139" fill="url(#color-5)" stroke-linecap="round"></path><path d="M235.06438,158.90707l2.3367,-9.5227l5.25829,6.27261" fill="url(#color-6)" stroke-linecap="round"></path><path d="M256.1037,157.29193l9.66019,0.46513l-4.77726,6.12984" fill="url(#color-7)" stroke-linecap="round"></path></g></g></g></svg>