<svg version="1.1" xmlns="http://www.w3.org/2000/svg" xmlns:xlink="http://www.w3.org/1999/xlink" width="96.1724" height="97.26079" viewBox="0,0,96.1724,97.26079"><defs><linearGradient x1="239.66539" y1="145.13954" x2="239.66539" y2="197.17403" gradientUnits="userSpaceOnUse" id="color-1"><stop offset="0" stop-color="#1dffce"></stop><stop offset="1" stop-color="#30beff"></stop></linearGradient></defs><g transform="translate(-191.9138,-131.23752)"><g data-paper-data="{&quot;isPaintingLayer&quot;:true}" fill-rule="nonzero" stroke-linejoin="miter" stroke-miterlimit="10" stroke-dasharray="" stroke-dashoffset="0" style="mix-blend-mode: normal"><path d="M192.4138,226.6009v-64.88824v-9.24098c0,0 2.20499,0 4.81102,0c11.2941,0 90.36138,0 90.36138,0v74.12922z" fill="#afafaf" stroke="#000000" stroke-width="1" stroke-linecap="butt"></path><path d="M192.4138,205.86675v-64.88824v-9.24098c0,0 2.20499,0 4.81102,0c11.2941,0 90.36138,0 90.36138,0v74.12922z" fill="#afafaf" stroke="#000000" stroke-width="1" stroke-linecap="butt"></path><text transform="translate(227.49782,222.60707) scale(0.4713,0.4713)" font-size="40" xml:space="preserve" fill="#000000" fill-rule="nonzero" stroke="none" stroke-width="1" stroke-linecap="butt" stroke-linejoin="miter" stroke-miterlimit="10" stroke-dasharray="" stroke-dashoffset="0" font-family="Sans Serif" font-weight="normal" text-anchor="start" style="mix-blend-mode: normal"><tspan x="0" dy="0">2-2</tspan></text><path d="M196.91902,199.90345v-60.82023h86.62275v60.82023z" fill="#939393" stroke="#000000" stroke-width="1" stroke-linecap="butt"></path><g stroke="#000000" stroke-width="0.5"><path d="M226.93168,166.3812l-0.10159,-11.77767l9.22475,-0.10561l0.2032,11.88327z" fill="#0b8100" stroke-linecap="butt"></path><path d="M230.98234,159.1641c0,2.82243 -0.72242,5.11048 -1.61356,5.11048c-0.89114,0 -1.61356,-2.28803 -1.61356,-5.11048c0,-2.82243 0.72242,-5.11048 1.61356,-5.11048c0.89114,0 1.61356,2.28803 1.61356,5.11048z" fill="#000000" stroke-linecap="butt"></path><path d="M241.01842,165.4248l-5.89025,3.95951c0,0 -2.68807,14.20708 1.40174,17.6161c3.20375,2.67044 13.37036,8.13126 16.62069,5.51977c2.3961,-1.92515 1.29297,-5.56802 1.29297,-5.56802c0,0 9.95711,6.34604 3.10778,8.81284c-6.74495,2.42921 -30.29506,0.97973 -30.66311,0.98209c-0.6899,0.00443 -1.56994,-9.08556 -1.38861,-16.73452c0.13573,-5.7257 1.28128,-10.57474 1.28128,-10.57474l-3.75237,0.02406l-3.60702,-3.50098l2.53658,-1.73993l3.26483,1.61949l3.10968,-2.21287l3.72251,0.90954l2.94427,-3.52629l-0.15312,-0.54836l-3.06123,-5.0558l-3.32177,1.92288l-3.14389,-2.42994l-3.19625,2.77688l-2.74867,-2.80038l4.34934,-3.39493l1.73852,-0.01989c0,0 0.79905,-5.70876 3.72769,-5.81234c1.0045,-0.03553 2.66533,1.94344 3.91669,2.82893c1.24897,0.88379 2.08946,0.6741 2.08946,0.6741l1.79377,1.02819l4.19353,6.2925z" data-paper-data="{&quot;index&quot;:null}" fill="url(#color-1)" stroke-linecap="round"></path><path d="M229.6906,151.41358c0,1.90779 -0.65956,3.45437 -1.47318,3.45437c-0.81362,0 -1.47318,-1.54658 -1.47318,-3.45437c0,-1.90779 0.65956,-3.45437 1.47318,-3.45437c0.81362,0 1.47318,1.54658 1.47318,3.45437z" fill="#001515" stroke-linecap="butt"></path></g><path d="M253.7116,131.95688h33.838v33.838z" fill="#ff0000" stroke="#000000" stroke-width="1" stroke-linecap="butt"></path></g></g></svg>