<svg version="1.1" xmlns="http://www.w3.org/2000/svg" xmlns:xlink="http://www.w3.org/1999/xlink" width="30.96332" height="36.46476" viewBox="0,0,30.96332,36.46476"><g transform="translate(-241.81395,-168.19434)"><g data-paper-data="{&quot;isPaintingLayer&quot;:true}" fill-rule="nonzero" stroke="#000000" stroke-linejoin="miter" stroke-miterlimit="10" stroke-dasharray="" stroke-dashoffset="0" style="mix-blend-mode: normal"><path d="M248.9326,180.13352l-3.43693,-10.14859l1.33644,-0.13194l2.97733,9.34428z" fill="#646464" stroke-width="1" stroke-linecap="butt"></path><path d="M244.38839,196.59723v-16.30548h3.80218v16.30548z" fill="#ff0000" stroke-width="1" stroke-linecap="butt"></path><path d="M246.3626,187.96922l-1.75485,-7.82371l5.19143,-0.87743l0.07312,7.53123z" fill="#6a6a6a" stroke-width="1" stroke-linecap="butt"></path><path d="M249.94541,194.11119v-8.92048h16.45171v8.92048z" fill="#ff0000" stroke-width="1" stroke-linecap="butt"></path><path d="M246.16413,200.13304l0.29247,-14.09102l3.39479,-4.09465l5.13437,7.42015l13.76714,2.68847l-0.18311,8.07705z" fill="#868686" stroke-width="1" stroke-linecap="butt"></path><path d="M243.14537,199.08326c0,-2.66524 2.1606,-4.82584 4.82584,-4.82584c2.66524,0 4.82584,2.1606 4.82584,4.82584c0,2.66524 -2.1606,4.82584 -4.82584,4.82584c-2.66524,0 -4.82584,-2.1606 -4.82584,-4.82584z" fill="#adadad" stroke-width="1.5" stroke-linecap="butt"></path><path d="M264.86163,200.18004c0,-1.97874 1.60408,-3.58282 3.58282,-3.58282c1.97874,0 3.58282,1.60408 3.58282,3.58282c0,1.97874 -1.60408,3.58282 -3.58282,3.58282c-1.97874,0 -3.58282,-1.60408 -3.58282,-3.58282z" fill="#adadad" stroke-width="1.5" stroke-linecap="butt"></path><path d="M246.38911,181.88314l-3.95398,-12.38915l1.73859,-0.64899l4.06889,12.4466z" fill="#adadad" stroke-width="1" stroke-linecap="butt"></path><path d="M246.28948,181.57133c0,-0.58554 0.47468,-1.06022 1.06022,-1.06022c0.58554,0 1.06022,0.47468 1.06022,1.06022c0,0.58554 -0.47468,1.06022 -1.06022,1.06022c-0.58554,0 -1.06022,-0.47468 -1.06022,-1.06022z" fill="#000000" stroke-width="1" stroke-linecap="butt"></path><path d="M245.26582,171.5175l-0.73119,-2.28758l2.2249,0.78864l0.49616,1.79663z" fill="#8f8f8f" stroke-width="1" stroke-linecap="butt"></path><path d="M245.84815,199.0467c0,-1.14224 0.92597,-2.06822 2.06822,-2.06822c1.14224,0 2.06822,0.92597 2.06822,2.06822c0,1.14224 -0.92597,2.06822 -2.06822,2.06822c-1.14224,0 -2.06822,-0.92597 -2.06822,-2.06822z" fill="#6a6a6a" stroke-width="1.5" stroke-linecap="butt"></path><path d="M267.27716,200.25316c0,-0.69804 0.56587,-1.26391 1.26391,-1.26391c0.69804,0 1.26391,0.56587 1.26391,1.26391c0,0.69804 -0.56587,1.26391 -1.26391,1.26391c-0.69804,0 -1.26391,-0.56587 -1.26391,-1.26391z" fill="#6a6a6a" stroke-width="1.5" stroke-linecap="butt"></path><path d="M254.92724,191.49772l9.49081,2.14482" fill="none" stroke-width="1.5" stroke-linecap="round"></path><path d="M255.0881,193.85702l8.09668,1.87671" fill="none" stroke-width="1.5" stroke-linecap="round"></path><path d="M255.24896,196.16269l7.50686,1.76947" fill="none" stroke-width="1.5" stroke-linecap="round"></path><path d="M249.8333,192.14116l-1.76947,-5.09394" fill="none" stroke-width="1.5" stroke-linecap="round"></path><path d="M252.56794,190.37169l-2.46654,-4.61135" fill="none" stroke-width="1.5" stroke-linecap="round"></path></g></g></svg>