<svg version="1.1" xmlns="http://www.w3.org/2000/svg" xmlns:xlink="http://www.w3.org/1999/xlink" width="96.1724" height="97.26079" viewBox="0,0,96.1724,97.26079"><g transform="translate(-191.9138,-131.23753)"><g data-paper-data="{&quot;isPaintingLayer&quot;:true}" fill-rule="nonzero" stroke-linejoin="miter" stroke-miterlimit="10" stroke-dasharray="" stroke-dashoffset="0" style="mix-blend-mode: normal"><path d="M192.4138,226.60091v-64.88824v-9.24098c0,0 2.20499,0 4.81102,0c11.2941,0 90.36138,0 90.36138,0v74.12922z" fill="#afafaf" stroke="#000000" stroke-width="1" stroke-linecap="butt"></path><path d="M192.4138,205.86676v-64.88824v-9.24098c0,0 2.20499,0 4.81102,0c11.2941,0 90.36138,0 90.36138,0v74.12922z" fill="#afafaf" stroke="#000000" stroke-width="1" stroke-linecap="butt"></path><text transform="translate(226.18157,222.60708) scale(0.4713,0.4713)" font-size="40" xml:space="preserve" fill="#000000" fill-rule="nonzero" stroke="none" stroke-width="1" stroke-linecap="butt" stroke-linejoin="miter" stroke-miterlimit="10" stroke-dasharray="" stroke-dashoffset="0" font-family="Sans Serif" font-weight="normal" text-anchor="start" style="mix-blend-mode: normal"><tspan x="0" dy="0">1-7</tspan></text><path d="M196.91902,199.90346v-60.82023h86.62275v60.82023z" fill="#939393" stroke="#000000" stroke-width="1" stroke-linecap="butt"></path><g stroke="#000000" stroke-width="0.5"><path d="M257.84378,195.46763v-46.7706h12.08653v46.7706z" fill="#ff0000" stroke-linecap="butt"></path><path d="M268.4098,157.68714c0,3.49785 -3.13467,6.33342 -7.00149,6.33342c-3.86682,0 -3.6611,-2.10497 -3.6611,-5.60283c0,-3.49786 -0.20572,-7.06401 3.6611,-7.06401c3.86681,0 7.00149,2.83556 7.00149,6.33342z" fill="#0b8100" stroke-linecap="butt"></path><path d="M263.09324,157.42506c0,2.86774 -0.93621,5.19251 -2.0911,5.19251c-1.15488,0 -2.09111,-2.32476 -2.09111,-5.19251c0,-2.86774 0.64576,-3.79772 1.80065,-3.79772c1.15488,0 2.38155,0.92998 2.38155,3.79772z" fill="#000000" stroke-linecap="butt"></path><path d="M263.7865,150.4373l-5.57939,4.66823" fill="none" stroke-linecap="round"></path><path d="M265.43249,179.2961c0,2.97121 -2.77432,5.37984 -6.19663,5.37984c-1.63224,0 -1.21163,-4.89326 -1.21163,-4.89326c0,0 -0.57843,-5.86642 1.21163,-5.86642c3.42231,0 6.19663,2.40864 6.19663,5.37985z" fill="#ffffff" stroke-linecap="butt"></path><path d="M273.27247,158.24613l-1.58615,-2.69367l-3.13597,4.44314l2.70875,-6.37431l1.70888,2.006l2.47696,-3.47041z" data-paper-data="{&quot;index&quot;:null}" fill="#e6ff00" stroke-linecap="round"></path><path d="M258.21594,176.77253l2.70875,6.37431l-3.13597,-4.44314z" data-paper-data="{&quot;index&quot;:null}" fill="#e6ff00" stroke-linecap="round"></path></g><g stroke="#000000" stroke-width="0.5" stroke-linecap="butt"><path d="M212.75262,194.98714v-41.52823l8.91062,-0.21319v41.74142z" fill="#0b8100"></path><path d="M212.76537,195.0453v-25.47454h8.99224v25.47454z" fill="#740000"></path><path d="M212.76537,181.26114v-11.69037h4.12586z" fill="#ffffff"></path><path d="M212.70204,177.14359v-7.67726h2.70951z" fill="#ff0000"></path><path d="M216.62272,159.21452c0,2.69663 -0.6902,4.88267 -1.54163,4.88267c-0.85142,0 -1.54164,-2.18604 -1.54164,-4.88267c0,-2.69663 0.69021,-4.88267 1.54164,-4.88267c0.85142,0 1.54163,2.18604 1.54163,4.88267z" fill="#000000"></path><path d="M211.81723,157.03119v-4.18855h10.61586v4.18855z" fill="#ff6e00"></path><path d="M212.61662,152.70409l2.55822,-8.77144h3.90063l2.66482,8.77144z" fill="#ff6e00"></path></g><g stroke="#000000" stroke-width="0.5"><path d="M235.65497,195.91394v-44.96245h9.1097v44.96245z" fill="#0b8100" stroke-linecap="butt"></path><path d="M235.66801,195.97342v-26.04368h9.19314v26.04368z" fill="#740000" stroke-linecap="butt"></path><path d="M235.66801,181.88129v-11.95155h4.21804z" fill="#ffffff" stroke-linecap="butt"></path><path d="M235.60327,177.67175v-7.84878h2.77005z" fill="#ff0000" stroke-linecap="butt"></path><path d="M239.61153,159.34211c0,2.75687 -0.70563,4.99176 -1.57608,4.99176c-0.87044,0 -1.57608,-2.23488 -1.57608,-4.99176c0,-0.79554 0.05876,-1.54761 0.16328,-2.21506c0.25769,-1.64553 0.79353,-2.7767 1.41279,-2.7767c0.87044,0 1.57608,2.23488 1.57608,4.99176z" fill="#000000" stroke-linecap="butt"></path><path d="M235.023,154.83575l1.84964,-13.93795l10.5667,1.40225l-1.84964,13.93794z" fill="#ababab" stroke-linecap="butt"></path><path d="M245.43919,156.28704c0,0 -0.74592,3.46521 -6.45682,2.76747c-3.67546,-0.44907 -3.04422,-4.29224 -3.04422,-4.29224" fill="none" stroke-linecap="round"></path></g><path d="M253.7116,131.95688h33.838v33.838z" fill="#ff0000" stroke="#000000" stroke-width="1" stroke-linecap="butt"></path></g></g></svg>