<svg version="1.1" xmlns="http://www.w3.org/2000/svg" xmlns:xlink="http://www.w3.org/1999/xlink" width="96.2701" height="95.69243" viewBox="0,0,96.2701,95.69243"><g transform="translate(-271.8161,-131.23746)"><g stroke-miterlimit="10"><path d="M272.3161,226.42989v-64.88824v-9.24098c0,0 2.20499,0 4.81102,0c11.2941,0 90.36138,0 90.36138,0v74.12922z" fill="#afafaf" stroke="#000000" stroke-width="1"/><path d="M272.4138,205.86668v-64.88824v-9.24098c0,0 2.20499,0 4.81102,0c11.2941,0 90.36138,0 90.36138,0v74.12922z" fill="#afafaf" stroke="#000000" stroke-width="1"/><path d="M363.54177,139.08309v60.82023h-86.62275v-60.82023z" fill="#939393" stroke="#000000" stroke-width="1"/><text transform="translate(295.94844,219.90031) scale(0.27691,0.31365)" font-size="40" xml:space="preserve" fill="#000000" stroke="none" stroke-width="1" font-family="Sans Serif" font-weight="normal" text-anchor="start"><tspan x="0" dy="0">Day Time</tspan></text><g><path d="M324.21856,178.43506l-4.11301,10.61668l-3.69851,-10.61668z" fill="#ffff00" stroke="#ffff00" stroke-width="1"/><path d="M316.51835,160.80384l3.69851,-10.61668l4.11301,10.61668z" fill="#ffff00" stroke="#ffff00" stroke-width="1"/><path d="M310.03457,169.94691c0,-5.76733 4.67534,-10.44269 10.44269,-10.44269c5.76733,0 10.44267,4.67534 10.44267,10.44269c0,5.76733 -4.67534,10.44267 -10.44267,10.44267c-5.76733,0 -10.44269,-4.67534 -10.44269,-10.44267z" fill="#ffff00" stroke="none" stroke-width="0"/><path d="M329.29652,166.01779l10.64945,4.02735l-10.58654,3.78392z" fill="#ffff00" stroke="#ffff00" stroke-width="1"/><path d="M311.72794,173.8598l-10.64614,-3.61287l10.58319,-4.19838z" fill="#ffff00" stroke="#ffff00" stroke-width="1"/><path d="M329.78564,173.2193l4.71901,10.36153l-10.1783,-4.77443z" fill="#ffff00" stroke="#ffff00" stroke-width="1"/><path d="M311.79356,166.40477l-5.00867,-10.06508l10.46797,4.47793z" fill="#ffff00" stroke="#ffff00" stroke-width="1"/><path d="M324.45314,160.90919l10.32318,-4.80231l-4.69229,10.21642z" fill="#ffff00" stroke="#ffff00" stroke-width="1"/><path d="M317.78377,178.95558l-10.02441,5.08961l4.39348,-10.5037z" fill="#ffff00" stroke="#ffff00" stroke-width="1"/><path d="M313.15951,170.25773c0,-4.19556 3.40118,-7.59678 7.59674,-7.59678c4.19556,0 7.59678,3.40118 7.59678,7.59678c0,4.19556 -3.40118,7.59673 -7.59678,7.59673c-4.19556,0 -7.59674,-3.40117 -7.59674,-7.59673z" fill="#fffff7" stroke="none" stroke-width="0"/></g></g></g></svg>