<svg version="1.1" xmlns="http://www.w3.org/2000/svg" xmlns:xlink="http://www.w3.org/1999/xlink" width="77.03105" height="51.27668" viewBox="0,0,77.03105,51.27668"><defs><linearGradient x1="300.54966" y1="177.12819" x2="300.54966" y2="199.81164" gradientUnits="userSpaceOnUse" id="color-1"><stop offset="0" stop-color="#fde600"/><stop offset="1" stop-color="#fcf6b2"/></linearGradient><linearGradient x1="349.27701" y1="175.79189" x2="349.27701" y2="199.11119" gradientUnits="userSpaceOnUse" id="color-2"><stop offset="0" stop-color="#fde600"/><stop offset="1" stop-color="#fcf6b2"/></linearGradient><radialGradient cx="308.87923" cy="200.13953" r="20.22905" gradientUnits="userSpaceOnUse" id="color-3"><stop offset="0" stop-color="#7df9ff"/><stop offset="1" stop-color="#00dbff"/></radialGradient><radialGradient cx="342.54856" cy="180.21551" r="20.22906" gradientUnits="userSpaceOnUse" id="color-4"><stop offset="0" stop-color="#00b4b4"/><stop offset="1" stop-color="#00b4b4" stop-opacity="0"/></radialGradient><radialGradient cx="305.99672" cy="182.36404" r="26.07582" gradientUnits="userSpaceOnUse" id="color-5"><stop offset="0" stop-color="#005866"/><stop offset="1" stop-color="#00a3bc"/></radialGradient><radialGradient cx="341.66779" cy="156.91521" r="26.07582" gradientUnits="userSpaceOnUse" id="color-6"><stop offset="0" stop-color="#6eecff"/><stop offset="1" stop-color="#6eecff" stop-opacity="0"/></radialGradient></defs><g transform="translate(-281.99105,-154.36166)"><g stroke="#000000" stroke-width="1.28786" stroke-miterlimit="10"><path d="M299.34066,181.96298l3.88421,-2.54052l6.46587,20.38918l-9.90618,-12.39612l-4.78152,2.48286l-3.59448,-12.77019z" fill="url(#color-1)" stroke-linecap="round"/><path d="M358.00895,175.79189l-3.13804,12.88994l-4.86679,-2.31123l-9.45905,12.74058l5.73664,-20.60624l3.97211,2.40076z" fill="url(#color-2)" stroke-linecap="round"/><path d="M308.77646,204.39387c-1.62251,0 -2.93783,-1.25375 -2.93783,-2.80036v-32.96414c0,-1.54659 1.31532,-2.80036 2.93783,-2.80036h34.58246c1.62251,0 2.93782,1.25375 2.93782,2.80036v32.96414c0,1.54659 -1.31531,2.80036 -2.93782,2.80036c0,0 -11.89035,0.60054 -17.67838,0.60054c-5.73904,0 -16.90407,-0.60054 -16.90407,-0.60054z" fill="url(#color-3)" stroke-linecap="butt"/><path d="M308.41615,204.03356c-1.62251,0 -2.93783,-1.25375 -2.93783,-2.80036v-32.96414c0,-1.54659 1.31532,-2.80036 2.93783,-2.80036h34.58245c1.62251,0 2.93782,1.25375 2.93782,2.80036v32.96414c0,1.54659 -1.31531,2.80036 -2.93782,2.80036c0,0 -11.89034,0.60052 -17.67837,0.60052c-5.73904,0 -16.90407,-0.60052 -16.90407,-0.60052z" fill="url(#color-4)" stroke-linecap="butt"/><path d="M313.89075,195.51669c0,0 1.93755,-0.40013 3.50058,0.21205c1.95267,0.7648 7.30884,4.02164 7.30884,4.02164" fill="none" stroke-linecap="round"/><path d="M281.99105,196.0208v0z" fill="#ffffff" stroke-linecap="butt"/><path d="M344.88243,184.7408c0,3.82015 -1.64371,6.91699 -3.67132,6.91699c-2.02761,0 -3.67132,-3.09684 -3.67132,-6.91699c0,-2.09733 1.7405,-3.30621 2.52292,-4.57472c0.6427,-1.042 0.32975,-0.80989 1.24418,-0.80989c2.02761,0 3.57555,1.56446 3.57555,5.38461z" fill="#ffffff" stroke-linecap="butt"/><path d="M302.18298,184.64166l-1.72799,-7.56135c-1.05605,-4.62101 0.74814,-13.01836 5.11301,-14.01586l34.30622,-7.84001c4.36488,-0.99751 9.63757,5.78256 10.6936,10.40357l1.72799,7.56135c1.05605,4.62101 -49.05678,16.07331 -50.11282,11.4523z" fill="url(#color-5)" stroke-linecap="butt"/><path d="M302.30308,184.52156l-1.72798,-7.56135c-1.05605,-4.62101 0.74814,-13.01836 5.11301,-14.01586l34.30622,-7.84001c4.36488,-0.99751 9.63757,5.78256 10.6936,10.40357l1.72799,7.56135c1.05605,4.62101 -49.05679,16.07331 -50.11284,11.4523z" fill="url(#color-6)" stroke-linecap="butt"/><path d="M345.8569,176.23212l-9.38582,6.32106" fill="none" stroke-linecap="round"/><path d="M331.15487,187.40117c0,3.82015 -1.64371,6.91699 -3.67132,6.91699c-2.02761,0 -3.67132,-3.09684 -3.67132,-6.91699c0,-2.11154 0.50219,-3.81055 1.29381,-5.07931c0.44867,-0.7191 2.33203,0.00846 2.33203,0.00846c0,0 2.1223,0.6628 2.31744,0.99574c0.74182,1.26563 1.39936,2.04108 1.39936,4.07512z" fill="#ffffff" stroke-linecap="butt"/><path d="M322.35861,180.72774l10.31528,3.45936" fill="none" stroke-linecap="round"/></g></g></svg>