<svg version="1.1" xmlns="http://www.w3.org/2000/svg" xmlns:xlink="http://www.w3.org/1999/xlink" width="736" height="448.52095" viewBox="0,0,736,448.52095"><g transform="translate(53.42362,58.0208)"><g stroke-miterlimit="10"><path d="M-45.92362,273.9792c-4.14213,0 -7.5,-2.3923 -7.5,-5.34335v-321.3133c0,-2.95105 3.35787,-5.34335 7.5,-5.34335h721c4.14214,0 7.5,2.3923 7.5,5.34335v321.3133c0,2.95105 -3.35786,5.34335 -7.5,5.34335z" fill-opacity="0.50196" fill="#000000" stroke="none" stroke-width="0" stroke-linecap="butt"/><path d="M53.50004,72.00008v-87h554v87z" fill="#adadad" stroke="#000000" stroke-width="1" stroke-linecap="butt"/><path d="M124.68895,262.5334v-168h387.02222v168z" fill="#adadad" stroke="#000000" stroke-width="1" stroke-linecap="butt"/><text transform="translate(267.60553,45.2807) scale(0.69512,0.69512)" font-size="40" xml:space="preserve" fill="#000000" stroke="none" stroke-width="1" stroke-linecap="butt" font-family="Sans Serif" font-weight="normal" text-anchor="start"><tspan x="0" dy="0">Trophies</tspan></text><path d="M186.50006,390.00015v-116h79v116z" fill="#adadad" stroke="#000000" stroke-width="1" stroke-linecap="butt"/><path d="M369.50007,390.00015v-116h93v116z" fill="#adadad" stroke="#000000" stroke-width="1" stroke-linecap="butt"/><text transform="translate(280.08809,123.78264) scale(0.45585,0.5)" font-size="40" xml:space="preserve" fill="#000000" stroke="none" stroke-width="1" stroke-linecap="butt" font-family="Sans Serif" font-weight="normal" text-anchor="start"><tspan x="0" dy="0">Gold trophy:</tspan><tspan x="0" dy="46.150000000000006px">-Get silver trophy</tspan><tspan x="0" dy="46.150000000000006px">-Complete all minigames</tspan><tspan x="0" dy="46.150000000000006px"> </tspan></text><g stroke="#000000" stroke-width="1"><path d="M151.78858,241.33798v-10.05185l10.6146,-35.01903h86.87913l11.00829,34.46075v10.61013z" fill="#afafaf" stroke-linecap="butt"/><g fill="#e0e0e0"><path d="M228.23959,128.03187c0,0 18.63595,4.91594 19.24172,15.42995c0.67372,11.69343 -26.35756,14.04917 -26.35756,14.04917l6.48317,-4.54508c0,0 14.52282,-2.10312 13.98647,-9.76557c-0.40581,-5.79751 -13.52908,-11.7962 -13.52908,-11.7962z" stroke-linecap="butt"/><path d="M181.61162,130.90278c0,0 -13.12327,5.99869 -13.52908,11.7962c-0.53635,7.66245 13.98647,9.76557 13.98647,9.76557l6.48317,4.54508c0,0 -27.03128,-2.35574 -26.35756,-14.04917c0.60577,-10.51402 19.24172,-15.42995 19.24172,-15.42995z" stroke-linecap="butt"/><path d="M180.04698,196.64878l6.15813,-6.15813h15.49466v-25.42712c0,0 -6.43881,-2.74168 -16.89775,-9.99248c-9.52136,-6.6008 -7.33747,-29.78688 -7.33747,-29.78688l56.23873,0.07997c0,0 2.18389,23.18608 -7.33746,29.78688c-10.45895,7.2508 -16.89776,9.99248 -16.89776,9.99248v25.42712h15.49466l6.15813,6.15813z" stroke-linecap="round"/><path d="M196.96556,169.86381l-18.29797,6.86174l2.28725,-7.84199l-7.84199,1.9605l-4.35416,-15.53777l24.34106,10.32394z" stroke-linecap="round"/><path d="M219.01978,165.794l24.34106,-10.32394l-4.35416,15.53777l-7.84199,-1.9605l2.28725,7.84199l-18.29797,-6.86174z" stroke-linecap="round"/></g></g><g stroke="#000000" stroke-width="1"><path d="M151.81321,242.10555v-10.13999l10.62535,-35.32607h86.96713l11.01944,34.7629v10.70316z" fill="#afafaf" stroke-linecap="butt"/><path d="M228.34167,127.80599c0,0 18.65483,4.95904 19.26121,15.56524c0.6744,11.79596 -26.38426,14.17235 -26.38426,14.17235l6.48974,-4.58493c0,0 14.53753,-2.12156 14.00064,-9.85119c-0.40622,-5.84834 -13.54279,-11.89963 -13.54279,-11.89963z" fill="#f1d400" stroke-linecap="butt"/><path d="M181.66647,130.70207c0,0 -13.13657,6.05128 -13.54279,11.89963c-0.53689,7.72963 14.00064,9.85119 14.00064,9.85119l6.48974,4.58493c0,0 -27.05866,-2.3764 -26.38426,-14.17235c0.60638,-10.60621 19.26121,-15.56524 19.26121,-15.56524z" fill="#f1d400" stroke-linecap="butt"/><path d="M180.10024,197.02453l6.16436,-6.21212h15.51035v-25.65006c0,0 -6.44533,-2.76572 -16.91487,-10.08009c-9.531,-6.65868 -7.34491,-30.04805 -7.34491,-30.04805l56.2957,0.08067c0,0 2.18611,23.38938 -7.3449,30.04805c-10.46955,7.31437 -16.91488,10.08009 -16.91488,10.08009v25.65006h15.51035l6.16436,6.21212z" fill="#f1d400" stroke-linecap="round"/><path d="M197.03596,170.0047l-18.31651,6.9219l2.28956,-7.91075l-7.84993,1.97769l-4.35857,-15.674l24.36571,10.41446z" fill="#f1d400" stroke-linecap="round"/><path d="M219.11252,165.89921l24.36571,-10.41446l-4.35857,15.674l-7.84993,-1.97769l2.28956,7.91075l-18.31651,-6.9219z" fill="#f1d400" stroke-linecap="round"/><path d="M244.15373,124.87874l24.36571,-10.41446l-4.35857,15.674l-7.84993,-1.97769l2.28956,7.91075l-18.31651,-6.9219z" fill="#f1d400" stroke-linecap="round"/><path d="M168.85612,129.0707l-18.31651,6.9219l2.28956,-7.91075l-7.84993,1.97769l-4.35857,-15.674l24.36571,10.41446z" fill="#f1d400" stroke-linecap="round"/></g></g></g></svg>