<svg version="1.1" xmlns="http://www.w3.org/2000/svg" xmlns:xlink="http://www.w3.org/1999/xlink" width="60.33732" height="71.42911" viewBox="0,0,60.33732,71.42911"><g transform="translate(-209.83134,-143.80237)"><g data-paper-data="{&quot;isPaintingLayer&quot;:true}" fill-rule="nonzero" stroke="#000000" stroke-width="1.28786" stroke-linejoin="miter" stroke-miterlimit="10" stroke-dasharray="" stroke-dashoffset="0" style="mix-blend-mode: normal"><path d="M211.24916,167.10564l7.88381,3.83315c0,0 -5.66628,5.69149 -1.31969,11.64388c6.88843,9.43329 17.06569,13.89419 17.06569,13.89419l-4.70528,6.32975c0,0 -14.83652,-10.76082 -18.15143,-17.01436c-2.95081,-5.56668 -0.7731,-18.68662 -0.7731,-18.68662z" fill="#ffffff" stroke-linecap="butt"></path><path d="M218.02655,152.79325l11.7049,-7.38081l-5.07792,12.55004z" fill="#ff0000" stroke-linecap="butt"></path><path d="M223.95129,163.90849c-2.47112,6.46024 -7.02818,11.02515 -10.17845,10.19601c-3.15028,-0.82915 -3.70085,-6.73835 -1.22973,-13.19859c2.47112,-6.46024 7.02818,-11.02515 10.17845,-10.19601c3.15028,0.82915 3.70085,6.73835 1.22973,13.19859z" fill="#ba0000" stroke-linecap="butt"></path><path d="M246.32249,197.03696c1.29384,4.73492 -4.2711,10.38055 -12.42961,12.60989c-8.15853,2.22936 -15.82115,0.19819 -17.11499,-4.53673c-1.29384,-4.73491 4.2711,-10.38055 12.42961,-12.60989c8.15853,-2.22934 15.82115,-0.19818 17.11499,4.53674z" fill="#00ff07" stroke-linecap="butt"></path><path d="M265.30744,209.34317c0,-0.52553 0.1186,-0.95156 0.26487,-0.95156c0.14629,0 0.26488,0.42602 0.26488,0.95156c0,0.52553 -0.1186,0.95156 -0.26488,0.95156c-0.14629,0 -0.26487,-0.42602 -0.26487,-0.95156z" fill="#ba0000" stroke-linecap="butt"></path><path d="M263.61669,196.15338c5.68905,4.76719 7.60124,11.85351 4.27099,15.82777c-3.33025,3.97425 -10.64185,3.33146 -16.3309,-1.43571c-5.68905,-4.76719 -7.60124,-11.8535 -4.27099,-15.82777c3.33025,-3.97425 10.64185,-3.33147 16.3309,1.4357z" fill="#00ff07" stroke-linecap="butt"></path><path d="M262.97259,182.61161c0,9.69782 -8.67903,17.55945 -19.38516,17.55945c-10.70613,0 -19.38516,-7.86162 -19.38516,-17.55945c0,-9.69782 8.67903,-17.55945 19.38516,-17.55945c7.26886,0 8.40384,5.48777 11.72202,10.84986c1.56908,2.5356 7.66316,3.59603 7.66316,6.70958z" fill="#ffffff" stroke-linecap="butt"></path><path d="M253.12393,172.05036c2.0792,5.90775 -1.65066,0.94023 -14.55211,9.00073c-6.1769,3.85918 -8.67778,9.56257 -11.70821,8.01155c-1.18942,-0.60875 -2.73645,-5.74482 -1.21151,-11.17653c1.38442,-4.93121 5.59398,-10.15784 9.36354,-11.48452c7.92173,-2.78802 16.02909,-0.25898 18.1083,5.64875z" fill="#f38dff" stroke-linecap="butt"></path><path d="M227.31511,179.60457l-5.80967,-15.00177l13.18623,8.59396z" fill="#f38dff" stroke-linecap="butt"></path><path d="M242.1682,167.68126l8.73655,-13.09219l0.56733,16.07742z" data-paper-data="{&quot;index&quot;:null}" fill="#f38dff" stroke-linecap="butt"></path><path d="M242.66688,178.26657l2.0994,11.86979" fill="none" stroke-linecap="round"></path><path d="M252.2573,189.53029l-2.11902,-12.59572" fill="none" stroke-linecap="round"></path><path d="M255.0898,190.50111c0,0 1.68153,4.6772 -3.22778,4.42335c-1.27005,-0.06567 -3.66728,-4.25973 -3.66728,-4.25973c0,0 -1.88494,4.26845 -3.30758,4.13549c-5.70771,-0.53343 -6.38504,-4.58665 -6.38504,-4.58665" fill="none" stroke-linecap="round"></path></g></g></svg>