<svg version="1.1" xmlns="http://www.w3.org/2000/svg" xmlns:xlink="http://www.w3.org/1999/xlink" width="736" height="448.52083" viewBox="0,0,736,448.52083"><g transform="translate(53.42367,58.02083)"><g stroke-miterlimit="10"><path d="M-45.92367,273.97917c-4.14213,0 -7.5,-2.3923 -7.5,-5.34335v-321.3133c0,-2.95105 3.35787,-5.34335 7.5,-5.34335h721c4.14214,0 7.5,2.3923 7.5,5.34335v321.3133c0,2.95105 -3.35786,5.34335 -7.5,5.34335z" fill-opacity="0.50196" fill="#000000" stroke="none" stroke-width="0" stroke-linecap="butt"/><path d="M53.5,72v-87h554v87z" fill="#adadad" stroke="#000000" stroke-width="1" stroke-linecap="butt"/><path d="M124.48889,262.33333v-168h387.02222v168z" fill="#adadad" stroke="#000000" stroke-width="1" stroke-linecap="butt"/><text transform="translate(216.56645,53.01875) scale(0.86836,0.86836)" font-size="40" xml:space="preserve" fill="#000000" stroke="none" stroke-width="1" stroke-linecap="butt" font-family="Sans Serif" font-weight="normal" text-anchor="start"><tspan x="0" dy="0">Zombie Guide</tspan></text><path d="M186.5,390v-116h79v116z" fill="#adadad" stroke="#000000" stroke-width="1" stroke-linecap="butt"/><path d="M369.5,390v-116h93v116z" fill="#adadad" stroke="#000000" stroke-width="1" stroke-linecap="butt"/><path d="M317.59977,92.57554v169" fill="none" stroke="#000000" stroke-width="2" stroke-linecap="round"/><path d="M134.58805,254.28256v-124.5h85.56371v124.5z" fill="#adadad" stroke="#000000" stroke-width="1" stroke-linecap="butt"/><path d="M330.08804,254.28256v-124.5h85.56371v124.5z" fill="#adadad" stroke="#000000" stroke-width="1" stroke-linecap="butt"/><text transform="translate(134.58805,118.78256) scale(0.5,0.5)" font-size="40" xml:space="preserve" fill="#000000" stroke="none" stroke-width="1" stroke-linecap="butt" font-family="Sans Serif" font-weight="normal" text-anchor="start"><tspan x="0" dy="0">GYM Zombie</tspan></text><text transform="translate(329.58804,119.28256) scale(0.5,0.5)" font-size="40" xml:space="preserve" fill="#000000" stroke="none" stroke-width="1" stroke-linecap="butt" font-family="Sans Serif" font-weight="normal" text-anchor="start"><tspan x="0" dy="0">Santa Zombie</tspan></text><text transform="translate(226.08805,144.53256) scale(0.2758,0.31943)" font-size="40" xml:space="preserve" fill="#000000" stroke="none" stroke-width="1" stroke-linecap="butt" font-family="Sans Serif" font-weight="normal" text-anchor="start"><tspan x="0" dy="0">HP: 30</tspan><tspan x="0" dy="46.150000000000006px">Speed: Slow</tspan><tspan x="0" dy="46.150000000000006px">Damage: High</tspan><tspan x="0" dy="46.150000000000006px">Special: None</tspan></text><text transform="translate(421.08805,143.03256) scale(0.24719,0.31943)" font-size="40" xml:space="preserve" fill="#000000" stroke="none" stroke-width="1" stroke-linecap="butt" font-family="Sans Serif" font-weight="normal" text-anchor="start"><tspan x="0" dy="0">HP: 18</tspan><tspan x="0" dy="46.150000000000006px">Speed: Avg</tspan><tspan x="0" dy="46.150000000000006px">Damage: Avg</tspan><tspan x="0" dy="46.150000000000006px">Special: Summons</tspan><tspan x="0" dy="46.150000000000006px">a random zombie</tspan><tspan x="0" dy="46.150000000000006px">when dies</tspan></text><g stroke-linecap="butt"><text transform="translate(146.61591,196.68923) scale(0.50486,0.71989)" font-size="40" xml:space="preserve" fill="#000000" stroke="none" stroke-width="1" font-family="Sans Serif" font-weight="normal" text-anchor="start"><tspan x="0" dy="0">💪</tspan></text><path d="M164.4495,241.4841v-98.23355h19.90279v98.23355z" fill="#0b8100" stroke="#000000" stroke-width="0.5"/><path d="M164.47799,241.61402v-56.89999h20.08508v56.89999z" fill="#ff0000" stroke="#000000" stroke-width="0.5"/><path d="M164.47799,210.82566v-26.11164h9.21553z" fill="#0b8100" stroke="#000000" stroke-width="0.5"/><path d="M173.09376,161.58227c0,6.02318 -1.54166,10.90595 -3.44339,10.90595c-1.90173,0 -3.44339,-4.88275 -3.44339,-10.90595c0,-6.02318 1.54166,-10.90595 3.44339,-10.90595c1.90173,0 3.44339,4.88275 3.44339,10.90595z" fill="#000000" stroke="#000000" stroke-width="0.5"/><text transform="translate(212.55721,201.33645) rotate(-180) scale(0.90801,-0.97519) skewX(0)" font-size="40" xml:space="preserve" fill="#000000" stroke="none" stroke-width="1" font-family="Sans Serif" font-weight="normal" text-anchor="start"><tspan x="0" dy="0">💪</tspan></text></g><g stroke="#000000" stroke-width="0.5" stroke-linecap="butt"><path d="M363.6341,191.89025c-3.96926,0.19149 -7.01663,0.52233 -7.13066,-1.8414c-0.11403,-2.36372 2.74845,-6.5269 6.7177,-6.71839c3.96926,-0.19149 7.27942,1.56946 7.39345,3.93318c0.11403,2.36372 -3.01123,4.43512 -6.98051,4.62661z" fill="#f6ff30"/><path d="M343.98103,186.38341c0.11403,-2.36372 3.42419,-4.12465 7.39345,-3.93318c3.96926,0.19149 6.83176,4.35467 6.71773,6.71839c-0.11403,2.36372 -3.16141,2.03289 -7.13066,1.8414c-3.96926,-0.19149 -7.09454,-2.26288 -6.98051,-4.62661z" fill="#f6ff30"/><path d="M371.74803,243.49996v-86.23771h17.47235v86.23771z" fill="#0b8100"/><path d="M371.77304,243.61402v-49.95162h17.63238v49.95162z" fill="#ff0000"/><path d="M379.33669,173.35539c0,5.28766 -1.3534,9.57417 -3.0229,9.57417c-1.6695,0 -3.0229,-4.28649 -3.0229,-9.57417c0,-5.28766 1.3534,-9.57417 3.0229,-9.57417c1.6695,0 3.0229,4.28649 3.0229,9.57417z" fill="#000000"/><path d="M371.86393,184.22147h17.54252v9.39778l-6.05466,3.64635c0,0 0.44592,4.24472 -0.33329,4.89156c-1.45527,1.20809 -4.41331,0.42864 -4.41331,0.42864c0,0 0.73851,4.61155 -0.40574,5.72919c-2.42986,2.37335 -6.7532,2.84675 -6.7532,2.84675z" fill="#ffffff"/><path d="M370.53949,160.06844c0,0 -2.76377,-16.72735 1.56344,-21.87863c8.21853,-9.78364 23.17558,-0.59669 23.17558,-0.59669c0,0 -6.33857,3.79732 -7.75121,8.77468c-1.07106,3.77379 2.09196,13.70066 2.09196,13.70066c0,0 -1.95349,0 -3.55724,0c-3.35015,0 -15.52253,0 -15.52253,0z" fill="#ff0000"/><path d="M369.73102,162.17045v-5.01249h21.02009v5.01249z" fill="#ffffff"/><path d="M399.15916,138.48242c0,2.00927 -1.59264,3.6381 -3.55724,3.6381c-1.96462,0 -3.55724,-1.62882 -3.55724,-3.6381c0,-2.00927 1.59264,-3.6381 3.55724,-3.6381c1.96462,0 3.55724,1.62882 3.55724,3.6381z" fill="#ffffff"/><path d="M344.18353,215.85254v-25.06242h27.16444v25.06242z" fill="#31ffe6"/><path d="M355.17865,215.69085v-24.90073h4.20402v24.90073z" fill="#f6ff30"/><path d="M344.50691,205.1808v-4.04233h26.35596v4.04233z" fill="#f6ff30"/></g></g></g></svg>