<svg version="1.1" xmlns="http://www.w3.org/2000/svg" xmlns:xlink="http://www.w3.org/1999/xlink" width="73.61786" height="49.79167" viewBox="0,0,73.61786,49.79167"><g transform="translate(-204.19292,-155.10525)"><g data-paper-data="{&quot;isPaintingLayer&quot;:true}" fill-rule="nonzero" stroke="#000000" stroke-width="1.28786" stroke-linejoin="miter" stroke-miterlimit="10" stroke-dasharray="" stroke-dashoffset="0" style="mix-blend-mode: normal"><path d="M228.68559,204.16352c-5.88564,0 -10.6569,-4.85516 -10.6569,-10.84431c0,-5.98915 4.77125,-10.8443 10.6569,-10.8443c5.88564,0 10.6569,4.85515 10.6569,10.8443c0,5.98915 -4.77125,10.84431 -10.6569,10.84431z" fill="#3d4e00" stroke-linecap="butt"></path><path d="M233.09799,156.45687c7.3915,0 10.67819,-1.00996 17.49008,-0.43959c6.81189,0.57036 14.68241,7.6286 14.68241,13.75414c0,13.40667 -1.25915,26.6166 -19.36759,27.21472c-0.08492,0.0028 -5.2838,-7.56335 -5.71493,-7.75472c-2.19905,-0.97612 -8.58135,5.5094 -9.01933,5.5094c-0.30912,0 4.11644,-10.05676 3.82715,-10.05884c-17.33623,-0.125 -4.21919,5.96155 -3.50294,-13.6937c0.55594,-15.25617 0.45498,-2.38297 -1.15142,-2.69526c-1.23668,-0.24043 -5.43578,-11.83612 2.75658,-11.83612z" data-paper-data="{&quot;index&quot;:null}" fill="#c6ff00" stroke-linecap="butt"></path><path d="M243.47071,183.68145v-15.89494l31.69244,8.45097z" fill="#ff0000" stroke-linecap="butt"></path><path d="M245.83711,177.20411c0.82399,16.37268 21.67843,19.46095 0.36686,19.46095c-21.31157,0 -38.588,-9.15933 -38.588,-20.45794c0,-11.29861 17.27644,-20.45794 38.58801,-20.45794c21.31157,0 -1.48022,-0.6676 -0.36686,21.45493z" fill="#c6ff00" stroke-linecap="butt"></path><path d="M224.67659,165.10219l15.32728,7.30975l-11.08558,4.04593l0.58664,-8.87386l10.25013,4.65678" fill="#ffffff" stroke-linecap="round"></path><path d="M215.49375,204.25298c-5.88564,0 -10.6569,-4.85516 -10.6569,-10.84431c0,-5.98915 4.77126,-10.84431 10.6569,-10.84431c5.88564,0 10.6569,4.85516 10.6569,10.84431c0,5.98915 -4.77126,10.84431 -10.6569,10.84431z" fill="#749400" stroke-linecap="butt"></path></g></g></svg>