<svg version="1.1" xmlns="http://www.w3.org/2000/svg" xmlns:xlink="http://www.w3.org/1999/xlink" width="804" height="537" viewBox="0,0,804,537"><g transform="translate(88.66667,84.83334)"><g stroke-miterlimit="10"><path d="M-88.66666,452.16667v-537h804v537z" fill-opacity="0.42745" fill="#000000" stroke="none" stroke-width="0" stroke-linecap="butt"/><path d="M484.34548,216.10662c2.4924,-9.12117 17.2534,-13.03393 32.96968,-8.73941c15.71626,4.29453 26.43635,15.17009 23.94395,24.29123c-2.4924,9.12117 -17.2534,13.03393 -32.96968,8.73938c-15.71626,-4.29453 -26.43635,-15.17006 -23.94395,-24.29123z" fill="#00ff07" stroke="#000000" stroke-width="2.5" stroke-linecap="butt"/><path d="M447.26334,241.64587c-0.2818,0 -0.51026,-0.82069 -0.51026,-1.83304c0,-1.01238 0.22846,-1.83304 0.51026,-1.83304c0.28178,0 0.51024,0.82069 0.51024,1.83304c0,1.01238 -0.22844,1.83304 -0.51024,1.83304z" fill="#ba0000" stroke="#000000" stroke-width="1.28786" stroke-linecap="butt"/><path d="M451.03057,214.40447c10.95917,-9.18329 25.04397,-10.42152 31.45923,-2.76567c6.41527,7.65588 2.73169,21.30668 -8.22748,30.49002c-10.95917,9.18329 -25.04397,10.42155 -31.45923,2.76569c-6.41527,-7.65585 -2.73169,-21.30668 8.22748,-30.49002z" fill="#00ff07" stroke="#000000" stroke-width="2.5" stroke-linecap="butt"/><path d="M452.27132,188.31811c0,-5.99781 11.73941,-8.04059 14.76203,-12.92508c6.39201,-10.32933 8.5784,-20.90078 22.58086,-20.90078c20.62389,0 37.34286,15.14436 37.34286,33.82588c0,18.68154 -16.71897,33.82588 -37.34286,33.82588c-20.62389,0 -37.34286,-15.14436 -37.34286,-33.82588z" fill="#ffffff" stroke="#000000" stroke-width="2.5" stroke-linecap="butt"/><path d="M506.1266,157.09179c7.26154,2.55566 15.37067,12.62405 18.03757,22.12335c2.93759,10.46343 -0.04255,20.35737 -2.33381,21.53004c-5.83772,2.98782 -10.65531,-7.99898 -22.55427,-15.43316c-24.85289,-15.52745 -32.03795,-5.95821 -28.03265,-17.33868c4.00532,-11.38044 19.62304,-16.25229 34.88316,-10.88155z" fill="#c06fc9" stroke="#000000" stroke-width="2.5" stroke-linecap="butt"/><path d="M506.75065,170.1817l25.40147,-16.55508l-11.19154,28.89886z" fill="#c06fc9" stroke="#000000" stroke-width="2.5" stroke-linecap="butt"/><path d="M474.42548,165.3075l1.09288,-30.97095l16.82977,25.22032z" fill="#c06fc9" stroke="#000000" stroke-width="2.5" stroke-linecap="butt"/><path d="M487.34329,202.81352l4.04421,-22.86552" fill="none" stroke="#000000" stroke-width="2.5" stroke-linecap="round"/><path d="M480.60134,200.23529l4.47755,-21.90858l27.24304,7.29936l-5.95323,21.49289z" fill="#00fff9" stroke="#000000" stroke-width="2.5" stroke-linecap="butt"/><path d="M506.95572,207.62889l6.52568,-22.17013l13.36841,3.16517c0,0 -1.1243,8.27321 -2.69399,11.96995c-1.64151,3.86585 -6.94928,10.74052 -6.94928,10.74052z" fill="#adadad" stroke="#000000" stroke-width="2.5" stroke-linecap="butt"/><path d="M182.16857,348.9183v-125.38367h391.67136v125.38367z" fill="#ffdc5f" stroke="#000000" stroke-width="2.5" stroke-linecap="butt"/><text transform="translate(473.50133,251.25642) scale(0.5,0.5)" font-size="40" xml:space="preserve" fill="#000000" stroke="none" stroke-width="1" stroke-linecap="butt" font-family="Sans Serif" font-weight="normal" text-anchor="start"><tspan x="0" dy="0">???</tspan></text><text transform="translate(198.95635,301.07586) scale(0.76131,0.77842)" font-size="40" xml:space="preserve" fill="#000000" stroke="none" stroke-width="1" stroke-linecap="butt" font-family="Sans Serif" font-weight="normal" text-anchor="start"><tspan x="0" dy="0">O-Oh... It worked?</tspan></text><path d="M514.26424,336.72729v-31.49591l33.54755,17.69586z" fill="#bdae78" stroke="#000000" stroke-width="2.5" stroke-linecap="butt"/><path d="M463.25586,187.52148l12,-5.5" fill="none" stroke="#000000" stroke-width="2.5" stroke-linecap="round"/><path d="M473.00586,186.77148l-2,14.5" fill="none" stroke="#000000" stroke-width="2.5" stroke-linecap="round"/><path d="M499.25586,195.52148l-9,-11.75" fill="none" stroke="#00c8c8" stroke-width="2.5" stroke-linecap="round"/><path d="M490.25586,189.77148v9.75" fill="none" stroke="#00c8c8" stroke-width="2.5" stroke-linecap="round"/><path d="M481.00586,213.77148l21,-2.5" fill="none" stroke="#000000" stroke-width="2.5" stroke-linecap="round"/><path d="M480.43666,232.67881l4.73496,-16.20961c0,0 12.63781,8.92394 22.53919,-1.25209c15.69162,-16.12685 11.73027,-7.76517 16.21182,-15.22797c5.40087,-8.99368 3.03976,-9.10715 3.03976,-9.10715c0,0 4.39084,8.23382 3.10714,15.31089c-1.4101,7.7739 -8.73744,14.63414 -14.39413,18.98616c-9.6194,7.40074 -35.23877,7.49979 -35.23877,7.49979z" fill="#7a7a7a" stroke="#000000" stroke-width="2.5" stroke-linecap="butt"/><path d="M470.26494,209.5878c13.06645,2.60777 23.20669,9.78878 22.64888,16.03919c-0.55783,6.25041 -11.60245,9.20336 -24.66889,6.59559c-4.79184,-0.95634 -14.07312,-3.30615 -15.74048,-4.76323c-2.87924,-2.51611 3.19637,-4.85621 4.56328,-8.58764c2.54401,-6.94472 -4.74418,-10.63495 -1.41003,-12.02165c1.88775,-0.78512 10.02467,1.82315 14.60726,2.73772z" fill="#a3a3a3" stroke="#000000" stroke-width="2.5" stroke-linecap="butt"/><path d="M456.0757,206.20655c2.49803,0.55801 3.45296,5.80087 2.13289,11.71026c-1.32006,5.9094 -4.41526,10.24753 -6.91331,9.68949c-2.49803,-0.55801 -3.45296,-5.80087 -2.13289,-11.71026c1.32006,-5.9094 4.41524,-10.24753 6.91329,-9.68949z" fill="#606060" stroke="#000000" stroke-width="2.5" stroke-linecap="butt"/><path d="M454.38146,213.2923c1.30333,0.34679 1.91843,2.28702 1.37386,4.33364c-0.54454,2.04662 -2.04256,3.42459 -3.34589,3.07781c-1.30333,-0.34679 -1.91843,-2.28702 -1.37386,-4.33364c0.54454,-2.04662 2.04256,-3.42459 3.34589,-3.07781z" fill="#00fff9" stroke="#000000" stroke-width="2.5" stroke-linecap="butt"/><path d="M463.87122,230.88667l-5.01736,-1.7065l4.6178,-13.57719l5.01737,1.70647z" fill="#00fff9" stroke="#000000" stroke-width="2.5" stroke-linecap="butt"/><path d="M474.29287,233.0431l-5.01735,-1.70648l3.74649,-10.39331l5.21491,1.50427z" fill="#00fff9" stroke="#000000" stroke-width="2.5" stroke-linecap="butt"/><path d="M485.41684,232.37439l-5.14872,-1.11494l2.77438,-6.68629l3.82044,1.36177z" fill="#00fff9" stroke="#000000" stroke-width="2.5" stroke-linecap="butt"/></g></g></svg>