<svg version="1.1" xmlns="http://www.w3.org/2000/svg" xmlns:xlink="http://www.w3.org/1999/xlink" width="43.13698" height="43.13698" viewBox="0,0,43.13698,43.13698"><g transform="translate(-209.92176,-144.4124)"><g stroke-miterlimit="10"><path d="M210.42176,165.98089c0,-11.63581 9.43268,-21.06849 21.06849,-21.06849c11.63581,0 21.06849,9.43268 21.06849,21.06849c0,11.63581 -9.43268,21.06849 -21.06849,21.06849c-11.63581,0 -21.06849,-9.43268 -21.06849,-21.06849z" fill="#ff5600" stroke="#000000"/><path d="M214.60645,166.33362c0,-9.15925 7.42503,-16.58428 16.58428,-16.58428c9.15925,0 16.58429,7.42503 16.58429,16.58428c0,9.15925 -7.42504,16.58429 -16.58429,16.58429c-9.15925,0 -16.58428,-7.42504 -16.58428,-16.58429z" fill="#ff9f00" stroke="#000000"/><text transform="translate(216.69955,164.83573) scale(0.17987,0.17987)" font-size="40" xml:space="preserve" fill="#000000" stroke="none" font-family="Sans Serif" font-weight="normal" text-anchor="start"><tspan x="0" dy="0">Certified</tspan><tspan x="0" dy="46.150000000000006px">Pro :)</tspan></text></g></g></svg>