<svg version="1.1" xmlns="http://www.w3.org/2000/svg" xmlns:xlink="http://www.w3.org/1999/xlink" width="68.60443" height="54.81917" viewBox="0,0,68.60443,54.81917"><g transform="translate(-321.30171,-153.541)"><g stroke="#000000" stroke-width="1.28786" stroke-miterlimit="10"><path d="M362.2993,196.17904c1.91143,1.4822 1.93898,4.64648 0.06153,7.06763c-1.87745,2.42115 -4.94894,3.18232 -6.86038,1.70012c-1.91143,-1.4822 -1.93898,-4.64648 -0.06153,-7.06763c1.87745,-2.42115 4.94894,-3.18232 6.86038,-1.70012z" fill="#2fb200" stroke-linecap="butt"/><path d="M357.79344,200.45826c0,0 4.5864,-4.85651 6.40935,-7.86064c1.67128,-2.75417 4.11292,-9.47949 4.11292,-9.47949l4.59439,2.78795c0,0 -2.14869,5.88789 -3.87214,8.72804c-0.85303,1.40574 -3.98196,5.38827 -6.28765,6.62856c-2.51098,1.35073 -4.1755,0.76728 -4.1755,0.76728z" fill="#42ff00" stroke-linecap="butt"/><path d="M355.25934,201.71256c0,2.19202 -2.36727,3.969 -5.28744,3.969c-2.92017,0 -5.28744,-1.77698 -5.28744,-3.969c0,-2.19202 2.36727,-3.969 5.28744,-3.969c2.92017,0 5.28744,1.77697 5.28744,3.969z" fill="#3ce200" stroke-linecap="butt"/><path d="M370.16818,201.94066c0,2.26761 -2.5613,4.10586 -5.72083,4.10586c-3.15953,0 -5.72083,-1.83825 -5.72083,-4.10586c0,-2.26761 2.5613,-4.10586 5.72083,-4.10586c3.15953,0 5.72083,1.83826 5.72083,4.10586z" fill="#3ce200" stroke-linecap="butt"/><path d="M356.01217,203.28641c0,0 -6.32389,-11.38318 -7.9616,-16.79426c-1.47298,-4.8668 -1.42295,-14.21281 -1.42295,-14.21281l4.58508,0.86105c0,0 0.25899,8.85023 1.86535,12.94564c1.88238,4.79914 6.30568,14.42091 6.30568,14.42091z" fill="#42ff00" stroke-linecap="butt"/><path d="M346.2515,196.30842l4.01436,-0.74717c0,0 1.29883,1.63439 2.42032,2.26166c1.3179,0.73713 4.82003,2.92513 4.82003,2.92513l-2.28078,3.34755c0,0 -4.34712,-1.52862 -5.8365,-2.82103c-1.50182,-1.30322 -3.13744,-4.96614 -3.13744,-4.96614z" fill="#42ff00" stroke-linecap="butt"/><path d="M363.62637,180.49729c0,0 -2.65913,-0.18949 -4.05421,0.59182c-1.39509,0.78131 -2.50303,3.08053 -2.50303,3.08053c0,0 3.26643,-1.21863 4.4051,-1.5095c0.67674,-0.17288 1.79519,-0.07438 1.79519,-0.07438z" fill="#279400" stroke-linecap="round"/><path d="M363.49553,175.85673c0,0 -2.28339,-1.74835 -4.00388,-1.87208c-1.72049,-0.12374 -4.08282,1.29049 -4.08282,1.29049c0,0 3.66598,0.83996 4.86447,1.25345c0.71229,0.24574 1.66157,0.99804 1.66157,0.99804z" fill="#279400" stroke-linecap="round"/><path d="M362.6203,180.26628c-0.49506,-5.04618 3.19436,-9.53825 8.24054,-10.0333c5.04618,-0.49506 9.53825,3.19436 10.0333,8.24054c0.49506,5.04618 -3.19436,9.53824 -8.24054,10.0333c-5.04618,0.49506 -9.53825,-3.19436 -10.0333,-8.24054z" fill="#42ff00" stroke-linecap="butt"/><path d="M389.26221,180.52813c-0.93714,4.25132 -4.35976,5.66175 -6.76051,5.13254c-2.40074,-0.52921 -3.79342,-2.70711 -2.85628,-6.95843c0.93714,-4.25132 3.44034,-7.43515 5.84108,-6.90594c2.40074,0.52921 4.71285,4.48051 3.77571,8.73183z" fill="#42ff00" stroke-linecap="butt"/><path d="M388.08077,180.15241c-0.60317,2.73626 -2.80606,3.64406 -4.35125,3.30344c-1.54518,-0.34061 -2.44154,-1.74237 -1.83838,-4.47863c0.60317,-2.73626 2.21429,-4.78547 3.75947,-4.44486c1.54518,0.34061 3.03332,2.88379 2.43015,5.62005z" fill="#000000" stroke-linecap="butt"/><path d="M362.7431,177.47839c0,0 -2.60787,-0.55302 -4.09708,0.02923c-1.4892,0.58224 -2.90252,2.70744 -2.90252,2.70744c0,0 3.40287,-0.75832 4.57071,-0.88999c0.69407,-0.07827 1.78839,0.17295 1.78839,0.17295z" fill="#279400" stroke-linecap="round"/><path d="M336.84207,161.28581c0,0 -2.79151,-1.87018 -4.80679,-1.88753c-2.01528,-0.01735 -4.66552,1.80596 -4.66552,1.80596c0,0 4.33664,0.70898 5.76463,1.1027c0.8487,0.234 2.01109,1.04117 2.01109,1.04117z" fill="#279400" stroke-linecap="round"/><path d="M336.14683,166.49209c-0.94954,-5.84752 3.02107,-11.35763 8.86859,-12.30716c5.84752,-0.94954 11.35763,3.02107 12.30716,8.86859c0.94954,5.84752 -3.02107,11.35763 -8.86859,12.30716c-5.84752,0.94954 -11.35763,-3.02107 -12.30716,-8.86859z" fill="#42ff00" stroke-linecap="butt"/><path d="M367.23166,164.83192c-0.7791,5.02634 -4.66596,6.92346 -7.50436,6.48349c-2.8384,-0.43997 -4.62299,-2.87674 -3.84389,-7.90308c0.7791,-5.02634 3.46304,-8.92349 6.30144,-8.48353c2.8384,0.43997 5.82591,4.87677 5.04681,9.90311z" fill="#42ff00" stroke-linecap="butt"/><path d="M365.82634,164.48098c-0.50145,3.23508 -3.00314,4.45613 -4.83001,4.17295c-1.82687,-0.28317 -2.97548,-1.85155 -2.47403,-5.08663c0.50145,-3.23508 2.2289,-5.7434 4.05577,-5.46023c1.82687,0.28317 3.74972,3.13883 3.24827,6.37391z" fill="#000000" stroke-linecap="butt"/><path d="M336.08434,163.23223c0,0 -3.08168,-0.45244 -4.77519,0.33634c-1.69351,0.78878 -3.18471,3.37111 -3.18471,3.37111c0,0 3.91194,-1.13527 5.26397,-1.37497c0.80355,-0.14246 2.09809,0.06973 2.09809,0.06973z" fill="#279400" stroke-linecap="round"/><path d="M331.01533,185.06345c0.89698,-6.09785 6.56742,-10.31399 12.66528,-9.41701c6.09785,0.89698 10.31399,6.56742 9.41701,12.66527c-0.89698,6.09785 -6.56742,10.31399 -12.66528,9.41701c-6.09785,-0.89698 -10.31399,-6.56742 -9.41701,-12.66527z" fill="#42ff00" stroke-linecap="butt"/><path d="M351.40664,187.00713l-4.6,-2.6l3.1,-3.6" fill="none" stroke-linecap="round"/><path d="M360.61574,193.06625c-2.35315,4.73989 -6.80447,5.39918 -9.48111,4.07034c-2.67664,-1.32884 -3.6803,-4.30665 -1.32715,-9.04655c2.35315,-4.73989 6.24036,-7.76096 8.917,-6.43212c2.67664,1.32884 4.24441,6.66843 1.89126,11.40833z" fill="#42ff00" stroke-linecap="butt"/><path d="M359.08236,192.40132c-1.51455,3.05072 -4.37954,3.47507 -6.1023,2.61979c-1.72276,-0.85528 -2.36873,-2.77188 -0.85419,-5.8226c1.51455,-3.05072 4.01647,-4.99518 5.73923,-4.1399c1.72276,0.85528 2.73181,4.29199 1.21726,7.34271z" fill="#000000" stroke-linecap="butt"/><path d="M331.97838,181.81083c0,0 -2.91399,-1.4177 -4.84156,-1.16794c-1.92757,0.24976 -4.21844,2.34191 -4.21844,2.34191c0,0 4.23664,0.10416 5.65289,0.29157c0.84172,0.11138 2.05886,0.72888 2.05886,0.72888z" fill="#279400" stroke-linecap="round"/><path d="M363.75391,204.07571c0,2.01061 -2.94938,3.64053 -6.58763,3.64053c-3.63824,0 -6.58763,-1.62992 -6.58763,-3.64053c0,-2.01061 2.94938,-3.64052 6.58763,-3.64052c3.63824,0 6.58763,1.62991 6.58763,3.64052z" fill="#42ff00" stroke-linecap="butt"/><path d="M339.00664,182.10712l5,3.2l-3.1,3.6" fill="none" stroke-linecap="round"/><path d="M341.24114,160.77379l5.91549,2.1831l-2.46479,2.8169" fill="none" stroke-linecap="round"/><path d="M355.73997,163.77379l-5.91549,-2.1831l2.46479,-2.8169" fill="none" stroke-linecap="round"/><path d="M364.90664,176.52379l5.58333,1.08333l-2.91667,3.41667" fill="none" stroke-linecap="round"/><path d="M377.8233,174.94046l-3.75,2.25l3.33333,1.83333" fill="none" stroke-linecap="round"/></g></g></svg>