<svg version="1.1" xmlns="http://www.w3.org/2000/svg" xmlns:xlink="http://www.w3.org/1999/xlink" width="38.26638" height="38.26686" viewBox="0,0,38.26638,38.26686"><g transform="translate(-220.86701,-160.86657)"><g data-paper-data="{&quot;isPaintingLayer&quot;:true}" fill-rule="nonzero" stroke-linecap="butt" stroke-linejoin="miter" stroke-miterlimit="10" stroke-dasharray="" stroke-dashoffset="0" style="mix-blend-mode: normal"><g><path d="M243.37157,188.02297l-3.74319,9.66209l-3.36596,-9.66209z" data-paper-data="{&quot;index&quot;:null}" fill="#ffff00" stroke="#ffff00" stroke-width="1"></path><path d="M236.36372,171.97704l3.36596,-9.66209l3.74319,9.66209z" fill="#ffff00" stroke="#ffff00" stroke-width="1"></path><path d="M230.46292,180.29802c0,-5.24877 4.25496,-9.50374 9.50374,-9.50374c5.24877,0 9.50373,4.25496 9.50373,9.50374c0,5.24877 -4.25496,9.50373 -9.50373,9.50373c-5.24877,0 -9.50374,-4.25496 -9.50374,-9.50373z" fill="#ffff00" stroke="none" stroke-width="0"></path><path d="M247.99295,176.72219l9.69191,3.66523l-9.63466,3.44369z" data-paper-data="{&quot;index&quot;:null}" fill="#ffff00" stroke="#ffff00" stroke-width="1"></path><path d="M232.00403,183.85909l-9.6889,-3.28802l9.63161,-3.82089z" fill="#ffff00" stroke="#ffff00" stroke-width="1"></path><path d="M248.43809,183.27618l4.2947,9.42988l-9.26313,-4.34514z" data-paper-data="{&quot;index&quot;:null}" fill="#ffff00" stroke="#ffff00" stroke-width="1"></path><path d="M232.06375,177.07437l-4.55832,-9.16009l9.52675,4.0753z" fill="#ffff00" stroke="#ffff00" stroke-width="1"></path><path d="M243.58506,172.07292l9.39498,-4.37051l-4.27039,9.29782z" data-paper-data="{&quot;index&quot;:null}" fill="#ffff00" stroke="#ffff00" stroke-width="1"></path><path d="M237.51536,188.49669l-9.12307,4.63198l3.99844,-9.55927z" fill="#ffff00" stroke="#ffff00" stroke-width="1"></path><path d="M233.30688,180.5809c0,-3.81832 3.09537,-6.91372 6.91369,-6.91372c3.81832,0 6.91372,3.09537 6.91372,6.91372c0,3.81832 -3.09537,6.91368 -6.91372,6.91368c-3.81832,0 -6.91369,-3.09536 -6.91369,-6.91368z" fill="#fffff7" stroke="none" stroke-width="0"></path></g></g></g></svg>