<svg version="1.1" xmlns="http://www.w3.org/2000/svg" xmlns:xlink="http://www.w3.org/1999/xlink" width="736" height="448.52083" viewBox="0,0,736,448.52083"><g transform="translate(53.42367,58.02083)"><g stroke-miterlimit="10"><path d="M-45.92367,273.97917c-4.14213,0 -7.5,-2.3923 -7.5,-5.34335v-321.3133c0,-2.95105 3.35787,-5.34335 7.5,-5.34335h721c4.14214,0 7.5,2.3923 7.5,5.34335v321.3133c0,2.95105 -3.35786,5.34335 -7.5,5.34335z" fill-opacity="0.50196" fill="#000000" stroke="none" stroke-width="0" stroke-linecap="butt"/><path d="M53.5,72v-87h554v87z" fill="#adadad" stroke="#000000" stroke-width="1" stroke-linecap="butt"/><path d="M124.48889,262.33333v-168h387.02222v168z" fill="#adadad" stroke="#000000" stroke-width="1" stroke-linecap="butt"/><text transform="translate(216.56645,53.01875) scale(0.86836,0.86836)" font-size="40" xml:space="preserve" fill="#000000" stroke="none" stroke-width="1" stroke-linecap="butt" font-family="Sans Serif" font-weight="normal" text-anchor="start"><tspan x="0" dy="0">Zombie Guide</tspan></text><path d="M186.5,390v-116h79v116z" fill="#adadad" stroke="#000000" stroke-width="1" stroke-linecap="butt"/><path d="M369.5,390v-116h93v116z" fill="#adadad" stroke="#000000" stroke-width="1" stroke-linecap="butt"/><path d="M317.59977,92.57554v169" fill="none" stroke="#000000" stroke-width="2" stroke-linecap="round"/><path d="M134.58805,254.28256v-124.5h85.56371v124.5z" fill="#adadad" stroke="#000000" stroke-width="1" stroke-linecap="butt"/><path d="M330.08804,253.78256v-124.5h85.56371v124.5z" fill="#adadad" stroke="#000000" stroke-width="1" stroke-linecap="butt"/><text transform="translate(134.58805,118.78256) scale(0.5,0.5)" font-size="40" xml:space="preserve" fill="#000000" stroke="none" stroke-width="1" stroke-linecap="butt" font-family="Sans Serif" font-weight="normal" text-anchor="start"><tspan x="0" dy="0">Basic Zombie</tspan></text><text transform="translate(329.58804,119.28256) scale(0.5,0.5)" font-size="40" xml:space="preserve" fill="#000000" stroke="none" stroke-width="1" stroke-linecap="butt" font-family="Sans Serif" font-weight="normal" text-anchor="start"><tspan x="0" dy="0">Conehead Zombie</tspan></text><text transform="translate(226.08805,144.53256) scale(0.31943,0.31943)" font-size="40" xml:space="preserve" fill="#000000" stroke="none" stroke-width="1" stroke-linecap="butt" font-family="Sans Serif" font-weight="normal" text-anchor="start"><tspan x="0" dy="0">HP: 9</tspan><tspan x="0" dy="46.150000000000006px">Speed: Avg</tspan><tspan x="0" dy="46.150000000000006px">Damage: Avg</tspan><tspan x="0" dy="46.150000000000006px">Special: None</tspan></text><text transform="translate(421.08805,143.03256) scale(0.31943,0.31943)" font-size="40" xml:space="preserve" fill="#000000" stroke="none" stroke-width="1" stroke-linecap="butt" font-family="Sans Serif" font-weight="normal" text-anchor="start"><tspan x="0" dy="0">HP: 18</tspan><tspan x="0" dy="46.150000000000006px">Speed: Avg</tspan><tspan x="0" dy="46.150000000000006px">Damage: Avg</tspan><tspan x="0" dy="46.150000000000006px">Special: None</tspan></text><g stroke="#000000" stroke-width="0.5" stroke-linecap="butt"><path d="M165.97372,245.35647v-102.43031h20.75308v102.43031z" fill="#0b8100"/><path d="M166.00343,245.49194v-59.33089h20.94316v59.33089z" fill="#740000"/><path d="M166.00343,213.38823v-27.22719h9.60923z" fill="#ffffff"/><path d="M165.85594,203.79835v-17.88055h6.31054z" fill="#ff0000"/><path d="M174.98728,162.04106c0,6.2805 -1.60753,11.37188 -3.5905,11.37188c-1.98298,0 -3.5905,-5.09135 -3.5905,-11.37188c0,-6.2805 1.60753,-11.37188 3.5905,-11.37188c1.98298,0 3.5905,5.09135 3.5905,11.37188z" fill="#000000"/></g><g stroke="#000000" stroke-width="0.5" stroke-linecap="butt"><path d="M365.554,246.93261v-89.03794l19.10467,-0.45708v89.49503z" fill="#0b8100"/><path d="M365.58132,247.05732v-54.61827h19.27966v54.61827z" fill="#740000"/><path d="M365.58132,217.5036v-25.06455h8.84598z" fill="#ffffff"/><path d="M365.44555,208.67543v-16.46031h5.80928z" fill="#ff0000"/><path d="M373.85161,170.2349c0,5.78167 -1.47982,10.46862 -3.30531,10.46862c-1.82547,0 -3.30534,-4.68695 -3.30534,-10.46862c0,-5.78167 1.47984,-10.46862 3.30534,-10.46862c1.82547,0 3.30531,4.68695 3.30531,10.46862z" fill="#000000"/><path d="M363.54849,165.5538v-8.98039h22.76076v8.98039z" fill="#ff6e00"/><path d="M365.26241,156.27635l5.48491,-18.80627h8.36307l5.71347,18.80627z" fill="#ff6e00"/></g></g></g></svg>