<svg version="1.1" xmlns="http://www.w3.org/2000/svg" xmlns:xlink="http://www.w3.org/1999/xlink" width="69.45008" height="88.41618" viewBox="0,0,69.45008,88.41618"><defs><linearGradient x1="320.66701" y1="137.86663" x2="320.66701" y2="222.68057" gradientUnits="userSpaceOnUse" id="color-1"><stop offset="0" stop-color="#555555"/><stop offset="1" stop-color="#00ff94"/></linearGradient><linearGradient x1="299.31765" y1="178.051" x2="299.31765" y2="197.78803" gradientUnits="userSpaceOnUse" id="color-2"><stop offset="0" stop-color="#fde600"/><stop offset="1" stop-color="#fcf6b2"/></linearGradient><linearGradient x1="341.71568" y1="176.88827" x2="341.71568" y2="197.17856" gradientUnits="userSpaceOnUse" id="color-3"><stop offset="0" stop-color="#fde600"/><stop offset="1" stop-color="#fcf6b2"/></linearGradient><radialGradient cx="306.56529" cy="198.07333" r="17.60144" gradientUnits="userSpaceOnUse" id="color-4"><stop offset="0" stop-color="#7df9ff"/><stop offset="1" stop-color="#00dbff"/></radialGradient><radialGradient cx="335.86119" cy="180.7373" r="17.60145" gradientUnits="userSpaceOnUse" id="color-5"><stop offset="0" stop-color="#00b4b4"/><stop offset="1" stop-color="#00b4b4" stop-opacity="0"/></radialGradient><radialGradient cx="304.05718" cy="182.60675" r="22.68875" gradientUnits="userSpaceOnUse" id="color-6"><stop offset="0" stop-color="#005866"/><stop offset="1" stop-color="#00a3bc"/></radialGradient><radialGradient cx="335.09485" cy="160.46354" r="22.68875" gradientUnits="userSpaceOnUse" id="color-7"><stop offset="0" stop-color="#6eecff"/><stop offset="1" stop-color="#6eecff" stop-opacity="0"/></radialGradient><linearGradient x1="320.30531" y1="209.87864" x2="320.30531" y2="222.69258" gradientUnits="userSpaceOnUse" id="color-8"><stop offset="0" stop-color="#7c7c7c"/><stop offset="1" stop-color="#7a7a7a"/></linearGradient><linearGradient x1="293.13026" y1="137.84858" x2="293.13026" y2="222.66259" gradientUnits="userSpaceOnUse" id="color-9"><stop offset="0" stop-color="#969696"/><stop offset="1" stop-color="#7a7a7a"/></linearGradient><linearGradient x1="348.46783" y1="137.91734" x2="348.46783" y2="222.73135" gradientUnits="userSpaceOnUse" id="color-10"><stop offset="0" stop-color="#969696"/><stop offset="1" stop-color="#7a7a7a"/></linearGradient><linearGradient x1="307.17027" y1="190.78409" x2="307.17027" y2="211.78597" gradientUnits="userSpaceOnUse" id="color-11"><stop offset="0" stop-color="#858585"/><stop offset="1" stop-color="#818181"/></linearGradient><linearGradient x1="325.74601" y1="203.37113" x2="325.74601" y2="215.52953" gradientUnits="userSpaceOnUse" id="color-12"><stop offset="0" stop-color="#808080"/><stop offset="1" stop-color="#7d7d7d"/></linearGradient></defs><g transform="translate(-283.16969,-137.6394)"><g stroke-miterlimit="10"><path d="M352.11471,137.86663v84.81396h-62.89539v-84.81396z" fill="url(#color-1)" stroke="none" stroke-width="0" stroke-linecap="butt"/><g stroke="#000000" stroke-width="1.28786"><path d="M298.26571,182.25778l3.37968,-2.21052l5.626,17.74077l-8.61944,-10.78595l-4.16043,2.16035l-3.12758,-11.11143z" fill="url(#color-2)" stroke-linecap="round"/><path d="M349.3134,176.88827l-2.73043,11.21563l-4.23463,-2.01102l-8.23039,11.08567l4.99149,-17.92963l3.45616,2.08892z" fill="url(#color-3)" stroke-linecap="round"/><path d="M306.47586,201.77506c-1.41176,0 -2.55623,-1.0909 -2.55623,-2.43661v-28.68233c0,-1.3457 1.14447,-2.43661 2.55623,-2.43661h30.09044c1.41176,0 2.55622,1.0909 2.55622,2.43661v28.68233c0,1.3457 -1.14446,2.43661 -2.55622,2.43661c0,0 -10.34588,0.52253 -15.38208,0.52253c-4.99358,0 -14.70835,-0.52253 -14.70835,-0.52253z" fill="url(#color-4)" stroke-linecap="butt"/><path d="M306.16235,201.46155c-1.41176,0 -2.55623,-1.0909 -2.55623,-2.43661v-28.68233c0,-1.3457 1.14447,-2.43661 2.55623,-2.43661h30.09043c1.41176,0 2.55622,1.0909 2.55622,2.43661v28.68233c0,1.3457 -1.14446,2.43661 -2.55622,2.43661c0,0 -10.34587,0.52252 -15.38207,0.52252c-4.99358,0 -14.70835,-0.52252 -14.70835,-0.52252z" fill="url(#color-5)" stroke-linecap="butt"/><path d="M310.92583,194.05096c0,0 1.68588,-0.34816 3.04588,0.18451c1.69903,0.66546 6.35947,3.49926 6.35947,3.49926" fill="none" stroke-linecap="round"/><path d="M283.16969,194.48959z" fill="#ffffff" stroke-linecap="butt"/><path d="M337.89193,184.67478c0,3.32394 -1.4302,6.01852 -3.19444,6.01852c-1.76424,0 -3.19444,-2.69458 -3.19444,-6.01852c0,-1.8249 1.51442,-2.87676 2.19521,-3.9805c0.55922,-0.90665 0.28692,-0.70469 1.08257,-0.70469c1.76424,0 3.11111,1.36125 3.11111,4.68519z" fill="#ffffff" stroke-linecap="butt"/><path d="M300.73883,184.58852l-1.50354,-6.57918c-0.91888,-4.02077 0.65096,-11.32737 4.44887,-12.1953l29.85008,-6.82165c3.79791,-0.86794 8.38572,5.03145 9.30458,9.05222l1.50354,6.57918c0.91888,4.02077 -42.68465,13.9855 -43.60352,9.96473z" fill="url(#color-6)" stroke-linecap="butt"/><path d="M300.84334,184.48402l-1.50353,-6.57918c-0.91888,-4.02077 0.65096,-11.32737 4.44887,-12.1953l29.85008,-6.82165c3.79791,-0.86794 8.38572,5.03145 9.30458,9.05222l1.50354,6.57918c0.91888,4.02077 -42.68466,13.9855 -43.60353,9.96473z" fill="url(#color-7)" stroke-linecap="butt"/><path d="M338.73982,177.27132l-8.16667,5.5" fill="none" stroke-linecap="round"/><path d="M325.94747,186.98959c0,3.32394 -1.4302,6.01852 -3.19444,6.01852c-1.76424,0 -3.19444,-2.69458 -3.19444,-6.01852c0,-1.83727 0.43696,-3.31559 1.12575,-4.41954c0.39039,-0.62569 2.02912,0.00736 2.02912,0.00736c0,0 1.84663,0.57671 2.01642,0.8664c0.64546,1.10123 1.21759,1.77596 1.21759,3.54579z" fill="#ffffff" stroke-linecap="butt"/><path d="M318.29378,181.18299l8.9754,3.01001" fill="none" stroke-linecap="round"/></g><path d="M288.85759,222.69258v-12.81396h62.89539v12.81396z" fill="url(#color-8)" stroke="none" stroke-width="0" stroke-linecap="butt"/><path d="M288.80756,222.66259v-84.81396h8.64539v84.81396z" fill="url(#color-9)" stroke="none" stroke-width="0" stroke-linecap="butt"/><path d="M344.39515,222.73135v-84.81396h8.14539v84.81396z" fill="url(#color-10)" stroke="none" stroke-width="0" stroke-linecap="butt"/><path d="M288.85759,147.95336v-10.31396h62.89539v10.31396z" fill="#969696" stroke="none" stroke-width="0" stroke-linecap="butt"/><path d="M296.60262,211.78597v-21.00188l21.13534,21.00188z" fill="url(#color-11)" stroke="none" stroke-width="0" stroke-linecap="butt"/><path d="M303.7171,215.52953v-12.15842h44.05785v12.15842z" fill="url(#color-12)" stroke="none" stroke-width="0" stroke-linecap="butt"/><text transform="translate(318.8693,219.80558) scale(0.47116,0.5)" font-size="40" xml:space="preserve" fill="#000000" stroke="none" stroke-width="1" stroke-linecap="butt" font-family="Sans Serif" font-weight="normal" text-anchor="start"><tspan x="0" dy="0">100</tspan></text><g stroke-linecap="butt"><path d="M304.24128,213.999l-2.65375,6.84999l-2.38631,-6.84999z" fill="#ffff00" stroke="#ffff00" stroke-width="1"/><path d="M299.27303,202.62319l2.38632,-6.84999l2.65375,6.84999z" fill="#ffff00" stroke="#ffff00" stroke-width="1"/><path d="M295.08963,208.52236c0,-3.72115 3.01658,-6.73773 6.73773,-6.73773c3.72115,0 6.73772,3.01658 6.73772,6.73773c0,3.72115 -3.01658,6.73772 -6.73772,6.73772c-3.72115,0 -6.73773,-3.01658 -6.73773,-6.73772z" fill="#ffff00" stroke="none" stroke-width="0"/><path d="M307.51762,205.98726l6.87114,2.59848l-6.83054,2.44142z" fill="#ffff00" stroke="#ffff00" stroke-width="1"/><path d="M296.18218,211.04699l-6.86899,-2.33105l6.82838,-2.70885z" fill="#ffff00" stroke="#ffff00" stroke-width="1"/><path d="M307.83323,210.63375l3.04475,6.68537l-6.56714,-3.08051z" fill="#ffff00" stroke="#ffff00" stroke-width="1"/><path d="M296.22453,206.23698l-3.23165,-6.49409l6.75404,2.88922z" fill="#ffff00" stroke="#ffff00" stroke-width="1"/><path d="M304.39265,202.69115l6.66063,-3.0985l-3.02751,6.59174z" fill="#ffff00" stroke="#ffff00" stroke-width="1"/><path d="M300.08951,214.33486l-6.46785,3.28387l2.83472,-6.7771z" fill="#ffff00" stroke="#ffff00" stroke-width="1"/><path d="M297.10588,208.72294c0,-2.70702 2.19448,-4.90151 4.9015,-4.90151c2.70702,0 4.90151,2.19448 4.90151,4.90151c0,2.70702 -2.19448,4.9015 -4.90151,4.9015c-2.70702,0 -4.9015,-2.19448 -4.9015,-4.9015z" fill="#fffff7" stroke="none" stroke-width="0"/></g><path d="M352.61977,137.74444v33.64619l-33.86,-33.64619z" fill="#3aff00" stroke="none" stroke-width="0" stroke-linecap="butt"/></g></g></svg>