<svg version="1.1" xmlns="http://www.w3.org/2000/svg" xmlns:xlink="http://www.w3.org/1999/xlink" width="33.6" height="33.6" viewBox="0,0,33.6,33.6"><g transform="translate(-303.2,-163.2)"><g stroke-miterlimit="10"><path d="M303.7,180c0,-9.00224 7.29776,-16.3 16.3,-16.3c9.00224,0 16.3,7.29776 16.3,16.3c0,9.00224 -7.29776,16.3 -16.3,16.3c-9.00224,0 -16.3,-7.29776 -16.3,-16.3z" fill="#00ff65" stroke="#000000"/><path d="M303.7,180c0,-9.00224 7.29776,-16.3 16.3,-16.3c9.00224,0 16.3,7.29776 16.3,16.3c0,9.00224 -7.29776,16.3 -16.3,16.3c-9.00224,0 -16.3,-7.29776 -16.3,-16.3z" fill="none" stroke="#000000"/><text transform="translate(307.72445,182.62908) scale(0.21909,0.21909)" font-size="40" xml:space="preserve" fill="#000000" stroke="none" font-family="Sans Serif" font-weight="normal" text-anchor="start"><tspan x="0" dy="0">2500$</tspan></text></g></g></svg>