<svg version="1.1" xmlns="http://www.w3.org/2000/svg" xmlns:xlink="http://www.w3.org/1999/xlink" width="64.7547" height="88.41618" viewBox="0,0,64.7547,88.41618"><defs><linearGradient x1="319.95335" y1="137.31685" x2="319.95335" y2="222.13082" gradientUnits="userSpaceOnUse" id="color-1"><stop offset="0" stop-color="#878787"/><stop offset="1" stop-color="#8459e0"/></linearGradient><linearGradient x1="319.59165" y1="209.32887" x2="319.59165" y2="222.14281" gradientUnits="userSpaceOnUse" id="color-2"><stop offset="0" stop-color="#7c7c7c"/><stop offset="1" stop-color="#7a7a7a"/></linearGradient><linearGradient x1="292.41661" y1="137.2988" x2="292.41661" y2="222.11282" gradientUnits="userSpaceOnUse" id="color-3"><stop offset="0" stop-color="#969696"/><stop offset="1" stop-color="#7a7a7a"/></linearGradient><linearGradient x1="347.75417" y1="137.36757" x2="347.75417" y2="222.18158" gradientUnits="userSpaceOnUse" id="color-4"><stop offset="0" stop-color="#969696"/><stop offset="1" stop-color="#7a7a7a"/></linearGradient><linearGradient x1="306.45662" y1="190.23432" x2="306.45662" y2="211.2362" gradientUnits="userSpaceOnUse" id="color-5"><stop offset="0" stop-color="#858585"/><stop offset="1" stop-color="#818181"/></linearGradient><linearGradient x1="325.03236" y1="202.82136" x2="325.03236" y2="214.97976" gradientUnits="userSpaceOnUse" id="color-6"><stop offset="0" stop-color="#808080"/><stop offset="1" stop-color="#7d7d7d"/></linearGradient></defs><g transform="translate(-287.15141,-137.08963)"><g stroke-miterlimit="10"><path d="M351.40105,137.31686v84.81396h-62.89539v-84.81396z" fill="url(#color-1)" stroke="none" stroke-width="0" stroke-linecap="butt"/><g stroke="#000000" stroke-width="1.28786"><path d="M317.86989,204.16796c-9.59101,-5.3329 -8.06193,-8.48234 -8.06193,-12.59624c0,-7.08118 0,-28.90484 0,-28.90484h20.96566c0,0 0,21.07844 0,28.19474c0,4.33572 7.50594,16.54121 7.50594,16.54121c0,0 -10.81866,2.09803 -20.40967,-3.23487z" fill="#ff7c00" stroke-linecap="butt"/><g><path d="M321.05003,176.98175c0,4.00429 -0.85051,7.2504 -1.89965,7.2504c-1.04914,0 -1.89965,-3.24611 -1.89965,-7.2504c0,-4.00429 0.85051,-7.2504 1.89965,-7.2504c1.04914,0 1.89965,3.24611 1.89965,7.2504z" fill="#000000" stroke-linecap="butt"/><path d="M329.76063,176.67965c0,3.98046 -1.05795,7.20725 -2.36298,7.20725c-1.30503,0 -2.36298,-3.22679 -2.36298,-7.20725c0,-3.98046 1.05794,-7.20725 2.36298,-7.20725c1.30503,0 2.36298,3.22679 2.36298,7.20725z" fill="#000000" stroke-linecap="butt"/><path d="M320.58671,188.89313c0,0 -6.73771,1.55533 -8.4326,0.51789c-1.69489,-1.03744 1.94598,-4.48835 1.94598,-4.48835l11.67591,6.30095z" fill="#ffffff" stroke-linecap="round"/><path d="M315.49008,185.95845l-2.97622,3.15301" fill="none" stroke-linecap="round"/><path d="M315.38651,189.52272l1.86422,-2.5285" fill="none" stroke-linecap="round"/></g><path d="M310.19951,196.29425c0,0 -0.44169,-1.41346 -0.49476,-2.06056c-0.03975,-0.48471 0.2046,-1.4776 0.2046,-1.4776l20.6205,-0.21529c0,0 -0.0065,0.68108 0.10424,1.19783c0.13654,0.63721 0.96282,2.1344 0.96282,2.1344z" fill="#2700ff" stroke-linecap="butt"/><path d="M331.76538,199.87452c0,1.46556 -1.18806,2.65362 -2.65361,2.65362c-1.46556,0 -2.65362,-1.18806 -2.65362,-2.65362c0,-1.46556 1.18807,-2.65362 2.65362,-2.65362c1.46556,0 2.65361,1.18806 2.65361,2.65362z" fill="#ffffff" stroke-linecap="butt"/><g stroke-linecap="round"><path d="M310.94753,177.03062h-8.27851l3.54794,-2.2947c0,0 -3.58595,-0.96142 -5.47952,-1.1127c-2.03796,-0.16282 -6.34693,0.16783 -6.34693,0.16783l4.58275,-3.9145c0,0 -1.46927,-1.16205 -3.01506,-1.57018c-2.26366,-0.59767 -6.36593,-1.6694 -6.36593,-1.6694c0,0 -0.98393,-4.44983 7.59343,-6.465c2.01339,-0.47302 6.37032,0.66075 6.37032,0.66075c0,0 0.07138,-3.91381 -0.78795,-5.31496c-1.13343,-1.84808 -5.42093,-4.80873 -5.42093,-4.80873c0,0 5.54675,-2.49827 8.64744,-1.94585c2.95316,0.52615 9.5357,5.18542 9.5357,5.18542l-3.99143,-9.3138c0,0 7.58096,2.08894 9.67251,3.71122c2.43792,1.89093 4.07572,6.95239 4.07572,6.95239c0,0 4.0842,0.42152 5.55856,1.29763c1.61691,0.96083 3.75477,4.23666 3.75477,4.23666c0,0 5.95729,-0.6362 8.84118,-0.39238c2.30924,0.19524 5.19856,1.7422 5.19856,1.7422c0,0 -1.91681,0.85605 -3.36474,1.53989c-1.40906,0.66548 -3.28347,2.50959 -3.28347,2.50959c0,0 3.37515,-0.07783 5.02528,0.40767c2.45589,0.72257 2.0201,3.98831 2.0201,3.98831c0,0 -1.63303,0.139 -4.93884,0.95351c-2.82826,0.69686 -7.42843,3.1544 -7.42843,3.1544l3.99142,2.2947c0,0 -4.67955,-0.80989 -6.20888,-0.80989c-1.35747,0 -2.51313,0.80989 -2.51313,0.80989l-0.59132,-6.74913l-2.66095,0.26997l0.88698,-4.31945l-3.8436,3.64453c0,0 -1.06602,-3.62643 -1.12014,-4.95351c-0.14369,-3.52343 -2.57562,-1.9306 -2.57562,-1.9306c0,0 -2.11936,-1.61852 -2.52791,2.33521c-0.1272,1.23105 0.01478,4.5489 0.01478,4.5489c0,0 -1.22304,-1.41804 -1.687,-2.34234c-0.58969,-1.17477 -1.56526,-4.13681 -1.56526,-4.13681l-1.33048,7.694l-3.54794,-5.26432z" fill="#000000"/><path d="M292.32088,153.67867c0,0 3.76315,1.07588 5.32191,2.02473c2.2044,1.34188 6.65237,5.26431 6.65237,5.26431" fill="none"/><path d="M334.45258,160.56275c0,0 0.36099,-1.91897 1.69734,-2.62295c1.21434,-0.6397 5.98984,-1.42653 5.98984,-1.42653" fill="none"/></g></g><path d="M288.14394,222.14281v-12.81396h62.89539v12.81396z" fill="url(#color-2)" stroke="none" stroke-width="0" stroke-linecap="butt"/><path d="M288.09391,222.11282v-84.81396h8.64539v84.81396z" fill="url(#color-3)" stroke="none" stroke-width="0" stroke-linecap="butt"/><path d="M343.68149,222.18158v-84.81396h8.14539v84.81396z" fill="url(#color-4)" stroke="none" stroke-width="0" stroke-linecap="butt"/><path d="M288.14394,147.40359v-10.31396h62.89539v10.31396z" fill="#969696" stroke="none" stroke-width="0" stroke-linecap="butt"/><path d="M295.88897,211.2362v-21.00188l21.13534,21.00188z" fill="url(#color-5)" stroke="none" stroke-width="0" stroke-linecap="butt"/><path d="M303.00344,214.97976v-12.15842h44.05785v12.15842z" fill="url(#color-6)" stroke="none" stroke-width="0" stroke-linecap="butt"/><text transform="translate(318.15565,219.25581) scale(0.47116,0.5)" font-size="40" xml:space="preserve" fill="#000000" stroke="none" stroke-width="1" stroke-linecap="butt" font-family="Sans Serif" font-weight="normal" text-anchor="start"><tspan x="0" dy="0">225</tspan></text><g stroke-linecap="butt"><path d="M303.52763,213.44923l-2.65375,6.84999l-2.38631,-6.84999z" fill="#ffff00" stroke="#ffff00" stroke-width="1"/><path d="M298.55938,202.07342l2.38632,-6.84999l2.65375,6.84999z" fill="#ffff00" stroke="#ffff00" stroke-width="1"/><path d="M294.37597,207.97259c0,-3.72115 3.01658,-6.73773 6.73773,-6.73773c3.72115,0 6.73772,3.01658 6.73772,6.73773c0,3.72115 -3.01658,6.73772 -6.73772,6.73772c-3.72115,0 -6.73773,-3.01658 -6.73773,-6.73772z" fill="#ffff00" stroke="none" stroke-width="0"/><path d="M306.80397,205.43749l6.87114,2.59848l-6.83054,2.44142z" fill="#ffff00" stroke="#ffff00" stroke-width="1"/><path d="M295.46853,210.49722l-6.86899,-2.33105l6.82838,-2.70885z" fill="#ffff00" stroke="#ffff00" stroke-width="1"/><path d="M307.11957,210.08398l3.04475,6.68537l-6.56714,-3.08051z" fill="#ffff00" stroke="#ffff00" stroke-width="1"/><path d="M295.51088,205.68721l-3.23165,-6.49409l6.75404,2.88922z" fill="#ffff00" stroke="#ffff00" stroke-width="1"/><path d="M303.679,202.14138l6.66063,-3.0985l-3.02751,6.59174z" fill="#ffff00" stroke="#ffff00" stroke-width="1"/><path d="M299.37585,213.78509l-6.46785,3.28387l2.83472,-6.7771z" fill="#ffff00" stroke="#ffff00" stroke-width="1"/><path d="M296.39222,208.17317c0,-2.70702 2.19448,-4.90151 4.9015,-4.90151c2.70702,0 4.90151,2.19448 4.90151,4.90151c0,2.70702 -2.19448,4.9015 -4.90151,4.9015c-2.70702,0 -4.9015,-2.19448 -4.9015,-4.9015z" fill="#fffff7" stroke="none" stroke-width="0"/></g><path d="M351.90611,137.19466v33.64619l-33.86,-33.64619z" fill="#3aff00" stroke="none" stroke-width="0" stroke-linecap="butt"/></g></g></svg>