<svg version="1.1" xmlns="http://www.w3.org/2000/svg" xmlns:xlink="http://www.w3.org/1999/xlink" width="65.63814" height="88.41618" viewBox="0,0,65.63814,88.41618"><defs><linearGradient x1="239.99999" y1="138.08752" x2="239.99999" y2="222.90146" gradientUnits="userSpaceOnUse" id="color-1"><stop offset="0" stop-color="#555555"></stop><stop offset="1" stop-color="#00ff94"></stop></linearGradient><linearGradient x1="239.81119" y1="143.22958" x2="239.81119" y2="198.59531" gradientUnits="userSpaceOnUse" id="color-2"><stop offset="0" stop-color="#edcf21"></stop><stop offset="1" stop-color="#edda70"></stop></linearGradient><linearGradient x1="239.59164" y1="210.28903" x2="239.59164" y2="223.10297" gradientUnits="userSpaceOnUse" id="color-3"><stop offset="0" stop-color="#7c7c7c"></stop><stop offset="1" stop-color="#7a7a7a"></stop></linearGradient><linearGradient x1="212.4166" y1="138.25898" x2="212.4166" y2="223.07298" gradientUnits="userSpaceOnUse" id="color-4"><stop offset="0" stop-color="#969696"></stop><stop offset="1" stop-color="#7a7a7a"></stop></linearGradient><linearGradient x1="267.75416" y1="138.0949" x2="267.75416" y2="222.9089" gradientUnits="userSpaceOnUse" id="color-5"><stop offset="0" stop-color="#969696"></stop><stop offset="1" stop-color="#7a7a7a"></stop></linearGradient><linearGradient x1="226.45662" y1="191.19448" x2="226.45662" y2="212.19636" gradientUnits="userSpaceOnUse" id="color-6"><stop offset="0" stop-color="#858585"></stop><stop offset="1" stop-color="#818181"></stop></linearGradient><linearGradient x1="245.03235" y1="203.78152" x2="245.03235" y2="215.93992" gradientUnits="userSpaceOnUse" id="color-7"><stop offset="0" stop-color="#808080"></stop><stop offset="1" stop-color="#7d7d7d"></stop></linearGradient></defs><g transform="translate(-207.15142,-138.04979)"><g data-paper-data="{&quot;isPaintingLayer&quot;:true}" fill-rule="nonzero" stroke-linejoin="miter" stroke-miterlimit="10" stroke-dasharray="" stroke-dashoffset="0" style="mix-blend-mode: normal"><path d="M271.4477,138.08752v84.81396h-62.89539v-84.81396z" data-paper-data="{&quot;index&quot;:null}" fill="url(#color-1)" stroke="none" stroke-width="0" stroke-linecap="butt"></path><g stroke="#000000" stroke-width="1.28786"><path d="M219.92662,190.00661l-9.93556,-9.2823l9.4127,0.91653z" fill="#2ba21c" stroke-linecap="round"></path><path d="M264.74677,181.81272l3.67788,0.08772l-9.80637,10.89475l-0.17429,-1.04572l-4.18288,-4.70574l10.4572,-7.49433z" fill="#2ba21c" stroke-linecap="round"></path><path d="M240.13862,198.59531l-24.81366,-7.10808v-2.714l2.19705,-0.12923l-1.55086,-2.06781l2.84323,-0.12924l-1.16314,-1.93857l2.19705,-0.12924l-2.96305,-3.7847l4.25542,1.0707l-1.0339,-1.93857l2.58475,0.25848l-5.8157,-9.30513l8.14199,3.7479l-3.10171,-4.91103l6.59113,3.7479l0.25848,-2.71399l1.80933,0.12924l-3.48942,-6.8496l5.89037,3.53674v-5.29875l3.10171,3.61866l0.90466,-0.77543l4.7818,-1.16314l-3.87713,-0.25848l4.13561,-4.65256l-4.29932,-5.78572l9.43436,-9.82207l-5.81571,10.5975l4.91104,4.39409l-1.42161,1.55085l2.19704,1.16314l-1.55085,5.94494l4.3452,-3.43759l-2.84323,5.68646l5.42799,-0.64619l-1.55085,5.55722l6.8496,-4.91103l-4.00638,6.33265l8.78817,-3.48942l-5.04027,7.10808l1.42162,0.51695l-2.45552,6.33266l7.88351,0.77542l-6.8496,9.04665z" fill="url(#color-2)" stroke-linecap="round"></path><path d="M253.97907,197.20332l5.05432,2.96287l-2.09144,0.34857l3.83431,4.53145l-2.26573,-0.34857l3.83431,5.75146l-12.37436,-5.40289l0.17429,1.91716l-2.78859,-1.56858l-2.96287,0.17428l-4.35717,-8.54005z" data-paper-data="{&quot;index&quot;:null}" fill="#2ba21c" stroke-linecap="round"></path><path d="M234.98508,193.87222l8.9667,-2.75899l1.14958,3.21882c0,0 -2.64682,1.73991 -4.01096,1.67791c-1.85481,-0.08431 -6.10532,-2.13774 -6.10532,-2.13774z" fill="#ffffff" stroke-linecap="round"></path><path d="M237.76676,188.87149c0,2.31736 -0.98229,2.01176 -2.31557,2.01176c-1.33328,0 -2.51265,0.3056 -2.51265,-2.01176c0,-2.31736 1.08084,-4.19596 2.41412,-4.19596c1.33328,0 2.41411,1.87859 2.41411,4.19596z" fill="#ffffff" stroke-linecap="butt"></path><path d="M249.29686,187.76743c0,2.31736 -0.98229,2.01176 -2.31557,2.01176c-1.33328,0 -2.51265,0.3056 -2.51265,-2.01176c0,-2.31736 1.08084,-4.19596 2.41412,-4.19596c1.33328,0 2.41411,1.87859 2.41411,4.19596z" fill="#ffffff" stroke-linecap="butt"></path><path d="M243.14708,195.25172l-1.49445,-3.21882" fill="none" stroke-linecap="round"></path><path d="M239.0086,193.29743l1.14957,2.1842" fill="none" stroke-linecap="round"></path><path d="M231.77813,179.37512l1.39429,-1.74287l3.48573,0.87143" fill="none" stroke-linecap="round"></path><path d="M225.50381,187.91515l-2.09144,-2.44001l1.74287,-0.17429l-0.52286,-1.91715l1.91715,-0.87143l0.34857,-3.66002l4.00859,1.56858" fill="none" stroke-linecap="round"></path><path d="M243.10676,177.98082l4.53145,0.34857l2.78859,2.96287" fill="none" stroke-linecap="round"></path><path d="M245.1982,172.40364l1.91715,0.87143l0.52286,2.78859l3.66002,0.17429l-0.69715,2.44001l3.66002,0.34857l-0.52286,4.18288" fill="none" stroke-linecap="round"></path><path d="M231.42955,175.71509l1.56858,-3.48573v-2.78859l2.44001,0.52286l3.48573,0.52286" fill="none" stroke-linecap="round"></path><path d="M241.71245,197.50092l-4.35717,8.54005l-2.96287,-0.17429l-2.78859,1.56858l0.17429,-1.91715l-12.37436,5.40289l3.83431,-5.75146l-2.26573,0.34857l3.83431,-4.53145l-2.09144,-0.34857l5.05432,-2.96287z" fill="#2ba21c" stroke-linecap="round"></path><path d="M244.11856,194.84497l-0.2,2l9.6,-4.8l-0.8,3.6l2.56471,-1.50588l-0.96471,2.49412l0.95294,-2.49412l-2.6,1.41176l0.68235,-2.21176l14.6426,-4.57064l-18.47789,11.27652l3.2,2l-11.39793,-1.60036l-13.4038,1.6l3.2,-2l-17.25911,-10.05773l13.42381,3.35185l0.68235,2.21176l-2.6,-1.41176l0.95294,2.49412l-0.96471,-2.49412l2.56471,1.50588l-0.8,-3.6l9.6,4.8l-0.2,-2l3.8,3z" data-paper-data="{&quot;index&quot;:null}" fill="#2ba21c" stroke-linecap="round"></path></g><path d="M208.14394,223.10297v-12.81396h62.89539v12.81396z" fill="url(#color-3)" stroke="none" stroke-width="0" stroke-linecap="butt"></path><path d="M208.0939,223.07298v-84.81396h8.64539v84.81396z" fill="url(#color-4)" stroke="none" stroke-width="0" stroke-linecap="butt"></path><path d="M263.68148,222.9089c0,0 0,-23.00645 0,-35.89576c0,-15.04677 0,-48.9182 0,-48.9182h8.14539v84.81396z" fill="url(#color-5)" stroke="none" stroke-width="0" stroke-linecap="butt"></path><path d="M208.14394,148.36375v-10.31396h62.89539v10.31396z" fill="#969696" stroke="none" stroke-width="0" stroke-linecap="butt"></path><path d="M215.88896,212.19636v-21.00188l21.13534,21.00188z" fill="url(#color-6)" stroke="none" stroke-width="0" stroke-linecap="butt"></path><path d="M223.00343,215.93992v-12.15842h44.05785v12.15842z" fill="url(#color-7)" stroke="none" stroke-width="0" stroke-linecap="butt"></path><text transform="translate(255.06033,220.21597) scale(0.47116,0.5)" font-size="40" xml:space="preserve" fill="#000000" fill-rule="nonzero" stroke="none" stroke-width="1" stroke-linecap="butt" stroke-linejoin="miter" stroke-miterlimit="10" stroke-dasharray="" stroke-dashoffset="0" font-family="Sans Serif" font-weight="normal" text-anchor="start" style="mix-blend-mode: normal"><tspan x="0" dy="0">0</tspan></text><g stroke-linecap="butt"><path d="M223.52762,214.40939l-2.65375,6.84999l-2.38631,-6.84999z" data-paper-data="{&quot;index&quot;:null}" fill="#ffff00" stroke="#ffff00" stroke-width="1"></path><path d="M218.55937,203.03358l2.38632,-6.84999l2.65375,6.84999z" fill="#ffff00" stroke="#ffff00" stroke-width="1"></path><path d="M214.37596,208.93275c0,-3.72115 3.01658,-6.73773 6.73773,-6.73773c3.72115,0 6.73772,3.01658 6.73772,6.73773c0,3.72115 -3.01658,6.73772 -6.73772,6.73772c-3.72115,0 -6.73773,-3.01658 -6.73773,-6.73772z" fill="#ffff00" stroke="none" stroke-width="0"></path><path d="M226.80397,206.39765l6.87114,2.59848l-6.83054,2.44142z" data-paper-data="{&quot;index&quot;:null}" fill="#ffff00" stroke="#ffff00" stroke-width="1"></path><path d="M215.46853,211.45738l-6.86899,-2.33105l6.82838,-2.70885z" fill="#ffff00" stroke="#ffff00" stroke-width="1"></path><path d="M227.11956,211.04414l3.04475,6.68537l-6.56714,-3.08051z" data-paper-data="{&quot;index&quot;:null}" fill="#ffff00" stroke="#ffff00" stroke-width="1"></path><path d="M215.51088,206.64737l-3.23165,-6.49409l6.75404,2.88922z" fill="#ffff00" stroke="#ffff00" stroke-width="1"></path><path d="M223.67899,203.10154l6.66063,-3.0985l-3.02751,6.59174z" data-paper-data="{&quot;index&quot;:null}" fill="#ffff00" stroke="#ffff00" stroke-width="1"></path><path d="M219.37584,214.74525l-6.46785,3.28387l2.83472,-6.7771z" fill="#ffff00" stroke="#ffff00" stroke-width="1"></path><path d="M216.39221,209.13333c0,-2.70702 2.19448,-4.90151 4.9015,-4.90151c2.70702,0 4.90151,2.19448 4.90151,4.90151c0,2.70702 -2.19448,4.9015 -4.90151,4.9015c-2.70702,0 -4.9015,-2.19448 -4.9015,-4.9015z" fill="#fffff7" stroke="none" stroke-width="0"></path></g><path d="M271.9061,138.15484v33.64619l-33.86,-33.64619z" fill="#ff0000" stroke="none" stroke-width="0" stroke-linecap="butt"></path></g></g></svg>