<svg version="1.1" xmlns="http://www.w3.org/2000/svg" xmlns:xlink="http://www.w3.org/1999/xlink" width="736" height="448.52083" viewBox="0,0,736,448.52083"><defs><linearGradient x1="367.86147" y1="184.33637" x2="367.86147" y2="241.11404" gradientUnits="userSpaceOnUse" id="color-1"><stop offset="0" stop-color="#4e0000"/><stop offset="1" stop-color="#710000"/></linearGradient><linearGradient x1="387.34616" y1="163.74674" x2="387.34616" y2="196.38642" gradientUnits="userSpaceOnUse" id="color-2"><stop offset="0" stop-color="#4e0000"/><stop offset="1" stop-color="#710000"/></linearGradient></defs><g transform="translate(53.42367,58.02082)"><g stroke-miterlimit="10"><path d="M-45.92367,273.97918c-4.14213,0 -7.5,-2.3923 -7.5,-5.34335v-321.3133c0,-2.95105 3.35787,-5.34335 7.5,-5.34335h721c4.14214,0 7.5,2.3923 7.5,5.34335v321.3133c0,2.95105 -3.35786,5.34335 -7.5,5.34335z" fill-opacity="0.50196" fill="#000000" stroke="none" stroke-width="0" stroke-linecap="butt"/><path d="M53.5,72.00001v-87h554v87z" fill="#adadad" stroke="#000000" stroke-width="1" stroke-linecap="butt"/><path d="M124.48889,262.33333v-168h387.02222v168z" fill="#adadad" stroke="#000000" stroke-width="1" stroke-linecap="butt"/><text transform="translate(216.56647,53.01877) scale(0.86836,0.86836)" font-size="40" xml:space="preserve" fill="#000000" stroke="none" stroke-width="1" stroke-linecap="butt" font-family="Sans Serif" font-weight="normal" text-anchor="start"><tspan x="0" dy="0">Zombie Guide</tspan></text><path d="M186.50001,390.00001v-116h79v116z" fill="#adadad" stroke="#000000" stroke-width="1" stroke-linecap="butt"/><path d="M369.50001,390.00001v-116h93v116z" fill="#adadad" stroke="#000000" stroke-width="1" stroke-linecap="butt"/><path d="M317.59977,261.57557v-169" fill="none" stroke="#000000" stroke-width="2" stroke-linecap="round"/><path d="M134.58806,254.28259v-124.5h85.56371v124.5z" fill="#adadad" stroke="#000000" stroke-width="1" stroke-linecap="butt"/><path d="M330.08804,254.28259v-124.5h85.56371v124.5z" fill="#adadad" stroke="#000000" stroke-width="1" stroke-linecap="butt"/><text transform="translate(134.58806,118.78258) scale(0.5,0.5)" font-size="40" xml:space="preserve" fill="#000000" stroke="none" stroke-width="1" stroke-linecap="butt" font-family="Sans Serif" font-weight="normal" text-anchor="start"><tspan x="0" dy="0">Ultimate Zombot</tspan></text><text transform="translate(329.58804,119.28258) scale(0.5,0.5)" font-size="40" xml:space="preserve" fill="#000000" stroke="none" stroke-width="1" stroke-linecap="butt" font-family="Sans Serif" font-weight="normal" text-anchor="start"><tspan x="0" dy="0">Gargantuar</tspan></text><text transform="translate(226.08806,144.53257) scale(0.2758,0.31943)" font-size="40" xml:space="preserve" fill="#000000" stroke="none" stroke-width="1" stroke-linecap="butt" font-family="Sans Serif" font-weight="normal" text-anchor="start"><tspan x="0" dy="0">HP: 2000</tspan><tspan x="0" dy="46.150000000000006px">Speed: Fast</tspan><tspan x="0" dy="46.150000000000006px">Damage: Mortal</tspan><tspan x="0" dy="46.150000000000006px">Special: Can use</tspan><tspan x="0" dy="46.150000000000006px">special habili-</tspan><tspan x="0" dy="46.150000000000006px">ties in battle</tspan></text><text transform="translate(421.08807,143.03257) scale(0.24719,0.31943)" font-size="40" xml:space="preserve" fill="#000000" stroke="none" stroke-width="1" stroke-linecap="butt" font-family="Sans Serif" font-weight="normal" text-anchor="start"><tspan x="0" dy="0">HP: 150</tspan><tspan x="0" dy="46.150000000000006px">Speed: Slow</tspan><tspan x="0" dy="46.150000000000006px">Damage: Mortal</tspan><tspan x="0" dy="46.150000000000006px">Special: Summons</tspan><tspan x="0" dy="46.150000000000006px">an imp when dies</tspan></text><g stroke="#000000"><g stroke-width="0.5" stroke-linecap="butt"><path d="M176.89019,200.20331l-2.81595,-24.2541l11.09868,-1.28858l1.45333,20.74098z" fill="#636363"/><path d="M173.59398,174.01379c0.86664,-3.51469 4.40028,-5.66584 7.89258,-4.80471c3.49232,0.86112 5.62084,4.40843 4.7542,7.92313c-0.86664,3.51472 -4.40028,5.66583 -7.89258,4.80471c-3.49232,-0.86112 -5.62084,-4.40843 -4.7542,-7.92313z" fill="#bbbbbb"/><path d="M158.09429,194.31542l23.53311,-6.51029l2.97911,10.76874l-23.53311,6.51029z" fill="#636363"/><path d="M178.45555,198.92731c-3.02069,-1.95274 -3.8763,-6.0002 -1.91103,-9.04024c1.96526,-3.04005 6.00718,-3.92148 9.02787,-1.96874c3.02069,1.95274 3.87628,6.00021 1.91101,9.04024c-1.96526,3.04005 -6.00717,3.92148 -9.02785,1.96874z" fill="#bbbbbb"/></g><path d="M195.80753,154.74616c0,10.88729 -7.22295,19.65179 -17.45818,19.65179c-10.23522,0 -15.43224,1.90164 -15.43224,-8.98565c0,-10.88728 5.19702,-30.4407 15.43224,-30.4407c10.23522,0 17.45818,8.88729 17.45818,19.77457z" fill="none" stroke-width="1.5" stroke-linecap="butt"/><path d="M173.64216,172.40619v-23.21419c0,0 0.9608,-9.09727 9.21009,-5.17126c7.46758,3.55398 -1.46809,11.54799 -1.46809,11.54799l0.0921,15.56366z" fill="#0b8100" stroke-width="0.5" stroke-linecap="butt"/><path d="M173.65084,170.19696v-8.23581h7.81291v8.23581z" fill="#ffffff" stroke-width="0.5" stroke-linecap="butt"/><g stroke-width="0.5" stroke-linecap="butt"><path d="M154.56985,242.83997c0,0 -0.58349,-7.02188 2.70491,-8.7704c3.28841,-1.74852 15.24298,-0.77284 15.24298,-0.77284v9.54324z" fill="#636363"/><path d="M171.89482,218.54504l-4.41106,-22.8284l10.47304,-2.02366l4.41106,22.82839z" fill="#636363"/><path d="M167.60518,236.71693l4.41106,-22.82839l10.47303,2.02368l-4.41106,22.82839z" fill="#636363"/><path d="M181.2261,193.68771c0,4.08947 -3.53193,7.40465 -7.8888,7.40465c-4.35685,0 -7.88879,-3.31518 -7.88879,-7.40465c0,-4.08947 3.53193,-7.40466 7.88879,-7.40466c4.35685,0 7.8888,3.31519 7.8888,7.40466z" fill="#bbbbbb"/><path d="M184.66266,213.94467c0,4.08947 -3.53193,7.40465 -7.88879,7.40465c-4.35685,0 -7.88879,-3.31518 -7.88879,-7.40465c0,-4.08947 3.53193,-7.40466 7.88879,-7.40466c4.35685,0 7.88879,3.31519 7.88879,7.40466z" fill="#bbbbbb"/><path d="M178.89054,237.3348c0,3.03132 -2.61803,5.48866 -5.84752,5.48866c-3.2295,0 -5.84753,-2.45736 -5.84753,-5.48866c0,-3.03132 2.61803,-5.48867 5.84753,-5.48867c3.2295,0 5.84752,2.45736 5.84752,5.48867z" fill="#bbbbbb"/></g><path d="M166.51392,202.98278l-3.19235,-28.14645c0,0 17.79376,-8.64527 23.71199,-8.77661c3.70954,-0.08231 8.38036,8.0644 8.38036,8.0644l-2.99283,28.85866z" fill="#636363" stroke-width="0.5" stroke-linecap="butt"/><g stroke-width="0.5" stroke-linecap="butt"><path d="M170.67569,249.02842c0,0 -0.5835,-7.02188 2.70491,-8.7704c3.28841,-1.74852 15.24298,-0.77284 15.24298,-0.77284v9.54324z" fill="#636363"/><path d="M188.00064,224.73348l-4.41106,-22.82839l10.47304,-2.02368l4.41106,22.82839z" fill="#636363"/><path d="M183.71101,242.90538l4.41106,-22.82839l10.47303,2.02368l-4.41106,22.82839z" fill="#636363"/><path d="M197.33189,199.87616c0,4.08947 -3.53193,7.40466 -7.88879,7.40466c-4.35685,0 -7.88879,-3.31518 -7.88879,-7.40466c0,-4.08947 3.53193,-7.40466 7.88879,-7.40466c4.35685,0 7.88879,3.31518 7.88879,7.40466z" fill="#bbbbbb"/><path d="M200.76849,220.13311c0,4.08947 -3.53193,7.40465 -7.88879,7.40465c-4.35685,0 -7.88879,-3.31518 -7.88879,-7.40465c0,-4.08947 3.53193,-7.40466 7.88879,-7.40466c4.35685,0 7.88879,3.31519 7.88879,7.40466z" fill="#bbbbbb"/><path d="M194.99636,243.52324c0,3.03132 -2.61803,5.48866 -5.84752,5.48866c-3.2295,0 -5.84753,-2.45736 -5.84753,-5.48866c0,-3.03132 2.61803,-5.48867 5.84753,-5.48867c3.2295,0 5.84752,2.45736 5.84752,5.48867z" fill="#bbbbbb"/></g><path d="M188.78718,199.63848l-8.54065,-22.87462l10.46741,-3.90821l6.37661,19.78989z" fill="#636363" stroke-width="0.5" stroke-linecap="butt"/><path d="M173.65326,170.00613v-8.04736h3.58475z" fill="#ff0000" stroke-width="0.5" stroke-linecap="butt"/><path d="M176.36851,155.52131c0,1.85629 -0.59969,3.36113 -1.33945,3.36113c-0.73976,0 -1.17395,-0.18092 -1.17395,-2.03721c0,-1.85629 0.81033,-2.59323 1.55009,-2.59323c0.63694,0 0.56023,-1.67633 0.61861,-0.61238c0.00943,0.17174 0.34472,1.6237 0.34472,1.8817z" fill="#000000" stroke-width="0.5" stroke-linecap="butt"/><path d="M173.90572,155.58613l3.2341,-4.23364" fill="none" stroke-width="0.5" stroke-linecap="round"/><path d="M162.16094,174.68411v-9.13575h24.36656l0.39898,-9.77602l9.94824,-0.04732l0.30698,18.95908h-2.98406c0,0 -1.28418,-7.53322 -7.93926,-7.72389c-9.04024,-0.259 -8.27511,7.72389 -8.27511,7.72389z" fill="#636363" stroke-width="0.5" stroke-linecap="butt"/><path d="M179.28999,175.03999c0,-3.61997 2.91587,-6.55453 6.51278,-6.55453c3.59691,0 6.51279,2.93456 6.51279,6.55453c0,3.61997 -2.91589,6.55453 -6.51279,6.55453c-3.59691,0 -6.51278,-2.93456 -6.51278,-6.55453z" fill="#bbbbbb" stroke-width="0.5" stroke-linecap="butt"/><path d="M179.28074,158.70407l-5.41059,2.46031" fill="none" stroke-width="0.5" stroke-linecap="round"/><path d="M169.12827,198.42168l21.29015,-11.95495l5.47059,9.74236l-21.29014,11.95495z" fill="#636363" stroke-width="0.5" stroke-linecap="butt"/><path d="M190.00149,198.02484c-3.40034,-1.17279 -5.20006,-4.89769 -4.01975,-8.31984c1.18031,-3.42214 4.89366,-5.24561 8.29401,-4.07282c3.40034,1.17279 5.20004,4.89771 4.01974,8.31985c-1.18031,3.42214 -4.89364,5.2456 -8.29399,4.07281z" fill="#bbbbbb" stroke-width="0.5" stroke-linecap="butt"/><path d="M172.9294,185.13766c0.7638,3.93685 -3.03968,7.81305 -6.98062,8.65775c-1.0304,0.22086 -0.29391,0.03332 -0.29391,0.03332l-0.90388,-7.21942l-0.71067,-6.90732c0,0 -0.2867,-0.02231 0.37039,-0.16316c3.94093,-0.8447 7.75487,1.66199 8.51868,5.59883z" fill="#bbbbbb" stroke-width="0.5" stroke-linecap="butt"/><path d="M171.07446,185.1955c0.56112,2.89715 -2.23305,5.74967 -5.12817,6.37129c-0.75696,0.16253 -0.21592,0.02451 -0.21592,0.02451l-0.66401,-5.31282l-0.52208,-5.08314c0,0 -0.21063,-0.01641 0.2721,-0.12006c2.89513,-0.62162 5.69697,1.22306 6.25809,4.12022z" fill="#8d8d8d" stroke-width="0.5" stroke-linecap="butt"/></g><g stroke="#000000"><g stroke-width="0.5" stroke-linecap="butt"><path d="M379.28362,174.26534v-34.10453h16.0216v34.10453z" fill="#0b8100"/><path d="M379.30655,174.31046v-17.11233h15.99204v17.11233z" fill="#ff0000"/><path d="M386.24218,148.7269c0,3.30712 -1.24103,5.98806 -2.77191,5.98806c-1.53088,0 -2.77191,-2.68094 -2.77191,-5.98806c0,-3.30712 1.24103,-5.98806 2.77191,-5.98806c1.53088,0 2.77191,2.68094 2.77191,5.98806z" fill="#000000"/></g><path d="M357.81209,240.9844v-98.0224h19.86002v98.0224z" fill="#0b8100" stroke-width="0.5" stroke-linecap="butt"/><path d="M357.84052,241.11404v-56.77768h20.0419v56.77768z" fill="url(#color-1)" stroke-width="0.5" stroke-linecap="butt"/><path d="M366.43776,161.2543c0,6.01022 -1.53837,10.8825 -3.43599,10.8825c-1.89763,0 -3.43599,-4.87224 -3.43599,-10.8825c0,-6.01022 1.53837,-10.8825 3.43599,-10.8825c1.89763,0 3.43599,4.87224 3.43599,10.8825z" fill="#000000" stroke-width="0.5" stroke-linecap="butt"/><path d="M378.09321,196.38642v-32.63968h18.5059v32.63968z" fill="url(#color-2)" stroke-width="0.5" stroke-linecap="butt"/><path d="M357.00209,184.61663v-8.40651h21.20802v8.40651z" fill="#7c0000" stroke-width="0.5" stroke-linecap="butt"/><path d="M357.7361,156.75349l11.5456,-13.67458" fill="none" stroke-width="1" stroke-linecap="round"/></g><text transform="translate(421.42142,251.49776) scale(0.2439,0.2439)" font-size="40" xml:space="preserve" fill="#ff0000" stroke="none" stroke-width="1" stroke-linecap="butt" font-family="Sans Serif" font-weight="normal" text-anchor="start"><tspan x="0" dy="0">Pos-Adv exclusive</tspan></text><text transform="translate(226.58808,251.49773) scale(0.2439,0.2439)" font-size="40" xml:space="preserve" fill="#ff0000" stroke="none" stroke-width="1" stroke-linecap="butt" font-family="Sans Serif" font-weight="normal" text-anchor="start"><tspan x="0" dy="0">Boss Zombie</tspan></text><text transform="translate(421.42143,240.49776) scale(0.2439,0.2439)" font-size="40" xml:space="preserve" fill="#ff0000" stroke="none" stroke-width="1" stroke-linecap="butt" font-family="Sans Serif" font-weight="normal" text-anchor="start"><tspan x="0" dy="0">Special zombie</tspan></text><text transform="translate(226.58808,242.49772) scale(0.22412,0.2439)" font-size="40" xml:space="preserve" fill="#ff0000" stroke="none" stroke-width="1" stroke-linecap="butt" font-family="Sans Serif" font-weight="normal" text-anchor="start"><tspan x="0" dy="0">Poision resistant</tspan></text></g></g></svg>