<svg version="1.1" xmlns="http://www.w3.org/2000/svg" xmlns:xlink="http://www.w3.org/1999/xlink" width="50.26519" height="53.55515" viewBox="0,0,50.26519,53.55515"><g transform="translate(-225.19283,-153.37577)"><g data-paper-data="{&quot;isPaintingLayer&quot;:true}" fill-rule="nonzero" stroke="#000000" stroke-width="1.28786" stroke-linejoin="miter" stroke-miterlimit="10" stroke-dasharray="" stroke-dashoffset="0" style="mix-blend-mode: normal"><path d="M237.91927,185.12619c-8.54829,2.23483 -11.14316,10.16403 -11.18333,10.01042c-1.10899,-4.24193 -2.77919,-21.46597 6.09029,-23.78476c8.86947,-2.31879 16.95861,-0.75979 18.0676,3.48213c1.10899,4.24193 -4.10511,7.97342 -12.97458,10.29221z" fill="#07d200" stroke-linecap="butt"></path><path d="M240.9278,167.63369c0.35166,-8.82859 -6.47807,-13.62028 -6.31942,-13.61398c4.38102,0.17451 21.34483,3.59306 20.97995,12.75337c-0.36488,9.16031 -4.21219,16.44473 -8.59321,16.27022c-4.38102,-0.17451 -6.43219,-6.24933 -6.06731,-15.40964z" fill="#07d200" stroke-linecap="butt"></path><path d="M240.01944,202.96066c0,0 -2.36764,-8.22363 -2.23605,-14.62495c0.03226,-1.56941 1.52504,-5.65135 1.52504,-5.65135l5.44554,1.11113c0,0 -1.13959,3.68159 -1.16565,5.11519c-0.11291,6.21274 1.73847,14.57567 1.73847,14.57567z" fill="#09ff00" stroke-linecap="butt"></path><path d="M259.8292,178.16747c8.07846,3.57857 15.04875,-1.00625 14.98445,-0.86108c-1.7758,4.00878 -11.20192,18.52104 -19.58391,14.80801c-8.38199,-3.71303 -13.73737,-9.97279 -11.96157,-13.98157c1.7758,-4.00878 8.17905,-3.67837 16.56104,0.03466z" fill="#07d200" stroke-linecap="butt"></path><path d="M237.06295,178.61332c0.05657,-5.25133 4.35947,-9.46251 9.61079,-9.40594c5.25133,0.05657 9.46251,4.35947 9.40594,9.61079c-0.05657,5.25133 -4.35947,9.46251 -9.61079,9.40594c-5.25133,-0.05657 -9.46251,-4.35947 -9.40594,-9.61079z" fill="#09ff00" stroke-linecap="butt"></path><path d="M234.96198,205.78699c-3.82097,0 -6.91848,-1.24987 -6.91848,-2.79166c0,-1.54179 3.09751,-2.79166 6.91848,-2.79166c3.82097,0 6.91848,1.24987 6.91848,2.79166c0,1.54179 -3.09751,2.79166 -6.91848,2.79166z" fill="#09ff00" stroke-linecap="butt"></path><path d="M248.46198,206.28699c-3.82097,0 -6.91848,-1.24986 -6.91848,-2.79166c0,-1.54179 3.0975,-2.79166 6.91848,-2.79166c3.82098,0 6.91848,1.24986 6.91848,2.79166c0,1.54179 -3.0975,2.79166 -6.91848,2.79166z" fill="#09ff00" stroke-linecap="butt"></path><path d="M241.92857,173.57143l6.42857,4.85714l-7.85714,3.85714" fill="none" stroke-linecap="round"></path><path d="M253.35714,182.14286l-3.85714,-3.71429l4.71429,-3.14286" fill="none" stroke-linecap="round"></path><path d="M243.35714,184c0,0 0.58806,-1.05049 1.38828,-0.57175c2.62884,1.57273 5.18315,2.14318 5.18315,2.14318" fill="none" stroke-linecap="round"></path></g></g></svg>