<svg version="1.1" xmlns="http://www.w3.org/2000/svg" xmlns:xlink="http://www.w3.org/1999/xlink" width="96.1724" height="97.26079" viewBox="0,0,96.1724,97.26079"><g transform="translate(-191.9138,-131.23755)"><g data-paper-data="{&quot;isPaintingLayer&quot;:true}" fill-rule="nonzero" stroke-linecap="butt" stroke-linejoin="miter" stroke-miterlimit="10" stroke-dasharray="" stroke-dashoffset="0" style="mix-blend-mode: normal"><path d="M192.4138,226.60092v-64.88824v-9.24098c0,0 2.20499,0 4.81102,0c11.2941,0 90.36138,0 90.36138,0v74.12922z" fill="#afafaf" stroke="#000000" stroke-width="1"></path><path d="M192.4138,205.86677v-64.88824v-9.24098c0,0 2.20499,0 4.81102,0c11.2941,0 90.36138,0 90.36138,0v74.12922z" fill="#afafaf" stroke="#000000" stroke-width="1"></path><text transform="translate(227.49782,222.60709) scale(0.4713,0.4713)" font-size="40" xml:space="preserve" fill="#000000" fill-rule="nonzero" stroke="none" stroke-width="1" stroke-linecap="butt" stroke-linejoin="miter" stroke-miterlimit="10" stroke-dasharray="" stroke-dashoffset="0" font-family="Sans Serif" font-weight="normal" text-anchor="start" style="mix-blend-mode: normal"><tspan x="0" dy="0">3-5</tspan></text><path d="M196.91902,199.90347v-60.82023h86.62275v60.82023z" fill="#939393" stroke="#000000" stroke-width="1"></path><path d="M196.68347,199.97841v-60.82023h86.62275v60.82023z" fill="none" stroke="#000000" stroke-width="1"></path><path d="M253.7116,131.95688h33.838v33.838z" fill="#ff0000" stroke="#000000" stroke-width="1"></path><g stroke="#000000" stroke-width="0.5"><path d="M232.00496,171.69733c-1.98929,0.09597 -3.51655,0.26178 -3.5737,-0.92286c-0.05715,-1.18464 1.37745,-3.27111 3.36674,-3.36708c1.98929,-0.09597 3.64826,0.78657 3.70541,1.97121c0.05715,1.18464 -1.50915,2.22277 -3.49845,2.31874z" data-paper-data="{&quot;index&quot;:null}" fill="#f6ff30"></path><path d="M222.15535,168.93744c0.05715,-1.18464 1.71612,-2.06717 3.70541,-1.97121c1.98929,0.09597 3.4239,2.18245 3.36675,3.36708c-0.05715,1.18464 -1.58442,1.01883 -3.5737,0.92286c-1.98929,-0.09597 -3.5556,-1.1341 -3.49845,-2.31874z" data-paper-data="{&quot;index&quot;:null}" fill="#f6ff30"></path><path d="M236.07145,197.56278v-43.22011h8.75669v43.22011z" fill="#0b8100"></path><path d="M236.08398,197.61994v-25.03446h8.83689v25.03446z" fill="#ff0000"></path><path d="M239.87469,162.40814c0,2.65004 -0.67829,4.79833 -1.515,4.79833c-0.83671,0 -1.515,-2.14828 -1.515,-4.79833c0,-2.65004 0.67829,-4.79833 1.515,-4.79833c0.83671,0 1.515,2.14828 1.515,4.79833z" fill="#000000"></path><path d="M236.12954,167.85393h8.79186v4.70992l-3.03444,1.82746c0,0 0.22348,2.12734 -0.16703,2.45153c-0.72935,0.60546 -2.21183,0.21483 -2.21183,0.21483c0,0 0.37012,2.31119 -0.20335,2.87132c-1.21778,1.18946 -3.38453,1.42672 -3.38453,1.42672z" fill="#ffffff"></path><path d="M235.46576,155.74906c0,0 -1.38513,-8.38331 0.78356,-10.965c4.11891,-4.90331 11.615,-0.29905 11.615,-0.29905c0,0 -3.17672,1.90312 -3.88471,4.39764c-0.53679,1.89132 1.04843,6.86642 1.04843,6.86642c0,0 -0.97904,0 -1.7828,0c-1.67901,0 -7.77949,0 -7.77949,0z" fill="#ff0000"></path><path d="M235.06058,156.80253v-2.51213h10.53473v2.51213z" fill="#ffffff"></path><path d="M249.8092,144.93071c0,1.007 -0.79819,1.82332 -1.7828,1.82332c-0.98462,0 -1.7828,-0.81632 -1.7828,-1.82332c0,-1.007 0.79819,-1.82332 1.7828,-1.82332c0.98462,0 1.7828,0.81632 1.7828,1.82332z" fill="#ffffff"></path><path d="M222.25683,183.70661v-12.56064h13.61411v12.56064z" fill="#31ffe6"></path><path d="M227.76731,183.62557v-12.4796h2.10695v12.4796z" fill="#f6ff30"></path><path d="M222.4189,178.35821v-2.02591h13.20893v2.02591z" fill="#f6ff30"></path></g></g></g></svg>