<svg version="1.1" xmlns="http://www.w3.org/2000/svg" xmlns:xlink="http://www.w3.org/1999/xlink" width="69.71149" height="56.72033" viewBox="0,0,69.71149,56.72033"><g transform="translate(-325.66711,-151.63983)"><g stroke-miterlimit="10"><g><path d="M355.25934,201.71256c0,2.19202 -2.36726,3.969 -5.28744,3.969c-2.92017,0 -5.28744,-1.77698 -5.28744,-3.969c0,-2.19202 2.36726,-3.969 5.28744,-3.969c2.92017,0 5.28744,1.77698 5.28744,3.969z" fill="#3ce200" stroke="#000000" stroke-width="1.28786" stroke-linecap="butt"/><path d="M362.2993,196.17904c1.91144,1.4822 1.93898,4.64648 0.06153,7.06763c-1.87745,2.42115 -4.94894,3.18232 -6.86038,1.70012c-1.91144,-1.4822 -1.93898,-4.64648 -0.06153,-7.06763c1.87745,-2.42115 4.94895,-3.18232 6.86038,-1.70012z" fill="#2fb200" stroke="#000000" stroke-width="1.28786" stroke-linecap="butt"/><path d="M370.16818,201.94066c0,2.2676 -2.5613,4.10586 -5.72083,4.10586c-3.15953,0 -5.72083,-1.83826 -5.72083,-4.10586c0,-2.2676 2.5613,-4.10586 5.72083,-4.10586c3.15953,0 5.72083,1.83826 5.72083,4.10586z" fill="#3ce200" stroke="#000000" stroke-width="1.28786" stroke-linecap="butt"/><path d="M356.01217,203.28641c0,0 -6.32389,-11.38318 -7.96159,-16.79426c-1.47298,-4.8668 -1.42295,-14.21281 -1.42295,-14.21281l4.58508,0.86105c0,0 0.259,8.85023 1.86535,12.94564c1.88238,4.79914 6.30568,14.4209 6.30568,14.4209z" fill="#42ff00" stroke="#000000" stroke-width="1.28786" stroke-linecap="butt"/><path d="M346.2515,196.30842l4.01436,-0.74718c0,0 1.29883,1.63439 2.42032,2.26167c1.31791,0.73713 4.82003,2.92513 4.82003,2.92513l-2.28078,3.34755c0,0 -4.34711,-1.52861 -5.83649,-2.82103c-1.50183,-1.30322 -3.13744,-4.96614 -3.13744,-4.96614z" fill="#42ff00" stroke="#000000" stroke-width="1.28786" stroke-linecap="butt"/><path d="M358.18369,200.12207c0,0 5.02067,-4.40608 7.11671,-7.22647c1.92163,-2.58572 4.98181,-9.05309 4.98181,-9.05309l4.31339,3.20559c0,0 -2.69015,5.66102 -4.67178,8.32747c-0.98081,1.31977 -4.46864,4.99207 -6.88026,6.01119c-2.62634,1.10987 -4.22897,0.37324 -4.22897,0.37324z" fill="#42ff00" stroke="#000000" stroke-width="1.28786" stroke-linecap="butt"/><path d="M368.84851,178.51083c0,0 -2.56333,-0.73224 -4.08927,-0.2545c-1.52594,0.47774 -3.083,2.5 -3.083,2.5c0,0 3.44721,-0.5209 4.62136,-0.57142c0.69783,-0.03003 1.77213,0.29635 1.77213,0.29635z" fill="#279400" stroke="#000000" stroke-width="1.28786" stroke-linecap="round"/><path d="M369.67471,173.94253c0,0 -1.87508,-2.18052 -3.53335,-2.6554c-1.65827,-0.47488 -4.26093,0.42335 -4.26093,0.42335c0,0 3.41491,1.57586 4.50277,2.22695c0.64654,0.38696 1.42083,1.31839 1.42083,1.31839z" fill="#279400" stroke="#000000" stroke-width="1.28786" stroke-linecap="round"/><path d="M367.91145,178.07787c0.55318,-5.04014 5.08746,-8.67754 10.1276,-8.12436c5.04014,0.55318 8.67754,5.08746 8.12437,10.1276c-0.55318,5.04014 -5.08746,8.67754 -10.1276,8.12436c-5.04014,-0.55318 -8.67754,-5.08746 -8.12437,-10.1276z" fill="#42ff00" stroke="#000000" stroke-width="1.28786" stroke-linecap="butt"/><path d="M393.93016,183.81255c-1.79132,3.96776 -5.43082,4.64424 -7.67144,3.63268c-2.24062,-1.01157 -3.15568,-3.4293 -1.36437,-7.39707c1.79132,-3.96776 4.89572,-6.56882 7.13633,-5.55725c2.24062,1.01157 3.69079,5.35388 1.89947,9.32164z" fill="#42ff00" stroke="#000000" stroke-width="1.28786" stroke-linecap="butt"/><path d="M392.85123,183.20192c-1.15294,2.55375 -3.49543,2.98916 -4.93755,2.33809c-1.44212,-0.65107 -2.03108,-2.20719 -0.87814,-4.76095c1.15294,-2.55375 3.15102,-4.22788 4.59313,-3.5768c1.44212,0.65107 2.37549,3.44591 1.22255,5.99966z" fill="#000000" stroke="#000000" stroke-width="1.28786" stroke-linecap="butt"/><path d="M377.13872,177.64872c0.1721,-1.56804 1.06275,-2.75676 1.98932,-2.65506c0.92657,0.1017 1.53819,1.45529 1.36609,3.02333c-0.1721,1.56804 -1.06275,2.75676 -1.98932,2.65506c-0.92657,-0.1017 -1.53819,-1.45529 -1.36609,-3.02333z" fill="#000000" stroke="#000000" stroke-width="1.28786" stroke-linecap="butt"/><path d="M382.49087,176.31433c0.1721,-1.56804 0.93893,-2.77034 1.71277,-2.68541c0.77384,0.08493 1.26165,1.42494 1.08955,2.99298c-0.1721,1.56804 -0.93894,2.77034 -1.71278,2.68541c-0.77384,-0.08493 -1.26164,-1.42494 -1.08954,-2.99298z" fill="#000000" stroke="#000000" stroke-width="1.28786" stroke-linecap="butt"/><path d="M368.6049,175.3748c0,0 -2.43842,-1.07746 -4.01553,-0.81389c-1.5771,0.26357 -3.39722,2.05273 -3.39722,2.05273c0,0 3.48608,-0.04237 4.65604,0.06891c0.69534,0.06613 1.71461,0.537 1.71461,0.537z" fill="#279400" stroke="#000000" stroke-width="1.28786" stroke-linecap="round"/><path d="M377.50605,176.72491c0.05215,-0.47516 0.47963,-0.81808 0.95479,-0.76593c0.47516,0.05215 0.81808,0.47963 0.76593,0.95479c-0.05215,0.47516 -0.47963,0.81808 -0.95479,0.76593c-0.47516,-0.05215 -0.81809,-0.47963 -0.76594,-0.95479z" fill="#ffffff" stroke="none" stroke-width="0" stroke-linecap="butt"/><path d="M382.74092,175.49582c0.05215,-0.47516 0.47963,-0.81809 0.95479,-0.76594c0.47516,0.05215 0.81808,0.47963 0.76593,0.95479c-0.05215,0.47516 -0.47963,0.81808 -0.95479,0.76593c-0.47516,-0.05215 -0.81808,-0.47962 -0.76593,-0.95479z" fill="#ffffff" stroke="none" stroke-width="0" stroke-linecap="butt"/><g><path d="M343.81577,157.98279c0,0 -2.45566,-2.29343 -4.4421,-2.63358c-1.98645,-0.34015 -4.89467,1.03481 -4.89467,1.03481c0,0 4.16693,1.3949 5.51336,2.01242c0.80022,0.367 1.8182,1.35006 1.8182,1.35006z" fill="#279400" stroke="#000000" stroke-width="1.28786" stroke-linecap="round"/><path d="M342.29504,163.01032c0,-5.92412 4.80244,-10.72656 10.72656,-10.72656c5.92412,0 10.72656,4.80244 10.72656,10.72656c0,5.92412 -4.80244,10.72656 -10.72656,10.72656c-5.92412,0 -10.72656,-4.80244 -10.72656,-10.72656z" fill="#42ff00" stroke="#000000" stroke-width="1.28786" stroke-linecap="butt"/><path d="M373.24407,166.35399c-1.57467,4.83648 -5.71535,6.08607 -8.44653,5.19685c-2.73119,-0.88923 -4.10213,-3.58053 -2.52746,-8.41701c1.57467,-4.83648 4.84855,-8.25305 7.57974,-7.36383c2.73119,0.88923 4.96892,5.74752 3.39426,10.58399z" fill="#42ff00" stroke="#000000" stroke-width="1.28786" stroke-linecap="butt"/><path d="M371.91317,165.78234c-1.0135,3.11289 -3.67856,3.91716 -5.43642,3.34483c-1.75786,-0.57233 -2.64024,-2.30453 -1.62674,-5.41742c1.0135,-3.11289 3.12066,-5.31189 4.87852,-4.73956c1.75786,0.57233 3.19814,3.69926 2.18464,6.81215z" fill="#000000" stroke="#000000" stroke-width="1.28786" stroke-linecap="butt"/><path d="M352.95686,161.33573c0,-1.84306 0.88287,-3.33715 1.97195,-3.33715c1.08908,0 1.97195,1.49409 1.97195,3.33715c0,1.84306 -0.88287,3.33715 -1.97195,3.33715c-1.08908,0 -1.97195,-1.49409 -1.97195,-3.33715z" fill="#000000" stroke="#000000" stroke-width="1.28786" stroke-linecap="butt"/><path d="M359.00274,159.10374c0,-1.84306 0.73735,-3.33715 1.64691,-3.33715c0.90956,0 1.64691,1.49409 1.64691,3.33715c0,1.84306 -0.73735,3.33715 -1.64691,3.33715c-0.90956,0 -1.64691,-1.49409 -1.64691,-3.33715z" fill="#000000" stroke="#000000" stroke-width="1.28786" stroke-linecap="butt"/><path d="M342.75586,159.7826c0,0 -2.96932,-0.94054 -4.76736,-0.4334c-1.79804,0.50714 -3.68387,2.81708 -3.68387,2.81708c0,0 4.04333,-0.49357 5.4163,-0.51347c0.81599,-0.01183 2.05979,0.40512 2.05979,0.40512z" fill="#279400" stroke="#000000" stroke-width="1.28786" stroke-linecap="round"/><path d="M353.26572,160.216c0,-0.5585 0.45276,-1.01126 1.01126,-1.01126c0.5585,0 1.01126,0.45276 1.01126,1.01126c0,0.5585 -0.45276,1.01126 -1.01126,1.01126c-0.5585,0 -1.01126,-0.45276 -1.01126,-1.01126z" fill="#ffffff" stroke="none" stroke-width="0" stroke-linecap="butt"/><path d="M359.1888,158.12125c0,-0.5585 0.45276,-1.01126 1.01126,-1.01126c0.5585,0 1.01126,0.45276 1.01126,1.01126c0,0.5585 -0.45276,1.01126 -1.01126,1.01126c-0.5585,0 -1.01126,-0.45276 -1.01126,-1.01126z" fill="#ffffff" stroke="none" stroke-width="0" stroke-linecap="butt"/></g><g><path d="M335.41986,184.73189c0.71744,-6.12158 6.26155,-10.50249 12.38313,-9.78506c6.12158,0.71744 10.50249,6.26155 9.78506,12.38313c-0.71744,6.12158 -6.26155,10.50249 -12.38313,9.78506c-6.12158,-0.71744 -10.50249,-6.26155 -9.78506,-12.38313z" fill="#42ff00" stroke="#000000" stroke-width="1.28786" stroke-linecap="butt"/><path d="M366.99554,191.93508c-2.21287,4.80699 -6.6429,5.59678 -9.35743,4.34715c-2.71453,-1.24962 -3.80525,-4.19667 -1.59237,-9.00365c2.21287,-4.80699 6.00964,-7.94096 8.72417,-6.69133c2.71453,1.24962 4.4385,6.54085 2.22562,11.34783z" fill="#42ff00" stroke="#000000" stroke-width="1.28786" stroke-linecap="butt"/><path d="M365.6895,191.18319c-1.42426,3.0939 -4.27555,3.60224 -6.0227,2.79795c-1.74715,-0.80429 -2.44915,-2.70109 -1.02489,-5.79499c1.42426,-3.0939 3.86797,-5.11103 5.61511,-4.30673c1.74715,0.80429 2.85673,4.20987 1.43247,7.30378z" fill="#000000" stroke="#000000" stroke-width="1.28786" stroke-linecap="butt"/><path d="M346.63985,184.29267c0.2232,-1.90449 1.31645,-3.34146 2.44183,-3.20957c1.12538,0.13189 1.85674,1.78271 1.63354,3.6872c-0.2232,1.90449 -1.31644,3.34146 -2.44182,3.20957c-1.12538,-0.13189 -1.85674,-1.78271 -1.63354,-3.6872z" fill="#000000" stroke="#000000" stroke-width="1.28786" stroke-linecap="butt"/><path d="M353.15756,182.71847c0.2232,-1.90449 1.16606,-3.35909 2.10594,-3.24893c0.93988,0.11015 1.52086,1.74335 1.29766,3.64783c-0.2232,1.90449 -1.16607,3.35909 -2.10595,3.24893c-0.93988,-0.11015 -1.52086,-1.74335 -1.29765,-3.64783z" fill="#000000" stroke="#000000" stroke-width="1.28786" stroke-linecap="butt"/><path d="M336.28693,181.45239c0,0 -2.95438,-1.33148 -4.87378,-1.02519c-1.9194,0.30629 -4.14782,2.46484 -4.14782,2.46484c0,0 4.23787,-0.02036 5.65901,0.12536c0.84462,0.0866 2.07939,0.66807 2.07939,0.66807z" fill="#279400" stroke="#000000" stroke-width="1.28786" stroke-linecap="round"/><path d="M347.09461,183.17302c0.06764,-0.57712 0.59032,-0.99013 1.16744,-0.9225c0.57712,0.06764 0.99013,0.59031 0.9225,1.16743c-0.06764,0.57712 -0.59032,0.99013 -1.16744,0.9225c-0.57712,-0.06764 -0.99013,-0.59031 -0.9225,-1.16743z" fill="#ffffff" stroke="none" stroke-width="0" stroke-linecap="butt"/><path d="M353.46881,181.72577c0.06764,-0.57712 0.59032,-0.99014 1.16744,-0.9225c0.57712,0.06764 0.99013,0.59032 0.9225,1.16744c-0.06764,0.57712 -0.59032,0.99013 -1.16744,0.92249c-0.57712,-0.06764 -0.99013,-0.59031 -0.9225,-1.16743z" fill="#ffffff" stroke="none" stroke-width="0" stroke-linecap="butt"/></g><path d="M363.75391,204.07571c0,2.01061 -2.94938,3.64053 -6.58762,3.64053c-3.63825,0 -6.58762,-1.62992 -6.58762,-3.64053c0,-2.01061 2.94938,-3.64053 6.58762,-3.64053c3.63825,0 6.58762,1.62992 6.58762,3.64053z" fill="#42ff00" stroke="#000000" stroke-width="1.28786" stroke-linecap="butt"/></g></g></g></svg>