<svg version="1.1" xmlns="http://www.w3.org/2000/svg" xmlns:xlink="http://www.w3.org/1999/xlink" width="33.6" height="33.6" viewBox="0,0,33.6,33.6"><g transform="translate(-223.2,-163.2)"><g data-paper-data="{&quot;isPaintingLayer&quot;:true}" fill-rule="nonzero" stroke-linejoin="miter" stroke-miterlimit="10" stroke-dasharray="" stroke-dashoffset="0" style="mix-blend-mode: normal"><path d="M223.7,180c0,-9.00224 7.29776,-16.3 16.3,-16.3c9.00224,0 16.3,7.29776 16.3,16.3c0,9.00224 -7.29776,16.3 -16.3,16.3c-9.00224,0 -16.3,-7.29776 -16.3,-16.3z" fill="#ff0000" stroke="#000000" stroke-width="1" stroke-linecap="butt"></path><g fill="none" stroke-width="2" stroke-linecap="round"><path d="M228.65,191.35l22.37455,-22.37455" data-paper-data="{&quot;index&quot;:null}" stroke="#ff7575"></path><path d="M228.97545,168.65l22.37455,22.37455" data-paper-data="{&quot;index&quot;:null}" stroke="#ff7575"></path></g><path d="M223.7,180c0,-9.00224 7.29776,-16.3 16.3,-16.3c9.00224,0 16.3,7.29776 16.3,16.3c0,9.00224 -7.29776,16.3 -16.3,16.3c-9.00224,0 -16.3,-7.29776 -16.3,-16.3z" fill="none" stroke="#000000" stroke-width="1" stroke-linecap="butt"></path></g></g></svg>