<svg version="1.1" xmlns="http://www.w3.org/2000/svg" xmlns:xlink="http://www.w3.org/1999/xlink" width="235.55989" height="240.46738" viewBox="0,0,235.55989,240.46738"><g transform="translate(-211.55197,-69.77301)"><g stroke="none" stroke-miterlimit="10"><text transform="translate(320.08869,147.0224) rotate(90) scale(0.73662,0.73662)" font-size="40" xml:space="preserve" fill="#830087" stroke-width="1" font-family="Sans Serif" font-weight="normal" text-anchor="start"><tspan x="0" dy="0">boom</tspan></text><path d="M396.23747,79.58801c26.83233,0 48.58423,21.7519 48.58423,48.58423c0,26.83233 -21.7519,48.58423 -48.58423,48.58423c-26.83233,0 -48.58423,-21.7519 -48.58423,-48.58423c0,-26.83233 21.7519,-48.58423 48.58423,-48.58423z" fill="#830087" stroke-width="0"/><path d="M356.32315,69.77301c24.84475,0 44.98539,20.14065 44.98539,44.98539c0,24.84475 -20.14065,44.98539 -44.98539,44.98539c-24.84475,0 -44.98539,-20.14065 -44.98539,-44.98539c0,-24.84475 20.14065,-44.98539 44.98539,-44.98539z" fill="#830087" stroke-width="0"/><path d="M323.27934,84.82267c24.66406,0 44.65823,19.99417 44.65823,44.65823c0,24.66406 -19.99417,44.65823 -44.65823,44.65823c-24.66406,0 -44.65823,-19.99417 -44.65823,-44.65823c0,-24.66406 19.99417,-44.65823 44.65823,-44.65823z" fill="#830087" stroke-width="0"/><path d="M299.06901,82.85967c24.12199,0 43.67673,19.55474 43.67673,43.67673c0,24.12199 -19.55474,43.67673 -43.67673,43.67673c-24.12199,0 -43.67673,-19.55474 -43.67673,-43.67673c0,-24.12199 19.55474,-43.67673 43.67673,-43.67673z" fill="#830087" stroke-width="0"/><path d="M295.47018,89.403c31.53024,0 57.09056,25.56031 57.09056,57.09056c0,31.53024 -25.56031,57.09056 -57.09056,57.09056c-31.53024,0 -57.09056,-25.56031 -57.09056,-57.09056c0,-31.53024 25.56031,-57.09056 57.09056,-57.09056z" fill="#830087" stroke-width="0"/><path d="M268.64253,79.26084c21.59234,0 39.0964,17.50405 39.0964,39.0964c0,21.59234 -17.50405,39.0964 -39.0964,39.0964c-21.59234,0 -39.0964,-17.50405 -39.0964,-39.0964c0,-21.59234 17.50405,-39.0964 39.0964,-39.0964z" fill="#830087" stroke-width="0"/><path d="M391.82072,154.18197c27.46474,0 49.72931,22.26457 49.72931,49.72931c0,27.46474 -22.26457,49.72931 -49.72931,49.72931c-27.46474,0 -49.72931,-22.26457 -49.72931,-49.72931c0,-27.46474 22.26457,-49.72931 49.72931,-49.72931z" fill="#830087" stroke-width="0"/><path d="M339.47408,174.13913c29.27163,0 53.00097,23.72934 53.00097,53.00097c0,29.27163 -23.72934,53.00097 -53.00097,53.00097c-29.27163,0 -53.00097,-23.72934 -53.00097,-53.00097c0,-29.27163 23.72934,-53.00097 53.00097,-53.00097z" fill="#830087" stroke-width="0"/><path d="M391.16639,198.34945c30.89783,0 55.94547,25.04764 55.94547,55.94547c0,30.89783 -25.04764,55.94547 -55.94547,55.94547c-30.89783,0 -55.94547,-25.04764 -55.94547,-55.94547c0,-30.89783 25.04764,-55.94547 55.94547,-55.94547z" fill="#830087" stroke-width="0"/><path d="M420.2842,144.69414c11.5641,0 20.93866,9.37456 20.93866,20.93866c0,11.5641 -9.37456,20.93866 -20.93866,20.93866c-11.5641,0 -20.93866,-9.37456 -20.93866,-20.93866c0,-11.5641 9.37456,-20.93866 20.93866,-20.93866z" fill="#830087" stroke-width="0"/><path d="M270.27836,179.04663c32.43369,0 58.72639,26.2927 58.72639,58.72639c0,32.43369 -26.2927,58.72639 -58.72639,58.72639c-32.43369,0 -58.72639,-26.2927 -58.72639,-58.72639c0,-32.43369 26.2927,-58.72639 58.72639,-58.72639z" fill="#830087" stroke-width="0"/><path d="M260.24136,165.30563c20.32752,0 36.80623,16.47871 36.80623,36.80623c0,20.32752 -16.47871,36.80623 -36.80623,36.80623c-20.32752,0 -36.80623,-16.47871 -36.80623,-36.80623c0,-20.32752 16.47871,-36.80623 36.80623,-36.80623z" fill="#830087" stroke-width="0"/><path d="M340.72432,254.29492c11.29307,0 20.44791,9.15484 20.44791,20.44791c0,11.29307 -9.15484,20.44791 -20.44791,20.44791c-11.29307,0 -20.44791,-9.15484 -20.44791,-20.44791c0,-11.29307 9.15484,-20.44791 20.44791,-20.44791z" fill="#830087" stroke-width="0"/><path d="M329.55392,137.82365h48.42064v63.4703h-48.42064z" fill="#830087" stroke-width="0"/><text transform="translate(244.35019,207.77438) scale(0.93068,0.93068)" font-size="40" xml:space="preserve" fill="#ffc300" stroke-width="1" font-family="Sans Serif" font-weight="normal" text-anchor="start"><tspan x="0" dy="0">SPROING!</tspan></text></g></g></svg>