<svg version="1.1" xmlns="http://www.w3.org/2000/svg" xmlns:xlink="http://www.w3.org/1999/xlink" width="64.79223" height="88.59996" viewBox="0,0,64.79223,88.59996"><g transform="translate(-287.55979,-137.40138)"><g stroke-miterlimit="10"><path d="M288.5523,222.40698v-84.81396h62.89539v84.81396z" fill="#515151" stroke="none" stroke-width="0" stroke-linecap="butt"/><g stroke="#000000" stroke-width="1.28786"><path d="M324.74772,203.17011c-4.28612,2.35568 -9.70394,0.72966 -12.10105,-3.63184c-2.39711,-4.36149 -0.86577,-9.80682 3.42036,-12.16251c4.28612,-2.35568 9.70394,-0.72966 12.10105,3.63183c2.39711,4.36149 0.86577,9.80683 -3.42035,12.16252z" fill="#3d4e00" stroke-linecap="butt"/><path d="M308.86676,166.66254c5.38273,-2.95839 7.37198,-5.00935 12.5609,-7.3204c5.18892,-2.31106 13.7455,-0.32113 16.1972,4.13969c5.36591,9.76317 9.73613,19.88704 -3.21163,27.57037c-0.06072,0.03603 -6.87501,-3.39307 -7.26556,-3.35988c-1.9921,0.16931 -4.04412,7.44674 -4.36308,7.62204c-0.22511,0.12372 -1.02742,-8.97123 -1.23892,-8.85697c-12.67483,6.84766 -0.68648,6.03009 -8.03175,-8.57017c-5.70131,-11.33255 -0.62243,-1.91746 -1.91726,-1.50193c-0.99682,0.31988 -8.69583,-6.44382 -2.72989,-9.72275z" fill="#c6ff00" stroke-linecap="butt"/><path d="M327.31694,182.33677l-6.36183,-11.57521l26.4619,-6.53038z" fill="#ff0000" stroke-linecap="butt"/><path d="M326.44772,176.67262c7.15309,11.59333 23.57603,5.49548 8.05625,14.02527c-15.51978,8.52979 -31.76699,8.77442 -36.28917,0.54641c-4.52218,-8.22801 4.39313,-21.8129 19.91291,-30.34269c15.51978,-8.52979 -1.34514,0.10628 8.32001,15.77101z" fill="#c6ff00" stroke-linecap="butt"/><path d="M306.19424,176.32895l14.0875,-0.81142l-6.45353,7.3833l-3.12449,-6.69703l9.32832,-0.71131" fill="#ffffff" stroke-linecap="round"/><path d="M315.1768,208.51519c-4.28612,2.35568 -9.70394,0.72966 -12.10105,-3.63184c-2.39711,-4.36149 -0.86576,-9.80684 3.42035,-12.16252c4.28612,-2.35568 9.70394,-0.72966 12.10105,3.63184c2.39711,4.36149 0.86576,9.80684 -3.42035,12.16252z" fill="#749400" stroke-linecap="butt"/></g><path d="M288.55232,222.38702v-12.81396h62.89539v12.81396z" fill="#969696" stroke="none" stroke-width="0" stroke-linecap="butt"/><path d="M288.50228,222.35702v-84.81396h8.64539v84.81396z" fill="#969696" stroke="none" stroke-width="0" stroke-linecap="butt"/><path d="M344.05232,222.40701v-84.81396h8.14539v84.81396z" fill="#969696" stroke="none" stroke-width="0" stroke-linecap="butt"/><path d="M288.55232,147.90701v-10.31396h62.89539v10.31396z" fill="#969696" stroke="none" stroke-width="0" stroke-linecap="butt"/><path d="M296.29733,211.48042v-21.00188l21.13534,21.00188z" fill="#969696" stroke="none" stroke-width="0" stroke-linecap="butt"/><path d="M303.4118,215.22399v-12.15842h44.05785v12.15842z" fill="#969696" stroke="none" stroke-width="0" stroke-linecap="butt"/><text transform="translate(318.4606,219.75134) scale(0.47116,0.5)" font-size="40" xml:space="preserve" fill="#000000" stroke="none" stroke-width="1" stroke-linecap="butt" font-family="Sans Serif" font-weight="normal" text-anchor="start"><tspan x="0" dy="0">275</tspan></text><g stroke-linecap="butt"><path d="M303.93599,213.69347l-2.65375,6.84999l-2.38631,-6.84999z" fill="#ffff00" stroke="#ffff00" stroke-width="1"/><path d="M298.96774,202.31762l2.38632,-6.84999l2.65375,6.84999z" fill="#ffff00" stroke="#ffff00" stroke-width="1"/><path d="M294.78434,208.21682c0,-3.72115 3.01658,-6.73773 6.73773,-6.73773c3.72115,0 6.73772,3.01658 6.73772,6.73773c0,3.72115 -3.01658,6.73772 -6.73772,6.73772c-3.72115,0 -6.73773,-3.01658 -6.73773,-6.73772z" fill="#ffff00" stroke="none" stroke-width="0"/><path d="M307.21235,205.68172l6.87114,2.59848l-6.83054,2.44142z" fill="#ffff00" stroke="#ffff00" stroke-width="1"/><path d="M295.87691,210.74146l-6.86899,-2.33105l6.82838,-2.70885z" fill="#ffff00" stroke="#ffff00" stroke-width="1"/><path d="M307.52793,210.32821l3.04475,6.68537l-6.56714,-3.08051z" fill="#ffff00" stroke="#ffff00" stroke-width="1"/><path d="M295.91925,205.9314l-3.23165,-6.49409l6.75404,2.88922z" fill="#ffff00" stroke="#ffff00" stroke-width="1"/><path d="M304.08736,202.38559l6.66063,-3.0985l-3.02751,6.59174z" fill="#ffff00" stroke="#ffff00" stroke-width="1"/><path d="M299.78421,214.02932l-6.46785,3.28387l2.83472,-6.7771z" fill="#ffff00" stroke="#ffff00" stroke-width="1"/><path d="M296.80058,208.41738c0,-2.70702 2.19448,-4.90151 4.9015,-4.90151c2.70702,0 4.90151,2.19448 4.90151,4.90151c0,2.70702 -2.19448,4.9015 -4.90151,4.9015c-2.70702,0 -4.9015,-2.19448 -4.9015,-4.9015z" fill="#fffff7" stroke="none" stroke-width="0"/></g><path d="M352.35202,137.40138v33.64619l-33.86,-33.64619z" fill="#3aff00" stroke="none" stroke-width="0" stroke-linecap="butt"/></g></g></svg>