<svg version="1.1" xmlns="http://www.w3.org/2000/svg" xmlns:xlink="http://www.w3.org/1999/xlink" width="64.94367" height="88.38662" viewBox="0,0,64.94367,88.38662"><g transform="translate(-287.5598,-137.40138)"><g stroke-miterlimit="10"><path d="M351.44769,137.59302v84.81396h-62.89539v-84.81396z" fill="#515151" stroke="none" stroke-width="0" stroke-linecap="butt"/><g><path d="M293.96902,169.95317l7.22301,3.51187c0,0 -5.19135,5.21445 -1.20907,10.66793c6.31106,8.64262 15.6353,12.72962 15.6353,12.72962l-4.3109,5.79921c0,0 -13.59297,-9.85889 -16.63004,-15.58828c-2.70348,-5.1001 -0.7083,-17.12037 -0.7083,-17.12037z" fill="#7a7a7a" stroke="#000000" stroke-width="1.28786" stroke-linecap="butt"/><path d="M305.6065,167.024c-2.264,5.91877 -6.4391,10.10106 -9.32533,9.34141c-2.88623,-0.75965 -3.39066,-6.17356 -1.12666,-12.09233c0.83027,-2.17059 2.67167,-6.33512 3.48774,-7.0008c1.40919,-1.14951 2.02225,1.8857 3.66291,2.82398c3.0535,1.74626 5.36457,-1.37694 5.74906,0.29688c0.21769,0.94769 -1.6537,4.55507 -2.44772,6.63087z" fill="#a3a3a3" stroke="#000000" stroke-width="1.28786" stroke-linecap="butt"/><path d="M326.10261,197.37575c1.18539,4.33805 -3.91311,9.51049 -11.38781,11.55297c-7.47471,2.0425 -14.49508,0.18158 -15.68047,-4.15647c-1.18539,-4.33804 3.91311,-9.51049 11.38781,-11.55297c7.47471,-2.04249 14.49508,-0.18157 15.68047,4.15649z" fill="#00ff07" stroke="#000000" stroke-width="1.28786" stroke-linecap="butt"/><path d="M343.49631,208.65049c0,-0.48148 0.10866,-0.8718 0.24267,-0.8718c0.13403,0 0.24268,0.39031 0.24268,0.8718c0,0.48148 -0.10866,0.8718 -0.24268,0.8718c-0.13403,0 -0.24267,-0.39031 -0.24267,-0.8718z" fill="#ba0000" stroke="#000000" stroke-width="1.28786" stroke-linecap="butt"/><path d="M341.94727,196.56622c5.21221,4.36762 6.96413,10.85999 3.91301,14.50113c-3.05112,3.64114 -9.74988,3.05223 -14.96209,-1.31537c-5.21221,-4.36762 -6.96413,-10.85998 -3.91301,-14.50113c3.05112,-3.64114 9.74988,-3.05224 14.96209,1.31536z" fill="#00ff07" stroke="#000000" stroke-width="1.28786" stroke-linecap="butt"/><path d="M341.35716,184.15948c0,8.88498 -7.95159,16.08768 -17.76036,16.08768c-9.80878,0 -17.76036,-7.20269 -17.76036,-16.08768c0,-8.88498 7.95159,-16.08768 17.76036,-16.08768c6.65961,0 7.69946,5.02781 10.73952,9.94046c1.43756,2.32308 7.02086,3.29462 7.02086,6.1472z" fill="#ffffff" stroke="#000000" stroke-width="1.28786" stroke-linecap="butt"/><path d="M332.33398,174.48345c1.90493,5.41258 -1.5123,0.86143 -13.3324,8.24632c-5.65918,3.53572 -7.95043,8.76107 -10.72687,7.34005c-1.08973,-0.55773 -2.50709,-5.26331 -1.10997,-10.23975c1.26838,-4.51789 5.12511,-9.30644 8.57872,-10.52192c7.25776,-2.55434 14.68558,-0.23728 16.59052,5.17529z" fill="#c06fc9" stroke="#000000" stroke-width="1.28786" stroke-linecap="butt"/><path d="M308.68838,181.40448l-5.32273,-13.74437l12.08101,7.87364z" fill="#c06fc9" stroke="#000000" stroke-width="1.28786" stroke-linecap="butt"/><path d="M322.29653,170.48055l8.00428,-11.99485l0.51978,14.72986z" fill="#c06fc9" stroke="#000000" stroke-width="1.28786" stroke-linecap="butt"/><path d="M322.75341,180.17863l1.92344,10.8749" fill="none" stroke="#000000" stroke-width="1.28786" stroke-linecap="round"/><path d="M331.53999,188.5409l-1.66596,-7.23435l6.11014,-1.95742" fill="none" stroke="#000000" stroke-width="1.28786" stroke-linecap="round"/><path d="M308.32263,160.64041c-0.46071,1.12681 -2.99507,1.15675 -5.66067,0.06688c-2.66559,-1.08987 -4.45299,-2.88685 -3.99227,-4.01366c0.46071,-1.12681 2.99507,-1.15675 5.66067,-0.06688c2.66559,1.08987 4.45299,2.88684 3.99227,4.01365z" fill="#606060" stroke="#000000" stroke-width="1.28786" stroke-linecap="butt"/><path d="M305.13529,159.28136c-0.26646,0.58347 -1.22521,0.71725 -2.14143,0.29882c-0.91622,-0.41842 -1.44295,-1.23062 -1.17648,-1.81409c0.26646,-0.58347 1.22521,-0.71725 2.14143,-0.29882c0.91622,0.41842 1.44295,1.23062 1.17648,1.81409z" fill="#00fff9" stroke="#000000" stroke-width="1.28786" stroke-linecap="butt"/><path d="M296.11614,162.40695l1.19997,-2.21654l5.99806,3.24716l-1.19996,2.21655z" fill="#00fff9" stroke="#000000" stroke-width="1.28786" stroke-linecap="butt"/><path d="M294.28782,167.04345l1.19996,-2.21654l4.57464,2.5849l-1.1209,2.32528z" fill="#00fff9" stroke="#000000" stroke-width="1.28786" stroke-linecap="butt"/><path d="M293.71489,172.31253l0.93308,-2.32527l2.91397,1.83368l-0.94296,1.6828z" fill="#00fff9" stroke="#000000" stroke-width="1.28786" stroke-linecap="butt"/><path d="M315.62831,193.1012l-2.83137,-10.22207l12.95686,-3.47159l2.12954,10.41978z" fill="#00fff9" stroke="#000000" stroke-width="1.28786" stroke-linecap="butt"/><path d="M310.47381,195.10609c0,0 -2.52439,-3.26961 -3.3051,-5.10822c-0.74655,-1.75818 -1.28127,-5.69294 -1.28127,-5.69294l6.35805,-1.50537l3.10363,10.54417z" fill="#adadad" stroke="#000000" stroke-width="1.28786" stroke-linecap="butt"/><path d="M323.95974,186.25072c0.59674,1.72288 1.29476,2.92659 0.32751,3.2616c-0.96725,0.33501 -0.96983,-0.62205 -1.56657,-2.34494c-0.59674,-1.72288 -1.56165,-3.55918 -0.59441,-3.8942c0.96725,-0.33501 1.23672,1.25465 1.83345,2.97754z" fill="#00c8c8" stroke="none" stroke-width="0" stroke-linecap="butt"/><path d="M322.23681,184.24134l-4.64766,1.27144" fill="none" stroke="#00c8c8" stroke-width="1.5" stroke-linecap="round"/><path d="M326.62158,196.48449c0,0 -6.5614,0.65073 -7.77452,0.06041c-1.21312,-0.59032 1.44375,-3.14104 1.44375,-3.14104" fill="#f9ffff" stroke="#000000" stroke-width="1.28786" stroke-linecap="round"/><path d="M332.13395,195.70731c0,0 -4.58397,1.26696 -9.39577,-0.26364c-1.71513,-0.54556 -2.4128,-1.97618 -2.4128,-1.97618" fill="none" stroke="#000000" stroke-width="1.28786" stroke-linecap="round"/></g><path d="M288.55233,222.38702v-12.81396h62.89539v12.81396z" fill="#969696" stroke="none" stroke-width="0" stroke-linecap="butt"/><path d="M288.50229,222.35702v-84.81396h8.64539v84.81396z" fill="#969696" stroke="none" stroke-width="0" stroke-linecap="butt"/><path d="M344.35808,222.41133v-84.81396h8.14539v84.81396z" fill="#969696" stroke="none" stroke-width="0" stroke-linecap="butt"/><path d="M288.55233,147.90701v-10.31396h62.89539v10.31396z" fill="#969696" stroke="none" stroke-width="0" stroke-linecap="butt"/><path d="M296.29734,211.48042v-21.00188l21.13534,21.00188z" fill="#969696" stroke="none" stroke-width="0" stroke-linecap="butt"/><path d="M303.41181,215.22399v-12.15842h44.05785v12.15842z" fill="#969696" stroke="none" stroke-width="0" stroke-linecap="butt"/><text transform="translate(318.87042,219.538) scale(0.47116,0.5)" font-size="40" xml:space="preserve" fill="#000000" stroke="none" stroke-width="1" stroke-linecap="butt" font-family="Sans Serif" font-weight="normal" text-anchor="start"><tspan x="0" dy="0">275</tspan></text><g stroke-linecap="butt"><path d="M303.936,213.69347l-2.65375,6.84999l-2.38631,-6.84999z" fill="#ffff00" stroke="#ffff00" stroke-width="1"/><path d="M298.96775,202.31762l2.38632,-6.84999l2.65375,6.84999z" fill="#ffff00" stroke="#ffff00" stroke-width="1"/><path d="M294.78435,208.21682c0,-3.72115 3.01658,-6.73773 6.73773,-6.73773c3.72115,0 6.73772,3.01658 6.73772,6.73773c0,3.72115 -3.01658,6.73772 -6.73772,6.73772c-3.72115,0 -6.73773,-3.01658 -6.73773,-6.73772z" fill="#ffff00" stroke="none" stroke-width="0"/><path d="M307.21236,205.68172l6.87114,2.59848l-6.83054,2.44142z" fill="#ffff00" stroke="#ffff00" stroke-width="1"/><path d="M295.87692,210.74146l-6.86899,-2.33105l6.82838,-2.70885z" fill="#ffff00" stroke="#ffff00" stroke-width="1"/><path d="M307.52794,210.32821l3.04475,6.68537l-6.56714,-3.08051z" fill="#ffff00" stroke="#ffff00" stroke-width="1"/><path d="M295.91926,205.9314l-3.23165,-6.49409l6.75404,2.88922z" fill="#ffff00" stroke="#ffff00" stroke-width="1"/><path d="M304.08737,202.38559l6.66063,-3.0985l-3.02751,6.59174z" fill="#ffff00" stroke="#ffff00" stroke-width="1"/><path d="M299.78422,214.02932l-6.46785,3.28387l2.83472,-6.7771z" fill="#ffff00" stroke="#ffff00" stroke-width="1"/><path d="M296.80059,208.41738c0,-2.70702 2.19448,-4.90151 4.9015,-4.90151c2.70702,0 4.90151,2.19448 4.90151,4.90151c0,2.70702 -2.19448,4.9015 -4.90151,4.9015c-2.70702,0 -4.9015,-2.19448 -4.9015,-4.9015z" fill="#fffff7" stroke="none" stroke-width="0"/></g><path d="M352.35202,137.40138v33.64619l-33.86,-33.64619z" fill="#3aff00" stroke="none" stroke-width="0" stroke-linecap="butt"/></g></g></svg>