<svg version="1.1" xmlns="http://www.w3.org/2000/svg" xmlns:xlink="http://www.w3.org/1999/xlink" width="64.79221" height="88.80982" viewBox="0,0,64.79221,88.80982"><g transform="translate(-287.55981,-137.40138)"><g stroke-miterlimit="10"><path d="M288.55232,222.40698v-84.81396h62.89539v84.81396z" fill="#515151" stroke="none" stroke-width="0" stroke-linecap="butt"/><g stroke="#000000" stroke-width="1.28786"><path d="M318.41022,205.27826v-22.06059h6.24881v22.06059z" fill="#00ff50" stroke-linecap="butt"/><path d="M321.10825,185.75466c1.62995,-1.66812 5.53776,-0.49311 8.72834,2.62447c3.19058,3.11758 4.45572,6.99715 2.82577,8.66527c-1.62995,1.66812 -5.53776,0.49311 -8.72834,-2.62447c-3.19058,-3.11758 -4.45572,-6.99715 -2.82577,-8.66527z" fill="#00ff50" stroke-linecap="butt"/><path d="M318.23925,195.5194c-3.10768,3.03657 -6.91395,4.18106 -8.50155,2.55628c-1.5876,-1.62478 -0.35534,-5.40355 2.75234,-8.44012c3.10768,-3.03657 6.91395,-4.18106 8.50155,-2.55628c1.5876,1.62478 0.35534,5.40355 -2.75234,8.44012z" fill="#00ff50" stroke-linecap="butt"/><path d="M310.55289,176.909c0.48242,-1.94012 -3.03578,-7.90523 -0.11353,-13.17873c2.02497,-3.65428 1.99891,-6.75631 1.99891,-6.75631c0,0 10.53297,12.09674 13.23233,12.76793c1.49796,0.37246 11.91116,-7.32493 11.91116,-7.32493c0,0 2.3669,2.83506 2.12152,6.48582c-0.34009,5.05987 -3.3886,11.66363 -4.03216,14.25185c-1.41307,5.68297 -8.1815,8.89178 -15.1177,7.16709c-6.93621,-1.72469 -11.4136,-7.72977 -10.00053,-13.41274z" fill="#bc0000" stroke-linecap="butt"/><path d="M321.25515,188.74819c-6.93621,1.72469 -13.70464,-1.48412 -15.1177,-7.16709c-0.64356,-2.58823 -3.69207,-9.19198 -4.03216,-14.25185c-0.24538,-3.65075 2.12152,-6.48582 2.12152,-6.48582c0,0 10.41321,7.69739 11.91117,7.32493c2.69935,-0.67119 4.35299,-13.44231 4.35299,-13.44231c0,0 4.13261,1.64087 6.15758,5.29515c2.92224,5.2735 4.12472,13.37414 4.60713,15.31426c1.41307,5.68297 -3.06432,11.68805 -10.00052,13.41274z" fill="#bc0000" stroke-linecap="butt"/><path d="M313.00432,208.9419c-4.34493,0 -7.86719,-1.84153 -7.86719,-4.11318c0,-2.27164 3.52226,-4.11318 7.86719,-4.11318c4.34493,0 7.86719,1.84153 7.86719,4.11318c0,2.27164 -3.52226,4.11318 -7.86719,4.11318z" fill="#00ff50" stroke-linecap="butt"/><path d="M338.99977,204.47472c0,2.34302 -3.8443,4.24243 -8.58648,4.24243c-4.74218,0 -8.58648,-1.8994 -8.58648,-4.24243c0,-2.34302 3.8443,-4.24242 8.58648,-4.24242c4.74218,0 8.58648,1.8994 8.58648,4.24242z" fill="#00ff50" stroke-linecap="butt"/><path d="M321.52899,192.54543c-7.14741,0 -12.94153,-4.74723 -12.94153,-10.60324c0,-2.66704 -1.36492,-9.81126 -0.474,-14.80369c0.64281,-3.60209 3.62388,-5.78223 3.62388,-5.78223c0,0 8.24809,9.98267 9.79167,9.98267c2.78155,0 7.46802,-11.9947 7.46802,-11.9947c0,0 3.61455,2.58958 4.69789,6.62452c1.56338,5.82281 0.77561,13.97424 0.77561,15.97344c0,5.85601 -5.79412,10.60324 -12.94153,10.60324z" fill="#ff0000" stroke-linecap="butt"/><path d="M321.04401,184.82253c-0.63623,0 -1.15199,-2.20129 -1.15199,-4.91672c0,-0.44753 0.04026,-1.29314 0.04026,-1.29314l1.99346,0.25822c0,0 0.27026,0.55869 0.27026,1.03491c0,2.71543 -0.51577,4.91672 -1.15199,4.91672z" fill="#000000" stroke-linecap="butt"/><path d="M321.64138,192.65783c-2.20074,0 -6.08769,-1.244 -6.08769,-1.244c0,0 6.85047,-3.13352 8.19786,-8.53618c2.58987,-10.38464 -2.81724,-11.42632 -2.11017,-11.42632c2.78155,0 7.46802,-11.9947 7.46802,-11.9947c0,0 3.61455,2.58958 4.69789,6.62452c1.56338,5.82281 0.77561,13.97424 0.77561,15.97344c0,5.85601 -5.79412,10.60324 -12.94153,10.60324z" fill="#ff0000" stroke-linecap="butt"/><path d="M325.11275,188.0618c0,0 -2.24293,2.02654 -9.3993,-0.04553c-2.15409,-0.62369 -2.85194,-3.21397 -2.85194,-3.21397" fill="none" stroke-linecap="round"/><path d="M321.85324,178.62048l-6.6314,-0.22479" fill="none" stroke-linecap="round"/><path d="M325.56234,178.73287l6.6314,-0.22479" fill="none" stroke-linecap="round"/><path d="M325.84905,179.90581c0,-0.47622 0.27026,-1.03491 0.27026,-1.03491l1.99346,-0.25822c0,0 0.04026,0.84561 0.04026,1.29314c0,2.71542 -0.51576,4.91672 -1.15199,4.91672c-0.63622,0 -1.15199,-2.20128 -1.15199,-4.91672z" fill="#000000" stroke-linecap="butt"/></g><path d="M288.55234,222.38702v-12.81396h62.89539v12.81396z" fill="#969696" stroke="none" stroke-width="0" stroke-linecap="butt"/><path d="M288.5023,222.35702v-84.81396h8.64539v84.81396z" fill="#969696" stroke="none" stroke-width="0" stroke-linecap="butt"/><path d="M344.05234,222.70842v-84.81396h8.14539v84.81396z" fill="#969696" stroke="none" stroke-width="0" stroke-linecap="butt"/><path d="M288.55234,147.90701v-10.31396h62.89539v10.31396z" fill="#969696" stroke="none" stroke-width="0" stroke-linecap="butt"/><path d="M296.29735,211.48042v-21.00188l21.13534,21.00188z" fill="#969696" stroke="none" stroke-width="0" stroke-linecap="butt"/><path d="M303.41182,215.22399v-12.15842h44.05785v12.15842z" fill="#969696" stroke="none" stroke-width="0" stroke-linecap="butt"/><text transform="translate(318.3159,219.9612) scale(0.47116,0.5)" font-size="40" xml:space="preserve" fill="#000000" stroke="none" stroke-width="1" stroke-linecap="butt" font-family="Sans Serif" font-weight="normal" text-anchor="start"><tspan x="0" dy="0">125</tspan></text><g stroke-linecap="butt"><path d="M303.93601,213.69347l-2.65375,6.84999l-2.38631,-6.84999z" fill="#ffff00" stroke="#ffff00" stroke-width="1"/><path d="M298.96776,202.31762l2.38632,-6.84999l2.65375,6.84999z" fill="#ffff00" stroke="#ffff00" stroke-width="1"/><path d="M294.78436,208.21682c0,-3.72115 3.01658,-6.73773 6.73773,-6.73773c3.72115,0 6.73772,3.01658 6.73772,6.73773c0,3.72115 -3.01658,6.73772 -6.73772,6.73772c-3.72115,0 -6.73773,-3.01658 -6.73773,-6.73772z" fill="#ffff00" stroke="none" stroke-width="0"/><path d="M307.21237,205.68172l6.87114,2.59848l-6.83054,2.44142z" fill="#ffff00" stroke="#ffff00" stroke-width="1"/><path d="M295.87693,210.74146l-6.86899,-2.33105l6.82838,-2.70885z" fill="#ffff00" stroke="#ffff00" stroke-width="1"/><path d="M307.52795,210.32821l3.04475,6.68537l-6.56714,-3.08051z" fill="#ffff00" stroke="#ffff00" stroke-width="1"/><path d="M295.91927,205.9314l-3.23165,-6.49409l6.75404,2.88922z" fill="#ffff00" stroke="#ffff00" stroke-width="1"/><path d="M304.08738,202.38559l6.66063,-3.0985l-3.02751,6.59174z" fill="#ffff00" stroke="#ffff00" stroke-width="1"/><path d="M299.78423,214.02932l-6.46785,3.28387l2.83472,-6.7771z" fill="#ffff00" stroke="#ffff00" stroke-width="1"/><path d="M296.8006,208.41738c0,-2.70702 2.19448,-4.90151 4.9015,-4.90151c2.70702,0 4.90151,2.19448 4.90151,4.90151c0,2.70702 -2.19448,4.9015 -4.90151,4.9015c-2.70702,0 -4.9015,-2.19448 -4.9015,-4.9015z" fill="#fffff7" stroke="none" stroke-width="0"/></g><path d="M352.35202,137.40138v33.64619l-33.86,-33.64619z" fill="#3aff00" stroke="none" stroke-width="0" stroke-linecap="butt"/></g></g></svg>