<svg version="1.1" xmlns="http://www.w3.org/2000/svg" xmlns:xlink="http://www.w3.org/1999/xlink" width="49.85015" height="32.35033" viewBox="0,0,49.85015,32.35033"><g transform="translate(-214.64065,-159.64591)"><g data-paper-data="{&quot;isPaintingLayer&quot;:true}" fill-rule="nonzero" stroke-width="1" stroke-linecap="butt" stroke-linejoin="miter" stroke-miterlimit="10" stroke-dasharray="" stroke-dashoffset="0" style="mix-blend-mode: normal"><path d="M217.73675,180.20618c0,-4.46262 2.99354,-9.57575 10.92659,-11.23107c2.69232,-0.56178 22.94617,-0.93436 26.8814,0.77171c4.57189,1.98208 6.71852,7.24712 6.71852,10.45936c0,2.89868 -1.79509,7.7278 -5.61224,9.67059c-4.05391,2.06328 -26.13023,1.76454 -28.79338,1.21707c-7.99139,-1.64279 -10.12089,-6.40452 -10.12089,-10.88766z" fill="#737373" stroke="#000000"></path><text transform="translate(214.71944,166.50107) scale(0.15759,0.15759)" font-size="40" xml:space="preserve" fill="#000000" fill-rule="nonzero" stroke="none" stroke-width="1" stroke-linecap="butt" stroke-linejoin="miter" stroke-miterlimit="10" stroke-dasharray="" stroke-dashoffset="0" font-family="Sans Serif" font-weight="normal" text-anchor="start" style="mix-blend-mode: normal"><tspan x="0" dy="0">Music Indicator?</tspan></text><path d="M217.96485,180.21364c0,-5.97715 4.84544,-10.8226 10.8226,-10.8226c5.97715,0 10.8226,4.84544 10.8226,10.8226c0,5.97715 -4.84544,10.8226 -10.8226,10.8226c-5.97715,0 -10.8226,-4.84544 -10.8226,-10.8226z" fill="#b2b2b2" stroke="#000000"></path><text transform="translate(221.55849,183.09082) scale(0.23658,0.23658)" font-size="40" xml:space="preserve" fill="#000000" fill-rule="nonzero" stroke="none" stroke-width="1" stroke-linecap="butt" stroke-linejoin="miter" stroke-miterlimit="10" stroke-dasharray="" stroke-dashoffset="0" font-family="Sans Serif" font-weight="normal" text-anchor="start" style="mix-blend-mode: normal"><tspan x="0" dy="0">No</tspan></text></g></g></svg>