<svg version="1.1" xmlns="http://www.w3.org/2000/svg" xmlns:xlink="http://www.w3.org/1999/xlink" width="69.67675" height="70.9432" viewBox="0,0,69.67675,70.9432"><g transform="translate(-208.22443,-145.17964)"><g data-paper-data="{&quot;isPaintingLayer&quot;:true}" fill-rule="nonzero" stroke-width="1.28786" stroke-linejoin="miter" stroke-miterlimit="10" stroke-dasharray="" stroke-dashoffset="0" style="mix-blend-mode: normal"><g stroke="#000000" stroke-linecap="butt"><path d="M240.3378,205.90565l17.94743,-8.56048l2.74702,5.75924l-17.94743,8.56048z" fill="#000000"></path><path d="M253.1318,199.63884l8.83978,-4.21636l2.93867,6.16105l-8.83978,4.21636z" fill="#ffffff"></path></g><path d="M240.25126,212.84246l-9.47593,-15.54255l4.40253,-2.68412l9.47593,15.54255z" fill="#00ff50" stroke="#000000" stroke-linecap="butt"></path><path d="M233.55073,215.47892c-3.58524,0 -6.49165,-1.51955 -6.49165,-3.39401c0,-1.87447 2.90641,-3.39401 6.49165,-3.39401c3.58524,0 6.49165,1.51955 6.49165,3.39401c0,1.87447 -2.90641,3.39401 -6.49165,3.39401z" fill="#00ff50" stroke="#000000" stroke-linecap="butt"></path><path d="M255.00101,211.79278c0,1.93336 -3.17215,3.50066 -7.08518,3.50066c-3.91304,0 -7.08518,-1.56732 -7.08518,-3.50066c0,-1.93336 3.17215,-3.50066 7.08518,-3.50066c3.91304,0 7.08518,1.5673 7.08518,3.50066z" fill="#00ff50" stroke="#000000" stroke-linecap="butt"></path><path d="M230.11303,176.51189c-0.41481,1.36298 -2.83881,4.20936 -5.63218,4.18433c-3.74884,-0.03359 -8.05702,-3.25401 -8.05702,-3.25401c0,0 3.2036,0.03105 4.1751,-3.16113c0.9715,-3.19215 2.45853,-6.2318 5.59469,-5.27734c3.13615,0.95445 4.89095,4.31595 3.91945,7.50811z" fill="#00de46" stroke="#000000" stroke-linecap="butt"></path><path d="M248.53371,183.23449c0,8.31837 -6.14544,15.06175 -13.72622,15.06175c-7.58078,0 -13.72622,-6.74336 -13.72622,-15.06175c0,-8.31837 6.14544,-15.06175 13.72622,-15.06175c7.58078,0 13.72622,6.74336 13.72622,15.06175z" fill="#00ff50" stroke="#000000" stroke-linecap="butt"></path><g stroke="#000000" stroke-linecap="butt"><path d="M248.35961,172.55762c0.13147,0.73913 -0.42779,1.74436 -2.73444,2.6956c-2.8898,1.19172 -8.08576,2.33916 -13.1198,3.23449c-3.76137,0.669 -9.6543,1.40752 -12.49003,1.50758c-3.98877,0.14073 -4.26357,-0.63416 -4.43666,-1.60739c-0.15687,-0.88198 -0.50216,-2.05388 2.6816,-3.18891c2.827,-1.00782 8.91517,-1.98398 13.17263,-2.74119c4.02939,-0.71666 10.09318,-1.79569 13.02623,-1.85966c3.65617,-0.07972 3.73611,1.03554 3.90045,1.95945z" fill="#ffffff"></path><path d="M218.59228,177.85363c0,0 3.51612,-9.3608 2.81527,-15.94955c-0.54037,-5.07996 -7.931,-12.81364 -7.931,-12.81364c0,0 12.97884,-0.40773 18.22389,3.44687c5.57162,4.0946 14.28534,20.44422 14.28534,20.44422z" fill="#ba0bff"></path><path d="M215.89937,148.94211c0.36773,2.06764 -0.90808,4.02371 -2.84964,4.36904c-1.94156,0.34533 -3.81362,-1.0509 -4.18137,-3.11853c-0.36773,-2.06764 0.90808,-4.02371 2.84964,-4.36904c1.94156,-0.34533 3.81362,1.0509 4.18137,3.11853z" fill="#ffffff"></path><path d="M221.13148,160.35178c-0.36499,0.06492 0.22156,-0.54092 -0.03149,-1.04851c-0.53359,-1.07029 -1.70943,-2.57801 -1.70943,-2.57801l-2.43323,-3.76831c0,0 1.41577,-1.252 2.59883,-1.46242c2.42064,-0.43053 4.73561,1.20322 5.17064,3.64907c0.43501,2.44585 -1.17467,4.77763 -3.5953,5.20816z" fill="#ffffff"></path><path d="M232.93722,159.99476c-0.31024,-1.74428 1.33935,-4.50846 1.33935,-4.50846l5.71519,7.84189c0,0 -1.10256,0.64768 -1.75707,0.7641c-2.44587,0.43501 -4.81763,-1.39952 -5.29747,-4.09753z" fill="#ffffff"></path><path d="M223.27488,168.16598c0.25114,1.41204 -0.9148,2.80032 -2.60422,3.10078c-0.44033,0.07831 0.04425,0.64975 -0.00077,0.51582c-0.12775,-0.37992 0.25937,-1.97481 0.25937,-1.97481l0.3355,-3.3517c0,0 1.88985,1.03383 2.01011,1.70993z" fill="#ffffff"></path><path d="M231.28761,161.84245c0.32289,1.81548 -1.03017,3.57443 -3.02216,3.92871c-1.99197,0.35428 -3.86858,-0.83024 -4.19146,-2.64571c-0.32289,-1.81548 1.03017,-3.57443 3.02216,-3.92871c1.99197,-0.35428 3.86858,0.83024 4.19146,2.64571z" fill="#ffffff"></path><path d="M231.9147,152.81617c0,0 -0.68759,3.56609 -3.23409,2.04811c-2.95602,-1.76208 -0.93274,-4.44991 -0.93274,-4.44991z" fill="#ffffff"></path><path d="M242.18396,166.22608l2.8421,4.68845c0,0 -0.74312,0.58004 -1.22073,0.66497c-1.33641,0.23768 -2.64151,-0.81653 -2.91509,-2.35464c-0.22757,-1.27948 1.29372,-2.99879 1.29372,-2.99879z" fill="#ffffff"></path><path d="M218.6376,177.91927l1.56237,-4.54949c0,0 0.93639,-0.30183 1.43468,-0.39046c3.15619,-0.56134 8.05584,3.02006 8.05584,3.02006z" fill="#ffffff"></path><path d="M241.13003,173.75095c0.12048,0.67738 0.61016,-0.01667 -0.23094,0.05467c-1.28799,0.10922 -4.15202,0.72487 -4.15202,0.72487c0,0 -2.87841,0.50882 -4.11507,0.76324c-0.6619,0.13615 0.02104,0.58159 -0.08527,-0.01617c-0.30495,-1.71463 1.36926,-3.44635 3.73949,-3.86791c2.37023,-0.42156 4.53887,0.62669 4.84382,2.3413z" fill="#ffffff"></path><path d="M235.60596,167.58494c0.24115,1.35587 -0.76937,2.66951 -2.25706,2.93412c-1.4877,0.26461 -2.88918,-0.62006 -3.13033,-1.97591c-0.24115,-1.35587 0.76937,-2.66951 2.25706,-2.93412c1.4877,-0.26461 2.88918,0.62006 3.13033,1.97591z" fill="#ffffff"></path></g><path d="M226.88225,179.13051l8.875,5.375l-6.875,5.25" fill="none" stroke="#000000" stroke-linecap="round"></path><path d="M242.13225,187.13051l-3.75,-2.5l2.625,-5.125" fill="none" stroke="#000000" stroke-linecap="round"></path><path d="M253.57903,186.17052c0,6.14658 -3.28864,11.12938 -7.34538,11.12938c-4.05675,0 -7.34538,-4.98278 -7.34538,-11.12938c0,-6.14658 3.28864,-11.12938 7.34538,-11.12938c4.05675,0 7.34538,4.98278 7.34538,11.12938z" fill="#00ff50" stroke="#000000" stroke-linecap="butt"></path><path d="M249.86922,186.4991c0,4.05675 -1.29551,7.34538 -2.89364,7.34538c-1.5981,0 -2.89364,-3.28864 -2.89364,-7.34538c0,-4.05675 1.29551,-7.34538 2.89364,-7.34538c1.5981,0 2.89364,3.28864 2.89364,7.34538z" fill="#000000" stroke="#000000" stroke-linecap="butt"></path><path d="M263.88225,193.50549l9.375,-7.375" fill="none" stroke="#00ff50" stroke-linecap="round"></path><path d="M267.00725,196.88049l10.125,-4.375" fill="none" stroke="#00ff50" stroke-linecap="round"></path><path d="M267.38225,200.50549l9.875,5.25" fill="none" stroke="#00ff50" stroke-linecap="round"></path></g></g></svg>