<svg version="1.1" xmlns="http://www.w3.org/2000/svg" xmlns:xlink="http://www.w3.org/1999/xlink" width="65.24873" height="88.38662" viewBox="0,0,65.24873,88.38662"><g transform="translate(-287.5598,-137.40138)"><g stroke-miterlimit="10"><path d="M351.4477,137.59302v84.81396h-62.89539v-84.81396z" fill="#515151" stroke="none" stroke-width="0" stroke-linecap="butt"/><g stroke="#000000" stroke-width="1.28786"><path d="M312.17492,190.35493c-8.44005,4.8267 -8.92177,13.99472 -9.00852,13.84305c-2.39515,-4.18822 -9.11113,-22.0069 -0.35397,-27.01494c8.75716,-5.00804 17.7979,-5.67265 20.19305,-1.48443c2.39515,4.18822 -2.07343,9.64829 -10.8306,14.65633z" fill="#07d200" stroke-linecap="butt"/><path d="M313.64671,166.89106c0.2823,-9.71863 -7.28953,-14.91016 -7.11488,-14.9051c4.82269,0.14009 23.52917,3.70059 23.23625,13.78437c-0.29292,10.08379 -4.43991,18.14473 -9.2626,18.00464c-4.82269,-0.14009 -7.15168,-6.80016 -6.85877,-16.88393z" fill="#07d200" stroke-linecap="butt"/><path d="M320.40055,209.65222c0,0 -3.48462,-8.74846 -4.03482,-15.77247c-0.36957,-4.71803 4.03482,-14.12185 4.03482,-14.12185h5.86882c0,0 -3.86828,9.36916 -3.48461,14.12185c0.5502,6.81549 3.48461,15.77247 3.48461,15.77247z" fill="#09ff00" stroke-linecap="butt"/><path d="M334.56956,178.25777c8.93148,3.84189 16.54682,-1.28559 16.4778,-1.1251c-1.90647,4.43208 -12.10638,20.51222 -21.37344,16.52598c-9.26706,-3.98624 -15.234,-10.81063 -13.32753,-15.2427c1.90647,-4.43208 8.95614,-4.14441 18.22319,-0.15816z" fill="#07d200" stroke-linecap="butt"/><path d="M309.52422,179.01821c0,-5.77892 4.68474,-10.46366 10.46366,-10.46366c5.77892,0 10.46366,4.68474 10.46366,10.46366c0,5.77892 -4.68474,10.46366 -10.46366,10.46366c-5.77892,0 -10.46366,-4.68474 -10.46366,-10.46366z" fill="#09ff00" stroke-linecap="butt"/><path d="M319.94198,176.58588c0,2.10373 -0.59587,3.80914 -1.33091,3.80914c-0.73504,0 -1.33091,-1.70541 -1.33091,-3.80914c0,-2.10373 0.59587,-3.80914 1.33091,-3.80914c0.73504,0 1.33091,1.70541 1.33091,3.80914z" fill="#000000" stroke-linecap="butt"/><path d="M325.08201,176.76945c0,2.25581 -0.63696,4.08449 -1.42269,4.08449c-0.78573,0 -1.42269,-1.8287 -1.42269,-4.08449c0,-2.25581 0.63696,-4.08449 1.42269,-4.08449c0.78573,0 1.42269,1.8287 1.42269,4.08449z" fill="#000000" stroke-linecap="butt"/><path d="M315.63013,212.03643c-4.20461,0 -7.61313,-1.37536 -7.61313,-3.07195c0,-1.69659 3.40851,-3.07195 7.61313,-3.07195c4.20461,0 7.61313,1.37536 7.61313,3.07195c0,1.69659 -3.40851,3.07195 -7.61313,3.07195z" fill="#09ff00" stroke-linecap="butt"/><path d="M330.48559,212.58663c-4.20461,0 -7.61313,-1.37535 -7.61313,-3.07195c0,-1.69659 3.4085,-3.07195 7.61313,-3.07195c4.20462,0 7.61313,1.37535 7.61313,3.07195c0,1.69659 -3.4085,3.07195 -7.61313,3.07195z" fill="#09ff00" stroke-linecap="butt"/><path d="M320.15219,185.07512c0,0 -3.77324,-0.45902 -5.56472,-1.6829c-1.36025,-0.92928 -2.13811,-2.87592 -2.13811,-2.87592" fill="none" stroke-linecap="round"/></g><path d="M288.55233,222.38702v-12.81396h62.89539v12.81396z" fill="#969696" stroke="none" stroke-width="0" stroke-linecap="butt"/><path d="M288.50229,222.35702v-84.81396h8.64539v84.81396z" fill="#969696" stroke="none" stroke-width="0" stroke-linecap="butt"/><path d="M344.0581,222.41133v-84.81396h8.14539v84.81396z" fill="#969696" stroke="none" stroke-width="0" stroke-linecap="butt"/><path d="M288.55233,147.90701v-10.31396h62.89539v10.31396z" fill="#969696" stroke="none" stroke-width="0" stroke-linecap="butt"/><path d="M296.29734,211.48042v-21.00188l21.13534,21.00188z" fill="#969696" stroke="none" stroke-width="0" stroke-linecap="butt"/><path d="M303.41181,215.22399v-12.15842h44.05785v12.15842z" fill="#969696" stroke="none" stroke-width="0" stroke-linecap="butt"/><text transform="translate(319.76844,219.538) scale(0.47116,0.5)" font-size="40" xml:space="preserve" fill="#000000" stroke="none" stroke-width="1" stroke-linecap="butt" font-family="Sans Serif" font-weight="normal" text-anchor="start"><tspan x="0" dy="0">175</tspan></text><g stroke-linecap="butt"><path d="M303.936,213.69347l-2.65375,6.84999l-2.38631,-6.84999z" fill="#ffff00" stroke="#ffff00" stroke-width="1"/><path d="M298.96775,202.31762l2.38632,-6.84999l2.65375,6.84999z" fill="#ffff00" stroke="#ffff00" stroke-width="1"/><path d="M294.78435,208.21682c0,-3.72115 3.01658,-6.73773 6.73773,-6.73773c3.72115,0 6.73772,3.01658 6.73772,6.73773c0,3.72115 -3.01658,6.73772 -6.73772,6.73772c-3.72115,0 -6.73773,-3.01658 -6.73773,-6.73772z" fill="#ffff00" stroke="none" stroke-width="0"/><path d="M307.21236,205.68172l6.87114,2.59848l-6.83054,2.44142z" fill="#ffff00" stroke="#ffff00" stroke-width="1"/><path d="M295.87692,210.74146l-6.86899,-2.33105l6.82838,-2.70885z" fill="#ffff00" stroke="#ffff00" stroke-width="1"/><path d="M307.52794,210.32821l3.04475,6.68537l-6.56714,-3.08051z" fill="#ffff00" stroke="#ffff00" stroke-width="1"/><path d="M295.91926,205.9314l-3.23165,-6.49409l6.75404,2.88922z" fill="#ffff00" stroke="#ffff00" stroke-width="1"/><path d="M304.08737,202.38559l6.66063,-3.0985l-3.02751,6.59174z" fill="#ffff00" stroke="#ffff00" stroke-width="1"/><path d="M299.78422,214.02932l-6.46785,3.28387l2.83472,-6.7771z" fill="#ffff00" stroke="#ffff00" stroke-width="1"/><path d="M296.80059,208.41738c0,-2.70702 2.19448,-4.90151 4.9015,-4.90151c2.70702,0 4.90151,2.19448 4.90151,4.90151c0,2.70702 -2.19448,4.9015 -4.90151,4.9015c-2.70702,0 -4.9015,-2.19448 -4.9015,-4.9015z" fill="#fffff7" stroke="none" stroke-width="0"/></g><path d="M352.35202,137.40138v33.64619l-33.86,-33.64619z" fill="#00e2ff" stroke="none" stroke-width="0" stroke-linecap="butt"/></g></g></svg>